<svg id="Layer_1" data-name="Layer 1" xmlns="http://www.w3.org/2000/svg" viewBox="0 0 257.95 152.5"><defs><style>.cls-1{fill:#003d43;}.cls-2{fill:#fff;}.cls-3{fill:#ffb819;}.cls-4{opacity:0.3;}.cls-5{fill:#86754d;}.cls-6{fill:#65513c;}</style></defs><title>cartao-1</title><g id="_Group_" data-name="&lt;Group&gt;"><rect class="cls-1" width="257.95" height="152.5"/></g><g id="_Group_2" data-name="&lt;Group&gt;"><g id="_Group_3" data-name="&lt;Group&gt;"><path class="cls-2" d="M76.6,72.63l11.16-8.71V86.25l-3.7-2.9V71.77l-7.46,5.8-7.43-5.8V83.35l-3.73,2.9V63.92Z"/><path class="cls-2" d="M103,64l11.13,22.24h-4.5l-6.63-14-6.6,14h-4.5Z"/><path class="cls-2" d="M125.2,73.07a8.75,8.75,0,0,1,2.13.44,6.87,6.87,0,0,1,2.87,1.81,6.38,6.38,0,0,1,1.45,4.26l0,0.56a7.49,7.49,0,0,1-1,2.84,5.84,5.84,0,0,1-1.41,1.58A7.25,7.25,0,0,1,127,85.75a10,10,0,0,1-3.32.47,8,8,0,0,1-3.41-.75,8.21,8.21,0,0,1-2.78-2.09l3-2.34a1.26,1.26,0,0,0,.24.27,4.07,4.07,0,0,0,1.75,1,4.93,4.93,0,0,0,1.57.24,3.8,3.8,0,0,0,2.61-.86,2.66,2.66,0,0,0,1-2.07,2.51,2.51,0,0,0-1.3-2.31,5.88,5.88,0,0,0-1.23-.47q-0.67-.18-1.85-0.42a8.07,8.07,0,0,1-2-.53,6.8,6.8,0,0,1-2.69-1.81,5.59,5.59,0,0,1-1.36-3.79l0.06-.56a6.39,6.39,0,0,1,1-2.67,6.29,6.29,0,0,1,3.61-2.58A10.5,10.5,0,0,1,125.2,64a8,8,0,0,1,3.42.77,8.33,8.33,0,0,1,2.8,2.1l-3,2.34a3.35,3.35,0,0,0-2.1-1.33,9.07,9.07,0,0,0-1.51-.18,4.52,4.52,0,0,0-2.64.67,2.16,2.16,0,0,0-.95,1.88,2.72,2.72,0,0,0,.28,1.33,1.83,1.83,0,0,0,.84.77,4.42,4.42,0,0,0,1.24.38Z"/><path class="cls-2" d="M149.81,64h3.73V78a10.28,10.28,0,0,1-.33,2.67,7.21,7.21,0,0,1-2.22,3.7,9.15,9.15,0,0,1-6.07,1.87,8.37,8.37,0,0,1-5.8-1.87,6.81,6.81,0,0,1-2.1-3.7,11.16,11.16,0,0,1-.33-2.67V64h3.7V78a6.11,6.11,0,0,0,.56,2.75,4,4,0,0,0,4,2.16q3.11,0,4.29-2.16a5.85,5.85,0,0,0,.59-2.75V64Z"/><path class="cls-2" d="M169,64v3.7h-3.7V86.22h-3.7V67.71h-3.7V64H169Z"/><path class="cls-2" d="M184.37,64v3.7h-3.7V86.22H177V67.71h-3.7V64h11.11Z"/><path class="cls-2" d="M188.84,86.22V64h3.67V83.35Z"/></g><g id="_Group_4" data-name="&lt;Group&gt;"><g id="_Group_5" data-name="&lt;Group&gt;"><g id="_Group_6" data-name="&lt;Group&gt;"><circle class="cls-3" cx="102.98" cy="78.84" r="1.83"/></g><g id="_Group_7" data-name="&lt;Group&gt;" class="cls-4"><polygon class="cls-5" points="104.6 79.48 103.31 78.96 103.33 78.91 104.6 79.48"/></g><g id="_Group_8" data-name="&lt;Group&gt;" class="cls-4"><polygon class="cls-5" points="101.41 78.09 102 78.36 102.02 78.31 101.41 78.09"/></g><g id="_Group_9" data-name="&lt;Group&gt;"><ellipse class="cls-6" cx="102.66" cy="78.63" rx="0.29" ry="0.82" transform="translate(-11.35 139.67) rotate(-65.61)"/></g><g id="_Group_10" data-name="&lt;Group&gt;"><ellipse class="cls-6" cx="102.66" cy="78.63" rx="0.23" ry="0.75" transform="translate(-11.35 139.67) rotate(-65.61)"/></g><g id="_Group_11" data-name="&lt;Group&gt;"><path class="cls-5" d="M103.18,79h-0.1a1.93,1.93,0,0,1-.52-0.16,0.82,0.82,0,0,1-.6-0.54,0.81,0.81,0,0,1,.8.09,1.93,1.93,0,0,1,.46.28,0.26,0.26,0,0,1,.14.26A0.18,0.18,0,0,1,103.18,79Zm-1-.74a0.16,0.16,0,0,0-.15.05,0.83,0.83,0,0,0,.58.49,1.89,1.89,0,0,0,.5.16,0.25,0.25,0,0,0,.25,0h0a0.25,0.25,0,0,0-.13-0.21,1.89,1.89,0,0,0-.45-0.28A1.61,1.61,0,0,0,102.15,78.28Z"/></g><g id="_Group_12" data-name="&lt;Group&gt;"><g id="_Group_13" data-name="&lt;Group&gt;"><rect class="cls-5" x="102.64" y="77.89" width="0.05" height="1.5" transform="translate(-11.35 139.67) rotate(-65.61)"/></g></g></g></g></g></svg>