<svg id="Layer_1" data-name="Layer 1" xmlns="http://www.w3.org/2000/svg" viewBox="0 0 257.95 152.5"><defs><style>.cls-1{fill:#00a99d;}.cls-2{fill:#fff;}.cls-3{fill:#fcb133;}</style></defs><title>cartao-2_Verso</title><g id="_Group_" data-name="&lt;Group&gt;"><rect class="cls-1" width="257.95" height="152.5"/></g><g id="_Group_2" data-name="&lt;Group&gt;"><path class="cls-2" d="M88.54,25.33v8.75H87.08l-4.44-7.93H82.42v7.93H81.58V25.33H83l4.45,8H87.7v-8h0.84Z"/><path class="cls-2" d="M98.41,29.56c0,3.19-.72,4.63-3.74,4.63S90.85,33,90.85,29.52c0-3.17,1.16-4.3,3.82-4.3C97.08,25.23,98.41,26.43,98.41,29.56Zm-0.84,0c0-2.7-1.11-3.71-2.9-3.71-2.12,0-3,.84-3,3.68s0.5,4,3,4S97.57,32.24,97.57,29.56Z"/><path class="cls-2" d="M109.93,25.33v8.75h-0.84V26.37H109l-3.19,7.45h-0.94l-3.14-7.45h-0.13v7.71h-0.84V25.33h1.36l3.24,7.61,3.27-7.61h1.35Z"/><path class="cls-2" d="M112.62,25.33h6V26h-5.13v3.31h4.3v0.62h-4.3v3.56h5.13v0.62h-6V25.33Z"/><path class="cls-2" d="M125.19,25.33h6V26H126v3.31h4.3v0.62H126v3.56h5.13v0.62h-6V25.33Z"/><path class="cls-2" d="M137.23,33.34a16.88,16.88,0,0,0,2.23.19h0.3c1.15,0,2-.17,2-1.33A1.69,1.69,0,0,0,141.2,31a18.88,18.88,0,0,0-2.28-1.47c-1.09-.66-1.65-1.14-1.65-2.25,0-.08,0-0.16,0-0.25,0.06-.88.91-1.78,3-1.78a15.82,15.82,0,0,1,2.33.15l-0.12.63a15.28,15.28,0,0,0-2.21-.13c-1.54,0-2.11.59-2.15,1.17,0,0.07,0,.14,0,0.21,0,0.76.35,1.05,1.3,1.64s2,1.23,2.35,1.52a2.2,2.2,0,0,1,.82,1.81c0,1.76-1.55,1.94-2.78,2h-0.35a16.58,16.58,0,0,1-2.33-.2Z"/><path class="cls-2" d="M151.95,29.56c0,3.19-.72,4.63-3.74,4.63s-3.82-1.24-3.82-4.67c0-3.17,1.16-4.3,3.82-4.3C150.62,25.23,151.95,26.43,151.95,29.56Zm-0.84,0c0-2.7-1.11-3.71-2.9-3.71-2.12,0-3,.84-3,3.68s0.5,4,3,4S151.11,32.24,151.11,29.56Z"/><path class="cls-2" d="M157.56,25.33c1.76,0,2.7.69,2.7,2.18a2,2,0,0,1-1.12,2,1.93,1.93,0,0,1,1.46,2c0,1.93-1.15,2.5-2.8,2.5h-3.41V25.33h3.17Zm-2.37.63v3.35h2.51a1.54,1.54,0,0,0,1.75-1.8c0-1.13-.57-1.55-1.89-1.55h-2.37Zm0,4v3.53h2.61c1.2,0,2-.41,2-1.87,0-1.63-1.45-1.66-2.09-1.66h-2.51Z"/><path class="cls-2" d="M163.49,30.54v3.54h-0.84V25.33h3.63c2,0,3,.79,3,2.54a2.26,2.26,0,0,1-1.94,2.55l2.21,3.65h-0.94l-2.14-3.54h-3Zm2.78-.62c1.68,0,2.16-.77,2.16-2S167.79,26,166.27,26h-2.78v4h2.78Z"/><path class="cls-2" d="M171.67,25.33h6V26h-5.13v3.31h4.3v0.62h-4.3v3.56h5.13v0.62h-6V25.33Z"/><path class="cls-2" d="M186.51,25.33v8.75H185l-4.44-7.93h-0.21v7.93h-0.84V25.33H181l4.45,8h0.21v-8h0.84Z"/><path class="cls-2" d="M196.38,29.56c0,3.19-.72,4.63-3.74,4.63s-3.82-1.24-3.82-4.67c0-3.17,1.16-4.3,3.82-4.3C195,25.23,196.38,26.43,196.38,29.56Zm-0.84,0c0-2.7-1.11-3.71-2.9-3.71-2.12,0-3,.84-3,3.68s0.5,4,3,4S195.54,32.24,195.54,29.56Z"/><path class="cls-2" d="M207.9,25.33v8.75h-0.84V26.37h-0.13l-3.19,7.45H202.8l-3.14-7.45h-0.13v7.71h-0.84V25.33H200l3.24,7.61,3.27-7.61h1.35Z"/><path class="cls-2" d="M210.59,25.33h6V26h-5.13v3.31h4.3v0.62h-4.3v3.56h5.13v0.62h-6V25.33Z"/><path class="cls-3" d="M81.82,42.41c0,1,.6,1.32,1.63,1.32s1.72-.33,1.72-1.32V38.24h0.56v4.17c0,1.26-.86,1.74-2.28,1.74s-2.19-.47-2.19-1.74V38.24h0.56v4.17Z"/><path class="cls-3" d="M87,40.19a4.58,4.58,0,0,1,1.75-.36c1.33,0,1.81.66,1.81,2.07v2.17H90V41.9c0-1.2-.31-1.69-1.24-1.69a4,4,0,0,0-1.19.21v3.66H87V40.19Z"/><path class="cls-3" d="M91.73,38.28h0.55v0.56H91.73V38.28Zm0,1.63h0.55v4.17H91.73V39.91Z"/><path class="cls-3" d="M96.12,38.24h0.56v5.85c-0.39,0-.81.06-1.23,0.06-1.79,0-2.21-.72-2.21-2.25s0.33-2.07,1.67-2.07a4.08,4.08,0,0,1,1.19.2V38.24Zm0,2.17a4.05,4.05,0,0,0-1.19-.21c-0.91,0-1.1.51-1.1,1.71s0.21,1.84,1.58,1.85l0.71,0V40.41Z"/><path class="cls-3" d="M98.06,39.94a14.41,14.41,0,0,1,1.5-.11A1.23,1.23,0,0,1,101,41.16V43.8a6.22,6.22,0,0,1-2,.35,1.15,1.15,0,0,1-1.28-1.24,1.21,1.21,0,0,1,1.37-1.23l1.35-.13V41.15a0.79,0.79,0,0,0-.9-0.92c-0.41,0-.92,0-1.42.1Zm2.4,2L99.16,42a0.79,0.79,0,0,0-.86.86,0.75,0.75,0,0,0,.73.87,5.65,5.65,0,0,0,1.42-.22V41.94Z"/><path class="cls-3" d="M104.85,38.24h0.56v5.85c-0.39,0-.81.06-1.23,0.06-1.79,0-2.21-.72-2.21-2.25s0.33-2.07,1.67-2.07a4.1,4.1,0,0,1,1.19.2V38.24Zm0,2.17a4.05,4.05,0,0,0-1.19-.21c-0.91,0-1.1.51-1.1,1.71s0.21,1.84,1.58,1.85l0.71,0V40.41Z"/><path class="cls-3" d="M109.92,43.91a8.37,8.37,0,0,1-1.63.24c-1.46,0-1.84-.83-1.84-2.16,0-1.63.68-2.16,1.79-2.16s1.82,0.58,1.82,2v0.33h-3c0,1.06.31,1.61,1.27,1.61a8.59,8.59,0,0,0,1.55-.23Zm-0.43-2.12c0-1.17-.38-1.58-1.25-1.58s-1.21.42-1.22,1.58h2.46Z"/><path class="cls-3" d="M113.94,38.18h0.52v6.48h-0.52V38.18Z"/><path class="cls-3" d="M122.91,44a12.69,12.69,0,0,1-1.82.18c-2,0-2.4-1.15-2.4-3s0.35-3,2.4-3a10.61,10.61,0,0,1,1.82.17l0,0.42a11.88,11.88,0,0,0-1.77-.18c-1.62,0-1.82,1-1.82,2.6s0.24,2.55,1.82,2.55a13.86,13.86,0,0,0,1.77-.18Z"/><path class="cls-3" d="M124.14,39.94a14.41,14.41,0,0,1,1.5-.11,1.23,1.23,0,0,1,1.45,1.32V43.8a6.22,6.22,0,0,1-2,.35,1.15,1.15,0,0,1-1.28-1.24,1.21,1.21,0,0,1,1.37-1.23l1.35-.13V41.15a0.79,0.79,0,0,0-.9-0.92c-0.41,0-.92,0-1.42.1Zm2.4,2-1.29.11a0.79,0.79,0,0,0-.86.86,0.75,0.75,0,0,0,.73.87,5.65,5.65,0,0,0,1.42-.22V41.94Z"/><path class="cls-3" d="M128.24,40.19a4.58,4.58,0,0,1,1.75-.36,3.1,3.1,0,0,1,.45,0l-0.07.38a2.56,2.56,0,0,0-.38,0,4,4,0,0,0-1.19.21v3.66h-0.55V40.19Z"/><path class="cls-3" d="M131.21,44.91a7.6,7.6,0,0,0,1.54.23c0.9,0,1.12-.4,1.14-1.32a4.13,4.13,0,0,1-1.19.2c-1.34,0-1.67-.66-1.67-1.94,0-1.53.41-2.25,2.21-2.25,0.42,0,.88,0,1.21.06v3.57c0,1.32-.22,2-1.68,2a7.27,7.27,0,0,1-1.64-.25Zm2.67-4.67-0.7,0c-1.4,0-1.6.59-1.6,1.85,0,1.07.19,1.58,1.1,1.58a4.06,4.06,0,0,0,1.19-.21v-3.2Z"/><path class="cls-3" d="M139.24,41.92c0,1.53-.38,2.23-1.86,2.23s-1.9-.6-1.9-2.25,0.59-2.07,1.9-2.07S139.24,40.42,139.24,41.92Zm-0.56,0c0-1.27-.49-1.71-1.3-1.71-1,0-1.34.36-1.34,1.69s0.22,1.87,1.34,1.87S138.69,43.2,138.69,41.92Z"/></g><g id="_Group_3" data-name="&lt;Group&gt;"><path class="cls-2" d="M30.56,121.72l2,5.83H32l-0.61-1.71H28.55L28,127.55H27.38l2-5.83h1.15Zm-0.42.42H29.81l-1.11,3.29h2.56Z"/><path class="cls-2" d="M33,123.39L34.21,127h0.12l1.26-3.64h0.58l-1.49,4.17H33.85l-1.47-4.17H33Z"/><path class="cls-2" d="M36.74,126.78h0.6v0.77h-0.6v-0.77Z"/><path class="cls-2" d="M47.8,121.72v5.83H47.23v-5.14H47.15l-2.12,5H44.39l-2.09-5H42.21v5.14H41.65v-5.83h0.91l2.16,5.08,2.18-5.08h0.9Z"/><path class="cls-2" d="M49.13,123.42a14.41,14.41,0,0,1,1.5-.11,1.23,1.23,0,0,1,1.45,1.32v2.64a6.22,6.22,0,0,1-2,.35,1.15,1.15,0,0,1-1.28-1.24,1.21,1.21,0,0,1,1.37-1.23l1.35-.13v-0.41a0.79,0.79,0,0,0-.9-0.92c-0.41,0-.92,0-1.42.1Zm2.4,2-1.29.11a0.78,0.78,0,0,0-.86.86,0.75,0.75,0,0,0,.73.87,5.65,5.65,0,0,0,1.42-.22v-1.62Z"/><path class="cls-2" d="M53.86,123.39v4.21c0,1.24-.44,1.39-1.07,1.39a2.46,2.46,0,0,1-.75-0.13l0.08-.34,0.33,0.08,0.27,0h0c0.4,0,.56-0.13.56-1v-4.21h0.55Zm0-1.62v0.56H53.3v-0.56h0.55Z"/><path class="cls-2" d="M58.66,125.4c0,1.53-.38,2.23-1.86,2.23s-1.9-.6-1.9-2.25,0.59-2.07,1.9-2.07S58.66,123.9,58.66,125.4Zm-0.56,0c0-1.27-.49-1.71-1.3-1.71-1,0-1.34.36-1.34,1.69s0.22,1.87,1.34,1.87S58.1,126.68,58.1,125.4Z"/><path class="cls-2" d="M59.72,123.67a4.59,4.59,0,0,1,1.75-.36,3.16,3.16,0,0,1,.45,0l-0.07.38-0.38,0a4,4,0,0,0-1.19.21v3.66H59.72v-3.88Z"/><path class="cls-2" d="M68.38,121.72l2,5.83H69.83l-0.61-1.71H66.36l-0.6,1.71H65.2l2-5.83h1.15Zm-0.42.42H67.63l-1.11,3.29h2.56Z"/><path class="cls-2" d="M71.11,123.67a4.48,4.48,0,0,1,1.75-.36,1.66,1.66,0,0,1,1.17.35,4.26,4.26,0,0,1,1.69-.35c1.34,0,1.67.66,1.67,2.07v2.18H76.81v-2.18c0-1.2-.19-1.69-1.1-1.69a3.81,3.81,0,0,0-1.42.28,3,3,0,0,1,.24,1.41v2.18H74v-2.18c0-1.2-.19-1.69-1.1-1.69a4.06,4.06,0,0,0-1.19.21v3.66H71.11v-3.89Z"/><path class="cls-2" d="M78.68,123.42a14.41,14.41,0,0,1,1.5-.11,1.23,1.23,0,0,1,1.45,1.32v2.64a6.22,6.22,0,0,1-2,.35,1.15,1.15,0,0,1-1.28-1.24,1.21,1.21,0,0,1,1.37-1.23l1.35-.13v-0.41a0.79,0.79,0,0,0-.9-0.92c-0.41,0-.92,0-1.42.1Zm2.4,2-1.29.11a0.78,0.78,0,0,0-.86.86,0.75,0.75,0,0,0,.73.87,5.65,5.65,0,0,0,1.42-.22v-1.62Z"/><path class="cls-2" d="M82.78,123.67a4.59,4.59,0,0,1,1.75-.36,3.16,3.16,0,0,1,.45,0l-0.07.38-0.38,0a4,4,0,0,0-1.19.21v3.66H82.78v-3.88Z"/><path class="cls-2" d="M85.88,123.42a14.41,14.41,0,0,1,1.5-.11,1.23,1.23,0,0,1,1.45,1.32v2.64a6.22,6.22,0,0,1-2,.35,1.15,1.15,0,0,1-1.28-1.24,1.21,1.21,0,0,1,1.37-1.23l1.35-.13v-0.41a0.79,0.79,0,0,0-.9-0.92c-0.41,0-.92,0-1.42.1Zm2.4,2-1.29.11a0.78,0.78,0,0,0-.86.86,0.75,0.75,0,0,0,.73.87,5.65,5.65,0,0,0,1.42-.22v-1.62Z"/><path class="cls-2" d="M90,123.67a4.6,4.6,0,0,1,1.75-.36c1.33,0,1.81.66,1.81,2.07v2.17H93v-2.17c0-1.2-.31-1.69-1.24-1.69a4.05,4.05,0,0,0-1.19.21v3.66H90v-3.88Z"/><path class="cls-2" d="M95.53,122.32v1.07h1v0.38h-1v2.46c0,0.83.07,1,.42,1h0a2,2,0,0,0,.49-0.08l-0.07.38a2.72,2.72,0,0,1-.53.07c-0.77,0-.91-0.37-0.91-1.39v-2.46H94.11V123.4H95v-1.07h0.55Z"/><path class="cls-2" d="M100.58,127.39a8.37,8.37,0,0,1-1.63.24c-1.46,0-1.84-.83-1.84-2.16,0-1.63.68-2.16,1.79-2.16s1.82,0.58,1.82,2v0.33h-3c0,1.06.31,1.61,1.27,1.61a8.6,8.6,0,0,0,1.55-.23Zm-0.43-2.12c0-1.17-.38-1.58-1.25-1.58s-1.21.42-1.22,1.58h2.46Z"/><path class="cls-2" d="M102,126.79h0.6l-0.5,1.83h-0.51Z"/><path class="cls-2" d="M109.65,126.48h-3.12v-0.31l2-4.12h0.6l-1.94,4h2.45v-1.46h0.54v1.46H111v0.4h-0.84v1.07h-0.54v-1.07Z"/><path class="cls-2" d="M114.14,122c1.45,0,2.2.6,2.2,3,0,2.12-.82,2.69-2.19,2.69s-2.2-.58-2.2-2.71c0-2.37.8-2.95,2.19-2.95h0Zm-1.61,3c0,1.89.59,2.3,1.62,2.3s1.61-.41,1.61-2.31c0-2.05-.51-2.55-1.62-2.55S112.54,122.84,112.54,124.93Z"/><path class="cls-2" d="M120.49,126.48h-3.12v-0.31l2-4.12H120l-1.94,4h2.45v-1.46H121v1.46h0.84v0.4H121v1.07h-0.54v-1.07Z"/><path class="cls-2" d="M125,122c1.45,0,2.2.6,2.2,3,0,2.12-.82,2.69-2.19,2.69s-2.2-.58-2.2-2.71c0-2.37.8-2.95,2.19-2.95h0Zm-1.61,3c0,1.89.59,2.3,1.62,2.3s1.61-.41,1.61-2.31c0-2.05-.51-2.55-1.62-2.55S123.38,122.84,123.38,124.93Z"/><path class="cls-2" d="M131.26,126.78h0.6v0.77h-0.6v-0.77Z"/><path class="cls-2" d="M139.55,122.05l-0.15.4h-3l-0.14,1.86a6.27,6.27,0,0,1,1.51-.25c1.2,0,2,.42,2,1.63a1.83,1.83,0,0,1-2.11,1.91,12.09,12.09,0,0,1-2-.21l0.08-.4a11.52,11.52,0,0,0,2,.22,1.4,1.4,0,0,0,1.54-1.52,1.18,1.18,0,0,0-1.45-1.23,5.82,5.82,0,0,0-1.42.25l-0.65.1,0.18-2.77h3.65Z"/><path class="cls-2" d="M142.52,123.16c0,0.81-.21,1.21-1,1.21s-1-.34-1-1.22a0.92,0.92,0,0,1,1-1.12A0.94,0.94,0,0,1,142.52,123.16Zm-0.37,0c0-.64-0.23-0.85-0.63-0.85s-0.65.16-.65,0.84,0.1,0.94.65,0.94S142.16,123.82,142.16,123.16Z"/><path class="cls-2" d="M149.08,121.72l2,5.83h-0.57l-0.61-1.71h-2.86l-0.6,1.71H145.9l2-5.83h1.15Zm-0.42.42h-0.33l-1.11,3.29h2.56Z"/><path class="cls-2" d="M151.82,123.67a4.6,4.6,0,0,1,1.75-.36c1.33,0,1.81.66,1.81,2.07v2.17H154.8v-2.17c0-1.2-.31-1.69-1.24-1.69a4.05,4.05,0,0,0-1.19.21v3.66h-0.55v-3.88Z"/><path class="cls-2" d="M159.22,121.72h0.56v5.85c-0.39,0-.81.06-1.23,0.06-1.79,0-2.21-.72-2.21-2.25s0.33-2.07,1.67-2.07a4.1,4.1,0,0,1,1.19.2v-1.79Zm0,2.17a4.05,4.05,0,0,0-1.19-.21c-0.91,0-1.1.51-1.1,1.71s0.21,1.84,1.58,1.85l0.71,0v-3.33Z"/><path class="cls-2" d="M161.16,123.42a14.41,14.41,0,0,1,1.5-.11,1.23,1.23,0,0,1,1.45,1.32v2.64a6.22,6.22,0,0,1-2,.35,1.15,1.15,0,0,1-1.28-1.24,1.21,1.21,0,0,1,1.37-1.23l1.35-.13v-0.41a0.79,0.79,0,0,0-.9-0.92c-0.41,0-.92,0-1.42.1Zm2.4,2-1.29.11a0.78,0.78,0,0,0-.86.86,0.75,0.75,0,0,0,.73.87,5.65,5.65,0,0,0,1.42-.22v-1.62Z"/><path class="cls-2" d="M165.25,123.67a4.59,4.59,0,0,1,1.75-.36,3.16,3.16,0,0,1,.45,0l-0.07.38-0.38,0a4,4,0,0,0-1.19.21v3.66h-0.55v-3.88Z"/><path class="cls-2" d="M171.09,126.78h0.6v0.77h-0.6v-0.77Z"/><path class="cls-2" d="M176.09,121.72h4v0.42h-3.42v2.21h2.87v0.42h-2.87v2.37h3.42v0.42h-4v-5.83Z"/><path class="cls-2" d="M183.84,121.72h0.56v5.85c-0.39,0-.81.06-1.23,0.06-1.79,0-2.21-.72-2.21-2.25s0.33-2.07,1.67-2.07a4.11,4.11,0,0,1,1.19.2v-1.79Zm0,2.17a4.05,4.05,0,0,0-1.19-.21c-0.91,0-1.1.51-1.1,1.71s0.21,1.84,1.58,1.85l0.71,0v-3.33Z"/><path class="cls-2" d="M185.65,121.76h0.55v0.56h-0.55v-0.56Zm0,1.63h0.55v4.17h-0.55v-4.17Z"/><path class="cls-2" d="M187.68,123.09c0-1.18.43-1.37,1.07-1.37a2.67,2.67,0,0,1,.75.13l-0.07.34a2.39,2.39,0,0,0-.64-0.1c-0.39,0-.56.1-0.56,1v0.3h1v0.38h-1v3.79h-0.55v-3.79h-0.87v-0.38h0.87v-0.29Z"/><path class="cls-2" d="M190.55,121.49h0.65l-1.09,1h-0.54Zm-0.45,1.89h0.53v4.17H190.1v-4.17Z"/><path class="cls-2" d="M194.78,127.45a10.23,10.23,0,0,1-1.18.18c-1.56.07-1.93-.58-1.93-2.16s0.37-2.24,1.93-2.16a10.67,10.67,0,0,1,1.18.17l0,0.35c-0.08,0-.82-0.14-1.17-0.15-1.14-.05-1.35.48-1.35,1.8s0.21,1.84,1.35,1.79a10.19,10.19,0,0,0,1.17-.2Z"/><path class="cls-2" d="M195.72,121.76h0.55v0.56h-0.55v-0.56Zm0,1.63h0.55v4.17h-0.55v-4.17Z"/><path class="cls-2" d="M201,125.4c0,1.53-.38,2.23-1.86,2.23s-1.9-.6-1.9-2.25,0.59-2.07,1.9-2.07S201,123.9,201,125.4Zm-0.56,0c0-1.27-.49-1.71-1.3-1.71-1,0-1.34.36-1.34,1.69s0.22,1.87,1.34,1.87S200.45,126.68,200.45,125.4Z"/><path class="cls-2" d="M204.6,121.72h4.81v0.42h-2.12v5.42h-0.56v-5.42H204.6v-0.42Z"/><path class="cls-2" d="M214.59,121.72l-1.83,5.83h-1.25l-1.88-5.83h0.57l1.74,5.42h0.38l1.7-5.42h0.57Z"/><path class="cls-2" d="M222.69,127.45a12.67,12.67,0,0,1-1.82.18c-2,0-2.4-1.15-2.4-3s0.35-3,2.4-3a10.66,10.66,0,0,1,1.82.17l0,0.43a11.86,11.86,0,0,0-1.77-.18c-1.62,0-1.82,1-1.82,2.6s0.24,2.55,1.82,2.55a14,14,0,0,0,1.77-.18Z"/><path class="cls-2" d="M227.35,125.4c0,1.53-.38,2.23-1.86,2.23s-1.9-.6-1.9-2.25,0.59-2.07,1.9-2.07S227.35,123.9,227.35,125.4Zm-0.56,0c0-1.27-.49-1.71-1.3-1.71-1,0-1.34.36-1.34,1.69s0.22,1.87,1.34,1.87S226.79,126.68,226.79,125.4Z"/><path class="cls-2" d="M228.44,121.72H229v5.83h-0.55v-5.83Z"/><path class="cls-2" d="M233.71,125.4c0,1.53-.38,2.23-1.86,2.23s-1.9-.6-1.9-2.25,0.59-2.07,1.9-2.07S233.71,123.9,233.71,125.4Zm-0.56,0c0-1.27-.49-1.71-1.3-1.71-1,0-1.34.36-1.34,1.69s0.22,1.87,1.34,1.87S233.16,126.68,233.16,125.4Z"/><path class="cls-2" d="M234.77,123.67a4.59,4.59,0,0,1,1.75-.36,3.16,3.16,0,0,1,.45,0l-0.07.38-0.38,0a4,4,0,0,0-1.19.21v3.66h-0.55v-3.88Z"/><path class="cls-2" d="M33.27,137.45a12.23,12.23,0,0,1-1.75.17c-1.9,0-2.3-1.1-2.3-2.85s0.33-2.89,2.3-2.89a10.21,10.21,0,0,1,1.75.17l0,0.41a11.42,11.42,0,0,0-1.7-.17c-1.55,0-1.74.95-1.74,2.49s0.23,2.45,1.74,2.45a13.25,13.25,0,0,0,1.7-.17Z"/><path class="cls-2" d="M34.42,133.55l1.25,1.68,1.25-1.68h0.59l-1.54,2,1.54,2H36.9l-1.24-1.68-1.24,1.68h-0.6l1.54-2-1.53-2h0.59Z"/><path class="cls-2" d="M38.06,136.81h0.58v0.74H38.06v-0.74Z"/><path class="cls-2" d="M43.4,135.55v2H42.86V132h2.35c1.34,0,1.93.55,1.93,1.71a1.7,1.7,0,0,1-1.93,1.88H43.4Zm1.81-.4a1.26,1.26,0,0,0,1.38-1.48,1.15,1.15,0,0,0-1.37-1.31H43.4v2.79h1.81Z"/><path class="cls-2" d="M51.41,135.48c0,1.47-.36,2.14-1.78,2.14s-1.82-.58-1.82-2.16,0.57-2,1.82-2S51.41,134,51.41,135.48Zm-0.53,0c0-1.21-.47-1.64-1.25-1.64s-1.29.35-1.29,1.63,0.21,1.8,1.29,1.8S50.88,136.71,50.88,135.48Z"/><path class="cls-2" d="M52.33,137.15a6.59,6.59,0,0,0,1,.1h0.14c0.44,0,.79-0.08.8-0.62a0.62,0.62,0,0,0-.23-0.5c-0.16-.13-0.58-0.42-0.94-0.67a1.15,1.15,0,0,1-.71-1s0-.07,0-0.11a1.07,1.07,0,0,1,1.29-.83,6.63,6.63,0,0,1,1.1.08l-0.07.35a5.36,5.36,0,0,0-.88-0.08H53.64a0.61,0.61,0,0,0-.76.5s0,0.07,0,.1a0.78,0.78,0,0,0,.49.72c0.42,0.28.85,0.59,1,.71a1,1,0,0,1,.39.77,1.08,1.08,0,0,1-1.3,1H53.31a8,8,0,0,1-1-.1Z"/><path class="cls-2" d="M56.58,132.53v1H57.5v0.36H56.58v2.37c0,0.79.06,1,.4,1h0a1.86,1.86,0,0,0,.47-0.08l-0.06.37a2.68,2.68,0,0,1-.51.06c-0.74,0-.87-0.35-0.87-1.34v-2.37H55.21v-0.36H56v-1h0.53Z"/><path class="cls-2" d="M58.41,133.59a13.76,13.76,0,0,1,1.44-.1,1.18,1.18,0,0,1,1.4,1.27v2.54a6,6,0,0,1-1.92.34,1.1,1.1,0,0,1-1.23-1.19,1.16,1.16,0,0,1,1.31-1.18l1.3-.12v-0.39a0.76,0.76,0,0,0-.87-0.88c-0.39,0-.89,0-1.37.1Zm2.3,1.91-1.24.11a0.75,0.75,0,0,0-.82.82,0.72,0.72,0,0,0,.7.83,5.41,5.41,0,0,0,1.37-.21V135.5Z"/><path class="cls-2" d="M62.37,132H62.9v5.6H62.37V132Z"/><path class="cls-2" d="M66.77,136.81h0.58v0.74H66.77v-0.74Z"/><path class="cls-2" d="M71.42,132.3a12,12,0,0,1,1.53-.08c1.37,0,1.93.55,2,1.07,0.06,0.78-.32,1.07-1.09,1.51a17.89,17.89,0,0,0-1.77,1.06,1,1,0,0,0-.36.77v0.55H75v0.39H71.15v-1a1.28,1.28,0,0,1,.56-1.05c0.25-.17.94-0.57,1.81-1.07,0.68-.38.9-0.55,0.86-1.15,0-.36-0.43-0.72-1.43-0.72a11,11,0,0,0-1.46.08Z"/><path class="cls-2" d="M75.94,132.4a9.81,9.81,0,0,1,1.87-.2c1.33,0,1.85.44,1.85,1.35a1.28,1.28,0,0,1-.93,1.18,1.23,1.23,0,0,1,1.09,1.35c0,1-.64,1.55-1.94,1.55a11.26,11.26,0,0,1-2-.2l0.08-.38a10.57,10.57,0,0,0,1.95.2c1,0,1.38-.4,1.38-1.15A1.12,1.12,0,0,0,77.95,135H76.66v-0.38h1.28a1.12,1.12,0,0,0,1.15-1c0-.69-0.33-1-1.29-1a9.34,9.34,0,0,0-1.8.2Z"/><path class="cls-2" d="M85.14,133.54a1.17,1.17,0,0,1-.85,1.19,1.3,1.3,0,0,1,1.06,1.37c0,1.21-.9,1.53-2.22,1.53s-2.22-.32-2.22-1.53a1.29,1.29,0,0,1,1-1.36,1.17,1.17,0,0,1-.86-1.2c0-.92.6-1.34,2-1.34S85.14,132.6,85.14,133.54Zm-3.67,2.57c0,0.92.57,1.14,1.66,1.14s1.67-.22,1.67-1.14S84.23,135,83.13,135,81.47,135.19,81.47,136.1Zm0.16-2.56c0,0.76.35,1,1.51,1s1.44-.29,1.44-1-0.38-1-1.49-1S81.63,132.8,81.63,133.54Z"/><path class="cls-2" d="M90.85,137.44a12.67,12.67,0,0,1-1.82.18c-2,0-2.4-1.15-2.4-3s0.35-3,2.4-3a10.66,10.66,0,0,1,1.82.17l0,0.43a11.86,11.86,0,0,0-1.77-.18c-1.62,0-1.82,1-1.82,2.6s0.24,2.55,1.82,2.55A14,14,0,0,0,90.8,137Z"/><path class="cls-2" d="M95.22,137.39a8.37,8.37,0,0,1-1.63.24c-1.46,0-1.84-.83-1.84-2.16,0-1.63.68-2.16,1.79-2.16s1.82,0.58,1.82,2v0.33h-3c0,1.06.31,1.61,1.27,1.61a8.6,8.6,0,0,0,1.55-.23Zm-0.43-2.12c0-1.17-.38-1.58-1.25-1.58s-1.21.42-1.22,1.58h2.46Z"/><path class="cls-2" d="M96.35,133.67a4.6,4.6,0,0,1,1.75-.36c1.33,0,1.81.66,1.81,2.07v2.17H99.33v-2.17c0-1.2-.31-1.69-1.24-1.69a4.05,4.05,0,0,0-1.19.21v3.66H96.35v-3.88Z"/><path class="cls-2" d="M101.91,132.32v1.07h1v0.38h-1v2.46c0,0.83.07,1,.42,1h0a2,2,0,0,0,.49-0.08l-0.07.38a2.72,2.72,0,0,1-.53.07c-0.77,0-.91-0.37-0.91-1.39v-2.46h-0.87v-0.38h0.87v-1.07h0.55Z"/><path class="cls-2" d="M103.66,133.67a4.59,4.59,0,0,1,1.75-.36,3.16,3.16,0,0,1,.45,0l-0.07.38-0.38,0a4,4,0,0,0-1.19.21v3.66h-0.55v-3.88Z"/><path class="cls-2" d="M110.19,135.4c0,1.53-.38,2.23-1.86,2.23s-1.9-.6-1.9-2.25,0.59-2.07,1.9-2.07S110.19,133.9,110.19,135.4Zm-0.56,0c0-1.27-.49-1.71-1.3-1.71-1,0-1.34.36-1.34,1.69s0.22,1.87,1.34,1.87S109.63,136.67,109.63,135.4Z"/><path class="cls-2" d="M111.51,136.79h0.6l-0.5,1.83h-0.51Z"/><path class="cls-2" d="M120.68,131.72l-1.83,5.83H117.6l-1.88-5.83h0.57l1.74,5.42h0.38l1.7-5.42h0.57Z"/><path class="cls-2" d="M121.43,131.76H122v0.56h-0.55v-0.56Zm0,1.63H122v4.17h-0.55v-4.17Z"/><path class="cls-2" d="M123.17,131.72h0.55v5.83h-0.55v-5.83Z"/><path class="cls-2" d="M125.46,133.51a4.12,4.12,0,0,1,1.19-.2c1.34,0,1.67.66,1.67,2.07v2.17h-0.57v-2.17c0-1.2-.19-1.69-1.1-1.69a4,4,0,0,0-1.19.21v3.66H124.9v-5.83h0.55v1.79Z"/><path class="cls-2" d="M132.76,137.39a8.37,8.37,0,0,1-1.63.24c-1.46,0-1.84-.83-1.84-2.16,0-1.63.68-2.16,1.79-2.16s1.82,0.58,1.82,2v0.33h-3c0,1.06.31,1.61,1.27,1.61a8.6,8.6,0,0,0,1.55-.23Zm-0.43-2.12c0-1.17-.38-1.58-1.25-1.58s-1.21.42-1.22,1.58h2.46Z"/><path class="cls-2" d="M133.88,133.67a4.6,4.6,0,0,1,1.75-.36c1.33,0,1.81.66,1.81,2.07v2.17h-0.57v-2.17c0-1.2-.31-1.69-1.24-1.69a4.05,4.05,0,0,0-1.19.21v3.66h-0.55v-3.88Z"/><path class="cls-2" d="M138.74,133.42a14.41,14.41,0,0,1,1.5-.11,1.23,1.23,0,0,1,1.45,1.32v2.64a6.22,6.22,0,0,1-2,.35,1.15,1.15,0,0,1-1.28-1.24,1.21,1.21,0,0,1,1.37-1.23l1.35-.13v-0.41a0.79,0.79,0,0,0-.9-0.92c-0.41,0-.92,0-1.42.1Zm2.4,2-1.29.11a0.78,0.78,0,0,0-.86.86,0.75,0.75,0,0,0,.73.87,5.65,5.65,0,0,0,1.42-.22v-1.62Z"/><path class="cls-2" d="M145.73,135h3.17v0.4h-3.17V135Z"/><path class="cls-2" d="M153.86,135.19v2.36h-0.56v-5.83h2.42c1.33,0,2,.52,2,1.7a1.51,1.51,0,0,1-1.29,1.7l1.47,2.43h-0.63l-1.43-2.36h-2Zm1.85-.42a1.2,1.2,0,0,0,1.44-1.36c0-.91-0.43-1.28-1.44-1.28h-1.85v2.64h1.85Z"/><path class="cls-2" d="M164.18,134.54c0,2.13-.48,3.09-2.5,3.09s-2.54-.83-2.54-3.11c0-2.12.77-2.86,2.54-2.86C163.3,131.65,164.18,132.46,164.18,134.54Zm-0.56,0c0-1.8-.74-2.47-1.93-2.47-1.41,0-2,.56-2,2.45s0.33,2.69,2,2.69S163.62,136.33,163.62,134.54Z"/><path class="cls-2" d="M168.41,136.78H169v0.77h-0.6v-0.77Z"/><path class="cls-2" d="M177.46,137.44a12.67,12.67,0,0,1-1.82.18c-2,0-2.4-1.15-2.4-3s0.35-3,2.4-3a10.66,10.66,0,0,1,1.82.17l0,0.43a11.86,11.86,0,0,0-1.77-.18c-1.62,0-1.82,1-1.82,2.6s0.24,2.55,1.82,2.55a14,14,0,0,0,1.77-.18Z"/><path class="cls-2" d="M178.82,131.72h4v0.42h-3.42v2.21h2.87v0.42h-2.87v2.37h3.42v0.42h-4v-5.83Z"/><path class="cls-2" d="M184.72,135.46v2.09h-0.56v-5.83h2.45c1.39,0,2,.58,2,1.79a1.77,1.77,0,0,1-2,2h-1.89Zm1.89-.42a1.31,1.31,0,0,0,1.43-1.54,1.19,1.19,0,0,0-1.43-1.37h-1.89V135h1.89Z"/><path class="cls-2" d="M196.51,132.4c-1.52,1.56-2.18,4.23-2.45,5.15h-0.6a14,14,0,0,1,2.37-5.1h-3.17l-0.07-.4h3.93v0.35Z"/><path class="cls-2" d="M201,132.53a7.73,7.73,0,0,0-1.53-.17c-1.1,0-1.75.57-1.78,2.11a5.33,5.33,0,0,1,1.63-.35c1.38,0,2,.57,2,1.67s-0.65,1.83-2.08,1.83-2.17-.94-2.17-2.88S198,132,199.48,132a7.92,7.92,0,0,1,1.59.17Zm-3.32,2.56c0.05,1.38.47,2.13,1.58,2.13a1.28,1.28,0,0,0,1.5-1.43,1.2,1.2,0,0,0-1.45-1.28,5.72,5.72,0,0,0-1.63.36v0.22Z"/><path class="cls-2" d="M202.48,137.06a7.83,7.83,0,0,0,1.53.17c1.1,0,1.75-.57,1.78-2.11a5.34,5.34,0,0,1-1.64.36c-1.38,0-2-.57-2-1.67s0.65-1.83,2.08-1.83,2.17,0.94,2.17,2.88-0.94,2.78-2.37,2.78a8,8,0,0,1-1.59-.17Zm3.32-2.56c0-1.38-.46-2.13-1.58-2.13a1.28,1.28,0,0,0-1.5,1.43,1.2,1.2,0,0,0,1.45,1.28,5.7,5.7,0,0,0,1.63-.36V134.5Z"/><path class="cls-2" d="M209.77,132c1.45,0,2.14.42,2.14,1.4a1.22,1.22,0,0,1-.88,1.24,1.35,1.35,0,0,1,1.11,1.43c0,1.26-.94,1.59-2.32,1.59s-2.31-.34-2.31-1.59a1.34,1.34,0,0,1,1.06-1.42,1.22,1.22,0,0,1-.9-1.25c0-1,.63-1.4,2.1-1.4h0ZM208.09,136c0,1,.59,1.19,1.73,1.19s1.74-.23,1.74-1.19-0.59-1.19-1.74-1.19S208.09,135.09,208.09,136Zm0.16-2.67c0,0.8.36,1.07,1.57,1.07s1.5-.3,1.5-1.07-0.39-1-1.55-1S208.25,132.6,208.25,133.37Z"/><path class="cls-2" d="M215.46,132c1.45,0,2.2.6,2.2,3,0,2.12-.82,2.69-2.19,2.69s-2.2-.58-2.2-2.71c0-2.37.8-2.95,2.19-2.95h0Zm-1.61,3c0,1.89.59,2.3,1.62,2.3s1.61-.41,1.61-2.31c0-2.05-.51-2.55-1.62-2.55S213.85,132.84,213.85,134.93Z"/><path class="cls-2" d="M218.69,135h3.17v0.4h-3.17V135Z"/><path class="cls-2" d="M225.07,132c1.45,0,2.2.6,2.2,3,0,2.12-.82,2.69-2.19,2.69s-2.2-.58-2.2-2.71c0-2.37.8-2.95,2.19-2.95h0Zm-1.61,3c0,1.89.59,2.3,1.62,2.3s1.61-.41,1.61-2.31c0-2.05-.51-2.55-1.62-2.55S223.47,132.84,223.47,134.93Z"/><path class="cls-2" d="M230.6,132c1.45,0,2.2.6,2.2,3,0,2.12-.82,2.69-2.19,2.69s-2.2-.58-2.2-2.71c0-2.37.8-2.95,2.19-2.95h0Zm-1.61,3c0,1.89.59,2.3,1.62,2.3s1.61-.41,1.61-2.31c0-2.05-.51-2.55-1.62-2.55S229,132.84,229,134.93Z"/><path class="cls-2" d="M236.12,132c1.45,0,2.2.6,2.2,3,0,2.12-.82,2.69-2.19,2.69s-2.2-.58-2.2-2.71c0-2.37.8-2.95,2.19-2.95h0Zm-1.61,3c0,1.89.59,2.3,1.62,2.3s1.61-.41,1.61-2.31c0-2.05-.51-2.55-1.62-2.55S234.51,132.84,234.51,134.93Z"/></g><g id="location"><g id="_Group_4" data-name="&lt;Group&gt;"><g id="_Group_5" data-name="&lt;Group&gt;"><path class="cls-3" d="M21,127.29l-0.12-.12c-0.07-.07-1.8-1.82-1.8-3.62a1.92,1.92,0,1,1,3.85,0c0,1.8-1.73,3.55-1.8,3.62ZM21,122a1.58,1.58,0,0,0-1.57,1.57A5.66,5.66,0,0,0,21,126.79a5.66,5.66,0,0,0,1.57-3.24A1.58,1.58,0,0,0,21,122Zm0,2.33a0.76,0.76,0,1,1,.76-0.76A0.76,0.76,0,0,1,21,124.3Zm0-1.17a0.41,0.41,0,1,0,.41.41A0.41,0.41,0,0,0,21,123.14Z"/></g></g></g><g id="_Group_6" data-name="&lt;Group&gt;"><g id="_Group_7" data-name="&lt;Group&gt;"><path class="cls-2" d="M97.06,62.64c0,1.85-.71,2.36-1.92,2.36s-1.92-.51-1.92-2.37c0-2.07.7-2.58,1.92-2.58S97.06,60.57,97.06,62.64Zm-3.33,0c0,1.65.51,2,1.41,2s1.41-.36,1.41-2-0.45-2.23-1.42-2.23S93.73,60.81,93.73,62.64Z"/><path class="cls-2" d="M101.89,62.64c0,1.85-.71,2.36-1.92,2.36s-1.92-.51-1.92-2.37c0-2.07.7-2.58,1.92-2.58S101.89,60.57,101.89,62.64Zm-3.33,0c0,1.65.51,2,1.41,2s1.41-.36,1.41-2-0.45-2.23-1.42-2.23S98.56,60.81,98.56,62.64Z"/><path class="cls-2" d="M110.38,62.31c0,2.11-.82,2.69-2.19,2.69s-2.2-.58-2.2-2.71c0-2.37.8-2.95,2.19-2.95S110.38,59.95,110.38,62.31Zm-3.8,0c0,1.89.59,2.3,1.62,2.3s1.61-.41,1.61-2.31c0-2.05-.51-2.55-1.62-2.55S106.58,60.22,106.58,62.31Z"/><path class="cls-2" d="M115.9,62.31c0,2.11-.82,2.69-2.19,2.69s-2.2-.58-2.2-2.71c0-2.37.8-2.95,2.19-2.95S115.9,59.95,115.9,62.31Zm-3.8,0c0,1.89.59,2.3,1.62,2.3s1.61-.41,1.61-2.31c0-2.05-.51-2.55-1.62-2.55S112.1,60.22,112.1,62.31Z"/><path class="cls-2" d="M121.43,62.31c0,2.11-.82,2.69-2.19,2.69s-2.2-.58-2.2-2.71c0-2.37.8-2.95,2.19-2.95S121.43,59.95,121.43,62.31Zm-3.8,0c0,1.89.59,2.3,1.62,2.3s1.61-.41,1.61-2.31c0-2.05-.51-2.55-1.62-2.55S117.63,60.22,117.63,62.31Z"/><path class="cls-2" d="M127,62.31c0,2.11-.82,2.69-2.19,2.69s-2.2-.58-2.2-2.71c0-2.37.8-2.95,2.19-2.95S127,59.95,127,62.31Zm-3.8,0c0,1.89.59,2.3,1.62,2.3s1.61-.41,1.61-2.31c0-2.05-.51-2.55-1.62-2.55S123.15,60.22,123.15,62.31Z"/><path class="cls-2" d="M128,64.16h0.6v0.77H128V64.16Z"/><path class="cls-2" d="M134,62.31c0,2.11-.82,2.69-2.19,2.69s-2.2-.58-2.2-2.71c0-2.37.8-2.95,2.19-2.95S134,59.95,134,62.31Zm-3.8,0c0,1.89.59,2.3,1.62,2.3s1.61-.41,1.61-2.31c0-2.05-.51-2.55-1.62-2.55S130.2,60.22,130.2,62.31Z"/><path class="cls-2" d="M139.53,62.31c0,2.11-.82,2.69-2.19,2.69s-2.2-.58-2.2-2.71c0-2.37.8-2.95,2.19-2.95S139.53,59.95,139.53,62.31Zm-3.8,0c0,1.89.59,2.3,1.62,2.3s1.61-.41,1.61-2.31c0-2.05-.51-2.55-1.62-2.55S135.72,60.22,135.72,62.31Z"/><path class="cls-2" d="M145,62.31c0,2.11-.82,2.69-2.19,2.69s-2.2-.58-2.2-2.71c0-2.37.8-2.95,2.19-2.95S145,59.95,145,62.31Zm-3.8,0c0,1.89.59,2.3,1.62,2.3s1.61-.41,1.61-2.31c0-2.05-.51-2.55-1.62-2.55S141.25,60.22,141.25,62.31Z"/><path class="cls-2" d="M150.57,62.31c0,2.11-.82,2.69-2.19,2.69s-2.2-.58-2.2-2.71c0-2.37.8-2.95,2.19-2.95S150.57,59.95,150.57,62.31Zm-3.8,0c0,1.89.59,2.3,1.62,2.3S150,64.2,150,62.3c0-2.05-.51-2.55-1.62-2.55S146.77,60.22,146.77,62.31Z"/><path class="cls-2" d="M97.06,72.64c0,1.85-.71,2.36-1.92,2.36s-1.92-.51-1.92-2.37c0-2.07.7-2.58,1.92-2.58S97.06,70.57,97.06,72.64Zm-3.33,0c0,1.65.51,2,1.41,2s1.41-.36,1.41-2-0.45-2.23-1.42-2.23S93.73,70.81,93.73,72.64Z"/><path class="cls-2" d="M101.89,72.64c0,1.85-.71,2.36-1.92,2.36s-1.92-.51-1.92-2.37c0-2.07.7-2.58,1.92-2.58S101.89,70.57,101.89,72.64Zm-3.33,0c0,1.65.51,2,1.41,2s1.41-.36,1.41-2-0.45-2.23-1.42-2.23S98.56,70.81,98.56,72.64Z"/><path class="cls-2" d="M110.38,72.31c0,2.11-.82,2.69-2.19,2.69s-2.2-.58-2.2-2.71c0-2.37.8-2.95,2.19-2.95S110.38,69.95,110.38,72.31Zm-3.8,0c0,1.89.59,2.3,1.62,2.3s1.61-.41,1.61-2.31c0-2.05-.51-2.55-1.62-2.55S106.58,70.22,106.58,72.31Z"/><path class="cls-2" d="M115.9,72.31c0,2.11-.82,2.69-2.19,2.69s-2.2-.58-2.2-2.71c0-2.37.8-2.95,2.19-2.95S115.9,69.95,115.9,72.31Zm-3.8,0c0,1.89.59,2.3,1.62,2.3s1.61-.41,1.61-2.31c0-2.05-.51-2.55-1.62-2.55S112.1,70.22,112.1,72.31Z"/><path class="cls-2" d="M121.43,72.31c0,2.11-.82,2.69-2.19,2.69s-2.2-.58-2.2-2.71c0-2.37.8-2.95,2.19-2.95S121.43,69.95,121.43,72.31Zm-3.8,0c0,1.89.59,2.3,1.62,2.3s1.61-.41,1.61-2.31c0-2.05-.51-2.55-1.62-2.55S117.63,70.22,117.63,72.31Z"/><path class="cls-2" d="M127,72.31c0,2.11-.82,2.69-2.19,2.69s-2.2-.58-2.2-2.71c0-2.37.8-2.95,2.19-2.95S127,69.95,127,72.31Zm-3.8,0c0,1.89.59,2.3,1.62,2.3s1.61-.41,1.61-2.31c0-2.05-.51-2.55-1.62-2.55S123.15,70.22,123.15,72.31Z"/><path class="cls-2" d="M128,74.16h0.6v0.77H128V74.16Z"/><path class="cls-2" d="M134,72.31c0,2.11-.82,2.69-2.19,2.69s-2.2-.58-2.2-2.71c0-2.37.8-2.95,2.19-2.95S134,69.95,134,72.31Zm-3.8,0c0,1.89.59,2.3,1.62,2.3s1.61-.41,1.61-2.31c0-2.05-.51-2.55-1.62-2.55S130.2,70.22,130.2,72.31Z"/><path class="cls-2" d="M139.53,72.31c0,2.11-.82,2.69-2.19,2.69s-2.2-.58-2.2-2.71c0-2.37.8-2.95,2.19-2.95S139.53,69.95,139.53,72.31Zm-3.8,0c0,1.89.59,2.3,1.62,2.3s1.61-.41,1.61-2.31c0-2.05-.51-2.55-1.62-2.55S135.72,70.22,135.72,72.31Z"/><path class="cls-2" d="M145,72.31c0,2.11-.82,2.69-2.19,2.69s-2.2-.58-2.2-2.71c0-2.37.8-2.95,2.19-2.95S145,69.95,145,72.31Zm-3.8,0c0,1.89.59,2.3,1.62,2.3s1.61-.41,1.61-2.31c0-2.05-.51-2.55-1.62-2.55S141.25,70.22,141.25,72.31Z"/><path class="cls-2" d="M150.57,72.31c0,2.11-.82,2.69-2.19,2.69s-2.2-.58-2.2-2.71c0-2.37.8-2.95,2.19-2.95S150.57,69.95,150.57,72.31Zm-3.8,0c0,1.89.59,2.3,1.62,2.3S150,74.2,150,72.3c0-2.05-.51-2.55-1.62-2.55S146.77,70.22,146.77,72.31Z"/><path class="cls-2" d="M97.06,82.64c0,1.85-.71,2.36-1.92,2.36s-1.92-.51-1.92-2.37c0-2.07.7-2.58,1.92-2.58S97.06,80.57,97.06,82.64Zm-3.33,0c0,1.65.51,2,1.41,2s1.41-.36,1.41-2-0.45-2.23-1.42-2.23S93.73,80.81,93.73,82.64Z"/><path class="cls-2" d="M101.89,82.64c0,1.85-.71,2.36-1.92,2.36s-1.92-.51-1.92-2.37c0-2.07.7-2.58,1.92-2.58S101.89,80.57,101.89,82.64Zm-3.33,0c0,1.65.51,2,1.41,2s1.41-.36,1.41-2-0.45-2.23-1.42-2.23S98.56,80.81,98.56,82.64Z"/><path class="cls-2" d="M110.38,82.31c0,2.12-.82,2.69-2.19,2.69s-2.2-.58-2.2-2.71c0-2.37.8-2.95,2.19-2.95S110.38,79.95,110.38,82.31Zm-3.8,0c0,1.89.59,2.3,1.62,2.3s1.61-.41,1.61-2.31c0-2.05-.51-2.55-1.62-2.55S106.58,80.22,106.58,82.31Z"/><path class="cls-2" d="M115.9,82.31c0,2.12-.82,2.69-2.19,2.69s-2.2-.58-2.2-2.71c0-2.37.8-2.95,2.19-2.95S115.9,79.95,115.9,82.31Zm-3.8,0c0,1.89.59,2.3,1.62,2.3s1.61-.41,1.61-2.31c0-2.05-.51-2.55-1.62-2.55S112.1,80.22,112.1,82.31Z"/><path class="cls-2" d="M121.43,82.31c0,2.12-.82,2.69-2.19,2.69s-2.2-.58-2.2-2.71c0-2.37.8-2.95,2.19-2.95S121.43,79.95,121.43,82.31Zm-3.8,0c0,1.89.59,2.3,1.62,2.3s1.61-.41,1.61-2.31c0-2.05-.51-2.55-1.62-2.55S117.63,80.22,117.63,82.31Z"/><path class="cls-2" d="M127,82.31c0,2.12-.82,2.69-2.19,2.69s-2.2-.58-2.2-2.71c0-2.37.8-2.95,2.19-2.95S127,79.95,127,82.31Zm-3.8,0c0,1.89.59,2.3,1.62,2.3s1.61-.41,1.61-2.31c0-2.05-.51-2.55-1.62-2.55S123.15,80.22,123.15,82.31Z"/><path class="cls-2" d="M128,84.16h0.6v0.77H128V84.16Z"/><path class="cls-2" d="M134,82.31c0,2.12-.82,2.69-2.19,2.69s-2.2-.58-2.2-2.71c0-2.37.8-2.95,2.19-2.95S134,79.95,134,82.31Zm-3.8,0c0,1.89.59,2.3,1.62,2.3s1.61-.41,1.61-2.31c0-2.05-.51-2.55-1.62-2.55S130.2,80.22,130.2,82.31Z"/><path class="cls-2" d="M139.53,82.31c0,2.12-.82,2.69-2.19,2.69s-2.2-.58-2.2-2.71c0-2.37.8-2.95,2.19-2.95S139.53,79.95,139.53,82.31Zm-3.8,0c0,1.89.59,2.3,1.62,2.3s1.61-.41,1.61-2.31c0-2.05-.51-2.55-1.62-2.55S135.72,80.22,135.72,82.31Z"/><path class="cls-2" d="M145,82.31c0,2.12-.82,2.69-2.19,2.69s-2.2-.58-2.2-2.71c0-2.37.8-2.95,2.19-2.95S145,79.95,145,82.31Zm-3.8,0c0,1.89.59,2.3,1.62,2.3s1.61-.41,1.61-2.31c0-2.05-.51-2.55-1.62-2.55S141.25,80.22,141.25,82.31Z"/><path class="cls-2" d="M150.57,82.31c0,2.12-.82,2.69-2.19,2.69s-2.2-.58-2.2-2.71c0-2.37.8-2.95,2.19-2.95S150.57,79.95,150.57,82.31Zm-3.8,0c0,1.89.59,2.3,1.62,2.3S150,84.2,150,82.29c0-2.05-.51-2.55-1.62-2.55S146.77,80.22,146.77,82.31Z"/><path class="cls-2" d="M96.63,94.76A8.37,8.37,0,0,1,95,95c-1.46,0-1.84-.83-1.84-2.16,0-1.63.68-2.16,1.79-2.16s1.82,0.58,1.82,2V93h-3c0,1.06.31,1.61,1.27,1.61a8.6,8.6,0,0,0,1.55-.23ZM96.2,92.64c0-1.17-.38-1.58-1.25-1.58s-1.21.42-1.22,1.58H96.2Z"/><path class="cls-2" d="M97.61,92.39h3.17v0.4H97.61v-0.4Z"/><path class="cls-2" d="M101.84,91a4.48,4.48,0,0,1,1.75-.36,1.66,1.66,0,0,1,1.17.35,4.26,4.26,0,0,1,1.69-.35c1.34,0,1.67.66,1.67,2.07v2.18h-0.57V92.75c0-1.2-.19-1.69-1.1-1.69a3.81,3.81,0,0,0-1.42.28,3,3,0,0,1,.24,1.41v2.18h-0.57V92.75c0-1.2-.19-1.69-1.1-1.69a4.06,4.06,0,0,0-1.19.21v3.66h-0.55V91Z"/><path class="cls-2" d="M109.41,90.8a14.41,14.41,0,0,1,1.5-.11A1.23,1.23,0,0,1,112.36,92v2.64a6.22,6.22,0,0,1-2,.35,1.15,1.15,0,0,1-1.28-1.24,1.21,1.21,0,0,1,1.37-1.23l1.35-.13V92a0.79,0.79,0,0,0-.9-0.92c-0.41,0-.92,0-1.42.1Zm2.4,2-1.29.11a0.78,0.78,0,0,0-.86.86,0.75,0.75,0,0,0,.73.87,5.65,5.65,0,0,0,1.42-.22V92.79Z"/><path class="cls-2" d="M113.54,89.13h0.55V89.7h-0.55V89.13Zm0,1.63h0.55v4.17h-0.55V90.76Z"/><path class="cls-2" d="M115.27,89.09h0.55v5.83h-0.55V89.09Z"/><path class="cls-2" d="M96.67,104.65a4.49,4.49,0,0,1-1.61.36c-1.33,0-1.81-.66-1.81-2.07v-2.17h0.57v2.17c0,1.2.31,1.69,1.24,1.69a3.92,3.92,0,0,0,1.06-.21v-3.66h0.55v3.88Z"/><path class="cls-2" d="M97.72,104.5a7,7,0,0,0,1,.1h0.15c0.46,0,.83-0.08.83-0.64a0.64,0.64,0,0,0-.24-0.52c-0.16-.13-0.6-0.44-1-0.7a1.19,1.19,0,0,1-.74-1.08s0-.08,0-0.12a1.12,1.12,0,0,1,1.34-.86,6.78,6.78,0,0,1,1.14.08l-0.07.36a5.53,5.53,0,0,0-.92-0.09H99.08a0.64,0.64,0,0,0-.79.53s0,0.07,0,.11a0.81,0.81,0,0,0,.51.75c0.44,0.29.89,0.61,1,.73a1,1,0,0,1,.41.81,1.12,1.12,0,0,1-1.36,1H98.74a8.4,8.4,0,0,1-1.09-.1Z"/><path class="cls-2" d="M104.63,104.65A4.49,4.49,0,0,1,103,105c-1.33,0-1.81-.66-1.81-2.07v-2.17h0.57v2.17c0,1.2.31,1.69,1.24,1.69a3.92,3.92,0,0,0,1.06-.21v-3.66h0.55v3.88Z"/><path class="cls-2" d="M105.94,100.79a14.39,14.39,0,0,1,1.5-.11,1.23,1.23,0,0,1,1.46,1.32v2.64a6.22,6.22,0,0,1-2,.35,1.15,1.15,0,0,1-1.28-1.24,1.21,1.21,0,0,1,1.37-1.23l1.35-.13V102a0.79,0.79,0,0,0-.9-0.92c-0.41,0-.92,0-1.42.1Zm2.4,2-1.29.11a0.78,0.78,0,0,0-.86.86,0.75,0.75,0,0,0,.73.87,5.66,5.66,0,0,0,1.42-.22v-1.62Zm-0.21-3.92-1.09,1H106.5l1-1h0.65Z"/><path class="cls-2" d="M110,101a4.59,4.59,0,0,1,1.75-.36,3.16,3.16,0,0,1,.45,0l-0.07.38-0.38,0a4,4,0,0,0-1.19.21v3.66H110V101Z"/><path class="cls-2" d="M113,99.13h0.55V99.7H113V99.13Zm0,1.63h0.55v4.17H113v-4.17Z"/><path class="cls-2" d="M118.28,102.77c0,1.53-.38,2.23-1.86,2.23s-1.9-.6-1.9-2.25,0.59-2.07,1.9-2.07S118.28,101.27,118.28,102.77Zm-0.56,0c0-1.27-.49-1.71-1.3-1.71-1,0-1.34.36-1.34,1.69s0.22,1.87,1.34,1.87S117.72,104,117.72,102.77Z"/><path class="cls-2" d="M122.28,104.5a7,7,0,0,0,1,.1h0.15c0.46,0,.83-0.08.83-0.64a0.64,0.64,0,0,0-.24-0.52c-0.16-.13-0.6-0.44-1-0.7a1.19,1.19,0,0,1-.74-1.08s0-.08,0-0.12a1.12,1.12,0,0,1,1.34-.86,6.78,6.78,0,0,1,1.14.08l-0.07.36a5.53,5.53,0,0,0-.92-0.09h-0.15a0.64,0.64,0,0,0-.79.53s0,0.07,0,.11a0.81,0.81,0,0,0,.51.75c0.44,0.29.89,0.61,1,.73a1,1,0,0,1,.41.81,1.12,1.12,0,0,1-1.36,1h-0.15a8.4,8.4,0,0,1-1.09-.1Z"/><path class="cls-2" d="M125.88,104.93V99.09h0.55v3.3h0.75l1.6-1.63h0.63l-1.82,1.89,1.81,2.28h-0.63l-1.6-2h-0.75v2h-0.55Z"/><path class="cls-2" d="M133.47,100.76l-2,5.53h-0.57l0.49-1.37h-0.28l-1.46-4.17h0.58l1.26,3.64h0.12l1.27-3.64h0.58Z"/><path class="cls-2" d="M134.78,106.54h-0.56v-5.81c0.39,0,.81-0.06,1.23-0.06,1.79,0,2.21.72,2.21,2.25S137.32,105,136,105a4.08,4.08,0,0,1-1.19-.2v1.75Zm0-2.13a4,4,0,0,0,1.19.21c0.91,0,1.1-.51,1.1-1.71s-0.21-1.84-1.58-1.85l-0.71,0v3.33Z"/><path class="cls-2" d="M142,104.76a8.37,8.37,0,0,1-1.63.24c-1.46,0-1.84-.83-1.84-2.16,0-1.63.68-2.16,1.79-2.16s1.82,0.58,1.82,2V103h-3c0,1.06.31,1.61,1.27,1.61a8.6,8.6,0,0,0,1.55-.23Zm-0.43-2.12c0-1.17-.38-1.58-1.25-1.58s-1.21.42-1.22,1.58h2.46Z"/></g><g id="_Group_8" data-name="&lt;Group&gt;"><g id="call"><g id="_Group_9" data-name="&lt;Group&gt;"><path class="cls-3" d="M81.11,65.06H81a0.67,0.67,0,0,1-.47-0.38c-0.49-1.08,0-2.67,1.22-3.88s2.82-1.71,3.9-1.21A0.64,0.64,0,0,1,86,60a0.45,0.45,0,0,1-.11.4l-0.78.78a0.44,0.44,0,0,1-.38.12,0.63,0.63,0,0,1-.36-0.18l-0.28-.28A0.28,0.28,0,0,0,84,60.8a0.1,0.1,0,0,0-.08,0L81.8,62.91a0.1,0.1,0,0,0,0,.08,0.28,0.28,0,0,0,.08.15l0.27,0.27a0.52,0.52,0,0,1,.07.73l-0.78.78A0.43,0.43,0,0,1,81.11,65.06Zm3.62-5.31A4.11,4.11,0,0,0,82,61c-1.1,1.1-1.57,2.53-1.15,3.48a0.31,0.31,0,0,0,.21.18,0.1,0.1,0,0,0,.08,0l0.78-.78a0.19,0.19,0,0,0-.07-0.23l-0.27-.27A0.63,0.63,0,0,1,81.43,63a0.44,0.44,0,0,1,.12-0.38l2.09-2.09A0.44,0.44,0,0,1,84,60.45a0.63,0.63,0,0,1,.36.18l0.28,0.28a0.28,0.28,0,0,0,.15.08,0.1,0.1,0,0,0,.08,0l0.78-.78a0.11,0.11,0,0,0,0-.09,0.29,0.29,0,0,0-.16-0.2A1.84,1.84,0,0,0,84.73,59.74Z"/></g></g></g><g id="smartphone"><g id="_Group_10" data-name="&lt;Group&gt;"><g id="_Group_11" data-name="&lt;Group&gt;"><path class="cls-3" d="M84.34,75.22H82.06a0.53,0.53,0,0,1-.53-0.53V70.09a0.53,0.53,0,0,1,.53-0.53h2.28a0.53,0.53,0,0,1,.53.53v4.61A0.53,0.53,0,0,1,84.34,75.22Zm-2.28-5.31a0.18,0.18,0,0,0-.18.18v4.61a0.18,0.18,0,0,0,.18.18h2.28a0.18,0.18,0,0,0,.18-0.18V70.09a0.18,0.18,0,0,0-.18-0.18H82.06Z"/></g></g><g id="_Group_12" data-name="&lt;Group&gt;"><g id="_Group_13" data-name="&lt;Group&gt;"><path class="cls-3" d="M83.53,74.4a0.34,0.34,0,1,0-.28.28A0.34,0.34,0,0,0,83.53,74.4Z"/></g></g><g id="_Group_14" data-name="&lt;Group&gt;"><g id="_Group_15" data-name="&lt;Group&gt;"><rect class="cls-3" x="81.7" y="70.21" width="2.99" height="0.35"/></g></g><g id="_Group_16" data-name="&lt;Group&gt;"><g id="_Group_17" data-name="&lt;Group&gt;"><rect class="cls-3" x="81.7" y="73.51" width="2.99" height="0.35"/></g></g></g><g id="mail"><g id="_Group_18" data-name="&lt;Group&gt;"><g id="_Group_19" data-name="&lt;Group&gt;"><path class="cls-3" d="M85.5,95H80.89a0.53,0.53,0,0,1-.53-0.53V91.5A0.53,0.53,0,0,1,80.89,91H85.5a0.53,0.53,0,0,1,.53.53v2.93A0.53,0.53,0,0,1,85.5,95Zm-4.61-3.64a0.18,0.18,0,0,0-.18.18v2.93a0.18,0.18,0,0,0,.18.18H85.5a0.18,0.18,0,0,0,.18-0.18V91.5a0.18,0.18,0,0,0-.18-0.18H80.89Z"/></g></g><g id="_Group_20" data-name="&lt;Group&gt;"><g id="_Group_21" data-name="&lt;Group&gt;"><path class="cls-3" d="M83.2,93.45a0.67,0.67,0,0,1-.46-0.19l-2-1.91A0.18,0.18,0,1,1,81,91.1L83,93a0.31,0.31,0,0,0,.44,0l2-2a0.18,0.18,0,0,1,.25.26l-2,2A0.67,0.67,0,0,1,83.2,93.45Z"/></g></g><g id="_Group_22" data-name="&lt;Group&gt;"><g id="_Group_23" data-name="&lt;Group&gt;"><path class="cls-3" d="M80.54,94.3a0.18,0.18,0,0,1-.1-0.32l1.9-1.26a0.18,0.18,0,1,1,.2.3l-1.9,1.26A0.18,0.18,0,0,1,80.54,94.3Z"/></g></g><g id="_Group_24" data-name="&lt;Group&gt;"><g id="_Group_25" data-name="&lt;Group&gt;"><path class="cls-3" d="M85.85,94.31a0.18,0.18,0,0,1-.1,0L83.87,93a0.18,0.18,0,0,1,.2-0.3L86,94A0.18,0.18,0,0,1,85.85,94.31Z"/></g></g></g><g id="skype-icon"><path class="cls-3" d="M85.81,103.35a2.69,2.69,0,0,0,0-.46,2.66,2.66,0,0,0-3.15-2.61,1.55,1.55,0,0,0-2.13,2.14,2.66,2.66,0,0,0,3.11,3.08A1.55,1.55,0,0,0,85.81,103.35Zm-2.52,1.4c-0.76,0-1.52-.34-1.51-0.93a0.33,0.33,0,0,1,.31-0.34c0.45,0,.44.66,1.15,0.66a0.56,0.56,0,0,0,.67-0.46c0-.68-2.15-0.26-2.15-1.55A1.21,1.21,0,0,1,83.22,101a1.37,1.37,0,0,1,1.41.78,0.36,0.36,0,0,1-.39.41c-0.39,0-.43-0.52-1.09-0.52a0.46,0.46,0,0,0-.56.4c0,0.57,2.14.24,2.14,1.49A1.26,1.26,0,0,1,83.29,104.74Z"/></g></g></svg>