<?xml version="1.0" encoding="utf-8"?>
<!-- Generator: Adobe Illustrator 19.2.1, SVG Export Plug-In . SVG Version: 6.00 Build 0)  -->
<svg version="1.1" id="Layer_1" xmlns="http://www.w3.org/2000/svg" xmlns:xlink="http://www.w3.org/1999/xlink" x="0px" y="0px"
	 viewBox="0 0 425.2 566.9" style="enable-background:new 0 0 425.2 566.9;" xml:space="preserve">
<style type="text/css">
	.st0{fill:#EDEDED;}
	.st1{fill:#E31019;}
	.st2{fill:#9D9D9C;}
	.st3{fill:#E30613;}
</style>
<g id="XMLID_9575_">
	<rect x="0" y="0" class="st0" width="425.2" height="566.9"/>
</g>
<g id="XMLID_9574_">
	<rect x="28.5" y="28.5" class="st1" width="368.1" height="509.9"/>
</g>
<g id="XMLID_458_">
	<g id="XMLID_480_">
		<rect x="290.9" y="538.4" class="st0" width="105.8" height="28.5"/>
	</g>
	<g id="XMLID_459_">
		<g id="XMLID_472_">
			<g id="XMLID_477_">
				<path class="st2" d="M325.7,554c-0.7,0-1.3,0.6-1.3,1.3c0,0.7,0.6,1.3,1.3,1.3s1.3-0.6,1.3-1.3C327,554.6,326.4,554,325.7,554z
					 M326,555.4c-0.1,0.1-0.3,0.1-0.6-0.1c-0.3-0.1-0.5-0.3-0.5-0.4l-0.4-0.2l0.4,0.1c0.1-0.1,0.3-0.1,0.6,0.1
					C325.8,555.1,326,555.3,326,555.4l0.8,0.3L326,555.4z"/>
			</g>
			<g id="XMLID_473_">
				<path class="st2" d="M325.9,555.2c-0.1-0.1-0.2-0.1-0.3-0.2c-0.2-0.1-0.5-0.2-0.6-0.1c0,0.1,0.2,0.3,0.4,0.4
					c0.1,0.1,0.3,0.1,0.4,0.1c0,0,0.1,0,0.1,0c0.1,0,0.1,0,0.1-0.1C326,555.3,325.9,555.3,325.9,555.2z M325.8,555.4
					c-0.1,0-0.2-0.1-0.4-0.1c-0.3-0.1-0.4-0.3-0.4-0.3l0.9,0.4C325.9,555.4,325.8,555.4,325.8,555.4z M325,554.9
					C325,554.9,325.1,554.9,325,554.9c0.2,0,0.3,0,0.5,0.1c0.1,0.1,0.2,0.1,0.3,0.2c0.1,0.1,0.1,0.1,0.1,0.1L325,554.9z"/>
			</g>
		</g>
		<g id="XMLID_470_">
			<path class="st2" d="M333.5,560.5h-3.2l-4.7-9.9l-4.7,9.9h-3.2l7.8-15.7L333.5,560.5z"/>
		</g>
		<g id="XMLID_468_">
			<path class="st2" d="M314.7,544.8v15.7l-2.6-2v-8.2l-5.3,4.1l-5.3-4.1v8.2l-2.6,2v-15.7l7.9,6.1L314.7,544.8z"/>
		</g>
		<g id="XMLID_466_">
			<path class="st2" d="M341.1,551.2c0.1,0,0.3,0,0.6,0.1c0.3,0,0.6,0.1,0.9,0.2c0.3,0.1,0.7,0.3,1.1,0.5c0.4,0.2,0.7,0.5,1,0.8
				c0.3,0.3,0.5,0.8,0.7,1.2c0.2,0.5,0.3,1.1,0.3,1.8c0,0,0,0.2,0,0.4c0,0.2-0.1,0.5-0.2,0.9c-0.1,0.3-0.3,0.7-0.5,1.1
				c-0.2,0.4-0.5,0.8-1,1.1c-0.4,0.3-0.9,0.6-1.6,0.8c-0.6,0.2-1.4,0.3-2.3,0.3c-0.8,0-1.7-0.2-2.4-0.5c-0.8-0.4-1.4-0.8-2-1.5
				l2.1-1.7c0,0,0.1,0.1,0.2,0.2c0.1,0.1,0.3,0.2,0.5,0.4c0.2,0.1,0.5,0.2,0.8,0.3c0.3,0.1,0.7,0.2,1.1,0.2c0.8,0,1.4-0.2,1.9-0.6
				c0.4-0.4,0.7-0.9,0.7-1.5c0-0.4-0.1-0.7-0.3-1c-0.2-0.3-0.4-0.5-0.7-0.6c-0.3-0.2-0.6-0.3-1-0.4c-0.4-0.1-0.8-0.2-1.2-0.3
				c-0.1,0-0.3,0-0.6-0.1c-0.3-0.1-0.5-0.1-0.9-0.3s-0.6-0.3-1-0.5c-0.3-0.2-0.6-0.5-0.9-0.8c-0.3-0.3-0.5-0.7-0.7-1.1
				c-0.2-0.4-0.3-1-0.3-1.6c0,0,0-0.2,0-0.4c0-0.2,0.1-0.5,0.2-0.8c0.1-0.3,0.3-0.7,0.5-1.1c0.2-0.4,0.6-0.7,1-1
				c0.4-0.3,0.9-0.6,1.6-0.8c0.6-0.2,1.4-0.3,2.3-0.3c0.8,0,1.7,0.2,2.4,0.5c0.8,0.4,1.4,0.9,2,1.5l-2.1,1.7
				c-0.2-0.3-0.4-0.5-0.6-0.6c-0.3-0.1-0.6-0.3-0.8-0.3c-0.3-0.1-0.7-0.1-1.1-0.1c-0.8,0-1.4,0.2-1.9,0.5c-0.4,0.3-0.7,0.8-0.7,1.3
				c0,0.4,0.1,0.7,0.2,1c0.1,0.2,0.3,0.4,0.6,0.5c0.2,0.1,0.5,0.2,0.9,0.3C340.3,551.1,340.7,551.2,341.1,551.2z"/>
		</g>
		<g id="XMLID_464_">
			<path class="st2" d="M361.1,544.8v9.9c0,0.1,0,0.4,0,0.7c0,0.3-0.1,0.7-0.2,1.2c-0.1,0.4-0.3,0.9-0.5,1.3c-0.2,0.5-0.6,0.9-1,1.3
				c-0.5,0.4-1,0.7-1.7,0.9c-0.7,0.2-1.5,0.4-2.6,0.4c-1,0-1.8-0.1-2.4-0.4c-0.7-0.2-1.2-0.6-1.6-0.9c-0.4-0.4-0.8-0.8-1-1.3
				c-0.2-0.5-0.4-0.9-0.5-1.3c-0.1-0.4-0.2-0.8-0.2-1.2c0-0.3,0-0.6,0-0.7v-9.9h2.6v9.9c0,0.2,0,0.4,0.1,0.8c0,0.4,0.1,0.8,0.3,1.2
				c0.2,0.4,0.5,0.7,1,1.1c0.4,0.3,1.1,0.5,1.8,0.5c0.9,0,1.5-0.2,2-0.5c0.5-0.3,0.8-0.7,1-1.1c0.2-0.4,0.3-0.8,0.4-1.2
				c0-0.4,0.1-0.6,0.1-0.8v-9.9H361.1z"/>
		</g>
		<g id="XMLID_462_">
			<path class="st2" d="M386,544.8h2.6v13.6l-2.6,2V544.8z"/>
		</g>
		<g id="XMLID_461_">
			<polygon class="st2" points="369.4,544.8 366.8,544.8 364.2,544.8 364.2,547.5 366.8,547.5 366.8,548.4 366.8,560.5 369.4,560.5 
				369.4,548.4 369.4,547.5 372,547.5 372,544.8 			"/>
		</g>
		<g id="XMLID_460_">
			<polygon class="st2" points="380.3,544.8 377.6,544.8 375,544.8 375,547.5 377.6,547.5 377.6,548.4 377.6,560.5 380.3,560.5 
				380.3,548.4 380.3,547.5 382.9,547.5 382.9,544.8 			"/>
		</g>
	</g>
</g>
<g id="XMLID_9573_">
	<rect x="49" y="367.9" class="st0" width="327.2" height="150"/>
</g>
<g id="XMLID_137_">
</g>
<g id="XMLID_9521_">
	<polygon class="st0" points="99.2,58 128.4,58 157.7,58 157.7,163.2 267.5,163.2 267.5,58 296.6,58 326,58 326,338.5 296.8,338.5 
		267.5,338.5 267.5,211.4 157.7,211.4 157.7,338.5 128.6,338.5 99.2,338.5 	"/>
</g>
<g id="XMLID_148_">
	<g id="XMLID_9250_">
		<polygon class="st1" points="168.3,486.6 286.1,486.6 286.1,471.5 168.3,471.5 184.8,455.1 163.2,455.1 139.1,479 163.2,502.9 
			184.8,502.9 		"/>
	</g>
	<g id="XMLID_9192_">
		<path class="st3" d="M93.9,411.5H77.5v15h-9.2v-35.8h9.2v15h16.4v-15h9.2v35.8h-9.2V411.5z"/>
		<path class="st3" d="M111.3,390.7h9.2v35.9h-9.2V390.7z"/>
		<path class="st3" d="M128.6,426.5v-35.8h18.2c12.8,0,16.8,9.1,16.8,17.5c0,8.3-3.8,18.4-16.8,18.4H128.6z M146.8,420.7
			c5.2,0,7.5-6.3,7.5-12.5c0-6.2-2.2-11.6-7.5-11.6h-9v24.2H146.8z"/>
		<path class="st3" d="M186.4,413.4h-6.5v13.1h-9.2v-35.8h17.7c9.6,0,15.3,3.8,15.3,11.2c0,4.7-1.9,8.5-7.1,10.3l9.7,14.4h-10
			l-8.8-13.1H186.4z M188.4,407.6c4.9,0,6-1.6,6-5.8c0-4.2-1.3-5.3-6-5.3h-8.5v11.1H188.4z"/>
		<path class="st3" d="M233.3,390.7l13.8,35.8h-9.3l-3.3-8.4h-14l-3.2,8.4h-9.4l13.9-35.8H233.3z M227.5,399.5l-4.7,12.8h9.3
			L227.5,399.5z"/>
		<path class="st3" d="M250.9,390.7h10.8L276,414v-23.4h9.2v35.8h-10.7l-14.3-23.4v23.4h-9.2V390.7z"/>
		<path class="st3" d="M288.9,390.7h35.3v5.8h-13v30h-9.2v-30h-13.1V390.7z"/>
		<path class="st3" d="M328.7,390.7h30.2v5.8h-21v8.7h17.6v5.8h-17.6v9.6h21v5.8h-30.2V390.7z"/>
	</g>
</g>
</svg>
