<?xml version="1.0" encoding="utf-8"?>
<!-- Generator: Adobe Illustrator 19.2.1, SVG Export Plug-In . SVG Version: 6.00 Build 0)  -->
<svg version="1.1" id="Layer_1" xmlns="http://www.w3.org/2000/svg" xmlns:xlink="http://www.w3.org/1999/xlink" x="0px" y="0px"
	 viewBox="0 0 425.2 566.9" style="enable-background:new 0 0 425.2 566.9;" xml:space="preserve">
<style type="text/css">
	.st0{fill:#EDEDED;}
	.st1{fill:#E31019;}
	.st2{fill:#9D9D9C;}
	.st3{fill:#E30613;}
</style>
<g id="XMLID_15_">
	<g id="XMLID_9575_">
		<rect x="0" y="0" class="st0" width="425.2" height="566.9"/>
	</g>
	<g id="XMLID_9574_">
		<rect x="28.5" y="28.5" class="st1" width="368.1" height="509.9"/>
	</g>
	<g id="XMLID_458_">
		<g id="XMLID_480_">
			<rect x="290.9" y="538.4" class="st0" width="105.8" height="28.5"/>
		</g>
		<g id="XMLID_459_">
			<g id="XMLID_472_">
				<g id="XMLID_477_">
					<path class="st2" d="M325.7,554c-0.7,0-1.3,0.6-1.3,1.3c0,0.7,0.6,1.3,1.3,1.3s1.3-0.6,1.3-1.3C327,554.6,326.4,554,325.7,554z
						 M326,555.4c-0.1,0.1-0.3,0.1-0.6-0.1c-0.3-0.1-0.5-0.3-0.5-0.4l-0.4-0.2l0.4,0.1c0.1-0.1,0.3-0.1,0.6,0.1
						C325.8,555.1,326,555.3,326,555.4l0.8,0.3L326,555.4z"/>
				</g>
				<g id="XMLID_473_">
					<path class="st2" d="M325.9,555.2c-0.1-0.1-0.2-0.1-0.3-0.2c-0.2-0.1-0.5-0.2-0.6-0.1c0,0.1,0.2,0.3,0.4,0.4
						c0.1,0.1,0.3,0.1,0.4,0.1c0,0,0.1,0,0.1,0c0.1,0,0.1,0,0.1-0.1C326,555.3,325.9,555.3,325.9,555.2z M325.8,555.4
						c-0.1,0-0.2-0.1-0.4-0.1c-0.3-0.1-0.4-0.3-0.4-0.3l0.9,0.4C325.9,555.4,325.8,555.4,325.8,555.4z M325,554.9
						C325,554.9,325.1,554.9,325,554.9c0.2,0,0.3,0,0.5,0.1c0.1,0.1,0.2,0.1,0.3,0.2c0.1,0.1,0.1,0.1,0.1,0.1L325,554.9z"/>
				</g>
			</g>
			<g id="XMLID_470_">
				<path class="st2" d="M333.5,560.5h-3.2l-4.7-9.9l-4.7,9.9h-3.2l7.8-15.7L333.5,560.5z"/>
			</g>
			<g id="XMLID_468_">
				<path class="st2" d="M314.7,544.8v15.7l-2.6-2v-8.2l-5.3,4.1l-5.3-4.1v8.2l-2.6,2v-15.7l7.9,6.1L314.7,544.8z"/>
			</g>
			<g id="XMLID_466_">
				<path class="st2" d="M341.1,551.2c0.1,0,0.3,0,0.6,0.1c0.3,0,0.6,0.1,0.9,0.2c0.3,0.1,0.7,0.3,1.1,0.5c0.4,0.2,0.7,0.5,1,0.8
					c0.3,0.3,0.5,0.8,0.7,1.2c0.2,0.5,0.3,1.1,0.3,1.8c0,0,0,0.2,0,0.4c0,0.2-0.1,0.5-0.2,0.9c-0.1,0.3-0.3,0.7-0.5,1.1
					c-0.2,0.4-0.5,0.8-1,1.1c-0.4,0.3-0.9,0.6-1.6,0.8c-0.6,0.2-1.4,0.3-2.3,0.3c-0.8,0-1.7-0.2-2.4-0.5c-0.8-0.4-1.4-0.8-2-1.5
					l2.1-1.7c0,0,0.1,0.1,0.2,0.2c0.1,0.1,0.3,0.2,0.5,0.4c0.2,0.1,0.5,0.2,0.8,0.3c0.3,0.1,0.7,0.2,1.1,0.2c0.8,0,1.4-0.2,1.9-0.6
					c0.4-0.4,0.7-0.9,0.7-1.5c0-0.4-0.1-0.7-0.3-1c-0.2-0.3-0.4-0.5-0.7-0.6c-0.3-0.2-0.6-0.3-1-0.4c-0.4-0.1-0.8-0.2-1.2-0.3
					c-0.1,0-0.3,0-0.6-0.1c-0.3-0.1-0.5-0.1-0.9-0.3s-0.6-0.3-1-0.5c-0.3-0.2-0.6-0.5-0.9-0.8c-0.3-0.3-0.5-0.7-0.7-1.1
					c-0.2-0.4-0.3-1-0.3-1.6c0,0,0-0.2,0-0.4c0-0.2,0.1-0.5,0.2-0.8c0.1-0.3,0.3-0.7,0.5-1.1c0.2-0.4,0.6-0.7,1-1
					c0.4-0.3,0.9-0.6,1.6-0.8c0.6-0.2,1.4-0.3,2.3-0.3c0.8,0,1.7,0.2,2.4,0.5c0.8,0.4,1.4,0.9,2,1.5l-2.1,1.7
					c-0.2-0.3-0.4-0.5-0.6-0.6c-0.3-0.1-0.6-0.3-0.8-0.3c-0.3-0.1-0.7-0.1-1.1-0.1c-0.8,0-1.4,0.2-1.9,0.5c-0.4,0.3-0.7,0.8-0.7,1.3
					c0,0.4,0.1,0.7,0.2,1c0.1,0.2,0.3,0.4,0.6,0.5c0.2,0.1,0.5,0.2,0.9,0.3C340.3,551.1,340.7,551.2,341.1,551.2z"/>
			</g>
			<g id="XMLID_464_">
				<path class="st2" d="M361.1,544.8v9.9c0,0.1,0,0.4,0,0.7c0,0.3-0.1,0.7-0.2,1.2c-0.1,0.4-0.3,0.9-0.5,1.3
					c-0.2,0.5-0.6,0.9-1,1.3c-0.5,0.4-1,0.7-1.7,0.9c-0.7,0.2-1.5,0.4-2.6,0.4c-1,0-1.8-0.1-2.4-0.4c-0.7-0.2-1.2-0.6-1.6-0.9
					c-0.4-0.4-0.8-0.8-1-1.3c-0.2-0.5-0.4-0.9-0.5-1.3c-0.1-0.4-0.2-0.8-0.2-1.2c0-0.3,0-0.6,0-0.7v-9.9h2.6v9.9
					c0,0.2,0,0.4,0.1,0.8c0,0.4,0.1,0.8,0.3,1.2c0.2,0.4,0.5,0.7,1,1.1c0.4,0.3,1.1,0.5,1.8,0.5c0.9,0,1.5-0.2,2-0.5
					c0.5-0.3,0.8-0.7,1-1.1c0.2-0.4,0.3-0.8,0.4-1.2c0-0.4,0.1-0.6,0.1-0.8v-9.9H361.1z"/>
			</g>
			<g id="XMLID_462_">
				<path class="st2" d="M386,544.8h2.6v13.6l-2.6,2V544.8z"/>
			</g>
			<g id="XMLID_461_">
				<polygon class="st2" points="369.4,544.8 366.8,544.8 364.2,544.8 364.2,547.5 366.8,547.5 366.8,548.4 366.8,560.5 
					369.4,560.5 369.4,548.4 369.4,547.5 372,547.5 372,544.8 				"/>
			</g>
			<g id="XMLID_460_">
				<polygon class="st2" points="380.3,544.8 377.6,544.8 375,544.8 375,547.5 377.6,547.5 377.6,548.4 377.6,560.5 380.3,560.5 
					380.3,548.4 380.3,547.5 382.9,547.5 382.9,544.8 				"/>
			</g>
		</g>
	</g>
	<g id="XMLID_9573_">
		<rect x="49" y="367.9" class="st0" width="327.2" height="150"/>
	</g>
	<g id="XMLID_9505_">
		<g id="XMLID_9509_">
			<path class="st0" d="M288,127.3c-9.4-7-19.9-12.7-31-16.7c-9.8-3.6-19.9-5.7-29.9-6.5c-51.4-4.1-102.6,26.7-117.4,79.2
				c-16.3,58,26.5,117.7,88.2,121c10.2,0.5,20-0.7,29.2-3.2c28.2-7.9,50.5-29.1,60.9-53.9c8.2-19.4,9.1-40.9,0-60
				c-5.8-12.1-15.6-23.2-30.1-32.1c-10.3-6.3-20.7-9.8-30.8-11c-63.3-7.5-113.5,75.4-51.2,113c15.5,9.4,35.5,8.3,51.2,0
				c13.9-7.4,24.5-20.4,25.8-36.9c1.6-19.9-11.3-31.3-25.8-34.1c-17.7-3.4-37.8,6-37.8,28.6l22.8-0.3c2.1-6.9,10.9-6.8,15-2.3
				c1.7,1.8,2.5,4.4,1.8,7.5c-0.5,1.9-1.1,3.7-1.8,5.4c-13.7,30.7-71.2,9.7-52-29.6c10.3-21.2,31.9-29.8,52-26.6
				c15.5,2.5,30.1,12,38.1,28.2c16.5,33.7-6.6,66.7-38.1,78.7c-11.1,4.2-23.2,5.9-34.9,4c-44-7-73.1-50.8-58-94
				c13.9-39.8,53.2-61.6,92.9-57.7c7.6,0.8,15.2,2.5,22.6,5.1c15,5.4,28.1,14.6,38.4,26.1c19.1,21.5,28.2,51.2,21.2,80.7
				c-3.8,16-11.2,30.3-21.2,42.3c-15.4,18.5-37,31.4-60.9,36.5c-7.6,1.6-15.5,2.5-23.4,2.4C122.9,321,77.4,246.3,93.5,179
				c13.1-54.6,69.7-93.4,120.7-93.4V61.7c-62.8,0-128.3,42.3-144.7,111.5c-9.8,41.3-1.2,86.7,28.1,122
				c33.5,40.3,83.7,55.2,129.5,47.6c22.2-3.7,43.3-12.6,60.9-26.6c21.1-16.6,37.3-40.4,44.5-70.7C344,197.4,322.9,153.2,288,127.3z"
				/>
		</g>
		<g id="XMLID_9508_">
			<rect x="343.5" y="61.7" class="st0" width="16.1" height="23.9"/>
		</g>
		<g id="XMLID_9507_">
			<polygon class="st0" points="240.4,61.7 240.4,85.6 288,83.2 339.6,80.7 339.6,66.7 288,64.1 			"/>
		</g>
		<g id="XMLID_9506_">
			<polygon class="st0" points="236.2,95.5 236.2,51.8 227.1,51.8 217.9,51.8 217.9,95.5 227.1,95.5 			"/>
		</g>
	</g>
	<g id="XMLID_9187_">
		<path class="st3" d="M106.2,425.7v30.1h-7.7V439L91.3,455h-6.8L77.4,439v16.9h-7.7v-30.1h8.8l9.4,20l9.5-20H106.2z"/>
		<path class="st3" d="M131.3,425.7l11.6,30.1h-7.8l-2.8-7h-11.7l-2.7,7H110l11.6-30.1H131.3z M126.4,433.2l-3.9,10.7h7.8
			L126.4,433.2z"/>
		<path class="st3" d="M146.1,425.7h9l12,19.6v-19.6h7.7v30.1h-9l-12-19.6v19.6h-7.7V425.7z"/>
		<path class="st3" d="M207.7,431.8c-4.2-0.7-8.7-1.5-12.9-1.5c-6.3,0-7.6,3.5-7.6,10.6c0,7.1,1.4,10.4,7.6,10.4
			c1.9,0,4.6-0.4,5.7-0.5V444h-7.1v-4.9h14.8v15.7c-2.8,0.4-9.1,1.4-13.4,1.4c-12.1,0-15.4-6.5-15.4-15.3c0-8.6,2.8-15.5,15.4-15.5
			c5.7,0,9.8,0.7,13.6,1.4L207.7,431.8z"/>
		<path class="st3" d="M222.3,446.6c0,3.7,1.7,4.7,6,4.7c4.8,0,6.5-0.9,6.5-4.7v-20.9h7.7v20.9c0,6.7-5.8,9.5-14.2,9.5
			c-7.8,0-13.7-2.8-13.7-9.5v-20.9h7.7L222.3,446.6z"/>
		<path class="st3" d="M248.9,425.7h25.3v4.9h-17.6v7.3h14.8v4.9h-14.8v8.1h17.6v4.9h-25.3V425.7z"/>
		<path class="st3" d="M279.4,425.7h7.7v30.1h-7.7V425.7z"/>
		<path class="st3" d="M307.1,444.9h-5.5v11h-7.7v-30.1h14.9c8.1,0,12.8,3.2,12.8,9.4c0,3.9-1.6,7.1-6,8.6l8.1,12.1h-8.4l-7.4-11
			H307.1z M308.8,440c4.1,0,5-1.3,5-4.8c0-3.6-1.1-4.5-5-4.5h-7.2v9.3H308.8z"/>
		<path class="st3" d="M346.4,425.7l11.6,30.1h-7.8l-2.8-7h-11.7l-2.7,7h-7.8l11.6-30.1H346.4z M341.6,433.2l-3.9,10.7h7.8
			L341.6,433.2z"/>
	</g>
</g>
</svg>
