<?xml version="1.0" encoding="utf-8"?>
<!-- Generator: Adobe Illustrator 19.2.1, SVG Export Plug-In . SVG Version: 6.00 Build 0)  -->
<svg version="1.1" id="Layer_1" xmlns="http://www.w3.org/2000/svg" xmlns:xlink="http://www.w3.org/1999/xlink" x="0px" y="0px"
	 viewBox="0 0 425.2 652" style="enable-background:new 0 0 425.2 652;" xml:space="preserve">
<style type="text/css">
	.st0{fill:#EDEDED;}
	.st1{fill:#E31019;}
	.st2{fill:#009D41;}
	.st3{fill:#007DA4;}
	.st4{fill:#3AABE2;}
	.st5{fill:#E30613;}
	.st6{font-family:'Kuro-ExtraBold';}
	.st7{font-size:21px;}
</style>
<rect id="XMLID_7599_" x="0" class="st0" width="425.2" height="652"/>
<path id="XMLID_8518_" class="st1" d="M200.3,32.9H32.7v367.2h167.7h199.6V32.9H200.3z M272.7,383h-72.4h-40.4V138.7
	c0-7,2.6-13.7,7.2-18.8c5.3-5.8,12.9-9.2,20.7-9.2h11.6V88.3c0-1.5-0.6-2.9-1.6-4c-1.1-1-2.5-1.6-4-1.6h-12.2l-39,28.4
	c-1.3,1-2.2,2.4-2.3,4l-1,11.6h-11.4l2.6-29.8c0.1-1.6,0.6-3.1,1.4-4.5c0.8-1.4,1.9-2.6,3.2-3.5l43.2-31.5h22.1h2V50h28v6.2h14
	l14,9.1v8.4l-14,9.1h-5.6c-1.7,0-3.3,0.8-4.4,2.1c-0.8,1-1.2,2.2-1.2,3.5v22.4h11.6c8.3,0,16.4,3.8,21.6,10.2
	c4.1,5,6.3,11.3,6.3,17.8V383z"/>
<g id="XMLID_8492_">
	<path id="XMLID_8497_" class="st2" d="M92.1,526.2h-1.3H76.7h-0.4h-1.6h-1.5H64h-3h-9.9H40.4h-2.7c-3,0-5.4,2.4-5.4,5.4v54.4
		c0,3,2.4,5.4,5.4,5.4h2.7h10.7H61h3h9.1h1.5h1.6h0.4h14.2h1.3c3,0,5.4-2.4,5.4-5.4v-54.4C97.6,528.6,95.1,526.2,92.1,526.2z
		 M56.9,531.9c1.4-1.1,1.2-3.1,1.2-3.1s1.3,2.6,0.9,3.1c-0.7,1-0.8,3.2,0.7,3.2c1.5-0.1,0.8-2.4,0.8-2.4c0.2,0.1,0.3,0.2,0.5,0.3
		c1.2,0.8,0.9,2.4,0.9,2.4c-0.8,3.3-0.2,6-0.2,6c0.2-1.4,1.3-1.2,1.5-3.1c0.1-0.6,0.4-1.3,0.8-1.8c0.8-1,1.9-1.8,1.9-1.8
		c-0.7,0.2-0.8,4.1-0.5,5.2c0.4,1.5,1.3,1.4,1.4,3.2c0.1,1.9-2.6,2.8-2.6,2.8l-0.2-0.1l-3-2.4l-4.1-3.2
		C53.2,536.9,56.9,531.9,56.9,531.9z M38.4,536.8c0,0-0.8,2.4,0.4,3c0,0,0.2-2.3,1.6-4c0.5-0.7,1.2-1.3,2.2-1.7
		c-2.2,0.9-0.4,5,0.6,5.7c1.1,0.7,0.4,2,0.4,2l-3.2,2.2l-1,0.7C39.3,544.6,34.7,541.5,38.4,536.8z M38.2,546.6l2.1-1.4l7.5-5h3.3
		h4.5l5.5,4.3l2.8,2.2c0,0,0.1,0.1,0.2,0.3c0.1,0.3,0.3,0.8,0.3,1.8H64h-3h-9.9H40.4h-2.5C37.9,546.9,38.2,546.6,38.2,546.6z
		 M60.4,585.4c0,1.2-1,2.1-2.2,2.1l-7.1,0l-6,0c-1.2,0-2.1-1-2.2-2.1l-2.5-18.5L38.1,550l2.3,0l10.7,0l9.9,0l3,0h0.2l-0.2,1.5
		l-3,27.6L60.4,585.4z M62.6,576.5c0-1,0.4-1.8,0.9-2.3l0.5-0.3c0,0,0.1,0,0.1,0h0c0.5,0,1.1,0.3,1.5,0.8c0.4,0.5,0.7,1.2,0.7,1.9
		c0,0.6-0.2,1.2-0.5,1.6c-0.3,0.5-0.8,0.8-1.2,1c0,0-0.1,0-0.1,0.1c-0.1,0-0.2,0-0.3-0.1C63.2,578.9,62.6,577.8,62.6,576.5z
		 M74.7,589.4l-1.5,0l-3.4,0v-0.7c0.9,0.3,2.3,0.3,3.4,0.3c0.8,0,1.4-0.1,1.4-0.1c-0.4,0.1-0.9,0.1-1.4,0c-1.4-0.1-2.8-0.6-3.4-0.8
		v-0.8h0.9c0.6,0.2,1.6,0.5,2.5,0.7c0.5,0.1,1.1,0.2,1.5,0.2l0.1,0l-0.1,0l-1.5-0.5l-0.9-0.3h0.9h1.5h1.1l0,2.1H74.7z M70,586.8
		l3.2-4.8l0,0l1.5,1l1.6,1.1l0.1,0.1l-0.1,0.3l-0.7,2.3h-0.9v0h-1.5v0H70z M76.7,586.6l-0.4,1.5l-0.1,0.2l0-1.2c0,0,0-0.1,0-0.1
		l0.1-0.2l0.4-1.4l0.2-0.7l0.3,0.2L76.7,586.6z M89.4,587.9l-4.6,1.6v0.1l-8.1-5.6l-0.4-0.3l-1.6-1.1l-1.4-1v-0.8l1.4,0.9l1.6,1
		l0.4,0.3l5.1,3.2l2.9,1.8c0,0,0.2,0,0.2,0l4.6-1.5V587.9z M73.6,580.4l1-0.2l1.6-0.2l0.3,0l0.1,0l0.7-0.1l11.8,6.3l-4.4,1.4
		l-8.1-5.2l-0.4-0.3l-1.6-1L73.6,580.4L73.6,580.4L73.6,580.4z M90.9,580.4c-0.5,1.5-1.6,3.4-3.6,4.2l-9.8-5.2l-0.1,0l-0.1,0
		l-0.6,0.1l-0.4,0.1l-1.6,0.3l-1.5,0.2l-0.2,0l-0.2,0v0.2v1.4v0l-0.5,0.7c-1.4,0.6-2.8,1.3-3.7,1.7c0.1-0.1,0.1-0.3,0.2-0.4
		c0.3-0.7,0.3-1.6,0.1-2.4c0-0.2-0.1-0.3-0.2-0.5c-0.2-0.6-0.6-1-1-1.2c0,0-0.1-0.1-0.2-0.1l5.5-2l1.5-0.6l1.6-0.6l0.4-0.1l0,0
		c0.1,0,0.2-0.1,0.1-0.3c0-0.1-0.1-0.2-0.2-0.2c0,0-0.1,0-0.1,0l-0.3,0.1l-1.6,0.6l-1.5,0.6l-6.9,2.5l0,0h0l0,0c0,0,0,0,0,0l0,0
		l-0.3,0.1c0,0,0,0-0.1,0c0,0-1.7,1.1-0.8,2.9c0,0,0,0,0,0c0,0,1.4,1.9,3-0.2c0.1-0.1,0.1-0.2,0-0.3c-0.2-0.1-0.3-0.1-0.3,0
		c-1.1,1.5-2.1,0.3-2.3,0.2c-0.7-1.3,0.4-2.2,0.6-2.3l0.1-0.1c0,0,0.1,0,0.1,0c0,0,0,0,0,0l0.1,0c0,0,0.1,0,0.1,0
		c0.4-0.1,0.7-0.1,1,0.1c0.3,0.2,0.6,0.5,0.8,1c0,0.1,0.1,0.3,0.1,0.4c0.2,0.7,0.1,1.5-0.1,2.1c-0.2,0.6-0.6,1.1-1.1,1.2
		c-0.1,0-0.1,0-0.1,0.1c-1.1,0.3-2.5,0.1-3.1-1.7l-0.1-0.2c-0.2-0.8-0.2-1.5,0-2c0.2-0.5,0.4-0.9,0.6-1.1l8.5-3.1l1.5-0.6l1.6-0.6
		l0.2-0.1c0.1,0,0.2-0.1,0.1-0.3c-0.1-0.2-0.2-0.2-0.3-0.1l0,0l-1.6,0.6l-1.5,0.6l-7.2,2.7c0,0,0.1-0.1,0.1-0.1
		c0.3-0.5,0.6-1.2,0.6-1.9c0-0.8-0.3-1.6-0.8-2.2c-0.3-0.3-0.6-0.6-0.9-0.8l8.2-2.6l1.5-0.5l0,0c0.1,0,0.2-0.1,0.2-0.3
		c0-0.1-0.1-0.2-0.2-0.2c0,0-0.1,0-0.1,0l-1.4,0.4l-4.7,1.5c-4-8.7,1.8-15.5,1.8-15.5c2.1-2.3,1.2-9.4,1.2-9.4
		c0.7,0.5,1.3,1.1,1.7,1.8c1.2,2,1.3,4.6,1,6.8c-0.2,1.8,0.2,3.5,0.5,4.5c0.2,0.6,0.4,1,0.4,1c-0.8-2.7,0-4.1,1.2-5.7l0.4-0.5
		c0.3-0.4,0.5-0.8,0.8-1.2c1.4-2.2,3.8-5.5,1.7-9.1c-2-3.5,0.7-9,0.7-9c-0.2,1.5,2.2,6.5,3.2,7.7c1.2,1.4,3.4,3.6,3.5,7
		c0.3,6.5-2.5,8.7-1.7,12.3c0,0,0.7-2.2,1.7-3.5c0.4-0.5,0.8-0.9,1.1-1.4c0.8-1.4,1.4-3.8,1.4-3.8s1.3,5.4-0.6,9.8
		c-0.9,2-0.8,4.1,0.5,6c1.5,2.1-0.9,7.4-0.9,7.4s-1.2-1-1.3-2.4c-0.1-1.2-0.8-0.6-1-0.5c-0.5,0.3-0.8,0.8,0,2.6c1.4,3-2,4-2.3,4.6
		c0,0,5.1,0.4,7.1-2.1c0.2-0.3,0.4-0.6,0.5-0.9C91.4,578.5,91.3,579.4,90.9,580.4z M91.3,563.6c0.2,0.7-0.1,1.7-0.4,2.3
		c-0.2,0.5-0.5,0.8-0.5,0.8c-1-2.3-0.3-4.2,0.5-5.3c0.5-0.7,1-1.1,1-1.1S90.9,562.4,91.3,563.6z"/>
	<polygon id="XMLID_8496_" class="st2" points="46.9,516.4 45.2,511.5 45.1,511.4 43.4,516.4 45.2,516.4 	"/>
	<path id="XMLID_8493_" class="st2" d="M57.6,523.5l-12.4-21.2l0,0l-12.6,21.3h12.7H57.6z M42.5,518.5l-1,2.8h-2.7l5-12.7h1.4h1.5
		l5,12.7h-2.8l-1.1-2.8h-2.6H42.5z"/>
</g>
<g id="XMLID_8473_">
	<path id="XMLID_8489_" class="st3" d="M191.5,523.5c0.5,0.1,1.1,0.1,1.6,0.1c5.4,0,9.7-4.3,9.7-9.7c0-5.4-4.4-9.7-9.7-9.7
		c-0.5,0-1.1,0-1.6,0.1c-4.6,0.8-8.1,4.8-8.1,9.6C183.4,518.7,186.9,522.7,191.5,523.5z M191.5,507.4c0.5-0.1,1-0.2,1.5-0.2
		c2,0,2.4,0.2,3.5,0.5l-0.2,2.4c-0.9-0.3-1.5-0.6-2.8-0.6c-0.7,0-1.3,0.1-1.9,0.4c-1.3,0.6-2.2,1.8-2.2,3.6c0,2.1,0.9,3.5,2.2,4.2
		c0.6,0.3,1.3,0.5,2,0.5c1,0,1.9-0.2,2.8-0.6l0.2,2.4c-1,0.4-2.1,0.5-3.1,0.5c-0.6,0-1.3,0-1.9-0.2c-2.6-0.5-5-2.2-5-6.8
		C186.5,509.8,189.1,507.9,191.5,507.4z"/>
	<polygon id="XMLID_8488_" class="st3" points="228.6,574.5 227.6,575.8 231.3,578.9 233.9,581 235,579.7 231.3,576.7 	"/>
	<path id="XMLID_8475_" class="st3" d="M243.3,526h-7.2h-4.8h-5.1h-3.3h-3.3h-6.4h-1.9h-22.4c-3,0-5.4,2.4-5.4,5.4v47.5l0,0
		c4.6,0,7.1-3.5,8.1-6.4c1.5-4.3,0.8-9.5,0.6-14c-0.2-4.9,0.2-11.8,5.2-13.9c2.4-1,5.5-0.3,7.5,1.9l-2.3,2.8
		c-2.9-2.2-4.5-1.3-5.3,0.1c-2.2,3.4-1.5,5.2-1.5,18.7c0,2.1,0,3.7-0.8,5.7c-1.2,3.3-4.3,8.7-11.6,8.7l0,0v3.5c0,3,2.4,5.4,5.4,5.4
		h22.4h1.9h6.4h3.3h3.3h5.1h4.8h7.2c3,0,5.4-2.4,5.4-5.4v-54.4C248.7,528.4,246.3,526,243.3,526z M222.9,533.1c0.4-1,0.8-2,0.7-2.9
		c0,0,1.9,1.9,2.6,4.7c0.1,0.3,0.1,0.7,0.2,1c0.1,0.8,0,1.6-0.2,2.2c-0.5,1.9-1.6,3-1.6,3c-0.8-1-1.3-1.9-1.6-2.7
		C222,536.2,222.4,534.6,222.9,533.1z M227.6,558.7l-1.1,1.3l-0.3-0.2l-3.3-2.7l-3.3-2.7l-1.3-1.1l1.1-1.3l0.2,0.2l3.3,2.7l3.3,2.7
		L227.6,558.7z M204.5,548.2c2.3-2.8,4.6-3.9,6.8-4.1c0.7-0.1,1.3,0,1.9,0c2.7,0.4,5,2,6.4,3.2c0.8,0.7,1.3,1.3,1.3,1.3l-1.3,1.6
		l-6.4,7.7l-1.9,2.3l-3.2,3.9C208,564.2,196.6,557.8,204.5,548.2z M211,562.1l0.3-0.4l0.8-0.9l1.2,1l6.4,5.2l0.7,0.5l-0.7,0.8
		l-0.4,0.5l-6-4.9l-1.9-1.6L211,562.1z M214,572c-1.2,2.1-0.2,6.6-0.3,6.5c-0.2-0.2-0.3-0.3-0.5-0.5c-1.4-1.8-0.7-3.9,0-5.1
		C213.7,572,214.2,571.5,214,572z M231.3,587.4c-1.2-0.2-3.2-0.6-5.1-0.4c-1.2,0.1-2.4,0.4-3.2,1.1l-0.1,0.1c-1,0.7-2.2,0.8-3.3,0.4
		c-2.2-0.7-4.3-3-4.1-5.5c0,0,1.4,0.7,3.2,1c0,0-6.2-4.6-1.4-11.8c0.1-0.2,0.7,3.5,2.3,5.9c0.7,1,1.5,1.7,2.5,1.9
		c0.3,0,0.5,0.1,0.8,0.2c1.9,0.4,2.8,1,3.3,1.7c0.4,0.6,0.5,1.2,0.6,1.9c0,0,2.5-0.6,4.5,1.9c0.4,0.5,0.8,1.1,1.1,1.9
		C232.4,587.7,232,587.6,231.3,587.4z M236.1,584.6c-0.3,0-0.7,0-1,0c-1.3,0-2.6-0.2-3.8-0.7c-2.1-0.8-3.8-2.1-5.1-3.8
		c-1.3-1.8-2.1-4.1-2.1-6.5c0-2.4,0.8-4.7,2.1-6.5c1.3-1.7,3-3.1,5.1-3.8c1.2-0.4,2.5-0.7,3.8-0.7c0.3,0,0.7,0,1,0
		c5.6,0.5,10,5.2,10,10.9C246.1,579.4,241.7,584.1,236.1,584.6z M245.9,569.1c-2.2-6.9-9.1-7.3-9.8-7.3h-0.1c0,0,0.2-1-2.4-3
		c-1.1-0.9-1.9-1.7-2.3-2.6c-1.3-2.4-0.7-4.8-0.4-6.4c0.5-2.3,0.8-6.4-0.9-6.8c-2.3-0.6-1,4.4-1,4.4c-4.2-2.4-1.4-6.2-1.4-6.2
		c2.4-4,0.2-8.5-1.4-11c-0.8-1.2-1.5-2-1.3-2c0.4,0.1,0.8,0.3,1.3,0.6c1.6,0.7,3.7,1.9,5.1,3.3c0.3,0.3,0.6,0.6,0.8,0.9
		c1.7,2.3,0.8,7.9,0.8,7.9c-0.3,6.8,3,11.2,3,11.2c0-0.4,0.1-0.8,0.2-1.1c0.6-1.5,2.1-2.3,2.1-2.3c-0.9,5.9,1.8,8.8,1.8,8.8
		s0.2-3-0.1-5c-0.3-2,2.9-7.4,2.9-7.4c-0.7,4.4,0.6,11,2.1,13.6c1.3,2.2,0.9,7.7,0.9,7.7l1.5-1.8
		C247.9,566.5,245.9,569.1,245.9,569.1z"/>
	<polygon id="XMLID_8474_" class="st3" points="236.1,565.8 235,567 236.1,568 241.3,572.2 242.4,571 236.1,565.8 	"/>
</g>
<g id="XMLID_8456_">
	<path id="XMLID_8472_" class="st1" d="M161.3,576.4c0.1,0,0.1,0,0.2-0.1C160.6,576.4,160.2,576.5,161.3,576.4z"/>
	<path id="XMLID_8462_" class="st1" d="M167.6,526.2h-14.3h-4.8h-3.3h-2.6h-0.4h-0.4H135h-21.8c-3,0-5.4,2.4-5.4,5.4v54.4
		c0,3,2.4,5.4,5.4,5.4H135h6.8h0.4h0.4h2.6h3.3h4.8h14.3c3,0,5.4-2.4,5.4-5.4v-54.4C173,528.6,170.6,526.2,167.6,526.2z
		 M148.6,533.1c0.2-1.8,0.9-4.3,3-5.5c0,0-1,3.6,1.7,6.5c0.5,0.5,1,1,1.7,1.4c3.2,2,1.1,7.3,0.2,10c-0.9,2.7,0,3.3,1.4,2.6
		c0,0,3-2.6,4.1-6.5c0,0,1.7,4.3-1,9.1c-1.3-0.5-2.8-0.9-4.2-1.2c-0.7-0.1-1.4-0.2-2.1-0.2c-1.1-0.1-2.3-0.1-3.4,0
		c-0.2-0.9-0.3-2.8,0.6-5.7c1.5-4.6-1.7-7.3-2-8.8l0-0.1C148.5,534.1,148.5,533.6,148.6,533.1z M145.2,551.9
		c-0.9,0.2-1.8,0.4-2.6,0.7l-0.2,0.1l-0.3-1.5l-0.1-0.3l0.1,0l0.4-0.1c0.9-0.2,1.7-0.4,2.6-0.6c1.1-0.2,2.2-0.4,3.3-0.5
		c1.6-0.1,3.2-0.2,4.8,0c0.7,0,1.3,0.1,2,0.2c3.5,0.6,6.8,2,9.3,4.6l-1.1,1.2c-2.6-2.4-5.8-3.7-9.3-4.2c-0.3,0-0.6-0.1-0.8-0.1
		c-1.5-0.1-3.1-0.1-4.8,0C147.5,551.4,146.4,551.6,145.2,551.9z M145.5,552.3c-0.1,0.4-0.2,0.9-0.2,1.4l-0.1-0.2
		c-0.1-0.2-0.2-0.6-0.3-1l0.3-0.1L145.5,552.3z M144.4,534.1c0-0.1,0.3-0.2,0.8,0.1c1.1,0.5,3,2.2,3.3,6.8c0.1,0.8,0.1,1.7,0,2.7
		c-0.1,1-0.2,2.1-0.4,3.3c-0.2,1-0.5,1.7-0.8,2.3c-0.7,0.1-1.5,0.2-2.2,0.3l-0.7,0.1c0-1.2,0.1-2.6,0.7-3.9c0.2-0.5,0.5-1,0.8-1.5
		c0,0-0.4,0.2-0.8,0.5c-0.8,0.6-1.8,1.6-2.2,3.1c0,0-0.3-0.7-0.5-1.7c-0.1-0.7-0.1-1.4,0-2.2c0.1-0.6,0.3-1.1,0.6-1.7
		C144.4,540.2,146.1,539.1,144.4,534.1z M141.8,534.4c0.1-0.2,0.3-0.4,0.4-0.5c0.1-0.2,0.2-0.3,0.2-0.2c0.1,0.2,0.2,0.4,0.2,0.6
		c0.1,0.5,0.1,1,0,1.4c-0.1,0.4-0.3,0.9-0.4,1.4c-0.2,0.6-0.3,1.4-0.2,2.3c0,0-0.1,0-0.2-0.1c-0.3-0.1-0.9-0.6-0.9-2.1
		C140.8,536.1,141.3,535.1,141.8,534.4z M135,539.6l2.4,1.1c0,0,2.9,1.5,1.9,4.8l-1.3-0.7c0.5-2.2-1.4-3.2-1.4-3.2l-1.6-0.7
		l-4.2-1.9l-0.3-1.5L135,539.6z M110.2,573.4c-1.1-0.5-1.5-1.8-1-2.9l15.8-33.7c0.5-1.1,1.8-1.5,2.9-1l1.7,0.8l1.1,5.7l4.3,2
		l1.7,0.8c0,0,2.1,1,2.8,1.6c1.4,1.2,1.4,2.4,1.4,2.4l0.9,5.3l0.3,1.6c0,0.1,0.1,0.2,0.1,0.3c0.1,0.5,0.1,0.9,0,1.4
		c-0.1,0.4-0.2,0.8-0.4,1.2c-0.1,0.1-0.1,0.3-0.2,0.4l-6.6,14.1l-3.6,7.6c-0.5,1.1-1.8,1.5-2.9,1L110.2,573.4z M167.9,578.5
		c0.2,1.4-4.5,2.9-9.5,2c0,0-2.4-0.3-5.1,0c-0.8,0.1-1.6,0.2-2.3,0.4c-2.5,0.6-0.5,1.2,2.3,1.2c1,0,2.1,0,3.1-0.2
		c2.8-0.3,6.8,1.5,4.5,4.1c-1.4,1.6-4.9,2.4-7.6,2.3c-0.6,0-1.1-0.1-1.6-0.2c-0.8-0.2-1.9-0.4-3.2-0.5c-1.1-0.1-2.2-0.2-3.3-0.3
		c-0.9-0.1-1.8-0.1-2.6,0l-0.4,0l-0.4,0c-0.8,0.1-1.5,0.2-2,0.4c0,0-0.2,2.4-2.3,2.6c0,0-1.2,0.1-2.6,0.1c-1.5,0-3.2,0-3.6-0.4
		c-0.9-0.8-2.3-1.5-3.5-1.7c-1.2-0.2-8-2.9,3.9-5.1c0,0,1.6-0.3,3.2-0.8c1.6-0.5,3.3-1.2,3.3-1.9c0-1.1-2.3-1.2-3.3-2
		c-0.4-0.3-0.6-0.7-0.5-1.2c0.1-0.3,0.2-0.5,0.5-0.7c1.1-1,3.9-1.5,6.8-1.7l0.4,0l0.4,0c0.9-0.1,1.8-0.1,2.6-0.1h0.5
		c1.2,0,2.2-0.2,2.9-0.5c1.9-0.9,2.4-2.6,2-4.2c-0.2-0.7-1-1.2-2-1.9c-1.1-0.8-2.5-1.8-3.3-3.4c-0.7-1.4-1.1-3.2-0.7-5.8
		c0,0,0.3,0.5,0.7,0.8c0.5,0.4,1.1,0.8,1.7,0.5c0.4-0.2,1-1,1.7-2.2c1-1.8,2-4.5,2-6.5c0.9,0,1.9,0,2.8,0.1c0.3,0,0.5,0.1,0.8,0.1
		c1.3,0.2,2.6,0.5,3.9,1c-1.2,1.3-4.4,5-4.5,8.3c0,0,0.9-2.1,4.1-3.9c0,0-2,6.8,3.2,9.5c0.1,0,2.6-0.3,1.5-7.4
		c-0.2-1.1,0.2-2.4,0.7-3.6c0.1,0.1,0.3,0.2,0.4,0.4l0.2,0.2l0.2-0.2l1.5-1.5l0.2-0.2l-0.2-0.2c-0.3-0.3-0.5-0.5-0.8-0.8
		c0.9-1.2,1.7-2,1.7-2c-0.6,2.7-0.9,5.9,1.1,9.4c2.6,4.6,0.9,9.1,0.2,10.7c-0.7,1.6-2.6,4.2-5.7,4.8
		C163.4,576.2,167.6,576.1,167.9,578.5z"/>
	<path id="XMLID_8461_" class="st1" d="M116.6,512.8c0.9-0.1,1.7-0.5,1.7-1.5c0-1.1-0.8-1.4-1.7-1.5c-0.2,0-0.3,0-0.5,0H115v3.1h1.2
		C116.3,512.9,116.5,512.9,116.6,512.8z"/>
	<path id="XMLID_8458_" class="st1" d="M125.4,522.9v-17.6h-8.7h-8.7v17.6h8.7H125.4z M112.4,520.6v-12.9h4.3h0.1
		c2.8,0,4.3,1.1,4.3,3.5c0,1.7-1.4,2.5-2.2,2.7c1,0.2,2.6,1,2.6,3.2c0,2.4-2.1,3.5-4.2,3.5h-0.6H112.4z"/>
	<path id="XMLID_8457_" class="st1" d="M118.7,516.7c0-1.3-1.1-1.7-2.1-1.7c-0.2,0-0.3,0-0.5,0H115v3.6h1.2c0.2,0,0.3,0,0.5,0
		C117.8,518.4,118.7,517.9,118.7,516.7z"/>
</g>
<path id="XMLID_8300_" class="st1" d="M125.1,618.9L125.1,618.9v-6.5h0.7h0.7v5.4h3.2v0.6v0.6H125.1z M119.6,618.9v-6.5h4.6v0.6v0.6
	h-3.3v1.5h2.9v0.6v0.6h-2.9v2.8h-0.7H119.6z M114.2,618.9L114.2,618.9h-0.6h-0.6v-6.5h0.7h0.7l2.6,4.6v-4.6h0.6h0.6v6.5h-0.7h-0.7
	l-2.7-4.7V618.9z M110.4,618.9v-6.5h0.7h0.7v6.5H111H110.4z M124.9,599.9l0.9-1.3h1.4l-1.3,1.3H124.9z M124.7,607.1v-6.5h0.7h0.7
	v6.5h-0.7H124.7z M130.2,618.7v0.2h-0.1L130.2,618.7z M130.2,600.4v1.2h0c-0.6,0-1,0.2-1.3,0.6c-0.3,0.4-0.5,1-0.5,1.7
	c0,0.7,0.2,1.3,0.5,1.7c0.3,0.4,0.7,0.6,1.3,0.6h0v1.2h0c-1,0-1.7-0.3-2.3-0.9c-0.6-0.6-0.8-1.4-0.8-2.5c0-1.1,0.3-1.9,0.8-2.5
	C128.5,600.7,129.3,600.4,130.2,600.4L130.2,600.4z M119.3,607.1L119.3,607.1v-6.5h0.7h0.7v5.4h3.2v0.6v0.6H119.3z M133.2,612.4v1.5
	l0,0l-0.9,2.6h0.9v1.1H132l-0.4,1.3h-0.7h-0.6v-0.2l2.2-6.3H133.2z M133.2,602.7v2.3c-0.1,0.4-0.3,0.8-0.6,1.2l0.6,0.5v0.3l-0.5,0.6
	l-0.8-0.7c-0.5,0.3-1,0.4-1.7,0.4v-1.2c0.3,0,0.5,0,0.7-0.1l-0.7-0.6l0.7-0.7l0.7,0.6c0.2-0.4,0.3-0.8,0.3-1.4
	c0-0.7-0.2-1.3-0.5-1.7c-0.3-0.4-0.7-0.6-1.3-0.6v-1.2c1,0,1.7,0.3,2.3,0.9C132.8,601.7,133.1,602.2,133.2,602.7 M138.4,618.9
	L138.4,618.9h-0.6h-0.6v-6.5h1h1l1.2,5.2l1.2-5.2h1h1v6.5h-0.6h-0.6v-5.5h0l-1.2,5.5h-0.7h-0.7l-1.2-5.6V618.9z M140.9,607.1v-6.5
	h0.7h0.7v6.5h-0.7H140.9z M139.7,604.6c0,0.9-0.2,1.6-0.6,2c-0.4,0.4-1.1,0.6-2,0.6c-0.9,0-1.6-0.2-2-0.6c-0.4-0.4-0.6-1.1-0.6-2
	v-4.1h0.7h0.7v4.1c0,0.5,0.1,0.8,0.3,1.1c0.2,0.2,0.5,0.3,1,0.3c0.5,0,0.8-0.1,1-0.3c0.2-0.2,0.3-0.6,0.3-1.1v-4.1h0.7h0.7V604.6z
	 M133.2,605v-2.3c0.1,0.3,0.1,0.7,0.1,1.1C133.3,604.3,133.3,604.6,133.2,605 M133.2,607v-0.3l0.1,0.1L133.2,607z M133.2,617.6v-1.1
	h0.9l-0.9-2.6v-1.5h0h0.8l2.3,6.5h-0.7h-0.7l-0.4-1.3H133.2z M146.3,613.2v4.4h-0.2l-0.4,1.3H145h-0.7L146.3,613.2z M146.3,600.6
	v1.1h-0.1h-1.3v4.3h1.1c0.1,0,0.2,0,0.3,0v1.1h-0.1h-2h-0.7v-6.5h0.7H146.3z M147.3,612.4v1.5v0l-0.9,2.6h0.9v1.1h-1.1v-4.4l0.3-0.8
	H147.3z M147.3,611v0.8h-0.5L147.3,611z M147.3,605.3v1.6c-0.3,0.1-0.7,0.2-1.1,0.2v-1.1c0.4,0,0.8-0.2,1-0.5L147.3,605.3z
	 M147.3,600.7v1.5l0-0.1c-0.2-0.3-0.6-0.5-1-0.5v-1.1h0C146.7,600.6,147,600.6,147.3,600.7 M147.3,606.9v-1.6
	c0.2-0.4,0.3-0.9,0.3-1.6c0-0.6-0.1-1.1-0.3-1.5v-1.5c0.4,0.1,0.7,0.3,1,0.6c0.5,0.5,0.7,1.3,0.7,2.3c0,1.1-0.2,2-0.7,2.5
	C148.1,606.5,147.7,606.7,147.3,606.9 M147.3,611.8V611l0.3-0.5h1.4l-1.3,1.3H147.3z M147.3,617.6v-1.1h0.9l-0.9-2.6v-1.5h0h0.8
	l2.3,6.5h-0.7H149l-0.4-1.3H147.3z M152.9,614.7v3.9l-2.1-6.2h0.7h0.7L152.9,614.7z M152.9,600.4v1.2c-0.6,0-1,0.2-1.3,0.6
	c-0.3,0.4-0.5,1-0.5,1.7c0,0.7,0.2,1.3,0.5,1.7c0.3,0.4,0.7,0.6,1.3,0.6v1.2c-1,0-1.7-0.3-2.3-0.9c-0.6-0.6-0.8-1.4-0.8-2.5
	c0-1.1,0.3-1.9,0.8-2.5C151.2,600.7,151.9,600.4,152.9,600.4 M169.5,614.4L169.5,614.4c0-0.3-0.2-0.6-0.4-0.7
	c-0.2-0.2-0.6-0.3-1-0.3c-0.3,0-0.6,0.1-0.8,0.2c-0.2,0.2-0.3,0.4-0.3,0.6c0,0.2,0.1,0.3,0.3,0.5s0.6,0.2,1.3,0.4
	c0.9,0.2,1.6,0.5,1.9,0.7c0.3,0.3,0.5,0.7,0.5,1.3c0,0.6-0.2,1.1-0.7,1.5c-0.5,0.4-1.1,0.5-2,0.5c-0.8,0-1.5-0.2-1.9-0.6
	c-0.5-0.4-0.7-0.9-0.7-1.6h1.3c0,0.3,0.1,0.6,0.4,0.8c0.2,0.2,0.6,0.3,1,0.3c0.4,0,0.8-0.1,1-0.2c0.2-0.1,0.4-0.3,0.4-0.6
	c0-0.2-0.1-0.4-0.3-0.5c-0.2-0.1-0.5-0.2-1.1-0.4c-1-0.2-1.7-0.5-2.1-0.7c-0.3-0.3-0.5-0.7-0.5-1.2c0-0.6,0.2-1.1,0.7-1.5
	c0.5-0.4,1.1-0.6,1.9-0.6c0.7,0,1.3,0.2,1.8,0.6c0.5,0.4,0.7,0.9,0.8,1.6H169.5z M163.3,618.9v-6.5h0.7h0.7v6.5H164H163.3z
	 M157.4,618.9L157.4,618.9v-6.5h4.8v0.6v0.6h-3.4v1.4h3.2v0.6v0.6h-3.2v1.7h3.6v0.6v0.6H157.4z M160.7,602.5L160.7,602.5
	c0-0.3-0.2-0.6-0.4-0.7c-0.2-0.2-0.6-0.3-1-0.3c-0.3,0-0.6,0.1-0.8,0.2c-0.2,0.2-0.3,0.4-0.3,0.6c0,0.2,0.1,0.3,0.3,0.5
	c0.2,0.1,0.6,0.2,1.3,0.4c0.9,0.2,1.6,0.5,1.9,0.7c0.3,0.3,0.5,0.7,0.5,1.3c0,0.6-0.2,1.1-0.7,1.5c-0.5,0.4-1.1,0.5-2,0.5
	c-0.8,0-1.5-0.2-1.9-0.6c-0.5-0.4-0.7-0.9-0.7-1.6h1.3c0,0.3,0.1,0.6,0.4,0.8c0.2,0.2,0.6,0.3,1,0.3c0.4,0,0.8-0.1,1-0.2
	c0.2-0.1,0.4-0.3,0.4-0.6c0-0.2-0.1-0.4-0.3-0.5c-0.2-0.1-0.5-0.2-1.1-0.4c-1-0.2-1.7-0.5-2.1-0.7c-0.3-0.3-0.5-0.7-0.5-1.2
	c0-0.6,0.2-1.1,0.7-1.5c0.5-0.4,1.1-0.6,1.9-0.6c0.7,0,1.3,0.2,1.8,0.6c0.5,0.4,0.7,0.9,0.8,1.6H160.7z M152.9,607.2v-1.2
	c0.6,0,1-0.2,1.3-0.6c0.3-0.4,0.5-0.9,0.5-1.7c0-0.7-0.2-1.3-0.5-1.7c-0.3-0.4-0.7-0.6-1.3-0.6v-1.2c1,0,1.7,0.3,2.3,0.9
	c0.6,0.6,0.8,1.5,0.8,2.5c0,1-0.3,1.9-0.8,2.5C154.6,606.9,153.9,607.2,152.9,607.2 M152.9,618.6v-3.9l0.8,2.7h0l1.4-5h0.7h0.7
	l-2.2,6.5h-0.6H153L152.9,618.6z"/>
<path id="XMLID_8236_" class="st2" d="M42.3,600.4v1.2c-0.6,0-1,0.2-1.3,0.6c-0.3,0.4-0.5,1-0.5,1.7c0,0.7,0.2,1.3,0.5,1.7
	c0.3,0.4,0.7,0.6,1.3,0.6v1.2c-1,0-1.7-0.3-2.3-0.9c-0.6-0.6-0.8-1.4-0.8-2.5c0-1.1,0.3-1.9,0.8-2.5
	C40.6,600.7,41.4,600.4,42.3,600.4z M38.8,604.8L38.8,604.8c-0.1,0.8-0.4,1.4-0.9,1.8c-0.5,0.4-1.2,0.7-1.9,0.7
	c-0.9,0-1.6-0.3-2.2-0.9c-0.5-0.6-0.8-1.4-0.8-2.5c0-1.1,0.3-1.9,0.8-2.5c0.5-0.6,1.3-0.9,2.2-0.9c0.8,0,1.4,0.2,1.9,0.6
	c0.5,0.4,0.8,1,0.9,1.7h-1.4c0-0.3-0.2-0.6-0.5-0.8c-0.3-0.2-0.6-0.3-1-0.3c-0.5,0-0.9,0.2-1.2,0.6c-0.3,0.4-0.4,1-0.4,1.7
	c0,0.7,0.1,1.2,0.4,1.6c0.3,0.4,0.7,0.6,1.2,0.6c0.4,0,0.7-0.1,1-0.3c0.3-0.2,0.4-0.5,0.5-0.9H38.8z M50,614.4L50,614.4
	c0-0.3-0.2-0.6-0.4-0.7c-0.2-0.2-0.6-0.3-1-0.3c-0.3,0-0.6,0.1-0.8,0.2c-0.2,0.2-0.3,0.4-0.3,0.6c0,0.2,0.1,0.3,0.3,0.5
	c0.2,0.1,0.6,0.2,1.3,0.4c0.9,0.2,1.6,0.5,1.9,0.7c0.3,0.3,0.5,0.7,0.5,1.3c0,0.6-0.2,1.1-0.7,1.5c-0.5,0.4-1.1,0.5-2,0.5
	s-1.5-0.2-1.9-0.6c-0.5-0.4-0.7-0.9-0.7-1.6h1.3c0,0.3,0.1,0.6,0.4,0.8c0.2,0.2,0.6,0.3,1,0.3c0.4,0,0.8-0.1,1-0.2
	c0.2-0.1,0.4-0.3,0.4-0.6c0-0.2-0.1-0.4-0.3-0.5c-0.2-0.1-0.5-0.2-1.1-0.4c-1-0.2-1.7-0.5-2.1-0.7c-0.3-0.3-0.5-0.7-0.5-1.2
	c0-0.6,0.2-1.1,0.7-1.5c0.5-0.4,1.1-0.6,1.9-0.6c0.7,0,1.3,0.2,1.8,0.6c0.5,0.4,0.7,0.9,0.8,1.6H50z M47.4,607.1L47.4,607.1h-0.6
	h-0.6v-6.5h1h1l1.2,5.2l1.2-5.2h1h1v6.5h-0.6h-0.6v-5.5h0l-1.2,5.5h-0.7h-0.7l-1.2-5.6V607.1z M42.3,607.2v-1.2c0.6,0,1-0.2,1.3-0.6
	c0.3-0.4,0.5-0.9,0.5-1.7c0-0.7-0.2-1.3-0.5-1.7c-0.3-0.4-0.7-0.6-1.3-0.6v-1.2c1,0,1.7,0.3,2.3,0.9c0.6,0.6,0.8,1.5,0.8,2.5
	c0,1-0.3,1.9-0.8,2.5C44.1,606.9,43.3,607.2,42.3,607.2 M55.9,612.4v1.3c-0.3-0.2-0.6-0.3-0.9-0.3c-0.6,0-1,0.2-1.3,0.6
	c-0.3,0.4-0.5,1-0.5,1.7c0,0.7,0.2,1.3,0.5,1.7c0.3,0.4,0.7,0.6,1.3,0.6c0.4,0,0.7-0.1,0.9-0.3v1.3c-0.3,0.1-0.6,0.1-0.9,0.1
	c-1,0-1.7-0.3-2.3-0.9c-0.6-0.6-0.8-1.4-0.8-2.5c0-1.1,0.3-1.9,0.8-2.5c0.6-0.6,1.3-0.9,2.3-0.9C55.3,612.3,55.7,612.3,55.9,612.4
	 M55.9,610.5v0.8l-0.6,0.6h-0.9l0.9-1.3H55.9z M55.9,600.6v1.1h-1.3v1.4h1.3v1.1h-1.3v1.7h1.3v1.1H54h-0.7v-6.5H54H55.9z
	 M63.9,618.9v-6.5h0.7h0.7v6.5h-0.7H63.9z M58.9,618.9L58.9,618.9v-6.5h0.7h0.7v5.4h3.2v0.6v0.6H58.9z M64.8,604.6
	c0,0.9-0.2,1.6-0.6,2c-0.4,0.4-1.1,0.6-2,0.6c-0.9,0-1.6-0.2-2-0.6c-0.4-0.4-0.6-1.1-0.6-2v-4.1h0.7h0.7v4.1c0,0.5,0.1,0.8,0.3,1.1
	c0.2,0.2,0.5,0.3,1,0.3c0.5,0,0.8-0.1,1-0.3c0.2-0.2,0.3-0.6,0.3-1.1v-4.1h0.7h0.7V604.6z M55.9,607.1v-1.1h0.4
	c0.4,0,0.6-0.1,0.8-0.2c0.2-0.2,0.3-0.4,0.3-0.7c0-0.3-0.1-0.5-0.3-0.6c-0.2-0.1-0.5-0.2-0.8-0.2h-0.3v-1.1h0.3
	c0.3,0,0.6-0.1,0.8-0.2c0.2-0.1,0.3-0.3,0.3-0.6c0-0.2-0.1-0.4-0.3-0.5c-0.2-0.1-0.4-0.2-0.8-0.2h-0.2v-1.1h0.6
	c0.6,0,1.1,0.1,1.5,0.4c0.4,0.3,0.5,0.7,0.5,1.2c0,0.5-0.2,0.9-0.6,1.2c-0.1,0-0.1,0.1-0.2,0.1c0.2,0.1,0.3,0.1,0.4,0.2
	c0.4,0.3,0.6,0.7,0.6,1.3c0,0.7-0.2,1.2-0.6,1.5c-0.4,0.3-1,0.5-1.8,0.5H55.9z M55.9,611.2v-0.8h0.8L55.9,611.2z M55.9,619v-1.3
	c0.1-0.1,0.3-0.2,0.4-0.3c0.3-0.4,0.5-0.9,0.5-1.7c0-0.7-0.2-1.3-0.5-1.7c-0.1-0.1-0.2-0.3-0.4-0.3v-1.3c0.5,0.1,1,0.4,1.3,0.8
	c0.6,0.6,0.8,1.5,0.8,2.5c0,1-0.3,1.9-0.8,2.5C56.9,618.6,56.5,618.9,55.9,619 M68.9,612.4v1.1l-0.1,0h-1.3v4.3h1.1
	c0.1,0,0.2,0,0.3,0v1.1h-0.1h-2h-0.7v-6.5h0.7H68.9z M68.9,606v1.2c-0.3,0.1-0.6,0.1-0.9,0.1c-0.8,0-1.5-0.2-1.9-0.6
	c-0.5-0.4-0.7-0.9-0.7-1.6h1.3c0,0.3,0.1,0.6,0.4,0.8c0.2,0.2,0.6,0.3,1,0.3C68.4,606.1,68.7,606.1,68.9,606 M68.9,600.5v1.3
	l-0.1-0.1c-0.2-0.2-0.6-0.3-1-0.3c-0.3,0-0.6,0.1-0.8,0.2c-0.2,0.2-0.3,0.4-0.3,0.6c0,0.2,0.1,0.3,0.3,0.5c0.2,0.1,0.6,0.2,1.3,0.4
	c0.2,0,0.4,0.1,0.6,0.1v1.3c-0.2-0.1-0.5-0.2-0.9-0.2c-1-0.2-1.7-0.5-2.1-0.7c-0.3-0.3-0.5-0.7-0.5-1.2c0-0.6,0.2-1.1,0.7-1.5
	c0.5-0.4,1.1-0.6,1.9-0.6C68.4,600.4,68.7,600.4,68.9,600.5 M68.9,601.8v-1.3c0.3,0.1,0.6,0.3,0.9,0.5c0.5,0.4,0.7,0.9,0.8,1.6h-1.3
	C69.2,602.2,69.1,602,68.9,601.8 M68.9,607.2V606c0.1,0,0.1,0,0.1-0.1c0.2-0.1,0.4-0.3,0.4-0.6c0-0.2-0.1-0.4-0.3-0.5
	c-0.1,0-0.1-0.1-0.2-0.1v-1.3c0.6,0.2,1.1,0.4,1.3,0.6c0.3,0.3,0.5,0.7,0.5,1.3c0,0.6-0.2,1.1-0.7,1.5
	C69.7,606.9,69.4,607.1,68.9,607.2 M68.9,618.9v-1.1c0.4-0.1,0.8-0.2,1-0.5c0.3-0.4,0.4-0.9,0.4-1.7c0-0.7-0.1-1.2-0.4-1.5
	c-0.2-0.3-0.6-0.5-1-0.5v-1.1h0c0.9,0,1.6,0.3,2,0.8c0.5,0.5,0.7,1.3,0.7,2.3c0,1.1-0.2,2-0.7,2.5C70.5,618.6,69.8,618.9,68.9,618.9
	 M75.2,612.3v1.2c-0.6,0-1,0.2-1.3,0.6c-0.3,0.4-0.5,1-0.5,1.7c0,0.7,0.2,1.3,0.5,1.7c0.3,0.4,0.7,0.6,1.3,0.6v1.2
	c-1,0-1.7-0.3-2.3-0.9c-0.6-0.6-0.8-1.4-0.8-2.5c0-1.1,0.3-1.9,0.8-2.5C73.5,612.6,74.2,612.3,75.2,612.3 M75.2,600.6v1.2h-1v5.4
	h-0.7h-0.7v-5.4h-2v-0.6v-0.6H75.2z M82.6,614.4L82.6,614.4c0-0.3-0.2-0.6-0.4-0.7c-0.2-0.2-0.6-0.3-1-0.3c-0.3,0-0.6,0.1-0.8,0.2
	c-0.2,0.2-0.3,0.4-0.3,0.6c0,0.2,0.1,0.3,0.3,0.5c0.2,0.1,0.6,0.2,1.3,0.4c0.9,0.2,1.6,0.5,1.9,0.7c0.3,0.3,0.5,0.7,0.5,1.3
	c0,0.6-0.2,1.1-0.7,1.5c-0.5,0.4-1.1,0.5-2,0.5c-0.8,0-1.5-0.2-1.9-0.6c-0.5-0.4-0.7-0.9-0.7-1.6H80c0,0.3,0.1,0.6,0.4,0.8
	c0.2,0.2,0.6,0.3,1,0.3c0.4,0,0.8-0.1,1-0.2c0.2-0.1,0.4-0.3,0.4-0.6c0-0.2-0.1-0.4-0.3-0.5c-0.2-0.1-0.5-0.2-1.1-0.4
	c-1-0.2-1.7-0.5-2.1-0.7c-0.3-0.3-0.5-0.7-0.5-1.2c0-0.6,0.2-1.1,0.7-1.5c0.5-0.4,1.1-0.6,1.9-0.6c0.7,0,1.3,0.2,1.8,0.6
	c0.5,0.4,0.7,0.9,0.8,1.6H82.6z M95.7,602.5L95.7,602.5c0-0.3-0.2-0.6-0.4-0.7c-0.2-0.2-0.6-0.3-1-0.3c-0.3,0-0.6,0.1-0.8,0.2
	c-0.2,0.2-0.3,0.4-0.3,0.6c0,0.2,0.1,0.3,0.3,0.5c0.2,0.1,0.6,0.2,1.3,0.4c0.9,0.2,1.6,0.5,1.9,0.7c0.3,0.3,0.5,0.7,0.5,1.3
	c0,0.6-0.2,1.1-0.7,1.5c-0.5,0.4-1.1,0.5-2,0.5c-0.8,0-1.5-0.2-1.9-0.6c-0.5-0.4-0.7-0.9-0.7-1.6h1.3c0,0.3,0.1,0.6,0.4,0.8
	c0.2,0.2,0.6,0.3,1,0.3c0.4,0,0.8-0.1,1-0.2c0.2-0.1,0.4-0.3,0.4-0.6c0-0.2-0.1-0.4-0.3-0.5c-0.2-0.1-0.5-0.2-1.1-0.4
	c-1-0.2-1.7-0.5-2.1-0.7c-0.3-0.3-0.5-0.7-0.5-1.2c0-0.6,0.2-1.1,0.7-1.5c0.5-0.4,1.1-0.6,1.9-0.6c0.7,0,1.3,0.2,1.8,0.6
	s0.7,0.9,0.8,1.6H95.7z M89.9,607.1v-6.5h0.7h0.7v6.5h-0.7H89.9z M84.4,607.1L84.4,607.1v-6.5h4.8v0.6v0.6h-3.4v1.4h3.2v0.6v0.6
	h-3.2v1.7h3.6v0.6v0.6H84.4z M78.2,600.6L78.2,600.6h0.7h0.7l1.4,5h0l1.4-5h0.7h0.7l-2.2,6.5H81h-0.6L78.2,600.6z M76.6,599.9
	l0.9-1.3h1.4l-1.3,1.3H76.6z M76.4,607.1v-6.5h0.7h0.7v6.5h-0.7H76.4z M75.2,601.7v-1.2h0.9v0.6v0.6H75.2z M75.2,619.1V618
	c0.6,0,1-0.2,1.3-0.6c0.3-0.4,0.5-0.9,0.5-1.7c0-0.7-0.2-1.3-0.5-1.7c-0.3-0.4-0.7-0.6-1.3-0.6v-1.2c1,0,1.7,0.3,2.3,0.9
	c0.6,0.6,0.8,1.5,0.8,2.5c0,1-0.3,1.9-0.8,2.5C76.9,618.8,76.1,619.1,75.2,619.1"/>
<path id="XMLID_8200_" class="st4" d="M189,600.4v1.2c-0.6,0-1,0.2-1.3,0.6c-0.3,0.4-0.5,1-0.5,1.7c0,0.7,0.2,1.3,0.5,1.7
	c0.3,0.4,0.7,0.6,1.3,0.6h0v1.2c-1,0-1.7-0.3-2.3-0.9c-0.6-0.6-0.8-1.4-0.8-2.5c0-1.1,0.3-1.9,0.8-2.5
	C187.3,600.7,188.1,600.4,189,600.4 M180.1,607.1L180.1,607.1v-6.5h4.8v0.6v0.6h-3.4v1.4h3.2v0.6v0.6h-3.2v1.7h3.6v0.6v0.6H180.1z
	 M197,618.9L197,618.9v-6.5h0.7h0.7v5.4h3.2v0.6v0.6H197z M191,618.9L191,618.9v-6.5h4.8v0.6v0.6h-3.4v1.4h3.2v0.6v0.6h-3.2v1.7h3.6
	v0.6v0.6H191z M199.7,607.1v-6.5h0.7h0.7v6.5h-0.7H199.7z M198.5,604.6c0,0.9-0.2,1.6-0.6,2c-0.4,0.4-1.1,0.6-2,0.6
	c-0.9,0-1.6-0.2-2-0.6c-0.4-0.4-0.6-1.1-0.7-2v-4.1h0.7h0.7v4.1c0,0.5,0.1,0.8,0.3,1.1c0.2,0.2,0.5,0.3,1,0.3c0.5,0,0.8-0.1,1-0.3
	c0.2-0.2,0.3-0.6,0.3-1.1v-4.1h0.7h0.7V604.6z M189,607.2v-1.2c0.3,0,0.5,0,0.7-0.1l-0.7-0.6l0.7-0.7l0.7,0.6
	c0.2-0.4,0.3-0.8,0.3-1.4c0-0.7-0.2-1.3-0.5-1.7c-0.3-0.4-0.7-0.6-1.3-0.6v-1.2c1,0,1.7,0.3,2.3,0.9c0.6,0.6,0.8,1.5,0.8,2.5
	c0,0.9-0.2,1.7-0.7,2.3l0.7,0.7l-0.7,0.7l-0.8-0.7C190.2,607.1,189.7,607.2,189,607.2 M204.8,612.4v1.2h-0.9v1.4h0.9v1.1h-0.9v1.7
	h0.9v1.2h-2.2v-6.5H204.8z M204.8,611.2v0.6h-0.4L204.8,611.2z M204.8,600.6v1.1h0h-1.1v1.9h1.1h0v1.1c-0.4,0-0.8,0-1.1,0v2.3H203
	h-0.7v-6.5h0.7H204.8z M204.8,604.7v-1.1c0.4,0,0.7-0.1,0.9-0.3c0.2-0.2,0.3-0.4,0.3-0.8c0-0.3-0.1-0.5-0.3-0.7
	c-0.2-0.2-0.5-0.2-0.9-0.2v-1.1h0.2c0.7,0,1.3,0.2,1.7,0.5c0.4,0.4,0.6,0.9,0.6,1.5c0,0.7-0.2,1.2-0.6,1.6c-0.4,0.4-1,0.5-1.7,0.5
	H204.8z M204.8,611.8v-0.6l0.5-0.7h1.4l-1.3,1.3H204.8z M204.8,613.6v-1.2h2.5v0.6v0.6H204.8z M204.8,616.1V615h2.3v0.6v0.6H204.8z
	 M204.8,618.9v-1.2h2.7v0.6v0.6H204.8z M210.9,612.4v6.5h-0.2H210v-5.4h-2V613v-0.6H210.9z M210.9,600.6v1.5l0,0l-0.9,2.6h0.9v1.1
	h-1.2l-0.4,1.3h-0.7h-0.7l2.3-6.5H210.9z M210.9,605.7v-1.1h0.9l-0.9-2.6v-1.5h0h0.8l2.3,6.5h-0.7h-0.7l-0.4-1.3H210.9z
	 M210.9,618.9v-6.5h2.4v0.6v0.6h-2v5.4H210.9z M216.8,612.4v1.1h-1.3v1.7h1.3v1.1h-1.3v2.6h-0.7h-0.7v-6.5h0.7H216.8z M216.8,600.6
	v4.2l-0.7-3.3h0v5.6h-0.6h-0.6v-6.5h1H216.8z M228.8,616.7L228.8,616.7c-0.1,0.8-0.4,1.4-0.9,1.8c-0.5,0.4-1.2,0.7-1.9,0.7
	c-0.9,0-1.6-0.3-2.2-0.9c-0.5-0.6-0.8-1.4-0.8-2.5c0-1.1,0.3-1.9,0.8-2.5c0.5-0.6,1.3-0.9,2.2-0.9c0.8,0,1.4,0.2,1.9,0.6
	c0.5,0.4,0.8,1,0.9,1.7h-1.4c0-0.4-0.2-0.6-0.5-0.8c-0.3-0.2-0.6-0.3-1-0.3c-0.5,0-0.9,0.2-1.2,0.6c-0.3,0.4-0.4,1-0.4,1.7
	c0,0.7,0.1,1.2,0.4,1.6c0.3,0.4,0.7,0.6,1.2,0.6c0.4,0,0.7-0.1,1-0.3c0.3-0.2,0.4-0.5,0.5-0.9H228.8z M220.6,618.9v-6.5h0.7h0.7v6.5
	h-0.7H220.6z M222.5,607.1L222.5,607.1v-6.5h4.8v0.6v0.6h-3.4v1.4h3.2v0.6v0.6h-3.2v1.7h3.6v0.6v0.6H222.5z M216.8,604.7v-4.2h0
	l1.2,5.2l1.2-5.2h1h1v6.5h-0.6h-0.6v-5.5h0l-1.2,5.5H218h-0.7L216.8,604.7z M216.8,616.4v-1.1h0.3c0.4,0,0.6-0.1,0.8-0.2
	c0.2-0.1,0.3-0.4,0.3-0.6s-0.1-0.5-0.3-0.6c-0.2-0.1-0.4-0.2-0.8-0.2h-0.3v-1.1h0.6c0.6,0,1.1,0.2,1.5,0.5c0.4,0.3,0.6,0.8,0.6,1.3
	c0,0.6-0.2,1.1-0.6,1.4c-0.1,0.1-0.2,0.1-0.4,0.2c0.1,0,0.2,0.1,0.2,0.1c0.4,0.2,0.6,0.6,0.6,1.1l0,1.1c0,0.2,0,0.4,0.1,0.5
	c0,0.1,0.1,0.2,0.2,0.2v0.2h-1.5c0-0.1-0.1-0.2-0.1-0.4c0-0.2,0-0.5,0-0.7l0-0.6c0-0.3-0.1-0.5-0.3-0.6
	C217.5,616.4,217.3,616.4,216.8,616.4L216.8,616.4z M232.6,612.3v1.2c-0.6,0-1,0.2-1.3,0.6c-0.3,0.4-0.5,1-0.5,1.7
	c0,0.7,0.2,1.3,0.5,1.7c0.3,0.4,0.7,0.6,1.3,0.6v1.2c-1,0-1.7-0.3-2.3-0.9c-0.6-0.6-0.8-1.4-0.8-2.5c0-1.1,0.3-1.9,0.8-2.5
	C230.9,612.6,231.7,612.3,232.6,612.3 M232.6,600.6v6.5h-0.2l-2.7-4.7v4.7h-0.6h-0.6v-6.5h0.7h0.7l2.6,4.6v-4.6H232.6z M240.4,614.4
	L240.4,614.4c0-0.3-0.2-0.6-0.4-0.7c-0.2-0.2-0.6-0.3-1-0.3c-0.3,0-0.6,0.1-0.8,0.2c-0.2,0.2-0.3,0.4-0.3,0.6c0,0.2,0.1,0.3,0.3,0.5
	c0.2,0.1,0.6,0.2,1.3,0.4c0.9,0.2,1.6,0.5,1.9,0.7c0.3,0.3,0.5,0.7,0.5,1.3c0,0.6-0.2,1.1-0.7,1.5c-0.5,0.4-1.1,0.5-2,0.5
	c-0.8,0-1.5-0.2-1.9-0.6c-0.5-0.4-0.7-0.9-0.7-1.6h1.3c0,0.3,0.1,0.6,0.4,0.8c0.2,0.2,0.6,0.3,1,0.3c0.4,0,0.8-0.1,1-0.2
	c0.2-0.1,0.4-0.3,0.4-0.6c0-0.2-0.1-0.4-0.3-0.5c-0.2-0.1-0.5-0.2-1.1-0.4c-1-0.2-1.7-0.5-2.1-0.7c-0.3-0.3-0.5-0.7-0.5-1.2
	c0-0.6,0.2-1.1,0.7-1.5c0.5-0.4,1.1-0.6,1.9-0.6c0.7,0,1.3,0.2,1.8,0.6c0.5,0.4,0.7,0.9,0.8,1.6H240.4z M236.5,607.1v-5.4h-2v-0.6
	v-0.6h5.3v0.6v0.6h-2v5.4h-0.7H236.5z M232.6,607.1v-6.5h0.5h0.6v6.5h-0.7H232.6z M232.6,619.1V618c0.6,0,1-0.2,1.3-0.6
	c0.3-0.4,0.5-0.9,0.5-1.7c0-0.7-0.2-1.3-0.5-1.7c-0.3-0.4-0.7-0.6-1.3-0.6v-1.2c1,0,1.7,0.3,2.3,0.9c0.6,0.6,0.8,1.5,0.8,2.5
	c0,1-0.3,1.9-0.8,2.5C234.4,618.8,233.6,619.1,232.6,619.1 M243.5,600.4v1.2c-0.6,0-1,0.2-1.3,0.6c-0.3,0.4-0.5,1-0.5,1.7
	c0,0.7,0.2,1.3,0.5,1.7c0.3,0.4,0.7,0.6,1.3,0.6v1.2c-1,0-1.7-0.3-2.3-0.9c-0.6-0.6-0.8-1.4-0.8-2.5c0-1.1,0.3-1.9,0.8-2.5
	C241.8,600.7,242.5,600.4,243.5,600.4 M251.2,602.5L251.2,602.5c0-0.3-0.2-0.6-0.4-0.7c-0.2-0.2-0.6-0.3-1-0.3
	c-0.3,0-0.6,0.1-0.8,0.2c-0.2,0.2-0.3,0.4-0.3,0.6c0,0.2,0.1,0.3,0.3,0.5c0.2,0.1,0.6,0.2,1.3,0.4c0.9,0.2,1.6,0.5,1.9,0.7
	c0.3,0.3,0.5,0.7,0.5,1.3c0,0.6-0.2,1.1-0.7,1.5c-0.5,0.4-1.1,0.5-2,0.5c-0.8,0-1.5-0.2-1.9-0.6c-0.5-0.4-0.7-0.9-0.7-1.6h1.3
	c0,0.3,0.1,0.6,0.4,0.8c0.2,0.2,0.6,0.3,1,0.3c0.4,0,0.8-0.1,1-0.2c0.2-0.1,0.4-0.3,0.4-0.6c0-0.2-0.1-0.4-0.3-0.5
	c-0.2-0.1-0.5-0.2-1.1-0.4c-1-0.2-1.7-0.5-2.1-0.7c-0.3-0.3-0.5-0.7-0.5-1.2c0-0.6,0.2-1.1,0.7-1.5c0.5-0.4,1.1-0.6,1.9-0.6
	c0.7,0,1.3,0.2,1.8,0.6c0.5,0.4,0.7,0.9,0.8,1.6H251.2z M243.5,607.2v-1.2c0.6,0,1-0.2,1.3-0.6c0.3-0.4,0.5-0.9,0.5-1.7
	c0-0.7-0.2-1.3-0.5-1.7c-0.3-0.4-0.7-0.6-1.3-0.6v-1.2c1,0,1.7,0.3,2.3,0.9c0.6,0.6,0.8,1.5,0.8,2.5c0,1-0.3,1.9-0.8,2.5
	C245.2,606.9,244.4,607.2,243.5,607.2"/>
<polygon id="XMLID_8199_" points="270.1,499.9 274.7,508.2 284.6,509.7 277.6,516.3 279.1,525.4 270.1,521.2 261.2,525.4 
	262.7,516.2 255.6,509.7 265.5,508.2 "/>
<path id="XMLID_8196_" class="st0" d="M275,509.8c-0.9-1-2.1-1.5-3.8-1.5h0h-3.9h-1.3v12.6h1.3h3.7h0.2c1.7,0,2.9-0.6,3.8-1.7
	c0.9-1.1,1.4-2.8,1.4-4.9C276.3,512.3,275.8,510.8,275,509.8z M273,517.6c-0.4,0.6-1.1,1-1.8,1.1c-0.2,0-0.3,0-0.5,0h-2.1v-8.3h2.4
	l0.3,0c0.8,0.1,1.5,0.4,1.9,1c0.5,0.7,0.7,1.6,0.7,2.9C273.7,515.8,273.5,516.8,273,517.6z"/>
<path id="XMLID_8168_" d="M276.9,618.9L276.9,618.9v-6.5h0.7h0.7v5.4h3.2v0.6v0.6H276.9z M271.4,618.9v-6.5h4.6v0.6v0.6h-3.3v1.5
	h2.9v0.6v0.6h-2.9v2.8h-0.7H271.4z M266,618.9L266,618.9h-0.6h-0.6v-6.5h0.7h0.7l2.6,4.6v-4.6h0.6h0.6v6.5h-0.7h-0.7l-2.7-4.7V618.9
	z M262.2,618.9v-6.5h0.7h0.7v6.5h-0.7H262.2z M285,612.4v1.5v0l-0.9,2.6h0.9v1.1h-1.2l-0.4,1.3h-0.7h-0.7l2.3-6.5H285z M285,600.6
	v1.2h-0.2v1.4h0.2v1.1h-0.2v1.7h0.2v1.2h-1.6v-6.5H285z M277.1,607.1L277.1,607.1h-0.6h-0.6v-6.5h1h1l1.2,5.2l1.2-5.2h1h1v6.5h-0.6
	h-0.6v-5.5h0l-1.2,5.5H279h-0.7l-1.2-5.6V607.1z M290.2,618.9L290.2,618.9h-0.6h-0.6v-6.5h1h1l1.2,5.2l1.2-5.2h1h1v6.5h-0.6H294
	v-5.5h0l-1.2,5.5h-0.7h-0.7l-1.2-5.6V618.9z M290.9,607.1v-5.4h-2v-0.6v-0.6h5.3v0.6v0.6h-2v5.4h-0.7H290.9z M285,601.7v-1.2h3.2
	v0.6v0.6H285z M285,604.2v-1.1h3v0.6v0.6H285z M285,607.1v-1.2h3.4v0.6v0.6H285z M285,617.6v-1.1h0.9l-0.9-2.6v-1.5h0h0.8l2.3,6.5
	h-0.7h-0.7l-0.4-1.3H285z M297.6,614.5v3.9l-0.2,0.5h-0.7h-0.7L297.6,614.5z M297.6,600.6v1.4l-0.9,2.6h0.9v1.1h-1.2l-0.4,1.3h-0.7
	h-0.7l2.3-6.5H297.6z M299.1,612.4v1.5v0l-0.9,2.6h0.9v1.1h-1.2l-0.3,0.8v-3.9l0.7-2.1H299.1z M299.1,611v0.8h-0.5L299.1,611z
	 M299.1,602.5v4l-0.3-0.8h-1.2v-1.1h0.9l-0.9-2.6v-1.4h0h0.8L299.1,602.5z M321.3,614.4L321.3,614.4c0-0.3-0.2-0.6-0.4-0.7
	c-0.2-0.2-0.6-0.3-1-0.3c-0.3,0-0.6,0.1-0.8,0.2c-0.2,0.2-0.3,0.4-0.3,0.6c0,0.2,0.1,0.3,0.3,0.5c0.2,0.1,0.6,0.2,1.3,0.4
	c0.9,0.2,1.6,0.5,1.9,0.7c0.3,0.3,0.5,0.7,0.5,1.3c0,0.6-0.2,1.1-0.7,1.5c-0.5,0.4-1.1,0.5-2,0.5c-0.8,0-1.5-0.2-1.9-0.6
	c-0.5-0.4-0.7-0.9-0.7-1.6h1.3c0,0.3,0.1,0.6,0.4,0.8c0.2,0.2,0.6,0.3,1,0.3c0.4,0,0.8-0.1,1-0.2c0.2-0.1,0.4-0.3,0.4-0.6
	c0-0.2-0.1-0.4-0.3-0.5c-0.2-0.1-0.5-0.2-1.1-0.4c-1-0.2-1.7-0.5-2.1-0.8c-0.3-0.3-0.5-0.7-0.5-1.2c0-0.6,0.2-1.1,0.7-1.5
	c0.5-0.4,1.1-0.6,1.9-0.6c0.7,0,1.3,0.2,1.8,0.6c0.5,0.4,0.7,0.9,0.8,1.6H321.3z M315.1,618.9v-6.5h0.7h0.7v6.5h-0.7H315.1z
	 M309.2,618.9L309.2,618.9v-6.5h4.8v0.6v0.6h-3.4v1.4h3.2v0.6v0.6h-3.2v1.7h3.6v0.6v0.6H309.2z M302.6,612.4L302.6,612.4h0.7h0.7
	l1.4,5h0l1.4-5h0.7h0.7l-2.2,6.5h-0.6h-0.6L302.6,612.4z M307.7,602.5L307.7,602.5c0-0.3-0.2-0.6-0.4-0.7c-0.2-0.2-0.6-0.3-1-0.3
	c-0.3,0-0.6,0.1-0.8,0.2c-0.2,0.2-0.3,0.4-0.3,0.6c0,0.2,0.1,0.3,0.3,0.5c0.2,0.1,0.6,0.2,1.3,0.4c0.9,0.2,1.6,0.5,1.9,0.7
	c0.3,0.3,0.5,0.7,0.5,1.3c0,0.6-0.2,1.1-0.7,1.5c-0.5,0.4-1.1,0.5-2,0.5c-0.8,0-1.5-0.2-1.9-0.6c-0.5-0.4-0.7-0.9-0.7-1.6h1.3
	c0,0.3,0.1,0.6,0.4,0.8c0.2,0.2,0.6,0.3,1,0.3c0.4,0,0.8-0.1,1-0.2c0.2-0.1,0.4-0.3,0.4-0.6c0-0.2-0.1-0.4-0.3-0.5
	c-0.2-0.1-0.5-0.2-1.1-0.4c-1-0.2-1.7-0.5-2.1-0.7c-0.3-0.3-0.5-0.7-0.5-1.2c0-0.6,0.2-1.1,0.7-1.5c0.5-0.4,1.1-0.6,1.9-0.6
	c0.7,0,1.3,0.2,1.8,0.6c0.5,0.4,0.7,0.9,0.8,1.6H307.7z M301.5,607.1v-6.5h0.7h0.7v6.5h-0.7H301.5z M299.1,606.6v-4l1.6,4.5H300
	h-0.7L299.1,606.6z M299.1,611.8V611l0.3-0.5h1.4l-1.3,1.3H299.1z M299.1,617.6v-1.1h0.9l-0.9-2.6v-1.5h0h0.8l2.3,6.5h-0.7h-0.7
	l-0.4-1.3H299.1z"/>
<path id="XMLID_8163_" d="M324.9,532.4c0-1.7-0.7-3.2-1.8-4.3l0,0c-1.1-1.1-2.6-1.8-4.3-1.8h-26.5h-26.5c-0.9,0-1.7,0.2-2.5,0.5
	c-1.4,0.5-2.6,1.7-3.1,3.1c-0.3,0.8-0.5,1.6-0.5,2.5v53.1c0,1.7,0.7,3.2,1.8,4.3l0,0c1.1,1.1,2.6,1.8,4.3,1.8h26.5h26.5
	c0.9,0,1.7-0.2,2.5-0.5c1.4-0.6,2.6-1.7,3.1-3.1c0.3-0.8,0.5-1.6,0.5-2.5V532.4z M318.7,527.9c1.2,0,2.4,0.5,3.2,1.3h0
	c0.8,0.8,1.3,1.9,1.3,3.2v46.3l-10.3-10.3c0,0,0,0,0.1-0.1c0.9-1.4,0.9-3.1,0.4-4.3c-0.4-1.1-1.5-2-2.4-2.5c0.3,1.5,0.1,2.7-0.3,3.5
	c-0.1,0.3-0.3,0.5-0.5,0.7L294.6,550c0.7-2,1.4-3.3,1-4.2c-0.6-1.7-2.3-2.8-2.4-6c0-1.7,0.8-3.5,2.5-4.6c-1.1,0.2-2.1,0.6-3,1.3
	c-2.4,1.6-3.9,4.5-2.7,7.3c0.5,1.3,1.7,2.3,2.7,3.4c0.8,0.8,1.5,1.7,1.8,2.8l-10.5-10.5c0,0,0,0,0,0c0.8-2.3,1.5-4.1,1.3-5.5
	c-0.2-1.2-1.2-2.2-2.8-3.1c-0.6-0.4-1.4-0.7-2.2-1c1.6,2.1,1.7,4.4,1.2,5.8c-0.1,0.3-0.3,0.6-0.4,0.9l-8.5-8.5h19.7H318.7z
	 M281,559.1l1.4,1.4c-0.5,1.4-0.8,2.9-0.8,4.5c0,1.7,0.3,3.3,0.9,4.8c1.7,4.4,5.5,7.7,10.2,8.5c0.8,0.1,1.6,0.2,2.5,0.2
	c1.6,0,3.1-0.3,4.6-0.8l1.4,1.4c-1.8,0.8-3.8,1.2-5.9,1.2c-0.8,0-1.7-0.1-2.5-0.2c-4.2-0.7-7.9-3.1-10.2-6.5
	c-1.7-2.5-2.7-5.4-2.7-8.6C279.8,562.9,280.2,560.9,281,559.1z M265.7,590c-1.2,0-2.4-0.5-3.2-1.3c-0.8-0.8-1.3-1.9-1.3-3.2v-46.2
	l9.5,9.5c0,0.9,0.2,1.8,1,2.8c0.9,1.1,1.9,2.4,2.6,3.8c0.1,0.2,0.2,0.3,0.2,0.5c-0.1-0.2-0.2-0.5-0.2-0.7c-0.3-1-0.4-2.1-0.4-3.2
	l3.6,3.6c-0.6,1.1-1.1,2.2-1.5,3.4l-1.6-0.6l-1.2-0.4c-0.3,1.1-0.6,2.2-0.8,3.4c-0.2,1.2-0.3,2.3-0.3,3.5l2.3,0l0.7,0
	c0,0.1,0,0.2,0,0.2c0,2.2,0.4,4.4,1,6.4l-1.8,0.5l-1.2,0.4c0.3,1,0.7,1.9,1.2,2.9l0.2,0.4c0.5,1.1,1.1,2,1.8,3l2.4-1.8
	c1.1,1.5,2.3,2.8,3.8,4c0.3,0.3,0.7,0.5,1,0.8l-1,1.3l-0.9,1.1c0.3,0.2,0.6,0.4,0.9,0.6c0.7,0.4,1.4,0.9,2.1,1.2
	c1.1,0.5,2.1,1,3.2,1.3l0.9-2.9c1.3,0.4,2.6,0.7,4,0.9c0.8,0.1,1.6,0.2,2.5,0.2c0.1,0,0.1,0,0.2,0l-0.1,3c1.1,0,2.3-0.1,3.5-0.3
	c1.2-0.2,2.3-0.5,3.4-0.8l-1-2.9c1.2-0.4,2.4-0.9,3.5-1.5l7.3,7.3h-19.7H265.7z"/>
<g id="XMLID_8141_">
	<path id="XMLID_8160_" class="st0" d="M281.9,546.2c0.2-0.1,0.4-0.3,0.6-0.5c0.2-0.2,0.3-0.3,0.4-0.5c0.3-0.5,0.4-1,0.4-1.6
		c0-0.5-0.2-0.9-0.4-1.3c-0.2-0.3-0.4-0.6-0.7-0.9l-0.3-0.3l-2.5-2.5l-0.2-0.2l-0.5-0.5l-6.8,6.8l-0.2,0.2l0.2,0.2l0.5,0.5l0.7,0.7
		l2.8-2.8l1.5,1.5c0.4,0.4,0.7,0.8,0.7,1.1c0,0.3-0.1,0.6-0.4,1l-0.6,0.7c-0.3,0.3-0.5,0.6-0.7,0.8c-0.2,0.3-0.3,0.5-0.4,0.6
		l1.6,1.6l0.2-0.2c-0.1-0.2-0.1-0.3,0-0.5c0.1-0.1,0.2-0.3,0.4-0.6l1-1.1l0.1-0.1c0.6-0.6,0.7-1.2,0.6-1.8c0-0.1-0.1-0.2-0.1-0.4
		c0.2,0.1,0.4,0.2,0.6,0.2C280.9,546.6,281.4,546.5,281.9,546.2z M279.2,544.6c-0.1-0.1-0.3-0.2-0.4-0.3l-1.7-1.7l1.9-1.9l0.2,0.2
		l1.5,1.5c0.4,0.4,0.6,0.7,0.6,1c0,0.3-0.1,0.7-0.4,1c-0.3,0.3-0.6,0.5-1,0.4C279.6,544.8,279.4,544.7,279.2,544.6z"/>
	<path id="XMLID_8157_" class="st0" d="M272.5,539.7c0.8,0,1.6-0.3,2.4-1.1c0.7-0.7,1.1-1.5,1-2.3c0-0.8-0.5-1.6-1.3-2.4l-2.2-2.2
		l-0.6-0.6l-0.2-0.2l-7.1,7.1l0.7,0.7l0.7,0.7l2.5-2.5c0.4,0.4,0.9,0.9,1.5,1.5c0.6,0.6,1.2,1,1.8,1.1
		C272.1,539.6,272.3,539.7,272.5,539.7z M271,537l-1.2-1.2l2-2l0.1-0.1l1.2,1.2c0.4,0.4,0.6,0.8,0.7,1.2c0,0.4-0.1,0.7-0.5,1.1
		c-0.4,0.4-0.7,0.5-1.1,0.5c-0.1,0-0.3,0-0.4-0.1C271.6,537.4,271.3,537.2,271,537z"/>
	<polygon id="XMLID_8156_" class="st0" points="305.1,566.9 306.4,565.6 305.6,564.9 305.1,564.4 304.9,564.2 301.6,567.5 
		298.1,571 297.8,571.2 298.1,571.5 298.6,572 299.3,572.7 301.6,570.4 	"/>
	<path id="XMLID_8153_" class="st0" d="M319,577.9c-1-1-2.2-1.5-3.5-1.5c-1.1,0.1-2.2,0.5-3.2,1.4c-0.2,0.1-0.3,0.3-0.5,0.4
		c-0.2,0.2-0.4,0.4-0.5,0.6c-0.5,0.6-0.8,1.2-1,1.8c-0.1,0.4-0.2,0.8-0.2,1.3c0,0.5,0.1,1.1,0.2,1.6c0.2,0.6,0.5,1.1,1,1.7l0.2,0.2
		c0.2,0.2,0.5,0.5,0.7,0.6c0.8,0.6,1.8,0.9,2.7,0.8c1.3-0.1,2.5-0.6,3.6-1.8c1.2-1.2,1.8-2.4,1.8-3.7
		C320.5,580.1,320.1,578.9,319,577.9z M317.2,583.6c-0.8,0.8-1.5,1.2-2.3,1.3c-0.8,0.1-1.5-0.2-2.1-0.8c-0.2-0.2-0.4-0.4-0.5-0.7
		c-0.2-0.4-0.3-0.9-0.3-1.4c0-0.3,0.1-0.6,0.3-0.9c0.2-0.5,0.6-0.9,1-1.4c0.8-0.8,1.6-1.2,2.3-1.3c0.8-0.1,1.5,0.1,2.1,0.7
		c0.6,0.6,0.9,1.3,0.7,2.1C318.4,582,318,582.8,317.2,583.6z"/>
	<path id="XMLID_8150_" class="st0" d="M310.8,576.8c0.2-0.2,0.3-0.4,0.5-0.5c0.4-0.5,0.8-1,1-1.6c0.2-0.4,0.3-0.8,0.3-1.2
		c0-0.5-0.1-1-0.3-1.5c-0.2-0.5-0.5-1-1-1.4l-0.1-0.1l-0.9-0.9l-1.4-1.4l-0.7-0.7l-3.1,3.1l-3.5,3.5l-0.5,0.5l0.5,0.5l0.3,0.3
		l2.2,2.2c0.3,0.4,0.7,0.6,1.1,0.8c0.7,0.4,1.4,0.6,2.2,0.5c1-0.1,2-0.6,3-1.5C310.5,577.2,310.7,577,310.8,576.8z M309.3,575.4
		c-0.8,0.8-1.6,1.3-2.3,1.4c-0.7,0.1-1.3-0.1-1.9-0.7l0,0l-1.2-1.2l1.3-1.3l3.4-3.4l1.4,1.4c0.2,0.2,0.4,0.4,0.5,0.6
		c0.2,0.4,0.3,0.8,0.2,1.2c0,0.2-0.1,0.5-0.2,0.7C310.1,574.5,309.8,574.9,309.3,575.4z"/>
	<path id="XMLID_8146_" class="st0" d="M298.5,567.4c0.6-0.6,0.8-1.3,0.7-2c0-0.2-0.1-0.4-0.2-0.7c0.1,0,0.3,0.1,0.4,0.1
		c0.7,0.1,1.4-0.1,2-0.7c0.1-0.1,0.2-0.2,0.3-0.3c0.4-0.5,0.5-1,0.5-1.6c0-0.4-0.2-0.8-0.5-1.2c-0.2-0.3-0.4-0.6-0.7-0.8l-2.7-2.7
		l-0.1-0.1l-0.6-0.6l-0.7,0.7l-1.5,1.5l-4.5,4.5l-0.3,0.3l0.3,0.3l0.4,0.4l2.5,2.5c0.5,0.5,1.1,0.9,1.6,1.2c0.3,0.1,0.6,0.2,0.9,0.2
		c0.2,0,0.4,0,0.6,0c0.5-0.1,0.9-0.3,1.3-0.6C298.2,567.7,298.3,567.6,298.5,567.4z M297,565.9c-0.1,0.1-0.2,0.2-0.3,0.2
		c-0.3,0.2-0.5,0.3-0.8,0.3c-0.2,0-0.5-0.1-0.7-0.3c-0.1-0.1-0.2-0.2-0.4-0.3L293,564l1.9-1.9l0.3,0.3l1.5,1.5l0.1,0.1
		c0.4,0.4,0.6,0.7,0.6,1.1C297.4,565.3,297.3,565.7,297,565.9z M297.8,562.6l-1.1-1.1l-0.6-0.6l0.6-0.6l0.9-0.9l0.4,0.4l1.2,1.2
		c0.4,0.4,0.6,0.7,0.7,1.1c0.1,0.3,0,0.6-0.3,0.8c-0.3,0.3-0.6,0.4-0.9,0.4c-0.2,0-0.5-0.2-0.8-0.4
		C298,562.8,297.9,562.7,297.8,562.6z"/>
	<path id="XMLID_8143_" class="st0" d="M289,555.6L289,555.6c0.8-0.8,1.4-1.6,1.6-2.4c0.2-0.4,0.2-0.9,0.3-1.3
		c0-0.6-0.1-1.2-0.3-1.7c-0.2-0.6-0.6-1.2-1.2-1.8c-0.1-0.1-0.3-0.3-0.4-0.4c-0.3-0.3-0.6-0.5-1-0.6c-0.7-0.3-1.3-0.5-2.1-0.4
		c-1.1,0.1-2.1,0.5-3.1,1.3c-0.2,0.2-0.4,0.3-0.6,0.5c-0.1,0.1-0.3,0.3-0.4,0.4c-0.9,1-1.3,2.1-1.4,3.2c0,1.2,0.4,2.4,1.4,3.4
		l0.1,0.1c0.3,0.3,0.6,0.5,0.9,0.7c0.8,0.5,1.7,0.8,2.6,0.8c0.9,0,1.7-0.3,2.5-0.9C288.4,556.2,288.7,555.9,289,555.6z M287.7,554
		c-0.8,0.8-1.5,1.2-2.3,1.3c-0.8,0.1-1.5-0.2-2.1-0.8c-0.1-0.1-0.3-0.3-0.4-0.4c-0.3-0.5-0.5-1-0.4-1.6c0-0.4,0.2-0.8,0.4-1.2
		c0.2-0.4,0.5-0.8,0.9-1.1c0.8-0.8,1.6-1.2,2.3-1.3c0.7-0.1,1.3,0.1,1.9,0.6l0.2,0.2c0.6,0.6,0.9,1.3,0.8,2.1
		c-0.1,0.6-0.4,1.3-0.9,1.9C287.9,553.8,287.8,553.9,287.7,554z"/>
	<polygon id="XMLID_8142_" class="st0" points="295.2,555.4 295.7,554.9 295.2,554.5 294.9,554.2 294.2,553.5 290.7,557 289,558.6 
		288.1,559.6 287.1,560.5 287.9,561.3 288.1,561.5 288.6,562 289,561.6 290.7,559.9 	"/>
</g>
<path id="XMLID_8140_" d="M194.8,526h-5.9c-3,0-5.4,2.4-5.4,5.4v5.9l54,54h5.9c3,0,5.4-2.4,5.4-5.4V580L194.8,526z"/>
<g id="XMLID_8118_">
	<path id="XMLID_8137_" class="st0" d="M206,546.1c0.2-0.1,0.4-0.3,0.6-0.5c0.2-0.2,0.3-0.3,0.4-0.5c0.3-0.5,0.4-1,0.4-1.6
		c0-0.5-0.2-0.9-0.4-1.3c-0.2-0.3-0.4-0.6-0.7-0.9l-0.3-0.3l-2.5-2.5l-0.2-0.2l-0.5-0.5l-6.8,6.8l-0.2,0.2l0.2,0.2l0.5,0.5l0.7,0.7
		l2.8-2.8l1.5,1.5c0.4,0.4,0.7,0.8,0.7,1.1c0,0.3-0.1,0.6-0.4,1l-0.6,0.7c-0.3,0.3-0.5,0.6-0.7,0.8c-0.2,0.3-0.3,0.5-0.4,0.6
		l1.6,1.6l0.2-0.2c-0.1-0.2-0.1-0.3,0-0.5c0.1-0.1,0.2-0.3,0.4-0.6l1-1.1l0.1-0.1c0.6-0.6,0.7-1.2,0.6-1.8c0-0.1-0.1-0.2-0.1-0.4
		c0.2,0.1,0.4,0.2,0.6,0.2C205,546.6,205.5,546.5,206,546.1z M203.2,544.5c-0.1-0.1-0.3-0.2-0.4-0.3l-1.7-1.7l1.9-1.9l0.2,0.2
		l1.5,1.5c0.4,0.4,0.6,0.7,0.6,1c0,0.3-0.1,0.7-0.4,1c-0.3,0.3-0.6,0.5-1,0.4C203.7,544.8,203.5,544.7,203.2,544.5z"/>
	<path id="XMLID_8134_" class="st0" d="M196.6,539.6c0.8,0,1.6-0.3,2.4-1.1c0.7-0.7,1.1-1.5,1-2.3c0-0.8-0.5-1.6-1.3-2.4l-2.2-2.2
		l-0.6-0.6l-0.2-0.2l-7.1,7.1l0.7,0.7l0.7,0.7l2.5-2.5c0.4,0.4,0.9,0.9,1.5,1.5c0.6,0.6,1.2,1,1.8,1.1
		C196.1,539.6,196.4,539.6,196.6,539.6z M195.1,536.9l-1.2-1.2l2-2l0.1-0.1l1.2,1.2c0.4,0.4,0.6,0.8,0.7,1.2c0,0.4-0.1,0.7-0.4,1.1
		c-0.4,0.4-0.7,0.5-1.1,0.5c-0.1,0-0.3,0-0.4-0.1C195.6,537.4,195.4,537.2,195.1,536.9z"/>
	<path id="XMLID_8131_" class="st0" d="M243.1,577.8c-1-1-2.2-1.5-3.5-1.5c-1.1,0.1-2.2,0.5-3.2,1.4c-0.2,0.1-0.3,0.3-0.5,0.4
		c-0.2,0.2-0.4,0.4-0.5,0.6c-0.5,0.6-0.8,1.2-1,1.8c-0.1,0.4-0.2,0.8-0.2,1.3c0,0.5,0.1,1.1,0.2,1.6c0.2,0.6,0.5,1.1,1,1.7l0.2,0.2
		c0.2,0.2,0.5,0.5,0.7,0.6c0.8,0.6,1.8,0.9,2.7,0.8c1.3-0.1,2.5-0.6,3.6-1.8c1.2-1.2,1.8-2.4,1.8-3.7
		C244.6,580.1,244.1,578.9,243.1,577.8z M241.3,583.5c-0.8,0.8-1.5,1.2-2.3,1.3c-0.8,0.1-1.5-0.2-2.1-0.8c-0.2-0.2-0.4-0.4-0.5-0.7
		c-0.2-0.4-0.3-0.9-0.3-1.4c0-0.3,0.1-0.6,0.3-0.9c0.2-0.5,0.6-0.9,1-1.4c0.8-0.8,1.6-1.2,2.3-1.3c0.8-0.1,1.5,0.1,2.1,0.7
		c0.6,0.6,0.9,1.3,0.8,2.1C242.5,582,242,582.7,241.3,583.5z"/>
	<path id="XMLID_8128_" class="st0" d="M213.1,555.6L213.1,555.6c0.8-0.8,1.4-1.6,1.6-2.4c0.2-0.4,0.2-0.9,0.3-1.3
		c0-0.6-0.1-1.2-0.3-1.7c-0.2-0.6-0.6-1.2-1.2-1.8c-0.1-0.1-0.3-0.3-0.4-0.4c-0.3-0.3-0.6-0.5-1-0.6c-0.7-0.3-1.3-0.5-2.1-0.4
		c-1.1,0.1-2.1,0.5-3.1,1.3c-0.2,0.2-0.4,0.3-0.6,0.5c-0.1,0.1-0.3,0.3-0.4,0.4c-0.9,1-1.3,2.1-1.4,3.2c0,1.2,0.4,2.4,1.4,3.4
		l0.1,0.1c0.3,0.3,0.6,0.5,0.9,0.7c0.8,0.5,1.7,0.8,2.6,0.8c0.9,0,1.7-0.3,2.6-0.9C212.5,556.2,212.8,555.9,213.1,555.6z M211.7,554
		c-0.8,0.8-1.5,1.2-2.3,1.3c-0.8,0.1-1.5-0.2-2.1-0.8c-0.1-0.1-0.3-0.3-0.4-0.4c-0.3-0.5-0.5-1-0.4-1.6c0-0.4,0.2-0.8,0.4-1.2
		s0.5-0.8,0.9-1.1c0.8-0.8,1.6-1.2,2.3-1.3c0.7-0.1,1.3,0.1,1.9,0.6l0.2,0.2c0.6,0.6,0.9,1.3,0.8,2.1c-0.1,0.6-0.4,1.3-0.9,1.9
		C212,553.7,211.9,553.9,211.7,554z"/>
	<path id="XMLID_8125_" class="st0" d="M234.9,576.8c0.2-0.2,0.3-0.4,0.5-0.5c0.4-0.5,0.8-1,1-1.6c0.2-0.4,0.3-0.8,0.3-1.2
		c0-0.5-0.1-1-0.3-1.5c-0.2-0.5-0.5-1-1-1.4l-0.1-0.1l-0.9-0.9l-1.4-1.4l-0.7-0.7l-3.1,3.1l-3.5,3.5l-0.5,0.5l0.5,0.5l0.3,0.3
		l2.2,2.2c0.4,0.4,0.7,0.6,1.1,0.8c0.7,0.4,1.4,0.6,2.2,0.5c1-0.1,2-0.6,3-1.5C234.6,577.1,234.7,576.9,234.9,576.8z M233.4,575.4
		c-0.8,0.8-1.6,1.3-2.3,1.4c-0.7,0.1-1.3-0.1-1.9-0.7l0,0l-1.2-1.2l1.3-1.3l3.4-3.4l1.4,1.4c0.2,0.2,0.4,0.4,0.5,0.6
		c0.2,0.4,0.3,0.8,0.2,1.2c0,0.2-0.1,0.5-0.2,0.7C234.2,574.4,233.8,574.9,233.4,575.4z"/>
	<polygon id="XMLID_8124_" class="st0" points="229.2,566.9 230.5,565.6 229.7,564.9 229.2,564.3 229,564.1 225.7,567.4 222.1,571 
		221.9,571.2 222.1,571.4 222.6,571.9 223.4,572.7 225.7,570.4 	"/>
	<polygon id="XMLID_8123_" class="st0" points="219.3,555.3 219.7,554.9 219.3,554.4 219,554.1 218.3,553.4 214.8,556.9 
		213.1,558.6 212.1,559.5 211.2,560.5 211.9,561.2 212.1,561.4 212.7,562 213.1,561.5 214.8,559.9 	"/>
	<path id="XMLID_8119_" class="st0" d="M222.5,567.4c0.6-0.6,0.8-1.3,0.7-2c0-0.2-0.1-0.4-0.2-0.7c0.1,0,0.3,0.1,0.4,0.1
		c0.7,0.1,1.4-0.1,2-0.7c0.1-0.1,0.2-0.2,0.3-0.3c0.4-0.5,0.5-1,0.5-1.6c0-0.4-0.2-0.8-0.5-1.2c-0.2-0.3-0.4-0.6-0.7-0.8l-2.7-2.7
		l-0.1-0.1l-0.6-0.6l-0.7,0.7l-1.5,1.5l-4.5,4.5l-0.3,0.3l0.3,0.3l0.4,0.4l2.5,2.5c0.5,0.5,1.1,0.9,1.6,1.2c0.3,0.1,0.6,0.2,0.9,0.2
		c0.2,0,0.4,0,0.6,0c0.5-0.1,0.9-0.3,1.3-0.6C222.3,567.6,222.4,567.5,222.5,567.4z M221.1,565.9c-0.1,0.1-0.2,0.2-0.3,0.2
		c-0.3,0.2-0.5,0.3-0.8,0.3c-0.2,0-0.5-0.1-0.7-0.3c-0.1-0.1-0.2-0.2-0.4-0.3l-1.8-1.8l1.9-1.9l0.3,0.3l1.5,1.5l0.1,0.1
		c0.4,0.4,0.6,0.7,0.6,1.1C221.5,565.3,221.4,565.6,221.1,565.9z M221.9,562.6l-1.1-1.1l-0.6-0.6l0.6-0.6l0.9-0.9l0.4,0.4l1.2,1.2
		c0.4,0.4,0.6,0.7,0.7,1.1c0.1,0.3,0,0.6-0.3,0.8c-0.3,0.3-0.6,0.4-0.9,0.4c-0.2,0-0.5-0.2-0.8-0.4
		C222.1,562.7,222,562.7,221.9,562.6z"/>
</g>
<path id="XMLID_8091_" d="M351.9,618.9L351.9,618.9v-6.5h0.7h0.7v5.4h3.2v0.6v0.6H351.9z M346.4,618.9v-6.5h4.6v0.6v0.6h-3.3v1.5
	h2.9v0.6v0.6h-2.9v2.8h-0.7H346.4z M341,618.9L341,618.9h-0.6h-0.6v-6.5h0.7h0.7l2.6,4.6v-4.6h0.6h0.6v6.5h-0.7h-0.7l-2.7-4.7V618.9
	z M337.2,618.9v-6.5h0.7h0.7v6.5h-0.7H337.2z M360,612.4v1.5l0,0l-0.9,2.6h0.9v1.1h-1.2l-0.4,1.3h-0.7H357l2.3-6.5H360z M360,603.4
	v3.7h-0.6h-0.7L360,603.4z M355,607.2c-0.9,0-1.7-0.3-2.3-0.9c-0.6-0.6-0.8-1.4-0.8-2.5c0-1.1,0.3-1.9,0.9-2.5
	c0.6-0.6,1.4-0.9,2.4-0.9c0.8,0,1.4,0.2,2,0.6c0.5,0.4,0.8,0.9,0.9,1.6h-1.4c0-0.3-0.2-0.5-0.5-0.7c-0.3-0.2-0.6-0.3-0.9-0.3
	c-0.6,0-1.1,0.2-1.4,0.6c-0.3,0.4-0.5,1-0.5,1.7c0,0.7,0.2,1.3,0.5,1.7c0.3,0.4,0.8,0.6,1.4,0.6h0c0.5,0,0.9-0.2,1.2-0.6
	c0.2-0.2,0.3-0.5,0.4-0.8v0h-1.5v-1.1h2.7v3.5h-0.9l-0.1-0.8l-0.1,0.1C356.4,606.9,355.8,607.2,355,607.2L355,607.2z M361.8,615.1
	v3.8h-0.1l-0.4-1.3H360v-1.1h0.9l-0.9-2.6v-1.5h0h0.8L361.8,615.1z M361.8,600.6v1.5v0l-0.9,2.6h0.9v1.1h-1.2l-0.4,1.3H360v-3.7
	l1-2.8H361.8z M365.2,618.9L365.2,618.9h-0.6H364v-6.5h1h1l1.2,5.2l1.2-5.2h1h1v6.5h-0.6H369v-5.5l-1.2,5.5h-0.7h-0.7l-1.2-5.6h0
	V618.9z M369.3,602.5L369.3,602.5c0-0.3-0.2-0.6-0.4-0.7c-0.2-0.2-0.6-0.3-1-0.3c-0.3,0-0.6,0.1-0.8,0.2c-0.2,0.2-0.3,0.4-0.3,0.6
	c0,0.2,0.1,0.3,0.3,0.5c0.2,0.1,0.6,0.2,1.3,0.4c0.9,0.2,1.6,0.5,1.9,0.7c0.3,0.3,0.5,0.7,0.5,1.3c0,0.6-0.2,1.1-0.7,1.5
	c-0.5,0.4-1.1,0.5-2,0.5c-0.8,0-1.5-0.2-1.9-0.6c-0.5-0.4-0.7-0.9-0.7-1.6h1.3c0,0.3,0.1,0.6,0.4,0.8c0.2,0.2,0.6,0.3,1,0.3
	c0.4,0,0.8-0.1,1-0.2c0.2-0.1,0.4-0.3,0.4-0.6c0-0.2-0.1-0.4-0.3-0.5c-0.2-0.1-0.5-0.2-1.1-0.4c-1-0.2-1.7-0.5-2.1-0.7
	c-0.3-0.3-0.5-0.7-0.5-1.2c0-0.6,0.2-1.1,0.7-1.5c0.5-0.4,1.1-0.6,1.9-0.6c0.7,0,1.3,0.2,1.8,0.6c0.5,0.4,0.7,0.9,0.8,1.6H369.3z
	 M361.8,605.7v-1.1h0.9l-0.9-2.6v-1.5h0h0.8l2.3,6.5h-0.7h-0.7l-0.4-1.3H361.8z M361.8,618.9v-3.8l1.3,3.8h-0.7H361.8z M374.2,612.4
	v1.5v0l-0.9,2.6h0.9v1.1h-1.2l-0.4,1.3h-0.7h-0.7l2.3-6.5H374.2z M374.2,611v0.8h-0.5L374.2,611z M374.2,600.6v1.2h-0.9v1.4h0.9v1.1
	h-0.9v1.7h0.9v1.2h-2.3v-6.5H374.2z M396.3,614.4L396.3,614.4c0-0.3-0.2-0.6-0.4-0.7c-0.2-0.2-0.6-0.3-1-0.3c-0.3,0-0.6,0.1-0.8,0.2
	c-0.2,0.2-0.3,0.4-0.3,0.6c0,0.2,0.1,0.3,0.3,0.5c0.2,0.1,0.6,0.2,1.3,0.4c0.9,0.2,1.6,0.5,1.9,0.7c0.3,0.3,0.5,0.7,0.5,1.3
	c0,0.6-0.2,1.1-0.7,1.5c-0.5,0.4-1.1,0.5-2,0.5c-0.8,0-1.5-0.2-1.9-0.6c-0.5-0.4-0.7-0.9-0.7-1.6h1.3c0,0.3,0.1,0.6,0.4,0.8
	c0.2,0.2,0.6,0.3,1,0.3c0.4,0,0.8-0.1,1-0.2c0.2-0.1,0.4-0.3,0.4-0.6c0-0.2-0.1-0.4-0.3-0.5c-0.2-0.1-0.5-0.2-1.1-0.4
	c-1-0.2-1.7-0.5-2.1-0.8c-0.3-0.3-0.5-0.7-0.5-1.2c0-0.6,0.2-1.1,0.7-1.5c0.5-0.4,1.1-0.6,1.9-0.6c0.7,0,1.3,0.2,1.8,0.6
	c0.5,0.4,0.7,0.9,0.8,1.6H396.3z M390.2,618.9v-6.5h0.7h0.7v6.5h-0.7H390.2z M384.2,618.9L384.2,618.9v-6.5h4.8v0.6v0.6h-3.4v1.4
	h3.2v0.6v0.6h-3.2v1.7h3.6v0.6v0.6H384.2z M377.6,612.4L377.6,612.4h0.7h0.7l1.4,5h0l1.4-5h0.7h0.7l-2.2,6.5h-0.6h-0.7L377.6,612.4z
	 M381.4,602.5L381.4,602.5c0-0.3-0.2-0.6-0.4-0.7c-0.2-0.2-0.6-0.3-1-0.3c-0.3,0-0.6,0.1-0.8,0.2c-0.2,0.2-0.3,0.4-0.3,0.6
	c0,0.2,0.1,0.3,0.3,0.5c0.2,0.1,0.6,0.2,1.3,0.4c0.9,0.2,1.6,0.5,1.9,0.7c0.3,0.3,0.5,0.7,0.5,1.3c0,0.6-0.2,1.1-0.7,1.5
	c-0.5,0.4-1.1,0.5-2,0.5c-0.8,0-1.5-0.2-1.9-0.6c-0.5-0.4-0.7-0.9-0.7-1.6h1.3c0,0.3,0.1,0.6,0.4,0.8c0.2,0.2,0.6,0.3,1,0.3
	c0.4,0,0.8-0.1,1-0.2c0.2-0.1,0.4-0.3,0.4-0.6c0-0.2-0.1-0.4-0.3-0.5c-0.2-0.1-0.5-0.2-1.1-0.4c-1-0.2-1.7-0.5-2.1-0.7
	c-0.3-0.3-0.5-0.7-0.5-1.2c0-0.6,0.2-1.1,0.7-1.5c0.5-0.4,1.1-0.6,1.9-0.6c0.7,0,1.3,0.2,1.8,0.6c0.5,0.4,0.7,0.9,0.8,1.6H381.4z
	 M374.2,601.7v-1.2h2.5v0.6v0.6H374.2z M374.2,604.2v-1.1h2.2v0.6v0.6H374.2z M374.2,607.1v-1.2h2.6v0.6v0.6H374.2z M374.2,611.8
	V611l0.3-0.5h1.4l-1.3,1.3H374.2z M374.2,617.6v-1.1h0.9l-0.9-2.6v-1.5h0h0.8l2.3,6.5h-0.7h-0.7l-0.4-1.3H374.2z"/>
<path id="XMLID_8000_" class="st1" d="M37.8,421.5h178.6v-4.8H33v69.1h183.5v-4.8H37.8V421.5z M216.4,421.5H395v59.4H216.4v4.8
	h183.5v-69.1H216.4V421.5z"/>
<text id="XMLID_986_" transform="matrix(1 0 0 1 157.341 445.742)"><tspan x="0" y="0" class="st5 st6 st7">EXTINTOR</tspan><tspan x="-74.9" y="25.2" class="st5 st6 st7">DE ESPUMA MECÂNICA</tspan></text>
<g id="XMLID_42_">
	<path id="XMLID_43_" d="M351.6,574.1c0,0.2,0,0.4,0.1,0.6c0.4,1.1,1.9,0.9,1.9-0.6H351.6L351.6,574.1z"/>
	<path id="XMLID_46_" d="M398.1,528L398.1,528c-1.1-1.1-2.6-1.8-4.3-1.8h-20.7h-1.5h-2h-3.4h-2.7h-1.1h-1.3h-2.4h-3.6h-3.4h-4.5
		h-6.5c-1.7,0-3.2,0.7-4.3,1.8l0,0c-1.1,1.1-1.8,2.6-1.8,4.3v53.1c0,1.7,0.7,3.2,1.8,4.3l0,0c1.1,1.1,2.6,1.8,4.3,1.8h6.5h4.5v0h0v0
		h3.4h3.6h2.4h1.3h1.1h2.7v0h0v0h3.4h2h1.5h20.7c1.7,0,3.2-0.7,4.3-1.8l0,0c1.1-1.1,1.8-2.6,1.8-4.3v-53.1
		C399.9,530.7,399.2,529.1,398.1,528z M378.5,560.6c0.8-0.1,1.4-0.8,2-1c0,1.6-0.6,2.2,1.4,1.7c-0.4,3.2-2.5,4.8-5.2,6.4
		c0-0.7,2-2.8,1.2-2.8c-1.5-0.1-1.8-1.1-1.6-1.9c-1.5,0.6-2,1.3-3.3,1.2l0,0l0-0.1c1-1.6,3.1-3.7,4.3-5.2
		C377.8,559.4,377.8,560.8,378.5,560.6z M374.9,575.2l-1.8,2l-1.5,1.6l-2,2.2l-0.6,0.6h-2.8v0h-2.7h-1.1h-1.3h-2.4v0h-3.5l-0.1-0.1
		l-3.4-3.7l-2.4-2.6c0.6,0.5,1.5,0.1,1.5-1.1h-1.7l1-3.9h1.6h3.4h3.6h2.4h1.3h1.1h2.7h3.4h2h1.5h1l1,3.9h-1.7
		C373.4,575.3,374.3,575.7,374.9,575.2z M351.3,565.2c0.1,0,0.3,0.1,0.4,0.1c0.4,0.2,0.8,0.5,1,0.8c0.7,0.9,0.6,2.2-0.5,2.9l-0.5,0
		c-1.7-0.1-2.8-0.5-2.9-2.1l2.6-0.1L351.3,565.2z M354.1,565.2l0.9,0.8l0.6,0.5l1.2-1.4l1.5,0.2c0.6,1.9-0.3,3.8-1.7,3.8
		c-0.6-0.3-1.2-0.7-1.6-1.2c-0.6-0.6-1-1.2-1.1-1.7C353.8,565.7,353.8,565.4,354.1,565.2z M362.3,563.5c-0.5-0.4-0.9-1-1-1.5
		c-0.1,0.1-0.2,0.2-0.2,0.2c-0.5,0.6-0.6,1.1-1.5,1c-0.1-1.6,0.3-2.7,0.4-4.2c0.3,0.2,0.7,1,1.1,1.3c0.2,0.2,0.3,0.3,0.5,0.2
		c0.4-0.1,0.6-0.6,0.8-0.8c0-0.1,0.1-0.1,0.2-0.1c0.5,0.9,0.6,1.6,1,1.8c0.2,0.2,0.5,0.1,0.9-0.1c1.4,3.2,0.7,3.8-0.4,5.4
		c-0.3-0.6,0-2.6-0.5-2.8c0,0,0,0-0.1,0C363,563.9,362.6,563.8,362.3,563.5z M362.3,568.9c-0.2,0.1-0.4,0.1-0.7,0.1
		c-0.2-0.1-0.4-0.3-0.6-0.5c-0.8-1-1.3-2.6-1.3-3.4c0-0.4,0.2-0.7,0.6-0.9l0.7,1.6l0,0.1l0.5-1.5l0.7,1.5l0.1,0l0.7,0.1
		C363.7,567.4,363.3,568.5,362.3,568.9z M366.2,566.2L366.2,566.2c0.1-0.5,0.4-0.8,0.8-0.9l0.8,1.2l1.9-1.3l0.1-0.1l1.4,0.2
		c-0.3,0.9-0.9,1.8-1.5,2.5c-0.8,0.8-1.6,1.3-2.3,1.3c-0.6-0.4-0.9-1-1.1-1.7C366.1,566.9,366.1,566.5,366.2,566.2z M373.1,569
		l-0.5,0c-1.1-0.7-1.2-2-0.5-2.9c0.3-0.3,0.6-0.6,1-0.8c0.1-0.1,0.3-0.1,0.5-0.2l-0.1,1.7l1.7-1.5l-0.1,1.5l1,0.1
		C376,568.5,374.9,569,373.1,569z M369.6,556.7c1-1.8,2-3.8,1.1-7.2c-0.3-1.1-0.9-3,1-4.7c0.3-0.3,0.7-0.6,1.2-0.8
		c-0.7,1.4-0.3,2.6,0.3,3.6c0.1,0.2,0.3,0.4,0.4,0.6c1.1,1.7,1.1,4-0.4,6.2c-0.4,0.5-0.9,1.1-1.5,1.6c-0.6,0.5-1.2,0.9-2,1.3
		c-0.2,0.1-0.4,0.2-0.6,0.3C369.2,557.4,369.4,557.1,369.6,556.7z M369.6,561.1c0.6-0.6,1.3-1.4,1.8-1.4c-0.1,0.8,0.1,1.3,0.3,1.5
		c0.3,0.3,0.7,0.2,1.1,0c0.3,1,0.2,1.5-1.1,3l-0.1,0.1c-0.2-1-1.3-0.1-2-0.2c-0.2,0-0.4-0.2-0.4-0.6c-0.9,0.6-1.9,0.7-2.9,0.6
		c0.3-1.6,0.8-3.1,1.2-4.6c0.7,0.7,0.8,1.2,1.3,1.9C369.1,561.6,369.3,561.4,369.6,561.1z M361.1,533.7c0.3-0.6,0.7-1.2,1.3-1.9
		c0.3-0.3,0.6-0.7,0.9-1.1c-0.5,1.9-0.4,3.2,0.2,4.2c0.6,1,1.6,1.8,2.7,2.8l0,0c2.7,2.4,2.9,6.2,0,9.4c-0.7,0.8-1.6,1.6-2.7,2.2
		l-0.2,0.1l0.2-0.4c1.2-2.4,3.1-6.1,0-9.1l-0.1-0.1c-0.4-0.4-0.7-0.7-1-1c-0.6-0.6-1-1.2-1.3-1.7
		C360.5,535.9,360.5,534.9,361.1,533.7z M357.6,545.4c0.5-0.6,0.9-0.9,1.1-1.3c0.4-0.5,0.6-1,0.8-1.9c0.8,0.7,1.3,1.3,1.6,1.9
		c0.7,1.2,0.5,2,0,3c-0.1,0.2-0.2,0.5-0.4,0.7c-2.3,4.5-1.5,6.7-0.8,8.9c-0.5-0.3-0.9-0.6-1.2-1
		C355.1,552.5,355.1,548.1,357.6,545.4z M355.4,559.8c1,2,1.8,1.8,2.2,1.5c0.9,1,1.1,1.5,0.6,3.1c-1.1-1.4-1.8,0.8-2.8-0.7
		c-0.1,0.2-0.3,0.3-0.4,0.4c-0.5,0.3-1.3,0.4-2.1,0.3c-0.6-1.5-0.9-2.8-1.3-4.2l-0.1-0.4l0.1,0.1c1.1,0.7,1.4,1.1,2.4,1.9
		c0.3-0.1,0.6-1.3,1-1.7C355.2,559.8,355.3,559.8,355.4,559.8z M350,544.8c0.7-1.3,1.5-3.1,0.6-5.2c0.4,0.3,0.7,0.5,1,0.8
		c2.1,2,1.5,4.5,1.2,5.8c-1.1,4.8,0.5,7.3,1.6,9.8c-1.1-0.6-2.1-1.4-2.8-2.2C348.9,551,348.7,547.2,350,544.8z M342.6,560.7
		c1.7,0.4,2.3,0.9,4,1.1c0.2-0.4,0.4-0.7,0.6-1.1c0.3-0.4,0.6-0.9,1-1.3c1.2,1.5,2.5,3.1,3.5,4.7l0.1,0.1l-0.1,0
		c-1.4,0.1-2.8,0-4.3-0.6c0.5,1.5,0.6,2.7,0.7,4.1c-0.3-0.2-0.6-0.4-0.9-0.6C344.9,565.7,342.9,563.5,342.6,560.7z M398.3,585.5
		c0,0.6-0.1,1.2-0.3,1.7h-18.8h-6.1h-1.5h-2h-3.4h0h-2.7h-1.1h-1.3h-2.4h-3.6h-3.4h0h-3H348v-4.6h3.7h3.4h3.6h2.4h1.3h1.1h2.7h3.4h2
		h1.5h25.2V585.5z"/>
	<path id="XMLID_62_" d="M370.7,574.1c0,0.9,0.5,1.3,1,1.3c0.5,0,1-0.4,1-1.3h-1H370.7z"/>
	<path id="XMLID_63_" d="M357.1,574.1c0,1.3,1,1.6,1.6,1c0.2-0.2,0.3-0.6,0.4-1h-0.4H357.1z"/>
	<path id="XMLID_64_" d="M359.8,574.1c0,1.1,0.7,1.5,1.3,1.2c0.4-0.1,0.7-0.6,0.7-1.2h-0.7H359.8z"/>
	<path id="XMLID_65_" d="M367.9,574.1c0,1.3,1.1,1.6,1.7,1c0.2-0.2,0.3-0.5,0.3-1h-0.3H367.9z"/>
	<path id="XMLID_66_" d="M354.3,574.1c0,0.7,0.3,1.2,0.7,1.3c0.6,0.2,1.2-0.3,1.2-1.3h-1.2H354.3z"/>
	<path id="XMLID_67_" d="M365.2,574.1c0,0.9,0.5,1.3,1,1.3c0.5,0,1-0.4,1-1.3h-1H365.2z"/>
	<path id="XMLID_68_" d="M362.5,574.1c0,0.9,0.5,1.3,1,1.3c0.5,0,1-0.4,1-1.3h-1H362.5z"/>
</g>
<g id="XMLID_8025_">
	<path id="XMLID_8028_" class="st0" d="M338.4,526.7c0.7-0.3,1.4-0.4,2.2-0.4H340c-0.6,0-1.1,0.1-1.6,0.2c-2.2,0.7-3.8,2.7-3.8,5.2
		v0.6c0-1.7,0.7-3.2,1.8-4.3C336.9,527.5,337.6,527,338.4,526.7z"/>
	<path id="XMLID_8027_" class="st0" d="M396,589.4c0.3-0.2,0.7-0.4,0.9-0.7v0c0.8-0.8,1.3-1.9,1.3-3.2v-6.8l-2.3-2.3l-48.5-48.5
		h-6.8c-0.8,0-1.6,0.2-2.3,0.6c-0.3,0.2-0.6,0.4-0.9,0.7h0c-0.8,0.8-1.3,1.9-1.3,3.2v6.8l2.2,2.2l48.5,48.5h6.8
		C394.6,590,395.4,589.7,396,589.4z"/>
	<path id="XMLID_8026_" class="st0" d="M398.1,589.8L398.1,589.8c-0.6,0.6-1.3,1.1-2.1,1.4c-0.7,0.3-1.5,0.4-2.2,0.4h0.7
		c0.5,0,1.1-0.1,1.6-0.2c2.2-0.7,3.9-2.8,3.9-5.2v-0.7C399.9,587.1,399.2,588.7,398.1,589.8z"/>
</g>
<g id="XMLID_8003_">
	<path id="XMLID_8022_" d="M346.9,539.6c0.4,0.1,0.8,0.1,1.1,0c0.4-0.1,0.8-0.2,1.1-0.4c0.3-0.2,0.5-0.4,0.7-0.5
		c1.5-1.5,1.5-3,0.1-4.4l-3-3l-0.1-0.1l-7.1,7.1l1.4,1.4l2.5-2.6l1.6,1.6c0.5,0.5,0.9,0.8,1.4,0.9L346.9,539.6z M345,535.8l2-2
		l0.1-0.1l1.1,1.1c0.9,0.8,1,1.6,0.3,2.2c-0.1,0.1-0.2,0.2-0.3,0.3c-0.1,0.1-0.3,0.2-0.5,0.2c-0.2,0.1-0.4,0-0.6,0l-0.1,0
		c-0.2-0.1-0.4-0.2-0.6-0.5L345,535.8z"/>
	<path id="XMLID_8019_" d="M363.9,555.3L363.9,555.3c0.8-0.8,1.4-1.6,1.6-2.4l0-0.1c0.2-0.7,0.3-1.3,0.2-1.9c0-0.2-0.1-0.4-0.2-0.7
		c-0.1-0.3-0.2-0.7-0.4-0.9c-0.3-0.4-0.6-0.8-0.8-1c-0.1-0.1-0.3-0.2-0.4-0.4c-0.2-0.1-0.4-0.3-0.6-0.4c-0.1-0.1-0.3-0.1-0.4-0.2
		c-0.4-0.2-0.8-0.3-1.2-0.4c-0.6-0.1-1.3,0-2,0.2c-0.6,0.2-1.2,0.6-1.8,1.1c-0.2,0.2-0.4,0.3-0.6,0.5c-0.1,0.1-0.3,0.3-0.4,0.4
		c-0.6,0.7-1,1.3-1.2,1.9c-0.3,0.7-0.3,1.4-0.2,2c0.1,0.6,0.3,1.1,0.6,1.6c0.3,0.4,0.5,0.8,0.8,1l0,0c0.2,0.2,0.6,0.5,1,0.7l0,0
		c0.4,0.3,1,0.5,1.6,0.6c0.6,0.1,1.3,0,2-0.2c0.4-0.1,0.9-0.4,1.4-0.8C363.3,555.9,363.6,555.6,363.9,555.3z M362.5,553.8
		c-0.5,0.5-1,0.8-1.4,1c-0.4,0.2-0.8,0.3-1.2,0.3c-0.4,0-0.7-0.1-1-0.2c-0.3-0.1-0.5-0.3-0.7-0.5c-0.1-0.1-0.2-0.2-0.3-0.3
		c-0.1-0.1-0.2-0.3-0.2-0.4c-0.1-0.3-0.2-0.6-0.2-1c0-0.4,0.1-0.8,0.3-1.2c0-0.1,0.1-0.2,0.2-0.3c0.2-0.4,0.5-0.7,0.9-1.1
		c0.5-0.5,1-0.8,1.4-1c0.4-0.2,0.9-0.3,1.2-0.3c0.4,0,0.7,0.1,1,0.2c0.2,0.1,0.4,0.2,0.6,0.4l0.1,0.1c0.2,0.2,0.4,0.4,0.5,0.7
		c0.1,0.3,0.2,0.6,0.2,1c0,0.4-0.1,0.8-0.3,1.2c-0.1,0.3-0.3,0.6-0.6,0.9C362.8,553.5,362.7,553.7,362.5,553.8z"/>
	<path id="XMLID_8016_" d="M356.2,546.5c0.3-0.1,0.5-0.2,0.8-0.3c0.2-0.1,0.4-0.3,0.5-0.4c0.1-0.1,0.2-0.2,0.3-0.3
		c0.1-0.1,0.1-0.2,0.2-0.3l0.1-0.1c0.2-0.3,0.3-0.6,0.4-1c0.1-0.4,0-0.8-0.1-1.2c-0.1-0.2-0.2-0.4-0.3-0.6c-0.2-0.2-0.4-0.5-0.6-0.7
		l-0.4-0.4l-2.7-2.7l-0.4-0.4l-6.9,6.9l-0.2,0.2l0.2,0.2l1.2,1.2l2.8-2.8l1.5,1.5c0.3,0.3,0.5,0.5,0.6,0.7c0.1,0.2,0.1,0.4,0.1,0.6
		c0,0.2-0.1,0.4-0.3,0.6c-0.2,0.2-0.4,0.4-0.6,0.6c-0.4,0.4-0.6,0.7-0.8,0.9c-0.2,0.2-0.4,0.5-0.5,0.7l1.6,1.6l0.2-0.2
		c-0.1-0.2-0.1-0.4,0.1-0.6c0.2-0.2,0.5-0.6,1-1.1c0.2-0.2,0.3-0.3,0.4-0.5c0.1-0.1,0.2-0.3,0.3-0.4c0.2-0.2,0.3-0.5,0.3-0.7
		c0.1-0.2,0.1-0.4,0-0.6c0-0.2-0.1-0.4-0.2-0.6C355.2,546.6,355.7,546.6,356.2,546.5z M354.2,544.7c-0.1-0.1-0.3-0.2-0.4-0.4
		l-1.7-1.7l1.9-1.9l0.2,0.2l1.6,1.6c0.2,0.2,0.4,0.4,0.4,0.6c0.1,0.2,0.1,0.4,0.1,0.5c0,0.2-0.1,0.3-0.1,0.5
		c-0.1,0.1-0.2,0.2-0.3,0.3C355.4,545,354.8,545.1,354.2,544.7z"/>
	<path id="XMLID_8013_" d="M385.6,576.6c0.2-0.2,0.4-0.4,0.6-0.7c0.1-0.2,0.3-0.3,0.4-0.5c0.3-0.4,0.4-0.8,0.6-1.2
		c0-0.1,0.1-0.2,0.1-0.3c0.1-0.5,0.1-1.1,0-1.7c0-0.1-0.1-0.2-0.1-0.3c-0.2-0.5-0.5-0.9-1-1.4l0,0l-1-1l-2.1-2.1l-3.1,3.1l-3.5,3.5
		l-0.4,0.4l0.4,0.4l2.6,2.6c0.3,0.3,0.6,0.6,1,0.7c0.3,0.1,0.6,0.3,0.8,0.3c0.6,0.1,1.2,0.1,1.8,0c0.6-0.2,1.1-0.4,1.6-0.8
		c0.3-0.2,0.7-0.5,0.9-0.7C385.4,576.9,385.5,576.7,385.6,576.6z M385.1,573.9c-0.2,0.4-0.6,0.9-1.1,1.4c-0.6,0.6-1.2,1-1.9,1.3
		c-0.7,0.3-1.4,0.1-2-0.5L380,576l-1.3-1.3l1.3-1.3l3.3-3.3l1.4,1.4c0.2,0.2,0.3,0.3,0.5,0.6l0,0.1c0.1,0.2,0.2,0.4,0.2,0.7
		c0,0.3,0,0.5-0.2,0.9L385.1,573.9z"/>
	<path id="XMLID_8010_" d="M395.3,580.4c-0.1-0.6-0.3-1.1-0.6-1.6c-0.3-0.4-0.6-0.8-0.8-1c-0.2-0.2-0.6-0.5-1-0.8
		c-0.4-0.3-1-0.5-1.6-0.6c-0.6-0.1-1.3,0-2,0.2c-0.7,0.2-1.4,0.6-2.1,1.3c-0.1,0.1-0.2,0.2-0.3,0.3c-0.2,0.2-0.5,0.5-0.7,0.7
		c-0.4,0.6-0.8,1.1-0.9,1.6l-0.1,0.2c-0.2,0.7-0.2,1.3-0.1,1.8c0,0.2,0.1,0.4,0.1,0.6c0.1,0.4,0.3,0.7,0.4,1
		c0.2,0.3,0.4,0.6,0.5,0.8c0.1,0.1,0.2,0.2,0.2,0.2c0.2,0.2,0.4,0.4,0.7,0.6l0.3,0.2c0.4,0.3,1,0.5,1.6,0.6c0.6,0.1,1.3,0,2-0.2
		c0.7-0.2,1.5-0.8,2.4-1.6c0.8-0.8,1.4-1.6,1.6-2.4C395.3,581.7,395.4,581,395.3,580.4z M393.1,582c-0.2,0.4-0.6,0.9-1.1,1.4
		c-0.5,0.5-1,0.8-1.4,1c-0.4,0.2-0.8,0.3-1.2,0.3c-0.4,0-0.7-0.1-1-0.2c-0.3-0.1-0.5-0.3-0.7-0.5c-0.2-0.2-0.4-0.4-0.5-0.7l0,0
		c-0.1-0.3-0.2-0.6-0.2-1c0-0.3,0.1-0.6,0.2-1l0.1-0.2c0.2-0.5,0.5-0.9,1-1.4c0.5-0.5,1-0.8,1.4-1c0.4-0.2,0.9-0.3,1.2-0.3
		c0.4,0,0.7,0.1,1,0.2c0.3,0.2,0.5,0.3,0.7,0.5c0.2,0.2,0.4,0.4,0.5,0.7c0.1,0.3,0.2,0.6,0.2,1C393.4,581.1,393.3,581.5,393.1,582z"
		/>
	<polygon id="XMLID_8009_" points="370.1,555.4 370.6,554.9 370.1,554.4 369.2,553.4 365.6,557 364,558.7 363,559.6 362.1,560.5 
		363,561.4 363.5,562 364,561.5 365.6,559.9 	"/>
	<polygon id="XMLID_8008_" points="380,566.9 381.3,565.6 380,564.3 379.9,564.2 376.5,567.6 373,571.1 372.8,571.2 373,571.4 
		374.3,572.7 376.5,570.4 	"/>
	<path id="XMLID_8004_" d="M373.1,567.4c0.4-0.4,0.6-0.8,0.8-1.2c0.1-0.5,0.1-1-0.2-1.6c0.1,0,0.3,0.1,0.4,0.1c0.2,0,0.3,0,0.5,0
		c0.2,0,0.4-0.1,0.7-0.2c0.2-0.1,0.5-0.3,0.7-0.5c0.1-0.1,0.3-0.3,0.4-0.5l0.1-0.2c0.1-0.3,0.2-0.6,0.3-0.9c0-0.3,0-0.7-0.2-1.1
		c-0.1-0.1-0.1-0.2-0.2-0.4c-0.2-0.3-0.4-0.6-0.7-0.8l-2.8-2.8l-0.5-0.5l-0.8,0.8l-1.5,1.5l-4.5,4.5l-0.2,0.2l0.2,0.2l2.7,2.7
		c0.7,0.7,1.2,1.1,1.7,1.3l0.2,0.1c0.2,0.1,0.3,0.1,0.4,0.1c0.2,0,0.4,0,0.5,0c0.2,0,0.4,0,0.6-0.1c0.5-0.1,0.9-0.3,1.3-0.7
		L373.1,567.4z M372.2,565.3c-0.1,0.2-0.2,0.3-0.3,0.5c-0.1,0.1-0.1,0.1-0.2,0.2c-0.5,0.4-1,0.4-1.5,0.1c-0.1-0.1-0.3-0.2-0.4-0.3
		L368,564l1.9-1.9l0.2,0.2l1.5,1.5l0,0c0.3,0.3,0.4,0.6,0.5,0.9C372.3,565,372.3,565.1,372.2,565.3z M372.7,562.5l-1.1-1.1l-0.6-0.6
		l0.6-0.6l1-1l0.4,0.4l1.3,1.3c0.3,0.3,0.5,0.6,0.6,0.9c0.1,0.3,0,0.6-0.3,0.9c-0.3,0.3-0.6,0.4-0.9,0.3c-0.2,0-0.5-0.2-0.7-0.3
		C372.9,562.7,372.8,562.6,372.7,562.5z"/>
</g>
</svg>
