<?xml version="1.0" encoding="utf-8"?>
<!-- Generator: Adobe Illustrator 19.2.1, SVG Export Plug-In . SVG Version: 6.00 Build 0)  -->
<svg version="1.1" id="Layer_1" xmlns="http://www.w3.org/2000/svg" xmlns:xlink="http://www.w3.org/1999/xlink" x="0px" y="0px"
	 viewBox="0 0 425.2 566.9" style="enable-background:new 0 0 425.2 566.9;" xml:space="preserve">
<style type="text/css">
	.st0{fill:#EDEDED;}
	.st1{fill:#E31019;}
	.st2{fill:#9D9D9C;}
	.st3{fill:#E30613;}
</style>
<g id="XMLID_9575_">
	<rect x="0" y="0" class="st0" width="425.2" height="566.9"/>
</g>
<g id="XMLID_9574_">
	<rect x="28.5" y="28.5" class="st1" width="368.1" height="509.9"/>
</g>
<g id="XMLID_458_">
	<g id="XMLID_480_">
		<rect x="290.9" y="538.4" class="st0" width="105.8" height="28.5"/>
	</g>
	<g id="XMLID_459_">
		<g id="XMLID_472_">
			<g id="XMLID_477_">
				<path class="st2" d="M325.7,554c-0.7,0-1.3,0.6-1.3,1.3c0,0.7,0.6,1.3,1.3,1.3s1.3-0.6,1.3-1.3C327,554.6,326.4,554,325.7,554z
					 M326,555.4c-0.1,0.1-0.3,0.1-0.6-0.1c-0.3-0.1-0.5-0.3-0.5-0.4l-0.4-0.2l0.4,0.1c0.1-0.1,0.3-0.1,0.6,0.1
					C325.8,555.1,326,555.3,326,555.4l0.8,0.3L326,555.4z"/>
			</g>
			<g id="XMLID_473_">
				<path class="st2" d="M325.9,555.2c-0.1-0.1-0.2-0.1-0.3-0.2c-0.2-0.1-0.5-0.2-0.6-0.1c0,0.1,0.2,0.3,0.4,0.4
					c0.1,0.1,0.3,0.1,0.4,0.1c0,0,0.1,0,0.1,0c0.1,0,0.1,0,0.1-0.1C326,555.3,325.9,555.3,325.9,555.2z M325.8,555.4
					c-0.1,0-0.2-0.1-0.4-0.1c-0.3-0.1-0.4-0.3-0.4-0.3l0.9,0.4C325.9,555.4,325.8,555.4,325.8,555.4z M325,554.9
					C325,554.9,325.1,554.9,325,554.9c0.2,0,0.3,0,0.5,0.1c0.1,0.1,0.2,0.1,0.3,0.2c0.1,0.1,0.1,0.1,0.1,0.1L325,554.9z"/>
			</g>
		</g>
		<g id="XMLID_470_">
			<path class="st2" d="M333.5,560.5h-3.2l-4.7-9.9l-4.7,9.9h-3.2l7.8-15.7L333.5,560.5z"/>
		</g>
		<g id="XMLID_468_">
			<path class="st2" d="M314.7,544.8v15.7l-2.6-2v-8.2l-5.3,4.1l-5.3-4.1v8.2l-2.6,2v-15.7l7.9,6.1L314.7,544.8z"/>
		</g>
		<g id="XMLID_466_">
			<path class="st2" d="M341.1,551.2c0.1,0,0.3,0,0.6,0.1c0.3,0,0.6,0.1,0.9,0.2c0.3,0.1,0.7,0.3,1.1,0.5c0.4,0.2,0.7,0.5,1,0.8
				c0.3,0.3,0.5,0.8,0.7,1.2c0.2,0.5,0.3,1.1,0.3,1.8c0,0,0,0.2,0,0.4c0,0.2-0.1,0.5-0.2,0.9c-0.1,0.3-0.3,0.7-0.5,1.1
				c-0.2,0.4-0.5,0.8-1,1.1c-0.4,0.3-0.9,0.6-1.6,0.8c-0.6,0.2-1.4,0.3-2.3,0.3c-0.8,0-1.7-0.2-2.4-0.5c-0.8-0.4-1.4-0.8-2-1.5
				l2.1-1.7c0,0,0.1,0.1,0.2,0.2c0.1,0.1,0.3,0.2,0.5,0.4c0.2,0.1,0.5,0.2,0.8,0.3c0.3,0.1,0.7,0.2,1.1,0.2c0.8,0,1.4-0.2,1.9-0.6
				c0.4-0.4,0.7-0.9,0.7-1.5c0-0.4-0.1-0.7-0.3-1c-0.2-0.3-0.4-0.5-0.7-0.6c-0.3-0.2-0.6-0.3-1-0.4c-0.4-0.1-0.8-0.2-1.2-0.3
				c-0.1,0-0.3,0-0.6-0.1c-0.3-0.1-0.5-0.1-0.9-0.3s-0.6-0.3-1-0.5c-0.3-0.2-0.6-0.5-0.9-0.8c-0.3-0.3-0.5-0.7-0.7-1.1
				c-0.2-0.4-0.3-1-0.3-1.6c0,0,0-0.2,0-0.4c0-0.2,0.1-0.5,0.2-0.8c0.1-0.3,0.3-0.7,0.5-1.1c0.2-0.4,0.6-0.7,1-1
				c0.4-0.3,0.9-0.6,1.6-0.8c0.6-0.2,1.4-0.3,2.3-0.3c0.8,0,1.7,0.2,2.4,0.5c0.8,0.4,1.4,0.9,2,1.5l-2.1,1.7
				c-0.2-0.3-0.4-0.5-0.6-0.6c-0.3-0.1-0.6-0.3-0.8-0.3c-0.3-0.1-0.7-0.1-1.1-0.1c-0.8,0-1.4,0.2-1.9,0.5c-0.4,0.3-0.7,0.8-0.7,1.3
				c0,0.4,0.1,0.7,0.2,1c0.1,0.2,0.3,0.4,0.6,0.5c0.2,0.1,0.5,0.2,0.9,0.3C340.3,551.1,340.7,551.2,341.1,551.2z"/>
		</g>
		<g id="XMLID_464_">
			<path class="st2" d="M361.1,544.8v9.9c0,0.1,0,0.4,0,0.7c0,0.3-0.1,0.7-0.2,1.2c-0.1,0.4-0.3,0.9-0.5,1.3c-0.2,0.5-0.6,0.9-1,1.3
				c-0.5,0.4-1,0.7-1.7,0.9c-0.7,0.2-1.5,0.4-2.6,0.4c-1,0-1.8-0.1-2.4-0.4c-0.7-0.2-1.2-0.6-1.6-0.9c-0.4-0.4-0.8-0.8-1-1.3
				c-0.2-0.5-0.4-0.9-0.5-1.3c-0.1-0.4-0.2-0.8-0.2-1.2c0-0.3,0-0.6,0-0.7v-9.9h2.6v9.9c0,0.2,0,0.4,0.1,0.8c0,0.4,0.1,0.8,0.3,1.2
				c0.2,0.4,0.5,0.7,1,1.1c0.4,0.3,1.1,0.5,1.8,0.5c0.9,0,1.5-0.2,2-0.5c0.5-0.3,0.8-0.7,1-1.1c0.2-0.4,0.3-0.8,0.4-1.2
				c0-0.4,0.1-0.6,0.1-0.8v-9.9H361.1z"/>
		</g>
		<g id="XMLID_462_">
			<path class="st2" d="M386,544.8h2.6v13.6l-2.6,2V544.8z"/>
		</g>
		<g id="XMLID_461_">
			<polygon class="st2" points="369.4,544.8 366.8,544.8 364.2,544.8 364.2,547.5 366.8,547.5 366.8,548.4 366.8,560.5 369.4,560.5 
				369.4,548.4 369.4,547.5 372,547.5 372,544.8 			"/>
		</g>
		<g id="XMLID_460_">
			<polygon class="st2" points="380.3,544.8 377.6,544.8 375,544.8 375,547.5 377.6,547.5 377.6,548.4 377.6,560.5 380.3,560.5 
				380.3,548.4 380.3,547.5 382.9,547.5 382.9,544.8 			"/>
		</g>
	</g>
</g>
<g id="XMLID_9573_">
	<rect x="49" y="367.9" class="st0" width="327.2" height="150"/>
</g>
<g id="XMLID_137_">
</g>
<g id="XMLID_9469_">
	<g id="XMLID_9484_">
		<path class="st0" d="M103.3,64.9c-4.3,0-7.3,3.2-7.3,7.3v217.4h0h14.6V72.2C110.6,68.1,107.6,64.9,103.3,64.9z"/>
	</g>
	<g id="XMLID_9483_">
		<polygon class="st0" points="96,296.4 96,318 110.6,318 110.6,296.4 96,296.4 		"/>
	</g>
	<g id="XMLID_9482_">
		<polygon class="st0" points="100.3,341.7 106.4,341.7 109.4,324.8 97.2,324.8 		"/>
	</g>
	<g id="XMLID_9481_">
		<path class="st0" d="M78.8,66.6v203.8c0,6.9,5.3,11.5,11.9,11.9V54.7c-3.3,0.2-6,1.1-8.4,3.5C80.1,60.4,78.8,63.5,78.8,66.6z"/>
	</g>
	<g id="XMLID_9480_">
		<path class="st0" d="M123.2,64.9c-4,0-7.3,3.3-7.3,7.3v192.6c0,4,3.3,7.3,7.3,7.3c4,0,7.3-3.3,7.3-7.3V72.2
			C130.5,68.2,127.3,64.9,123.2,64.9z"/>
	</g>
	<g id="XMLID_9479_">
		<path class="st0" d="M143.2,64.9c-4,0-7.3,3.3-7.3,7.3v192.6c0,4,3.2,7.3,7.3,7.3c4,0,7.3-3.3,7.3-7.3V72.2
			C150.5,68.2,147.2,64.9,143.2,64.9z"/>
	</g>
	<g id="XMLID_9473_">
		<path class="st0" d="M335.9,141.8c-3.2-3.4-7-6.2-11.1-8.3c-5-2.5-10.5-3.9-16.2-4.1c-6.5-0.2-12.9,1.2-18.6,4.1
			c-2.6,1.3-5,2.9-7.3,4.7c-5.1,4.2-8.6,9.1-11,14.8c-1.1,2.6-2.4,5.9-2.6,8.7h-41.5V66.6c0-3.1-1.2-6.2-3.5-8.4
			c-2.4-2.4-5.1-3.3-8.4-3.5v227.6c3.3-0.2,6-1.1,8.4-3.5c2.2-2.2,3.5-5.3,3.5-8.4v-95.1H269c0.3,1.9,0.8,3.8,1.4,5.6
			c2.8,8,7.5,14.6,14.5,19.5c1.6,1.1,3.3,2.1,5,3c5.8,2.9,12.2,4.3,18.6,4.1c5.6-0.2,11.2-1.6,16.2-4.1c3.3-1.6,6.4-3.8,9.1-6.3
			c8.3-7.7,12.9-18.7,12.5-30C346,157.7,342.2,148.7,335.9,141.8z M300.6,196.6c-4-1.1-7.5-2.7-10.6-5c-1.3-1-2.6-2.2-3.8-3.5
			c-3.5-3.8-5.4-7.9-6.8-12.7h10.6h10.6V196.6z M300.6,161.7h-10.6h-10.6c1.4-4.9,3.3-9,6.8-12.7c1.2-1.3,2.5-2.5,3.8-3.5
			c3.1-2.3,6.6-3.9,10.6-5V161.7z M328.6,188.1c-1.2,1.3-2.5,2.5-3.8,3.5c-3.1,2.3-6.6,3.9-10.6,5v-21.3h10.6h10.6
			C334,180.2,332.1,184.3,328.6,188.1z M324.8,161.7h-10.6v-21.3c4,1.1,7.5,2.7,10.6,5c1.3,1,2.6,2.2,3.8,3.5
			c3.5,3.8,5.4,7.9,6.8,12.7H324.8z"/>
	</g>
	<g id="XMLID_9472_">
		<path class="st0" d="M203,64.9c-4,0-7.3,3.3-7.3,7.3v192.6c0,4,3.3,7.3,7.3,7.3c4,0,7.3-3.3,7.3-7.3V72.2
			C210.3,68.2,207,64.9,203,64.9z"/>
	</g>
	<g id="XMLID_9471_">
		<path class="st0" d="M163.1,64.9c-4,0-7.3,3.3-7.3,7.3v192.6c0,4,3.3,7.3,7.3,7.3c4,0,7.3-3.3,7.3-7.3V72.2
			C170.4,68.2,167.1,64.9,163.1,64.9z"/>
	</g>
	<g id="XMLID_9470_">
		<path class="st0" d="M183,64.9c-4,0-7.3,3.3-7.3,7.3v192.6c0,4,3.3,7.3,7.3,7.3c4,0,7.3-3.3,7.3-7.3V72.2
			C190.3,68.2,187.1,64.9,183,64.9z"/>
	</g>
</g>
<g id="XMLID_9592_">
	<polygon class="st1" points="256.5,487.5 139.8,487.5 139.8,472.5 256.5,472.5 240.2,456.3 261.6,456.3 285.4,480 261.6,503.7 
		240.2,503.7 	"/>
</g>
<g id="XMLID_9197_">
	<path class="st3" d="M102.7,387.9v26.5h-6.8v-14.8l-6.4,14.1h-6l-6.2-14.1v14.8h-6.8v-26.5h7.8l8.3,17.6l8.3-17.6H102.7z"/>
	<path class="st3" d="M124.8,387.9l10.2,26.5h-6.9l-2.4-6.2h-10.3l-2.4,6.2H106l10.2-26.5H124.8z M120.5,394.4l-3.5,9.5h6.9
		L120.5,394.4z"/>
	<path class="st3" d="M137.8,387.9h7.9l10.6,17.3v-17.3h6.8v26.5h-7.9l-10.6-17.3v17.3h-6.8V387.9z"/>
	<path class="st3" d="M192,393.2c-3.7-0.6-7.6-1.3-11.4-1.3c-5.5,0-6.7,3-6.7,9.3c0,6.3,1.2,9.1,6.7,9.1c1.7,0,4-0.3,5-0.4v-6h-6.2
		v-4.3h13v13.8c-2.5,0.4-8,1.2-11.8,1.2c-10.6,0-13.5-5.7-13.5-13.4c0-7.6,2.5-13.6,13.5-13.6c5,0,8.6,0.6,11.9,1.3L192,393.2z"/>
	<path class="st3" d="M224.1,400.7c0,9-2.6,13.9-13.4,13.9c-10.7,0-13.7-4.3-13.7-14c0-9.2,4.3-13,13.7-13
		C219.1,387.6,224.1,391.6,224.1,400.7z M217.3,400.7c0-6.6-2.6-8.8-6.7-8.8c-5,0-6.9,1.7-6.9,8.7c0,7.5,1.1,9.7,6.9,9.7
		C216.3,410.3,217.3,407.7,217.3,400.7z"/>
	<path class="st3" d="M224.3,387.9h26.1v4.3h-9.6v22.2H234v-22.2h-9.7V387.9z"/>
	<path class="st3" d="M253.7,387.9h6.8v26.5h-6.8V387.9z"/>
	<path class="st3" d="M266,387.9h7.9l10.6,17.3v-17.3h6.8v26.5h-7.9l-10.6-17.3v17.3H266V387.9z"/>
	<path class="st3" d="M315.7,403.2h-12.1v11.1h-6.8v-26.5h6.8v11h12.1v-11h6.8v26.5h-6.8V403.2z"/>
	<path class="st3" d="M354.9,400.7c0,9-2.6,13.9-13.4,13.9c-10.7,0-13.7-4.3-13.7-14c0-9.2,4.3-13,13.7-13
		C350,387.6,354.9,391.6,354.9,400.7z M348.2,400.7c0-6.6-2.6-8.8-6.7-8.8c-5,0-6.9,1.7-6.9,8.7c0,7.5,1.1,9.7,6.9,9.7
		C347.2,410.3,348.2,407.7,348.2,400.7z"/>
</g>
</svg>
