<svg id="Layer_1" data-name="Layer 1" xmlns="http://www.w3.org/2000/svg" viewBox="0 0 425.2 651.97"><defs><style>.cls-1,.cls-6{fill:#ededed;}.cls-2{fill:#e31019;}.cls-3{fill:#009d41;}.cls-4{fill:#007da4;}.cls-5{fill:#13110c;}.cls-6{font-size:30px;font-family:Kuro;font-weight:700;}</style></defs><title>M 02 06</title><rect id="_Path_" data-name="&lt;Path&gt;" class="cls-1" width="425.2" height="651.97"/><path id="_Compound_Path_" data-name="&lt;Compound Path&gt;" class="cls-2" d="M196.65,32.86H29V400.07H396.21V32.86H196.65ZM269,383H156.25V138.73a28,28,0,0,1,28-28h11.61V88.32a5.6,5.6,0,0,0-5.6-5.6H178l-39,28.44a5.54,5.54,0,0,0-2.29,4l-1,11.63H124.25L126.82,97a11.38,11.38,0,0,1,1.41-4.54A11.08,11.08,0,0,1,131.39,89l43.19-31.45h24.07V50h28v6.16h14l14,9.1v8.41l-14,9.1H235a5.59,5.59,0,0,0-5.6,5.6v22.41h11.61a28,28,0,0,1,28,28V383Z" transform="translate(0)"/><rect id="_Path_2" data-name="&lt;Path&gt;" class="cls-2" x="28.99" y="416.67" width="366.9" height="69.05"/><g id="_Group_" data-name="&lt;Group&gt;"><path id="_Compound_Path_2" data-name="&lt;Compound Path&gt;" class="cls-3" d="M88.47,526.26H34a5.43,5.43,0,0,0-5.44,5.44v54.44A5.45,5.45,0,0,0,34,591.58H88.47a5.45,5.45,0,0,0,5.44-5.44V531.7A5.43,5.43,0,0,0,88.47,526.26Zm-35.23,5.66a3.66,3.66,0,0,0,1.22-3.09s1.29,2.57.91,3.09c-0.7,1-.76,3.24.74,3.18s0.76-2.4.76-2.4a2.2,2.2,0,0,1,1.35,2.7,14,14,0,0,0-.22,6c0.15-1.35,1.33-1.16,1.52-3.09a3.68,3.68,0,0,1,.84-1.83,10.1,10.1,0,0,1,1.89-1.81c-0.7.15-.76,4.09-0.46,5.23,0.41,1.54,1.29,1.37,1.35,3.18s-2.61,2.79-2.61,2.79l-0.16-.13-3-2.38-4.09-3.24C49.49,537,53.23,531.92,53.23,531.92Zm-18.51,4.92s-0.76,2.42.37,3a8.71,8.71,0,0,1,1.61-4,5.51,5.51,0,0,1,2.18-1.71c-2.16.91-.39,5,0.63,5.71a1.44,1.44,0,0,1,.37,2l-3.18,2.16-1,.71A5.12,5.12,0,0,1,34.73,536.84Zm-0.15,9.8,2.13-1.43,7.47-5h7.73l5.46,4.29,2.8,2.2a0.84,0.84,0,0,1,.21.3,4.17,4.17,0,0,1,.29,1.77H34.2C34.2,546.94,34.57,546.64,34.57,546.64Zm22.1,38.76a2.16,2.16,0,0,1-2.16,2.13H41.41a2.24,2.24,0,0,1-2.16-2.11L36.7,566.89,34.38,550H60.53l-0.16,1.51-3,27.6Zm2.22-8.84a3.15,3.15,0,0,1,.91-2.31l0.45-.33h0.12a1.94,1.94,0,0,1,1.45.82,3.1,3.1,0,0,1,.66,1.9,3,3,0,0,1-.5,1.64,2.32,2.32,0,0,1-1.22,1,0.32,0.32,0,0,0-.13,0,1.42,1.42,0,0,1-.28-0.09A2.81,2.81,0,0,1,58.9,576.56ZM71,589.43H66.1V588.8a10.35,10.35,0,0,0,3.38.25c0.79,0,1.36-.12,1.36-0.12a5.57,5.57,0,0,1-1.36,0,14.41,14.41,0,0,1-3.38-.84v-0.77H67a23,23,0,0,0,2.46.66,7.29,7.29,0,0,0,1.51.17h0.09l-0.09,0-1.51-.51-0.86-.29h3.43l0,2.09H71Zm-4.7-2.57,3.16-4.8,0,0,1.51,1,1.6,1.11,0.08,0.06-0.08.27-0.67,2.3H66.29Zm6.7-.27L72.6,588l-0.06.21V587.1a0.24,0.24,0,0,1,0-.11l0.07-.24,0.4-1.39,0.2-.7,0.27,0.19Zm12.75,1.3-4.61,1.63v0.06L73,583.94l-0.4-.27L71,582.56l-1.42-1v-0.82L71,581.67l1.6,1L73,583,78,586.2,80.93,588a0.38,0.38,0,0,0,.2,0l4.61-1.5v1.33ZM70,580.45l1-.16,1.6-.25,0.29,0L73,580l0.65-.1,11.82,6.32-4.37,1.4L73,582.43l-0.4-.25-1.6-1-1.07-.68h0Zm17.25,0a7.15,7.15,0,0,1-3.6,4.23l-9.83-5.25-0.07,0H73.62l-0.63.1-0.4.06-1.6.25-1.51.23-0.17,0-0.2,0v1.6h0l-0.45.69L65,584.07a3.33,3.33,0,0,0,.2-0.45,4.06,4.06,0,0,0,.1-2.4,4.74,4.74,0,0,0-.16-0.47,2.26,2.26,0,0,0-1-1.2L64,579.48l5.47-2,1.51-.55,1.6-.59,0.4-.15h0a0.2,0.2,0,0,0,.14-0.31,0.21,0.21,0,0,0-.17-0.18,0.43,0.43,0,0,0-.14,0l-0.26.1-1.6.59-1.51.56-6.86,2.52h0l-0.3.11-0.05,0a2.27,2.27,0,0,0-.75,2.94l0,0s1.43,1.93,3-.15c0.07-.09.14-0.19,0-0.33a0.2,0.2,0,0,0-.34,0,1.31,1.31,0,0,1-2.26.17,1.79,1.79,0,0,1,.59-2.29l0.13-.05,0.08,0h0l0.08,0,0.13,0a1.36,1.36,0,0,1,1,.09,1.78,1.78,0,0,1,.77,1,3,3,0,0,1,.14.41,3.57,3.57,0,0,1-.09,2.11,1.79,1.79,0,0,1-1.06,1.19,0.37,0.37,0,0,0-.15.07A2.36,2.36,0,0,1,60.42,583l-0.06-.16a3.15,3.15,0,0,1,0-2A3.57,3.57,0,0,1,61,579.7l8.49-3.13L71,576l1.6-.59,0.19-.07a0.19,0.19,0,0,0,.14-0.3,0.2,0.2,0,0,0-.31-0.14h0l-1.6.59-1.51.56-7.2,2.66,0.11-.15a3.43,3.43,0,0,0,.58-1.9,3.57,3.57,0,0,0-.76-2.2,2.72,2.72,0,0,0-.88-0.75l8.16-2.6,1.51-.48h0a0.26,0.26,0,0,0,0-.48,0.32,0.32,0,0,0-.13,0l-1.38.44-4.73,1.51a15.12,15.12,0,0,1,1.79-15.48c2.13-2.26,1.22-9.36,1.22-9.36a5.39,5.39,0,0,1,1.73,1.78,10.88,10.88,0,0,1,1,6.77,10.26,10.26,0,0,0,.49,4.51,8.21,8.21,0,0,0,.4,1c-0.85-2.74,0-4.1,1.2-5.68l0.4-.54c0.27-.38.55-0.77,0.81-1.2,1.37-2.2,3.83-5.49,1.74-9.15-2-3.46.68-9,.68-9-0.15,1.5,2.16,6.49,3.24,7.71,1.22,1.37,3.4,3.55,3.55,7,0.29,6.53-2.54,8.71-1.66,12.33a15.2,15.2,0,0,1,1.75-3.49,13.13,13.13,0,0,0,1.14-1.42,20,20,0,0,0,1.43-3.78S87,559.52,85.1,564a5.89,5.89,0,0,0,.49,6c1.48,2.09-.89,7.43-0.89,7.43a3.62,3.62,0,0,1-1.29-2.42c-0.07-1.22-.85-0.61-1-0.54-0.53.3-.81,0.83,0,2.57,1.37,3.05-2,4-2.29,4.62,0,0,5.13.37,7.06-2.08a3.23,3.23,0,0,0,.52-0.95A10.16,10.16,0,0,1,87.2,580.44Zm0.41-16.77A3.46,3.46,0,0,1,87.2,566a6.91,6.91,0,0,1-.46.8,5.34,5.34,0,0,1,.46-5.29,5.73,5.73,0,0,1,1-1.13A6.18,6.18,0,0,0,87.62,563.67Z" transform="translate(0)"/><polygon id="_Path_3" data-name="&lt;Path&gt;" class="cls-3" points="43.27 516.41 41.48 511.54 41.46 511.47 39.7 516.41 41.48 516.41 43.27 516.41"/><path id="_Compound_Path_3" data-name="&lt;Compound Path&gt;" class="cls-3" d="M53.91,523.52L41.49,502.28l0,0L28.82,523.52H53.91Zm-15.07-5-1,2.83H35.11l5-12.69H43l5,12.69H45.12L44,518.51h-5.2Z" transform="translate(0)"/></g><g id="_Group_2" data-name="&lt;Group&gt;"><path id="_Compound_Path_4" data-name="&lt;Compound Path&gt;" class="cls-4" d="M187.83,523.48a9.49,9.49,0,0,0,1.6.13,9.7,9.7,0,1,0,0-19.4,9.49,9.49,0,0,0-1.6.13A9.7,9.7,0,0,0,187.83,523.48Zm0-16.09a6.75,6.75,0,0,1,1.45-.16,11.21,11.21,0,0,1,3.54.5l-0.24,2.36a6.89,6.89,0,0,0-2.84-.62,4.49,4.49,0,0,0-1.9.41,3.78,3.78,0,0,0-2.16,3.61,4.51,4.51,0,0,0,2.16,4.24,4.23,4.23,0,0,0,2,.49,7,7,0,0,0,2.84-.6l0.17,2.36a8.93,8.93,0,0,1-3.14.5,10.17,10.17,0,0,1-1.9-.17c-2.58-.49-5-2.18-5-6.83A6.07,6.07,0,0,1,187.83,507.4Z" transform="translate(0)"/><path id="_Compound_Path_5" data-name="&lt;Compound Path&gt;" class="cls-4" d="M239.63,526.26H185.19a5.43,5.43,0,0,0-5.44,5.44v47.47l0,0c4.57,0,7.1-3.51,8.13-6.44,1.52-4.3.78-9.49,0.61-14-0.19-4.9.24-11.77,5.23-13.94a6.76,6.76,0,0,1,7.52,1.87L199,549.49c-2.87-2.2-4.47-1.26-5.31.07-2.19,3.43-1.53,5.24-1.48,18.66a15.12,15.12,0,0,1-.77,5.73c-1.2,3.34-4.27,8.68-11.6,8.68l0,0v3.48a5.45,5.45,0,0,0,5.44,5.44h54.44a5.45,5.45,0,0,0,5.44-5.44V531.7A5.43,5.43,0,0,0,239.63,526.26Zm-20.37,7.14a8,8,0,0,0,.71-2.91,10.58,10.58,0,0,1,2.56,4.71,8.37,8.37,0,0,1,.16,1,6.85,6.85,0,0,1-.16,2.26,6.52,6.52,0,0,1-1.65,3,12.17,12.17,0,0,1-1.62-2.74A6.92,6.92,0,0,1,219.26,533.39Zm4.63,25.55-1.07,1.29-0.29-.24-3.27-2.68-3.34-2.74-1.29-1.05,1.07-1.29,0.22,0.18,3.34,2.74,3.27,2.68Zm-23-10.46c2.29-2.77,4.62-3.91,6.77-4.12a8.07,8.07,0,0,1,1.92,0,12.73,12.73,0,0,1,6.38,3.25,13.87,13.87,0,0,1,1.28,1.29l-1.28,1.55-6.38,7.71-1.92,2.31-3.25,3.93S192.9,558.12,200.85,548.49Zm6.49,13.87,0.29-.35,0.76-.93,1.16,1,6.38,5.24,0.65,0.54-0.65.79-0.41.5-6-4.91-1.92-1.58Zm3,9.86c-1.22,2.11-.19,6.6-0.3,6.49a4.35,4.35,0,0,1-.45-0.5,4.5,4.5,0,0,1,0-5.13C210,572.22,210.54,571.81,210.3,572.22Zm17.32,15.47a18.92,18.92,0,0,0-5.09-.38,5.76,5.76,0,0,0-3.15,1.09l-0.12.1a3.62,3.62,0,0,1-3.34.42c-2.23-.69-4.3-3-4.12-5.5a11.36,11.36,0,0,0,3.18,1s-6.23-4.55-1.35-11.8c0.11-.16.67,3.5,2.29,5.85a4,4,0,0,0,2.55,1.88l0.79,0.15c1.88,0.4,2.79,1,3.27,1.7a4.78,4.78,0,0,1,.61,1.91,4.59,4.59,0,0,1,4.47,1.85,8,8,0,0,1,1.12,1.94S228.31,587.83,227.62,587.69Zm4.81-2.77c-0.33,0-.67,0-1,0a11,11,0,1,1,0-22c0.34,0,.68,0,1,0A11,11,0,0,1,232.43,584.92Zm9.77-15.57c-2.16-6.9-9.1-7.26-9.77-7.27h-0.05s0.15-1-2.41-3a8.38,8.38,0,0,1-2.34-2.62c-1.3-2.39-.71-4.79-0.38-6.44,0.46-2.26.76-6.36-.91-6.81-2.27-.61-1,4.4-1,4.4-4.24-2.42-1.37-6.21-1.37-6.21,2.44-4,.24-8.51-1.38-11-0.8-1.25-1.45-2-1.34-2,0.36,0.14.82,0.34,1.34,0.59a19.76,19.76,0,0,1,5.09,3.32,7.53,7.53,0,0,1,.82.93c1.68,2.27.76,7.86,0.76,7.86a18.35,18.35,0,0,0,3,11.19,3.35,3.35,0,0,1,.2-1.15,4.9,4.9,0,0,1,2.06-2.33c-0.91,5.9,1.81,8.78,1.81,8.78a32.93,32.93,0,0,0-.13-5c-0.3-2,2.85-7.4,2.85-7.4-0.74,4.38.61,11,2.13,13.61,1.29,2.18.89,7.71,0.89,7.71l1.53-1.83C244.18,566.78,242.2,569.35,242.2,569.35Z" transform="translate(0)"/><polygon id="_Path_4" data-name="&lt;Path&gt;" class="cls-4" points="232.38 566.02 231.31 567.31 232.43 568.22 237.67 572.51 238.73 571.23 232.43 566.06 232.38 566.02"/><polygon id="_Path_5" data-name="&lt;Path&gt;" class="cls-4" points="224.95 574.79 223.91 576.08 227.62 579.12 230.26 581.28 231.33 580 227.62 576.97 224.95 574.79"/></g><g id="_Group_3" data-name="&lt;Group&gt;"><path id="_Compound_Path_6" data-name="&lt;Compound Path&gt;" class="cls-2" d="M163.93,526.26H109.49A5.43,5.43,0,0,0,104,531.7v54.44a5.45,5.45,0,0,0,5.44,5.44h54.44a5.45,5.45,0,0,0,5.44-5.44V531.7A5.43,5.43,0,0,0,163.93,526.26Zm-19,6.87c0.18-1.78.94-4.27,3-5.53a7.19,7.19,0,0,0,1.75,6.46,8.43,8.43,0,0,0,1.74,1.4c3.22,2,1.07,7.25.15,10s0,3.33,1.35,2.59a14.55,14.55,0,0,0,4.09-6.51,11.31,11.31,0,0,1-1,9.1,19.7,19.7,0,0,0-4.21-1.16c-0.68-.11-1.37-0.19-2.07-0.24a28.11,28.11,0,0,0-3.4,0,10.71,10.71,0,0,1,.61-5.7c1.46-4.56-1.66-7.26-2-8.8l0-.12A7.42,7.42,0,0,1,144.89,533.13Zm-3.35,18.8c-0.88.2-1.76,0.44-2.65,0.73l-0.16.05-0.29-1.47-0.07-.33,0.07,0,0.45-.11c0.86-.22,1.75-0.41,2.65-0.57,1.1-.2,2.22-0.36,3.35-0.45a29.15,29.15,0,0,1,4.76,0c0.67,0,1.34.13,2,.23a16.24,16.24,0,0,1,9.27,4.56l-1.14,1.15a17.24,17.24,0,0,0-9.3-4.23l-0.84-.1a23.51,23.51,0,0,0-4.76,0A28.17,28.17,0,0,0,141.55,551.93Zm0.31,0.41a5.58,5.58,0,0,0-.23,1.41l-0.09-.22c-0.08-.21-0.2-0.57-0.31-1l0.31-.07Zm-1.14-18.23c0-.13.31-0.15,0.83,0.09,1.13,0.51,3,2.24,3.35,6.83a21.59,21.59,0,0,1,0,2.73,31,31,0,0,1-.39,3.36,6.53,6.53,0,0,1-.79,2.27c-0.73.08-1.46,0.2-2.17,0.33l-0.7.13a9.24,9.24,0,0,1,.7-3.94,7.83,7.83,0,0,1,.85-1.5,6.22,6.22,0,0,0-3,3.63,7.17,7.17,0,0,1-.47-1.67,6.51,6.51,0,0,1,0-2.24,5,5,0,0,1,.62-1.68C140.76,540.3,142.42,539.15,140.72,534.12Zm-2.64.35a6.07,6.07,0,0,1,.37-0.5,0.68,0.68,0,0,1,.24-0.23,4.07,4.07,0,0,1,.21.55,2.8,2.8,0,0,1,0,1.44c-0.11.45-.3,0.89-0.45,1.41a5.74,5.74,0,0,0-.21,2.34,0.68,0.68,0,0,1-.16-0.06c-0.3-.15-0.91-0.63-0.91-2.14A5.4,5.4,0,0,1,138.08,534.47Zm-6.8,5.19,2.36,1.13a4.12,4.12,0,0,1,1.9,4.81l-1.26-.67a3,3,0,0,0-1.4-3.23l-1.6-.73-4.15-1.9-0.3-1.54Zm-24.71,33.84a2.14,2.14,0,0,1-1-2.85l15.83-33.73a2.16,2.16,0,0,1,2.85-1l1.66,0.78,1.11,5.66,4.3,2,1.69,0.79a24.38,24.38,0,0,1,2.77,1.59,3.32,3.32,0,0,1,1.41,2.37l0.93,5.29,0.29,1.61c0,0.11.06,0.22,0.09,0.33a3.79,3.79,0,0,1,0,1.4,5.83,5.83,0,0,1-.37,1.23c-0.05.13-.11,0.26-0.17,0.4l-6.63,14.11L127.72,581a2.14,2.14,0,0,1-2.85,1Zm57.66,5.07c0.15,1.37-4.53,2.87-9.52,2a25.54,25.54,0,0,0-5.07,0,17.69,17.69,0,0,0-2.33.41c-2.49.65-.49,1.2,2.33,1.23a22.77,22.77,0,0,0,3.11-.16c2.83-.35,6.8,1.5,4.53,4.09-1.4,1.58-4.92,2.4-7.64,2.3a8.93,8.93,0,0,1-1.6-.19c-0.78-.17-1.9-0.36-3.16-0.52-1.06-.13-2.21-0.24-3.35-0.31-0.92,0-1.83-.07-2.65,0l-0.45,0-0.37,0a7.35,7.35,0,0,0-2,.37s-0.16,2.41-2.29,2.57c0,0-1.2.1-2.56,0.13s-3.16,0-3.63-.44a7.44,7.44,0,0,0-3.48-1.66c-1.22-.15-8-2.87,3.94-5.14,0,0,1.57-.3,3.17-0.77s3.32-1.19,3.32-1.95c0-1.12-2.29-1.17-3.32-2a1.11,1.11,0,0,1-.45-1.21,1.39,1.39,0,0,1,.45-0.73c1.1-1,3.94-1.5,6.8-1.7l0.37,0,0.45,0c0.91-.05,1.82-0.07,2.65-0.08H142a7,7,0,0,0,2.89-.54,3.41,3.41,0,0,0,2-4.16,4.64,4.64,0,0,0-2-1.88,10,10,0,0,1-3.35-3.4,9.05,9.05,0,0,1-.74-5.76,4.77,4.77,0,0,0,.74.85,1.68,1.68,0,0,0,1.67.52,5.37,5.37,0,0,0,1.67-2.17,15.67,15.67,0,0,0,2-6.54,21.67,21.67,0,0,1,2.79.1l0.77,0.09a18.07,18.07,0,0,1,3.86,1c-1.2,1.27-4.42,5-4.55,8.32a9.42,9.42,0,0,1,4.07-3.94s-2,6.81,3.18,9.54c0.06,0,2.61-.33,1.5-7.42a6.27,6.27,0,0,1,.75-3.55l0.39,0.35,0.17,0.16,0.16-.17,1.46-1.48,0.16-.16-0.16-.17c-0.26-.28-0.54-0.55-0.81-0.8a19.75,19.75,0,0,1,1.67-2,12.32,12.32,0,0,0,1.07,9.39c2.57,4.55.89,9.06,0.15,10.73s-2.64,4.24-5.69,4.79C159.67,576.22,164,576.14,164.24,578.56Z" transform="translate(0)"/><path id="_Path_6" data-name="&lt;Path&gt;" class="cls-2" d="M157.59,576.45l0.21-.05C156.88,576.49,156.54,576.6,157.59,576.45Z" transform="translate(0)"/><path id="_Path_7" data-name="&lt;Path&gt;" class="cls-2" d="M112.95,512.87a1.53,1.53,0,0,0,1.66-1.5,1.56,1.56,0,0,0-1.66-1.52l-0.46,0h-1.21v3.07h1.21A3.68,3.68,0,0,0,112.95,512.87Z" transform="translate(0)"/><path id="_Path_8" data-name="&lt;Path&gt;" class="cls-2" d="M115,516.73c0-1.27-1.06-1.67-2.07-1.75l-0.46,0h-1.21v3.57h1.21l0.46,0C114.11,518.41,115,517.93,115,516.73Z" transform="translate(0)"/><path id="_Compound_Path_7" data-name="&lt;Compound Path&gt;" class="cls-2" d="M121.7,523V505.4H104.26V523H121.7Zm-13-15.24H113c2.84,0,4.27,1.11,4.27,3.5a2.72,2.72,0,0,1-2.16,2.66,3.13,3.13,0,0,1,2.59,3.24c0,2.44-2.07,3.53-4.19,3.53h-4.85V507.73Z" transform="translate(0)"/></g><path id="_Compound_Path_8" data-name="&lt;Compound Path&gt;" class="cls-2" d="M121.42,619h0v-6.52h1.36v5.36H126V619h-4.6Zm-5.54,0v-6.52h4.64v1.16h-3.28v1.48h2.86v1.12h-2.86V619h-1.36Zm-5.35,0h-1.27v-6.52h1.43L113.3,617v-4.58h1.27V619h-1.36l-2.69-4.7V619Zm-3.84,0v-6.52H108V619h-1.36Zm14.51-19.06,0.86-1.31h1.39l-1.33,1.31H121.2Zm-0.14,7.18v-6.52h1.36v6.52h-1.36Zm5.47,11.67V619h-0.07Zm0-18.36v1.16h0a1.55,1.55,0,0,0-1.3.61,2.71,2.71,0,0,0-.47,1.69,2.6,2.6,0,0,0,.47,1.66,1.56,1.56,0,0,0,1.3.6h0v1.16h0a3,3,0,0,1-2.28-.92,3.51,3.51,0,0,1-.85-2.48,3.63,3.63,0,0,1,.85-2.53,2.92,2.92,0,0,1,2.28-.94h0Zm-10.91,6.69h0v-6.52H117v5.36h3.24v1.16h-4.6Zm13.91,5.36v1.45h0l-0.87,2.62h0.87v1.12h-1.25L127.86,619h-1.33v-0.21l2.23-6.31h0.77Zm0-9.73V605a3.15,3.15,0,0,1-.56,1.17l0.56,0.52V607l-0.54.57-0.78-.72a3.2,3.2,0,0,1-1.68.43v-1.16a1.65,1.65,0,0,0,.73-0.14l-0.67-.62,0.69-.73,0.71,0.65a2.84,2.84,0,0,0,.31-1.41,2.74,2.74,0,0,0-.47-1.69,1.55,1.55,0,0,0-1.3-.61v-1.16a2.92,2.92,0,0,1,2.29.94,3.18,3.18,0,0,1,.72,1.39M134.73,619h-1.27v-6.52h2l1.19,5.16,1.17-5.16h2V619H138.5V613.5h0L137.29,619h-1.34l-1.22-5.6V619Zm2.47-11.88v-6.52h1.36v6.52H137.2ZM136,604.64a2.25,2.25,0,0,1-2.63,2.63,2.7,2.7,0,0,1-2-.64,2.75,2.75,0,0,1-.65-2v-4.06h1.36v4.11a1.51,1.51,0,0,0,.32,1.05,1.23,1.23,0,0,0,1,.35,1.27,1.27,0,0,0,1-.32,1.58,1.58,0,0,0,.29-1.08v-4.11H136v4.06Zm-6.44.36v-2.27a4.87,4.87,0,0,1,.13,1.15,4.66,4.66,0,0,1-.13,1.13m0,2v-0.3l0.15,0.14Zm0,10.66v-1.12h0.86l-0.86-2.62v-1.45h0.8l2.31,6.52h-1.44l-0.44-1.33h-1.23Zm13.06-4.39v4.39h-0.19L142,619h-1.41Zm0-12.69v1.13h-1.4V606h1.4v1.14h-2.76v-6.52h2.76Zm1.06,11.88v1.45h0l-0.87,2.62h0.87v1.12h-1.06v-4.39l0.29-.81h0.77Zm0-1.47v0.81h-0.52Zm0-5.68v1.6a3.23,3.23,0,0,1-1.06.19V606a1.38,1.38,0,0,0,1-.54Zm0-4.59v1.54l0-.06a1.32,1.32,0,0,0-1-.5v-1.13h0a3.41,3.41,0,0,1,1,.15m0,6.19v-1.6a3,3,0,0,0,.34-1.58,2.6,2.6,0,0,0-.34-1.47v-1.54a2.2,2.2,0,0,1,1,.64,3.37,3.37,0,0,1,.7,2.31,3.91,3.91,0,0,1-.73,2.55,2.3,2.3,0,0,1-1,.69m0,4.89V611l0.33-.51h1.4L144,611.8h-0.4Zm0,5.86v-1.12h0.87l-0.87-2.62v-1.45h0.8l2.31,6.52h-1.44l-0.44-1.33h-1.23Zm5.57-2.9v3.93l-2.1-6.21h1.44Zm0-14.34v1.16a1.54,1.54,0,0,0-1.3.61,2.71,2.71,0,0,0-.47,1.69,2.62,2.62,0,0,0,.47,1.66,1.57,1.57,0,0,0,1.3.6v1.16a3,3,0,0,1-2.29-.92,3.53,3.53,0,0,1-.85-2.48,3.64,3.64,0,0,1,.85-2.53A2.93,2.93,0,0,1,149.23,600.41Zm16.58,14h0a1,1,0,0,0-.41-0.74,1.6,1.6,0,0,0-1-.27,1.3,1.3,0,0,0-.81.23,0.75,0.75,0,0,0-.29.64,0.5,0.5,0,0,0,.3.45,6.14,6.14,0,0,0,1.28.37,4.68,4.68,0,0,1,1.9.74,1.66,1.66,0,0,1,.48,1.33,1.72,1.72,0,0,1-.72,1.46,3.21,3.21,0,0,1-2,.54,3,3,0,0,1-1.93-.57,2.11,2.11,0,0,1-.74-1.63h1.31a1,1,0,0,0,.37.8,1.56,1.56,0,0,0,1,.28,2,2,0,0,0,1-.21,0.65,0.65,0,0,0,.37-0.59,0.61,0.61,0,0,0-.26-0.54,3.87,3.87,0,0,0-1.1-.36,5.8,5.8,0,0,1-2.07-.75,1.46,1.46,0,0,1-.52-1.24,1.82,1.82,0,0,1,.69-1.5,2.86,2.86,0,0,1,1.86-.56,2.68,2.68,0,0,1,1.78.58,2.17,2.17,0,0,1,.76,1.56H165.8ZM159.64,619v-6.52H161V619h-1.36Zm-5.94,0h0v-6.52h4.8v1.16h-3.44V615h3.19v1.12h-3.19v1.7h3.59V619H153.7ZM157,602.54h0a1,1,0,0,0-.41-0.74,1.59,1.59,0,0,0-1-.27,1.28,1.28,0,0,0-.81.23,0.76,0.76,0,0,0-.29.64,0.5,0.5,0,0,0,.3.45,6,6,0,0,0,1.28.37,4.68,4.68,0,0,1,1.9.74,1.67,1.67,0,0,1,.48,1.33,1.72,1.72,0,0,1-.72,1.46,3.2,3.2,0,0,1-2,.54,3,3,0,0,1-1.93-.57,2.11,2.11,0,0,1-.74-1.63h1.31a1,1,0,0,0,.37.8,1.59,1.59,0,0,0,1,.28,2,2,0,0,0,1-.21,0.65,0.65,0,0,0,.37-0.59,0.59,0.59,0,0,0-.27-0.54,3.68,3.68,0,0,0-1.1-.36,5.83,5.83,0,0,1-2.07-.75,1.46,1.46,0,0,1-.52-1.24,1.84,1.84,0,0,1,.69-1.5,2.87,2.87,0,0,1,1.86-.56,2.69,2.69,0,0,1,1.78.57,2.15,2.15,0,0,1,.76,1.56H157Zm-7.75,4.74v-1.16a1.57,1.57,0,0,0,1.3-.6,2.62,2.62,0,0,0,.47-1.66,2.74,2.74,0,0,0-.47-1.69,1.55,1.55,0,0,0-1.3-.61v-1.16a2.92,2.92,0,0,1,2.29.94,3.66,3.66,0,0,1,.84,2.53,3.54,3.54,0,0,1-.84,2.48,3,3,0,0,1-2.29.92m0,11.4v-3.93l0.77,2.69h0l1.43-5h1.4L150.62,619h-1.29Z" transform="translate(0)"/><path id="_Compound_Path_9" data-name="&lt;Compound Path&gt;" class="cls-3" d="M38.66,600.4v1.16a1.55,1.55,0,0,0-1.3.61,2.73,2.73,0,0,0-.47,1.69,2.63,2.63,0,0,0,.47,1.66,1.57,1.57,0,0,0,1.3.59v1.16a2.94,2.94,0,0,1-2.28-.92,3.5,3.5,0,0,1-.85-2.48,3.64,3.64,0,0,1,.85-2.54A2.93,2.93,0,0,1,38.66,600.4Zm-3.5,4.41h0a2.68,2.68,0,0,1-.89,1.8,2.84,2.84,0,0,1-1.93.66,2.76,2.76,0,0,1-2.19-.92,3.6,3.6,0,0,1-.81-2.48,3.74,3.74,0,0,1,.81-2.54,2.75,2.75,0,0,1,2.19-.94,2.92,2.92,0,0,1,1.92.63,2.51,2.51,0,0,1,.9,1.7H33.79a1.21,1.21,0,0,0-.45-0.84,1.53,1.53,0,0,0-1-.31,1.39,1.39,0,0,0-1.19.61,2.87,2.87,0,0,0-.43,1.68,2.77,2.77,0,0,0,.43,1.64,1.39,1.39,0,0,0,1.19.59,1.42,1.42,0,0,0,1-.35,1.39,1.39,0,0,0,.45-0.93h1.37Zm11.19,9.6h0a1,1,0,0,0-.41-0.74,1.61,1.61,0,0,0-1-.27,1.3,1.3,0,0,0-.81.23,0.76,0.76,0,0,0-.29.64,0.49,0.49,0,0,0,.3.45,6,6,0,0,0,1.28.38,4.58,4.58,0,0,1,1.9.74,1.66,1.66,0,0,1,.48,1.33,1.71,1.71,0,0,1-.72,1.45,3.16,3.16,0,0,1-2,.54,3,3,0,0,1-1.93-.57,2.12,2.12,0,0,1-.74-1.63h1.31a1,1,0,0,0,.38.8,1.55,1.55,0,0,0,1,.28,2,2,0,0,0,1-.21,0.65,0.65,0,0,0,.37-0.59,0.6,0.6,0,0,0-.27-0.54,3.8,3.8,0,0,0-1.1-.36,5.84,5.84,0,0,1-2.07-.75,1.48,1.48,0,0,1-.52-1.25,1.84,1.84,0,0,1,.69-1.5,2.86,2.86,0,0,1,1.86-.56,2.68,2.68,0,0,1,1.78.58,2.13,2.13,0,0,1,.76,1.56H46.35Zm-2.64-7.32H42.43v-6.52h2l1.19,5.16,1.17-5.16h2v6.52H47.48v-5.48h0l-1.22,5.48H44.93l-1.22-5.6v5.6Zm-5.05.17v-1.16a1.57,1.57,0,0,0,1.3-.59,2.63,2.63,0,0,0,.47-1.66,2.73,2.73,0,0,0-.47-1.69,1.55,1.55,0,0,0-1.3-.61V600.4a2.94,2.94,0,0,1,2.29.94,3.65,3.65,0,0,1,.84,2.54,3.51,3.51,0,0,1-.84,2.48,3,3,0,0,1-2.29.92m13.61,5.13v1.31a1.65,1.65,0,0,0-.94-0.26,1.54,1.54,0,0,0-1.3.61,2.7,2.7,0,0,0-.47,1.69A2.63,2.63,0,0,0,50,617.4a1.56,1.56,0,0,0,1.3.59,1.65,1.65,0,0,0,.94-0.26V619a3.62,3.62,0,0,1-.94.11,3,3,0,0,1-2.28-.91,3.54,3.54,0,0,1-.85-2.49,3.63,3.63,0,0,1,.85-2.53,2.91,2.91,0,0,1,2.28-.94,3.78,3.78,0,0,1,.94.11m0-1.92v0.76l-0.56.56H50.79l0.86-1.31h0.63Zm0-9.9v1.12H51v1.43h1.29v1.1H51V606h1.29v1.13H49.68v-6.52h2.59Zm8,18.4v-6.51h1.36V619H60.23Zm-5.06,0h0v-6.51h1.36v5.36h3.24V619h-4.6Zm5.91-14.33a2.24,2.24,0,0,1-2.63,2.63,2.3,2.3,0,0,1-2.63-2.63v-4.06h1.36v4.1a1.54,1.54,0,0,0,.32,1.06,1.24,1.24,0,0,0,1,.34,1.28,1.28,0,0,0,1-.32,1.59,1.59,0,0,0,.29-1.08v-4.1h1.36v4.06Zm-8.81,2.46V606h0.37a1.19,1.19,0,0,0,.8-0.23,0.88,0.88,0,0,0,.27-0.7,0.72,0.72,0,0,0-.27-0.61,1.38,1.38,0,0,0-.82-0.2H52.27v-1.1h0.27a1.27,1.27,0,0,0,.76-0.19,0.68,0.68,0,0,0,.25-0.58,0.54,0.54,0,0,0-.27-0.5,1.53,1.53,0,0,0-.8-0.17H52.27v-1.12h0.57a2.25,2.25,0,0,1,1.47.44,1.48,1.48,0,0,1,.53,1.21,1.41,1.41,0,0,1-.6,1.23,1.22,1.22,0,0,1-.21.13,1.88,1.88,0,0,1,.4.21,1.42,1.42,0,0,1,.63,1.26,1.86,1.86,0,0,1-.62,1.52,2.74,2.74,0,0,1-1.8.52H52.27Zm0,4.14v-0.76H53Zm0,7.8v-1.3a1.65,1.65,0,0,0,.36-0.34,2.61,2.61,0,0,0,.47-1.66,2.7,2.7,0,0,0-.47-1.69,1.61,1.61,0,0,0-.36-0.35V612.4a2.72,2.72,0,0,1,1.35.83,3.63,3.63,0,0,1,.84,2.53,3.53,3.53,0,0,1-.84,2.49,2.7,2.7,0,0,1-1.35.8m13-6.58v1.13h-1.4v4.27h1.4V619H62.49v-6.51h2.76Zm0-6.45v1.18a4.49,4.49,0,0,1-.87.08,3,3,0,0,1-1.93-.57,2.13,2.13,0,0,1-.74-1.63H63a1,1,0,0,0,.38.8,1.55,1.55,0,0,0,1,.28,2.3,2.3,0,0,0,.87-0.14m0-5.5v1.35l-0.09-.07a1.6,1.6,0,0,0-1-.27,1.29,1.29,0,0,0-.81.23,0.77,0.77,0,0,0-.29.64,0.5,0.5,0,0,0,.3.45,5.91,5.91,0,0,0,1.29.38l0.57,0.14v1.33a6.13,6.13,0,0,0-.85-0.24,5.84,5.84,0,0,1-2.07-.75,1.48,1.48,0,0,1-.52-1.24A1.84,1.84,0,0,1,62.5,601a2.86,2.86,0,0,1,1.86-.56,3.4,3.4,0,0,1,.9.11m0,1.35v-1.35a2.38,2.38,0,0,1,.89.46,2.15,2.15,0,0,1,.76,1.56H65.57a1,1,0,0,0-.32-0.67m0,5.33V606l0.15-.07a0.65,0.65,0,0,0,.37-0.59,0.6,0.6,0,0,0-.27-0.54,1.29,1.29,0,0,0-.25-0.12v-1.33a3.57,3.57,0,0,1,1.33.59,1.66,1.66,0,0,1,.48,1.33,1.72,1.72,0,0,1-.72,1.46,2.65,2.65,0,0,1-1.09.46m0,11.78v-1.13a1.39,1.39,0,0,0,1-.55,2.84,2.84,0,0,0,.41-1.68,2.48,2.48,0,0,0-.39-1.52,1.31,1.31,0,0,0-1-.5v-1.13h0a2.58,2.58,0,0,1,2,.79,3.38,3.38,0,0,1,.7,2.31,3.91,3.91,0,0,1-.73,2.55,2.58,2.58,0,0,1-2,.87m6.26-6.69v1.16a1.54,1.54,0,0,0-1.3.61,2.7,2.7,0,0,0-.47,1.69,2.63,2.63,0,0,0,.47,1.66,1.56,1.56,0,0,0,1.3.59v1.16a3,3,0,0,1-2.29-.91,3.52,3.52,0,0,1-.85-2.49,3.61,3.61,0,0,1,.85-2.53A2.92,2.92,0,0,1,71.51,612.29Zm0-11.7v1.16h-1v5.36H69.12v-5.36h-2v-1.16h4.35Zm7.37,13.84h0a1,1,0,0,0-.41-0.74,1.6,1.6,0,0,0-1-.27,1.3,1.3,0,0,0-.81.23,0.78,0.78,0,0,0-.29.64,0.5,0.5,0,0,0,.31.45,6,6,0,0,0,1.28.38,4.58,4.58,0,0,1,1.9.74,1.66,1.66,0,0,1,.48,1.33,1.71,1.71,0,0,1-.72,1.45,3.18,3.18,0,0,1-2,.54,3,3,0,0,1-1.93-.57A2.13,2.13,0,0,1,75,617h1.31a1,1,0,0,0,.38.8,1.57,1.57,0,0,0,1,.28,2,2,0,0,0,1-.21,0.65,0.65,0,0,0,.37-0.59,0.6,0.6,0,0,0-.26-0.54,3.84,3.84,0,0,0-1.1-.36,5.78,5.78,0,0,1-2.07-.75,1.47,1.47,0,0,1-.52-1.25,1.84,1.84,0,0,1,.69-1.5,2.87,2.87,0,0,1,1.86-.56,2.68,2.68,0,0,1,1.78.58,2.15,2.15,0,0,1,.76,1.56H78.88Zm13.18-11.88h0a1,1,0,0,0-.41-0.74,1.62,1.62,0,0,0-1-.27,1.29,1.29,0,0,0-.81.23,0.77,0.77,0,0,0-.29.64,0.49,0.49,0,0,0,.31.45,5.79,5.79,0,0,0,1.28.38,4.68,4.68,0,0,1,1.9.74,1.66,1.66,0,0,1,.48,1.33,1.72,1.72,0,0,1-.72,1.46,3.2,3.2,0,0,1-2,.54,3,3,0,0,1-1.93-.57,2.13,2.13,0,0,1-.74-1.63H89.5a1,1,0,0,0,.38.8,1.56,1.56,0,0,0,1,.28,2,2,0,0,0,1-.21,0.65,0.65,0,0,0,.36-0.59,0.6,0.6,0,0,0-.26-0.54,3.88,3.88,0,0,0-1.1-.36,5.84,5.84,0,0,1-2.07-.75,1.47,1.47,0,0,1-.52-1.24A1.84,1.84,0,0,1,89,601a2.88,2.88,0,0,1,1.86-.56,2.68,2.68,0,0,1,1.78.58,2.17,2.17,0,0,1,.76,1.56H92.06Zm-5.79,4.56v-6.52h1.36v6.52H86.27Zm-5.57,0h0v-6.52H85.5v1.16H82.06v1.39h3.19v1.12H82.06v1.7h3.59v1.16H80.71Zm-6.2-6.52H76l1.43,5h0l1.43-5h1.4L78,607.1H76.72Zm-1.6-.66,0.86-1.32h1.39l-1.33,1.32H72.91Zm-0.14,7.18v-6.52h1.36v6.52H72.77Zm-1.27-5.36v-1.16h0.94v1.16H71.51Zm0,17.42V618a1.56,1.56,0,0,0,1.3-.59,2.61,2.61,0,0,0,.47-1.66,2.7,2.7,0,0,0-.47-1.69,1.54,1.54,0,0,0-1.3-.61v-1.16a2.91,2.91,0,0,1,2.29.94,3.65,3.65,0,0,1,.84,2.53,3.55,3.55,0,0,1-.84,2.49,3,3,0,0,1-2.29.91" transform="translate(0)"/><path id="_Compound_Path_10" data-name="&lt;Compound Path&gt;" class="cls-4" d="M185.34,600.41v1.16a1.55,1.55,0,0,0-1.3.61,2.72,2.72,0,0,0-.47,1.7,2.62,2.62,0,0,0,.47,1.65,1.57,1.57,0,0,0,1.3.6h0v1.16a3,3,0,0,1-2.29-.92,3.52,3.52,0,0,1-.84-2.48,3.64,3.64,0,0,1,.84-2.53,2.93,2.93,0,0,1,2.29-.94m-8.89,6.69h0v-6.52h4.79v1.16h-3.43v1.38H181v1.12h-3.19v1.7h3.59v1.16h-4.95ZM193.35,619h0v-6.52h1.36v5.36h3.24V619h-4.6Zm-6.06,0h0v-6.52h4.8v1.16h-3.44V615h3.19v1.12h-3.19v1.7h3.59V619h-4.94ZM196,607.1v-6.52h1.36v6.52H196Zm-1.22-2.46a2.25,2.25,0,0,1-2.63,2.63,2.31,2.31,0,0,1-2.63-2.63v-4.06h1.36v4.11a1.53,1.53,0,0,0,.31,1.05,1.23,1.23,0,0,0,1,.35,1.26,1.26,0,0,0,1-.32,1.58,1.58,0,0,0,.3-1.08v-4.11h1.36v4.06Zm-9.44,2.63v-1.16a1.65,1.65,0,0,0,.73-0.14l-0.67-.62,0.69-.73,0.71,0.65a2.84,2.84,0,0,0,.31-1.41,2.74,2.74,0,0,0-.47-1.7,1.55,1.55,0,0,0-1.3-.61v-1.16a2.92,2.92,0,0,1,2.29.94,4.21,4.21,0,0,1,.16,4.83l0.71,0.66-0.69.74-0.78-.72a3.22,3.22,0,0,1-1.69.43m15.8,5.19v1.16h-0.89V615h0.89v1.12h-0.89v1.7h0.89V619h-2.25v-6.52h2.25Zm0-1.25v0.59h-0.38Zm0-10.63v1.12H200v1.95h1.14v1.12H200v2.32h-1.36v-6.52h2.5Zm0,4.19v-1.12a1.27,1.27,0,0,0,.86-0.25,1,1,0,0,0,.29-0.76,0.85,0.85,0,0,0-.29-0.7,1.34,1.34,0,0,0-.86-0.23v-1.12h0.23a2.45,2.45,0,0,1,1.69.52,1.93,1.93,0,0,1,.58,1.52,2.09,2.09,0,0,1-.58,1.6,2.37,2.37,0,0,1-1.69.55h-0.23Zm0,7v-0.59l0.47-.73H203l-1.33,1.31h-0.53Zm0,1.82v-1.16h2.55v1.16h-2.55Zm0,2.5V615h2.3v1.12h-2.3Zm0,2.86v-1.16h2.7V619h-2.7Zm6.12-6.52V619h-0.91v-5.36h-2v-1.16h2.88Zm0-11.88V602l-0.87,2.62h0.87v1.12H206l-0.43,1.33h-1.41l2.3-6.52h0.77Zm0,5.19v-1.12h0.87L207.26,602v-1.45h0.81l2.31,6.52h-1.44l-0.44-1.33h-1.23Zm0,13.21v-6.52h2.42v1.16h-2V619h-0.45Zm5.9-6.52v1.12h-1.31v1.73h1.31v1.09h-1.31V619h-1.36v-6.52h2.68Zm0-11.88v4.18l-0.71-3.26h0v5.6h-1.27v-6.52h2Zm11.92,16.12h0a2.66,2.66,0,0,1-.88,1.79,2.83,2.83,0,0,1-1.93.67,2.77,2.77,0,0,1-2.19-.92,3.62,3.62,0,0,1-.81-2.48,3.73,3.73,0,0,1,.81-2.53,2.74,2.74,0,0,1,2.19-.94,2.92,2.92,0,0,1,1.92.63,2.51,2.51,0,0,1,.89,1.7h-1.36a1.22,1.22,0,0,0-.45-0.84,1.55,1.55,0,0,0-1-.31,1.38,1.38,0,0,0-1.19.6,2.87,2.87,0,0,0-.43,1.68,2.74,2.74,0,0,0,.43,1.64,1.38,1.38,0,0,0,1.19.6,1.44,1.44,0,0,0,1-.35,1.4,1.4,0,0,0,.45-0.93h1.36ZM216.93,619v-6.52h1.36V619h-1.36Zm1.88-11.88h0v-6.52h4.79v1.16h-3.43v1.38h3.19v1.12h-3.19v1.7h3.59v1.16h-4.95Zm-5.65-2.34v-4.18h0l1.19,5.17,1.17-5.17h2v6.52h-1.27v-5.48h0L215,607.1h-1.34Zm0,11.64v-1.09h0.26a1.26,1.26,0,0,0,.79-0.21,0.78,0.78,0,0,0,.26-0.65,0.8,0.8,0,0,0-.25-0.65,1.12,1.12,0,0,0-.75-0.21h-0.32v-1.12h0.61a2.2,2.2,0,0,1,1.5.5,1.66,1.66,0,0,1,.57,1.31,1.55,1.55,0,0,1-.63,1.37,1.85,1.85,0,0,1-.38.2L215,616a1.23,1.23,0,0,1,.58,1.12l0,1.07a1.29,1.29,0,0,0,.07.45,0.41,0.41,0,0,0,.22.21V619h-1.5a1.42,1.42,0,0,1-.09-0.43,6.21,6.21,0,0,1,0-.72v-0.6a0.74,0.74,0,0,0-.26-0.62,1.42,1.42,0,0,0-.83-0.19h0Zm15.8-4.11v1.16a1.55,1.55,0,0,0-1.3.61,2.74,2.74,0,0,0-.47,1.69,2.62,2.62,0,0,0,.47,1.66,1.57,1.57,0,0,0,1.3.6v1.16a3,3,0,0,1-2.28-.92,3.51,3.51,0,0,1-.85-2.48,3.62,3.62,0,0,1,.85-2.53A2.91,2.91,0,0,1,229,612.29Zm0-11.71v6.52h-0.2l-2.69-4.7v4.7H224.8v-6.52h1.43l2.61,4.58v-4.58H229Zm7.76,13.84h0a1,1,0,0,0-.41-0.74,1.61,1.61,0,0,0-1-.27,1.28,1.28,0,0,0-.81.23,0.76,0.76,0,0,0-.29.64,0.49,0.49,0,0,0,.31.45,5.85,5.85,0,0,0,1.28.37,4.66,4.66,0,0,1,1.9.74,1.65,1.65,0,0,1,.48,1.33,1.72,1.72,0,0,1-.72,1.46,3.2,3.2,0,0,1-2,.54,3,3,0,0,1-1.93-.57,2.1,2.1,0,0,1-.74-1.63h1.31a1,1,0,0,0,.38.8,1.56,1.56,0,0,0,1,.28,2,2,0,0,0,1-.21,0.65,0.65,0,0,0,.37-0.59,0.62,0.62,0,0,0-.26-0.54,3.91,3.91,0,0,0-1.1-.36,5.91,5.91,0,0,1-2.07-.75,1.47,1.47,0,0,1-.52-1.25,1.84,1.84,0,0,1,.69-1.5,2.87,2.87,0,0,1,1.86-.56,2.66,2.66,0,0,1,1.78.57,2.15,2.15,0,0,1,.76,1.56h-1.32Zm-3.89-7.32v-5.36h-2v-1.16h5.3v1.16h-2v5.36h-1.36Zm-3.87,0v-6.52h1.15v6.52H229Zm0,12.06V618a1.57,1.57,0,0,0,1.3-.6,2.62,2.62,0,0,0,.47-1.66,2.74,2.74,0,0,0-.47-1.69,1.55,1.55,0,0,0-1.3-.61v-1.16a2.92,2.92,0,0,1,2.29.94,3.63,3.63,0,0,1,.84,2.53,3.53,3.53,0,0,1-.84,2.48,3,3,0,0,1-2.29.92m10.84-18.75v1.16a1.55,1.55,0,0,0-1.3.61,2.72,2.72,0,0,0-.47,1.7,2.62,2.62,0,0,0,.47,1.65,1.57,1.57,0,0,0,1.3.6v1.16a2.94,2.94,0,0,1-2.28-.92,3.51,3.51,0,0,1-.85-2.48,3.63,3.63,0,0,1,.85-2.53,2.91,2.91,0,0,1,2.28-.94m7.76,2.13h0a1,1,0,0,0-.41-0.74,1.59,1.59,0,0,0-1-.27,1.29,1.29,0,0,0-.81.23,0.76,0.76,0,0,0-.29.64,0.5,0.5,0,0,0,.3.45,6,6,0,0,0,1.29.37,4.67,4.67,0,0,1,1.9.74,1.65,1.65,0,0,1,.48,1.32,1.72,1.72,0,0,1-.72,1.46,3.2,3.2,0,0,1-2,.54,3,3,0,0,1-1.93-.57,2.11,2.11,0,0,1-.74-1.63H245a1,1,0,0,0,.38.8,1.57,1.57,0,0,0,1,.28,2,2,0,0,0,1-.21,0.65,0.65,0,0,0,.37-0.59,0.6,0.6,0,0,0-.27-0.54,3.68,3.68,0,0,0-1.1-.36,5.91,5.91,0,0,1-2.07-.75,1.48,1.48,0,0,1-.52-1.25,1.83,1.83,0,0,1,.69-1.5,2.86,2.86,0,0,1,1.86-.56,2.69,2.69,0,0,1,1.78.57,2.16,2.16,0,0,1,.76,1.56h-1.32Zm-7.76,4.74v-1.16a1.57,1.57,0,0,0,1.3-.6,2.62,2.62,0,0,0,.47-1.65,2.74,2.74,0,0,0-.47-1.7,1.55,1.55,0,0,0-1.3-.61v-1.16a2.92,2.92,0,0,1,2.29.94,3.64,3.64,0,0,1,.84,2.53,3.52,3.52,0,0,1-.84,2.48,3,3,0,0,1-2.29.92" transform="translate(0)"/><polygon id="_Path_9" data-name="&lt;Path&gt;" class="cls-5" points="266.46 499.95 271.06 508.21 280.96 509.69 273.89 516.29 275.42 525.46 266.45 521.28 257.5 525.46 259.02 516.27 251.96 509.69 261.87 508.2 266.46 499.95"/><path id="_Compound_Path_11" data-name="&lt;Compound Path&gt;" class="cls-1" d="M262.27,520.84V508.26h5.16v2.17h-2.62v8.25H267a3.94,3.94,0,0,0,.47,0v2.19h-5.16Zm5.16-12.58h0a4.74,4.74,0,0,1,3.81,1.53,6.68,6.68,0,0,1,1.3,4.46,7.68,7.68,0,0,1-1.36,4.91,4.72,4.72,0,0,1-3.81,1.68v-2.19a2.54,2.54,0,0,0,1.85-1.06,5.57,5.57,0,0,0,.78-3.25,4.92,4.92,0,0,0-.72-2.94,2.44,2.44,0,0,0-1.9-1v-2.17Z" transform="translate(0)"/><path id="_Compound_Path_12" data-name="&lt;Compound Path&gt;" class="cls-5" d="M273.24,619h0v-6.51h1.36v5.36h3.24V619h-4.6Zm-5.54,0v-6.51h4.64v1.16h-3.28v1.48h2.86v1.12h-2.86V619h-1.36Zm-5.35,0h-1.27v-6.51h1.43l2.61,4.57v-4.57h1.27V619H265l-2.69-4.7V619Zm-3.84,0v-6.51h1.36V619h-1.36Zm22.84-6.51v1.45h0l-0.86,2.62h0.87v1.12H280.1L279.68,619h-1.41l2.31-6.51h0.77Zm0-11.88v1.16h-0.2v1.39h0.2v1.12h-0.2v1.7h0.2v1.16h-1.56v-6.51h1.56Zm-7.91,6.51h-1.27v-6.51h2l1.19,5.16,1.17-5.16h2v6.51h-1.27v-5.48L276,607.1h-1.34l-1.21-5.6h0v5.6ZM286.54,619h-1.27v-6.51h2l1.19,5.16,1.17-5.16h2V619h-1.27V613.5L289.1,619h-1.34l-1.22-5.6V619Zm0.71-11.88v-5.36h-2v-1.16h5.3v1.16h-2v5.36h-1.36Zm-5.9-5.36v-1.16h3.24v1.16h-3.24Zm0,2.5v-1.12h3v1.12h-3Zm0,2.86v-1.16h3.39v1.16h-3.39Zm0,10.56v-1.12h0.86l-0.86-2.61v-1.45h0.8l2.31,6.51H283l-0.44-1.33h-1.23ZM294,614.54v3.93l-0.16.51h-1.41Zm0-14V602l-0.87,2.62H294v1.12h-1.24l-0.43,1.33h-1.4l2.3-6.51H294Zm1.51,11.88v1.45h0l-0.86,2.62h0.86v1.12h-1.24l-0.26.82v-3.93l0.74-2.08h0.77Zm0-1.47v0.8h-0.52Zm0-8.43v4l-0.27-.83H294v-1.12h0.87L294,602v-1.45h0.81Zm22.15,11.86h0a1,1,0,0,0-.4-0.74,1.62,1.62,0,0,0-1-.27,1.28,1.28,0,0,0-.81.23,0.76,0.76,0,0,0-.29.64,0.49,0.49,0,0,0,.31.45,5.79,5.79,0,0,0,1.28.37,4.68,4.68,0,0,1,1.9.74,1.66,1.66,0,0,1,.48,1.33,1.72,1.72,0,0,1-.72,1.45,3.2,3.2,0,0,1-2,.54,3,3,0,0,1-1.93-.57,2.1,2.1,0,0,1-.74-1.63h1.31a1,1,0,0,0,.37.8,1.55,1.55,0,0,0,1,.28,2.05,2.05,0,0,0,1-.21,0.65,0.65,0,0,0,.36-0.58,0.6,0.6,0,0,0-.26-0.54,3.8,3.8,0,0,0-1.1-.36,5.88,5.88,0,0,1-2.07-.75,1.47,1.47,0,0,1-.52-1.25,1.83,1.83,0,0,1,.69-1.5,2.87,2.87,0,0,1,1.86-.56,2.67,2.67,0,0,1,1.78.57,2.15,2.15,0,0,1,.76,1.56h-1.33ZM311.45,619v-6.51h1.36V619h-1.36Zm-5.94,0h0v-6.51h4.8v1.16h-3.44V615h3.19v1.12h-3.19v1.7h3.59V619h-4.95Zm-6.57-6.51h1.44l1.43,5h0l1.43-5h1.41L302.44,619h-1.29Zm5.07-9.93h0a1,1,0,0,0-.41-0.74,1.61,1.61,0,0,0-1-.27,1.29,1.29,0,0,0-.81.23,0.76,0.76,0,0,0-.29.64,0.5,0.5,0,0,0,.31.45,5.85,5.85,0,0,0,1.28.37,4.67,4.67,0,0,1,1.9.74,1.65,1.65,0,0,1,.48,1.33,1.74,1.74,0,0,1-.72,1.46,3.24,3.24,0,0,1-2,.54,3,3,0,0,1-1.93-.57,2.11,2.11,0,0,1-.74-1.63h1.31a1,1,0,0,0,.38.8,1.56,1.56,0,0,0,1,.28,2,2,0,0,0,1-.21,0.64,0.64,0,0,0,.36-0.58,0.6,0.6,0,0,0-.26-0.54,3.84,3.84,0,0,0-1.1-.36,5.91,5.91,0,0,1-2.07-.75,1.47,1.47,0,0,1-.52-1.25,1.83,1.83,0,0,1,.69-1.5,2.87,2.87,0,0,1,1.86-.56,2.68,2.68,0,0,1,1.78.57,2.16,2.16,0,0,1,.77,1.56H304Zm-6.16,4.56v-6.51h1.36v6.51h-1.36Zm-2.37-.49v-4l1.61,4.54h-1.44Zm0,5.19V611l0.33-.51h1.39l-1.33,1.31h-0.39Zm0,5.86v-1.12h0.87l-0.87-2.61v-1.45h0.81l2.31,6.51h-1.44l-0.44-1.33h-1.23Z" transform="translate(0)"/><path id="_Compound_Path_13" data-name="&lt;Compound Path&gt;" class="cls-5" d="M321.19,580.21V532.4a6.11,6.11,0,0,0-6.11-6.12H261.31a5.43,5.43,0,0,0-5.44,5.44v0.67h0v53.09a6.1,6.1,0,0,0,1.79,4.32h0A6.1,6.1,0,0,0,262,591.6h53.76a5.45,5.45,0,0,0,5.44-5.44v-6h0Zm-32.66-52.31h26.55a4.5,4.5,0,0,1,3.19,1.32h0a4.48,4.48,0,0,1,1.31,3.19v46.19l-10.31-10.31,0,0a4.85,4.85,0,0,0,.44-4.26,5.24,5.24,0,0,0-2.36-2.47,5.58,5.58,0,0,1-.29,3.5,3.39,3.39,0,0,1-.44.63L291,550c0.65-2,1.37-3.22,1-4.21-0.62-1.71-2.34-2.83-2.42-6a5.42,5.42,0,0,1,2.48-4.62,8.21,8.21,0,0,0-3,1.25c-2.44,1.63-3.87,4.49-2.74,7.3a11.47,11.47,0,0,0,2.74,3.37,6.4,6.4,0,0,1,1.78,2.75l-10.51-10.51c0.76-2.27,1.54-4,1.29-5.48-0.21-1.25-1.19-2.22-2.79-3.1a19.7,19.7,0,0,0-2.23-1,5.82,5.82,0,0,1,.82,6.7l-8.49-8.49h19.65Zm-11.21,31.23,1.37,1.37a13.31,13.31,0,0,0,.09,9.31,13.56,13.56,0,0,0,12.69,8.76,13.47,13.47,0,0,0,4.51-.78l1.38,1.38a15.21,15.21,0,0,1-5.89,1.2,15.61,15.61,0,0,1-2.47-.2A15.4,15.4,0,0,1,276.1,565,15.19,15.19,0,0,1,277.31,559.12ZM288.52,590H262a4.49,4.49,0,0,1-3.18-1.31h0a4.48,4.48,0,0,1-1.31-3.18v-46.2l9.48,9.48a4.13,4.13,0,0,0,1,2.74,19.35,19.35,0,0,1,2.61,3.82l0.22,0.49q-0.12-.34-0.22-0.71a14.85,14.85,0,0,1-.42-3.12l3.53,3.53a20,20,0,0,0-1.47,3.41l-1.64-.57-1.23-.43a23.05,23.05,0,0,0-.8,3.39,22.62,22.62,0,0,0-.29,3.47l2.33,0h0.71V565a20.11,20.11,0,0,0,1,6.4l-1.75.53-1.16.35a22.92,22.92,0,0,0,1.16,2.86l0.18,0.36a24.24,24.24,0,0,0,1.8,3l2.44-1.83a20.44,20.44,0,0,0,3.75,4c0.32,0.26.66,0.51,1,.76l-1,1.31-0.85,1.12c0.28,0.2.56,0.4,0.85,0.59a23.47,23.47,0,0,0,5.33,2.58l0.9-2.91a20.14,20.14,0,0,0,6.46,1.06h0.17l-0.06,3a22.59,22.59,0,0,0,3.47-.28,23.15,23.15,0,0,0,3.39-.79l-1-2.88a19.9,19.9,0,0,0,3.47-1.49l7.23,7.23H288.52Z" transform="translate(0)"/><g id="_Group_4" data-name="&lt;Group&gt;"><path id="_Compound_Path_14" data-name="&lt;Compound Path&gt;" class="cls-1" d="M285.35,555.64l0.09-.09a6.47,6.47,0,0,0,1.57-2.34,4.59,4.59,0,0,0,.27-1.34,4.16,4.16,0,0,0-.27-1.75,5.19,5.19,0,0,0-1.2-1.77,5.85,5.85,0,0,0-.46-0.41,4.92,4.92,0,0,0-1-.64,4.14,4.14,0,0,0-2.08-.42,5.24,5.24,0,0,0-3.09,1.3c-0.2.16-.4,0.34-0.6,0.54l-0.39.41a5.18,5.18,0,0,0-1.4,3.22,4.54,4.54,0,0,0,1.4,3.4l0.1,0.1a6,6,0,0,0,.89.74,4.29,4.29,0,0,0,2.61.76,4.87,4.87,0,0,0,2.56-.89A6.92,6.92,0,0,0,285.35,555.64ZM284,554.06a4,4,0,0,1-2.31,1.29,2.42,2.42,0,0,1-2.07-.77,3.4,3.4,0,0,1-.37-0.44,2.31,2.31,0,0,1-.4-1.63,3.16,3.16,0,0,1,.4-1.17,5.4,5.4,0,0,1,.9-1.15,4.2,4.2,0,0,1,2.36-1.33,2.35,2.35,0,0,1,1.91.59l0.17,0.16a2.4,2.4,0,0,1,.76,2.09,3.79,3.79,0,0,1-.93,1.92C284.24,553.76,284.11,553.91,284,554.06Z" transform="translate(0)"/><path id="_Compound_Path_15" data-name="&lt;Compound Path&gt;" class="cls-1" d="M268.74,539.62a3.25,3.25,0,0,0,2.38-1.11,3,3,0,0,0,1-2.29,3.79,3.79,0,0,0-1.28-2.41l-2.24-2.24-0.57-.57-0.16-.16-7.11,7.11,0.74,0.74,0.74,0.74,2.53-2.53c0.43,0.41.93,0.9,1.5,1.48a4.23,4.23,0,0,0,1.76,1.13A2.74,2.74,0,0,0,268.74,539.62Zm-1.47-2.73L266,535.65l2-2,0.1-.1,1.24,1.24a2.05,2.05,0,0,1,.68,1.19,1.3,1.3,0,0,1-.45,1.07,1.51,1.51,0,0,1-1.15.52,1.41,1.41,0,0,1-.42-0.1A2.47,2.47,0,0,1,267.27,536.89Z" transform="translate(0)"/><path id="_Compound_Path_16" data-name="&lt;Compound Path&gt;" class="cls-1" d="M278.21,546.15a3.05,3.05,0,0,0,.58-0.47,2.89,2.89,0,0,0,.4-0.49,2.45,2.45,0,0,0,.41-1.56,3,3,0,0,0-.41-1.31,4.36,4.36,0,0,0-.68-0.87l-0.3-.3-2.54-2.54-0.24-.24-0.5-.5-6.87,6.87-0.24.24,0.24,0.23,0.51,0.51,0.74,0.74,2.81-2.81,1.48,1.48a2.19,2.19,0,0,1,.7,1.11,1.14,1.14,0,0,1-.4,1l-0.64.67a9.82,9.82,0,0,0-.74.83,2.38,2.38,0,0,0-.37.58l1.64,1.64,0.19-.19a0.67,0.67,0,0,1,0-.47,2.16,2.16,0,0,1,.42-0.57l1.06-1.12,0.07-.08a1.91,1.91,0,0,0,.59-1.85,2.18,2.18,0,0,0-.13-0.36,3,3,0,0,0,.63.2A2.16,2.16,0,0,0,278.21,546.15Zm-2.78-1.64a3.23,3.23,0,0,1-.4-0.34l-1.72-1.72,1.88-1.88,0.24,0.24,1.54,1.54a1.74,1.74,0,0,1,.59,1.06,1.25,1.25,0,0,1-.43,1,1.22,1.22,0,0,1-1,.42A1.49,1.49,0,0,1,275.43,544.51Z" transform="translate(0)"/><path id="_Compound_Path_17" data-name="&lt;Compound Path&gt;" class="cls-1" d="M307.25,576.94c0.18-.18.34-0.36,0.5-0.54a5.85,5.85,0,0,0,1-1.56,3.72,3.72,0,0,0,.27-1.18,3.28,3.28,0,0,0-.27-1.54,4.92,4.92,0,0,0-1-1.44l-0.1-.11-0.92-.92-1.38-1.39-0.74-.74-3.11,3.11L298,574.17l-0.47.47,0.47,0.47,0.27,0.27,2.18,2.18a5.41,5.41,0,0,0,1.08.85,3.55,3.55,0,0,0,2.19.51,5.5,5.5,0,0,0,3-1.49Zm-1.54-1.43a4.36,4.36,0,0,1-2.29,1.38,2.22,2.22,0,0,1-1.93-.7l0,0-1.25-1.25,1.29-1.29,3.37-3.37,1.37,1.37a2.71,2.71,0,0,1,.49.64,1.88,1.88,0,0,1,.23,1.18,2.48,2.48,0,0,1-.23.73A5.09,5.09,0,0,1,305.71,575.51Z" transform="translate(0)"/><path id="_Compound_Path_18" data-name="&lt;Compound Path&gt;" class="cls-1" d="M315.47,578a4.52,4.52,0,0,0-3.51-1.47,5.32,5.32,0,0,0-3.23,1.41c-0.16.13-.31,0.27-0.46,0.43s-0.36.38-.53,0.58a5.7,5.7,0,0,0-1,1.79,4.42,4.42,0,0,0-.24,1.27,4.15,4.15,0,0,0,.24,1.58,5,5,0,0,0,1,1.67l0.23,0.24a6.27,6.27,0,0,0,.75.64,4.3,4.3,0,0,0,2.74.85,5.45,5.45,0,0,0,3.63-1.79,5.62,5.62,0,0,0,1.84-3.69A4.53,4.53,0,0,0,315.47,578Zm-1.84,5.71a4,4,0,0,1-2.32,1.29,2.41,2.41,0,0,1-2.07-.77,3,3,0,0,1-.51-0.67,2.29,2.29,0,0,1-.26-1.4,3,3,0,0,1,.26-0.9,5,5,0,0,1,1-1.42,4.23,4.23,0,0,1,2.36-1.34,2.62,2.62,0,0,1,2.84,2.84A4.25,4.25,0,0,1,313.63,583.73Z" transform="translate(0)"/><path id="_Compound_Path_19" data-name="&lt;Compound Path&gt;" class="cls-1" d="M294.82,567.52a2.2,2.2,0,0,0,.69-2.05,2.84,2.84,0,0,0-.21-0.68,1.89,1.89,0,0,0,.38.1,2.18,2.18,0,0,0,2-.69,3,3,0,0,0,.29-0.33,2.18,2.18,0,0,0,.45-1.57A2.86,2.86,0,0,0,298,561a4.7,4.7,0,0,0-.68-0.83l-2.73-2.73-0.11-.11-0.59-.6-0.73.73L291.55,559,287,563.59l-0.28.28,0.28,0.29,0.43,0.43,2.51,2.51a5.41,5.41,0,0,0,1.61,1.16,3,3,0,0,0,.93.24,2.61,2.61,0,0,0,.61,0,2.93,2.93,0,0,0,1.33-.61A4.9,4.9,0,0,0,294.82,567.52Zm-1.46-1.5-0.26.22a1.19,1.19,0,0,1-.8.25,1.5,1.5,0,0,1-.75-0.3,2.87,2.87,0,0,1-.37-0.32l-1.8-1.81,1.9-1.9,0.28,0.28,1.49,1.5L293.1,564a2,2,0,0,1,.62,1.06A1.09,1.09,0,0,1,293.35,566Zm0.81-3.35-1.06-1.06-0.63-.63,0.63-.63,0.93-.93,0.4,0.4,1.24,1.24a2.39,2.39,0,0,1,.7,1.06,0.84,0.84,0,0,1-.26.83,1,1,0,0,1-.9.36,1.66,1.66,0,0,1-.78-0.39Z" transform="translate(0)"/><polygon id="_Path_10" data-name="&lt;Path&gt;" class="cls-1" points="291.55 555.4 292.01 554.94 291.55 554.48 291.26 554.2 290.53 553.46 287 556.98 285.35 558.63 284.36 559.62 283.42 560.57 284.16 561.31 284.36 561.52 284.9 562.05 285.35 561.6 287 559.95 291.55 555.4"/><polygon id="_Path_11" data-name="&lt;Path&gt;" class="cls-1" points="301.48 567 302.78 565.71 302.03 564.96 301.48 564.41 301.29 564.22 297.95 567.56 294.42 571.09 294.18 571.34 294.42 571.58 294.93 572.08 295.67 572.82 297.95 570.53 301.48 567"/></g><path id="_Path_12" data-name="&lt;Path&gt;" class="cls-5" d="M115.39,526.26h-5.9A5.43,5.43,0,0,0,104,531.7v5.89l54,54h5.9a5.45,5.45,0,0,0,5.44-5.44v-5.9Z" transform="translate(0)"/><g id="_Group_5" data-name="&lt;Group&gt;"><path id="_Compound_Path_20" data-name="&lt;Compound Path&gt;" class="cls-1" d="M133.73,555.84l0.08-.09a6.43,6.43,0,0,0,1.56-2.33,4.68,4.68,0,0,0,.27-1.34,4.23,4.23,0,0,0-.27-1.74,5.12,5.12,0,0,0-1.2-1.77c-0.15-.14-0.3-0.28-0.45-0.4a5,5,0,0,0-1-.64,4.19,4.19,0,0,0-2.07-.42,5.24,5.24,0,0,0-3.08,1.29,7.86,7.86,0,0,0-.59.54c-0.14.14-.27,0.27-0.39,0.41a5.16,5.16,0,0,0-1.39,3.2,4.52,4.52,0,0,0,1.39,3.38l0.09,0.1a5.87,5.87,0,0,0,.89.73,4.26,4.26,0,0,0,2.6.76,4.88,4.88,0,0,0,2.55-.89A7.61,7.61,0,0,0,133.73,555.84Zm-1.39-1.57a4,4,0,0,1-2.31,1.29,2.41,2.41,0,0,1-2.06-.77,3,3,0,0,1-.37-0.44,2.3,2.3,0,0,1-.4-1.61,3.12,3.12,0,0,1,.4-1.16,5.46,5.46,0,0,1,.9-1.14,4.21,4.21,0,0,1,2.35-1.33,2.33,2.33,0,0,1,1.9.59l0.17,0.16a2.39,2.39,0,0,1,.75,2.08,3.78,3.78,0,0,1-.92,1.91C132.63,554,132.5,554.12,132.35,554.27Z" transform="translate(0)"/><path id="_Compound_Path_21" data-name="&lt;Compound Path&gt;" class="cls-1" d="M117.2,539.9a3.21,3.21,0,0,0,2.37-1.11,3,3,0,0,0,1-2.28,3.77,3.77,0,0,0-1.27-2.4l-2.22-2.22-0.58-.58-0.16-.16-7.07,7.08L110,539l0.74,0.74,2.51-2.51q0.64,0.61,1.49,1.47a4.25,4.25,0,0,0,1.75,1.13A2.76,2.76,0,0,0,117.2,539.9Zm-1.47-2.71L114.5,536l2-2,0.1-.1,1.23,1.23a2,2,0,0,1,.68,1.18,1.3,1.3,0,0,1-.45,1.07,1.49,1.49,0,0,1-1.14.52,1.51,1.51,0,0,1-.43-0.1A2.55,2.55,0,0,1,115.74,537.19Z" transform="translate(0)"/><path id="_Compound_Path_22" data-name="&lt;Compound Path&gt;" class="cls-1" d="M126.63,546.4a3.46,3.46,0,0,0,.58-0.47,3,3,0,0,0,.4-0.49,2.43,2.43,0,0,0,.41-1.56,2.94,2.94,0,0,0-.41-1.31,4.07,4.07,0,0,0-.68-0.86l-0.3-.3-2.53-2.53-0.23-.23-0.5-.5L116.52,545l-0.23.23,0.23,0.23L117,546l0.74,0.74,2.8-2.8,1.47,1.47a2.19,2.19,0,0,1,.7,1.1,1.17,1.17,0,0,1-.4,1l-0.64.66a9,9,0,0,0-.73.83,2.1,2.1,0,0,0-.37.58l1.63,1.63,0.19-.19a0.68,0.68,0,0,1,0-.47,2,2,0,0,1,.42-0.56l1-1.11,0.08-.08a1.9,1.9,0,0,0,.58-1.84,2.44,2.44,0,0,0-.12-0.35,2.61,2.61,0,0,0,.63.2A2.16,2.16,0,0,0,126.63,546.4Zm-2.77-1.63a3,3,0,0,1-.4-0.34l-1.71-1.71,1.87-1.87,0.24,0.24,1.53,1.53a1.75,1.75,0,0,1,.59,1,1.25,1.25,0,0,1-.43,1,1.22,1.22,0,0,1-1,.42A1.52,1.52,0,0,1,123.86,544.77Z" transform="translate(0)"/><path id="_Compound_Path_23" data-name="&lt;Compound Path&gt;" class="cls-1" d="M163.71,578.11a4.48,4.48,0,0,0-3.5-1.46,5.28,5.28,0,0,0-3.21,1.4c-0.16.13-.31,0.28-0.46,0.43s-0.36.38-.52,0.57a5.72,5.72,0,0,0-1,1.78,4.52,4.52,0,0,0-.23,1.27,4.19,4.19,0,0,0,.23,1.58,5,5,0,0,0,1,1.66l0.23,0.24a6.25,6.25,0,0,0,.75.64,4.28,4.28,0,0,0,2.73.85,5.42,5.42,0,0,0,3.61-1.78,5.61,5.61,0,0,0,1.84-3.67A4.51,4.51,0,0,0,163.71,578.11Zm-1.84,5.69a4,4,0,0,1-2.31,1.29,2.4,2.4,0,0,1-2.06-.77,2.88,2.88,0,0,1-.51-0.66,2.27,2.27,0,0,1-.26-1.4,2.94,2.94,0,0,1,.26-0.9,4.94,4.94,0,0,1,1-1.41,4.17,4.17,0,0,1,2.35-1.33,2.6,2.6,0,0,1,2.83,2.83A4.18,4.18,0,0,1,161.87,583.79Z" transform="translate(0)"/><path id="_Compound_Path_24" data-name="&lt;Compound Path&gt;" class="cls-1" d="M155.52,577c0.18-.18.34-0.36,0.5-0.54a5.93,5.93,0,0,0,1-1.56,3.65,3.65,0,0,0,.27-1.17,3.31,3.31,0,0,0-.27-1.54,4.91,4.91,0,0,0-1-1.43l-0.11-.11-0.91-.91-1.37-1.38-0.74-.73-3.1,3.1-3.51,3.51-0.46.46,0.46,0.46,0.27,0.27,2.17,2.17a5.63,5.63,0,0,0,1.07.85A3.59,3.59,0,0,0,152,579a5.45,5.45,0,0,0,3-1.49C155.17,577.38,155.34,577.21,155.52,577ZM154,575.62a4.34,4.34,0,0,1-2.27,1.38,2.2,2.2,0,0,1-1.92-.7l0,0L148.5,575l1.29-1.29,3.36-3.36,1.37,1.37a2.67,2.67,0,0,1,.49.64,1.86,1.86,0,0,1,.23,1.18,2.44,2.44,0,0,1-.23.72A4.91,4.91,0,0,1,154,575.62Z" transform="translate(0)"/><path id="_Compound_Path_25" data-name="&lt;Compound Path&gt;" class="cls-1" d="M143.16,567.66a2.19,2.19,0,0,0,.68-2,2.75,2.75,0,0,0-.21-0.67,2.05,2.05,0,0,0,.37.1,2.16,2.16,0,0,0,2-.69,3.33,3.33,0,0,0,.29-0.33,2.19,2.19,0,0,0,.45-1.57,2.89,2.89,0,0,0-.45-1.25,4.92,4.92,0,0,0-.68-0.83l-2.71-2.71-0.12-.12-0.59-.59-0.73.73-1.54,1.54-4.53,4.53-0.28.28,0.28,0.28,0.43,0.43,2.5,2.5a5.25,5.25,0,0,0,1.6,1.15,2.93,2.93,0,0,0,.93.24,2.4,2.4,0,0,0,.61,0,2.81,2.81,0,0,0,1.32-.61A4.18,4.18,0,0,0,143.16,567.66Zm-1.46-1.5a2,2,0,0,1-.25.22,1.2,1.2,0,0,1-.8.25,1.45,1.45,0,0,1-.74-0.3,2.81,2.81,0,0,1-.37-0.32l-1.8-1.8,1.89-1.89,0.28,0.28,1.49,1.49,0.05,0.05a2,2,0,0,1,.62,1.06A1.1,1.1,0,0,1,141.7,566.17Zm0.81-3.33-1.06-1.06-0.63-.63,0.63-.63,0.92-.93,0.4,0.4,1.24,1.23a2.35,2.35,0,0,1,.69,1.05,0.85,0.85,0,0,1-.25.83,1,1,0,0,1-.9.35,1.61,1.61,0,0,1-.77-0.39A3,3,0,0,1,142.5,562.83Z" transform="translate(0)"/><polygon id="_Path_13" data-name="&lt;Path&gt;" class="cls-1" points="149.79 567.15 151.07 565.86 150.33 565.12 149.79 564.58 149.59 564.38 146.27 567.71 142.76 571.22 142.52 571.46 142.76 571.7 143.26 572.2 144 572.94 146.27 570.66 149.79 567.15"/><polygon id="_Path_14" data-name="&lt;Path&gt;" class="cls-1" points="139.9 555.6 140.36 555.15 139.9 554.7 139.62 554.41 138.88 553.67 135.38 557.18 133.73 558.82 132.75 559.8 131.81 560.75 132.55 561.49 132.75 561.69 133.28 562.23 133.73 561.78 135.38 560.14 139.9 555.6"/></g><path id="_Path_15" data-name="&lt;Path&gt;" class="cls-5" d="M191.08,526.26h-5.89a5.43,5.43,0,0,0-5.44,5.44v5.89l54,54h5.9a5.45,5.45,0,0,0,5.44-5.44v-5.9Z" transform="translate(0)"/><g id="_Group_6" data-name="&lt;Group&gt;"><path id="_Compound_Path_26" data-name="&lt;Compound Path&gt;" class="cls-1" d="M202.33,546.4a3.46,3.46,0,0,0,.58-0.47,3,3,0,0,0,.4-0.49,2.43,2.43,0,0,0,.41-1.56,2.94,2.94,0,0,0-.41-1.31,4.07,4.07,0,0,0-.68-0.86l-0.3-.3-2.53-2.53-0.23-.23-0.5-.5L192.22,545l-0.24.23,0.24,0.23,0.5,0.51,0.74,0.74,2.8-2.8,1.47,1.47a2.19,2.19,0,0,1,.7,1.1,1.16,1.16,0,0,1-.4,1l-0.64.66a10.2,10.2,0,0,0-.73.83,2.19,2.19,0,0,0-.37.58l1.63,1.63,0.19-.19a0.68,0.68,0,0,1,0-.47,2,2,0,0,1,.42-0.56l1-1.11,0.08-.08a1.9,1.9,0,0,0,.58-1.84,2.44,2.44,0,0,0-.12-0.35,2.61,2.61,0,0,0,.63.2A2.16,2.16,0,0,0,202.33,546.4Zm-2.77-1.63a3.2,3.2,0,0,1-.4-0.34l-1.71-1.71,1.87-1.87,0.24,0.24,1.53,1.53a1.75,1.75,0,0,1,.59,1,1.25,1.25,0,0,1-.43,1,1.22,1.22,0,0,1-1,.42A1.5,1.5,0,0,1,199.56,544.77Z" transform="translate(0)"/><path id="_Compound_Path_27" data-name="&lt;Compound Path&gt;" class="cls-1" d="M192.9,539.9a3.22,3.22,0,0,0,2.37-1.11,3,3,0,0,0,1-2.28,3.79,3.79,0,0,0-1.27-2.4l-2.22-2.22-0.57-.58-0.16-.16L185,538.22l0.74,0.74,0.74,0.74,2.51-2.51c0.43,0.41.93,0.9,1.49,1.47a4.23,4.23,0,0,0,1.75,1.13A2.7,2.7,0,0,0,192.9,539.9Zm-1.47-2.71L190.2,536l2-2,0.1-.1,1.23,1.23a2,2,0,0,1,.68,1.18,1.28,1.28,0,0,1-.45,1.07,1.49,1.49,0,0,1-1.14.52,1.45,1.45,0,0,1-.42-0.1A2.52,2.52,0,0,1,191.44,537.19Z" transform="translate(0)"/><polygon id="_Path_16" data-name="&lt;Path&gt;" class="cls-1" points="225.49 567.15 226.77 565.86 226.03 565.12 225.49 564.58 225.3 564.38 221.97 567.71 218.46 571.22 218.22 571.46 218.46 571.7 218.97 572.2 219.7 572.94 221.97 570.66 225.49 567.15"/><path id="_Compound_Path_28" data-name="&lt;Compound Path&gt;" class="cls-1" d="M239.41,578.11a4.48,4.48,0,0,0-3.5-1.46,5.28,5.28,0,0,0-3.21,1.4c-0.16.13-.31,0.28-0.46,0.43a7.35,7.35,0,0,0-.52.57,5.57,5.57,0,0,0-1,1.78,4.4,4.4,0,0,0-.24,1.27,4.12,4.12,0,0,0,.24,1.58,4.89,4.89,0,0,0,1,1.66l0.23,0.24a6.58,6.58,0,0,0,.75.64,4.27,4.27,0,0,0,2.73.85,5.42,5.42,0,0,0,3.61-1.78,5.58,5.58,0,0,0,1.84-3.67A4.51,4.51,0,0,0,239.41,578.11Zm-1.83,5.69a4,4,0,0,1-2.31,1.29,2.39,2.39,0,0,1-2.06-.77,2.88,2.88,0,0,1-.51-0.66,2.27,2.27,0,0,1-.26-1.4,3,3,0,0,1,.26-0.9,4.94,4.94,0,0,1,1-1.41,4.17,4.17,0,0,1,2.35-1.33,2.6,2.6,0,0,1,2.83,2.83A4.2,4.2,0,0,1,237.57,583.79Z" transform="translate(0)"/><path id="_Compound_Path_29" data-name="&lt;Compound Path&gt;" class="cls-1" d="M231.22,577c0.18-.18.34-0.36,0.5-0.54a5.83,5.83,0,0,0,1-1.56,3.65,3.65,0,0,0,.27-1.17,3.31,3.31,0,0,0-.27-1.54,4.83,4.83,0,0,0-1-1.43l-0.11-.11-0.91-.91-1.38-1.38-0.73-.73-3.1,3.1L222,574.28l-0.46.46,0.46,0.46,0.27,0.27,2.17,2.17a5.63,5.63,0,0,0,1.07.85,3.59,3.59,0,0,0,2.18.51,5.47,5.47,0,0,0,3-1.49C230.87,577.38,231,577.21,231.22,577Zm-1.54-1.42a4.35,4.35,0,0,1-2.27,1.38,2.2,2.2,0,0,1-1.92-.7l0,0L224.2,575l1.29-1.29,3.36-3.36,1.37,1.37a3,3,0,0,1,.49.64,1.88,1.88,0,0,1,.22,1.18,2.53,2.53,0,0,1-.22.72A5,5,0,0,1,229.68,575.62Z" transform="translate(0)"/><path id="_Compound_Path_30" data-name="&lt;Compound Path&gt;" class="cls-1" d="M209.43,555.84l0.08-.09a6.47,6.47,0,0,0,1.56-2.33,4.68,4.68,0,0,0,.27-1.34,4.23,4.23,0,0,0-.27-1.74,5.17,5.17,0,0,0-1.2-1.77c-0.15-.14-0.3-0.28-0.45-0.4a5,5,0,0,0-1-.64,4.19,4.19,0,0,0-2.07-.42,5.25,5.25,0,0,0-3.08,1.29,7.86,7.86,0,0,0-.59.54c-0.14.14-.27,0.27-0.39,0.41a5.13,5.13,0,0,0-1.39,3.2,4.52,4.52,0,0,0,1.39,3.38l0.09,0.1a5.87,5.87,0,0,0,.89.73,4.26,4.26,0,0,0,2.6.76,4.88,4.88,0,0,0,2.55-.89A7.61,7.61,0,0,0,209.43,555.84ZM208,554.27a4,4,0,0,1-2.31,1.29,2.41,2.41,0,0,1-2.06-.77,3,3,0,0,1-.37-0.44,2.3,2.3,0,0,1-.4-1.61,3.12,3.12,0,0,1,.4-1.16,5.46,5.46,0,0,1,.9-1.14,4.21,4.21,0,0,1,2.35-1.33,2.33,2.33,0,0,1,1.9.59l0.17,0.16a2.39,2.39,0,0,1,.75,2.08,3.78,3.78,0,0,1-.92,1.91C208.33,554,208.2,554.12,208,554.27Z" transform="translate(0)"/><path id="_Compound_Path_31" data-name="&lt;Compound Path&gt;" class="cls-1" d="M218.85,567.66a2.18,2.18,0,0,0,.68-2,2.75,2.75,0,0,0-.21-0.67,2.05,2.05,0,0,0,.37.1,2.16,2.16,0,0,0,2-.69A3.33,3.33,0,0,0,222,564a2.19,2.19,0,0,0,.45-1.57,2.89,2.89,0,0,0-.45-1.25,4.92,4.92,0,0,0-.68-0.83l-2.72-2.71-0.11-.12-0.59-.59-0.73.73-1.54,1.54-4.53,4.53-0.28.28,0.28,0.28,0.43,0.43,2.5,2.5a5.21,5.21,0,0,0,1.6,1.15,2.93,2.93,0,0,0,.93.24,2.4,2.4,0,0,0,.61,0,2.82,2.82,0,0,0,1.32-.61A3.74,3.74,0,0,0,218.85,567.66Zm-1.46-1.5a2,2,0,0,1-.25.22,1.2,1.2,0,0,1-.79.25,1.45,1.45,0,0,1-.75-0.3,2.58,2.58,0,0,1-.37-0.32l-1.8-1.8,1.89-1.89,0.28,0.28,1.49,1.49,0.05,0.05a2,2,0,0,1,.62,1.06A1.09,1.09,0,0,1,217.4,566.17Zm0.81-3.33-1.06-1.06-0.63-.63,0.63-.63,0.92-.93,0.4,0.4,1.24,1.23a2.35,2.35,0,0,1,.69,1.05,0.85,0.85,0,0,1-.25.83,1,1,0,0,1-.9.35,1.61,1.61,0,0,1-.77-0.39A3,3,0,0,1,218.2,562.83Z" transform="translate(0)"/><polygon id="_Path_17" data-name="&lt;Path&gt;" class="cls-1" points="215.6 555.6 216.06 555.15 215.6 554.7 215.32 554.41 214.58 553.67 211.08 557.18 209.43 558.82 208.45 559.8 207.5 560.75 208.25 561.49 208.45 561.69 208.98 562.23 209.43 561.78 211.08 560.14 215.6 555.6"/></g><path id="_Compound_Path_32" data-name="&lt;Compound Path&gt;" class="cls-5" d="M348.26,619h0v-6.51h1.36v5.36h3.24V619h-4.6Zm-5.54,0v-6.51h4.63v1.16h-3.27v1.48h2.86v1.12h-2.86V619h-1.36Zm-5.35,0h-1.27v-6.51h1.43l2.61,4.57v-4.57h1.27V619h-1.36l-2.69-4.7V619Zm-3.84,0v-6.51h1.36V619h-1.36Zm22.84-6.51v1.45h0l-0.87,2.62h0.87v1.12h-1.24L354.7,619h-1.41l2.31-6.51h0.77Zm0-9.07v3.71h-1.31Zm-5.06,3.89a2.9,2.9,0,0,1-2.26-.92,4.12,4.12,0,0,1,0-5,3,3,0,0,1,2.35-.94,3.1,3.1,0,0,1,2,.59,2.29,2.29,0,0,1,.9,1.6h-1.36a1.09,1.09,0,0,0-.48-0.74,1.5,1.5,0,0,0-.94-0.32,1.69,1.69,0,0,0-1.39.61,2.62,2.62,0,0,0-.5,1.7,2.57,2.57,0,0,0,.48,1.69,1.72,1.72,0,0,0,1.41.58h0a1.45,1.45,0,0,0,1.24-.6,2.38,2.38,0,0,0,.36-0.8h-1.53v-1.12h2.73v3.51h-0.91l-0.13-.84-0.08.11a2.2,2.2,0,0,1-1.86.92h0Zm6.83,7.9V619H358l-0.44-1.33h-1.23v-1.12h0.87l-0.87-2.61v-1.45h0.81Zm0-14.59V602h0l-0.87,2.62h0.87v1.12h-1.24l-0.43,1.33h-0.1v-3.71l1-2.81h0.77Zm3.43,18.4h-1.27v-6.51h2l1.19,5.16,1.17-5.16h2V619h-1.27V613.5L364.12,619h-1.34l-1.22-5.6V619Zm4.09-16.44h0a1,1,0,0,0-.41-0.74,1.61,1.61,0,0,0-1-.27,1.29,1.29,0,0,0-.81.23,0.76,0.76,0,0,0-.29.64,0.5,0.5,0,0,0,.3.45,6,6,0,0,0,1.28.37,4.64,4.64,0,0,1,1.9.74,1.65,1.65,0,0,1,.48,1.33,1.73,1.73,0,0,1-.72,1.46,3.21,3.21,0,0,1-2,.54,3,3,0,0,1-1.93-.57,2.1,2.1,0,0,1-.74-1.63h1.31a1,1,0,0,0,.38.8,1.55,1.55,0,0,0,1,.28,2,2,0,0,0,1-.21,0.64,0.64,0,0,0,.36-0.58,0.6,0.6,0,0,0-.26-0.54,3.76,3.76,0,0,0-1.1-.36,5.91,5.91,0,0,1-2.07-.75,1.48,1.48,0,0,1-.52-1.25,1.83,1.83,0,0,1,.69-1.5,2.86,2.86,0,0,1,1.86-.56,2.69,2.69,0,0,1,1.78.57,2.16,2.16,0,0,1,.76,1.56h-1.33Zm-7.52,3.24v-1.12H359L358.14,602v-1.45h0.81l2.31,6.51h-1.44l-0.44-1.33h-1.23Zm0,13.21v-3.81l1.35,3.81h-1.35Zm12.35-6.51v1.45h0l-0.86,2.62h0.86v1.12h-1.24L368.82,619h-1.41l2.31-6.51h0.77Zm0-1.47v0.8H370Zm0-10.41v1.16h-0.95v1.39h0.95v1.12h-0.95v1.7h0.95v1.16h-2.31v-6.51h2.31Zm22.15,13.83h0a1,1,0,0,0-.41-0.74,1.6,1.6,0,0,0-1-.27,1.28,1.28,0,0,0-.81.23,0.76,0.76,0,0,0-.3.64,0.5,0.5,0,0,0,.31.45,5.85,5.85,0,0,0,1.28.37,4.68,4.68,0,0,1,1.9.74,1.66,1.66,0,0,1,.48,1.33,1.72,1.72,0,0,1-.72,1.45,3.2,3.2,0,0,1-2,.54,3,3,0,0,1-1.93-.57,2.1,2.1,0,0,1-.74-1.63h1.31a1,1,0,0,0,.37.8,1.55,1.55,0,0,0,1,.28,2.05,2.05,0,0,0,1-.21,0.65,0.65,0,0,0,.36-0.58,0.6,0.6,0,0,0-.26-0.54,3.79,3.79,0,0,0-1.1-.36,5.94,5.94,0,0,1-2.07-.75,1.48,1.48,0,0,1-.51-1.25,1.83,1.83,0,0,1,.69-1.5,2.87,2.87,0,0,1,1.86-.56,2.67,2.67,0,0,1,1.78.57,2.16,2.16,0,0,1,.76,1.56h-1.33ZM386.48,619v-6.51h1.36V619h-1.36Zm-5.94,0h0v-6.51h4.8v1.16h-3.44V615h3.19v1.12h-3.19v1.7h3.59V619h-4.95ZM374,612.47h1.44l1.43,5h0l1.43-5h1.4L377.46,619h-1.29Zm3.81-9.93h0a1,1,0,0,0-.41-0.74,1.59,1.59,0,0,0-1-.27,1.28,1.28,0,0,0-.81.23,0.76,0.76,0,0,0-.29.64,0.49,0.49,0,0,0,.3.45,6,6,0,0,0,1.29.37,4.62,4.62,0,0,1,1.9.74,1.64,1.64,0,0,1,.48,1.33,1.73,1.73,0,0,1-.72,1.46,3.22,3.22,0,0,1-2,.54,3,3,0,0,1-1.93-.57,2.11,2.11,0,0,1-.74-1.63h1.31a1,1,0,0,0,.37.8,1.57,1.57,0,0,0,1,.28,2,2,0,0,0,1-.21,0.65,0.65,0,0,0,.37-0.58,0.6,0.6,0,0,0-.27-0.54,3.79,3.79,0,0,0-1.1-.36,5.92,5.92,0,0,1-2.07-.75,1.47,1.47,0,0,1-.52-1.25,1.84,1.84,0,0,1,.69-1.5,2.87,2.87,0,0,1,1.86-.56,2.68,2.68,0,0,1,1.78.57,2.15,2.15,0,0,1,.76,1.56h-1.33Zm-7.28-.8v-1.16H373v1.16h-2.49Zm0,2.5v-1.12h2.24v1.12h-2.24Zm0,2.86v-1.16h2.64v1.16h-2.64Zm0,4.7V611l0.33-.51h1.39l-1.33,1.31h-0.39Zm0,5.86v-1.12h0.87l-0.87-2.61v-1.45h0.81l2.31,6.51h-1.44l-0.44-1.33h-1.23Z" transform="translate(0)"/><g id="_Group_7" data-name="&lt;Group&gt;"><polygon id="_Path_18" data-name="&lt;Path&gt;" class="cls-5" points="351.39 591.58 354.99 591.58 354.99 587.16 351.39 587.16 348.02 587.16 348.02 591.58 351.39 591.58"/><path id="_Path_19" data-name="&lt;Path&gt;" class="cls-5" d="M347.93,574.1a1.75,1.75,0,0,0,.09.59c0.39,1.12,1.86.93,1.87-.59h-2Z" transform="translate(0)"/><path id="_Compound_Path_33" data-name="&lt;Compound Path&gt;" class="cls-5" d="M394.42,528h0a6.11,6.11,0,0,0-4.33-1.79H337a6.11,6.11,0,0,0-6.12,6.11v53.09a6.1,6.1,0,0,0,1.79,4.32h0a6.1,6.1,0,0,0,4.32,1.79h11v-4.42h-3.74V582.6H355v-0.93h-3.47l-0.12-.13L348,577.82l-2.39-2.63c0.57,0.49,1.53.13,1.54-1.09h-1.72l1-3.93h24l1,3.93H369.7c0,1.22,1,1.58,1.54,1.09l-1.81,2L368,578.8l-2,2.24-0.57.63H355v0.93h39.6v2.87a4.44,4.44,0,0,1-.33,1.69H355v4.42h35.1a6.1,6.1,0,0,0,4.32-1.79h0a6.1,6.1,0,0,0,1.79-4.32V532.37A6.1,6.1,0,0,0,394.42,528Zm-28.49,28.7A8.11,8.11,0,0,0,367,549.6a4.16,4.16,0,0,1,1-4.69,6.17,6.17,0,0,1,1.21-.83,3.82,3.82,0,0,0,.26,3.64c0.12,0.23.26,0.44,0.38,0.64a5.44,5.44,0,0,1-.38,6.18,8.38,8.38,0,0,1-1.47,1.57,11.38,11.38,0,0,1-2,1.34l-0.58.29Zm-8.54-23a10.53,10.53,0,0,1,1.27-1.95c0.27-.34.57-0.7,0.91-1.08a5,5,0,0,0,.21,4.15,13,13,0,0,0,2.71,2.77h0c2.69,2.41,2.87,6.23,0,9.41a12.57,12.57,0,0,1-2.72,2.23l-0.21.13,0.21-.44c1.21-2.44,3.12-6.08,0-9.12l-0.11-.11c-0.37-.35-0.71-0.69-1-1a8.11,8.11,0,0,1-1.27-1.69A3.37,3.37,0,0,1,357.39,533.71Zm-5.63,26.06c1,2,1.8,1.79,2.24,1.55a2.54,2.54,0,0,1,.62,3.07c-1.09-1.38-1.83.8-2.78-.72a1.62,1.62,0,0,1-.44.37,3.39,3.39,0,0,1-2,.26,37,37,0,0,1-1.32-4.23l-0.1-.35,0.1,0.06a24.93,24.93,0,0,1,2.36,1.89c0.35-.07.59-1.26,1-1.72A0.49,0.49,0,0,1,351.76,559.77Zm-5.39-15a5.9,5.9,0,0,0,.64-5.15,6.59,6.59,0,0,1,1,.8c2.07,2,1.48,4.51,1.17,5.85-1.15,4.84.47,7.32,1.64,9.78a11.55,11.55,0,0,1-2.81-2.16A8,8,0,0,1,346.37,544.8Zm-2.86,22.42c-2.29-1.56-4.29-3.71-4.61-6.53a27.1,27.1,0,0,0,4,1.1c0.23-.36.42-0.71,0.63-1.06a5.63,5.63,0,0,1,1-1.26,54.76,54.76,0,0,1,3.5,4.69l0.1,0.15H348a9.25,9.25,0,0,1-4.33-.64,16.91,16.91,0,0,1,.71,4.11C344.1,567.6,343.81,567.41,343.51,567.22Zm5,1.84L348,569c-1.73-.09-2.8-0.5-2.88-2.09l2.61-.07-0.14-1.66,0.41,0.15a2.43,2.43,0,0,1,1,.8A2,2,0,0,1,348.56,569.06Zm4.46,0a6.67,6.67,0,0,1-1.62-1.21,4.7,4.7,0,0,1-1.14-1.69,0.74,0.74,0,0,1,.2-0.95L351.4,566l0.58,0.46,1.21-1.39,1.53,0.23C355.28,567.18,354.38,569,353,569.06Zm0.86-23.67c0.51-.55.85-0.92,1.11-1.26a4.75,4.75,0,0,0,.83-1.93,9.17,9.17,0,0,1,1.57,1.89,2.91,2.91,0,0,1,0,3c-0.11.24-.24,0.49-0.38,0.75-2.31,4.46-1.51,6.72-.79,8.95a11.25,11.25,0,0,1-1.24-1C351.43,552.54,351.42,548.07,353.88,545.39Zm4.79,23.54a2.09,2.09,0,0,1-.68.13,2.42,2.42,0,0,1-.59-0.54,6.38,6.38,0,0,1-1.26-3.37,1,1,0,0,1,.56-0.95l0.7,1.55,0,0.11,0.45-1.5,0.66,1.46,0.11,0,0.68,0.1C360,567.38,359.64,568.55,358.67,568.93Zm1.64-2.16c-0.3-.64,0-2.64-0.52-2.82h-0.06a1.9,1.9,0,0,1-1.06-.4,3,3,0,0,1-1-1.48,3,3,0,0,0-.24.23c-0.54.56-.61,1.1-1.54,1a30.31,30.31,0,0,1,.41-4.21c0.32,0.24.74,1,1.13,1.33a0.55,0.55,0,0,0,.49.23,1.82,1.82,0,0,0,.78-0.83,0.54,0.54,0,0,1,.16-0.13,6.5,6.5,0,0,0,1,1.79,0.91,0.91,0,0,0,.94-0.06C362.11,564.57,361.39,565.19,360.31,566.77Zm5.62,1a3.86,3.86,0,0,1-2.35,1.27,3,3,0,0,1-1.07-1.67,2.6,2.6,0,0,1,0-1.23l0-.06a1.36,1.36,0,0,1,.74-0.89l0.81,1.22,1.87-1.29,0.15-.1,1.4,0.23A6,6,0,0,1,365.93,567.78Zm2-3.4c-0.21-1-1.34-.11-2-0.15-0.23,0-.39-0.16-0.4-0.57a3.9,3.9,0,0,1-2.86.63,40.56,40.56,0,0,1,1.24-4.57,9.53,9.53,0,0,1,1.32,1.95,2,2,0,0,0,.7-0.53c0.59-.57,1.34-1.39,1.78-1.38a2.17,2.17,0,0,0,.25,1.5,0.92,0.92,0,0,0,1.09,0c0.27,1,.23,1.47-1.09,3Zm1.54,4.66H369a2,2,0,0,1-.51-2.9,2.5,2.5,0,0,1,1-.77,3.71,3.71,0,0,1,.47-0.17l-0.14,1.66,1.71-1.5-0.13,1.46,1,0.11C372.3,568.55,371.2,569,369.43,569Zm3.69-1.26c0-.67,2-2.8,1.22-2.83a1.44,1.44,0,0,1-1.57-1.88c-1.54.63-2,1.33-3.34,1.23h0l0-.06c1-1.57,3.07-3.67,4.29-5.17,0.39,0.36.36,1.7,1.14,1.56a12.71,12.71,0,0,0,2-1c0,1.56-.56,2.24,1.43,1.73C377.93,564.57,375.76,566.2,373.12,567.78Z" transform="translate(0)"/><path id="_Path_20" data-name="&lt;Path&gt;" class="cls-5" d="M368.94,574.1h-2A1,1,0,1,0,368.94,574.1Z" transform="translate(0)"/><path id="_Path_21" data-name="&lt;Path&gt;" class="cls-5" d="M363.5,574.1h-2A1,1,0,1,0,363.5,574.1Z" transform="translate(0)"/><path id="_Path_22" data-name="&lt;Path&gt;" class="cls-5" d="M350.66,574.1a1.21,1.21,0,0,0,.74,1.27c0.56,0.17,1.21-.26,1.22-1.27h-2Z" transform="translate(0)"/><path id="_Path_23" data-name="&lt;Path&gt;" class="cls-5" d="M365.93,575.05a1.49,1.49,0,0,0,.29-1h-2C364.27,575.42,365.38,575.73,365.93,575.05Z" transform="translate(0)"/><path id="_Path_24" data-name="&lt;Path&gt;" class="cls-5" d="M355,574.1h-1.61c0,1.27,1,1.61,1.61,1a1.45,1.45,0,0,0,.35-1H355Z" transform="translate(0)"/><path id="_Path_25" data-name="&lt;Path&gt;" class="cls-5" d="M360.77,574.1h-2A1,1,0,1,0,360.77,574.1Z" transform="translate(0)"/><path id="_Path_26" data-name="&lt;Path&gt;" class="cls-5" d="M357.39,575.34a1.24,1.24,0,0,0,.67-1.24h-2C356.11,575.15,356.83,575.57,357.39,575.34Z" transform="translate(0)"/></g><g id="_Group_8" data-name="&lt;Group&gt;"><path id="_Path_27" data-name="&lt;Path&gt;" class="cls-1" d="M332.67,528.07a6.11,6.11,0,0,1,4.25-1.79h-0.6a5.53,5.53,0,0,0-1.61.24,5.43,5.43,0,0,0-3.83,5.2v0.65a6.09,6.09,0,0,1,1.79-4.3h0Z" transform="translate(0)"/><path id="_Path_28" data-name="&lt;Path&gt;" class="cls-1" d="M392.34,589.38a4.48,4.48,0,0,0,.93-0.71h0a4.49,4.49,0,0,0,1.32-3.18v-6.84l-2.25-2.25-48.5-48.5H337a4.48,4.48,0,0,0-2.29.62,4.48,4.48,0,0,0-2.21,3.88v6.84l2.21,2.21L383.25,590h6.84A4.47,4.47,0,0,0,392.34,589.38Z" transform="translate(0)"/><path id="_Path_29" data-name="&lt;Path&gt;" class="cls-1" d="M394.41,589.81h0a6.19,6.19,0,0,1-2.07,1.36,6.13,6.13,0,0,1-2.25.43h0.67a5.44,5.44,0,0,0,5.44-5.44v-0.67A6.1,6.1,0,0,1,394.41,589.81Z" transform="translate(0)"/></g><g id="_Group_9" data-name="&lt;Group&gt;"><path id="_Compound_Path_34" data-name="&lt;Compound Path&gt;" class="cls-5" d="M343.27,539.63a2.4,2.4,0,0,0,1.14,0,3.78,3.78,0,0,0,1.07-.42,4.28,4.28,0,0,0,.69-0.53q2.18-2.26.13-4.4l-3-3-0.1-.1-7.08,7.07,1.43,1.43,2.55-2.55,1.64,1.64a3,3,0,0,0,1.42.86Zm-2-3.76,2-2,0.11-.11,1.14,1.14q1.29,1.27.29,2.23l-0.32.3a1.71,1.71,0,0,1-.49.24,1.16,1.16,0,0,1-.61,0l-0.11,0a1.88,1.88,0,0,1-.64-0.46Z" transform="translate(0)"/><path id="_Compound_Path_35" data-name="&lt;Compound Path&gt;" class="cls-5" d="M391.61,580.43a4.59,4.59,0,0,0-.59-1.59,6.39,6.39,0,0,0-.8-1,6.79,6.79,0,0,0-1-.79,4.69,4.69,0,0,0-1.6-.58,4.15,4.15,0,0,0-2,.2,5.82,5.82,0,0,0-2.08,1.3l-0.32.3a9.48,9.48,0,0,0-.65.73,5,5,0,0,0-.91,1.64l-0.07.23a3.91,3.91,0,0,0-.13,1.81,5.26,5.26,0,0,0,.13.57,4.22,4.22,0,0,0,.45,1,7.16,7.16,0,0,0,.54.77l0.22,0.25a5.25,5.25,0,0,0,.75.59l0.29,0.18a4.5,4.5,0,0,0,1.59.59,4.13,4.13,0,0,0,2-.21,6.27,6.27,0,0,0,2.35-1.59,6.56,6.56,0,0,0,1.62-2.39A4.1,4.1,0,0,0,391.61,580.43ZM389.42,582a5.7,5.7,0,0,1-1.06,1.4,5.83,5.83,0,0,1-1.39,1,3,3,0,0,1-1.21.3,2.14,2.14,0,0,1-1-.21,2.36,2.36,0,0,1-1.24-1.24v0a2.07,2.07,0,0,1-.2-1,2.67,2.67,0,0,1,.2-1l0.09-.21a5.67,5.67,0,0,1,2.44-2.44,2.85,2.85,0,0,1,1.22-.3,2.21,2.21,0,0,1,1,.21,3,3,0,0,1,.7.52,3.2,3.2,0,0,1,.53.72,2.27,2.27,0,0,1,.21,1A2.94,2.94,0,0,1,389.42,582Z" transform="translate(0)"/><path id="_Compound_Path_36" data-name="&lt;Compound Path&gt;" class="cls-5" d="M352.48,546.54a2.65,2.65,0,0,0,.79-0.34,3,3,0,0,0,.53-0.43c0.09-.09.17-0.18,0.26-0.29l0.18-.27,0.06-.11a2.52,2.52,0,0,0,.35-1,2.33,2.33,0,0,0-.1-1.2,2.87,2.87,0,0,0-.31-0.62,4.89,4.89,0,0,0-.6-0.73l-0.37-.37-2.71-2.71-0.39-.39-6.9,6.9-0.17.17,0.17,0.17,1.23,1.23,2.77-2.77,1.48,1.48a3.35,3.35,0,0,1,.56.7,0.79,0.79,0,0,1,.1.57,1.17,1.17,0,0,1-.28.55c-0.15.17-.35,0.39-0.6,0.64a9,9,0,0,0-.81.9,4,4,0,0,0-.47.68l1.59,1.59,0.19-.18a0.58,0.58,0,0,1,.1-0.63,10.64,10.64,0,0,1,1-1.08c0.17-.16.31-0.32,0.44-0.46a4.94,4.94,0,0,0,.33-0.4,2.1,2.1,0,0,0,.31-0.67,1.11,1.11,0,0,0,0-.57,2.58,2.58,0,0,0-.21-0.59A2.15,2.15,0,0,0,352.48,546.54Zm-1.92-1.84a2.71,2.71,0,0,1-.42-0.36l-1.68-1.69,1.89-1.89,0.21,0.21,1.58,1.58a1.88,1.88,0,0,1,.44.61,1,1,0,0,1,.07.52,1,1,0,0,1-.14.45,2.42,2.42,0,0,1-.29.34A1.19,1.19,0,0,1,350.56,544.7Z" transform="translate(0)"/><path id="_Compound_Path_37" data-name="&lt;Compound Path&gt;" class="cls-5" d="M369.47,567.4a3,3,0,0,0,.79-1.23,2.2,2.2,0,0,0-.16-1.59l0.42,0.11a1.76,1.76,0,0,0,.53,0,1.65,1.65,0,0,0,.65-0.2,2.62,2.62,0,0,0,.71-0.53,2.9,2.9,0,0,0,.39-0.49l0.12-.2a2.34,2.34,0,0,0,.25-0.91,2.31,2.31,0,0,0-.17-1.11,2.53,2.53,0,0,0-.2-0.37,4.57,4.57,0,0,0-.69-0.85l-2.8-2.81-0.52-.52-0.8.8-1.54,1.54-4.51,4.51-0.21.21,0.21,0.21,2.69,2.69a6.16,6.16,0,0,0,1.65,1.3l0.18,0.07a2.45,2.45,0,0,0,.43.12,2.91,2.91,0,0,0,.55,0,2.83,2.83,0,0,0,1.89-.71Zm-0.95-2.08a1.37,1.37,0,0,1-.33.49L368,566a1.22,1.22,0,0,1-1.54.07,2.4,2.4,0,0,1-.38-0.32L364.31,564l1.89-1.89,0.24,0.24,1.54,1.54,0,0a1.88,1.88,0,0,1,.53.9A0.9,0.9,0,0,1,368.52,565.32Zm0.55-2.74L368,561.49l-0.59-.59,0.59-.59,1-1,0.37,0.36,1.27,1.27a2.23,2.23,0,0,1,.61.93,0.91,0.91,0,0,1-.33.87,1,1,0,0,1-.89.32,1.66,1.66,0,0,1-.67-0.33A2,2,0,0,1,369.07,562.57Z" transform="translate(0)"/><polygon id="_Path_30" data-name="&lt;Path&gt;" class="cls-5" points="366.44 555.41 366.94 554.91 366.44 554.41 365.5 553.47 361.92 557.05 360.28 558.69 359.31 559.67 358.43 560.55 359.31 561.43 359.86 561.99 360.28 561.56 361.92 559.92 366.44 555.41"/><path id="_Compound_Path_38" data-name="&lt;Compound Path&gt;" class="cls-5" d="M381.95,576.66a8,8,0,0,0,.6-0.69c0.13-.17.26-0.34,0.39-0.53a4.41,4.41,0,0,0,.58-1.17,4,4,0,0,0,.1-2c0-.1-0.06-0.2-0.1-0.3a4.49,4.49,0,0,0-1-1.42l0,0-1-1-2.06-2.07-3.15,3.15-3.55,3.55-0.38.38,0.38,0.38,2.59,2.59a4.22,4.22,0,0,0,1,.73,2.9,2.9,0,0,0,.83.3,3.71,3.71,0,0,0,1.78,0,5.86,5.86,0,0,0,1.65-.76,10,10,0,0,0,.94-0.74Zm-0.48-2.74a5.77,5.77,0,0,1-1.09,1.39,5.24,5.24,0,0,1-1.94,1.28,1.84,1.84,0,0,1-2-.46l-0.09-.1-1.3-1.3,1.3-1.3,3.33-3.33,1.38,1.38a4.65,4.65,0,0,1,.46.56l0,0.07a1.82,1.82,0,0,1,.19.72,2,2,0,0,1-.19.88Z" transform="translate(0)"/><polygon id="_Path_31" data-name="&lt;Path&gt;" class="cls-5" points="376.35 566.93 377.65 565.62 376.35 564.32 376.22 564.19 372.8 567.6 369.31 571.1 369.14 571.26 369.31 571.43 370.57 572.7 372.8 570.47 376.35 566.93"/><path id="_Compound_Path_39" data-name="&lt;Compound Path&gt;" class="cls-5" d="M360.27,555.31h0a6.56,6.56,0,0,0,1.6-2.37l0-.12a4,4,0,0,0,.16-1.91,4.81,4.81,0,0,0-.16-0.65,4.07,4.07,0,0,0-.42-0.94,7.26,7.26,0,0,0-.8-1,4.46,4.46,0,0,0-.42-0.37c-0.17-.13-0.36-0.27-0.58-0.42a4.39,4.39,0,0,0-.39-0.21,5,5,0,0,0-1.2-.37,4.16,4.16,0,0,0-2,.19,5.51,5.51,0,0,0-1.83,1.09c-0.19.16-.38,0.33-0.57,0.52l-0.41.43a5.37,5.37,0,0,0-1.16,1.93,4.1,4.1,0,0,0-.21,2,4.43,4.43,0,0,0,.59,1.59,5.51,5.51,0,0,0,.76,1l0,0a5.7,5.7,0,0,0,1,.73l0,0a4.54,4.54,0,0,0,1.59.59,4.13,4.13,0,0,0,2-.21,4.94,4.94,0,0,0,1.4-.76A8.84,8.84,0,0,0,360.27,555.31Zm-1.43-1.43a5.78,5.78,0,0,1-1.39,1,3,3,0,0,1-1.21.3,2.18,2.18,0,0,1-1-.21,2.6,2.6,0,0,1-.75-0.51,2.15,2.15,0,0,1-.26-0.31,3,3,0,0,1-.23-0.41,2.14,2.14,0,0,1-.22-1,3,3,0,0,1,.3-1.21,3,3,0,0,1,.16-0.31,5.33,5.33,0,0,1,.87-1.1,4.81,4.81,0,0,1,1.42-1,2.9,2.9,0,0,1,1.22-.3,2.2,2.2,0,0,1,1,.21,3,3,0,0,1,.57.39l0.14,0.13a3.23,3.23,0,0,1,.53.73,2.25,2.25,0,0,1,.21,1,3,3,0,0,1-.3,1.21,4.65,4.65,0,0,1-.58.87C359.17,553.52,359,553.7,358.84,553.88Z" transform="translate(0)"/></g><text class="cls-6" transform="translate(46.3 462.39)">EXTINTOR DE <tspan x="238.44" y="0"></tspan><tspan x="261.27" y="0">G</tspan><tspan x="285.24" y="0">U</tspan><tspan x="308.85" y="0">A</tspan></text></svg>