<?xml version="1.0" encoding="utf-8"?>
<!-- Generator: Adobe Illustrator 19.2.1, SVG Export Plug-In . SVG Version: 6.00 Build 0)  -->
<svg version="1.1" id="Layer_1" xmlns="http://www.w3.org/2000/svg" xmlns:xlink="http://www.w3.org/1999/xlink" x="0px" y="0px"
	 viewBox="0 0 425.2 566.9" style="enable-background:new 0 0 425.2 566.9;" xml:space="preserve">
<style type="text/css">
	.st0{fill:#EDEDED;}
	.st1{fill:#E31019;}
	.st2{fill:#9D9D9C;}
	.st3{fill:#E30613;}
</style>
<g id="XMLID_9575_">
	<rect x="0" y="0" class="st0" width="425.2" height="566.9"/>
</g>
<g id="XMLID_9574_">
	<rect x="28.5" y="28.5" class="st1" width="368.1" height="509.9"/>
</g>
<g id="XMLID_458_">
	<g id="XMLID_480_">
		<rect x="290.9" y="538.4" class="st0" width="105.8" height="28.5"/>
	</g>
	<g id="XMLID_459_">
		<g id="XMLID_472_">
			<g id="XMLID_477_">
				<path class="st2" d="M325.7,554c-0.7,0-1.3,0.6-1.3,1.3c0,0.7,0.6,1.3,1.3,1.3s1.3-0.6,1.3-1.3C327,554.6,326.4,554,325.7,554z
					 M326,555.4c-0.1,0.1-0.3,0.1-0.6-0.1c-0.3-0.1-0.5-0.3-0.5-0.4l-0.4-0.2l0.4,0.1c0.1-0.1,0.3-0.1,0.6,0.1
					C325.8,555.1,326,555.3,326,555.4l0.8,0.3L326,555.4z"/>
			</g>
			<g id="XMLID_473_">
				<path class="st2" d="M325.9,555.2c-0.1-0.1-0.2-0.1-0.3-0.2c-0.2-0.1-0.5-0.2-0.6-0.1c0,0.1,0.2,0.3,0.4,0.4
					c0.1,0.1,0.3,0.1,0.4,0.1c0,0,0.1,0,0.1,0c0.1,0,0.1,0,0.1-0.1C326,555.3,325.9,555.3,325.9,555.2z M325.8,555.4
					c-0.1,0-0.2-0.1-0.4-0.1c-0.3-0.1-0.4-0.3-0.4-0.3l0.9,0.4C325.9,555.4,325.8,555.4,325.8,555.4z M325,554.9
					C325,554.9,325.1,554.9,325,554.9c0.2,0,0.3,0,0.5,0.1c0.1,0.1,0.2,0.1,0.3,0.2c0.1,0.1,0.1,0.1,0.1,0.1L325,554.9z"/>
			</g>
		</g>
		<g id="XMLID_470_">
			<path class="st2" d="M333.5,560.5h-3.2l-4.7-9.9l-4.7,9.9h-3.2l7.8-15.7L333.5,560.5z"/>
		</g>
		<g id="XMLID_468_">
			<path class="st2" d="M314.7,544.8v15.7l-2.6-2v-8.2l-5.3,4.1l-5.3-4.1v8.2l-2.6,2v-15.7l7.9,6.1L314.7,544.8z"/>
		</g>
		<g id="XMLID_466_">
			<path class="st2" d="M341.1,551.2c0.1,0,0.3,0,0.6,0.1c0.3,0,0.6,0.1,0.9,0.2c0.3,0.1,0.7,0.3,1.1,0.5c0.4,0.2,0.7,0.5,1,0.8
				c0.3,0.3,0.5,0.8,0.7,1.2c0.2,0.5,0.3,1.1,0.3,1.8c0,0,0,0.2,0,0.4c0,0.2-0.1,0.5-0.2,0.9c-0.1,0.3-0.3,0.7-0.5,1.1
				c-0.2,0.4-0.5,0.8-1,1.1c-0.4,0.3-0.9,0.6-1.6,0.8c-0.6,0.2-1.4,0.3-2.3,0.3c-0.8,0-1.7-0.2-2.4-0.5c-0.8-0.4-1.4-0.8-2-1.5
				l2.1-1.7c0,0,0.1,0.1,0.2,0.2c0.1,0.1,0.3,0.2,0.5,0.4c0.2,0.1,0.5,0.2,0.8,0.3c0.3,0.1,0.7,0.2,1.1,0.2c0.8,0,1.4-0.2,1.9-0.6
				c0.4-0.4,0.7-0.9,0.7-1.5c0-0.4-0.1-0.7-0.3-1c-0.2-0.3-0.4-0.5-0.7-0.6c-0.3-0.2-0.6-0.3-1-0.4c-0.4-0.1-0.8-0.2-1.2-0.3
				c-0.1,0-0.3,0-0.6-0.1c-0.3-0.1-0.5-0.1-0.9-0.3s-0.6-0.3-1-0.5c-0.3-0.2-0.6-0.5-0.9-0.8c-0.3-0.3-0.5-0.7-0.7-1.1
				c-0.2-0.4-0.3-1-0.3-1.6c0,0,0-0.2,0-0.4c0-0.2,0.1-0.5,0.2-0.8c0.1-0.3,0.3-0.7,0.5-1.1c0.2-0.4,0.6-0.7,1-1
				c0.4-0.3,0.9-0.6,1.6-0.8c0.6-0.2,1.4-0.3,2.3-0.3c0.8,0,1.7,0.2,2.4,0.5c0.8,0.4,1.4,0.9,2,1.5l-2.1,1.7
				c-0.2-0.3-0.4-0.5-0.6-0.6c-0.3-0.1-0.6-0.3-0.8-0.3c-0.3-0.1-0.7-0.1-1.1-0.1c-0.8,0-1.4,0.2-1.9,0.5c-0.4,0.3-0.7,0.8-0.7,1.3
				c0,0.4,0.1,0.7,0.2,1c0.1,0.2,0.3,0.4,0.6,0.5c0.2,0.1,0.5,0.2,0.9,0.3C340.3,551.1,340.7,551.2,341.1,551.2z"/>
		</g>
		<g id="XMLID_464_">
			<path class="st2" d="M361.1,544.8v9.9c0,0.1,0,0.4,0,0.7c0,0.3-0.1,0.7-0.2,1.2c-0.1,0.4-0.3,0.9-0.5,1.3c-0.2,0.5-0.6,0.9-1,1.3
				c-0.5,0.4-1,0.7-1.7,0.9c-0.7,0.2-1.5,0.4-2.6,0.4c-1,0-1.8-0.1-2.4-0.4c-0.7-0.2-1.2-0.6-1.6-0.9c-0.4-0.4-0.8-0.8-1-1.3
				c-0.2-0.5-0.4-0.9-0.5-1.3c-0.1-0.4-0.2-0.8-0.2-1.2c0-0.3,0-0.6,0-0.7v-9.9h2.6v9.9c0,0.2,0,0.4,0.1,0.8c0,0.4,0.1,0.8,0.3,1.2
				c0.2,0.4,0.5,0.7,1,1.1c0.4,0.3,1.1,0.5,1.8,0.5c0.9,0,1.5-0.2,2-0.5c0.5-0.3,0.8-0.7,1-1.1c0.2-0.4,0.3-0.8,0.4-1.2
				c0-0.4,0.1-0.6,0.1-0.8v-9.9H361.1z"/>
		</g>
		<g id="XMLID_462_">
			<path class="st2" d="M386,544.8h2.6v13.6l-2.6,2V544.8z"/>
		</g>
		<g id="XMLID_461_">
			<polygon class="st2" points="369.4,544.8 366.8,544.8 364.2,544.8 364.2,547.5 366.8,547.5 366.8,548.4 366.8,560.5 369.4,560.5 
				369.4,548.4 369.4,547.5 372,547.5 372,544.8 			"/>
		</g>
		<g id="XMLID_460_">
			<polygon class="st2" points="380.3,544.8 377.6,544.8 375,544.8 375,547.5 377.6,547.5 377.6,548.4 377.6,560.5 380.3,560.5 
				380.3,548.4 380.3,547.5 382.9,547.5 382.9,544.8 			"/>
		</g>
	</g>
</g>
<g id="XMLID_9573_">
	<rect x="49" y="367.9" class="st0" width="327.2" height="150"/>
</g>
<g id="XMLID_137_">
</g>
<g id="XMLID_9197_">
	<path class="st3" d="M124.6,414.5h-12.2v11.2h-6.8v-26.6h6.8v11.1h12.2v-11.1h6.8v26.6h-6.8V414.5z"/>
	<path class="st3" d="M137.4,399.1h6.8v26.6h-6.8V399.1z"/>
	<path class="st3" d="M150.3,425.7v-26.6h13.5c9.5,0,12.4,6.8,12.4,13c0,6.2-2.9,13.6-12.4,13.6H150.3z M163.8,421.3
		c3.9,0,5.5-4.7,5.5-9.3c0-4.6-1.6-8.6-5.5-8.6h-6.7v17.9H163.8z"/>
	<path class="st3" d="M193.2,416h-4.8v9.7h-6.8v-26.6h13.1c7.1,0,11.3,2.8,11.3,8.3c0,3.5-1.4,6.3-5.3,7.6l7.2,10.7h-7.4l-6.5-9.7
		L193.2,416z M194.7,411.6c3.6,0,4.5-1.2,4.5-4.3c0-3.1-1-3.9-4.5-3.9h-6.3v8.2H194.7z"/>
	<path class="st3" d="M228,399.1l10.2,26.6h-6.9l-2.4-6.2h-10.4l-2.4,6.2h-6.9l10.3-26.6H228z M223.7,405.6l-3.5,9.5h6.9
		L223.7,405.6z"/>
	<path class="st3" d="M241,399.1h8l10.6,17.3v-17.3h6.8v26.6h-8l-10.6-17.3v17.3H241V399.1z"/>
	<path class="st3" d="M269.2,399.1h26.2v4.3h-9.7v22.3H279v-22.3h-9.7V399.1z"/>
	<path class="st3" d="M298.7,399.1h22.4v4.3h-15.6v6.5h13.1v4.3h-13.1v7.1h15.6v4.3h-22.4V399.1z"/>
	<path class="st3" d="M78,483v-26.6h13.5c9.5,0,12.4,6.8,12.4,13c0,6.2-2.9,13.6-12.4,13.6H78z M91.6,478.7c3.9,0,5.5-4.7,5.5-9.3
		c0-4.6-1.6-8.6-5.5-8.6h-6.7v17.9H91.6z"/>
	<path class="st3" d="M109.3,456.4h22.4v4.3h-15.6v6.5h13.1v4.3h-13.1v7.1h15.6v4.3h-22.4V456.4z"/>
	<path class="st3" d="M150.1,456.4h6.8V483h-6.8V456.4z"/>
	<path class="st3" d="M162.4,456.4h8l10.6,17.3v-17.3h6.8V483h-8l-10.6-17.3V483h-6.8V456.4z"/>
	<path class="st3" d="M215.4,482.2c-2.6,0.4-6.7,1.1-10.5,1.1c-10.8,0-13.1-5.8-13.1-13.5c0-7.5,1.9-13.7,13.1-13.7
		c4.5,0,7.9,0.5,10.5,1l-0.5,4.4c-3.3-0.6-6.8-1.1-10-1.1c-5.4,0-6.2,3-6.2,9.4c0,6.4,0.9,9.2,6.2,9.2c3,0,7.1-0.6,10-1.1
		L215.4,482.2z"/>
	<path class="st3" d="M220,456.4h22.4v4.3h-15.6v6.5h13.1v4.3h-13.1v7.1h15.6v4.3H220V456.4z M229.1,447.6h2.7l6.8,6h-5.3l-2.8-2.6
		l-2.8,2.6h-5.3L229.1,447.6z"/>
	<path class="st3" d="M246.4,456.4h8l10.6,17.3v-17.3h6.8V483h-8l-10.6-17.3V483h-6.8V456.4z"/>
	<path class="st3" d="M277.4,483v-26.6h13.5c9.5,0,12.4,6.8,12.4,13c0,6.2-2.9,13.6-12.4,13.6H277.4z M290.9,478.7
		c3.9,0,5.5-4.7,5.5-9.3c0-4.6-1.6-8.6-5.5-8.6h-6.7v17.9H290.9z"/>
	<path class="st3" d="M308.6,456.4h6.8V483h-6.8V456.4z"/>
	<path class="st3" d="M347.9,469.3c0,9.1-2.7,14-13.5,14c-10.7,0-13.7-4.3-13.7-14.1c0-9.3,4.4-13.1,13.7-13.1
		C343,456.1,347.9,460.1,347.9,469.3z M341.1,469.3c0-6.7-2.6-8.9-6.7-8.9c-5.1,0-6.9,1.7-6.9,8.8c0,7.6,1.1,9.8,6.9,9.8
		C340.1,479,341.1,476.4,341.1,469.3z"/>
</g>
<g id="XMLID_9521_">
	<polygon class="st0" points="99.2,58 128.4,58 157.7,58 157.7,163.2 267.5,163.2 267.5,58 296.6,58 326,58 326,338.5 296.8,338.5 
		267.5,338.5 267.5,211.4 157.7,211.4 157.7,338.5 128.6,338.5 99.2,338.5 	"/>
</g>
</svg>
