<?xml version="1.0" encoding="utf-8"?>
<!-- Generator: Adobe Illustrator 19.2.1, SVG Export Plug-In . SVG Version: 6.00 Build 0)  -->
<svg version="1.1" id="Layer_1" xmlns="http://www.w3.org/2000/svg" xmlns:xlink="http://www.w3.org/1999/xlink" x="0px" y="0px"
	 viewBox="0 0 340.2 680.3" style="enable-background:new 0 0 340.2 680.3;" xml:space="preserve">
<style type="text/css">
	.st0{fill:#EDEDED;}
	.st1{fill:#E31019;}
	.st2{fill:#9D9D9C;}
</style>
<rect id="XMLID_9241_" y="0" class="st0" width="340.2" height="680.3"/>
<rect id="XMLID_9240_" x="31.7" y="30.1" class="st1" width="276.8" height="620.1"/>
<polygon id="XMLID_9236_" class="st0" points="68.1,475.4 194,475.4 150,430 207.6,430 272,496.5 207.6,562.9 150,562.9 194,517.5 
	68.1,517.5 "/>
<polygon id="XMLID_9235_" class="st0" points="123,338.2 123,229.3 217.1,229.3 217.1,338.2 242.3,338.2 267.3,338.2 267.3,97.7 
	242.1,97.7 217.1,97.7 217.1,187.9 123,187.9 123,97.7 97.9,97.7 72.8,97.7 72.8,338.2 98,338.2 "/>
<g id="XMLID_458_">
	<rect id="XMLID_480_" x="117.9" y="650.2" class="st0" width="111.7" height="30.1"/>
	<g id="XMLID_459_">
		<g id="XMLID_472_">
			<path id="XMLID_477_" class="st2" d="M154.6,666.7c-0.8,0-1.4,0.6-1.4,1.4s0.6,1.4,1.4,1.4c0.8,0,1.4-0.6,1.4-1.4
				S155.4,666.7,154.6,666.7z M154.9,668.2c-0.1,0.1-0.3,0.1-0.6-0.1c-0.3-0.1-0.5-0.3-0.5-0.4l-0.4-0.2l0.4,0.1
				c0.1-0.1,0.3-0.1,0.6,0.1C154.8,667.8,155,668,154.9,668.2l0.9,0.4L154.9,668.2z"/>
			<path id="XMLID_473_" class="st2" d="M154.8,667.9c-0.1-0.1-0.2-0.1-0.3-0.2c-0.3-0.1-0.5-0.2-0.6-0.1c0,0.1,0.2,0.3,0.4,0.4
				c0.1,0.1,0.3,0.1,0.4,0.1c0,0,0.1,0,0.1,0c0.1,0,0.1,0,0.1-0.1C154.9,668.1,154.9,668,154.8,667.9z M154.7,668.2
				c-0.1,0-0.2-0.1-0.4-0.1c-0.3-0.1-0.4-0.3-0.4-0.3l1,0.4C154.9,668.2,154.8,668.2,154.7,668.2z M153.9,667.7
				C153.9,667.6,154,667.6,153.9,667.7c0.2,0,0.4,0,0.5,0.1c0.1,0.1,0.3,0.1,0.3,0.2c0.1,0.1,0.1,0.1,0.1,0.1L153.9,667.7z"/>
		</g>
		<path id="XMLID_470_" class="st2" d="M162.9,673.6h-3.4l-4.9-10.4l-4.9,10.4h-3.4l8.3-16.6L162.9,673.6z"/>
		<path id="XMLID_468_" class="st2" d="M143,656.9v16.6l-2.8-2.2v-8.6l-5.6,4.3l-5.5-4.3v8.6l-2.8,2.2v-16.6l8.3,6.5L143,656.9z"/>
		<path id="XMLID_466_" class="st2" d="M170.9,663.8c0.1,0,0.3,0,0.6,0.1c0.3,0,0.6,0.1,1,0.3c0.4,0.1,0.7,0.3,1.1,0.5
			c0.4,0.2,0.7,0.5,1,0.8c0.3,0.4,0.6,0.8,0.8,1.3c0.2,0.5,0.3,1.1,0.3,1.9c0,0,0,0.2,0,0.4c0,0.3-0.1,0.6-0.2,0.9
			c-0.1,0.4-0.3,0.8-0.5,1.2c-0.2,0.4-0.6,0.8-1,1.2c-0.4,0.4-1,0.7-1.7,0.9c-0.7,0.2-1.5,0.4-2.5,0.4c-0.9,0-1.7-0.2-2.5-0.6
			c-0.8-0.4-1.5-0.9-2.1-1.6l2.2-1.7c0,0,0.1,0.1,0.2,0.2c0.1,0.1,0.3,0.2,0.5,0.4c0.2,0.1,0.5,0.3,0.8,0.4c0.3,0.1,0.7,0.2,1.2,0.2
			c0.8,0,1.5-0.2,2-0.7c0.5-0.4,0.7-0.9,0.7-1.5c0-0.4-0.1-0.8-0.3-1c-0.2-0.3-0.4-0.5-0.7-0.7c-0.3-0.2-0.6-0.3-1-0.4
			c-0.4-0.1-0.8-0.2-1.2-0.3c-0.1,0-0.3-0.1-0.6-0.1c-0.3-0.1-0.6-0.2-0.9-0.3c-0.3-0.1-0.7-0.3-1-0.5c-0.4-0.2-0.7-0.5-1-0.8
			s-0.5-0.7-0.7-1.2c-0.2-0.5-0.3-1-0.3-1.6c0,0,0-0.2,0-0.4c0-0.2,0.1-0.5,0.2-0.9c0.1-0.3,0.3-0.7,0.5-1.1c0.2-0.4,0.6-0.8,1-1.1
			c0.4-0.3,1-0.6,1.7-0.8c0.7-0.2,1.5-0.3,2.5-0.3c0.9,0,1.7,0.2,2.6,0.6c0.8,0.4,1.5,0.9,2.1,1.6l-2.2,1.7
			c-0.2-0.3-0.4-0.5-0.7-0.7c-0.3-0.2-0.6-0.3-0.9-0.3c-0.4-0.1-0.7-0.1-1.1-0.1c-0.8,0-1.5,0.2-2,0.5c-0.5,0.3-0.7,0.8-0.7,1.4
			c0,0.4,0.1,0.8,0.2,1c0.1,0.2,0.3,0.4,0.6,0.6c0.3,0.1,0.6,0.2,0.9,0.3C170.1,663.6,170.5,663.7,170.9,663.8z"/>
		<path id="XMLID_464_" class="st2" d="M192,657v10.4c0,0.1,0,0.4,0,0.8c0,0.4-0.1,0.8-0.2,1.2c-0.1,0.5-0.3,0.9-0.6,1.4
			c-0.3,0.5-0.6,0.9-1.1,1.3c-0.5,0.4-1.1,0.7-1.8,1c-0.7,0.3-1.6,0.4-2.7,0.4c-1,0-1.9-0.1-2.6-0.4c-0.7-0.3-1.3-0.6-1.7-1
			c-0.5-0.4-0.8-0.9-1-1.3c-0.2-0.5-0.4-1-0.5-1.4c-0.1-0.5-0.2-0.9-0.2-1.2c0-0.4,0-0.6,0-0.8V657h2.8v10.4c0,0.2,0,0.4,0.1,0.8
			c0,0.4,0.2,0.8,0.4,1.2c0.2,0.4,0.5,0.8,1,1.1c0.5,0.3,1.1,0.5,2,0.5c0.9,0,1.6-0.2,2.1-0.5c0.5-0.3,0.9-0.7,1.1-1.1
			c0.2-0.4,0.4-0.8,0.4-1.2c0-0.4,0.1-0.7,0.1-0.8V657H192z"/>
		<path id="XMLID_462_" class="st2" d="M218.3,657h2.8v14.4l-2.8,2.1V657z"/>
		<polygon id="XMLID_461_" class="st2" points="200.8,657 198,657 195.3,657 195.3,659.8 198,659.8 198,660.8 198,673.5 
			200.8,673.5 200.8,660.8 200.8,659.8 203.6,659.8 203.6,657 		"/>
		<polygon id="XMLID_460_" class="st2" points="212.2,657 209.5,657 206.7,657 206.7,659.8 209.5,659.8 209.5,660.8 209.5,673.5 
			212.2,673.5 212.2,660.8 212.2,659.8 215,659.8 215,657 		"/>
	</g>
</g>
</svg>
