<?xml version="1.0" encoding="utf-8"?>
<!-- Generator: Adobe Illustrator 19.2.1, SVG Export Plug-In . SVG Version: 6.00 Build 0)  -->
<svg version="1.1" id="Layer_1" xmlns="http://www.w3.org/2000/svg" xmlns:xlink="http://www.w3.org/1999/xlink" x="0px" y="0px"
	 viewBox="0 0 425.2 425.2" style="enable-background:new 0 0 425.2 425.2;" xml:space="preserve">
<style type="text/css">
	.st0{fill:#EDEDED;}
	.st1{fill:#E31019;}
	.st2{fill:#9D9D9C;}
</style>
<g id="XMLID_14_">
	<rect id="XMLID_9625_" x="0" y="0" class="st0" width="425.2" height="425.2"/>
	<rect id="XMLID_9624_" x="0" y="0" class="st0" width="425.2" height="425.2"/>
	<rect id="XMLID_9623_" x="25.7" y="25.7" class="st1" width="373.8" height="373.8"/>
	<g id="XMLID_9618_">
		<polygon id="XMLID_9622_" class="st0" points="227.7,105.4 237.2,105.4 237.2,59.8 227.7,59.8 227.7,59.8 218.2,59.8 218.2,105.4 
			227.7,105.4 		"/>
		<path id="XMLID_9621_" class="st0" d="M291.3,138.6c-9.9-7.3-20.8-13.2-32.4-17.5c-10.2-3.7-20.7-5.9-31.2-6.8
			c-53.6-4.3-107.1,27.8-122.5,82.7c-17,60.5,27.6,122.9,92.1,126.3c10.7,0.6,20.9-0.7,30.4-3.4c29.5-8.3,52.7-30.4,63.6-56.2
			c8.5-20.2,9.5-42.7,0-62.6c-6-12.6-16.3-24.2-31.4-33.5c-10.8-6.6-21.7-10.2-32.2-11.5c-66.1-7.8-118.4,78.7-53.4,117.9
			c16.2,9.8,37,8.7,53.4,0c14.5-7.7,25.6-21.3,27-38.6c1.7-20.7-11.8-32.7-27-35.6c-18.4-3.5-39.5,6.3-39.4,29.8l23.8-0.3
			c2.2-7.2,11.4-7,15.6-2.4c1.7,1.9,2.7,4.6,1.9,7.8c-0.5,2-1.1,3.9-1.9,5.6c-14.3,32.1-74.3,10.1-54.3-30.9
			c10.8-22.1,33.3-31.1,54.3-27.7c16.2,2.6,31.5,12.5,39.7,29.4c17.2,35.1-6.9,69.6-39.7,82.2c-11.6,4.4-24.2,6.1-36.5,4.2
			c-45.9-7.3-76.3-53.1-60.5-98.1c14.6-41.5,55.6-64.3,97-60.2c7.9,0.8,15.8,2.6,23.6,5.4c15.7,5.7,29.4,15.2,40,27.2
			c20,22.4,29.5,53.5,22.2,84.3c-4,16.7-11.7,31.6-22.2,44.1c-16.1,19.3-38.6,32.8-63.6,38.1c-7.9,1.7-16.1,2.6-24.4,2.5
			c-84.3-0.3-131.8-78.2-115-148.4c13.6-56.9,72.7-97.5,126-97.5v-25c-65.6,0-133.9,44.2-151,116.3c-10.2,43.2-1.3,90.5,29.4,127.3
			c35,42,87.4,57.6,135.1,49.7c23.1-3.8,45.2-13.2,63.6-27.7c22-17.4,39-42.1,46.5-73.8C349.7,211.8,327.8,165.6,291.3,138.6z"/>
		<rect id="XMLID_9620_" x="349.3" y="70.1" class="st0" width="16.8" height="25"/>
		<polygon id="XMLID_9619_" class="st0" points="241.6,70.1 241.6,95.1 291.3,92.6 345.1,89.9 345.1,75.3 291.3,72.6 		"/>
	</g>
</g>
<g id="XMLID_458_">
	<rect id="XMLID_480_" x="304.3" y="399.5" class="st0" width="95.2" height="25.7"/>
	<g id="XMLID_459_">
		<g id="XMLID_472_">
			<path id="XMLID_477_" class="st2" d="M335.6,413.6c-0.6,0-1.2,0.5-1.2,1.2s0.5,1.2,1.2,1.2s1.2-0.5,1.2-1.2
				S336.3,413.6,335.6,413.6z M335.9,414.8c-0.1,0.1-0.3,0.1-0.5-0.1c-0.2-0.1-0.4-0.3-0.4-0.4l-0.3-0.1l0.3,0.1
				c0.1-0.1,0.3-0.1,0.5,0.1C335.8,414.6,335.9,414.7,335.9,414.8l0.8,0.3L335.9,414.8z"/>
			<path id="XMLID_473_" class="st2" d="M335.8,414.7c-0.1-0.1-0.2-0.1-0.3-0.2c-0.2-0.1-0.5-0.2-0.5-0.1c0,0.1,0.2,0.2,0.4,0.3
				c0.1,0.1,0.2,0.1,0.3,0.1c0,0,0,0,0.1,0c0.1,0,0.1,0,0.1,0C335.9,414.8,335.9,414.7,335.8,414.7z M335.7,414.8
				c-0.1,0-0.2,0-0.3-0.1c-0.2-0.1-0.4-0.2-0.4-0.3l0.8,0.4C335.8,414.8,335.8,414.8,335.7,414.8z M335,414.4
				C335,414.4,335.1,414.4,335,414.4c0.2,0,0.3,0,0.5,0.1c0.1,0.1,0.2,0.1,0.3,0.2c0.1,0,0.1,0.1,0.1,0.1L335,414.4z"/>
		</g>
		<path id="XMLID_470_" class="st2" d="M342.7,419.4h-2.9l-4.2-8.9l-4.2,8.9h-2.9l7-14.1L342.7,419.4z"/>
		<path id="XMLID_468_" class="st2" d="M325.7,405.3v14.2l-2.3-1.8v-7.4l-4.7,3.7l-4.7-3.7v7.4l-2.3,1.8v-14.2l7.1,5.5L325.7,405.3z
			"/>
		<path id="XMLID_466_" class="st2" d="M349.5,411.1c0.1,0,0.3,0,0.5,0.1c0.2,0,0.5,0.1,0.8,0.2c0.3,0.1,0.6,0.2,0.9,0.4
			c0.3,0.2,0.6,0.4,0.9,0.7c0.3,0.3,0.5,0.7,0.7,1.1c0.2,0.4,0.3,1,0.3,1.6c0,0,0,0.1,0,0.4c0,0.2-0.1,0.5-0.2,0.8
			c-0.1,0.3-0.3,0.6-0.5,1c-0.2,0.4-0.5,0.7-0.9,1c-0.4,0.3-0.8,0.6-1.4,0.8c-0.6,0.2-1.3,0.3-2.1,0.3c-0.8,0-1.5-0.2-2.2-0.5
			c-0.7-0.3-1.3-0.8-1.8-1.3l1.9-1.5c0,0,0,0.1,0.1,0.2c0.1,0.1,0.2,0.2,0.4,0.3c0.2,0.1,0.4,0.2,0.7,0.3c0.3,0.1,0.6,0.1,1,0.1
			c0.7,0,1.3-0.2,1.7-0.6c0.4-0.4,0.6-0.8,0.6-1.3c0-0.4-0.1-0.7-0.2-0.9c-0.2-0.2-0.4-0.4-0.6-0.6c-0.3-0.1-0.6-0.3-0.9-0.3
			c-0.3-0.1-0.7-0.2-1.1-0.2c-0.1,0-0.3,0-0.5-0.1c-0.2,0-0.5-0.1-0.8-0.2c-0.3-0.1-0.6-0.3-0.9-0.4c-0.3-0.2-0.6-0.4-0.8-0.7
			c-0.2-0.3-0.4-0.6-0.6-1c-0.2-0.4-0.2-0.9-0.2-1.4c0,0,0-0.1,0-0.3c0-0.2,0.1-0.5,0.2-0.8c0.1-0.3,0.2-0.6,0.5-0.9
			c0.2-0.3,0.5-0.6,0.9-0.9c0.4-0.3,0.8-0.5,1.4-0.7c0.6-0.2,1.3-0.3,2.1-0.3c0.8,0,1.5,0.2,2.2,0.5c0.7,0.3,1.3,0.8,1.8,1.3
			l-1.9,1.5c-0.1-0.2-0.3-0.4-0.6-0.6c-0.3-0.1-0.5-0.2-0.8-0.3c-0.3-0.1-0.6-0.1-1-0.1c-0.7,0-1.3,0.1-1.7,0.4
			c-0.4,0.3-0.6,0.7-0.6,1.2c0,0.4,0.1,0.6,0.2,0.9c0.1,0.2,0.3,0.4,0.5,0.5c0.2,0.1,0.5,0.2,0.8,0.3
			C348.8,410.9,349.2,411,349.5,411.1z"/>
		<path id="XMLID_464_" class="st2" d="M367.5,405.3v8.9c0,0.1,0,0.3,0,0.6c0,0.3-0.1,0.7-0.2,1c-0.1,0.4-0.3,0.8-0.5,1.2
			c-0.2,0.4-0.5,0.8-0.9,1.1c-0.4,0.3-0.9,0.6-1.5,0.8c-0.6,0.2-1.4,0.3-2.3,0.3c-0.9,0-1.6-0.1-2.2-0.3c-0.6-0.2-1.1-0.5-1.5-0.8
			c-0.4-0.3-0.7-0.7-0.9-1.1c-0.2-0.4-0.4-0.8-0.5-1.2c-0.1-0.4-0.2-0.7-0.2-1c0-0.3,0-0.5,0-0.6v-8.9h2.3v8.9c0,0.1,0,0.4,0,0.7
			c0,0.3,0.1,0.7,0.3,1c0.2,0.4,0.5,0.7,0.9,0.9c0.4,0.3,0.9,0.4,1.7,0.4c0.8,0,1.4-0.1,1.8-0.4c0.4-0.3,0.7-0.6,0.9-0.9
			c0.2-0.4,0.3-0.7,0.3-1c0-0.3,0-0.6,0-0.7v-8.9H367.5z"/>
		<path id="XMLID_462_" class="st2" d="M389.9,405.3h2.3v12.3l-2.3,1.8V405.3z"/>
		<polygon id="XMLID_461_" class="st2" points="375,405.3 372.6,405.3 370.3,405.3 370.3,407.7 372.6,407.7 372.6,408.5 
			372.6,419.4 375,419.4 375,408.5 375,407.7 377.3,407.7 377.3,405.3 		"/>
		<polygon id="XMLID_460_" class="st2" points="384.7,405.3 382.4,405.3 380,405.3 380,407.7 382.4,407.7 382.4,408.5 382.4,419.4 
			384.7,419.4 384.7,408.5 384.7,407.7 387.1,407.7 387.1,405.3 		"/>
	</g>
</g>
</svg>
