<?xml version="1.0" encoding="utf-8"?>
<!-- Generator: Adobe Illustrator 19.2.1, SVG Export Plug-In . SVG Version: 6.00 Build 0)  -->
<svg version="1.1" id="Layer_1" xmlns="http://www.w3.org/2000/svg" xmlns:xlink="http://www.w3.org/1999/xlink" x="0px" y="0px"
	 viewBox="0 0 425.2 566.9" style="enable-background:new 0 0 425.2 566.9;" xml:space="preserve">
<style type="text/css">
	.st0{fill:#EDEDED;}
	.st1{fill:#E31019;}
	.st2{fill:#9D9D9C;}
	.st3{fill:#E30613;}
</style>
<g id="XMLID_9575_">
	<rect x="0" y="0" class="st0" width="425.2" height="566.9"/>
</g>
<g id="XMLID_9574_">
	<rect x="28.5" y="28.5" class="st1" width="368.1" height="509.9"/>
</g>
<g id="XMLID_458_">
	<g id="XMLID_480_">
		<rect x="290.9" y="538.4" class="st0" width="105.8" height="28.5"/>
	</g>
	<g id="XMLID_459_">
		<g id="XMLID_472_">
			<g id="XMLID_477_">
				<path class="st2" d="M325.7,554c-0.7,0-1.3,0.6-1.3,1.3c0,0.7,0.6,1.3,1.3,1.3s1.3-0.6,1.3-1.3C327,554.6,326.4,554,325.7,554z
					 M326,555.4c-0.1,0.1-0.3,0.1-0.6-0.1c-0.3-0.1-0.5-0.3-0.5-0.4l-0.4-0.2l0.4,0.1c0.1-0.1,0.3-0.1,0.6,0.1
					C325.8,555.1,326,555.3,326,555.4l0.8,0.3L326,555.4z"/>
			</g>
			<g id="XMLID_473_">
				<path class="st2" d="M325.9,555.2c-0.1-0.1-0.2-0.1-0.3-0.2c-0.2-0.1-0.5-0.2-0.6-0.1c0,0.1,0.2,0.3,0.4,0.4
					c0.1,0.1,0.3,0.1,0.4,0.1c0,0,0.1,0,0.1,0c0.1,0,0.1,0,0.1-0.1C326,555.3,325.9,555.3,325.9,555.2z M325.8,555.4
					c-0.1,0-0.2-0.1-0.4-0.1c-0.3-0.1-0.4-0.3-0.4-0.3l0.9,0.4C325.9,555.4,325.8,555.4,325.8,555.4z M325,554.9
					C325,554.9,325.1,554.9,325,554.9c0.2,0,0.3,0,0.5,0.1c0.1,0.1,0.2,0.1,0.3,0.2c0.1,0.1,0.1,0.1,0.1,0.1L325,554.9z"/>
			</g>
		</g>
		<g id="XMLID_470_">
			<path class="st2" d="M333.5,560.5h-3.2l-4.7-9.9l-4.7,9.9h-3.2l7.8-15.7L333.5,560.5z"/>
		</g>
		<g id="XMLID_468_">
			<path class="st2" d="M314.7,544.8v15.7l-2.6-2v-8.2l-5.3,4.1l-5.3-4.1v8.2l-2.6,2v-15.7l7.9,6.1L314.7,544.8z"/>
		</g>
		<g id="XMLID_466_">
			<path class="st2" d="M341.1,551.2c0.1,0,0.3,0,0.6,0.1c0.3,0,0.6,0.1,0.9,0.2c0.3,0.1,0.7,0.3,1.1,0.5c0.4,0.2,0.7,0.5,1,0.8
				c0.3,0.3,0.5,0.8,0.7,1.2c0.2,0.5,0.3,1.1,0.3,1.8c0,0,0,0.2,0,0.4c0,0.2-0.1,0.5-0.2,0.9c-0.1,0.3-0.3,0.7-0.5,1.1
				c-0.2,0.4-0.5,0.8-1,1.1c-0.4,0.3-0.9,0.6-1.6,0.8c-0.6,0.2-1.4,0.3-2.3,0.3c-0.8,0-1.7-0.2-2.4-0.5c-0.8-0.4-1.4-0.8-2-1.5
				l2.1-1.7c0,0,0.1,0.1,0.2,0.2c0.1,0.1,0.3,0.2,0.5,0.4c0.2,0.1,0.5,0.2,0.8,0.3c0.3,0.1,0.7,0.2,1.1,0.2c0.8,0,1.4-0.2,1.9-0.6
				c0.4-0.4,0.7-0.9,0.7-1.5c0-0.4-0.1-0.7-0.3-1c-0.2-0.3-0.4-0.5-0.7-0.6c-0.3-0.2-0.6-0.3-1-0.4c-0.4-0.1-0.8-0.2-1.2-0.3
				c-0.1,0-0.3,0-0.6-0.1c-0.3-0.1-0.5-0.1-0.9-0.3s-0.6-0.3-1-0.5c-0.3-0.2-0.6-0.5-0.9-0.8c-0.3-0.3-0.5-0.7-0.7-1.1
				c-0.2-0.4-0.3-1-0.3-1.6c0,0,0-0.2,0-0.4c0-0.2,0.1-0.5,0.2-0.8c0.1-0.3,0.3-0.7,0.5-1.1c0.2-0.4,0.6-0.7,1-1
				c0.4-0.3,0.9-0.6,1.6-0.8c0.6-0.2,1.4-0.3,2.3-0.3c0.8,0,1.7,0.2,2.4,0.5c0.8,0.4,1.4,0.9,2,1.5l-2.1,1.7
				c-0.2-0.3-0.4-0.5-0.6-0.6c-0.3-0.1-0.6-0.3-0.8-0.3c-0.3-0.1-0.7-0.1-1.1-0.1c-0.8,0-1.4,0.2-1.9,0.5c-0.4,0.3-0.7,0.8-0.7,1.3
				c0,0.4,0.1,0.7,0.2,1c0.1,0.2,0.3,0.4,0.6,0.5c0.2,0.1,0.5,0.2,0.9,0.3C340.3,551.1,340.7,551.2,341.1,551.2z"/>
		</g>
		<g id="XMLID_464_">
			<path class="st2" d="M361.1,544.8v9.9c0,0.1,0,0.4,0,0.7c0,0.3-0.1,0.7-0.2,1.2c-0.1,0.4-0.3,0.9-0.5,1.3c-0.2,0.5-0.6,0.9-1,1.3
				c-0.5,0.4-1,0.7-1.7,0.9c-0.7,0.2-1.5,0.4-2.6,0.4c-1,0-1.8-0.1-2.4-0.4c-0.7-0.2-1.2-0.6-1.6-0.9c-0.4-0.4-0.8-0.8-1-1.3
				c-0.2-0.5-0.4-0.9-0.5-1.3c-0.1-0.4-0.2-0.8-0.2-1.2c0-0.3,0-0.6,0-0.7v-9.9h2.6v9.9c0,0.2,0,0.4,0.1,0.8c0,0.4,0.1,0.8,0.3,1.2
				c0.2,0.4,0.5,0.7,1,1.1c0.4,0.3,1.1,0.5,1.8,0.5c0.9,0,1.5-0.2,2-0.5c0.5-0.3,0.8-0.7,1-1.1c0.2-0.4,0.3-0.8,0.4-1.2
				c0-0.4,0.1-0.6,0.1-0.8v-9.9H361.1z"/>
		</g>
		<g id="XMLID_462_">
			<path class="st2" d="M386,544.8h2.6v13.6l-2.6,2V544.8z"/>
		</g>
		<g id="XMLID_461_">
			<polygon class="st2" points="369.4,544.8 366.8,544.8 364.2,544.8 364.2,547.5 366.8,547.5 366.8,548.4 366.8,560.5 369.4,560.5 
				369.4,548.4 369.4,547.5 372,547.5 372,544.8 			"/>
		</g>
		<g id="XMLID_460_">
			<polygon class="st2" points="380.3,544.8 377.6,544.8 375,544.8 375,547.5 377.6,547.5 377.6,548.4 377.6,560.5 380.3,560.5 
				380.3,548.4 380.3,547.5 382.9,547.5 382.9,544.8 			"/>
		</g>
	</g>
</g>
<g id="XMLID_9573_">
	<rect x="49" y="367.9" class="st0" width="327.2" height="150"/>
</g>
<g id="XMLID_9505_">
	<g id="XMLID_9509_">
		<path class="st0" d="M288,127.3c-9.4-7-19.9-12.7-31-16.7c-9.8-3.6-19.9-5.7-29.9-6.5c-51.4-4.1-102.6,26.7-117.4,79.2
			c-16.3,58,26.5,117.7,88.2,121c10.2,0.5,20-0.7,29.2-3.2c28.2-7.9,50.5-29.1,60.9-53.9c8.2-19.4,9.1-40.9,0-60
			c-5.8-12.1-15.6-23.2-30.1-32.1c-10.3-6.3-20.7-9.8-30.8-11c-63.3-7.5-113.5,75.4-51.2,113c15.5,9.4,35.5,8.3,51.2,0
			c13.9-7.4,24.5-20.4,25.8-36.9c1.6-19.9-11.3-31.3-25.8-34.1c-17.7-3.4-37.8,6-37.8,28.6l22.8-0.3c2.1-6.9,10.9-6.8,15-2.3
			c1.7,1.8,2.5,4.4,1.8,7.5c-0.5,1.9-1.1,3.7-1.8,5.4c-13.7,30.7-71.2,9.7-52-29.6c10.3-21.2,31.9-29.8,52-26.6
			c15.5,2.5,30.1,12,38.1,28.2c16.5,33.7-6.6,66.7-38.1,78.7c-11.1,4.2-23.2,5.9-34.9,4c-44-7-73.1-50.8-58-94
			c13.9-39.8,53.2-61.6,92.9-57.7c7.6,0.8,15.2,2.5,22.6,5.1c15,5.4,28.1,14.6,38.4,26.1c19.1,21.5,28.2,51.2,21.2,80.7
			c-3.8,16-11.2,30.3-21.2,42.3c-15.4,18.5-37,31.4-60.9,36.5c-7.6,1.6-15.5,2.5-23.4,2.4C122.9,321,77.4,246.3,93.5,179
			c13.1-54.6,69.7-93.4,120.7-93.4V61.7c-62.8,0-128.3,42.3-144.7,111.5c-9.8,41.3-1.2,86.7,28.1,122
			c33.5,40.3,83.7,55.2,129.5,47.6c22.2-3.7,43.3-12.6,60.9-26.6c21.1-16.6,37.3-40.4,44.5-70.7C344,197.4,322.9,153.2,288,127.3z"
			/>
	</g>
	<g id="XMLID_9508_">
		<rect x="343.5" y="61.7" class="st0" width="16.1" height="23.9"/>
	</g>
	<g id="XMLID_9507_">
		<polygon class="st0" points="240.4,61.7 240.4,85.6 288,83.2 339.6,80.7 339.6,66.7 288,64.1 		"/>
	</g>
	<g id="XMLID_9506_">
		<polygon class="st0" points="236.2,95.5 236.2,51.8 227.1,51.8 217.9,51.8 217.9,95.5 227.1,95.5 		"/>
	</g>
</g>
<g id="XMLID_136_">
	<g id="XMLID_9510_">
		<polygon class="st1" points="100.7,452.5 100.7,402 84.4,402 84.4,452.5 66.9,434.9 66.9,458 92.5,483.9 118.2,458 118.2,434.9 		
			"/>
	</g>
	<g id="XMLID_9185_">
		<path class="st3" d="M165.8,432.4v23h-5.9v-12.9l-5.5,12.3h-5.2l-5.4-12.3v12.9h-5.9v-23h6.8l7.2,15.3l7.2-15.3H165.8z"/>
		<path class="st3" d="M184.9,432.4l8.9,23h-6l-2.1-5.4h-9l-2.1,5.4h-6l8.9-23H184.9z M181.2,438l-3,8.2h6L181.2,438z"/>
		<path class="st3" d="M196.2,432.4h6.9l9.2,15v-15h5.9v23h-6.9l-9.2-15v15h-5.9V432.4z"/>
		<path class="st3" d="M243.3,437c-3.2-0.5-6.6-1.2-9.9-1.2c-4.8,0-5.8,2.6-5.8,8.1c0,5.5,1.1,7.9,5.8,7.9c1.4,0,3.5-0.3,4.3-0.3
			v-5.2h-5.4v-3.7h11.3v12c-2.1,0.3-7,1-10.2,1c-9.2,0-11.8-4.9-11.8-11.7c0-6.6,2.2-11.8,11.8-11.8c4.4,0,7.5,0.5,10.4,1.1
			L243.3,437z"/>
		<path class="st3" d="M254.4,448.3c0,2.8,1.3,3.6,4.6,3.6c3.6,0,4.9-0.7,4.9-3.6v-16h5.9v16c0,5.1-4.5,7.3-10.8,7.3
			c-6,0-10.5-2.1-10.5-7.3v-16h5.9L254.4,448.3z"/>
		<path class="st3" d="M274.7,432.4h19.4v3.7h-13.5v5.6h11.3v3.7h-11.3v6.2h13.5v3.7h-19.4V432.4z"/>
		<path class="st3" d="M298,432.4h5.9v23H298V432.4z"/>
		<path class="st3" d="M319.2,447H315v8.4h-5.9v-23h11.4c6.2,0,9.8,2.4,9.8,7.2c0,3-1.2,5.5-4.6,6.6l6.2,9.2h-6.4l-5.6-8.4H319.2z
			 M320.5,443.2c3.1,0,3.9-1,3.9-3.7c0-2.7-0.8-3.4-3.9-3.4H315v7.1H320.5z"/>
		<path class="st3" d="M349.3,432.4l8.8,23h-6L350,450h-9l-2.1,5.4h-6l8.9-23H349.3z M345.5,438l-3,8.2h6L345.5,438z"/>
	</g>
</g>
</svg>
