<?xml version="1.0" encoding="utf-8"?>
<!-- Generator: Adobe Illustrator 19.2.1, SVG Export Plug-In . SVG Version: 6.00 Build 0)  -->
<svg version="1.1" id="Layer_1" xmlns="http://www.w3.org/2000/svg" xmlns:xlink="http://www.w3.org/1999/xlink" x="0px" y="0px"
	 viewBox="0 0 425.2 425.2" style="enable-background:new 0 0 425.2 425.2;" xml:space="preserve">
<style type="text/css">
	.st0{fill:#EDEDED;}
	.st1{fill:#E31019;}
	.st2{fill:#9D9D9C;}
</style>
<g id="XMLID_211_">
	<rect id="XMLID_9598_" x="0" y="0" class="st0" width="425.2" height="425.2"/>
	<rect id="XMLID_9597_" x="25.7" y="25.7" class="st1" width="373.8" height="373.8"/>
	<polygon id="XMLID_9596_" class="st0" points="90.5,61.6 121.9,61.6 153.5,61.6 153.5,174.8 271.7,174.8 271.7,61.6 303.1,61.6 
		334.7,61.6 334.7,363.6 303.3,363.6 271.7,363.6 271.7,226.8 153.5,226.8 153.5,363.6 122.1,363.6 90.5,363.6 	"/>
</g>
<g id="XMLID_458_">
	<rect id="XMLID_480_" x="304.3" y="399.5" class="st0" width="95.2" height="25.7"/>
	<g id="XMLID_459_">
		<g id="XMLID_472_">
			<path id="XMLID_477_" class="st2" d="M335.6,413.6c-0.6,0-1.2,0.5-1.2,1.2s0.5,1.2,1.2,1.2s1.2-0.5,1.2-1.2
				S336.3,413.6,335.6,413.6z M335.9,414.8c-0.1,0.1-0.3,0.1-0.5-0.1c-0.2-0.1-0.4-0.3-0.4-0.4l-0.3-0.1l0.3,0.1
				c0.1-0.1,0.3-0.1,0.5,0.1C335.8,414.6,335.9,414.7,335.9,414.8l0.8,0.3L335.9,414.8z"/>
			<path id="XMLID_473_" class="st2" d="M335.8,414.7c-0.1-0.1-0.2-0.1-0.3-0.2c-0.2-0.1-0.5-0.2-0.5-0.1c0,0.1,0.2,0.2,0.4,0.3
				c0.1,0.1,0.2,0.1,0.3,0.1c0,0,0,0,0.1,0c0.1,0,0.1,0,0.1,0C335.9,414.8,335.9,414.7,335.8,414.7z M335.7,414.8
				c-0.1,0-0.2,0-0.3-0.1c-0.2-0.1-0.4-0.2-0.4-0.3l0.8,0.4C335.8,414.8,335.8,414.8,335.7,414.8z M335,414.4
				C335,414.4,335.1,414.4,335,414.4c0.2,0,0.3,0,0.5,0.1c0.1,0.1,0.2,0.1,0.3,0.2c0.1,0,0.1,0.1,0.1,0.1L335,414.4z"/>
		</g>
		<path id="XMLID_470_" class="st2" d="M342.7,419.4h-2.9l-4.2-8.9l-4.2,8.9h-2.9l7-14.1L342.7,419.4z"/>
		<path id="XMLID_468_" class="st2" d="M325.7,405.3v14.2l-2.3-1.8v-7.4l-4.7,3.7l-4.7-3.7v7.4l-2.3,1.8v-14.2l7.1,5.5L325.7,405.3z
			"/>
		<path id="XMLID_466_" class="st2" d="M349.5,411.1c0.1,0,0.3,0,0.5,0.1c0.2,0,0.5,0.1,0.8,0.2c0.3,0.1,0.6,0.2,0.9,0.4
			c0.3,0.2,0.6,0.4,0.9,0.7c0.3,0.3,0.5,0.7,0.7,1.1c0.2,0.4,0.3,1,0.3,1.6c0,0,0,0.1,0,0.4c0,0.2-0.1,0.5-0.2,0.8
			c-0.1,0.3-0.3,0.6-0.5,1c-0.2,0.4-0.5,0.7-0.9,1c-0.4,0.3-0.8,0.6-1.4,0.8c-0.6,0.2-1.3,0.3-2.1,0.3c-0.8,0-1.5-0.2-2.2-0.5
			c-0.7-0.3-1.3-0.8-1.8-1.3l1.9-1.5c0,0,0,0.1,0.1,0.2c0.1,0.1,0.2,0.2,0.4,0.3c0.2,0.1,0.4,0.2,0.7,0.3c0.3,0.1,0.6,0.1,1,0.1
			c0.7,0,1.3-0.2,1.7-0.6c0.4-0.4,0.6-0.8,0.6-1.3c0-0.4-0.1-0.7-0.2-0.9c-0.2-0.2-0.4-0.4-0.6-0.6c-0.3-0.1-0.6-0.3-0.9-0.3
			c-0.3-0.1-0.7-0.2-1.1-0.2c-0.1,0-0.3,0-0.5-0.1c-0.2,0-0.5-0.1-0.8-0.2c-0.3-0.1-0.6-0.3-0.9-0.4c-0.3-0.2-0.6-0.4-0.8-0.7
			c-0.2-0.3-0.4-0.6-0.6-1c-0.2-0.4-0.2-0.9-0.2-1.4c0,0,0-0.1,0-0.3c0-0.2,0.1-0.5,0.2-0.8c0.1-0.3,0.2-0.6,0.5-0.9
			c0.2-0.3,0.5-0.6,0.9-0.9c0.4-0.3,0.8-0.5,1.4-0.7c0.6-0.2,1.3-0.3,2.1-0.3c0.8,0,1.5,0.2,2.2,0.5c0.7,0.3,1.3,0.8,1.8,1.3
			l-1.9,1.5c-0.1-0.2-0.3-0.4-0.6-0.6c-0.3-0.1-0.5-0.2-0.8-0.3c-0.3-0.1-0.6-0.1-1-0.1c-0.7,0-1.3,0.1-1.7,0.4
			c-0.4,0.3-0.6,0.7-0.6,1.2c0,0.4,0.1,0.6,0.2,0.9c0.1,0.2,0.3,0.4,0.5,0.5c0.2,0.1,0.5,0.2,0.8,0.3
			C348.8,410.9,349.2,411,349.5,411.1z"/>
		<path id="XMLID_464_" class="st2" d="M367.5,405.3v8.9c0,0.1,0,0.3,0,0.6c0,0.3-0.1,0.7-0.2,1c-0.1,0.4-0.3,0.8-0.5,1.2
			c-0.2,0.4-0.5,0.8-0.9,1.1c-0.4,0.3-0.9,0.6-1.5,0.8c-0.6,0.2-1.4,0.3-2.3,0.3c-0.9,0-1.6-0.1-2.2-0.3c-0.6-0.2-1.1-0.5-1.5-0.8
			c-0.4-0.3-0.7-0.7-0.9-1.1c-0.2-0.4-0.4-0.8-0.5-1.2c-0.1-0.4-0.2-0.7-0.2-1c0-0.3,0-0.5,0-0.6v-8.9h2.3v8.9c0,0.1,0,0.4,0,0.7
			c0,0.3,0.1,0.7,0.3,1c0.2,0.4,0.5,0.7,0.9,0.9c0.4,0.3,0.9,0.4,1.7,0.4c0.8,0,1.4-0.1,1.8-0.4c0.4-0.3,0.7-0.6,0.9-0.9
			c0.2-0.4,0.3-0.7,0.3-1c0-0.3,0-0.6,0-0.7v-8.9H367.5z"/>
		<path id="XMLID_462_" class="st2" d="M389.9,405.3h2.3v12.3l-2.3,1.8V405.3z"/>
		<polygon id="XMLID_461_" class="st2" points="375,405.3 372.6,405.3 370.3,405.3 370.3,407.7 372.6,407.7 372.6,408.5 
			372.6,419.4 375,419.4 375,408.5 375,407.7 377.3,407.7 377.3,405.3 		"/>
		<polygon id="XMLID_460_" class="st2" points="384.7,405.3 382.4,405.3 380,405.3 380,407.7 382.4,407.7 382.4,408.5 382.4,419.4 
			384.7,419.4 384.7,408.5 384.7,407.7 387.1,407.7 387.1,405.3 		"/>
	</g>
</g>
</svg>
