<?xml version="1.0" encoding="utf-8"?>
<!-- Generator: Adobe Illustrator 19.2.1, SVG Export Plug-In . SVG Version: 6.00 Build 0)  -->
<svg version="1.1" id="Layer_1" xmlns="http://www.w3.org/2000/svg" xmlns:xlink="http://www.w3.org/1999/xlink" x="0px" y="0px"
	 viewBox="0 0 425.2 652" style="enable-background:new 0 0 425.2 652;" xml:space="preserve">
<style type="text/css">
	.st0{fill:#EDEDED;}
	.st1{fill:#E31019;}
	.st2{fill:#007DA4;}
	.st3{fill:#009D41;}
	.st4{fill:#3AABE2;}
</style>
<g id="XMLID_7599_">
	<rect x="0" class="st0" width="425.2" height="652"/>
</g>
<g id="XMLID_7996_">
	<path class="st1" d="M196.6,32.9H29v367.2h167.7h199.6V32.9H196.6z M269,383h-72.4h-40.4V138.7c0-7,2.6-13.7,7.2-18.8
		c5.3-5.8,12.9-9.2,20.7-9.2h11.6V88.3c0-1.5-0.6-2.9-1.6-4c-1.1-1-2.5-1.6-4-1.6H178l-39,28.4c-1.3,1-2.2,2.4-2.3,4l-1,11.6h-11.4
		l2.6-29.8c0.1-1.6,0.6-3.1,1.4-4.5c0.8-1.4,1.9-2.6,3.2-3.5l43.2-31.5h22.1h2V50h28v6.2h14l14,9.1v8.4l-14,9.1H235
		c-1.7,0-3.3,0.8-4.4,2.1c-0.8,1-1.2,2.2-1.2,3.5v22.4h11.6c8.3,0,16.4,3.8,21.6,10.2c4.1,5,6.4,11.3,6.4,17.8V383z"/>
</g>
<g id="XMLID_7995_">
	<rect x="29.3" y="416.7" class="st2" width="366.9" height="69.1"/>
</g>
<g id="XMLID_7976_">
	<g id="XMLID_7992_">
		<path class="st2" d="M264.4,523.6c0.5,0.1,1.1,0.1,1.6,0.1c5.4,0,9.7-4.3,9.7-9.7c0-5.4-4.4-9.7-9.7-9.7c-0.5,0-1.1,0-1.6,0.1
			c-4.6,0.8-8.1,4.8-8.1,9.6C256.3,518.8,259.8,522.8,264.4,523.6z M264.4,507.5c0.5-0.1,1-0.2,1.5-0.2c2,0,2.4,0.2,3.5,0.5
			l-0.2,2.4c-0.9-0.3-1.5-0.6-2.8-0.6c-0.7,0-1.3,0.1-1.9,0.4c-1.3,0.6-2.2,1.8-2.2,3.6c0,2.1,0.9,3.5,2.2,4.2
			c0.6,0.3,1.3,0.5,2,0.5c1,0,1.9-0.2,2.8-0.6l0.2,2.4c-1,0.4-2.1,0.5-3.1,0.5c-0.6,0-1.3,0-1.9-0.2c-2.6-0.5-5-2.2-5-6.8
			C259.3,509.9,261.9,508,264.4,507.5z"/>
	</g>
	<g id="XMLID_7991_">
		<polygon class="st2" points="301.5,574.7 300.4,575.9 304.1,579 306.8,581.1 307.9,579.9 304.1,576.8 		"/>
	</g>
	<g id="XMLID_7990_">
		<polygon class="st2" points="308.9,565.9 307.8,567.2 309,568.1 314.2,572.4 315.3,571.1 309,565.9 		"/>
	</g>
	<g id="XMLID_7977_">
		<path class="st2" d="M316.2,526.1H309h-4.8h-5.1h-3.3h-3.3h-6.4h-1.9h-22.4c-3,0-5.4,2.4-5.4,5.4V579l0,0c4.6,0,7.1-3.5,8.1-6.4
			c1.5-4.3,0.8-9.5,0.6-14c-0.2-4.9,0.2-11.8,5.2-13.9c2.4-1,5.5-0.3,7.5,1.9l-2.3,2.8c-2.9-2.2-4.5-1.3-5.3,0.1
			c-2.2,3.4-1.5,5.2-1.5,18.7c0,2.1,0,3.7-0.8,5.7c-1.2,3.3-4.3,8.7-11.6,8.7l0,0v3.5c0,3,2.4,5.4,5.4,5.4h22.4h1.9h6.4h3.3h3.3h5.1
			h4.8h7.2c3,0,5.4-2.4,5.4-5.4v-54.4C321.6,528.5,319.2,526.1,316.2,526.1z M295.8,533.3c0.4-1,0.8-2,0.7-2.9c0,0,1.9,1.9,2.6,4.7
			c0.1,0.3,0.1,0.7,0.2,1c0.1,0.8,0,1.6-0.2,2.3c-0.5,1.9-1.6,3-1.6,3c-0.8-1-1.3-1.9-1.6-2.7C294.8,536.4,295.3,534.7,295.8,533.3z
			 M300.4,558.8l-1.1,1.3l-0.3-0.2l-3.3-2.7l-3.3-2.7l-1.3-1.1l1.1-1.3l0.2,0.2l3.3,2.7l3.3,2.7L300.4,558.8z M277.4,548.4
			c2.3-2.8,4.6-3.9,6.8-4.1c0.7-0.1,1.3,0,1.9,0c2.7,0.4,5,2,6.4,3.2c0.8,0.7,1.3,1.3,1.3,1.3l-1.3,1.6l-6.4,7.7l-1.9,2.3l-3.2,3.9
			C280.9,564.3,269.4,558,277.4,548.4z M283.9,562.2l0.3-0.3l0.8-0.9l1.2,1l6.4,5.2l0.7,0.5l-0.7,0.8L292,569l-6-4.9l-1.9-1.6
			L283.9,562.2z M286.8,572.1c-1.2,2.1-0.2,6.6-0.3,6.5c-0.2-0.2-0.3-0.3-0.5-0.5c-1.4-1.8-0.7-3.9,0-5.1
			C286.6,572.1,287.1,571.7,286.8,572.1z M304.1,587.6c-1.2-0.2-3.2-0.5-5.1-0.4c-1.2,0.1-2.4,0.4-3.2,1.1l-0.1,0.1
			c-0.9,0.7-2.2,0.8-3.3,0.4c-2.2-0.7-4.3-3-4.1-5.5c0,0,1.4,0.7,3.2,1c0,0-6.2-4.5-1.4-11.8c0.1-0.2,0.7,3.5,2.3,5.9
			c0.7,1,1.5,1.7,2.5,1.9c0.3,0,0.5,0.1,0.8,0.2c1.9,0.4,2.8,1,3.3,1.7c0.4,0.6,0.5,1.2,0.6,1.9c0,0,2.5-0.6,4.5,1.8
			c0.4,0.5,0.8,1.1,1.1,1.9C305.3,587.8,304.8,587.7,304.1,587.6z M309,584.8c-0.3,0-0.7,0-1,0c-1.3,0-2.6-0.2-3.8-0.7
			c-2.1-0.8-3.8-2.1-5.1-3.9c-1.3-1.8-2.1-4.1-2.1-6.5c0-2.4,0.8-4.7,2.1-6.5c1.3-1.7,3-3.1,5.1-3.9c1.2-0.4,2.5-0.7,3.8-0.7
			c0.3,0,0.7,0,1,0c5.6,0.5,10,5.2,10,10.9C318.9,579.6,314.6,584.3,309,584.8z M318.7,569.2c-2.2-6.9-9.1-7.3-9.8-7.3l-0.1,0
			c0,0,0.2-1-2.4-3c-1.1-0.8-1.9-1.7-2.3-2.6c-1.3-2.4-0.7-4.8-0.4-6.4c0.5-2.3,0.8-6.4-0.9-6.8c-2.3-0.6-1,4.4-1,4.4
			c-4.2-2.4-1.4-6.2-1.4-6.2c2.4-4,0.2-8.5-1.4-11c-0.8-1.2-1.5-2-1.3-2c0.4,0.1,0.8,0.3,1.3,0.6c1.6,0.7,3.7,1.9,5.1,3.3
			c0.3,0.3,0.6,0.6,0.8,0.9c1.7,2.3,0.8,7.9,0.8,7.9c-0.3,6.8,3,11.2,3,11.2c0-0.4,0.1-0.8,0.2-1.2c0.6-1.5,2.1-2.3,2.1-2.3
			c-0.9,5.9,1.8,8.8,1.8,8.8s0.2-3-0.1-5c-0.3-2,2.9-7.4,2.9-7.4c-0.7,4.4,0.6,11,2.1,13.6c1.3,2.2,0.9,7.7,0.9,7.7l1.5-1.8
			C320.7,566.6,318.7,569.2,318.7,569.2z"/>
	</g>
</g>
<g id="XMLID_7959_">
	<g id="XMLID_7966_">
		<path class="st1" d="M240.5,526.3h-14.3h-4.8h-3.3h-2.7H215h-0.4h-6.8H186c-3,0-5.4,2.4-5.4,5.4v54.4c0,3,2.4,5.4,5.4,5.4h21.8
			h6.8h0.4h0.4h2.7h3.3h4.8h14.3c3,0,5.4-2.4,5.4-5.4v-54.4C245.9,528.7,243.5,526.3,240.5,526.3z M221.4,533.2
			c0.2-1.8,0.9-4.3,3-5.5c0,0-1,3.6,1.7,6.5c0.5,0.5,1,1,1.7,1.4c3.2,2,1.1,7.3,0.2,10s0,3.3,1.4,2.6c0,0,3-2.6,4.1-6.5
			c0,0,1.7,4.3-1,9.1c-1.3-0.5-2.8-0.9-4.2-1.2c-0.7-0.1-1.4-0.2-2.1-0.2c-1.1-0.1-2.3-0.1-3.4,0c-0.2-0.9-0.3-2.8,0.6-5.7
			c1.5-4.6-1.7-7.3-2-8.8l0-0.1C221.4,534.3,221.4,533.8,221.4,533.2z M218.1,552c-0.9,0.2-1.8,0.4-2.7,0.7l-0.2,0.1l-0.3-1.5
			l-0.1-0.3l0.1,0l0.4-0.1c0.9-0.2,1.8-0.4,2.7-0.6c1.1-0.2,2.2-0.4,3.3-0.5c1.6-0.1,3.2-0.2,4.8,0c0.7,0.1,1.3,0.1,2,0.2
			c3.5,0.6,6.8,2,9.3,4.6l-1.1,1.2c-2.6-2.4-5.8-3.7-9.3-4.2c-0.3,0-0.6-0.1-0.8-0.1c-1.5-0.1-3.1-0.1-4.8,0
			C220.3,551.6,219.2,551.7,218.1,552z M218.4,552.4c-0.1,0.4-0.2,0.8-0.2,1.4l-0.1-0.2c-0.1-0.2-0.2-0.6-0.3-1l0.3-0.1L218.4,552.4
			z M217.2,534.2c0-0.1,0.3-0.1,0.8,0.1c1.1,0.5,3,2.2,3.3,6.8c0.1,0.8,0.1,1.7,0,2.7c-0.1,1-0.2,2.1-0.4,3.4
			c-0.2,1-0.5,1.7-0.8,2.3c-0.7,0.1-1.5,0.2-2.2,0.3l-0.7,0.1c0-1.2,0.1-2.6,0.7-3.9c0.2-0.5,0.5-1,0.8-1.5c0,0-0.4,0.2-0.8,0.5
			c-0.8,0.6-1.8,1.6-2.2,3.1c0,0-0.3-0.7-0.5-1.7c-0.1-0.7-0.1-1.4,0-2.2c0.1-0.6,0.3-1.1,0.6-1.7
			C217.3,540.4,218.9,539.2,217.2,534.2z M214.6,534.5c0.1-0.2,0.3-0.4,0.4-0.5c0.1-0.2,0.2-0.2,0.2-0.2c0.1,0.2,0.2,0.4,0.2,0.5
			c0.1,0.5,0.1,1,0,1.4c-0.1,0.4-0.3,0.9-0.4,1.4c-0.2,0.6-0.3,1.4-0.2,2.3c0,0-0.1,0-0.2-0.1c-0.3-0.1-0.9-0.6-0.9-2.1
			C213.7,536.2,214.2,535.2,214.6,534.5z M207.8,539.7l2.4,1.1c0,0,2.9,1.5,1.9,4.8l-1.3-0.7c0.5-2.2-1.4-3.2-1.4-3.2l-1.6-0.7
			l-4.2-1.9l-0.3-1.5L207.8,539.7z M183.1,573.6c-1.1-0.5-1.5-1.8-1-2.9l15.8-33.7c0.5-1.1,1.8-1.5,2.9-1l1.7,0.8l1.1,5.7l4.3,2
			l1.7,0.8c0,0,2.1,1,2.8,1.6c1.4,1.2,1.4,2.4,1.4,2.4l0.9,5.3l0.3,1.6c0,0.1,0.1,0.2,0.1,0.3c0.1,0.5,0.1,0.9,0,1.4
			c-0.1,0.4-0.2,0.8-0.4,1.2c-0.1,0.1-0.1,0.3-0.2,0.4l-6.6,14.1l-3.6,7.6c-0.5,1.1-1.8,1.5-2.9,1L183.1,573.6z M240.8,578.6
			c0.2,1.4-4.5,2.9-9.5,2c0,0-2.4-0.3-5.1,0c-0.8,0.1-1.6,0.2-2.3,0.4c-2.5,0.6-0.5,1.2,2.3,1.2c1,0,2.1,0,3.1-0.2
			c2.8-0.3,6.8,1.5,4.5,4.1c-1.4,1.6-4.9,2.4-7.6,2.3c-0.6,0-1.1-0.1-1.6-0.2c-0.8-0.2-1.9-0.4-3.2-0.5c-1.1-0.1-2.2-0.2-3.3-0.3
			c-0.9-0.1-1.8-0.1-2.7,0l-0.4,0l-0.4,0c-0.8,0.1-1.5,0.2-2,0.4c0,0-0.2,2.4-2.3,2.6c0,0-1.2,0.1-2.6,0.1c-1.5,0-3.2,0-3.6-0.4
			c-0.9-0.8-2.3-1.5-3.5-1.7c-1.2-0.2-8-2.9,3.9-5.1c0,0,1.6-0.3,3.2-0.8c1.6-0.5,3.3-1.2,3.3-1.9c0-1.1-2.3-1.2-3.3-2
			c-0.4-0.3-0.6-0.7-0.4-1.2c0.1-0.3,0.2-0.5,0.4-0.7c1.1-1,3.9-1.5,6.8-1.7l0.4,0l0.4,0c0.9-0.1,1.8-0.1,2.7-0.1l0.5,0
			c1.2,0,2.2-0.2,2.9-0.5c1.9-0.9,2.4-2.6,2-4.2c-0.2-0.7-1-1.2-2-1.9c-1.1-0.8-2.5-1.8-3.3-3.4c-0.7-1.4-1.1-3.2-0.7-5.8
			c0,0,0.3,0.4,0.7,0.8c0.5,0.4,1.1,0.8,1.7,0.5c0.4-0.2,1-1,1.7-2.2c1-1.8,2-4.5,2-6.5c0.9,0,1.9,0,2.8,0.1c0.3,0,0.5,0.1,0.8,0.1
			c1.3,0.2,2.6,0.5,3.9,1c-1.2,1.3-4.4,5-4.5,8.3c0,0,0.9-2.1,4.1-3.9c0,0-2,6.8,3.2,9.5c0.1,0,2.6-0.3,1.5-7.4
			c-0.2-1.1,0.2-2.4,0.7-3.6c0.1,0.1,0.3,0.2,0.4,0.4l0.2,0.2l0.2-0.2l1.5-1.5l0.2-0.2l-0.2-0.2c-0.3-0.3-0.5-0.5-0.8-0.8
			c0.9-1.2,1.7-2,1.7-2c-0.6,2.7-0.9,5.9,1.1,9.4c2.6,4.6,0.9,9.1,0.2,10.7c-0.7,1.6-2.6,4.2-5.7,4.8
			C236.2,576.3,240.5,576.2,240.8,578.6z"/>
	</g>
	<g id="XMLID_7965_">
		<path class="st1" d="M234.1,576.5c0.1,0,0.1,0,0.2-0.1C233.4,576.6,233.1,576.7,234.1,576.5z"/>
	</g>
	<g id="XMLID_7964_">
		<path class="st1" d="M189.5,513c0.9-0.1,1.7-0.5,1.7-1.5c0-1.1-0.8-1.4-1.7-1.5c-0.2,0-0.3,0-0.5,0h-1.2v3.1h1.2
			C189.2,513,189.3,513,189.5,513z"/>
	</g>
	<g id="XMLID_7963_">
		<path class="st1" d="M191.5,516.8c0-1.3-1.1-1.7-2.1-1.8c-0.2,0-0.3,0-0.5,0h-1.2v3.6h1.2c0.2,0,0.3,0,0.5,0
			C190.6,518.5,191.5,518,191.5,516.8z"/>
	</g>
	<g id="XMLID_7960_">
		<path class="st1" d="M198.2,523.1v-17.6h-8.7h-8.7v17.6h8.7H198.2z M185.2,520.7v-12.9h4.3h0.1c2.8,0,4.3,1.1,4.3,3.5
			c0,1.7-1.4,2.5-2.2,2.7c1,0.2,2.6,1,2.6,3.2c0,2.4-2.1,3.5-4.2,3.5h-0.6H185.2z"/>
	</g>
</g>
<g id="XMLID_7924_">
	<path class="st1" d="M197.9,619.1L197.9,619.1v-6.5h0.7h0.7v5.4h3.2v0.6v0.6H197.9z M192.4,619.1v-6.5h4.6v0.6v0.6h-3.3v1.5h2.9
		v0.6v0.6h-2.9v2.8h-0.7H192.4z M187.1,619.1L187.1,619.1h-0.6h-0.6v-6.5h0.7h0.7l2.6,4.6v-4.6h0.6h0.6v6.5h-0.7h-0.7l-2.7-4.7
		V619.1z M183.2,619.1v-6.5h0.7h0.7v6.5h-0.7H183.2z M197.7,600l0.9-1.3h1.4l-1.3,1.3H197.7z M197.6,607.2v-6.5h0.7h0.7v6.5h-0.7
		H197.6z M203.1,618.9v0.2H203L203.1,618.9z M203.1,600.5v1.2h0c-0.6,0-1,0.2-1.3,0.6c-0.3,0.4-0.5,1-0.5,1.7c0,0.7,0.2,1.3,0.5,1.7
		c0.3,0.4,0.7,0.6,1.3,0.6h0v1.2h0c-1,0-1.7-0.3-2.3-0.9c-0.6-0.6-0.8-1.4-0.8-2.5c0-1.1,0.3-1.9,0.8-2.5
		C201.3,600.8,202.1,600.5,203.1,600.5L203.1,600.5z M192.2,607.2L192.2,607.2v-6.5h0.7h0.7v5.4h3.2v0.6v0.6H192.2z M206.1,612.6
		v1.5l-0.9,2.6h0.9v1.1h-1.2l-0.4,1.3h-0.7h-0.6v-0.2l2.2-6.3H206.1z M206.1,602.8v2.3c-0.1,0.4-0.3,0.8-0.6,1.2l0.6,0.5v0.3
		l-0.5,0.6l-0.8-0.7c-0.5,0.3-1,0.4-1.7,0.4v-1.2c0.3,0,0.5,0,0.7-0.1l-0.7-0.6l0.7-0.7l0.7,0.7c0.2-0.4,0.3-0.8,0.3-1.4
		c0-0.7-0.2-1.3-0.5-1.7c-0.3-0.4-0.7-0.6-1.3-0.6v-1.2c1,0,1.7,0.3,2.3,0.9C205.7,601.8,205.9,602.3,206.1,602.8 M211.3,619.1
		L211.3,619.1h-0.6H210v-6.5h1h1l1.2,5.2l1.2-5.2h1h1v6.5h-0.6H215v-5.5l-1.2,5.5h-0.7h-0.7l-1.2-5.6h0V619.1z M213.7,607.2v-6.5
		h0.7h0.7v6.5h-0.7H213.7z M212.5,604.7c0,0.9-0.2,1.6-0.6,2c-0.4,0.4-1.1,0.6-2,0.6c-0.9,0-1.6-0.2-2-0.6c-0.4-0.4-0.6-1.1-0.6-2
		v-4.1h0.7h0.7v4.1c0,0.5,0.1,0.8,0.3,1.1c0.2,0.2,0.5,0.3,1,0.3c0.5,0,0.8-0.1,1-0.3c0.2-0.2,0.3-0.6,0.3-1.1v-4.1h0.7h0.7V604.7z
		 M206.1,605.1v-2.3c0.1,0.4,0.1,0.7,0.1,1.1C206.2,604.4,206.1,604.8,206.1,605.1 M206.1,607.1v-0.3l0.2,0.1L206.1,607.1z
		 M206.1,617.8v-1.1h0.9l-0.9-2.6v-1.5h0h0.8l2.3,6.5h-0.7h-0.7l-0.4-1.3H206.1z M219.1,613.4v4.4h-0.2l-0.4,1.3h-0.7h-0.7
		L219.1,613.4z M219.1,600.7v1.1l-0.1,0h-1.3v4.3h1.1c0.1,0,0.2,0,0.3,0v1.1H219h-2h-0.7v-6.5h0.7H219.1z M220.2,612.6v1.5l-0.9,2.6
		h0.9v1.1h-1.1v-4.4l0.3-0.8H220.2z M220.2,611.1v0.8h-0.5L220.2,611.1z M220.2,605.4v1.6c-0.3,0.1-0.7,0.2-1.1,0.2v-1.1
		c0.4,0,0.8-0.2,1-0.5L220.2,605.4z M220.2,600.8v1.5l0-0.1c-0.2-0.3-0.6-0.5-1-0.5v-1.1h0C219.5,600.7,219.9,600.7,220.2,600.8
		 M220.2,607v-1.6c0.2-0.4,0.3-0.9,0.3-1.6c0-0.6-0.1-1.1-0.3-1.5v-1.5c0.4,0.1,0.7,0.3,1,0.6c0.5,0.5,0.7,1.3,0.7,2.3
		c0,1.1-0.2,2-0.7,2.5C220.9,606.6,220.6,606.9,220.2,607 M220.2,611.9v-0.8l0.3-0.5h1.4l-1.3,1.3H220.2z M220.2,617.8v-1.1h0.9
		l-0.9-2.6v-1.5h0h0.8l2.3,6.5h-0.7h-0.7l-0.4-1.3H220.2z M225.8,614.8v3.9l-2.1-6.2h0.7h0.7L225.8,614.8z M225.8,600.5v1.2
		c-0.6,0-1,0.2-1.3,0.6c-0.3,0.4-0.5,1-0.5,1.7c0,0.7,0.2,1.3,0.5,1.7c0.3,0.4,0.7,0.6,1.3,0.6v1.2c-1,0-1.7-0.3-2.3-0.9
		c-0.6-0.6-0.8-1.4-0.8-2.5c0-1.1,0.3-1.9,0.8-2.5C224,600.8,224.8,600.5,225.8,600.5z M242.3,614.5L242.3,614.5
		c0-0.3-0.2-0.6-0.4-0.7c-0.2-0.2-0.6-0.3-1-0.3c-0.3,0-0.6,0.1-0.8,0.2c-0.2,0.2-0.3,0.4-0.3,0.6c0,0.2,0.1,0.3,0.3,0.5
		c0.2,0.1,0.6,0.2,1.3,0.4c0.9,0.2,1.6,0.5,1.9,0.7c0.3,0.3,0.5,0.7,0.5,1.3c0,0.6-0.2,1.1-0.7,1.5c-0.5,0.4-1.1,0.5-2,0.5
		c-0.8,0-1.5-0.2-1.9-0.6c-0.5-0.4-0.7-0.9-0.7-1.6h1.3c0,0.3,0.1,0.6,0.4,0.8c0.2,0.2,0.6,0.3,1,0.3c0.4,0,0.8-0.1,1-0.2
		c0.2-0.1,0.4-0.3,0.4-0.6c0-0.2-0.1-0.4-0.3-0.5c-0.2-0.1-0.5-0.2-1.1-0.4c-1-0.2-1.7-0.5-2.1-0.7s-0.5-0.7-0.5-1.2
		c0-0.6,0.2-1.1,0.7-1.5c0.5-0.4,1.1-0.6,1.9-0.6c0.7,0,1.3,0.2,1.8,0.6c0.5,0.4,0.7,0.9,0.8,1.6H242.3z M236.2,619.1v-6.5h0.7h0.7
		v6.5h-0.7H236.2z M230.2,619.1L230.2,619.1v-6.5h4.8v0.6v0.6h-3.4v1.4h3.2v0.6v0.6h-3.2v1.7h3.6v0.6v0.6H230.2z M233.5,602.6
		L233.5,602.6c0-0.3-0.2-0.6-0.4-0.7c-0.2-0.2-0.6-0.3-1-0.3c-0.3,0-0.6,0.1-0.8,0.2c-0.2,0.2-0.3,0.4-0.3,0.6
		c0,0.2,0.1,0.3,0.3,0.5c0.2,0.1,0.6,0.2,1.3,0.4c0.9,0.2,1.6,0.5,1.9,0.7c0.3,0.3,0.5,0.7,0.5,1.3c0,0.6-0.2,1.1-0.7,1.5
		c-0.5,0.4-1.1,0.5-2,0.5c-0.8,0-1.5-0.2-1.9-0.6c-0.5-0.4-0.7-0.9-0.7-1.6h1.3c0,0.3,0.1,0.6,0.4,0.8c0.2,0.2,0.6,0.3,1,0.3
		c0.4,0,0.8-0.1,1-0.2c0.2-0.1,0.4-0.3,0.4-0.6c0-0.2-0.1-0.4-0.3-0.5c-0.2-0.1-0.5-0.2-1.1-0.4c-1-0.2-1.7-0.5-2.1-0.7
		c-0.3-0.3-0.5-0.7-0.5-1.2c0-0.6,0.2-1.1,0.7-1.5c0.5-0.4,1.1-0.6,1.9-0.6c0.7,0,1.3,0.2,1.8,0.6c0.5,0.4,0.7,0.9,0.8,1.6H233.5z
		 M225.8,607.4v-1.2c0.6,0,1-0.2,1.3-0.6c0.3-0.4,0.5-0.9,0.5-1.7c0-0.7-0.2-1.3-0.5-1.7c-0.3-0.4-0.7-0.6-1.3-0.6v-1.2
		c1,0,1.7,0.3,2.3,0.9c0.6,0.6,0.8,1.5,0.8,2.5c0,1-0.3,1.9-0.8,2.5C227.5,607.1,226.7,607.4,225.8,607.4 M225.8,618.8v-3.9l0.8,2.7
		h0l1.4-5h0.7h0.7l-2.2,6.5h-0.6h-0.6L225.8,618.8z"/>
</g>
<g id="XMLID_7905_">
	<g id="XMLID_7910_">
		<path class="st3" d="M165,526.4h-1.3h-14.2h-0.4h-1.6H146h-9.1h-3H124h-10.7h-2.7c-3,0-5.4,2.4-5.4,5.4v54.4c0,3,2.4,5.4,5.4,5.4
			h2.7H124h9.9h3h9.1h1.5h1.6h0.4h14.2h1.3c3,0,5.4-2.4,5.4-5.4v-54.4C170.4,528.8,168,526.4,165,526.4z M129.8,532
			c1.4-1.1,1.2-3.1,1.2-3.1s1.3,2.6,0.9,3.1c-0.7,1-0.8,3.2,0.7,3.2c1.5-0.1,0.8-2.4,0.8-2.4c0.2,0.1,0.4,0.2,0.5,0.3
			c1.2,0.8,0.9,2.4,0.9,2.4c-0.8,3.3-0.2,6-0.2,6c0.2-1.4,1.3-1.2,1.5-3.1c0.1-0.6,0.4-1.3,0.8-1.8c0.8-1,1.9-1.8,1.9-1.8
			c-0.7,0.2-0.8,4.1-0.5,5.2c0.4,1.5,1.3,1.4,1.3,3.2c0.1,1.9-2.6,2.8-2.6,2.8l-0.2-0.1l-3-2.4l-4.1-3.2
			C126,537.1,129.8,532,129.8,532z M111.3,536.9c0,0-0.8,2.4,0.4,3c0,0,0.2-2.3,1.6-4c0.5-0.7,1.2-1.3,2.2-1.7
			c-2.2,0.9-0.4,5,0.6,5.7c1.1,0.7,0.4,2,0.4,2l-3.2,2.2l-1,0.7C112.2,544.8,107.5,541.6,111.3,536.9z M111.1,546.7l2.1-1.4l7.5-5
			h3.3h4.5l5.5,4.3l2.8,2.2c0,0,0.1,0.1,0.2,0.3c0.1,0.3,0.3,0.8,0.3,1.8h-0.3h-3H124h-10.7h-2.5C110.7,547,111.1,546.7,111.1,546.7
			z M133.2,585.5c0,1.2-1,2.1-2.2,2.1l-7.1,0l-6,0c-1.2,0-2.1-1-2.2-2.1l-2.6-18.5l-2.3-16.9l2.3,0l10.7,0l9.9,0l3,0h0.2l-0.2,1.5
			l-3,27.6L133.2,585.5z M135.4,576.7c0-1,0.4-1.8,0.9-2.3l0.5-0.3c0,0,0.1,0,0.1,0h0c0.5,0,1.1,0.3,1.4,0.8
			c0.4,0.5,0.7,1.2,0.7,1.9c0,0.6-0.2,1.2-0.5,1.6c-0.3,0.5-0.8,0.8-1.2,1c0,0-0.1,0-0.1,0.1c-0.1,0-0.2,0-0.3-0.1
			C136,579,135.4,577.9,135.4,576.7z M147.5,589.5l-1.5,0l-3.4,0v-0.7c0.9,0.3,2.3,0.3,3.4,0.3c0.8,0,1.4-0.1,1.4-0.1
			c-0.4,0.1-0.9,0.1-1.4,0c-1.4-0.1-2.8-0.6-3.4-0.8v-0.8h0.9c0.6,0.2,1.6,0.5,2.5,0.7c0.5,0.1,1.1,0.2,1.5,0.2l0.1,0l-0.1,0
			l-1.5-0.5l-0.9-0.3h0.9h1.5h1.1l0,2.1L147.5,589.5z M142.8,587l3.2-4.8l0,0l1.5,1l1.6,1.1l0.1,0.1l-0.1,0.3l-0.7,2.3h-0.9v0H146v0
			H142.8z M149.5,586.7l-0.4,1.5l-0.1,0.2l0-1.2c0,0,0-0.1,0-0.1l0.1-0.2l0.4-1.4l0.2-0.7l0.3,0.2L149.5,586.7z M162.3,588l-4.6,1.6
			v0.1l-8.1-5.6l-0.4-0.3l-1.6-1.1l-1.4-1v-0.8l1.4,0.9l1.6,1l0.4,0.3l5.1,3.2l2.9,1.8c0,0,0.2,0,0.2,0l4.6-1.5V588z M146.5,580.6
			l1-0.2l1.6-0.2l0.3,0l0.1,0l0.7-0.1l11.8,6.3l-4.4,1.4l-8.1-5.2l-0.4-0.3l-1.6-1L146.5,580.6L146.5,580.6L146.5,580.6z
			 M163.7,580.5c-0.5,1.5-1.6,3.4-3.6,4.2l-9.8-5.2l-0.1,0l-0.1,0l-0.6,0.1l-0.4,0.1l-1.6,0.3l-1.5,0.2l-0.2,0l-0.2,0v0.2v1.4v0
			l-0.4,0.7c-1.4,0.6-2.8,1.3-3.7,1.7c0.1-0.1,0.1-0.3,0.2-0.4c0.3-0.7,0.3-1.6,0.1-2.4c0-0.2-0.1-0.3-0.2-0.5c-0.2-0.6-0.6-1-1-1.2
			c0,0-0.1-0.1-0.2-0.1l5.5-2l1.5-0.6l1.6-0.6l0.4-0.2l0,0c0.1,0,0.2-0.1,0.1-0.3c-0.1-0.1-0.1-0.2-0.2-0.2c0,0-0.1,0-0.1,0
			l-0.3,0.1l-1.6,0.6l-1.5,0.6l-6.9,2.5l0,0h0l0,0c0,0,0,0,0,0l0,0l-0.3,0.1c0,0,0,0,0,0c0,0-1.7,1.1-0.8,2.9c0,0,0,0,0,0
			c0,0,1.4,1.9,3-0.2c0.1-0.1,0.1-0.2,0-0.3c-0.2-0.1-0.3-0.1-0.3,0c-1.1,1.5-2.1,0.3-2.3,0.2c-0.7-1.3,0.4-2.2,0.6-2.3l0.1-0.1
			c0,0,0.1,0,0.1,0c0,0,0,0,0,0l0.1,0c0,0,0.1,0,0.1,0c0.4-0.1,0.7-0.1,1,0.1c0.3,0.2,0.6,0.5,0.8,1c0.1,0.1,0.1,0.3,0.1,0.4
			c0.2,0.7,0.1,1.5-0.1,2.1c-0.2,0.6-0.6,1.1-1.1,1.2c-0.1,0-0.1,0-0.1,0.1c-1.1,0.3-2.5,0.1-3.1-1.7l-0.1-0.2c-0.2-0.8-0.2-1.5,0-2
			c0.2-0.5,0.4-0.9,0.6-1.1l8.5-3.1l1.5-0.6l1.6-0.6l0.2-0.1c0.1,0,0.2-0.1,0.1-0.3c-0.1-0.2-0.2-0.2-0.3-0.1l0,0l-1.6,0.6l-1.5,0.6
			l-7.2,2.7c0,0,0.1-0.1,0.1-0.1c0.3-0.5,0.6-1.2,0.6-1.9c0-0.8-0.3-1.6-0.8-2.2c-0.3-0.3-0.6-0.6-0.9-0.8l8.2-2.6l1.5-0.5l0,0
			c0.1,0,0.2-0.1,0.2-0.3c0-0.1-0.1-0.2-0.2-0.2c0,0-0.1,0-0.1,0l-1.4,0.4l-4.7,1.5c-4-8.7,1.8-15.5,1.8-15.5
			c2.1-2.3,1.2-9.4,1.2-9.4c0.7,0.5,1.3,1.1,1.7,1.8c1.2,2,1.3,4.6,1,6.8c-0.2,1.8,0.2,3.5,0.5,4.5c0.2,0.6,0.4,1,0.4,1
			c-0.8-2.7,0-4.1,1.2-5.7l0.4-0.5c0.3-0.4,0.6-0.8,0.8-1.2c1.4-2.2,3.8-5.5,1.7-9.1c-2-3.5,0.7-9,0.7-9c-0.2,1.5,2.2,6.5,3.2,7.7
			c1.2,1.4,3.4,3.6,3.5,7c0.3,6.5-2.5,8.7-1.7,12.3c0,0,0.7-2.2,1.7-3.5c0.4-0.5,0.8-0.9,1.1-1.4c0.8-1.4,1.4-3.8,1.4-3.8
			s1.3,5.4-0.6,9.8c-0.9,2-0.8,4.1,0.5,6c1.5,2.1-0.9,7.4-0.9,7.4s-1.2-1-1.3-2.4c-0.1-1.2-0.9-0.6-1-0.5c-0.5,0.3-0.8,0.8,0,2.6
			c1.4,3-2,4-2.3,4.6c0,0,5.1,0.4,7.1-2.1c0.2-0.3,0.4-0.6,0.5-1C164.3,578.7,164.1,579.5,163.7,580.5z M164.1,563.8
			c0.2,0.7-0.1,1.7-0.4,2.3c-0.2,0.5-0.5,0.8-0.5,0.8c-1-2.3-0.3-4.2,0.5-5.3c0.5-0.7,1-1.1,1-1.1S163.8,562.5,164.1,563.8z"/>
	</g>
	<g id="XMLID_7909_">
		<polygon class="st3" points="119.8,516.5 118,511.6 118,511.6 116.2,516.5 118,516.5 		"/>
	</g>
	<g id="XMLID_7906_">
		<path class="st3" d="M130.4,523.6L118,502.4l0,0l-12.6,21.3H118H130.4z M115.4,518.6l-1,2.8h-2.7l5-12.7h1.4h1.5l5,12.7h-2.8
			l-1.1-2.8H118H115.4z"/>
	</g>
</g>
<g id="XMLID_7873_">
	<path class="st3" d="M115.2,600.5v1.2c-0.6,0-1,0.2-1.3,0.6c-0.3,0.4-0.5,1-0.5,1.7c0,0.7,0.2,1.3,0.5,1.7c0.3,0.4,0.7,0.6,1.3,0.6
		v1.2c-1,0-1.7-0.3-2.3-0.9c-0.6-0.6-0.8-1.4-0.8-2.5c0-1.1,0.3-1.9,0.8-2.5C113.5,600.8,114.2,600.5,115.2,600.5z M111.7,604.9
		L111.7,604.9c-0.1,0.8-0.4,1.4-0.9,1.8c-0.5,0.4-1.2,0.7-1.9,0.7c-0.9,0-1.6-0.3-2.2-0.9c-0.5-0.6-0.8-1.4-0.8-2.5
		c0-1.1,0.3-1.9,0.8-2.5c0.5-0.6,1.3-0.9,2.2-0.9c0.8,0,1.4,0.2,1.9,0.6c0.5,0.4,0.8,1,0.9,1.7h-1.4c0-0.3-0.2-0.6-0.5-0.8
		c-0.3-0.2-0.6-0.3-1-0.3c-0.5,0-0.9,0.2-1.2,0.6c-0.3,0.4-0.4,1-0.4,1.7c0,0.7,0.1,1.2,0.4,1.6c0.3,0.4,0.7,0.6,1.2,0.6
		c0.4,0,0.7-0.1,1-0.3c0.3-0.2,0.4-0.5,0.5-0.9H111.7z M122.9,614.5L122.9,614.5c0-0.3-0.2-0.6-0.4-0.7c-0.2-0.2-0.6-0.3-1-0.3
		c-0.3,0-0.6,0.1-0.8,0.2c-0.2,0.2-0.3,0.4-0.3,0.6c0,0.2,0.1,0.3,0.3,0.5c0.2,0.1,0.6,0.2,1.3,0.4c0.9,0.2,1.6,0.5,1.9,0.7
		c0.3,0.3,0.5,0.7,0.5,1.3c0,0.6-0.2,1.1-0.7,1.5c-0.5,0.4-1.1,0.5-2,0.5c-0.8,0-1.5-0.2-1.9-0.6c-0.5-0.4-0.7-0.9-0.7-1.6h1.3
		c0,0.3,0.1,0.6,0.4,0.8s0.6,0.3,1,0.3c0.4,0,0.8-0.1,1-0.2c0.2-0.1,0.4-0.3,0.4-0.6c0-0.2-0.1-0.4-0.3-0.5
		c-0.2-0.1-0.5-0.2-1.1-0.4c-1-0.2-1.7-0.5-2.1-0.7c-0.3-0.3-0.5-0.7-0.5-1.2c0-0.6,0.2-1.1,0.7-1.5c0.5-0.4,1.1-0.6,1.9-0.6
		c0.7,0,1.3,0.2,1.8,0.6c0.5,0.4,0.7,0.9,0.8,1.6H122.9z M120.2,607.2L120.2,607.2h-0.6H119v-6.5h1h1l1.2,5.2l1.2-5.2h1h1v6.5h-0.6
		H124v-5.5h0l-1.2,5.5h-0.7h-0.7l-1.2-5.6V607.2z M115.2,607.4v-1.2c0.6,0,1-0.2,1.3-0.6c0.3-0.4,0.5-0.9,0.5-1.7
		c0-0.7-0.2-1.3-0.5-1.7c-0.3-0.4-0.7-0.6-1.3-0.6v-1.2c1,0,1.7,0.3,2.3,0.9c0.6,0.6,0.8,1.5,0.8,2.5c0,1-0.3,1.9-0.8,2.5
		C116.9,607.1,116.1,607.4,115.2,607.4 M128.8,612.5v1.3c-0.3-0.2-0.6-0.3-0.9-0.3c-0.6,0-1,0.2-1.3,0.6c-0.3,0.4-0.5,1-0.5,1.7
		c0,0.7,0.2,1.3,0.5,1.7c0.3,0.4,0.7,0.6,1.3,0.6c0.4,0,0.7-0.1,0.9-0.3v1.3c-0.3,0.1-0.6,0.1-0.9,0.1c-1,0-1.7-0.3-2.3-0.9
		c-0.6-0.6-0.8-1.4-0.8-2.5c0-1.1,0.3-1.9,0.8-2.5c0.6-0.6,1.3-0.9,2.3-0.9C128.2,612.4,128.5,612.4,128.8,612.5 M128.8,610.6v0.8
		l-0.6,0.6h-0.9l0.9-1.3H128.8z M128.8,600.7v1.1h-1.3v1.4h1.3v1.1h-1.3v1.7h1.3v1.1h-1.9h-0.7v-6.5h0.7H128.8z M136.8,619.1v-6.5
		h0.7h0.7v6.5h-0.7H136.8z M131.7,619.1L131.7,619.1v-6.5h0.7h0.7v5.4h3.2v0.6v0.6H131.7z M137.6,604.7c0,0.9-0.2,1.6-0.6,2
		c-0.4,0.4-1.1,0.6-2,0.6c-0.9,0-1.6-0.2-2-0.6c-0.4-0.4-0.6-1.1-0.6-2v-4.1h0.7h0.7v4.1c0,0.5,0.1,0.8,0.3,1.1
		c0.2,0.2,0.5,0.4,1,0.4c0.5,0,0.8-0.1,1-0.3c0.2-0.2,0.3-0.6,0.3-1.1v-4.1h0.7h0.7V604.7z M128.8,607.2v-1.1h0.4
		c0.4,0,0.6-0.1,0.8-0.2c0.2-0.2,0.3-0.4,0.3-0.7c0-0.3-0.1-0.5-0.3-0.6c-0.2-0.1-0.5-0.2-0.8-0.2h-0.3v-1.1h0.3
		c0.3,0,0.6-0.1,0.8-0.2c0.2-0.1,0.3-0.3,0.3-0.6c0-0.2-0.1-0.4-0.3-0.5c-0.2-0.1-0.4-0.2-0.8-0.2h-0.2v-1.1h0.6
		c0.6,0,1.1,0.1,1.5,0.4c0.4,0.3,0.5,0.7,0.5,1.2c0,0.5-0.2,1-0.6,1.2c-0.1,0-0.1,0.1-0.2,0.1c0.2,0.1,0.3,0.1,0.4,0.2
		c0.4,0.3,0.6,0.7,0.6,1.3c0,0.7-0.2,1.2-0.6,1.5c-0.4,0.3-1,0.5-1.8,0.5H128.8z M128.8,611.3v-0.8h0.8L128.8,611.3z M128.8,619.1
		v-1.3c0.1-0.1,0.3-0.2,0.4-0.3c0.3-0.4,0.5-0.9,0.5-1.7c0-0.7-0.2-1.3-0.5-1.7c-0.1-0.1-0.2-0.3-0.4-0.3v-1.3
		c0.5,0.1,1,0.4,1.3,0.8c0.6,0.6,0.8,1.5,0.8,2.5c0,1-0.3,1.9-0.8,2.5C129.8,618.7,129.3,619,128.8,619.1 M141.8,612.6v1.1l-0.1,0
		h-1.3v4.3h1.1c0.1,0,0.2,0,0.3,0v1.1l-0.1,0h-2H139v-6.5h0.7H141.8z M141.8,606.1v1.2c-0.3,0.1-0.6,0.1-0.9,0.1
		c-0.8,0-1.5-0.2-1.9-0.6c-0.5-0.4-0.7-0.9-0.7-1.6h1.3c0,0.3,0.1,0.6,0.4,0.8c0.2,0.2,0.6,0.3,1,0.3
		C141.3,606.3,141.6,606.2,141.8,606.1 M141.8,600.6v1.3l-0.1-0.1c-0.2-0.2-0.6-0.3-1-0.3c-0.3,0-0.6,0.1-0.8,0.2s-0.3,0.4-0.3,0.6
		c0,0.2,0.1,0.3,0.3,0.5c0.2,0.1,0.6,0.2,1.3,0.4c0.2,0,0.4,0.1,0.6,0.1v1.3c-0.2-0.1-0.5-0.2-0.9-0.2c-1-0.2-1.7-0.5-2.1-0.7
		c-0.3-0.3-0.5-0.7-0.5-1.2c0-0.6,0.2-1.1,0.7-1.5c0.5-0.4,1.1-0.6,1.9-0.6C141.2,600.5,141.5,600.5,141.8,600.6 M141.8,602v-1.3
		c0.3,0.1,0.6,0.2,0.9,0.5c0.5,0.4,0.7,0.9,0.8,1.6h-1.3C142.1,602.4,142,602.1,141.8,602 M141.8,607.3v-1.2c0.1,0,0.1,0,0.1-0.1
		c0.2-0.1,0.4-0.3,0.4-0.6c0-0.2-0.1-0.4-0.3-0.5c-0.1,0-0.1-0.1-0.2-0.1v-1.3c0.6,0.2,1.1,0.4,1.3,0.6c0.3,0.3,0.5,0.7,0.5,1.3
		c0,0.6-0.2,1.1-0.7,1.5C142.6,607.1,142.2,607.2,141.8,607.3 M141.8,619.1v-1.1c0.4-0.1,0.8-0.2,1-0.5c0.3-0.4,0.4-0.9,0.4-1.7
		c0-0.7-0.1-1.2-0.4-1.5c-0.2-0.3-0.6-0.5-1-0.5v-1.1h0c0.9,0,1.6,0.3,2,0.8c0.5,0.5,0.7,1.3,0.7,2.3c0,1.1-0.2,2-0.7,2.5
		C143.3,618.8,142.7,619.1,141.8,619.1 M148,612.4v1.2c-0.6,0-1,0.2-1.3,0.6c-0.3,0.4-0.5,1-0.5,1.7c0,0.7,0.2,1.3,0.5,1.7
		c0.3,0.4,0.7,0.6,1.3,0.6v1.2c-1,0-1.7-0.3-2.3-0.9c-0.6-0.6-0.8-1.4-0.8-2.5c0-1.1,0.3-1.9,0.8-2.5
		C146.3,612.7,147.1,612.4,148,612.4z M148,600.7v1.2h-1v5.4h-0.7h-0.7v-5.4h-2v-0.6v-0.6H148z M155.4,614.5L155.4,614.5
		c0-0.3-0.2-0.6-0.4-0.7c-0.2-0.2-0.6-0.3-1-0.3c-0.3,0-0.6,0.1-0.8,0.2c-0.2,0.2-0.3,0.4-0.3,0.6c0,0.2,0.1,0.3,0.3,0.5
		c0.2,0.1,0.6,0.2,1.3,0.4c0.9,0.2,1.6,0.5,1.9,0.7c0.3,0.3,0.5,0.7,0.5,1.3c0,0.6-0.2,1.1-0.7,1.5c-0.5,0.4-1.1,0.5-2,0.5
		c-0.8,0-1.5-0.2-1.9-0.6s-0.7-0.9-0.7-1.6h1.3c0,0.3,0.1,0.6,0.4,0.8c0.2,0.2,0.6,0.3,1,0.3c0.4,0,0.8-0.1,1-0.2
		c0.2-0.1,0.4-0.3,0.4-0.6c0-0.2-0.1-0.4-0.3-0.5c-0.2-0.1-0.5-0.2-1.1-0.4c-1-0.2-1.7-0.5-2.1-0.7c-0.3-0.3-0.5-0.7-0.5-1.2
		c0-0.6,0.2-1.1,0.7-1.5c0.5-0.4,1.1-0.6,1.9-0.6c0.7,0,1.3,0.2,1.8,0.6c0.5,0.4,0.7,0.9,0.8,1.6H155.4z M168.6,602.6L168.6,602.6
		c0-0.3-0.2-0.6-0.4-0.7c-0.2-0.2-0.6-0.3-1-0.3c-0.3,0-0.6,0.1-0.8,0.2c-0.2,0.2-0.3,0.4-0.3,0.6c0,0.2,0.1,0.3,0.3,0.5
		c0.2,0.1,0.6,0.2,1.3,0.4c0.9,0.2,1.6,0.5,1.9,0.7c0.3,0.3,0.5,0.7,0.5,1.3c0,0.6-0.2,1.1-0.7,1.5c-0.5,0.4-1.1,0.5-2,0.5
		c-0.8,0-1.5-0.2-1.9-0.6c-0.5-0.4-0.7-0.9-0.7-1.6h1.3c0,0.3,0.1,0.6,0.4,0.8c0.2,0.2,0.6,0.3,1,0.3c0.4,0,0.8-0.1,1-0.2
		c0.2-0.1,0.4-0.3,0.4-0.6c0-0.2-0.1-0.4-0.3-0.5c-0.2-0.1-0.5-0.2-1.1-0.4c-1-0.2-1.7-0.5-2.1-0.7c-0.3-0.3-0.5-0.7-0.5-1.2
		c0-0.6,0.2-1.1,0.7-1.5c0.5-0.4,1.1-0.6,1.9-0.6c0.7,0,1.3,0.2,1.8,0.6c0.5,0.4,0.7,0.9,0.8,1.6H168.6z M162.8,607.2v-6.5h0.7h0.7
		v6.5h-0.7H162.8z M157.2,607.2L157.2,607.2v-6.5h4.8v0.6v0.6h-3.4v1.4h3.2v0.6v0.6h-3.2v1.7h3.6v0.6v0.6H157.2z M151,600.7
		L151,600.7h0.7h0.7l1.4,5h0l1.4-5h0.7h0.7l-2.2,6.5h-0.6h-0.6L151,600.7z M149.4,600l0.9-1.3h1.4l-1.3,1.3H149.4z M149.3,607.2
		v-6.5h0.7h0.7v6.5H150H149.3z M148,601.8v-1.2h0.9v0.6v0.6H148z M148,619.3v-1.2c0.6,0,1-0.2,1.3-0.6c0.3-0.4,0.5-0.9,0.5-1.7
		c0-0.7-0.2-1.3-0.5-1.7c-0.3-0.4-0.7-0.6-1.3-0.6v-1.2c1,0,1.7,0.3,2.3,0.9c0.6,0.6,0.8,1.5,0.8,2.5c0,1-0.3,1.9-0.8,2.5
		C149.8,618.9,149,619.3,148,619.3"/>
</g>
<path id="XMLID_7837_" class="st4" d="M261.9,600.5v1.2c-0.6,0-1,0.2-1.3,0.6c-0.3,0.4-0.5,1-0.5,1.7c0,0.7,0.2,1.3,0.5,1.7
	c0.3,0.4,0.7,0.6,1.3,0.6v1.2c-1,0-1.7-0.3-2.3-0.9c-0.6-0.6-0.8-1.4-0.8-2.5c0-1.1,0.3-1.9,0.8-2.5
	C260.1,600.8,260.9,600.5,261.9,600.5z M253,607.2L253,607.2v-6.5h4.8v0.6v0.6h-3.4v1.4h3.2v0.6v0.6h-3.2v1.7h3.6v0.6v0.6H253z
	 M269.9,619.1L269.9,619.1v-6.5h0.7h0.7v5.4h3.2v0.6v0.6H269.9z M263.8,619.1L263.8,619.1v-6.5h4.8v0.6v0.6h-3.4v1.4h3.2v0.6v0.6
	h-3.2v1.7h3.6v0.6v0.6H263.8z M272.5,607.2v-6.5h0.7h0.7v6.5h-0.7H272.5z M271.3,604.7c0,0.9-0.2,1.6-0.6,2c-0.4,0.4-1.1,0.6-2,0.6
	c-0.9,0-1.6-0.2-2-0.6c-0.4-0.4-0.6-1.1-0.7-2v-4.1h0.7h0.7v4.1c0,0.5,0.1,0.8,0.3,1.1c0.2,0.2,0.5,0.3,1,0.3c0.5,0,0.8-0.1,1-0.3
	c0.2-0.2,0.3-0.6,0.3-1.1v-4.1h0.7h0.7V604.7z M261.9,607.4v-1.2c0.3,0,0.5,0,0.7-0.1l-0.7-0.6l0.7-0.7l0.7,0.7
	c0.2-0.4,0.3-0.8,0.3-1.4c0-0.7-0.2-1.3-0.5-1.7c-0.3-0.4-0.7-0.6-1.3-0.6v-1.2c1,0,1.7,0.3,2.3,0.9c0.6,0.6,0.8,1.5,0.8,2.5
	c0,0.9-0.2,1.7-0.7,2.3l0.7,0.7l-0.7,0.7l-0.8-0.7C263.1,607.2,262.5,607.4,261.9,607.4 M277.7,612.6v1.2h-0.9v1.4h0.9v1.1h-0.9v1.7
	h0.9v1.2h-2.2v-6.5H277.7z M277.7,611.3v0.6h-0.4L277.7,611.3z M277.7,600.7v1.1h0h-1.1v1.9h1.1h0v1.1c-0.4,0-0.8,0-1.1,0v2.3h-0.7
	h-0.7v-6.5h0.7H277.7z M277.7,604.9v-1.1c0.4,0,0.7-0.1,0.9-0.3c0.2-0.2,0.3-0.4,0.3-0.8c0-0.3-0.1-0.5-0.3-0.7
	c-0.2-0.2-0.5-0.2-0.9-0.2v-1.1h0.2c0.7,0,1.3,0.2,1.7,0.5c0.4,0.3,0.6,0.9,0.6,1.5c0,0.7-0.2,1.2-0.6,1.6c-0.4,0.4-1,0.5-1.7,0.5
	H277.7z M277.7,611.9v-0.6l0.5-0.7h1.4l-1.3,1.3H277.7z M277.7,613.7v-1.2h2.5v0.6v0.6H277.7z M277.7,616.2v-1.1h2.3v0.6v0.6H277.7z
	 M277.7,619.1v-1.2h2.7v0.6v0.6H277.7z M283.8,612.6v6.5h-0.2h-0.7v-5.4h-2v-0.6v-0.6H283.8z M283.8,600.7v1.5l-0.9,2.6h0.9v1.1
	h-1.2l-0.4,1.3h-0.7h-0.7l2.3-6.5H283.8z M283.8,605.9v-1.1h0.9l-0.9-2.6v-1.5h0h0.8l2.3,6.5h-0.7h-0.7l-0.4-1.3H283.8z
	 M283.8,619.1v-6.5h2.4v0.6v0.6h-2v5.4H283.8z M289.7,612.6v1.1h-1.3v1.7h1.3v1.1h-1.3v2.6h-0.7H287v-6.5h0.7H289.7z M289.7,600.7
	v4.2l-0.7-3.3h0v5.6h-0.6h-0.6v-6.5h1H289.7z M301.6,616.8L301.6,616.8c-0.1,0.8-0.4,1.4-0.9,1.8c-0.5,0.4-1.2,0.7-1.9,0.7
	c-0.9,0-1.6-0.3-2.2-0.9c-0.5-0.6-0.8-1.4-0.8-2.5c0-1.1,0.3-1.9,0.8-2.5c0.5-0.6,1.3-0.9,2.2-0.9c0.8,0,1.4,0.2,1.9,0.6
	c0.5,0.4,0.8,1,0.9,1.7h-1.4c0-0.4-0.2-0.6-0.5-0.8c-0.3-0.2-0.6-0.3-1-0.3c-0.5,0-0.9,0.2-1.2,0.6c-0.3,0.4-0.4,1-0.4,1.7
	c0,0.7,0.1,1.2,0.4,1.6c0.3,0.4,0.7,0.6,1.2,0.6c0.4,0,0.7-0.1,1-0.3c0.3-0.2,0.4-0.5,0.5-0.9H301.6z M293.5,619.1v-6.5h0.7h0.7v6.5
	h-0.7H293.5z M295.3,607.2L295.3,607.2v-6.5h4.8v0.6v0.6h-3.4v1.4h3.2v0.6v0.6h-3.2v1.7h3.6v0.6v0.6H295.3z M289.7,604.9v-4.2h0
	l1.2,5.2l1.2-5.2h1h1v6.5h-0.6h-0.6v-5.5l-1.2,5.5h-0.7h-0.7L289.7,604.9z M289.7,616.5v-1.1h0.3c0.4,0,0.6-0.1,0.8-0.2
	c0.2-0.1,0.3-0.4,0.3-0.6s-0.1-0.5-0.3-0.6c-0.2-0.1-0.4-0.2-0.7-0.2h-0.3v-1.1h0.6c0.6,0,1.1,0.2,1.5,0.5c0.4,0.3,0.6,0.8,0.6,1.3
	c0,0.6-0.2,1.1-0.6,1.4c-0.1,0.1-0.2,0.1-0.4,0.2c0.1,0,0.2,0.1,0.2,0.1c0.4,0.2,0.6,0.6,0.6,1.1l0,1.1c0,0.2,0,0.4,0.1,0.5
	c0,0.1,0.1,0.2,0.2,0.2v0.2H291c0-0.1-0.1-0.2-0.1-0.4c0-0.2,0-0.5,0-0.7l0-0.6c0-0.3-0.1-0.5-0.3-0.6
	C290.4,616.6,290.1,616.5,289.7,616.5L289.7,616.5z M305.5,612.4v1.2c-0.6,0-1,0.2-1.3,0.6c-0.3,0.4-0.5,1-0.5,1.7
	c0,0.7,0.2,1.3,0.5,1.7c0.3,0.4,0.7,0.6,1.3,0.6v1.2c-1,0-1.7-0.3-2.3-0.9c-0.6-0.6-0.8-1.4-0.8-2.5c0-1.1,0.3-1.9,0.8-2.5
	C303.8,612.7,304.5,612.4,305.5,612.4z M305.5,600.7v6.5h-0.2l-2.7-4.7v4.7H302h-0.6v-6.5h0.7h0.7l2.6,4.6v-4.6H305.5z M313.2,614.5
	L313.2,614.5c0-0.3-0.2-0.6-0.4-0.7c-0.2-0.2-0.6-0.3-1-0.3c-0.3,0-0.6,0.1-0.8,0.2c-0.2,0.2-0.3,0.4-0.3,0.6c0,0.2,0.1,0.3,0.3,0.5
	c0.2,0.1,0.6,0.2,1.3,0.4c0.9,0.2,1.6,0.5,1.9,0.7c0.3,0.3,0.5,0.7,0.5,1.3c0,0.6-0.2,1.1-0.7,1.5c-0.5,0.4-1.1,0.5-2,0.5
	c-0.8,0-1.5-0.2-1.9-0.6c-0.5-0.4-0.7-0.9-0.7-1.6h1.3c0,0.3,0.1,0.6,0.4,0.8c0.2,0.2,0.6,0.3,1,0.3c0.4,0,0.8-0.1,1-0.2
	c0.2-0.1,0.4-0.3,0.4-0.6c0-0.2-0.1-0.4-0.3-0.5c-0.2-0.1-0.5-0.2-1.1-0.4c-1-0.2-1.7-0.5-2.1-0.7c-0.3-0.3-0.5-0.7-0.5-1.2
	c0-0.6,0.2-1.1,0.7-1.5c0.5-0.4,1.1-0.6,1.9-0.6c0.7,0,1.3,0.2,1.8,0.6c0.5,0.4,0.7,0.9,0.8,1.6H313.2z M309.4,607.2v-5.4h-2v-0.6
	v-0.6h5.3v0.6v0.6h-2v5.4H310H309.4z M305.5,607.2v-6.5h0.5h0.6v6.5H306H305.5z M305.5,619.3v-1.2c0.6,0,1-0.2,1.3-0.6
	c0.3-0.4,0.5-0.9,0.5-1.7c0-0.7-0.2-1.3-0.5-1.7c-0.3-0.4-0.7-0.6-1.3-0.6v-1.2c1,0,1.7,0.3,2.3,0.9c0.6,0.6,0.8,1.5,0.8,2.5
	c0,1-0.3,1.9-0.8,2.5C307.2,618.9,306.4,619.3,305.5,619.3 M316.3,600.5v1.2c-0.6,0-1,0.2-1.3,0.6c-0.3,0.4-0.5,1-0.5,1.7
	c0,0.7,0.2,1.3,0.5,1.7c0.3,0.4,0.7,0.6,1.3,0.6v1.2c-1,0-1.7-0.3-2.3-0.9c-0.6-0.6-0.8-1.4-0.8-2.5c0-1.1,0.3-1.9,0.8-2.5
	C314.6,600.8,315.4,600.5,316.3,600.5 M324.1,602.6L324.1,602.6c0-0.3-0.2-0.6-0.4-0.7c-0.2-0.2-0.6-0.3-1-0.3
	c-0.3,0-0.6,0.1-0.8,0.2c-0.2,0.2-0.3,0.4-0.3,0.6c0,0.2,0.1,0.3,0.3,0.5c0.2,0.1,0.6,0.2,1.3,0.4c0.9,0.2,1.6,0.5,1.9,0.7
	c0.3,0.3,0.5,0.7,0.5,1.3c0,0.6-0.2,1.1-0.7,1.5c-0.5,0.4-1.1,0.5-2,0.5c-0.8,0-1.5-0.2-1.9-0.6c-0.5-0.4-0.7-0.9-0.7-1.6h1.3
	c0,0.3,0.1,0.6,0.4,0.8c0.2,0.2,0.6,0.3,1,0.3c0.4,0,0.8-0.1,1-0.2c0.2-0.1,0.4-0.3,0.4-0.6c0-0.2-0.1-0.4-0.3-0.5
	c-0.2-0.1-0.5-0.2-1.1-0.4c-1-0.2-1.7-0.5-2.1-0.7c-0.3-0.3-0.5-0.7-0.5-1.2c0-0.6,0.2-1.1,0.7-1.5c0.5-0.4,1.1-0.6,1.9-0.6
	c0.7,0,1.3,0.2,1.8,0.6c0.5,0.4,0.7,0.9,0.8,1.6H324.1z M316.3,607.4v-1.2c0.6,0,1-0.2,1.3-0.6c0.3-0.4,0.5-0.9,0.5-1.7
	c0-0.7-0.2-1.3-0.5-1.7c-0.3-0.4-0.7-0.6-1.3-0.6v-1.2c1,0,1.7,0.3,2.3,0.9c0.6,0.6,0.8,1.5,0.8,2.5c0,1-0.3,1.9-0.8,2.5
	C318.1,607.1,317.3,607.4,316.3,607.4"/>
<g id="XMLID_7836_">
	<path d="M267.6,526.1h-5.9c-3,0-5.4,2.4-5.4,5.4v5.9l54,54h5.9c3,0,5.4-2.4,5.4-5.4v-5.9L267.6,526.1z"/>
</g>
<g id="XMLID_7814_">
	<g id="XMLID_7833_">
		<path class="st0" d="M286,555.7L286,555.7c0.8-0.8,1.3-1.6,1.6-2.4c0.2-0.4,0.2-0.9,0.3-1.3c0-0.6-0.1-1.2-0.3-1.7
			c-0.2-0.6-0.6-1.2-1.2-1.8c-0.1-0.1-0.3-0.3-0.4-0.4c-0.3-0.3-0.6-0.5-1-0.6c-0.7-0.3-1.3-0.5-2.1-0.4c-1.1,0.1-2.1,0.5-3.1,1.3
			c-0.2,0.2-0.4,0.3-0.6,0.5c-0.1,0.1-0.3,0.3-0.4,0.4c-0.9,1-1.3,2.1-1.4,3.2c-0.1,1.2,0.4,2.4,1.4,3.4l0.1,0.1
			c0.3,0.3,0.6,0.5,0.9,0.7c0.8,0.5,1.7,0.8,2.6,0.8c0.9,0,1.7-0.3,2.6-0.9C285.3,556.3,285.6,556,286,555.7z M284.6,554.1
			c-0.8,0.8-1.5,1.2-2.3,1.3c-0.8,0.1-1.5-0.2-2.1-0.8c-0.1-0.1-0.3-0.3-0.4-0.4c-0.3-0.5-0.5-1-0.4-1.6c0-0.4,0.2-0.8,0.4-1.2
			c0.2-0.4,0.5-0.8,0.9-1.1c0.8-0.8,1.6-1.2,2.3-1.3c0.7-0.1,1.3,0.1,1.9,0.6l0.2,0.2c0.6,0.6,0.9,1.3,0.8,2.1
			c-0.1,0.6-0.4,1.3-0.9,1.9C284.9,553.8,284.7,554,284.6,554.1z"/>
	</g>
	<g id="XMLID_7830_">
		<path class="st0" d="M269.4,539.8c0.8,0,1.6-0.3,2.4-1.1c0.7-0.7,1.1-1.5,1-2.3c0-0.8-0.5-1.6-1.3-2.4l-2.2-2.2l-0.6-0.6l-0.2-0.2
			l-7.1,7.1l0.7,0.7l0.7,0.7l2.5-2.5c0.4,0.4,0.9,0.9,1.5,1.5c0.6,0.6,1.2,1,1.7,1.1C269,539.7,269.2,539.8,269.4,539.8z M268,537.1
			l-1.2-1.2l2-2l0.1-0.1l1.2,1.2c0.4,0.4,0.6,0.8,0.7,1.2c0,0.4-0.1,0.7-0.4,1.1c-0.4,0.4-0.7,0.5-1.1,0.5c-0.1,0-0.3,0-0.4-0.1
			C268.5,537.5,268.2,537.3,268,537.1z"/>
	</g>
	<g id="XMLID_7827_">
		<path class="st0" d="M278.9,546.3c0.2-0.1,0.4-0.3,0.6-0.5c0.2-0.2,0.3-0.3,0.4-0.5c0.3-0.5,0.4-1,0.4-1.6c0-0.5-0.2-0.9-0.4-1.3
			c-0.2-0.3-0.4-0.6-0.7-0.9l-0.3-0.3l-2.5-2.5l-0.2-0.2l-0.5-0.5l-6.8,6.8l-0.2,0.2l0.2,0.2l0.5,0.5l0.7,0.7l2.8-2.8l1.5,1.5
			c0.4,0.4,0.7,0.8,0.7,1.1c0,0.3-0.1,0.6-0.4,1l-0.6,0.7c-0.3,0.3-0.5,0.6-0.7,0.8c-0.2,0.3-0.3,0.5-0.4,0.6l1.6,1.6l0.2-0.2
			c-0.1-0.2-0.1-0.3,0-0.5c0.1-0.1,0.2-0.3,0.4-0.6l1-1.1l0.1-0.1c0.6-0.6,0.7-1.2,0.6-1.8c0-0.1-0.1-0.2-0.1-0.4
			c0.2,0.1,0.4,0.2,0.6,0.2C277.8,546.7,278.3,546.6,278.9,546.3z M276.1,544.6c-0.1-0.1-0.3-0.2-0.4-0.3l-1.7-1.7l1.9-1.9l0.2,0.2
			l1.5,1.5c0.4,0.4,0.6,0.7,0.6,1.1c0,0.3-0.1,0.7-0.4,1c-0.3,0.3-0.6,0.5-1,0.4C276.6,544.9,276.3,544.8,276.1,544.6z"/>
	</g>
	<g id="XMLID_7824_">
		<path class="st0" d="M315.9,578c-1-1-2.2-1.5-3.5-1.5c-1.1,0.1-2.2,0.5-3.2,1.4c-0.2,0.1-0.3,0.3-0.5,0.4
			c-0.2,0.2-0.4,0.4-0.5,0.6c-0.5,0.6-0.8,1.2-1,1.8c-0.1,0.4-0.2,0.8-0.2,1.3c0,0.5,0.1,1.1,0.2,1.6c0.2,0.6,0.5,1.1,1,1.7l0.2,0.2
			c0.2,0.2,0.5,0.5,0.8,0.6c0.8,0.6,1.8,0.9,2.7,0.8c1.3-0.1,2.5-0.6,3.6-1.8c1.2-1.2,1.8-2.4,1.8-3.7
			C317.5,580.2,317,579,315.9,578z M314.1,583.7c-0.8,0.8-1.5,1.2-2.3,1.3c-0.8,0.1-1.5-0.2-2.1-0.8c-0.2-0.2-0.4-0.4-0.5-0.7
			c-0.2-0.4-0.3-0.9-0.3-1.4c0-0.3,0.1-0.6,0.3-0.9c0.2-0.5,0.6-0.9,1-1.4c0.8-0.8,1.6-1.2,2.3-1.3c0.8-0.1,1.5,0.1,2.1,0.7
			c0.6,0.6,0.9,1.3,0.8,2.1C315.3,582.1,314.9,582.9,314.1,583.7z"/>
	</g>
	<g id="XMLID_7821_">
		<path class="st0" d="M307.7,576.9c0.2-0.2,0.3-0.4,0.5-0.5c0.4-0.5,0.8-1,1-1.6c0.2-0.4,0.3-0.8,0.3-1.2c0-0.5-0.1-1-0.3-1.5
			c-0.2-0.5-0.5-1-1-1.4l-0.1-0.1l-0.9-0.9l-1.4-1.4l-0.7-0.7l-3.1,3.1l-3.5,3.5l-0.5,0.5l0.5,0.5l0.3,0.3l2.2,2.2
			c0.3,0.4,0.7,0.6,1.1,0.8c0.7,0.4,1.4,0.6,2.2,0.5c1-0.1,2-0.6,3-1.5C307.4,577.2,307.6,577.1,307.7,576.9z M306.2,575.5
			c-0.8,0.8-1.6,1.3-2.3,1.4c-0.7,0.1-1.3-0.1-1.9-0.7l0,0l-1.2-1.2l1.3-1.3l3.4-3.4l1.4,1.4c0.2,0.2,0.4,0.4,0.5,0.6
			c0.2,0.4,0.3,0.8,0.2,1.2c0,0.2-0.1,0.5-0.2,0.7C307,574.6,306.7,575,306.2,575.5z"/>
	</g>
	<g id="XMLID_7820_">
		<polygon class="st0" points="292.1,555.5 292.6,555 292.1,554.6 291.8,554.3 291.1,553.5 287.6,557 286,558.7 285,559.7 
			284,560.6 284.8,561.3 285,561.6 285.5,562.1 286,561.6 287.6,560 		"/>
	</g>
	<g id="XMLID_7816_">
		<path class="st0" d="M295.4,567.5c0.6-0.6,0.8-1.3,0.7-2c0-0.2-0.1-0.4-0.2-0.7c0.1,0,0.3,0.1,0.4,0.1c0.7,0.1,1.4-0.1,2-0.7
			c0.1-0.1,0.2-0.2,0.3-0.3c0.4-0.5,0.5-1,0.5-1.6c0-0.4-0.2-0.8-0.5-1.2c-0.2-0.3-0.4-0.6-0.7-0.8l-2.7-2.7l-0.1-0.1l-0.6-0.6
			l-0.7,0.7l-1.5,1.5l-4.5,4.5l-0.3,0.3l0.3,0.3l0.4,0.4l2.5,2.5c0.5,0.5,1.1,0.9,1.6,1.2c0.3,0.1,0.6,0.2,0.9,0.2
			c0.2,0,0.4,0,0.6,0c0.5-0.1,0.9-0.3,1.3-0.6C295.1,567.8,295.3,567.7,295.4,567.5z M293.9,566c-0.1,0.1-0.2,0.2-0.3,0.2
			c-0.3,0.2-0.5,0.3-0.8,0.3c-0.2,0-0.5-0.1-0.7-0.3c-0.1-0.1-0.2-0.2-0.4-0.3l-1.8-1.8l1.9-1.9l0.3,0.3l1.5,1.5l0.1,0.1
			c0.4,0.4,0.6,0.7,0.6,1.1C294.3,565.4,294.2,565.7,293.9,566z M294.7,562.7l-1.1-1.1L293,561l0.6-0.6l0.9-0.9l0.4,0.4l1.2,1.2
			c0.4,0.4,0.6,0.7,0.7,1.1c0.1,0.3,0,0.6-0.3,0.8c-0.3,0.3-0.6,0.4-0.9,0.4c-0.2,0-0.5-0.2-0.8-0.4
			C294.9,562.9,294.8,562.8,294.7,562.7z"/>
	</g>
	<g id="XMLID_7815_">
		<polygon class="st0" points="302,567 303.3,565.7 302.6,565 302,564.4 301.8,564.2 298.5,567.6 295,571.1 294.7,571.3 295,571.6 
			295.5,572.1 296.2,572.8 298.5,570.5 		"/>
	</g>
</g>
<path id="XMLID_7786_" d="M348.5,619.1L348.5,619.1v-6.5h0.7h0.7v5.4h3.2v0.6v0.6H348.5z M342.9,619.1v-6.5h4.6v0.6v0.6h-3.3v1.5
	h2.9v0.6v0.6h-2.9v2.8h-0.7H342.9z M337.6,619.1L337.6,619.1H337h-0.6v-6.5h0.7h0.7l2.6,4.6v-4.6h0.6h0.6v6.5H341h-0.7l-2.7-4.7
	V619.1z M333.8,619.1v-6.5h0.7h0.7v6.5h-0.7H333.8z M356.6,612.6v1.5v0l-0.9,2.6h0.9v1.1h-1.2l-0.4,1.3h-0.7h-0.7l2.3-6.5H356.6z
	 M356.6,603.5v3.7H356h-0.7L356.6,603.5z M351.5,607.4c-0.9,0-1.7-0.3-2.3-0.9c-0.6-0.6-0.8-1.4-0.8-2.5c0-1.1,0.3-1.9,0.9-2.5
	c0.6-0.6,1.4-0.9,2.3-0.9c0.8,0,1.4,0.2,2,0.6c0.5,0.4,0.8,0.9,0.9,1.6h-1.4c0-0.3-0.2-0.5-0.5-0.7c-0.3-0.2-0.6-0.3-0.9-0.3
	c-0.6,0-1.1,0.2-1.4,0.6c-0.3,0.4-0.5,1-0.5,1.7c0,0.7,0.2,1.3,0.5,1.7c0.3,0.4,0.8,0.6,1.4,0.6h0c0.5,0,0.9-0.2,1.2-0.6
	c0.2-0.2,0.3-0.5,0.4-0.8v0h-1.5v-1.1h2.7v3.5h-0.9l-0.1-0.8l-0.1,0.1C352.9,607.1,352.3,607.4,351.5,607.4L351.5,607.4z
	 M358.4,615.3v3.8h-0.1l-0.4-1.3h-1.2v-1.1h0.9l-0.9-2.6v-1.5h0h0.8L358.4,615.3z M358.4,600.7v1.5v0l-0.9,2.6h0.9v1.1h-1.2
	l-0.4,1.3h-0.1v-3.7l1-2.8H358.4z M361.8,619.1L361.8,619.1h-0.6h-0.6v-6.5h1h1l1.2,5.2l1.2-5.2h1h1v6.5h-0.6h-0.6v-5.5l-1.2,5.5
	h-0.7H363l-1.2-5.6V619.1z M365.9,602.6L365.9,602.6c0-0.3-0.2-0.6-0.4-0.7c-0.3-0.2-0.6-0.3-1-0.3c-0.3,0-0.6,0.1-0.8,0.2
	c-0.2,0.2-0.3,0.4-0.3,0.6c0,0.2,0.1,0.3,0.3,0.5c0.2,0.1,0.6,0.2,1.3,0.4c0.9,0.2,1.6,0.5,1.9,0.7c0.3,0.3,0.5,0.7,0.5,1.3
	c0,0.6-0.2,1.1-0.7,1.5c-0.5,0.4-1.1,0.5-2,0.5c-0.8,0-1.5-0.2-1.9-0.6c-0.5-0.4-0.7-0.9-0.7-1.6h1.3c0,0.3,0.1,0.6,0.4,0.8
	c0.2,0.2,0.6,0.3,1,0.3c0.4,0,0.8-0.1,1-0.2c0.2-0.1,0.4-0.3,0.4-0.6c0-0.2-0.1-0.4-0.3-0.5c-0.2-0.1-0.5-0.2-1.1-0.4
	c-1-0.2-1.7-0.5-2.1-0.7c-0.3-0.3-0.5-0.7-0.5-1.2c0-0.6,0.2-1.1,0.7-1.5c0.5-0.4,1.1-0.6,1.9-0.6c0.7,0,1.3,0.2,1.8,0.6
	c0.5,0.4,0.7,0.9,0.8,1.6H365.9z M358.4,605.9v-1.1h0.9l-0.9-2.6v-1.5h0h0.8l2.3,6.5h-0.7H360l-0.4-1.3H358.4z M358.4,619.1v-3.8
	l1.4,3.8H359H358.4z M370.7,612.6v1.5v0l-0.9,2.6h0.9v1.1h-1.2l-0.4,1.3h-0.7h-0.7l2.3-6.5H370.7z M370.7,611.1v0.8h-0.5
	L370.7,611.1z M370.7,600.7v1.2h-0.9v1.4h0.9v1.1h-0.9v1.7h0.9v1.2h-2.3v-6.5H370.7z M392.9,614.5L392.9,614.5
	c0-0.3-0.2-0.6-0.4-0.7c-0.2-0.2-0.6-0.3-1-0.3c-0.3,0-0.6,0.1-0.8,0.2c-0.2,0.2-0.3,0.4-0.3,0.6c0,0.2,0.1,0.3,0.3,0.5
	c0.2,0.1,0.6,0.2,1.3,0.4c0.9,0.2,1.6,0.5,1.9,0.7c0.3,0.3,0.5,0.7,0.5,1.3c0,0.6-0.2,1.1-0.7,1.5c-0.5,0.4-1.1,0.5-2,0.5
	c-0.8,0-1.5-0.2-1.9-0.6c-0.5-0.4-0.7-0.9-0.7-1.6h1.3c0,0.3,0.1,0.6,0.4,0.8c0.2,0.2,0.6,0.3,1,0.3c0.4,0,0.8-0.1,1-0.2
	c0.2-0.1,0.4-0.3,0.4-0.6s-0.1-0.4-0.3-0.5c-0.2-0.1-0.5-0.2-1.1-0.4c-1-0.2-1.7-0.5-2.1-0.7c-0.3-0.3-0.5-0.7-0.5-1.2
	c0-0.6,0.2-1.1,0.7-1.5c0.5-0.4,1.1-0.6,1.9-0.6c0.7,0,1.3,0.2,1.8,0.6c0.5,0.4,0.7,0.9,0.8,1.6H392.9z M386.7,619.1v-6.5h0.7h0.7
	v6.5h-0.7H386.7z M380.8,619.1L380.8,619.1v-6.5h4.8v0.6v0.6h-3.4v1.4h3.2v0.6v0.6h-3.2v1.7h3.6v0.6v0.6H380.8z M374.2,612.6
	L374.2,612.6h0.7h0.7l1.4,5h0l1.4-5h0.7h0.7l-2.2,6.5H377h-0.6L374.2,612.6z M378,602.6L378,602.6c0-0.3-0.2-0.6-0.4-0.7
	c-0.2-0.2-0.6-0.3-1-0.3c-0.3,0-0.6,0.1-0.8,0.2c-0.2,0.2-0.3,0.4-0.3,0.6c0,0.2,0.1,0.3,0.3,0.5c0.2,0.1,0.6,0.2,1.3,0.4
	c0.9,0.2,1.6,0.5,1.9,0.7c0.3,0.3,0.5,0.7,0.5,1.3c0,0.6-0.2,1.1-0.7,1.5c-0.5,0.4-1.1,0.5-2,0.5c-0.8,0-1.5-0.2-1.9-0.6
	c-0.5-0.4-0.7-0.9-0.7-1.6h1.3c0,0.3,0.1,0.6,0.4,0.8c0.2,0.2,0.6,0.3,1,0.3c0.4,0,0.8-0.1,1-0.2c0.2-0.1,0.4-0.3,0.4-0.6
	c0-0.2-0.1-0.4-0.3-0.5c-0.2-0.1-0.5-0.2-1.1-0.4c-1-0.2-1.7-0.5-2.1-0.7c-0.3-0.3-0.5-0.7-0.5-1.2c0-0.6,0.2-1.1,0.7-1.5
	c0.5-0.4,1.1-0.6,1.9-0.6c0.7,0,1.3,0.2,1.8,0.6c0.5,0.4,0.7,0.9,0.8,1.6H378z M370.7,601.8v-1.2h2.5v0.6v0.6H370.7z M370.7,604.3
	v-1.1h2.2v0.6v0.6H370.7z M370.7,607.2V606h2.6v0.6v0.6H370.7z M370.7,611.9v-0.8l0.3-0.5h1.4l-1.3,1.3H370.7z M370.7,617.8v-1.1
	h0.9l-0.9-2.6v-1.5h0h0.8l2.3,6.5h-0.7h-0.7l-0.4-1.3H370.7z"/>
<g id="XMLID_7715_">
	<polygon points="39.7,500.1 44.3,508.3 54.2,509.8 47.1,516.4 48.6,525.6 39.6,521.4 30.7,525.6 32.2,516.4 25.2,509.8 35.1,508.3 
			"/>
</g>
<g id="XMLID_7712_">
	<path class="st0" d="M44.5,509.9c-0.9-1-2.1-1.5-3.8-1.5h0h-3.9h-1.3V521h1.3h3.7h0.2c1.7,0,2.9-0.6,3.8-1.7
		c0.9-1.1,1.4-2.8,1.4-4.9C45.8,512.4,45.4,510.9,44.5,509.9z M42.5,517.7c-0.4,0.6-1.1,1-1.8,1.1c-0.2,0-0.3,0-0.5,0H38v-8.3h2.4
		l0.3,0c0.8,0.1,1.5,0.4,1.9,1c0.5,0.7,0.7,1.6,0.7,2.9C43.3,515.9,43,517,42.5,517.7z"/>
</g>
<path id="XMLID_7680_" d="M46.4,619.1L46.4,619.1v-6.5h0.7h0.7v5.4H51v0.6v0.6H46.4z M40.9,619.1v-6.5h4.6v0.6v0.6h-3.3v1.5h2.9v0.6
	v0.6h-2.9v2.8h-0.7H40.9z M35.5,619.1L35.5,619.1h-0.6h-0.6v-6.5H35h0.7l2.6,4.6v-4.6h0.6h0.6v6.5h-0.7h-0.7l-2.7-4.7V619.1z
	 M31.7,619.1v-6.5h0.7h0.7v6.5h-0.7H31.7z M54.5,612.6v1.5l0,0l-0.9,2.6h0.9v1.1h-1.2l-0.4,1.3h-0.7h-0.7l2.3-6.5H54.5z M54.5,600.7
	v1.2h-0.2v1.4h0.2v1.1h-0.2v1.7h0.2v1.2H53v-6.5H54.5z M46.6,607.2L46.6,607.2H46h-0.6v-6.5h1h1l1.2,5.2l1.2-5.2h1h1v6.5H51h-0.6
	v-5.5h0l-1.2,5.5h-0.7h-0.7l-1.2-5.6V607.2z M59.7,619.1L59.7,619.1h-0.6h-0.6v-6.5h1h1l1.2,5.2l1.2-5.2h1h1v6.5h-0.6h-0.6v-5.5
	l-1.2,5.5h-0.7H61l-1.2-5.6V619.1z M60.5,607.2v-5.4h-2v-0.6v-0.6h5.3v0.6v0.6h-2v5.4h-0.7H60.5z M54.5,601.9v-1.2h3.2v0.6v0.6H54.5
	z M54.5,604.4v-1.1h3v0.6v0.6H54.5z M54.5,607.2v-1.2h3.4v0.6v0.6H54.5z M54.5,617.8v-1.1h0.9l-0.9-2.6v-1.5h0h0.8l2.3,6.5h-0.7
	h-0.7l-0.4-1.3H54.5z M67.2,614.7v3.9l-0.2,0.5h-0.7h-0.7L67.2,614.7z M67.2,600.7v1.4l-0.9,2.6h0.9v1.1h-1.2l-0.4,1.3h-0.7h-0.7
	l2.3-6.5H67.2z M68.7,612.6v1.5v0l-0.9,2.6h0.9v1.1h-1.2l-0.3,0.8v-3.9l0.7-2.1H68.7z M68.7,611.1v0.8h-0.5L68.7,611.1z M68.7,602.7
	v4l-0.3-0.8h-1.2v-1.1H68l-0.9-2.6v-1.4h0H68L68.7,602.7z M90.8,614.5L90.8,614.5c0-0.3-0.2-0.6-0.4-0.7c-0.2-0.2-0.6-0.3-1-0.3
	c-0.3,0-0.6,0.1-0.8,0.2c-0.2,0.1-0.3,0.4-0.3,0.6c0,0.2,0.1,0.3,0.3,0.5c0.2,0.1,0.6,0.2,1.3,0.4c0.9,0.2,1.6,0.5,1.9,0.7
	s0.5,0.7,0.5,1.3c0,0.6-0.2,1.1-0.7,1.5c-0.5,0.4-1.1,0.5-2,0.5c-0.8,0-1.5-0.2-1.9-0.6c-0.5-0.4-0.7-0.9-0.7-1.6h1.3
	c0,0.3,0.1,0.6,0.4,0.8c0.2,0.2,0.6,0.3,1,0.3c0.4,0,0.8-0.1,1-0.2c0.2-0.1,0.4-0.3,0.4-0.6s-0.1-0.4-0.3-0.5
	c-0.2-0.1-0.5-0.2-1.1-0.4c-1-0.2-1.7-0.5-2.1-0.7c-0.3-0.3-0.5-0.7-0.5-1.2c0-0.6,0.2-1.1,0.7-1.5c0.5-0.4,1.1-0.6,1.9-0.6
	c0.7,0,1.3,0.2,1.8,0.6c0.5,0.4,0.7,0.9,0.8,1.6H90.8z M84.7,619.1v-6.5h0.7H86v6.5h-0.7H84.7z M78.7,619.1L78.7,619.1v-6.5h4.8v0.6
	v0.6h-3.4v1.4h3.2v0.6v0.6h-3.2v1.7h3.6v0.6v0.6H78.7z M72.1,612.6L72.1,612.6h0.7h0.7l1.4,5h0l1.4-5h0.7h0.7l-2.2,6.5H75h-0.6
	L72.1,612.6z M77.2,602.7L77.2,602.7c0-0.3-0.2-0.6-0.4-0.7s-0.6-0.3-1-0.3c-0.3,0-0.6,0.1-0.8,0.2c-0.2,0.2-0.3,0.4-0.3,0.6
	c0,0.2,0.1,0.3,0.3,0.5c0.2,0.1,0.6,0.2,1.3,0.4c0.9,0.2,1.6,0.5,1.9,0.7c0.3,0.3,0.5,0.7,0.5,1.3c0,0.6-0.2,1.1-0.7,1.5
	c-0.5,0.4-1.1,0.5-2,0.5c-0.8,0-1.5-0.2-1.9-0.6c-0.5-0.4-0.7-0.9-0.7-1.6h1.3c0,0.3,0.1,0.6,0.4,0.8c0.2,0.2,0.6,0.3,1,0.3
	c0.4,0,0.8-0.1,1-0.2c0.2-0.1,0.4-0.3,0.4-0.6c0-0.2-0.1-0.4-0.3-0.5s-0.5-0.2-1.1-0.4c-1-0.2-1.7-0.5-2.1-0.7
	c-0.3-0.3-0.5-0.7-0.5-1.2c0-0.6,0.2-1.1,0.7-1.5c0.5-0.4,1.1-0.6,1.9-0.6c0.7,0,1.3,0.2,1.8,0.6c0.5,0.4,0.7,0.9,0.8,1.6H77.2z
	 M71,607.2v-6.5h0.7h0.7v6.5h-0.7H71z M68.7,606.7v-4l1.6,4.5h-0.7h-0.7L68.7,606.7z M68.7,611.9v-0.8l0.3-0.5h1.4l-1.3,1.3H68.7z
	 M68.7,617.8v-1.1h0.9l-0.9-2.6v-1.5h0h0.8l2.3,6.5h-0.7h-0.7l-0.4-1.3H68.7z"/>
<g id="XMLID_7670_">
	<g id="XMLID_7679_">
		<path d="M62.2,547.2c0.9,0.9,1.7,1.9,1.9,3.1c0.7-2.1,1.5-3.4,1.1-4.4c-0.6-1.7-2.3-2.8-2.4-6c0-1.7,0.8-3.5,2.5-4.6
			c-1.1,0.2-2.1,0.6-3,1.2c-2.4,1.6-3.9,4.5-2.7,7.3C60,545.1,61.1,546.1,62.2,547.2z"/>
	</g>
	<g id="XMLID_7678_">
		<path d="M62.2,569c-1.3-0.8-2.1-2.2-2.1-3.8s0.8-3,2.1-3.8c0.6-0.4,1.2-0.6,1.9-0.7l-1.2-8.9c-0.2,0-0.4,0.1-0.6,0.1
			c-4.7,0.9-8.5,4.2-10.2,8.5c-0.6,1.5-0.9,3.1-0.9,4.8c0,1.7,0.3,3.3,0.9,4.8c1.7,4.4,5.5,7.7,10.2,8.5c0.8,0.1,1.6,0.2,2.5,0.2
			c3.3,0,6.3-1.2,8.6-3.1l-5.7-6.9c-0.8,0.7-1.8,1-2.9,1C63.7,569.7,62.9,569.4,62.2,569z"/>
	</g>
	<g id="XMLID_7677_">
		<path d="M77.9,570.2c0.3,0,0.7,0,1-0.1c1.2-0.1,2.7-0.5,3.5-1.8c0.9-1.4,0.9-3.1,0.4-4.3c-0.4-1.1-1.5-2-2.4-2.5
			c0.3,1.5,0.1,2.7-0.3,3.5c-0.3,0.6-0.8,1.1-1.3,1.5c-0.6,0.4-1.2,0.7-1.9,1.1c-2.1,1.1-3.2,3.5-1.6,5.3
			C75.6,571.8,76.6,570.3,77.9,570.2z"/>
	</g>
	<g id="XMLID_7676_">
		<path d="M44,555.9c-0.1-0.2-0.2-0.5-0.2-0.7c-0.4-1.5-0.5-3.2-0.5-4.9c0-0.8,0.2-1.5,0.5-2.2c0.7-2,2.1-3.5,2.3-5.9
			c0.2-2.5-0.6-4.4-2.3-6c-0.3-0.3-0.7-0.6-1.1-0.9c1.6,3.3,1.1,5.7,0,7.8c-1.3,2.4-4,5.3-1.5,8.4c0.9,1.1,1.9,2.4,2.6,3.8
			C43.9,555.6,43.9,555.8,44,555.9z"/>
	</g>
	<g id="XMLID_7675_">
		<path d="M80.9,577.1l-1.9-1.4l-1.9-1.4c-2.8,3.8-7.3,6.2-12.3,6.2c-0.8,0-1.7-0.1-2.5-0.2c-4.2-0.7-7.9-3.1-10.2-6.5
			c-1.7-2.5-2.7-5.4-2.7-8.6c0-3.2,1-6.2,2.7-8.6c1-1.4,2.2-2.7,3.6-3.7l-2.8-3.9c0,0,0,0,0,0l-0.1-0.2L52,548l-1.1-1.5
			c-0.9,0.7-1.8,1.4-2.6,2.2c-0.8,0.8-1.6,1.7-2.3,2.6l2.5,1.8c-1.3,1.8-2.4,3.8-3.1,6l-1.6-0.6l-1.2-0.4c-0.4,1.1-0.6,2.2-0.8,3.4
			c-0.2,1.2-0.3,2.3-0.3,3.5l2.3,0l0.7,0c0,0.1,0,0.2,0,0.2c0,2.2,0.4,4.4,1,6.4l-1.7,0.5l-1.2,0.4c0.3,1,0.7,1.9,1.2,2.9l0.2,0.4
			c0.5,1.1,1.1,2,1.8,3l2.4-1.8c1.1,1.5,2.3,2.8,3.8,4c0.3,0.3,0.7,0.5,1,0.8l-1,1.3l-0.9,1.1c0.3,0.2,0.6,0.4,0.9,0.6
			c0.7,0.4,1.4,0.9,2.1,1.2c1.1,0.5,2.1,1,3.2,1.4l0.9-2.9c1.3,0.4,2.6,0.7,4,0.9c0.8,0.1,1.6,0.2,2.5,0.2c0.1,0,0.1,0,0.2,0l-0.1,3
			c1.1,0,2.3-0.1,3.5-0.3c1.2-0.2,2.3-0.5,3.4-0.8l-1-2.9c2.2-0.7,4.2-1.7,6-3l1.8,2.5c0.2-0.1,0.4-0.3,0.5-0.4
			c0.7-0.6,1.4-1.2,2.1-1.9c0.8-0.8,1.6-1.7,2.3-2.6L80.9,577.1C80.8,577.1,80.8,577.1,80.9,577.1z"/>
	</g>
	<g id="XMLID_7674_">
		<path d="M49.3,541.3c0.2,0.8,0.6,1.7,1.4,2.6c0.4,0.5,0.9,0.8,1.3,1.2c0.7,0.6,1.2,1.4,1.2,2.8c0.9-1.8,0.2-3.4-0.2-5.3
			c-0.2-0.9,0.1-2.1,0.4-3.2c0.8-2.3,1.5-4.1,1.3-5.5c-0.2-1.2-1.2-2.2-2.8-3.1c-0.6-0.4-1.4-0.7-2.2-1c1.6,2.1,1.7,4.4,1.2,5.8
			C50.3,537.7,48.7,538.8,49.3,541.3z"/>
	</g>
	<g id="XMLID_7671_">
		<path d="M92.6,528.2L92.6,528.2c-1.1-1.1-2.6-1.8-4.3-1.8H61.7H35.2c-1.7,0-3.2,0.7-4.3,1.8c-1.1,1.1-1.8,2.6-1.8,4.3v53.1
			c0,1.7,0.7,3.2,1.8,4.3l0,0c1.1,1.1,2.6,1.8,4.3,1.8h26.5h26.5c1.7,0,3.2-0.7,4.3-1.8v0c1.1-1.1,1.8-2.6,1.8-4.3v-53.1
			C94.4,530.8,93.7,529.3,92.6,528.2z M92.8,585.6c0,1.2-0.5,2.4-1.3,3.2v0c-0.8,0.8-1.9,1.3-3.2,1.3H61.7H35.2
			c-1.2,0-2.4-0.5-3.2-1.3l0,0c-0.8-0.8-1.3-1.9-1.3-3.2v-53.1c0-1.2,0.5-2.4,1.3-3.2h0c0.8-0.8,1.9-1.3,3.2-1.3h26.5h26.5
			c1.2,0,2.4,0.5,3.2,1.3h0c0.8,0.8,1.3,1.9,1.3,3.2V585.6z"/>
	</g>
</g>
<g id="XMLID_7669_">
	<path d="M191.9,526.3H186c-3,0-5.4,2.4-5.4,5.4v5.9l54,54h5.9c3,0,5.4-2.4,5.4-5.4v-5.9L191.9,526.3z"/>
</g>
<g id="XMLID_7624_">
	<path class="st0" d="M193,545.1v0.5l-0.2-0.2L193,545.1z M185.8,538.3l7.1-7.1l0.2,0.2v2.6l-2,2l1.2,1.2c0.3,0.3,0.5,0.5,0.8,0.6v2
		c-0.6-0.2-1.2-0.6-1.7-1.1c-0.6-0.6-1.1-1.1-1.5-1.5l-2.5,2.5l-0.7-0.7L185.8,538.3z M200.4,538.7l-0.5-0.5l-6.8,6.8v0.5l0.5,0.5
		l0.7,0.7l2.8-2.8l1.5,1.5c0.4,0.4,0.7,0.8,0.7,1.1c0,0.3-0.1,0.6-0.4,1l-0.6,0.7c-0.3,0.3-0.5,0.6-0.7,0.8
		c-0.2,0.3-0.3,0.5-0.4,0.6l1.6,1.6l0.2-0.2c-0.1-0.2-0.1-0.3,0-0.5c0.1-0.1,0.2-0.3,0.4-0.6l1-1.1v-4c-0.1-0.1-0.3-0.2-0.4-0.3
		l-1.7-1.7l1.9-1.9l0.2,0.2V538.7z M193,531.4l0.6,0.6l2.2,2.2c0.8,0.8,1.2,1.6,1.3,2.4c0,0.8-0.3,1.6-1,2.3
		c-0.8,0.8-1.6,1.1-2.4,1.1c-0.2,0-0.5,0-0.7-0.1v-2c0.1,0.1,0.3,0.1,0.4,0.1c0.4,0,0.8-0.2,1.1-0.5c0.3-0.3,0.5-0.7,0.4-1.1
		c0-0.4-0.3-0.8-0.7-1.2l-1.2-1.2L193,534V531.4z M203.2,549.4v6.6c-1-1-1.4-2.1-1.4-3.4C201.8,551.5,202.3,550.4,203.2,549.4
		 M203.2,541.5v5c-0.5,0.3-1,0.4-1.6,0.3c-0.2,0-0.4-0.1-0.6-0.2c0.1,0.1,0.1,0.2,0.1,0.3c0.2,0.6,0,1.3-0.6,1.8l-0.1,0.1v-4
		c0.2,0.2,0.5,0.3,0.7,0.3c0.3,0,0.7-0.1,1-0.4c0.3-0.3,0.5-0.6,0.4-1c0-0.3-0.2-0.7-0.6-1.1l-1.5-1.5v-2.4l0.2,0.2L203.2,541.5z
		 M204.1,548.5v3.1c-0.2,0.4-0.3,0.8-0.4,1.2c-0.1,0.6,0.1,1.1,0.4,1.6v2.4c-0.3-0.2-0.6-0.4-0.9-0.7l-0.1-0.1v-6.6
		c0.1-0.1,0.2-0.3,0.4-0.4C203.7,548.8,203.9,548.6,204.1,548.5 M204.1,542.6v2.9c-0.1,0.2-0.2,0.3-0.4,0.5
		c-0.2,0.2-0.4,0.3-0.6,0.5v-5l0.3,0.3C203.7,542.1,204,542.4,204.1,542.6 M204.1,545.5v-2.9c0.2,0.4,0.4,0.9,0.4,1.3
		C204.6,544.5,204.4,545,204.1,545.5 M209.3,559.9v1.9l-0.2-0.2l-0.7-0.7L209.3,559.9z M209.3,553.9v2.8c-0.8,0.6-1.7,0.9-2.5,0.9
		c-0.9,0-1.8-0.2-2.6-0.8v-2.4c0.1,0.2,0.2,0.3,0.4,0.4c0.6,0.6,1.3,0.9,2.1,0.8c0.8-0.1,1.5-0.5,2.3-1.3
		C209,554.2,209.2,554,209.3,553.9 M209.3,547.6v2.1c-0.6-0.5-1.2-0.7-1.9-0.6c-0.8,0.1-1.6,0.5-2.3,1.3c-0.4,0.4-0.7,0.8-0.9,1.1
		v-3.1c1-0.8,2-1.2,3.1-1.3C207.9,547.2,208.6,547.3,209.3,547.6 M210.3,558.9v3l-0.4,0.4l-0.5-0.5v-1.9L210.3,558.9z M210.3,548.2
		v7.7c-0.3,0.3-0.6,0.6-1,0.8v-2.8c0.5-0.6,0.8-1.3,0.9-1.9c0.1-0.8-0.1-1.5-0.8-2.1l-0.2-0.2v-2.1
		C209.6,547.8,209.9,548,210.3,548.2 M211.9,563.8v0.6l-0.3-0.3L211.9,563.8z M211.9,557.2v3l-1.6,1.6v-3L211.9,557.2z M211.9,550.4
		v3.1c-0.3,0.8-0.8,1.6-1.6,2.3l-0.1,0.1v-7.7c0.2,0.1,0.3,0.3,0.4,0.4C211.3,549.2,211.7,549.8,211.9,550.4 M211.9,553.5v-3.1
		c0.2,0.6,0.3,1.1,0.3,1.7C212.2,552.6,212.1,553.1,211.9,553.5 M216.4,559.3l-4.5,4.5v0.6l0.4,0.4l2.5,2.5c0.5,0.5,1.1,0.9,1.6,1.2
		v-2.1c-0.1-0.1-0.2-0.2-0.4-0.3l-1.8-1.8l1.9-1.9l0.3,0.3V559.3z M216.4,554.8v0.9l-4.5,4.5v-3l3.5-3.5l0.7,0.7L216.4,554.8z
		 M216.4,555.7v-0.9l0.5,0.5L216.4,555.7z M218,566.5v2.2c-0.2,0-0.4,0-0.6,0c-0.3,0-0.6-0.1-0.9-0.2v-2.1c0.3,0.2,0.5,0.3,0.7,0.3
		C217.4,566.7,217.7,566.6,218,566.5 M218,557.8v2.8l-0.6,0.6l0.6,0.6v2.4l-0.1-0.1l-1.5-1.5v-3.4L218,557.8z M219.3,571.3v0.5
		l-0.2-0.2L219.3,571.3z M219.3,563.1v4.9c-0.4,0.3-0.9,0.5-1.3,0.6v-2.2c0.1-0.1,0.2-0.1,0.3-0.2c0.3-0.3,0.4-0.6,0.4-1
		c0-0.3-0.3-0.7-0.6-1.1v-2.4l1.1,1.1C219.1,563,219.2,563.1,219.3,563.1 M219.3,557.6v2.4l-0.4-0.4l-0.9,0.9v-2.8l0.7-0.7
		L219.3,557.6z M222.8,574.4v0.9l-0.5-0.5L222.8,574.4z M222.8,567.8l-3.5,3.5v0.5l0.5,0.5l0.7,0.7l2.3-2.3V567.8z M222.8,561.3v2.8
		c-0.1,0.1-0.2,0.2-0.3,0.3c-0.6,0.6-1.2,0.8-2,0.7c-0.1,0-0.2-0.1-0.4-0.1c0.1,0.2,0.2,0.5,0.2,0.7c0.1,0.8-0.1,1.4-0.7,2
		c-0.1,0.1-0.3,0.2-0.4,0.3v-4.9c0.3,0.2,0.5,0.3,0.8,0.4c0.3,0,0.6-0.1,0.9-0.4c0.2-0.2,0.3-0.5,0.3-0.8c-0.1-0.3-0.3-0.7-0.7-1.1
		l-1.2-1.2v-2.4l0.1,0.1l2.7,2.7C222.4,560.7,222.6,561,222.8,561.3 M222.8,564.1v-2.8c0.3,0.4,0.4,0.8,0.5,1.2
		C223.3,563.1,223.2,563.6,222.8,564.1 M226.3,570.8v3l-1.3,1.3l1.2,1.2l0,0v2.2c-0.4-0.2-0.7-0.5-1.1-0.8l-2.2-2.2l-0.3-0.3v-0.9
		L226.3,570.8z M226.3,564.6v2.6l-3.5,3.5v-3l3.3-3.3L226.3,564.6z M226.3,567.2v-2.6l0.5,0.5l0.7,0.7L226.3,567.2z M231.5,580.9
		v2.8c-0.2-0.5-0.3-1-0.2-1.6C231.3,581.7,231.4,581.3,231.5,580.9 M231.5,574.3v3.3c-1,0.9-2,1.4-3,1.5c-0.8,0.1-1.5-0.1-2.2-0.5
		v-2.2c0.6,0.6,1.2,0.8,1.9,0.7c0.7-0.1,1.5-0.6,2.3-1.4C231,575.2,231.3,574.8,231.5,574.3 M231.5,569.9v2.6
		c-0.1-0.2-0.3-0.4-0.5-0.6l-1.4-1.4l-3.4,3.4v-3l3.1-3.1l0.7,0.7L231.5,569.9z M232.5,579.1v6.3c-0.5-0.5-0.8-1.1-1-1.7v-2.8
		C231.7,580.3,232.1,579.7,232.5,579.1 M232.5,570.9v5.7c-0.2,0.2-0.3,0.4-0.5,0.5c-0.2,0.2-0.4,0.3-0.5,0.5v-3.3
		c0.1-0.2,0.2-0.5,0.2-0.7c0.1-0.4,0-0.8-0.2-1.2v-2.6l0.9,0.9L232.5,570.9z M233.5,578.1v3.3c-0.1,0.3-0.2,0.6-0.3,0.9
		c-0.1,0.5,0,1,0.3,1.4v2.6c-0.3-0.2-0.5-0.4-0.8-0.6l-0.2-0.2v-6.3c0.2-0.2,0.3-0.4,0.5-0.6C233.2,578.4,233.4,578.3,233.5,578.1
		 M233.5,572.3v2.7c-0.2,0.5-0.5,1-1,1.6v-5.7C233,571.3,233.3,571.8,233.5,572.3 M233.5,575v-2.7c0.2,0.5,0.3,1,0.3,1.5
		C233.8,574.2,233.7,574.6,233.5,575 M233.5,586.3v-2.6c0.1,0.2,0.3,0.5,0.5,0.7c0.6,0.6,1.3,0.9,2.1,0.8c0.8-0.1,1.5-0.5,2.3-1.3
		c0.8-0.8,1.2-1.6,1.3-2.3c0.1-0.8-0.1-1.5-0.8-2.1c-0.6-0.6-1.3-0.9-2.1-0.7c-0.8,0.1-1.6,0.5-2.4,1.3c-0.5,0.5-0.8,0.9-1,1.4v-3.3
		c1-0.9,2.1-1.3,3.2-1.4c1.3-0.1,2.5,0.4,3.5,1.5c1,1,1.5,2.2,1.5,3.5c-0.1,1.3-0.7,2.5-1.8,3.7c-1.1,1.1-2.3,1.7-3.6,1.8
		C235.3,587.2,234.4,586.9,233.5,586.3"/>
</g>
<g id="XMLID_7622_">
	<path d="M116.4,526.4h-5.9c-3,0-5.4,2.4-5.4,5.4v5.9l54,54h5.9c3,0,5.4-2.4,5.4-5.4v-5.9L116.4,526.4z"/>
</g>
<g id="XMLID_7600_">
	<g id="XMLID_7619_">
		<path class="st0" d="M118.3,540c0.8,0,1.6-0.3,2.4-1.1c0.7-0.7,1.1-1.5,1-2.3c0-0.8-0.5-1.6-1.3-2.4l-2.2-2.2l-0.6-0.6l-0.2-0.2
			l-7.1,7.1l0.7,0.7l0.7,0.7l2.5-2.5c0.4,0.4,0.9,0.9,1.5,1.5c0.6,0.6,1.2,1,1.7,1.1C117.8,540,118,540,118.3,540z M116.8,537.3
			l-1.2-1.2l2-2l0.1-0.1l1.2,1.2c0.4,0.4,0.6,0.8,0.7,1.2c0,0.4-0.1,0.7-0.4,1.1c-0.4,0.4-0.7,0.5-1.1,0.5c-0.1,0-0.3,0-0.4-0.1
			C117.3,537.7,117.1,537.6,116.8,537.3z"/>
	</g>
	<g id="XMLID_7616_">
		<path class="st0" d="M127.7,546.5c0.2-0.1,0.4-0.3,0.6-0.5c0.2-0.2,0.3-0.3,0.4-0.5c0.3-0.5,0.4-1,0.4-1.6c0-0.5-0.2-0.9-0.4-1.3
			c-0.2-0.3-0.4-0.6-0.7-0.9l-0.3-0.3l-2.5-2.5l-0.2-0.2l-0.5-0.5l-6.8,6.8l-0.2,0.2l0.2,0.2l0.5,0.5l0.7,0.7l2.8-2.8l1.5,1.5
			c0.4,0.4,0.7,0.8,0.7,1.1c0,0.3-0.1,0.6-0.4,1l-0.6,0.7c-0.3,0.3-0.5,0.6-0.7,0.8c-0.2,0.3-0.3,0.5-0.4,0.6l1.6,1.6l0.2-0.2
			c-0.1-0.2-0.1-0.3,0-0.5c0.1-0.1,0.2-0.3,0.4-0.6l1-1.1l0.1-0.1c0.6-0.6,0.7-1.2,0.6-1.8c0-0.1-0.1-0.2-0.1-0.3
			c0.2,0.1,0.4,0.2,0.6,0.2C126.7,546.9,127.2,546.8,127.7,546.5z M124.9,544.9c-0.1-0.1-0.3-0.2-0.4-0.3l-1.7-1.7l1.9-1.9l0.2,0.2
			l1.5,1.5c0.4,0.4,0.6,0.7,0.6,1c0,0.3-0.1,0.7-0.4,1c-0.3,0.3-0.6,0.5-1,0.4C125.4,545.1,125.2,545,124.9,544.9z"/>
	</g>
	<g id="XMLID_7613_">
		<path class="st0" d="M164.8,578.2c-1-1-2.2-1.5-3.5-1.5c-1.1,0.1-2.2,0.5-3.2,1.4c-0.2,0.1-0.3,0.3-0.5,0.4
			c-0.2,0.2-0.4,0.4-0.5,0.6c-0.5,0.6-0.8,1.2-1,1.8c-0.1,0.4-0.2,0.8-0.2,1.3c0,0.5,0.1,1.1,0.2,1.6c0.2,0.6,0.5,1.1,1,1.7l0.2,0.2
			c0.2,0.2,0.5,0.5,0.8,0.6c0.8,0.6,1.8,0.9,2.7,0.8c1.3-0.1,2.5-0.6,3.6-1.8c1.2-1.2,1.8-2.4,1.8-3.7
			C166.3,580.4,165.8,579.3,164.8,578.2z M162.9,583.9c-0.8,0.8-1.5,1.2-2.3,1.3c-0.8,0.1-1.5-0.2-2.1-0.8c-0.2-0.2-0.4-0.4-0.5-0.7
			c-0.2-0.4-0.3-0.9-0.3-1.4c0-0.3,0.1-0.6,0.3-0.9c0.2-0.5,0.6-0.9,1-1.4c0.8-0.8,1.6-1.2,2.3-1.3c0.8-0.1,1.5,0.1,2.1,0.7
			c0.6,0.6,0.9,1.3,0.8,2.1C164.2,582.3,163.7,583.1,162.9,583.9z"/>
	</g>
	<g id="XMLID_7610_">
		<path class="st0" d="M156.6,577.1c0.2-0.2,0.3-0.4,0.5-0.5c0.4-0.5,0.8-1,1-1.6c0.2-0.4,0.3-0.8,0.3-1.2c0-0.5-0.1-1-0.3-1.5
			c-0.2-0.5-0.5-1-1-1.4l-0.1-0.1l-0.9-0.9l-1.4-1.4l-0.7-0.7l-3.1,3.1l-3.5,3.5l-0.5,0.5l0.5,0.5l0.3,0.3l2.2,2.2
			c0.3,0.3,0.7,0.6,1.1,0.8c0.7,0.4,1.4,0.6,2.2,0.5c1-0.1,2-0.6,3-1.5C156.2,577.5,156.4,577.3,156.6,577.1z M155.1,575.7
			c-0.8,0.8-1.6,1.3-2.3,1.4c-0.7,0.1-1.3-0.1-1.9-0.7l0,0l-1.2-1.2l1.3-1.3l3.4-3.4l1.4,1.4c0.2,0.2,0.4,0.4,0.5,0.6
			c0.2,0.4,0.3,0.8,0.2,1.2c0,0.2-0.1,0.5-0.2,0.7C155.9,574.8,155.5,575.2,155.1,575.7z"/>
	</g>
	<g id="XMLID_7607_">
		<path class="st0" d="M134.8,555.9L134.8,555.9c0.8-0.8,1.3-1.6,1.6-2.4c0.2-0.4,0.2-0.9,0.3-1.3c0-0.6-0.1-1.2-0.3-1.7
			c-0.2-0.6-0.6-1.2-1.2-1.8c-0.1-0.1-0.3-0.3-0.4-0.4c-0.3-0.3-0.6-0.5-1-0.6c-0.7-0.3-1.3-0.5-2.1-0.4c-1.1,0.1-2.1,0.5-3.1,1.3
			c-0.2,0.2-0.4,0.3-0.6,0.5c-0.1,0.1-0.3,0.3-0.4,0.4c-0.9,1-1.3,2.1-1.4,3.2c-0.1,1.2,0.4,2.4,1.4,3.4l0.1,0.1
			c0.3,0.3,0.6,0.5,0.9,0.7c0.8,0.5,1.7,0.8,2.6,0.8c0.9,0,1.7-0.3,2.6-0.9C134.2,556.5,134.5,556.2,134.8,555.9z M133.4,554.4
			c-0.8,0.8-1.5,1.2-2.3,1.3c-0.8,0.1-1.5-0.2-2.1-0.8c-0.1-0.1-0.3-0.3-0.4-0.4c-0.3-0.5-0.5-1-0.4-1.6c0-0.4,0.2-0.8,0.4-1.2
			c0.2-0.4,0.5-0.8,0.9-1.1c0.8-0.8,1.6-1.2,2.3-1.3c0.7-0.1,1.3,0.1,1.9,0.6l0.2,0.2c0.6,0.6,0.9,1.3,0.8,2.1
			c-0.1,0.6-0.4,1.3-0.9,1.9C133.7,554.1,133.6,554.2,133.4,554.4z"/>
	</g>
	<g id="XMLID_7606_">
		<polygon class="st0" points="150.9,567.2 152.1,566 151.4,565.2 150.9,564.7 150.7,564.5 147.3,567.8 143.8,571.3 143.6,571.6 
			143.8,571.8 144.3,572.3 145.1,573 147.3,570.8 		"/>
	</g>
	<g id="XMLID_7605_">
		<polygon class="st0" points="141,555.7 141.4,555.2 141,554.8 140.7,554.5 139.9,553.8 136.4,557.3 134.8,558.9 133.8,559.9 
			132.9,560.8 133.6,561.6 133.8,561.8 134.4,562.3 134.8,561.9 136.4,560.2 		"/>
	</g>
	<g id="XMLID_7601_">
		<path class="st0" d="M144.2,567.8c0.6-0.6,0.8-1.3,0.7-2c0-0.2-0.1-0.4-0.2-0.7c0.1,0,0.3,0.1,0.4,0.1c0.7,0.1,1.4-0.1,2-0.7
			c0.1-0.1,0.2-0.2,0.3-0.3c0.4-0.5,0.5-1,0.5-1.6c0-0.4-0.2-0.8-0.5-1.2c-0.2-0.3-0.4-0.6-0.7-0.8l-2.7-2.7l-0.1-0.1l-0.6-0.6
			l-0.7,0.7l-1.5,1.5l-4.5,4.5l-0.3,0.3l0.3,0.3l0.4,0.4l2.5,2.5c0.5,0.5,1.1,0.9,1.6,1.2c0.3,0.1,0.6,0.2,0.9,0.2
			c0.2,0,0.4,0,0.6,0c0.5-0.1,0.9-0.3,1.3-0.6C144,568,144.1,567.9,144.2,567.8z M142.8,566.3c-0.1,0.1-0.2,0.2-0.3,0.2
			c-0.3,0.2-0.5,0.3-0.8,0.3c-0.2,0-0.5-0.1-0.7-0.3c-0.1-0.1-0.2-0.2-0.4-0.3l-1.8-1.8l1.9-1.9l0.3,0.3l1.5,1.5l0.1,0.1
			c0.4,0.4,0.6,0.7,0.6,1.1C143.2,565.6,143.1,566,142.8,566.3z M143.6,562.9l-1.1-1.1l-0.6-0.6l0.6-0.6l0.9-0.9l0.4,0.4l1.2,1.2
			c0.4,0.4,0.6,0.7,0.7,1.1c0.1,0.3,0,0.6-0.3,0.8c-0.3,0.3-0.6,0.4-0.9,0.4c-0.2,0-0.5-0.2-0.8-0.4
			C143.7,563.1,143.7,563,143.6,562.9z"/>
	</g>
</g>
<g id="XMLID_1_">
	<path class="st0" d="M41.8,442.7h18.9v3.6H47.5v5.4h11v3.6h-11v6h13.1v3.6H41.8V442.7z"/>
	<path class="st0" d="M74.7,450.6l5.9-7.9h6.5l-9,11.3l9,11.1h-6.5l-5.9-7.8l-6,7.8h-6.5l9.1-11.1l-9.1-11.3h6.5L74.7,450.6z"/>
	<path class="st0" d="M87.6,442.7h22.1v3.6h-8.1v18.7h-5.7v-18.7h-8.2V442.7z"/>
	<path class="st0" d="M112.5,442.7h5.7v22.4h-5.7V442.7z"/>
	<path class="st0" d="M122.9,442.7h6.7l8.9,14.6v-14.6h5.7v22.4h-6.7l-8.9-14.6v14.6h-5.7V442.7z"/>
	<path class="st0" d="M146.6,442.7h22.1v3.6h-8.1v18.7h-5.7v-18.7h-8.2V442.7z"/>
	<path class="st0" d="M193.8,453.5c0,7.6-2.2,11.8-11.4,11.8c-9,0-11.6-3.6-11.6-11.9c0-7.8,3.7-11,11.6-11
		C189.6,442.4,193.8,445.8,193.8,453.5z M188,453.5c0-5.6-2.2-7.5-5.6-7.5c-4.3,0-5.8,1.4-5.8,7.4c0,6.4,1,8.2,5.8,8.2
		C187.2,461.7,188,459.5,188,453.5z"/>
	<path class="st0" d="M208,456.9H204v8.2h-5.7v-22.4h11.1c6,0,9.6,2.4,9.6,7c0,2.9-1.2,5.3-4.5,6.4l6,9h-6.3l-5.5-8.2L208,456.9z
		 M209.3,453.2c3.1,0,3.8-1,3.8-3.6c0-2.6-0.8-3.3-3.8-3.3H204v6.9H209.3z"/>
	<path class="st0" d="M235.4,465.1v-22.4h11.4c8,0,10.5,5.7,10.5,10.9c0,5.2-2.4,11.5-10.5,11.5L235.4,465.1z M246.8,461.4
		c3.3,0,4.7-3.9,4.7-7.8c0-3.9-1.4-7.3-4.7-7.3h-5.7v15.1H246.8z"/>
	<path class="st0" d="M261.7,442.7h18.9v3.6h-13.1v5.4h11v3.6h-11v6h13.1v3.6h-18.9V442.7z"/>
	<path class="st0" d="M301.8,457.8v7.2h-5.7v-22.4h11.2c6.4,0,9.5,2.6,9.5,7.3c0,4.6-3,7.9-9.5,7.9H301.8z M307.3,454.2
		c2.7,0,3.7-1.3,3.7-4.2c0-2.8-0.8-3.6-3.7-3.6h-5.5v7.9H307.3z"/>
	<path class="st0" d="M343.5,453.5c0,7.6-2.2,11.8-11.4,11.8c-9,0-11.6-3.6-11.6-11.9c0-7.8,3.7-11,11.6-11
		C339.3,442.4,343.5,445.8,343.5,453.5z M337.8,453.5c0-5.6-2.2-7.5-5.6-7.5c-4.3,0-5.8,1.4-5.8,7.4c0,6.4,1,8.2,5.8,8.2
		C336.9,461.7,337.8,459.5,337.8,453.5z M332.1,436h5l-5.6,4.5h-4.4L332.1,436z"/>
	<path class="st0" d="M359.6,465.1v-22.4H371c8,0,10.5,5.7,10.5,10.9c0,5.2-2.4,11.5-10.5,11.5L359.6,465.1z M371,461.4
		c3.3,0,4.7-3.9,4.7-7.8c0-3.9-1.4-7.3-4.7-7.3h-5.7v15.1H371z"/>
</g>
<g id="XMLID_18_">
	<g id="XMLID_19_">
		<path d="M353.6,574.2c0,1.3,1,1.6,1.6,1c0.2-0.2,0.3-0.6,0.3-1h-0.3H353.6z"/>
	</g>
	<g id="XMLID_27_">
		<path d="M350.9,574.2c0,0.7,0.3,1.1,0.7,1.3c0.6,0.2,1.2-0.3,1.2-1.3h-1.2H350.9z"/>
	</g>
	<g id="XMLID_28_">
		<path d="M348.2,574.2c0,0.2,0,0.4,0.1,0.6c0.4,1.1,1.9,0.9,1.9-0.6H348.2L348.2,574.2z"/>
	</g>
	<g id="XMLID_29_">
		<path d="M356.3,574.2c0,1.1,0.7,1.5,1.3,1.2c0.4-0.1,0.7-0.6,0.7-1.2h-0.7H356.3z"/>
	</g>
	<g id="XMLID_30_">
		<path d="M359,574.2c0,0.9,0.5,1.3,1,1.3c0.5,0,1-0.4,1-1.3h-1H359z"/>
	</g>
	<g id="XMLID_38_">
		<path d="M394.7,528.2c-1.1-1.1-2.6-1.8-4.3-1.8h-20.7h-1.5h-2h-3.4H360h-1.1h-1.3h-2.4h-3.6h-3.4h-4.5h-6.5
			c-1.7,0-3.2,0.7-4.3,1.8h0c-1.1,1.1-1.8,2.6-1.8,4.3v53.1c0,1.7,0.7,3.2,1.8,4.3v0c1.1,1.1,2.6,1.8,4.3,1.8h6.5h4.5h3.4h0h3.6h2.4
			h1.3h0h1.1h2.7h3.4h2h1.5h8.6h12c1.7,0,3.2-0.7,4.3-1.8l0,0c1.1-1.1,1.8-2.6,1.8-4.3v-53.1C396.4,530.8,395.8,529.3,394.7,528.2z
			 M375.1,560.8c0.8-0.1,1.4-0.8,2-1c0,1.6-0.6,2.2,1.4,1.7c-0.4,3.2-2.5,4.8-5.2,6.4c0-0.7,2-2.8,1.2-2.8c-1.5-0.1-1.8-1.1-1.6-1.9
			c-1.5,0.6-2,1.3-3.3,1.2l0,0l0-0.1c1-1.6,3.1-3.7,4.3-5.2C374.4,559.5,374.3,560.9,375.1,560.8z M371.5,575.3l-1.8,2l-1.5,1.6
			l-2,2.2l-0.6,0.6H364h-1.2H360h-1.1h0h-1.3h-2.4h-2h-1.5l-0.1-0.1l-3.4-3.7l-2.4-2.6c0.6,0.5,1.5,0.1,1.5-1.1h-1.7l1-3.9h1.6h3.4
			h3.6h2.4h1.3h1.1h2.7h3.4h2h1.5h1l1,3.9h-1.7C369.9,575.4,370.9,575.8,371.5,575.3z M347.8,565.3c0.1,0,0.3,0.1,0.4,0.1
			c0.5,0.2,0.8,0.4,1,0.8c0.7,0.9,0.6,2.2-0.5,2.9l-0.5,0c-1.7-0.1-2.8-0.5-2.9-2.1l2.6-0.1L347.8,565.3z M350.7,565.3l0.9,0.8
			l0.6,0.5l1.2-1.4l1.5,0.2c0.6,1.9-0.3,3.8-1.7,3.8c-0.6-0.3-1.2-0.7-1.6-1.2c-0.6-0.6-1-1.2-1.1-1.7
			C350.3,565.8,350.4,565.5,350.7,565.3z M358.9,563.7c-0.5-0.4-0.9-1-1-1.5c-0.1,0.1-0.2,0.2-0.2,0.2c-0.5,0.6-0.6,1.1-1.5,1
			c-0.1-1.6,0.3-2.7,0.4-4.2c0.3,0.2,0.7,1,1.1,1.3c0.2,0.2,0.3,0.3,0.5,0.2c0.4-0.1,0.6-0.6,0.8-0.8c0-0.1,0.1-0.1,0.2-0.1
			c0.5,0.9,0.6,1.6,1,1.8c0.2,0.2,0.5,0.1,0.9-0.1c1.4,3.2,0.7,3.8-0.4,5.4c-0.3-0.6,0-2.6-0.5-2.8c0,0,0,0-0.1,0
			C359.6,564,359.2,563.9,358.9,563.7z M358.9,569c-0.2,0.1-0.4,0.1-0.7,0.1c-0.2-0.1-0.4-0.3-0.6-0.5c-0.8-1-1.3-2.6-1.3-3.4
			c0-0.5,0.2-0.8,0.6-0.9l0.7,1.6l0,0.1l0.5-1.5l0.7,1.5l0.1,0l0.7,0.1C360.3,567.5,359.9,568.7,358.9,569z M362.7,566.3
			L362.7,566.3c0.1-0.5,0.4-0.8,0.8-0.9l0.8,1.2l1.9-1.3l0.1-0.1l1.4,0.2c-0.3,0.9-0.8,1.8-1.5,2.5c-0.8,0.7-1.6,1.3-2.3,1.3
			c-0.6-0.4-0.9-1-1.1-1.7C362.6,567.1,362.6,566.6,362.7,566.3z M369.7,569.2l-0.5,0c-1.1-0.7-1.2-2-0.5-2.9c0.3-0.3,0.6-0.6,1-0.8
			c0.1-0.1,0.3-0.1,0.5-0.2L370,567l1.7-1.5l-0.1,1.5l1,0.1C372.5,568.7,371.4,569.1,369.7,569.2z M366.2,556.9c1-1.8,2-3.8,1.1-7.2
			c-0.3-1.1-0.9-3,1-4.7c0.3-0.3,0.7-0.6,1.2-0.8c-0.7,1.4-0.3,2.6,0.3,3.6c0.1,0.2,0.3,0.4,0.4,0.6c1.1,1.7,1.1,4-0.4,6.2
			c-0.4,0.5-0.9,1.1-1.5,1.6c-0.6,0.5-1.2,0.9-2,1.3c-0.2,0.1-0.4,0.2-0.6,0.3C365.8,557.5,366,557.2,366.2,556.9z M366.2,561.3
			c0.6-0.6,1.3-1.4,1.8-1.4c-0.1,0.8,0.1,1.3,0.3,1.5c0.3,0.3,0.7,0.2,1.1,0c0.3,1,0.2,1.5-1.1,3l-0.1,0.1c-0.2-1-1.3-0.1-2-0.2
			c-0.2,0-0.4-0.2-0.4-0.6c-0.9,0.6-1.9,0.7-2.9,0.6c0.3-1.6,0.8-3.1,1.2-4.6c0.7,0.7,0.8,1.2,1.3,1.9
			C365.6,561.8,365.9,561.5,366.2,561.3z M357.6,533.8c0.3-0.6,0.7-1.2,1.3-1.9c0.3-0.3,0.6-0.7,0.9-1.1c-0.5,1.9-0.4,3.2,0.2,4.2
			c0.6,1,1.6,1.8,2.7,2.8l0,0c2.7,2.4,2.9,6.2,0,9.4c-0.7,0.8-1.6,1.5-2.7,2.2l-0.2,0.1l0.2-0.4c1.2-2.4,3.1-6.1,0-9.1l-0.1-0.1
			c-0.4-0.4-0.7-0.7-1-1c-0.6-0.6-1-1.2-1.3-1.7C357.1,536.1,357,535.1,357.6,533.8z M354.1,545.5c0.5-0.6,0.9-0.9,1.1-1.3
			c0.4-0.5,0.6-1,0.8-1.9c0.8,0.7,1.3,1.3,1.6,1.9c0.7,1.2,0.5,2,0,3c-0.1,0.2-0.2,0.5-0.4,0.7c-2.3,4.5-1.5,6.7-0.8,8.9
			c-0.5-0.3-0.9-0.6-1.2-1C351.7,552.7,351.7,548.2,354.1,545.5z M352,559.9c1,2,1.8,1.8,2.2,1.5c0.9,1,1.1,1.5,0.6,3.1
			c-1.1-1.4-1.8,0.8-2.8-0.7c-0.1,0.2-0.3,0.3-0.4,0.4c-0.5,0.3-1.3,0.3-2.1,0.3c-0.6-1.5-0.9-2.8-1.3-4.2l-0.1-0.3l0.1,0.1
			c1.1,0.7,1.4,1.1,2.4,1.9c0.3-0.1,0.6-1.3,1-1.7C351.7,560,351.9,559.9,352,559.9z M346.6,544.9c0.7-1.3,1.5-3.1,0.6-5.1
			c0.4,0.3,0.7,0.5,1,0.8c2.1,2,1.5,4.5,1.2,5.8c-1.1,4.8,0.5,7.3,1.6,9.8c-1.1-0.6-2.1-1.4-2.8-2.2
			C345.5,551.1,345.3,547.4,346.6,544.9z M339.1,560.8c1.7,0.4,2.3,0.9,4,1.1c0.2-0.4,0.4-0.7,0.6-1.1c0.3-0.4,0.6-0.9,1-1.3
			c1.2,1.5,2.5,3.1,3.5,4.7l0.1,0.2l-0.1,0c-1.4,0.1-2.8,0-4.3-0.6c0.5,1.5,0.6,2.7,0.7,4.1c-0.3-0.2-0.6-0.4-0.9-0.6
			C341.5,565.8,339.5,563.6,339.1,560.8z M394.8,585.6c0,0.6-0.1,1.2-0.3,1.7h-16.2h-8.6h-1.5h-2h-3.4H360h-1.1h0h-1.3h-2.4h-3.6h0
			h-3.4h-3.7v-4.6h3.7h3.4h1.6h2h2.4h1.3h0h1.1h2.7h1.2h2.2h2h1.5h25.2V585.6z"/>
	</g>
	<g id="XMLID_66_">
		<path d="M361.8,574.2c0,0.9,0.5,1.3,1,1.3c0.5,0,1-0.4,1-1.3h-1H361.8z"/>
	</g>
	<g id="XMLID_67_">
		<path d="M367.2,574.2c0,0.9,0.5,1.3,1,1.3c0.5,0,1-0.4,1-1.3h-1H367.2z"/>
	</g>
	<g id="XMLID_68_">
		<path d="M364.5,574.2c0,1.3,1.1,1.6,1.7,1c0.2-0.2,0.3-0.5,0.3-1h-0.3H364.5z"/>
	</g>
</g>
<g id="XMLID_7753_">
	<g id="XMLID_7758_">
		<path class="st0" d="M334.9,526.8c0.7-0.3,1.4-0.4,2.2-0.4h-0.6c-0.6,0-1.1,0.1-1.6,0.2c-2.2,0.7-3.8,2.7-3.8,5.2v0.6
			c0-1.7,0.7-3.2,1.8-4.3C333.5,527.6,334.2,527.1,334.9,526.8z"/>
	</g>
	<g id="XMLID_7757_">
		<path class="st0" d="M394.6,589.9L394.6,589.9c-0.6,0.6-1.3,1.1-2.1,1.4c-0.7,0.3-1.5,0.4-2.2,0.4h0.7c0.5,0,1.1-0.1,1.6-0.2
			c2.2-0.7,3.9-2.8,3.9-5.2v-0.7C396.4,587.3,395.8,588.8,394.6,589.9z"/>
	</g>
	<g id="XMLID_7756_">
		<path class="st0" d="M392.6,589.5c0.3-0.2,0.7-0.4,0.9-0.7v0c0.8-0.8,1.3-1.9,1.3-3.2v-6.8l-2.3-2.3L344.1,528h-6.8
			c-0.8,0-1.6,0.2-2.3,0.6c-0.3,0.2-0.6,0.4-0.9,0.7c-0.8,0.8-1.3,1.9-1.3,3.2v6.8l2.2,2.2l48.5,48.5h6.8
			C391.1,590.1,391.9,589.9,392.6,589.5z"/>
	</g>
</g>
<g id="XMLID_7716_">
	<g id="XMLID_7750_">
		<path d="M343.5,539.7c0.4,0.1,0.8,0.1,1.1,0c0.4-0.1,0.8-0.2,1.1-0.4c0.3-0.2,0.5-0.4,0.7-0.5c1.5-1.5,1.5-3,0.1-4.4l-3-3
			l-0.1-0.1l-7.1,7.1l1.4,1.4l2.5-2.5l1.6,1.6c0.5,0.5,0.9,0.8,1.4,0.9L343.5,539.7z M341.5,536l2-2l0.1-0.1l1.1,1.1
			c0.9,0.8,1,1.6,0.3,2.2c-0.1,0.1-0.2,0.2-0.3,0.3c-0.1,0.1-0.3,0.2-0.5,0.2c-0.2,0.1-0.4,0-0.6,0l-0.1,0c-0.2-0.1-0.4-0.2-0.6-0.5
			L341.5,536z"/>
	</g>
	<g id="XMLID_7747_">
		<path d="M352.7,546.6c0.3-0.1,0.5-0.2,0.8-0.3c0.2-0.1,0.4-0.3,0.5-0.4c0.1-0.1,0.2-0.2,0.3-0.3c0.1-0.1,0.1-0.2,0.2-0.3l0.1-0.1
			c0.2-0.3,0.3-0.6,0.4-1c0.1-0.4,0-0.8-0.1-1.2c-0.1-0.2-0.2-0.4-0.3-0.6c-0.2-0.2-0.4-0.5-0.6-0.7l-0.4-0.4l-2.7-2.7l-0.4-0.4
			l-6.9,6.9l-0.2,0.2l0.2,0.2l1.2,1.2l2.8-2.8l1.5,1.5c0.3,0.3,0.5,0.5,0.6,0.7c0.1,0.2,0.1,0.4,0.1,0.6c0,0.2-0.1,0.4-0.3,0.6
			c-0.2,0.2-0.4,0.4-0.6,0.6c-0.4,0.4-0.6,0.7-0.8,0.9c-0.2,0.2-0.4,0.5-0.5,0.7l1.6,1.6l0.2-0.2c-0.1-0.2-0.1-0.4,0.1-0.6
			c0.2-0.2,0.5-0.6,1-1.1c0.2-0.2,0.3-0.3,0.4-0.5c0.1-0.1,0.2-0.3,0.3-0.4c0.2-0.2,0.3-0.5,0.3-0.7c0.1-0.2,0.1-0.4,0-0.6
			c0-0.2-0.1-0.4-0.2-0.6C351.7,546.7,352.2,546.8,352.7,546.6z M350.8,544.8c-0.1-0.1-0.3-0.2-0.4-0.4l-1.7-1.7l1.9-1.9l0.2,0.2
			l1.6,1.6c0.2,0.2,0.4,0.4,0.4,0.6c0.1,0.2,0.1,0.4,0.1,0.5c0,0.2-0.1,0.3-0.1,0.5c-0.1,0.1-0.2,0.2-0.3,0.3
			C351.9,545.1,351.4,545.2,350.8,544.8z"/>
	</g>
	<g id="XMLID_7744_">
		<path d="M360.5,555.4L360.5,555.4c0.8-0.8,1.4-1.6,1.6-2.4l0-0.1c0.2-0.7,0.3-1.3,0.2-1.9c0-0.2-0.1-0.4-0.2-0.7
			c-0.1-0.3-0.2-0.7-0.4-0.9c-0.3-0.4-0.6-0.8-0.8-1c-0.1-0.1-0.3-0.2-0.4-0.4c-0.2-0.1-0.4-0.3-0.6-0.4c-0.1-0.1-0.3-0.1-0.4-0.2
			c-0.4-0.2-0.8-0.3-1.2-0.4c-0.6-0.1-1.3,0-2,0.2c-0.6,0.2-1.2,0.6-1.8,1.1c-0.2,0.2-0.4,0.3-0.6,0.5c-0.1,0.1-0.3,0.3-0.4,0.4
			c-0.6,0.7-1,1.3-1.2,1.9c-0.3,0.7-0.3,1.4-0.2,2c0.1,0.6,0.3,1.1,0.6,1.6c0.3,0.5,0.5,0.8,0.8,1l0,0c0.2,0.2,0.6,0.5,1,0.7l0,0
			c0.4,0.3,1,0.5,1.6,0.6c0.6,0.1,1.3,0,2-0.2c0.5-0.1,0.9-0.4,1.4-0.8C359.9,556,360.2,555.7,360.5,555.4z M359.1,554
			c-0.5,0.5-1,0.8-1.4,1c-0.4,0.2-0.8,0.3-1.2,0.3c-0.4,0-0.7-0.1-1-0.2c-0.3-0.1-0.5-0.3-0.7-0.5c-0.1-0.1-0.2-0.2-0.3-0.3
			c-0.1-0.1-0.2-0.3-0.2-0.4c-0.1-0.3-0.2-0.6-0.2-1c0-0.4,0.1-0.8,0.3-1.2c0-0.1,0.1-0.2,0.2-0.3c0.2-0.4,0.5-0.7,0.9-1.1
			c0.5-0.5,1-0.8,1.4-1c0.4-0.2,0.9-0.3,1.2-0.3c0.4,0,0.7,0.1,1,0.2c0.2,0.1,0.4,0.2,0.6,0.4l0.1,0.1c0.2,0.2,0.4,0.4,0.5,0.7
			c0.1,0.3,0.2,0.6,0.2,1c0,0.4-0.1,0.8-0.3,1.2c-0.1,0.3-0.3,0.6-0.6,0.9C359.4,553.6,359.2,553.8,359.1,554z"/>
	</g>
	<g id="XMLID_7741_">
		<path d="M382.2,576.8c0.2-0.2,0.4-0.4,0.6-0.7c0.1-0.2,0.3-0.3,0.4-0.5c0.3-0.4,0.4-0.8,0.6-1.2c0-0.1,0.1-0.2,0.1-0.3
			c0.1-0.5,0.1-1.1,0-1.7c0-0.1-0.1-0.2-0.1-0.3c-0.2-0.5-0.5-0.9-1-1.4l0,0l-1-1l-2.1-2.1l-3.1,3.1l-3.5,3.5l-0.4,0.4l0.4,0.4
			l2.6,2.6c0.3,0.3,0.6,0.6,1,0.7c0.3,0.1,0.5,0.3,0.8,0.3c0.6,0.1,1.2,0.1,1.8,0c0.6-0.2,1.1-0.4,1.7-0.8c0.3-0.2,0.7-0.5,0.9-0.7
			C381.9,577,382.1,576.9,382.2,576.8z M381.7,574c-0.2,0.4-0.6,0.9-1.1,1.4c-0.6,0.6-1.2,1-1.9,1.3c-0.7,0.3-1.4,0.1-2-0.5
			l-0.1-0.1l-1.3-1.3l1.3-1.3l3.3-3.3l1.4,1.4c0.2,0.2,0.3,0.3,0.5,0.6l0,0.1c0.1,0.2,0.2,0.4,0.2,0.7c0,0.3,0,0.5-0.2,0.9
			L381.7,574z"/>
	</g>
	<g id="XMLID_7737_">
		<path d="M391.8,580.5c-0.1-0.6-0.3-1.1-0.6-1.6c-0.3-0.4-0.6-0.8-0.8-1c-0.2-0.2-0.6-0.5-1-0.8c-0.5-0.3-1-0.5-1.6-0.6
			c-0.6-0.1-1.3,0-2,0.2c-0.7,0.2-1.4,0.6-2.1,1.3l-0.3,0.3c-0.2,0.2-0.5,0.5-0.7,0.7c-0.4,0.6-0.8,1.1-0.9,1.6l-0.1,0.2
			c-0.2,0.7-0.2,1.3-0.1,1.8c0,0.2,0.1,0.4,0.1,0.6c0.1,0.4,0.3,0.7,0.4,1c0.2,0.3,0.4,0.6,0.5,0.8c0.1,0.1,0.2,0.2,0.2,0.2
			c0.2,0.2,0.4,0.4,0.7,0.6c0.1,0.1,0.2,0.1,0.3,0.2c0.4,0.3,1,0.5,1.6,0.6c0.6,0.1,1.3,0,2-0.2c0.7-0.2,1.5-0.8,2.4-1.6
			c0.8-0.8,1.4-1.6,1.6-2.4C391.9,581.8,392,581.1,391.8,580.5z M389.7,582.1c-0.2,0.4-0.6,0.9-1.1,1.4c-0.5,0.5-1,0.8-1.4,1
			c-0.4,0.2-0.8,0.3-1.2,0.3c-0.4,0-0.7-0.1-1-0.2c-0.3-0.1-0.5-0.3-0.7-0.5c-0.2-0.2-0.4-0.4-0.5-0.7l0,0c-0.1-0.3-0.2-0.6-0.2-1
			c0-0.3,0.1-0.6,0.2-1l0.1-0.2c0.2-0.5,0.5-0.9,1-1.4c0.5-0.5,1-0.8,1.4-1c0.4-0.2,0.9-0.3,1.2-0.3c0.4,0,0.7,0.1,1,0.2
			c0.3,0.1,0.5,0.3,0.7,0.5c0.2,0.2,0.4,0.4,0.5,0.7c0.1,0.3,0.2,0.6,0.2,1C390,581.2,389.9,581.7,389.7,582.1z"/>
	</g>
	<g id="XMLID_7735_">
		<polygon points="376.6,567 377.9,565.7 376.6,564.4 376.5,564.3 373,567.7 369.5,571.2 369.4,571.4 369.5,571.5 370.8,572.8 
			373,570.6 		"/>
	</g>
	<g id="XMLID_7718_">
		<path d="M369.7,567.5c0.4-0.4,0.6-0.8,0.8-1.2c0.2-0.5,0.1-1-0.2-1.6c0.1,0,0.3,0.1,0.4,0.1c0.2,0,0.3,0.1,0.5,0
			c0.2,0,0.4-0.1,0.7-0.2c0.2-0.1,0.5-0.3,0.7-0.5c0.1-0.1,0.3-0.3,0.4-0.5l0.1-0.2c0.1-0.3,0.2-0.6,0.3-0.9c0-0.3,0-0.7-0.2-1.1
			c-0.1-0.1-0.1-0.2-0.2-0.4c-0.2-0.3-0.4-0.6-0.7-0.8l-2.8-2.8l-0.5-0.5l-0.8,0.8l-1.5,1.5l-4.5,4.5l-0.2,0.2l0.2,0.2l2.7,2.7
			c0.7,0.7,1.2,1.1,1.6,1.3l0.2,0.1c0.2,0.1,0.3,0.1,0.4,0.1c0.2,0,0.4,0,0.5,0c0.2,0,0.4,0,0.6-0.1c0.5-0.1,0.9-0.3,1.3-0.7
			L369.7,567.5z M368.8,565.4c-0.1,0.2-0.2,0.3-0.3,0.5c-0.1,0.1-0.1,0.1-0.2,0.2c-0.5,0.4-1,0.4-1.5,0.1c-0.1-0.1-0.3-0.2-0.4-0.3
			l-1.8-1.8l1.9-1.9l0.2,0.2l1.5,1.5l0,0c0.3,0.3,0.4,0.6,0.5,0.9C368.8,565.1,368.8,565.3,368.8,565.4z M369.3,562.7l-1.1-1.1
			l-0.6-0.6l0.6-0.6l1-1l0.4,0.4l1.3,1.3c0.3,0.3,0.5,0.6,0.6,0.9c0.1,0.3,0,0.6-0.3,0.9c-0.3,0.3-0.6,0.4-0.9,0.3
			c-0.2-0.1-0.5-0.2-0.7-0.3C369.5,562.8,369.4,562.8,369.3,562.7z"/>
	</g>
	<g id="XMLID_7717_">
		<polygon points="366.7,555.5 367.2,555 366.7,554.5 365.7,553.6 362.2,557.2 360.5,558.8 359.5,559.8 358.7,560.6 359.5,561.5 
			360.1,562.1 360.5,561.7 362.2,560 		"/>
	</g>
</g>
</svg>
