<?xml version="1.0" encoding="utf-8"?>
<!-- Generator: Adobe Illustrator 19.2.1, SVG Export Plug-In . SVG Version: 6.00 Build 0)  -->
<svg version="1.1" id="Layer_1" xmlns="http://www.w3.org/2000/svg" xmlns:xlink="http://www.w3.org/1999/xlink" x="0px" y="0px"
	 viewBox="0 0 340.2 680.3" style="enable-background:new 0 0 340.2 680.3;" xml:space="preserve">
<style type="text/css">
	.st0{fill:#EDEDED;}
	.st1{fill:#E31019;}
	.st2{fill:#9D9D9C;}
</style>
<rect id="XMLID_9391_" y="0" class="st0" width="340.2" height="680.3"/>
<rect id="XMLID_9390_" x="31.9" y="30.1" class="st1" width="276.8" height="620.1"/>
<polygon id="XMLID_9389_" class="st0" points="231.5,529.3 190.7,570 98.2,568.5 96.7,476 137.5,435.2 138.5,498.5 227.5,409.5 
	257.3,439.3 168.3,528.2 "/>
<polygon id="XMLID_9388_" class="st0" points="189.2,145.1 189.2,110.1 181.9,110.1 174.6,110.1 174.6,145.1 181.9,145.1 "/>
<path id="XMLID_9387_" class="st0" d="M181.9,342.9c17.7-2.9,34.6-10.1,48.8-21.3c16.9-13.3,29.9-32.3,35.6-56.6
	c9.1-38.4-7.7-73.8-35.6-94.6c-7.6-5.6-15.9-10.1-24.8-13.4c-7.8-2.9-15.9-4.6-24-5.2c-41.1-3.3-82.1,21.3-93.9,63.4
	c-13,46.4,21.2,94.2,70.6,96.8c8.2,0.4,16-0.5,23.3-2.6c22.6-6.4,40.4-23.3,48.8-43.1c6.6-15.5,7.3-32.7,0-48
	c-4.6-9.7-12.5-18.5-24.1-25.7c-8.3-5.1-16.6-7.8-24.7-8.8c-50.6-6-90.8,60.3-41,90.4c12.4,7.5,28.4,6.6,41,0
	c11.1-5.9,19.6-16.4,20.7-29.6c1.3-15.9-9-25-20.7-27.3c-14.1-2.7-30.3,4.8-30.2,22.9l18.3-0.2c1.7-5.6,8.7-5.4,12-1.8
	c1.3,1.5,2,3.5,1.4,6c-0.4,1.6-0.9,3-1.4,4.3c-11,24.6-56.9,7.8-41.6-23.7c8.2-16.9,25.5-23.8,41.6-21.3c12.4,2,24.1,9.6,30.5,22.5
	c13.2,26.9-5.3,53.4-30.5,63c-8.9,3.4-18.5,4.7-28,3.2c-35.2-5.6-58.5-40.7-46.4-75.3c11.2-31.8,42.6-49.3,74.3-46.1
	c6.1,0.6,12.1,2,18.1,4.1c12,4.4,22.5,11.7,30.7,20.9c15.3,17.2,22.6,41,17,64.6c-3,12.8-9,24.3-17,33.9
	c-12.3,14.8-29.6,25.1-48.8,29.2c-6.1,1.3-12.4,2-18.7,2c-64.6-0.2-101.1-60-88.2-113.8c10.4-43.7,55.8-74.7,96.6-74.7V118
	c-50.3,0-102.7,33.9-115.8,89.2c-7.9,33.1-1,69.4,22.5,97.6C105.1,337,145.3,349,181.9,342.9z"/>
<rect id="XMLID_9386_" x="275.1" y="118" class="st0" width="12.9" height="19.1"/>
<polygon id="XMLID_9385_" class="st0" points="271.9,133.2 271.9,122 230.6,119.9 192.5,118 192.5,137.2 230.6,135.2 "/>
<g id="XMLID_458_">
	<rect id="XMLID_480_" x="117.9" y="650.2" class="st0" width="111.7" height="30.1"/>
	<g id="XMLID_459_">
		<g id="XMLID_472_">
			<path id="XMLID_477_" class="st2" d="M154.6,666.7c-0.8,0-1.4,0.6-1.4,1.4s0.6,1.4,1.4,1.4c0.8,0,1.4-0.6,1.4-1.4
				S155.4,666.7,154.6,666.7z M154.9,668.2c-0.1,0.1-0.3,0.1-0.6-0.1c-0.3-0.1-0.5-0.3-0.5-0.4l-0.4-0.2l0.4,0.1
				c0.1-0.1,0.3-0.1,0.6,0.1C154.8,667.8,155,668,154.9,668.2l0.9,0.4L154.9,668.2z"/>
			<path id="XMLID_473_" class="st2" d="M154.8,667.9c-0.1-0.1-0.2-0.1-0.3-0.2c-0.3-0.1-0.5-0.2-0.6-0.1c0,0.1,0.2,0.3,0.4,0.4
				c0.1,0.1,0.3,0.1,0.4,0.1c0,0,0.1,0,0.1,0c0.1,0,0.1,0,0.1-0.1C154.9,668.1,154.9,668,154.8,667.9z M154.7,668.2
				c-0.1,0-0.2-0.1-0.4-0.1c-0.3-0.1-0.4-0.3-0.4-0.3l1,0.4C154.9,668.2,154.8,668.2,154.7,668.2z M153.9,667.7
				C153.9,667.6,154,667.6,153.9,667.7c0.2,0,0.4,0,0.5,0.1c0.1,0.1,0.3,0.1,0.3,0.2c0.1,0.1,0.1,0.1,0.1,0.1L153.9,667.7z"/>
		</g>
		<path id="XMLID_470_" class="st2" d="M162.9,673.6h-3.4l-4.9-10.4l-4.9,10.4h-3.4l8.3-16.6L162.9,673.6z"/>
		<path id="XMLID_468_" class="st2" d="M143,656.9v16.6l-2.8-2.2v-8.6l-5.6,4.3l-5.5-4.3v8.6l-2.8,2.2v-16.6l8.3,6.5L143,656.9z"/>
		<path id="XMLID_466_" class="st2" d="M170.9,663.8c0.1,0,0.3,0,0.6,0.1c0.3,0,0.6,0.1,1,0.3c0.4,0.1,0.7,0.3,1.1,0.5
			c0.4,0.2,0.7,0.5,1,0.8c0.3,0.4,0.6,0.8,0.8,1.3c0.2,0.5,0.3,1.1,0.3,1.9c0,0,0,0.2,0,0.4c0,0.3-0.1,0.6-0.2,0.9
			c-0.1,0.4-0.3,0.8-0.5,1.2c-0.2,0.4-0.6,0.8-1,1.2c-0.4,0.4-1,0.7-1.7,0.9c-0.7,0.2-1.5,0.4-2.5,0.4c-0.9,0-1.7-0.2-2.5-0.6
			c-0.8-0.4-1.5-0.9-2.1-1.6l2.2-1.7c0,0,0.1,0.1,0.2,0.2c0.1,0.1,0.3,0.2,0.5,0.4c0.2,0.1,0.5,0.3,0.8,0.4c0.3,0.1,0.7,0.2,1.2,0.2
			c0.8,0,1.5-0.2,2-0.7c0.5-0.4,0.7-0.9,0.7-1.5c0-0.4-0.1-0.8-0.3-1c-0.2-0.3-0.4-0.5-0.7-0.7c-0.3-0.2-0.6-0.3-1-0.4
			c-0.4-0.1-0.8-0.2-1.2-0.3c-0.1,0-0.3-0.1-0.6-0.1c-0.3-0.1-0.6-0.2-0.9-0.3c-0.3-0.1-0.7-0.3-1-0.5c-0.4-0.2-0.7-0.5-1-0.8
			s-0.5-0.7-0.7-1.2c-0.2-0.5-0.3-1-0.3-1.6c0,0,0-0.2,0-0.4c0-0.2,0.1-0.5,0.2-0.9c0.1-0.3,0.3-0.7,0.5-1.1c0.2-0.4,0.6-0.8,1-1.1
			c0.4-0.3,1-0.6,1.7-0.8c0.7-0.2,1.5-0.3,2.5-0.3c0.9,0,1.7,0.2,2.6,0.6c0.8,0.4,1.5,0.9,2.1,1.6l-2.2,1.7
			c-0.2-0.3-0.4-0.5-0.7-0.7c-0.3-0.2-0.6-0.3-0.9-0.3c-0.4-0.1-0.7-0.1-1.1-0.1c-0.8,0-1.5,0.2-2,0.5c-0.5,0.3-0.7,0.8-0.7,1.4
			c0,0.4,0.1,0.8,0.2,1c0.1,0.2,0.3,0.4,0.6,0.6c0.3,0.1,0.6,0.2,0.9,0.3C170.1,663.6,170.5,663.7,170.9,663.8z"/>
		<path id="XMLID_464_" class="st2" d="M192,657v10.4c0,0.1,0,0.4,0,0.8c0,0.4-0.1,0.8-0.2,1.2c-0.1,0.5-0.3,0.9-0.6,1.4
			c-0.3,0.5-0.6,0.9-1.1,1.3c-0.5,0.4-1.1,0.7-1.8,1c-0.7,0.3-1.6,0.4-2.7,0.4c-1,0-1.9-0.1-2.6-0.4c-0.7-0.3-1.3-0.6-1.7-1
			c-0.5-0.4-0.8-0.9-1-1.3c-0.2-0.5-0.4-1-0.5-1.4c-0.1-0.5-0.2-0.9-0.2-1.2c0-0.4,0-0.6,0-0.8V657h2.8v10.4c0,0.2,0,0.4,0.1,0.8
			c0,0.4,0.2,0.8,0.4,1.2c0.2,0.4,0.5,0.8,1,1.1c0.5,0.3,1.1,0.5,2,0.5c0.9,0,1.6-0.2,2.1-0.5c0.5-0.3,0.9-0.7,1.1-1.1
			c0.2-0.4,0.4-0.8,0.4-1.2c0-0.4,0.1-0.7,0.1-0.8V657H192z"/>
		<path id="XMLID_462_" class="st2" d="M218.3,657h2.8v14.4l-2.8,2.1V657z"/>
		<polygon id="XMLID_461_" class="st2" points="200.8,657 198,657 195.3,657 195.3,659.8 198,659.8 198,660.8 198,673.5 
			200.8,673.5 200.8,660.8 200.8,659.8 203.6,659.8 203.6,657 		"/>
		<polygon id="XMLID_460_" class="st2" points="212.2,657 209.5,657 206.7,657 206.7,659.8 209.5,659.8 209.5,660.8 209.5,673.5 
			212.2,673.5 212.2,660.8 212.2,659.8 215,659.8 215,657 		"/>
	</g>
</g>
</svg>
