<?xml version="1.0" encoding="utf-8"?>
<!-- Generator: Adobe Illustrator 19.2.1, SVG Export Plug-In . SVG Version: 6.00 Build 0)  -->
<svg version="1.1" id="Layer_1" xmlns="http://www.w3.org/2000/svg" xmlns:xlink="http://www.w3.org/1999/xlink" x="0px" y="0px"
	 viewBox="0 0 425.2 652" style="enable-background:new 0 0 425.2 652;" xml:space="preserve">
<style type="text/css">
	.st0{fill:#EDEDED;}
	.st1{fill:#E31019;}
	.st2{fill:#007DA4;}
	.st3{fill:#009D41;}
</style>
<g id="XMLID_7599_">
	<rect x="0" class="st0" width="425.2" height="652"/>
</g>
<g id="XMLID_9132_">
	<path class="st1" d="M196.6,32.9H29v367.2h167.7h199.6V32.9H196.6z M269,383h-72.4h-40.4V138.7c0-7,2.6-13.7,7.2-18.8
		c5.3-5.8,12.9-9.2,20.7-9.2h11.6V88.3c0-1.5-0.6-2.9-1.6-4c-1.1-1-2.5-1.6-4-1.6H178l-39,28.4c-1.3,1-2.2,2.4-2.3,4l-1,11.6h-11.4
		l2.6-29.8c0.1-1.6,0.6-3.1,1.4-4.5c0.8-1.4,1.9-2.6,3.2-3.5l43.2-31.5h22.1h2V50h28v6.2h14l14,9.1v8.4l-14,9.1H235
		c-1.7,0-3.3,0.8-4.4,2.1c-0.8,1-1.2,2.2-1.2,3.5v22.4h11.6c8.3,0,16.4,3.8,21.6,10.2c4.1,5,6.3,11.3,6.3,17.8V383z"/>
</g>
<g id="XMLID_9131_">
	<rect x="29.3" y="416.7" class="st2" width="366.9" height="69.1"/>
</g>
<g id="XMLID_9112_">
	<g id="XMLID_9117_">
		<path class="st3" d="M88.7,526.4h-1.3H73.2h-0.4h-1.6h-1.5h-9.1h-3h-9.9H36.9h-2.7c-3,0-5.4,2.4-5.4,5.4v54.4c0,3,2.4,5.4,5.4,5.4
			h2.7h10.7h9.9h3h9.1h1.5h1.6h0.4h14.2h1.3c3,0,5.4-2.4,5.4-5.4v-54.4C94.1,528.8,91.7,526.4,88.7,526.4z M53.5,532
			c1.4-1.1,1.2-3.1,1.2-3.1s1.3,2.6,0.9,3.1c-0.7,1-0.8,3.2,0.7,3.2c1.5-0.1,0.8-2.4,0.8-2.4c0.2,0.1,0.4,0.2,0.5,0.3
			c1.2,0.8,0.9,2.4,0.9,2.4c-0.9,3.3-0.2,6-0.2,6c0.2-1.4,1.3-1.2,1.5-3.1c0.1-0.6,0.4-1.3,0.8-1.8c0.8-1,1.9-1.8,1.9-1.8
			c-0.7,0.2-0.8,4.1-0.5,5.2c0.4,1.5,1.3,1.4,1.3,3.2c0.1,1.9-2.6,2.8-2.6,2.8l-0.2-0.1l-3-2.4l-4.1-3.2
			C49.7,537.1,53.5,532,53.5,532z M35,537c0,0-0.8,2.4,0.4,3c0,0,0.2-2.3,1.6-4c0.5-0.7,1.2-1.3,2.2-1.7c-2.2,0.9-0.4,5,0.6,5.7
			c1.1,0.7,0.4,2,0.4,2l-3.2,2.2l-1,0.7C35.9,544.8,31.2,541.6,35,537z M34.8,546.8l2.1-1.4l7.5-5h3.3h4.5l5.5,4.3l2.8,2.2
			c0,0,0.1,0.1,0.2,0.3c0.1,0.3,0.3,0.8,0.3,1.8h-0.3h-3h-9.9H36.9h-2.5C34.4,547.1,34.8,546.8,34.8,546.8z M56.9,585.5
			c0,1.2-1,2.1-2.2,2.1l-7.1,0l-6,0c-1.2,0-2.1-1-2.2-2.1L36.9,567l-2.3-16.9h2.3l10.7,0l9.9,0l3,0h0.2l-0.2,1.5l-3,27.6L56.9,585.5
			z M59.1,576.7c0-1,0.4-1.8,0.9-2.3l0.5-0.3c0,0,0.1,0,0.1,0h0c0.5,0,1,0.3,1.4,0.8c0.4,0.5,0.7,1.2,0.7,1.9c0,0.6-0.2,1.2-0.5,1.6
			c-0.3,0.5-0.8,0.8-1.2,1c0,0-0.1,0-0.1,0.1c-0.1,0-0.2,0-0.3-0.1C59.8,579,59.1,577.9,59.1,576.7z M71.2,589.6l-1.5,0l-3.4,0v-0.6
			c0.9,0.3,2.3,0.3,3.4,0.2c0.8,0,1.4-0.1,1.4-0.1c-0.4,0.1-0.9,0.1-1.4,0c-1.4-0.1-2.8-0.6-3.4-0.8v-0.8h0.9
			c0.6,0.2,1.6,0.5,2.5,0.7c0.5,0.1,1.1,0.2,1.5,0.2l0.1,0l-0.1,0l-1.5-0.5l-0.9-0.3h0.9h1.5h1.1l0,2.1L71.2,589.6z M66.5,587
			l3.2-4.8l0,0l1.5,1l1.6,1.1l0.1,0.1l-0.1,0.3l-0.7,2.3h-0.9h-1.5H66.5z M73.2,586.7l-0.4,1.5l-0.1,0.2l0-1.2c0,0,0-0.1,0-0.1
			l0.1-0.2l0.4-1.4l0.2-0.7l0.3,0.2L73.2,586.7z M86,588l-4.6,1.6v0.1l-8.1-5.6l-0.4-0.3l-1.6-1.1l-1.4-1v-0.8l1.4,0.9l1.6,1
			l0.4,0.3l5.1,3.2l2.9,1.8c0,0,0.2,0,0.2,0l4.6-1.5V588z M70.2,580.6l1-0.2l1.6-0.3l0.3,0l0.1,0l0.7-0.1l11.8,6.3l-4.4,1.4
			l-8.1-5.2l-0.4-0.3l-1.6-1L70.2,580.6L70.2,580.6L70.2,580.6z M87.4,580.6c-0.5,1.5-1.6,3.4-3.6,4.2l-9.8-5.2l-0.1,0l-0.1,0
			l-0.6,0.1l-0.4,0.1l-1.6,0.2l-1.5,0.2l-0.2,0l-0.2,0v0.2v1.4v0l-0.4,0.7c-1.4,0.6-2.8,1.3-3.7,1.7c0.1-0.1,0.1-0.3,0.2-0.5
			c0.3-0.7,0.3-1.6,0.1-2.4c0-0.2-0.1-0.3-0.2-0.5c-0.2-0.6-0.6-1-1-1.2c0,0-0.1-0.1-0.2-0.1l5.5-2l1.5-0.6l1.6-0.6l0.4-0.1l0,0
			c0.1,0,0.2-0.1,0.1-0.3c-0.1-0.1-0.1-0.2-0.2-0.2c0,0-0.1,0-0.1,0l-0.3,0.1l-1.6,0.6l-1.5,0.6l-6.9,2.5h0l0,0h0c0,0,0,0,0,0l0,0
			l-0.3,0.1c0,0,0,0-0.1,0c0,0-1.7,1.1-0.8,2.9c0,0,0,0,0,0c0,0,1.4,1.9,3-0.2c0.1-0.1,0.1-0.2,0-0.3c-0.2-0.1-0.3-0.1-0.3,0
			c-1.1,1.5-2.1,0.3-2.3,0.2c-0.7-1.3,0.4-2.2,0.6-2.3l0.1-0.1c0,0,0.1,0,0.1,0c0,0,0,0,0,0l0.1,0c0,0,0.1,0,0.1,0
			c0.4-0.1,0.7-0.1,1,0.1c0.3,0.2,0.6,0.5,0.8,1c0.1,0.1,0.1,0.3,0.1,0.4c0.2,0.7,0.1,1.5-0.1,2.1c-0.2,0.6-0.6,1.1-1.1,1.2
			c-0.1,0-0.1,0-0.1,0.1c-1.1,0.3-2.5,0.1-3.1-1.7l-0.1-0.2c-0.2-0.8-0.2-1.5,0-2c0.2-0.5,0.4-0.9,0.6-1.1l8.5-3.1l1.5-0.6l1.6-0.6
			l0.2-0.1c0.1,0,0.2-0.1,0.1-0.3c-0.1-0.2-0.2-0.2-0.3-0.1l0,0l-1.6,0.6l-1.5,0.6l-7.2,2.7c0,0,0.1-0.1,0.1-0.2
			c0.3-0.5,0.6-1.2,0.6-1.9c0-0.8-0.3-1.6-0.8-2.2c-0.2-0.3-0.6-0.6-0.9-0.8l8.2-2.6l1.5-0.5l0,0c0.1,0,0.2-0.1,0.2-0.3
			c0-0.1-0.1-0.2-0.2-0.2c0,0-0.1,0-0.1,0l-1.4,0.4l-4.7,1.5c-4-8.7,1.8-15.5,1.8-15.5c2.1-2.3,1.2-9.4,1.2-9.4
			c0.7,0.5,1.3,1.1,1.7,1.8c1.2,2,1.3,4.6,1,6.8c-0.2,1.8,0.2,3.5,0.5,4.5c0.2,0.6,0.4,1,0.4,1c-0.8-2.7,0-4.1,1.2-5.7l0.4-0.5
			c0.3-0.4,0.5-0.8,0.8-1.2c1.4-2.2,3.8-5.5,1.7-9.1c-2-3.5,0.7-9,0.7-9c-0.2,1.5,2.2,6.5,3.2,7.7c1.2,1.4,3.4,3.6,3.5,7
			c0.3,6.5-2.5,8.7-1.7,12.3c0,0,0.7-2.2,1.7-3.5c0.4-0.5,0.8-0.9,1.1-1.4c0.8-1.4,1.4-3.8,1.4-3.8s1.3,5.4-0.6,9.8
			c-0.9,2-0.8,4.1,0.5,6c1.5,2.1-0.9,7.4-0.9,7.4s-1.2-1-1.3-2.4c-0.1-1.2-0.8-0.6-1-0.5c-0.5,0.3-0.8,0.8,0,2.6c1.4,3-2,4-2.3,4.6
			c0,0,5.1,0.4,7.1-2.1c0.2-0.3,0.4-0.6,0.5-0.9C88,578.7,87.8,579.5,87.4,580.6z M87.9,563.8c0.2,0.7-0.1,1.7-0.4,2.3
			c-0.2,0.5-0.5,0.8-0.5,0.8c-1-2.3-0.3-4.2,0.5-5.3c0.5-0.7,1-1.1,1-1.1S87.5,562.5,87.9,563.8z"/>
	</g>
	<g id="XMLID_9116_">
		<polygon class="st3" points="43.5,516.5 41.7,511.7 41.7,511.6 39.9,516.5 41.7,516.5 		"/>
	</g>
	<g id="XMLID_9113_">
		<path class="st3" d="M54.1,523.6l-12.4-21.2l0,0l-12.6,21.3h12.7H54.1z M39.1,518.6l-1,2.8h-2.7l5-12.7h1.4h1.5l5,12.7h-2.8
			l-1.1-2.8h-2.6H39.1z"/>
	</g>
</g>
<g id="XMLID_9096_">
	<g id="XMLID_9109_">
		<path class="st2" d="M188.1,523.6c0.5,0.1,1.1,0.1,1.6,0.1c5.3,0,9.7-4.3,9.7-9.7c0-5.4-4.4-9.7-9.7-9.7c-0.5,0-1.1,0-1.6,0.1
			c-4.6,0.8-8.1,4.8-8.1,9.6C180,518.9,183.5,522.8,188.1,523.6z M188.1,507.5c0.5-0.1,1-0.2,1.4-0.2c2,0,2.4,0.2,3.5,0.5l-0.2,2.4
			c-0.9-0.3-1.5-0.6-2.8-0.6c-0.7,0-1.3,0.1-1.9,0.4c-1.3,0.6-2.2,1.8-2.2,3.6c0,2.1,0.9,3.5,2.2,4.2c0.6,0.3,1.3,0.5,2,0.5
			c1,0,1.9-0.2,2.8-0.6l0.2,2.4c-1,0.4-2.1,0.5-3.1,0.5c-0.6,0-1.3,0-1.9-0.2c-2.6-0.5-5-2.2-5-6.8C183,509.9,185.7,508,188.1,507.5
			z"/>
	</g>
	<g id="XMLID_9108_">
		<polygon class="st2" points="225.2,574.7 224.1,576 227.9,579 230.5,581.2 231.6,579.9 227.9,576.9 		"/>
	</g>
	<g id="XMLID_9098_">
		<path class="st2" d="M239.9,526.1h-7.2h-4.8h-5.1h-3.3h-3.3h-6.4h-1.9h-22.4c-3,0-5.4,2.4-5.4,5.4v47.5l0,0c4.6,0,7.1-3.5,8.1-6.4
			c1.5-4.3,0.8-9.5,0.6-14c-0.2-4.9,0.2-11.8,5.2-13.9c2.4-1,5.5-0.3,7.5,1.9l-2.3,2.8c-2.9-2.2-4.5-1.3-5.3,0.1
			c-2.2,3.4-1.5,5.2-1.5,18.7c0,2.1,0,3.7-0.8,5.7c-1.2,3.3-4.3,8.7-11.6,8.7l0,0v3.5c0,3,2.4,5.4,5.4,5.4h22.4h1.9h6.4h3.3h3.3h5.1
			h4.8h7.2c3,0,5.4-2.4,5.4-5.4v-54.4C245.3,528.6,242.9,526.1,239.9,526.1z M219.5,533.3c0.4-1,0.8-2,0.7-2.9c0,0,1.9,1.9,2.6,4.7
			c0.1,0.3,0.1,0.7,0.2,1c0.1,0.8,0,1.6-0.2,2.2c-0.5,1.9-1.6,3-1.6,3c-0.8-1-1.3-1.9-1.6-2.7C218.6,536.4,219,534.7,219.5,533.3z
			 M224.1,558.8l-1.1,1.3l-0.3-0.2l-3.3-2.7l-3.3-2.7l-1.3-1.1l1.1-1.3l0.2,0.2l3.3,2.7l3.3,2.7L224.1,558.8z M201.1,548.4
			c2.3-2.8,4.6-3.9,6.8-4.1c0.7-0.1,1.3,0,1.9,0c2.7,0.4,5,2,6.4,3.2c0.8,0.7,1.3,1.3,1.3,1.3l-1.3,1.6l-6.4,7.7l-1.9,2.3l-3.2,3.9
			C204.6,564.3,193.1,558,201.1,548.4z M207.6,562.2l0.3-0.3l0.8-0.9l1.2,1l6.4,5.2l0.7,0.5l-0.7,0.8l-0.4,0.5l-6-4.9l-1.9-1.6
			L207.6,562.2z M210.5,572.1c-1.2,2.1-0.2,6.6-0.3,6.5c-0.2-0.2-0.3-0.3-0.5-0.5c-1.4-1.8-0.7-3.9,0-5.1
			C210.3,572.1,210.8,571.7,210.5,572.1z M227.9,587.6c-1.2-0.2-3.2-0.5-5.1-0.4c-1.2,0.1-2.4,0.4-3.2,1.1l-0.1,0.1
			c-0.9,0.7-2.2,0.8-3.3,0.4c-2.2-0.7-4.3-3-4.1-5.5c0,0,1.4,0.7,3.2,1c0,0-6.2-4.5-1.4-11.8c0.1-0.2,0.7,3.5,2.3,5.9
			c0.7,1,1.5,1.7,2.5,1.9c0.3,0,0.5,0.1,0.8,0.1c1.9,0.4,2.8,1,3.3,1.7c0.4,0.6,0.5,1.2,0.6,1.9c0,0,2.5-0.6,4.5,1.8
			c0.4,0.5,0.8,1.1,1.1,1.9C229,587.8,228.5,587.7,227.9,587.6z M232.7,584.8c-0.3,0-0.7,0-1,0c-1.3,0-2.6-0.2-3.8-0.7
			c-2.1-0.8-3.8-2.1-5.1-3.9c-1.3-1.8-2.1-4.1-2.1-6.5c0-2.4,0.8-4.7,2.1-6.5c1.3-1.7,3-3.1,5.1-3.8c1.2-0.4,2.5-0.7,3.8-0.7
			c0.3,0,0.7,0,1,0c5.6,0.5,10,5.2,10,11C242.6,579.6,238.3,584.3,232.7,584.8z M242.4,569.2c-2.2-6.9-9.1-7.3-9.8-7.3h-0.1
			c0,0,0.2-1-2.4-3c-1.1-0.9-1.9-1.7-2.3-2.6c-1.3-2.4-0.7-4.8-0.4-6.4c0.5-2.3,0.8-6.4-0.9-6.8c-2.3-0.6-1,4.4-1,4.4
			c-4.2-2.4-1.4-6.2-1.4-6.2c2.4-4,0.2-8.5-1.4-11c-0.8-1.2-1.5-2-1.3-2c0.4,0.1,0.8,0.3,1.3,0.6c1.6,0.7,3.7,1.9,5.1,3.3
			c0.3,0.3,0.6,0.6,0.8,0.9c1.7,2.3,0.8,7.9,0.8,7.9c-0.3,6.8,3,11.2,3,11.2c0-0.4,0.1-0.8,0.2-1.2c0.6-1.5,2.1-2.3,2.1-2.3
			c-0.9,5.9,1.8,8.8,1.8,8.8s0.2-3-0.1-5c-0.3-2,2.9-7.4,2.9-7.4c-0.7,4.4,0.6,11,2.1,13.6c1.3,2.2,0.9,7.7,0.9,7.7l1.5-1.8
			C244.4,566.7,242.4,569.2,242.4,569.2z"/>
	</g>
	<g id="XMLID_9097_">
		<polygon class="st2" points="232.6,565.9 231.5,567.2 232.7,568.1 237.9,572.4 239,571.1 232.7,565.9 		"/>
	</g>
</g>
<g id="XMLID_9079_">
	<g id="XMLID_9086_">
		<path class="st1" d="M164.2,526.3h-14.3h-4.8h-3.3h-2.6h-0.4h-0.4h-6.8h-21.8c-3,0-5.4,2.4-5.4,5.4v54.4c0,3,2.4,5.4,5.4,5.4h21.8
			h6.8h0.4h0.4h2.6h3.3h4.8h14.3c3,0,5.4-2.4,5.4-5.4v-54.4C169.6,528.8,167.2,526.3,164.2,526.3z M145.1,533.2
			c0.2-1.8,0.9-4.3,3-5.5c0,0-1,3.6,1.7,6.5c0.5,0.5,1,1,1.7,1.4c3.2,2,1.1,7.3,0.2,10c-0.9,2.7,0,3.3,1.4,2.6c0,0,3-2.6,4.1-6.5
			c0,0,1.7,4.3-1,9.1c-1.3-0.5-2.8-0.9-4.2-1.2c-0.7-0.1-1.4-0.2-2.1-0.2c-1.1-0.1-2.3-0.1-3.4,0c-0.2-0.9-0.3-2.8,0.6-5.7
			c1.5-4.6-1.7-7.3-2-8.8l0-0.1C145.1,534.3,145.1,533.8,145.1,533.2z M141.8,552c-0.9,0.2-1.8,0.4-2.6,0.7l-0.2,0.1l-0.3-1.5
			l-0.1-0.3l0.1,0l0.4-0.1c0.9-0.2,1.7-0.4,2.6-0.6c1.1-0.2,2.2-0.4,3.3-0.5c1.6-0.1,3.2-0.2,4.8,0c0.7,0.1,1.3,0.1,2,0.2
			c3.5,0.6,6.8,2,9.3,4.6l-1.1,1.2c-2.6-2.4-5.8-3.7-9.3-4.2c-0.3,0-0.6-0.1-0.8-0.1c-1.5-0.1-3.1-0.1-4.8,0
			C144,551.6,142.9,551.8,141.8,552z M142.1,552.4c-0.1,0.4-0.2,0.8-0.2,1.4c0,0,0-0.1-0.1-0.2c-0.1-0.2-0.2-0.6-0.3-1l0.3-0.1
			L142.1,552.4z M141,534.2c0-0.1,0.3-0.1,0.8,0.1c1.1,0.5,3,2.2,3.3,6.8c0.1,0.8,0.1,1.7,0,2.7c-0.1,1-0.2,2.1-0.4,3.4
			c-0.2,1-0.5,1.7-0.8,2.3c-0.7,0.1-1.5,0.2-2.2,0.3l-0.7,0.1c0-1.2,0.1-2.6,0.7-3.9c0.2-0.5,0.5-1,0.8-1.5c0,0-0.4,0.2-0.8,0.5
			c-0.8,0.6-1.8,1.6-2.2,3.1c0,0-0.3-0.7-0.5-1.7c-0.1-0.7-0.1-1.4,0-2.2c0.1-0.6,0.3-1.1,0.6-1.7C141,540.4,142.6,539.2,141,534.2z
			 M138.3,534.6c0.1-0.2,0.3-0.4,0.4-0.5c0.1-0.2,0.2-0.3,0.2-0.2c0.1,0.2,0.2,0.4,0.2,0.5c0.1,0.5,0.1,1,0,1.4
			c-0.1,0.4-0.3,0.9-0.4,1.4c-0.2,0.6-0.3,1.4-0.2,2.3c0,0-0.1,0-0.2-0.1c-0.3-0.1-0.9-0.6-0.9-2.1
			C137.4,536.2,137.9,535.2,138.3,534.6z M131.5,539.7l2.4,1.1c0,0,2.9,1.5,1.9,4.8l-1.3-0.7c0.5-2.2-1.4-3.2-1.4-3.2l-1.6-0.7
			l-4.2-1.9l-0.3-1.5L131.5,539.7z M106.8,573.6c-1.1-0.5-1.5-1.8-1-2.9l15.8-33.7c0.5-1.1,1.8-1.5,2.9-1l1.7,0.8l1.1,5.7l4.3,2
			l1.7,0.8c0,0,2.1,1,2.8,1.6c1.4,1.2,1.4,2.4,1.4,2.4l0.9,5.3l0.3,1.6c0,0.1,0.1,0.2,0.1,0.3c0.1,0.5,0.1,0.9,0,1.4
			c-0.1,0.4-0.2,0.8-0.4,1.2c-0.1,0.1-0.1,0.3-0.2,0.4l-6.6,14.1l-3.6,7.6c-0.5,1.1-1.8,1.5-2.9,1L106.8,573.6z M164.5,578.7
			c0.2,1.4-4.5,2.9-9.5,2c0,0-2.4-0.3-5.1,0c-0.8,0.1-1.6,0.2-2.3,0.4c-2.5,0.6-0.5,1.2,2.3,1.2c1,0,2.1,0,3.1-0.2
			c2.8-0.3,6.8,1.5,4.5,4.1c-1.4,1.6-4.9,2.4-7.6,2.3c-0.6,0-1.1-0.1-1.6-0.2c-0.8-0.2-1.9-0.4-3.2-0.5c-1.1-0.1-2.2-0.2-3.3-0.3
			c-0.9-0.1-1.8-0.1-2.6,0l-0.4,0l-0.4,0c-0.8,0.1-1.5,0.2-2,0.4c0,0-0.2,2.4-2.3,2.6c0,0-1.2,0.1-2.6,0.1c-1.5,0-3.2,0-3.6-0.4
			c-0.9-0.8-2.3-1.5-3.5-1.7c-1.2-0.2-8-2.9,3.9-5.1c0,0,1.6-0.3,3.2-0.8c1.6-0.5,3.3-1.2,3.3-1.9c0-1.1-2.3-1.2-3.3-2
			c-0.4-0.3-0.6-0.7-0.5-1.2c0.1-0.3,0.2-0.5,0.5-0.7c1.1-1,3.9-1.5,6.8-1.7l0.4,0l0.4,0c0.9-0.1,1.8-0.1,2.6-0.1l0.5,0
			c1.2,0,2.2-0.2,2.9-0.5c1.9-0.9,2.4-2.6,2-4.2c-0.2-0.7-1-1.2-2-1.9c-1.1-0.8-2.5-1.8-3.3-3.4c-0.7-1.4-1.1-3.2-0.7-5.8
			c0,0,0.3,0.5,0.7,0.8c0.5,0.4,1.1,0.8,1.7,0.5c0.4-0.1,1-1,1.7-2.2c1-1.8,2-4.5,2-6.5c0.9,0,1.9,0,2.8,0.1c0.3,0,0.5,0.1,0.8,0.1
			c1.3,0.2,2.6,0.5,3.9,1c-1.2,1.3-4.4,5-4.5,8.3c0,0,0.9-2.1,4.1-3.9c0,0-2,6.8,3.2,9.5c0.1,0,2.6-0.3,1.5-7.4
			c-0.2-1.1,0.2-2.4,0.7-3.5c0.1,0.1,0.3,0.2,0.4,0.4l0.2,0.2l0.2-0.2l1.5-1.5l0.2-0.2l-0.2-0.2c-0.3-0.3-0.5-0.6-0.8-0.8
			c0.9-1.2,1.7-2,1.7-2c-0.6,2.7-0.9,5.9,1.1,9.4c2.6,4.6,0.9,9.1,0.2,10.7c-0.7,1.6-2.6,4.2-5.7,4.8
			C159.9,576.3,164.2,576.2,164.5,578.7z"/>
	</g>
	<g id="XMLID_9085_">
		<path class="st1" d="M157.8,576.5c0.1,0,0.1,0,0.2,0C157.1,576.6,156.8,576.7,157.8,576.5z"/>
	</g>
	<g id="XMLID_9082_">
		<path class="st1" d="M121.9,523.1v-17.6h-8.7h-8.7v17.6h8.7H121.9z M108.9,520.8v-12.9h4.3h0.1c2.8,0,4.3,1.1,4.3,3.5
			c0,1.7-1.4,2.5-2.2,2.7c1,0.2,2.6,1,2.6,3.2c0,2.4-2.1,3.5-4.2,3.5h-0.6H108.9z"/>
	</g>
	<g id="XMLID_9081_">
		<path class="st1" d="M113.2,513c0.9-0.1,1.7-0.5,1.7-1.5c0-1.1-0.8-1.4-1.7-1.5c-0.2,0-0.3,0-0.5,0h-1.2v3.1h1.2
			C112.9,513,113,513,113.2,513z"/>
	</g>
	<g id="XMLID_9080_">
		<path class="st1" d="M115.3,516.8c0-1.3-1.1-1.7-2.1-1.7c-0.2,0-0.3,0-0.5,0h-1.2v3.6h1.2c0.2,0,0.3,0,0.5,0
			C114.3,518.5,115.3,518,115.3,516.8z"/>
	</g>
</g>
<g id="XMLID_9053_">
	<g id="XMLID_9078_">
		<path d="M278,574.1c0,1.3,1.1,1.6,1.6,1c0.2-0.2,0.4-0.6,0.4-1h-0.4H278z"/>
	</g>
	<g id="XMLID_9077_">
		<path d="M280.8,574.1c0,1.1,0.7,1.5,1.3,1.3c0.4-0.1,0.7-0.6,0.7-1.3h-0.7H280.8z"/>
	</g>
	<g id="XMLID_9076_">
		<path d="M275.3,574.1c0,0.7,0.3,1.2,0.7,1.3c0.6,0.2,1.2-0.3,1.2-1.3H276H275.3z"/>
	</g>
	<g id="XMLID_9075_">
		<path d="M272.6,574.1c0,0.2,0,0.4,0.1,0.6c0.4,1.1,1.9,0.9,1.9-0.6H272.6L272.6,574.1z"/>
	</g>
	<g id="XMLID_9074_">
		<path d="M291.8,574.1c0,0.9,0.5,1.3,1,1.3c0.5,0,1-0.4,1-1.3h-1H291.8z"/>
	</g>
	<g id="XMLID_9073_">
		<path d="M289,574.1c0,1.3,1.1,1.6,1.7,1c0.2-0.2,0.3-0.5,0.3-1h-0.3H289z"/>
	</g>
	<g id="XMLID_9072_">
		<path d="M283.5,574.1c0,0.9,0.5,1.3,1,1.3s1-0.4,1-1.3h-1H283.5z"/>
	</g>
	<g id="XMLID_9055_">
		<path d="M272.6,582.7h3.4h3.6h2.4h1.3h1.1h2.7h3.4h2h2.2h3.7H321v-50.9c0-3.1-2.5-5.6-5.6-5.6h-16.7H295h-2.2h-2h-3.4h-2.7h-1.1
			h-1.3h-2.4H276h-3.4h-4.5h-6.8c-3.1,0-5.6,2.5-5.6,5.6v54.1c0,3.1,2.5,5.6,5.6,5.6h6.8h4.5v0h3.4h3.6h2.4h1.3h1.1h2.7h3.4h0h2h2.2
			h3.7v0h16.7c2.6,0,4.8-1.8,5.4-4.2h-22.1H295h-2.2h-2h0h-3.4h-2.7h-1.1h-1.3h-2.4H276h-3.4h-3.8v-4.6H272.6z M272.2,565.1
			c0.1,0,0.3,0.1,0.4,0.1c0.5,0.2,0.8,0.5,1.1,0.8c0.7,0.9,0.6,2.2-0.5,2.9l-0.5,0c-1.7-0.1-2.8-0.5-2.9-2.1l2.6-0.1L272.2,565.1z
			 M295,575.3c0.3,0.2,0.7,0.2,1.1-0.1l-1.1,1.2l-2.2,2.5l-2,2.3l-0.6,0.6h-2.9v0h-2.7h-1.1h-1.3h-2.4v0h-3.5l-0.1-0.1l-3.4-3.7
			l-2.4-2.7c0.6,0.5,1.5,0.1,1.6-1.1h-1.7l1-4h1.6h3.4h3.6h2.4h1.3h1.1h2.7h3.4h2h2.2h0.3l1,4H295h-0.5
			C294.5,574.7,294.7,575.1,295,575.3z M275.1,565.1l1,0.8l0.6,0.5l1.2-1.4l1.5,0.2c0.6,1.9-0.3,3.8-1.7,3.8
			c-0.6-0.3-1.2-0.7-1.6-1.2c-0.6-0.6-1-1.2-1.2-1.7C274.8,565.7,274.8,565.3,275.1,565.1z M283.4,563.5c-0.5-0.4-0.9-1-1-1.5
			c-0.1,0.1-0.2,0.2-0.2,0.2c-0.5,0.6-0.6,1.1-1.5,1c-0.1-1.6,0.3-2.7,0.4-4.2c0.3,0.2,0.7,1,1.1,1.3c0.2,0.2,0.3,0.3,0.5,0.2
			c0.4-0.1,0.6-0.6,0.8-0.8c0-0.1,0.1-0.1,0.2-0.1c0.5,0.9,0.7,1.6,1,1.8c0.2,0.2,0.5,0.1,1-0.1c1.4,3.2,0.7,3.8-0.4,5.4
			c-0.3-0.6,0-2.7-0.5-2.8c0,0,0,0-0.1,0C284,563.8,283.7,563.7,283.4,563.5z M283.4,568.9c-0.2,0.1-0.4,0.1-0.7,0.1
			c-0.2-0.1-0.4-0.3-0.6-0.5c-0.8-1-1.3-2.7-1.3-3.4c0-0.5,0.2-0.8,0.6-1l0.7,1.6l0,0.1l0.5-1.5l0.7,1.5l0.1,0l0.7,0.1
			C284.8,567.3,284.4,568.5,283.4,568.9z M287.2,566.1L287.2,566.1c0.1-0.5,0.4-0.8,0.8-1l0.8,1.2l1.9-1.3l0.1-0.1l1.4,0.2
			c-0.3,0.9-0.9,1.8-1.6,2.5c-0.8,0.8-1.6,1.3-2.4,1.3c-0.6-0.4-0.9-1-1.1-1.7C287.1,566.9,287.1,566.5,287.2,566.1z M295,568.9
			c-0.4,0-0.8,0.1-1.2,0.1c-1.1-0.7-1.2-2-0.5-2.9c0.3-0.5,0.8-0.8,1.5-1l-0.1,1.7l0.4-0.4l1.3-1.1l-0.1,1.5l1,0.1
			C297.1,568.3,296.3,568.8,295,568.9z M298.7,559.1c0.3,0.5,0.3,1.5,1,1.4c0.8-0.1,1.4-0.8,2-1c0,1.6-0.6,2.3,1.4,1.7
			c-0.3,2.9-2.2,4.5-4.5,6c-0.2,0.2-0.5,0.3-0.7,0.4c0-0.3,0.4-0.8,0.7-1.4c0.5-0.7,1-1.5,0.5-1.5c-0.2,0-0.3,0-0.5-0.1
			c-1.1-0.2-1.3-1.1-1.1-1.8c-1.2,0.5-1.8,1.1-2.6,1.2c-0.2,0-0.5,0.1-0.8,0c0.2-0.3,0.5-0.7,0.8-1.1c1.1-1.4,2.6-3,3.6-4.2
			C298.6,559,298.6,559.1,298.7,559.1z M290.7,556.6c1-1.8,2-3.8,1.1-7.2c-0.3-1.1-0.9-3.1,1-4.7c0.3-0.3,0.7-0.6,1.2-0.8
			c-0.8,1.7,0,3.2,0.6,4.3c0.1,0.2,0.3,0.5,0.4,0.7c0.5,1.2,0.6,2.7,0,4.1c-0.4,1-1.1,2.1-2.2,3c-0.6,0.5-1.3,0.9-2,1.3
			c-0.2,0.1-0.4,0.2-0.6,0.3C290.3,557.3,290.5,557,290.7,556.6z M290.7,561c0.6-0.6,1.3-1.4,1.8-1.4c-0.1,0.8,0.1,1.3,0.3,1.5
			c0.3,0.3,0.8,0.2,1.1,0c0.3,1,0.2,1.5-1.1,3l-0.1,0.1c-0.2-1-1.4-0.1-2-0.2c-0.2,0-0.4-0.2-0.4-0.6c-0.9,0.6-1.9,0.8-2.9,0.6
			c0.3-1.6,0.8-3.1,1.2-4.6c0.7,0.7,0.8,1.2,1.3,2C290.2,561.5,290.4,561.3,290.7,561z M282.1,533.4c0.3-0.6,0.7-1.2,1.3-2
			c0.3-0.3,0.6-0.7,0.9-1.1c-0.5,1.9-0.4,3.2,0.2,4.2c0.6,1,1.6,1.8,2.7,2.8l0,0c2.7,2.4,2.9,6.3,0,9.5c-0.7,0.8-1.6,1.6-2.7,2.2
			l-0.2,0.1l0.2-0.4c1.2-2.5,3.1-6.1,0-9.2l-0.1-0.1c-0.4-0.4-0.7-0.7-1-1c-0.6-0.6-1-1.2-1.3-1.7
			C281.5,535.6,281.5,534.6,282.1,533.4z M278.5,545.2c0.5-0.6,0.9-0.9,1.1-1.3c0.4-0.5,0.6-1,0.8-1.9c0.8,0.7,1.3,1.4,1.6,1.9
			c0.7,1.2,0.5,2,0,3.1c-0.1,0.2-0.2,0.5-0.4,0.8c-2.3,4.5-1.5,6.8-0.8,9c-0.5-0.3-0.9-0.7-1.2-1
			C276.1,552.4,276.1,547.9,278.5,545.2z M276.4,559.7c1.1,2.1,1.8,1.8,2.3,1.6c0.9,1,1.1,1.5,0.6,3.1c-1.1-1.4-1.8,0.8-2.8-0.7
			c-0.1,0.2-0.3,0.3-0.4,0.4c-0.5,0.3-1.3,0.4-2.1,0.3c-0.6-1.5-0.9-2.9-1.3-4.3l-0.1-0.3l0.1,0.1c1.1,0.7,1.4,1.1,2.4,1.9
			c0.3-0.1,0.6-1.3,1-1.7C276.2,559.7,276.3,559.7,276.4,559.7z M271,544.6c0.7-1.3,1.5-3.1,0.7-5.2c0.4,0.3,0.7,0.5,1,0.8
			c2.1,2,1.5,4.5,1.2,5.9c-1.2,4.9,0.5,7.4,1.7,9.9c-1.1-0.6-2.1-1.4-2.8-2.2C269.8,550.8,269.7,547,271,544.6z M268.1,567.2
			c-2.3-1.6-4.3-3.7-4.6-6.6c1.7,0.4,2.3,0.9,4,1.1c0.2-0.4,0.4-0.7,0.6-1.1c0.3-0.4,0.6-0.9,1-1.3c1.2,1.5,2.5,3.2,3.5,4.7l0.1,0.2
			l-0.1,0c-1.4,0.1-2.8,0-4.4-0.6c0.5,1.5,0.6,2.8,0.7,4.1C268.7,567.6,268.4,567.4,268.1,567.2z"/>
	</g>
	<g id="XMLID_9054_">
		<path d="M286.3,574.1c0,0.9,0.5,1.3,1,1.3s1-0.4,1-1.3h-1H286.3z"/>
	</g>
</g>
<g id="XMLID_9052_">
	<polygon points="341.7,500.1 346.3,508.3 356.2,509.8 349.1,516.4 350.7,525.6 341.7,521.4 332.8,525.6 334.3,516.4 327.2,509.8 
		337.1,508.3 	"/>
</g>
<g id="XMLID_9049_">
	<path class="st0" d="M346.6,509.9c-0.9-1-2.1-1.5-3.8-1.5h0h-3.9h-1.3V521h1.3h3.7h0.2c1.7,0,2.9-0.6,3.8-1.7
		c0.9-1.1,1.4-2.8,1.4-4.9C347.9,512.4,347.4,510.9,346.6,509.9z M344.5,517.7c-0.4,0.6-1.1,1-1.9,1.1c-0.2,0-0.3,0-0.5,0h-2.1v-8.3
		h2.4l0.3,0c0.8,0.1,1.5,0.4,1.9,1c0.5,0.7,0.7,1.6,0.7,2.9C345.3,515.9,345.1,517,344.5,517.7z"/>
</g>
<g id="XMLID_9014_">
	<path class="st1" d="M121.7,619.1L121.7,619.1v-6.5h0.7h0.7v5.4h3.2v0.6v0.6H121.7z M116.1,619.1v-6.5h4.6v0.6v0.6h-3.3v1.5h2.9
		v0.6v0.6h-2.9v2.8h-0.7H116.1z M110.8,619.1L110.8,619.1h-0.6h-0.6v-6.5h0.7h0.7l2.6,4.6v-4.6h0.6h0.6v6.5h-0.7h-0.7l-2.7-4.7
		V619.1z M106.9,619.1v-6.5h0.7h0.7v6.5h-0.7H106.9z M121.4,600l0.9-1.3h1.4l-1.3,1.3H121.4z M121.3,607.2v-6.5h0.7h0.7v6.5H122
		H121.3z M126.8,618.9v0.2h-0.1L126.8,618.9z M126.8,600.5v1.2c-0.6,0-1,0.2-1.3,0.6c-0.3,0.4-0.5,1-0.5,1.7c0,0.7,0.2,1.3,0.5,1.7
		c0.3,0.4,0.7,0.6,1.3,0.6v1.2c-1,0-1.7-0.3-2.3-0.9c-0.6-0.6-0.8-1.4-0.8-2.5c0-1.1,0.3-1.9,0.8-2.5
		C125,600.8,125.8,600.5,126.8,600.5 M115.9,607.2L115.9,607.2v-6.5h0.7h0.7v5.4h3.2v0.6v0.6H115.9z M129.8,612.6v1.5v0l-0.9,2.6
		h0.9v1.1h-1.2l-0.4,1.3h-0.7h-0.6v-0.2l2.2-6.3H129.8z M129.8,602.8v2.3c-0.1,0.4-0.3,0.8-0.6,1.2l0.6,0.5v0.3l-0.5,0.6l-0.8-0.7
		c-0.5,0.3-1,0.4-1.7,0.4v-1.2c0.3,0,0.5,0,0.7-0.1l-0.7-0.6l0.7-0.7l0.7,0.6c0.2-0.4,0.3-0.8,0.3-1.4c0-0.7-0.2-1.3-0.5-1.7
		c-0.3-0.4-0.7-0.6-1.3-0.6v-1.2c1,0,1.7,0.3,2.3,0.9C129.4,601.8,129.6,602.3,129.8,602.8 M135,619.1L135,619.1h-0.6h-0.6v-6.5h1h1
		l1.2,5.2l1.2-5.2h1h1v6.5h-0.6h-0.6v-5.5l-1.2,5.5h-0.7h-0.7l-1.2-5.6V619.1z M137.4,607.2v-6.5h0.7h0.7v6.5h-0.7H137.4z
		 M136.2,604.8c0,0.9-0.2,1.6-0.6,2c-0.4,0.4-1.1,0.6-2,0.6c-0.9,0-1.6-0.2-2-0.6c-0.4-0.4-0.6-1.1-0.7-2v-4.1h0.7h0.7v4.1
		c0,0.5,0.1,0.8,0.3,1.1c0.2,0.2,0.5,0.4,1,0.4c0.5,0,0.8-0.1,1-0.3c0.2-0.2,0.3-0.6,0.3-1.1v-4.1h0.7h0.7V604.8z M129.8,605.1v-2.3
		c0.1,0.3,0.1,0.7,0.1,1.1C129.9,604.4,129.9,604.8,129.8,605.1 M129.8,607.1v-0.3l0.2,0.1L129.8,607.1z M129.8,617.8v-1.1h0.9
		l-0.9-2.6v-1.5h0h0.8l2.3,6.5h-0.7h-0.7l-0.4-1.3H129.8z M142.8,613.4v4.4h-0.2l-0.4,1.3h-0.7h-0.7L142.8,613.4z M142.8,600.7v1.1
		l-0.1,0h-1.3v4.3h1.1c0.1,0,0.2,0,0.3,0v1.1l-0.1,0h-2h-0.7v-6.5h0.7H142.8z M143.9,612.6v1.5v0l-0.9,2.6h0.9v1.1h-1.1v-4.4
		l0.3-0.8H143.9z M143.9,611.1v0.8h-0.5L143.9,611.1z M143.9,605.4v1.6c-0.3,0.1-0.7,0.2-1.1,0.2v-1.1c0.4-0.1,0.8-0.2,1-0.5
		L143.9,605.4z M143.9,600.8v1.5l0-0.1c-0.2-0.3-0.6-0.5-1-0.5v-1.1h0C143.2,600.7,143.6,600.7,143.9,600.8 M143.9,607v-1.6
		c0.2-0.4,0.3-0.9,0.3-1.6c0-0.6-0.1-1.1-0.3-1.5v-1.5c0.4,0.1,0.7,0.3,1,0.6c0.5,0.5,0.7,1.3,0.7,2.3c0,1.1-0.2,2-0.7,2.5
		C144.6,606.7,144.3,606.9,143.9,607 M143.9,611.9v-0.8l0.3-0.5h1.4l-1.3,1.3H143.9z M143.9,617.8v-1.1h0.9l-0.9-2.6v-1.5h0h0.8
		l2.3,6.5h-0.7h-0.7l-0.4-1.3H143.9z M149.5,614.9v3.9l-2.1-6.2h0.7h0.7L149.5,614.9z M149.5,600.5v1.2c-0.6,0-1,0.2-1.3,0.6
		c-0.3,0.4-0.5,1-0.5,1.7c0,0.7,0.2,1.3,0.5,1.7c0.3,0.4,0.7,0.6,1.3,0.6v1.2c-1,0-1.7-0.3-2.3-0.9c-0.6-0.6-0.8-1.4-0.8-2.5
		c0-1.1,0.3-1.9,0.8-2.5C147.7,600.8,148.5,600.5,149.5,600.5z M166,614.5L166,614.5c0-0.3-0.2-0.6-0.4-0.7c-0.2-0.2-0.6-0.3-1-0.3
		c-0.3,0-0.6,0.1-0.8,0.2c-0.2,0.2-0.3,0.4-0.3,0.6c0,0.2,0.1,0.3,0.3,0.5c0.2,0.1,0.6,0.2,1.3,0.4c0.9,0.2,1.6,0.5,1.9,0.7
		c0.3,0.3,0.5,0.7,0.5,1.3c0,0.6-0.2,1.1-0.7,1.5c-0.5,0.4-1.1,0.5-2,0.5c-0.8,0-1.5-0.2-1.9-0.6s-0.7-0.9-0.7-1.6h1.3
		c0,0.3,0.1,0.6,0.4,0.8c0.2,0.2,0.6,0.3,1,0.3c0.4,0,0.8-0.1,1-0.2c0.2-0.1,0.4-0.3,0.4-0.6c0-0.2-0.1-0.4-0.3-0.5
		c-0.2-0.1-0.5-0.2-1.1-0.4c-1-0.2-1.7-0.5-2.1-0.7c-0.3-0.3-0.5-0.7-0.5-1.2c0-0.6,0.2-1.1,0.7-1.5c0.5-0.4,1.1-0.6,1.9-0.6
		c0.7,0,1.3,0.2,1.8,0.6c0.5,0.4,0.7,0.9,0.8,1.6H166z M159.9,619.1v-6.5h0.7h0.7v6.5h-0.7H159.9z M153.9,619.1L153.9,619.1v-6.5
		h4.8v0.6v0.6h-3.4v1.4h3.2v0.6v0.6h-3.2v1.7h3.6v0.6v0.6H153.9z M157.2,602.7L157.2,602.7c0-0.3-0.2-0.6-0.4-0.7
		c-0.2-0.2-0.6-0.3-1-0.3c-0.3,0-0.6,0.1-0.8,0.2c-0.2,0.2-0.3,0.4-0.3,0.6c0,0.2,0.1,0.3,0.3,0.5c0.2,0.1,0.6,0.2,1.3,0.4
		c0.9,0.2,1.6,0.5,1.9,0.7c0.3,0.3,0.5,0.7,0.5,1.3c0,0.6-0.2,1.1-0.7,1.5c-0.5,0.4-1.1,0.5-2,0.5c-0.8,0-1.5-0.2-1.9-0.6
		c-0.5-0.4-0.7-0.9-0.7-1.6h1.3c0,0.3,0.1,0.6,0.4,0.8c0.2,0.2,0.6,0.3,1,0.3c0.4,0,0.8-0.1,1-0.2c0.2-0.1,0.4-0.3,0.4-0.6
		c0-0.2-0.1-0.4-0.3-0.5c-0.2-0.1-0.5-0.2-1.1-0.4c-1-0.2-1.7-0.5-2.1-0.7c-0.3-0.3-0.5-0.7-0.5-1.2c0-0.6,0.2-1.1,0.7-1.5
		c0.5-0.4,1.1-0.6,1.9-0.6c0.7,0,1.3,0.2,1.8,0.6c0.5,0.4,0.7,0.9,0.8,1.6H157.2z M149.5,607.4v-1.2c0.6,0,1-0.2,1.3-0.6
		c0.3-0.4,0.5-1,0.5-1.7c0-0.7-0.2-1.3-0.5-1.7c-0.3-0.4-0.7-0.6-1.3-0.6v-1.2c1,0,1.7,0.3,2.3,0.9c0.6,0.6,0.8,1.5,0.8,2.5
		c0,1-0.3,1.9-0.8,2.5C151.2,607.1,150.4,607.4,149.5,607.4 M149.5,618.8v-3.9l0.8,2.7h0l1.4-5h0.7h0.7l-2.2,6.5h-0.6h-0.7
		L149.5,618.8z"/>
</g>
<g id="XMLID_8982_">
	<path class="st3" d="M38.9,600.5v1.2c-0.6,0-1,0.2-1.3,0.6c-0.3,0.4-0.5,1-0.5,1.7c0,0.7,0.2,1.3,0.5,1.7c0.3,0.4,0.7,0.6,1.3,0.6
		v1.2c-1,0-1.7-0.3-2.3-0.9c-0.6-0.6-0.8-1.4-0.8-2.5c0-1.1,0.3-1.9,0.8-2.5C37.2,600.8,37.9,600.5,38.9,600.5 M35.4,604.9
		L35.4,604.9c-0.1,0.8-0.4,1.4-0.9,1.8c-0.5,0.4-1.2,0.7-1.9,0.7c-0.9,0-1.6-0.3-2.2-0.9c-0.5-0.6-0.8-1.4-0.8-2.5
		c0-1.1,0.3-1.9,0.8-2.5c0.5-0.6,1.3-0.9,2.2-0.9c0.8,0,1.4,0.2,1.9,0.6c0.5,0.4,0.8,1,0.9,1.7H34c0-0.3-0.2-0.6-0.5-0.8
		c-0.3-0.2-0.6-0.3-1-0.3c-0.5,0-0.9,0.2-1.2,0.6c-0.3,0.4-0.4,1-0.4,1.7c0,0.7,0.1,1.2,0.4,1.6c0.3,0.4,0.7,0.6,1.2,0.6
		c0.4,0,0.7-0.1,1-0.3c0.3-0.2,0.4-0.5,0.5-0.9H35.4z M46.6,614.5L46.6,614.5c0-0.3-0.2-0.6-0.4-0.7c-0.2-0.2-0.6-0.3-1-0.3
		c-0.3,0-0.6,0.1-0.8,0.2c-0.2,0.2-0.3,0.4-0.3,0.6c0,0.2,0.1,0.3,0.3,0.5c0.2,0.1,0.6,0.2,1.3,0.4c0.9,0.2,1.6,0.5,1.9,0.7
		c0.3,0.3,0.5,0.7,0.5,1.3c0,0.6-0.2,1.1-0.7,1.5c-0.5,0.4-1.1,0.5-2,0.5c-0.8,0-1.5-0.2-1.9-0.6c-0.5-0.4-0.7-0.9-0.7-1.6H44
		c0,0.3,0.1,0.6,0.4,0.8c0.2,0.2,0.6,0.3,1,0.3c0.4,0,0.8-0.1,1-0.2c0.2-0.1,0.4-0.3,0.4-0.6c0-0.2-0.1-0.4-0.3-0.5
		c-0.2-0.1-0.5-0.2-1.1-0.4c-1-0.2-1.7-0.5-2.1-0.7c-0.3-0.3-0.5-0.7-0.5-1.2c0-0.6,0.2-1.1,0.7-1.5c0.5-0.4,1.1-0.6,1.9-0.6
		c0.7,0,1.3,0.2,1.8,0.6c0.5,0.4,0.7,0.9,0.8,1.6H46.6z M43.9,607.2L43.9,607.2h-0.6h-0.6v-6.5h1h1l1.2,5.2l1.2-5.2h1h1v6.5h-0.6
		h-0.6v-5.5l-1.2,5.5h-0.7h-0.7l-1.2-5.6V607.2z M38.9,607.4v-1.2c0.6,0,1-0.2,1.3-0.6c0.3-0.4,0.5-1,0.5-1.7c0-0.7-0.2-1.3-0.5-1.7
		c-0.3-0.4-0.7-0.6-1.3-0.6v-1.2c1,0,1.7,0.3,2.3,0.9c0.6,0.6,0.8,1.5,0.8,2.5c0,1-0.3,1.9-0.8,2.5
		C40.6,607.1,39.9,607.4,38.9,607.4 M52.5,612.5v1.3c-0.3-0.2-0.6-0.3-0.9-0.3c-0.6,0-1,0.2-1.3,0.6c-0.3,0.4-0.5,1-0.5,1.7
		c0,0.7,0.2,1.3,0.5,1.7c0.3,0.4,0.7,0.6,1.3,0.6c0.4,0,0.7-0.1,0.9-0.3v1.3c-0.3,0.1-0.6,0.1-0.9,0.1c-1,0-1.7-0.3-2.3-0.9
		c-0.6-0.6-0.8-1.4-0.8-2.5c0-1.1,0.3-1.9,0.8-2.5c0.6-0.6,1.3-0.9,2.3-0.9C51.9,612.4,52.2,612.4,52.5,612.5 M52.5,610.6v0.8
		l-0.6,0.6H51l0.9-1.3H52.5z M52.5,600.7v1.1h-1.3v1.4h1.3v1.1h-1.3v1.7h1.3v1.1h-1.9h-0.7v-6.5h0.7H52.5z M60.5,619.1v-6.5h0.7h0.7
		v6.5h-0.7H60.5z M55.4,619.1L55.4,619.1v-6.5h0.7h0.7v5.4H60v0.6v0.6H55.4z M61.3,604.8c0,0.9-0.2,1.6-0.6,2
		c-0.4,0.4-1.1,0.6-2,0.6c-0.9,0-1.6-0.2-2-0.6c-0.4-0.4-0.6-1.1-0.6-2v-4.1h0.7h0.7v4.1c0,0.5,0.1,0.8,0.3,1.1
		c0.2,0.2,0.5,0.4,1,0.4c0.5,0,0.8-0.1,1-0.3c0.2-0.2,0.3-0.6,0.3-1.1v-4.1h0.7h0.7V604.8z M52.5,607.2v-1.1h0.4
		c0.4,0,0.6-0.1,0.8-0.2c0.2-0.2,0.3-0.4,0.3-0.7c0-0.3-0.1-0.5-0.3-0.6c-0.2-0.1-0.5-0.2-0.8-0.2h-0.3v-1.1h0.3
		c0.3,0,0.6-0.1,0.8-0.2c0.2-0.1,0.3-0.3,0.3-0.6c0-0.2-0.1-0.4-0.3-0.5c-0.2-0.1-0.4-0.2-0.8-0.2h-0.2v-1.1h0.6
		c0.6,0,1.1,0.1,1.5,0.4c0.4,0.3,0.5,0.7,0.5,1.2c0,0.5-0.2,1-0.6,1.2c-0.1,0-0.1,0.1-0.2,0.1c0.2,0.1,0.3,0.1,0.4,0.2
		c0.4,0.3,0.6,0.7,0.6,1.3c0,0.7-0.2,1.2-0.6,1.5c-0.4,0.3-1,0.5-1.8,0.5H52.5z M52.5,611.4v-0.8h0.8L52.5,611.4z M52.5,619.2v-1.3
		c0.1-0.1,0.3-0.2,0.4-0.3c0.3-0.4,0.5-1,0.5-1.7c0-0.7-0.2-1.3-0.5-1.7c-0.1-0.1-0.2-0.3-0.4-0.3v-1.3c0.5,0.1,1,0.4,1.3,0.8
		c0.6,0.6,0.8,1.5,0.8,2.5c0,1-0.3,1.9-0.8,2.5C53.5,618.8,53,619,52.5,619.2 M65.5,612.6v1.1l-0.1,0h-1.3v4.3h1.1
		c0.1,0,0.2,0,0.3,0v1.1h-0.1h-2h-0.7v-6.5h0.7H65.5z M65.5,606.1v1.2c-0.3,0.1-0.6,0.1-0.9,0.1c-0.8,0-1.5-0.2-1.9-0.6
		c-0.5-0.4-0.7-0.9-0.7-1.6h1.3c0,0.3,0.1,0.6,0.4,0.8c0.2,0.2,0.6,0.3,1,0.3C65,606.3,65.3,606.2,65.5,606.1 M65.5,600.6v1.3
		l-0.1-0.1c-0.2-0.2-0.6-0.3-1-0.3c-0.3,0-0.6,0.1-0.8,0.2c-0.2,0.2-0.3,0.4-0.3,0.6c0,0.2,0.1,0.3,0.3,0.5c0.2,0.1,0.6,0.2,1.3,0.4
		c0.2,0,0.4,0.1,0.6,0.1v1.3c-0.2-0.1-0.5-0.2-0.8-0.2c-1-0.2-1.7-0.5-2.1-0.7c-0.3-0.3-0.5-0.7-0.5-1.2c0-0.6,0.2-1.1,0.7-1.5
		c0.5-0.4,1.1-0.6,1.9-0.6C64.9,600.5,65.2,600.6,65.5,600.6 M65.5,602v-1.3c0.3,0.1,0.6,0.2,0.9,0.5c0.5,0.4,0.7,0.9,0.8,1.6h-1.3
		C65.8,602.4,65.7,602.2,65.5,602 M65.5,607.3v-1.2c0.1,0,0.1,0,0.2-0.1c0.2-0.1,0.4-0.3,0.4-0.6c0-0.2-0.1-0.4-0.3-0.5
		c-0.1,0-0.1-0.1-0.3-0.1v-1.3c0.6,0.2,1.1,0.4,1.3,0.6c0.3,0.3,0.5,0.7,0.5,1.3c0,0.6-0.2,1.1-0.7,1.5
		C66.3,607.1,65.9,607.2,65.5,607.3 M65.5,619.1V618c0.4,0,0.8-0.2,1-0.5c0.3-0.4,0.4-0.9,0.4-1.7c0-0.7-0.1-1.2-0.4-1.5
		c-0.2-0.3-0.6-0.5-1-0.5v-1.1h0c0.9,0,1.6,0.3,2,0.8c0.5,0.5,0.7,1.3,0.7,2.3c0,1.1-0.2,2-0.7,2.5
		C67.1,618.8,66.4,619.1,65.5,619.1 M71.7,612.4v1.2c-0.6,0-1,0.2-1.3,0.6c-0.3,0.4-0.5,1-0.5,1.7c0,0.7,0.2,1.3,0.5,1.7
		c0.3,0.4,0.7,0.6,1.3,0.6v1.2c-1,0-1.7-0.3-2.3-0.9c-0.6-0.6-0.8-1.4-0.8-2.5c0-1.1,0.3-1.9,0.8-2.5
		C70,612.7,70.8,612.4,71.7,612.4z M71.7,600.7v1.2h-1v5.4H70h-0.7v-5.4h-2v-0.6v-0.6H71.7z M79.1,614.5L79.1,614.5
		c0-0.3-0.2-0.6-0.4-0.7c-0.2-0.2-0.6-0.3-1-0.3c-0.3,0-0.6,0.1-0.8,0.2c-0.2,0.2-0.3,0.4-0.3,0.6c0,0.2,0.1,0.3,0.3,0.5
		c0.2,0.1,0.6,0.2,1.3,0.4c0.9,0.2,1.6,0.5,1.9,0.7c0.3,0.3,0.5,0.7,0.5,1.3c0,0.6-0.2,1.1-0.7,1.5c-0.5,0.4-1.1,0.5-2,0.5
		c-0.8,0-1.5-0.2-1.9-0.6c-0.5-0.4-0.7-0.9-0.7-1.6h1.3c0,0.3,0.1,0.6,0.4,0.8c0.2,0.2,0.6,0.3,1,0.3c0.4,0,0.8-0.1,1-0.2
		c0.2-0.1,0.4-0.3,0.4-0.6c0-0.2-0.1-0.4-0.3-0.5c-0.2-0.1-0.5-0.2-1.1-0.4c-1-0.2-1.7-0.5-2.1-0.7c-0.3-0.3-0.5-0.7-0.5-1.2
		c0-0.6,0.2-1.1,0.7-1.5c0.5-0.4,1.1-0.6,1.9-0.6c0.7,0,1.3,0.2,1.8,0.6c0.5,0.4,0.7,0.9,0.8,1.6H79.1z M92.3,602.7L92.3,602.7
		c0-0.3-0.2-0.6-0.4-0.7c-0.2-0.2-0.6-0.3-1-0.3c-0.3,0-0.6,0.1-0.8,0.2c-0.2,0.2-0.3,0.4-0.3,0.6c0,0.2,0.1,0.3,0.3,0.5
		c0.2,0.1,0.6,0.2,1.3,0.4c0.9,0.2,1.6,0.5,1.9,0.7c0.3,0.3,0.5,0.7,0.5,1.3c0,0.6-0.2,1.1-0.7,1.5c-0.5,0.4-1.1,0.5-2,0.5
		c-0.8,0-1.5-0.2-1.9-0.6c-0.5-0.4-0.7-0.9-0.7-1.6h1.3c0,0.3,0.1,0.6,0.4,0.8c0.2,0.2,0.6,0.3,1,0.3c0.4,0,0.8-0.1,1-0.2
		c0.2-0.1,0.4-0.3,0.4-0.6c0-0.2-0.1-0.4-0.3-0.5c-0.2-0.1-0.5-0.2-1.1-0.4c-1-0.2-1.7-0.5-2.1-0.7c-0.3-0.3-0.5-0.7-0.5-1.2
		c0-0.6,0.2-1.1,0.7-1.5c0.5-0.4,1.1-0.6,1.9-0.6c0.7,0,1.3,0.2,1.8,0.6c0.5,0.4,0.7,0.9,0.8,1.6H92.3z M86.5,607.2v-6.5h0.7h0.7
		v6.5h-0.7H86.5z M80.9,607.2L80.9,607.2v-6.5h4.8v0.6v0.6h-3.4v1.4h3.2v0.6v0.6h-3.2v1.7h3.6v0.6v0.6H80.9z M74.7,600.7L74.7,600.7
		h0.7h0.7l1.4,5l1.4-5h0.7h0.7l-2.2,6.5h-0.6H77L74.7,600.7z M73.1,600l0.9-1.3h1.4l-1.3,1.3H73.1z M73,607.2v-6.5h0.7h0.7v6.5h-0.7
		H73z M71.7,601.9v-1.2h0.9v0.6v0.6H71.7z M71.7,619.3v-1.2c0.6,0,1-0.2,1.3-0.6c0.3-0.4,0.5-1,0.5-1.7c0-0.7-0.2-1.3-0.5-1.7
		c-0.3-0.4-0.7-0.6-1.3-0.6v-1.2c1,0,1.7,0.3,2.3,0.9c0.6,0.6,0.8,1.5,0.8,2.5c0,1-0.3,1.9-0.8,2.5C73.5,619,72.7,619.3,71.7,619.3"
		/>
</g>
<g id="XMLID_8946_">
	<path class="st2" d="M185.6,600.5v1.2h0c-0.6,0-1,0.2-1.3,0.6c-0.3,0.4-0.5,1-0.5,1.7c0,0.7,0.2,1.3,0.5,1.7
		c0.3,0.4,0.7,0.6,1.3,0.6h0v1.2h0c-1,0-1.7-0.3-2.3-0.9c-0.6-0.6-0.8-1.4-0.8-2.5c0-1.1,0.3-1.9,0.8-2.5
		C183.9,600.8,184.6,600.5,185.6,600.5L185.6,600.5z M176.7,607.2L176.7,607.2v-6.5h4.8v0.6v0.6H178v1.4h3.2v0.6v0.6H178v1.7h3.6
		v0.6v0.6H176.7z M193.6,619.1L193.6,619.1v-6.5h0.7h0.7v5.4h3.2v0.6v0.6H193.6z M187.5,619.1L187.5,619.1v-6.5h4.8v0.6v0.6h-3.4
		v1.4h3.2v0.6v0.6h-3.2v1.7h3.6v0.6v0.6H187.5z M196.2,607.2v-6.5h0.7h0.7v6.5h-0.7H196.2z M195,604.8c0,0.9-0.2,1.6-0.6,2
		c-0.4,0.4-1.1,0.6-2,0.6c-0.9,0-1.6-0.2-2-0.6c-0.4-0.4-0.6-1.1-0.7-2v-4.1h0.7h0.7v4.1c0,0.5,0.1,0.8,0.3,1.1
		c0.2,0.2,0.5,0.3,1,0.3c0.5,0,0.8-0.1,1-0.3c0.2-0.2,0.3-0.6,0.3-1.1v-4.1h0.7h0.7V604.8z M185.6,607.4v-1.2c0.3,0,0.5,0,0.7-0.1
		l-0.7-0.6l0.7-0.7l0.7,0.7c0.2-0.4,0.3-0.8,0.3-1.4c0-0.7-0.2-1.3-0.5-1.7c-0.3-0.4-0.7-0.6-1.3-0.6v-1.2c1,0,1.7,0.3,2.3,0.9
		c0.6,0.6,0.8,1.5,0.8,2.5c0,0.9-0.2,1.7-0.7,2.3l0.7,0.7l-0.7,0.7l-0.8-0.7C186.8,607.2,186.2,607.4,185.6,607.4 M201.4,612.6v1.2
		h-0.9v1.4h0.9v1.1h-0.9v1.7h0.9v1.2h-2.2v-6.5H201.4z M201.4,611.3v0.6H201L201.4,611.3z M201.4,600.7v1.1h0h-1.1v1.9h1.1h0v1.1
		c-0.4,0-0.8,0-1.1,0v2.3h-0.7h-0.7v-6.5h0.7H201.4z M201.4,604.9v-1.1c0.4,0,0.7-0.1,0.9-0.3c0.2-0.2,0.3-0.4,0.3-0.8
		c0-0.3-0.1-0.5-0.3-0.7c-0.2-0.2-0.5-0.2-0.9-0.2v-1.1h0.2c0.7,0,1.3,0.2,1.7,0.5c0.4,0.3,0.6,0.9,0.6,1.5c0,0.7-0.2,1.2-0.6,1.6
		c-0.4,0.4-1,0.5-1.7,0.5H201.4z M201.4,611.9v-0.6l0.5-0.7h1.4l-1.3,1.3H201.4z M201.4,613.7v-1.2h2.5v0.6v0.6H201.4z M201.4,616.2
		v-1.1h2.3v0.6v0.6H201.4z M201.4,619.1v-1.2h2.7v0.6v0.6H201.4z M207.5,612.6v6.5h-0.2h-0.7v-5.4h-2v-0.6v-0.6H207.5z M207.5,600.7
		v1.5l-0.9,2.6h0.9v1.1h-1.2l-0.4,1.3h-0.7h-0.7l2.3-6.5H207.5z M207.5,605.9v-1.1h0.9l-0.9-2.6v-1.5h0h0.8l2.3,6.5h-0.7h-0.7
		l-0.4-1.3H207.5z M207.5,619.1v-6.5h2.4v0.6v0.6h-2v5.4H207.5z M213.4,612.6v1.1h-1.3v1.7h1.3v1.1h-1.3v2.6h-0.7h-0.7v-6.5h0.7
		H213.4z M213.4,600.7v4.2l-0.7-3.3h0v5.6h-0.6h-0.6v-6.5h1H213.4z M225.3,616.8L225.3,616.8c-0.1,0.8-0.4,1.4-0.9,1.8
		c-0.5,0.4-1.2,0.7-1.9,0.7c-0.9,0-1.6-0.3-2.2-0.9c-0.5-0.6-0.8-1.4-0.8-2.5c0-1.1,0.3-1.9,0.8-2.5c0.5-0.6,1.3-0.9,2.2-0.9
		c0.8,0,1.4,0.2,1.9,0.6c0.5,0.4,0.8,1,0.9,1.7H224c0-0.4-0.2-0.6-0.5-0.8c-0.3-0.2-0.6-0.3-1-0.3c-0.5,0-0.9,0.2-1.2,0.6
		c-0.3,0.4-0.4,1-0.4,1.7c0,0.7,0.1,1.2,0.4,1.6c0.3,0.4,0.7,0.6,1.2,0.6c0.4,0,0.7-0.1,1-0.3c0.3-0.2,0.4-0.5,0.5-0.9H225.3z
		 M217.2,619.1v-6.5h0.7h0.7v6.5h-0.7H217.2z M219,607.2L219,607.2v-6.5h4.8v0.6v0.6h-3.4v1.4h3.2v0.6v0.6h-3.2v1.7h3.6v0.6v0.6H219
		z M213.4,604.9v-4.2h0l1.2,5.2l1.2-5.2h1h1v6.5h-0.6h-0.6v-5.5l-1.2,5.5h-0.7h-0.7L213.4,604.9z M213.4,616.5v-1.1h0.3
		c0.4,0,0.6-0.1,0.8-0.2c0.2-0.1,0.3-0.4,0.3-0.6s-0.1-0.5-0.3-0.6c-0.2-0.1-0.4-0.2-0.7-0.2h-0.3v-1.1h0.6c0.6,0,1.1,0.2,1.5,0.5
		c0.4,0.3,0.6,0.8,0.6,1.3c0,0.6-0.2,1.1-0.6,1.4c-0.1,0.1-0.2,0.1-0.4,0.2c0.1,0,0.2,0.1,0.2,0.1c0.4,0.2,0.6,0.6,0.6,1.1l0,1.1
		c0,0.2,0,0.4,0.1,0.5c0,0.1,0.1,0.2,0.2,0.2v0.2h-1.5c0-0.1-0.1-0.2-0.1-0.4c0-0.2,0-0.5,0-0.7l0-0.6c0-0.3-0.1-0.5-0.3-0.6
		C214.1,616.6,213.8,616.5,213.4,616.5L213.4,616.5z M229.2,612.4v1.2c-0.6,0-1,0.2-1.3,0.6c-0.3,0.4-0.5,1-0.5,1.7
		c0,0.7,0.2,1.3,0.5,1.7c0.3,0.4,0.7,0.6,1.3,0.6v1.2c-1,0-1.7-0.3-2.3-0.9c-0.6-0.6-0.8-1.4-0.8-2.5c0-1.1,0.3-1.9,0.8-2.5
		C227.5,612.7,228.2,612.4,229.2,612.4z M229.2,600.7v6.5H229l-2.7-4.7v4.7h-0.6H225v-6.5h0.7h0.7l2.6,4.6v-4.6H229.2z M237,614.5
		L237,614.5c0-0.3-0.2-0.6-0.4-0.7c-0.2-0.2-0.6-0.3-1-0.3c-0.3,0-0.6,0.1-0.8,0.2c-0.2,0.2-0.3,0.4-0.3,0.6c0,0.2,0.1,0.3,0.3,0.5
		c0.2,0.1,0.6,0.2,1.3,0.4c0.9,0.2,1.6,0.5,1.9,0.7c0.3,0.3,0.5,0.7,0.5,1.3c0,0.6-0.2,1.1-0.7,1.5c-0.5,0.4-1.1,0.5-2,0.5
		c-0.8,0-1.5-0.2-1.9-0.6c-0.5-0.4-0.7-0.9-0.7-1.6h1.3c0,0.3,0.1,0.6,0.4,0.8c0.2,0.2,0.6,0.3,1,0.3c0.4,0,0.8-0.1,1-0.2
		c0.2-0.1,0.4-0.3,0.4-0.6c0-0.2-0.1-0.4-0.3-0.5c-0.2-0.1-0.5-0.2-1.1-0.4c-1-0.2-1.7-0.5-2.1-0.7c-0.3-0.3-0.5-0.7-0.5-1.2
		c0-0.6,0.2-1.1,0.7-1.5s1.1-0.6,1.9-0.6c0.7,0,1.3,0.2,1.8,0.6c0.5,0.4,0.7,0.9,0.8,1.6H237z M233.1,607.2v-5.4h-2v-0.6v-0.6h5.3
		v0.6v0.6h-2v5.4h-0.7H233.1z M229.2,607.2v-6.5h0.5h0.6v6.5h-0.7H229.2z M229.2,619.3v-1.2c0.6,0,1-0.2,1.3-0.6
		c0.3-0.4,0.5-0.9,0.5-1.7c0-0.7-0.2-1.3-0.5-1.7c-0.3-0.4-0.7-0.6-1.3-0.6v-1.2c1,0,1.7,0.3,2.3,0.9c0.6,0.6,0.8,1.5,0.8,2.5
		c0,1-0.3,1.9-0.8,2.5C230.9,619,230.2,619.3,229.2,619.3 M240,600.5v1.2c-0.6,0-1,0.2-1.3,0.6c-0.3,0.4-0.5,1-0.5,1.7
		c0,0.7,0.2,1.3,0.5,1.7c0.3,0.4,0.7,0.6,1.3,0.6v1.2c-1,0-1.7-0.3-2.3-0.9c-0.6-0.6-0.8-1.4-0.8-2.5c0-1.1,0.3-1.9,0.8-2.5
		C238.3,600.8,239.1,600.5,240,600.5z M247.8,602.7L247.8,602.7c0-0.3-0.2-0.6-0.4-0.7c-0.2-0.2-0.6-0.3-1-0.3
		c-0.3,0-0.6,0.1-0.8,0.2c-0.2,0.2-0.3,0.4-0.3,0.6c0,0.2,0.1,0.3,0.3,0.5c0.2,0.1,0.6,0.2,1.3,0.4c0.9,0.2,1.6,0.5,1.9,0.7
		c0.3,0.3,0.5,0.7,0.5,1.3c0,0.6-0.2,1.1-0.7,1.5c-0.5,0.4-1.1,0.5-2,0.5c-0.8,0-1.5-0.2-1.9-0.6c-0.5-0.4-0.7-0.9-0.7-1.6h1.3
		c0,0.3,0.1,0.6,0.4,0.8c0.2,0.2,0.6,0.3,1,0.3c0.4,0,0.8-0.1,1-0.2c0.2-0.1,0.4-0.3,0.4-0.6c0-0.2-0.1-0.4-0.3-0.5
		c-0.2-0.1-0.5-0.2-1.1-0.4c-1-0.2-1.7-0.5-2.1-0.7c-0.3-0.3-0.5-0.7-0.5-1.2c0-0.6,0.2-1.1,0.7-1.5c0.5-0.4,1.1-0.6,1.9-0.6
		c0.7,0,1.3,0.2,1.8,0.6c0.5,0.4,0.7,0.9,0.8,1.6H247.8z M240,607.4v-1.2c0.6,0,1-0.2,1.3-0.6c0.3-0.4,0.5-0.9,0.5-1.7
		c0-0.7-0.2-1.3-0.5-1.7c-0.3-0.4-0.7-0.6-1.3-0.6v-1.2c1,0,1.7,0.3,2.3,0.9c0.6,0.6,0.8,1.5,0.8,2.5c0,1-0.3,1.9-0.8,2.5
		C241.8,607.1,241,607.4,240,607.4"/>
</g>
<g id="XMLID_16_">
	<g id="XMLID_19_">
		<polygon points="276.1,607.4 276.1,607.4 276.1,607.4 		"/>
	</g>
	<g id="XMLID_25_">
		<path d="M281.9,612.6h-0.8h0h-0.8l-2.3,6.5h0.7h0.7l0.4-1.3h1.2h1.2l0.4,1.3h0.1h0.6h0.7l-1.4-3.8L281.9,612.6z M281.1,616.6h-0.9
			l0.9-2.6v0l0.9,2.6H281.1z"/>
	</g>
	<g id="XMLID_26_">
		<path d="M279,607.2v-3.5h-2.7v1.1h1.5v0c-0.1,0.3-0.2,0.6-0.4,0.8c-0.3,0.4-0.7,0.6-1.2,0.6c-0.6,0-1.1-0.2-1.4-0.6
			c-0.3-0.4-0.5-0.9-0.5-1.7c0-0.7,0.2-1.3,0.5-1.7c0.3-0.4,0.8-0.6,1.4-0.6c0.3,0,0.7,0.1,0.9,0.3c0.3,0.2,0.4,0.5,0.5,0.7h1.4
			c-0.1-0.7-0.4-1.2-0.9-1.6c-0.5-0.4-1.2-0.6-2-0.6c-1,0-1.8,0.3-2.4,0.9c-0.6,0.6-0.9,1.5-0.9,2.5c0,1,0.3,1.9,0.8,2.5
			c0.6,0.6,1.3,0.9,2.3,0.9c0.8,0,1.4-0.3,1.9-0.9l0.1-0.1l0.1,0.8H279z"/>
	</g>
	<g id="XMLID_27_">
		<polygon points="258.3,612.6 258.3,619.1 259,619.1 259.6,619.1 259.6,612.6 258.9,612.6 		"/>
	</g>
	<g id="XMLID_28_">
		<polygon points="297.9,607.2 297.9,606.6 297.9,606.1 295.2,606.1 294.3,606.1 294.3,604.4 295.2,604.4 297.5,604.4 297.5,603.8 
			297.5,603.2 295.2,603.2 294.3,603.2 294.3,601.9 295.2,601.9 297.7,601.9 297.7,601.3 297.7,600.7 295.2,600.7 292.9,600.7 
			292.9,607.2 295.2,607.2 		"/>
	</g>
	<g id="XMLID_29_">
		<polygon points="267.5,619.1 268.1,619.1 268.8,619.1 268.8,616.3 271.7,616.3 271.7,615.8 271.7,615.2 268.8,615.2 268.8,613.7 
			272.1,613.7 272.1,613.2 272.1,612.6 267.5,612.6 		"/>
	</g>
	<g id="XMLID_30_">
		<polygon points="274.4,612.6 273.7,612.6 273,612.6 273,619.1 277.6,619.1 277.6,618.5 277.6,617.9 274.4,617.9 		"/>
	</g>
	<g id="XMLID_31_">
		<polygon points="264.9,612.6 264.9,617.2 262.3,612.6 261.6,612.6 260.8,612.6 260.8,619.1 261.5,619.1 262.1,619.1 262.1,614.4 
			264.8,619.1 265.5,619.1 266.2,619.1 266.2,612.6 265.5,612.6 		"/>
	</g>
	<g id="XMLID_32_">
		<polygon points="294.7,611.9 295.2,611.9 295.6,611.9 297,610.6 295.6,610.6 295.2,611.1 		"/>
	</g>
	<g id="XMLID_33_">
		<polygon points="306.6,616.2 309.8,616.2 309.8,615.7 309.8,615.1 306.6,615.1 306.6,613.7 310.1,613.7 310.1,613.2 310.1,612.6 
			305.3,612.6 305.3,619.1 310.2,619.1 310.2,618.5 310.2,617.9 306.6,617.9 		"/>
	</g>
	<g id="XMLID_34_">
		<polygon points="303,612.6 301.6,617.6 300.1,612.6 299.4,612.6 298.7,612.6 300.9,619.1 301.6,619.1 302.2,619.1 304.4,612.6 
			303.7,612.6 		"/>
	</g>
	<g id="XMLID_35_">
		<polygon points="311.2,612.6 311.2,619.1 311.9,619.1 312.6,619.1 312.6,612.6 311.9,612.6 		"/>
	</g>
	<g id="XMLID_36_">
		<path d="M318.4,616c-0.3-0.3-1-0.5-1.9-0.7c-0.7-0.1-1.1-0.3-1.3-0.4c-0.2-0.1-0.3-0.3-0.3-0.5c0-0.3,0.1-0.5,0.3-0.6
			c0.2-0.2,0.5-0.2,0.8-0.2c0.4,0,0.7,0.1,1,0.3c0.2,0.2,0.4,0.4,0.4,0.7h1.3c-0.1-0.7-0.3-1.2-0.8-1.6c-0.5-0.4-1.1-0.6-1.8-0.6
			c-0.8,0-1.4,0.2-1.9,0.6c-0.5,0.4-0.7,0.9-0.7,1.5c0,0.6,0.2,1,0.5,1.2c0.4,0.3,1,0.5,2.1,0.7c0.6,0.1,0.9,0.2,1.1,0.4
			c0.2,0.1,0.3,0.3,0.3,0.5c0,0.2-0.1,0.4-0.4,0.6c-0.2,0.1-0.6,0.2-1,0.2c-0.4,0-0.8-0.1-1-0.3c-0.2-0.2-0.4-0.5-0.4-0.8h-1.3
			c0,0.7,0.3,1.2,0.7,1.6s1.1,0.6,1.9,0.6c0.8,0,1.5-0.2,2-0.5c0.5-0.4,0.7-0.8,0.7-1.5C318.9,616.7,318.7,616.2,318.4,616z"/>
	</g>
	<g id="XMLID_37_">
		<path d="M302.3,606.1c-0.2,0.1-0.6,0.2-1,0.2c-0.4,0-0.8-0.1-1-0.3c-0.2-0.2-0.4-0.5-0.4-0.8h-1.3c0,0.7,0.3,1.2,0.7,1.6
			c0.5,0.4,1.1,0.6,1.9,0.6c0.8,0,1.5-0.2,2-0.5c0.5-0.4,0.7-0.8,0.7-1.5c0-0.6-0.2-1.1-0.5-1.3c-0.3-0.3-1-0.5-1.9-0.7
			c-0.7-0.1-1.1-0.3-1.3-0.4c-0.2-0.1-0.3-0.3-0.3-0.5c0-0.3,0.1-0.5,0.3-0.6c0.2-0.2,0.5-0.2,0.8-0.2c0.4,0,0.7,0.1,1,0.3
			c0.2,0.2,0.4,0.4,0.4,0.7h1.3c0-0.7-0.3-1.2-0.8-1.6c-0.5-0.4-1.1-0.6-1.8-0.6c-0.8,0-1.4,0.2-1.9,0.6c-0.5,0.4-0.7,0.9-0.7,1.5
			c0,0.6,0.2,1,0.5,1.2c0.3,0.3,1,0.5,2.1,0.7c0.6,0.1,0.9,0.2,1.1,0.4c0.2,0.1,0.3,0.3,0.3,0.5
			C302.7,605.7,302.6,605.9,302.3,606.1z"/>
	</g>
	<g id="XMLID_40_">
		<path d="M286,607.2l-2.3-6.5h-0.8h0h-0.8l-1,2.8l-1.3,3.7h0.7h0.6h0.1l0.4-1.3h1.2h1.2l0.4,1.3h0.7H286z M282.9,604.8H282l0.9-2.6
			v0l0.9,2.6H282.9z"/>
	</g>
	<g id="XMLID_41_">
		<polygon points="289.4,612.6 288.2,617.7 287,612.6 286,612.6 285,612.6 285,619.1 285.7,619.1 286.3,619.1 286.3,613.5 
			287.5,619.1 288.2,619.1 288.9,619.1 290.1,613.6 290.1,619.1 290.7,619.1 291.4,619.1 291.4,612.6 290.4,612.6 		"/>
	</g>
	<g id="XMLID_42_">
		<path d="M289.5,603.3c-0.7-0.1-1.1-0.3-1.3-0.4c-0.2-0.1-0.3-0.3-0.3-0.5c0-0.3,0.1-0.5,0.3-0.6c0.2-0.2,0.5-0.2,0.8-0.2
			c0.4,0,0.7,0.1,1,0.3c0.3,0.2,0.4,0.4,0.4,0.7h1.3c0-0.7-0.3-1.2-0.8-1.6c-0.5-0.4-1-0.6-1.8-0.6c-0.8,0-1.4,0.2-1.9,0.6
			c-0.5,0.4-0.7,0.9-0.7,1.5c0,0.6,0.2,1,0.5,1.2c0.3,0.3,1,0.5,2.1,0.7c0.6,0.1,0.9,0.2,1.1,0.4c0.2,0.1,0.3,0.3,0.3,0.5
			c0,0.2-0.1,0.4-0.4,0.6c-0.2,0.1-0.6,0.2-1,0.2c-0.4,0-0.8-0.1-1-0.3c-0.2-0.2-0.4-0.5-0.4-0.8h-1.3c0,0.7,0.3,1.2,0.7,1.6
			c0.5,0.4,1.1,0.6,1.9,0.6c0.8,0,1.5-0.2,2-0.5c0.5-0.4,0.7-0.8,0.7-1.5c0-0.6-0.2-1.1-0.5-1.3
			C291.1,603.8,290.5,603.5,289.5,603.3z"/>
	</g>
	<g id="XMLID_45_">
		<path d="M295.2,612.6L295.2,612.6h-0.8l-2.3,6.5h0.7h0.7l0.4-1.3h1.2h1.2l0.4,1.3h0.7h0.7l-2.3-6.5H295.2z M295.2,616.6h-0.9
			l0.9-2.6v0l0.9,2.6H295.2z"/>
	</g>
</g>
<g id="XMLID_46_">
	<g id="XMLID_47_">
		<polygon points="333.8,612.6 333.8,619.1 334.4,619.1 335.1,619.1 335.1,612.6 334.4,612.6 		"/>
	</g>
	<g id="XMLID_50_">
		<path d="M356.6,612.6L356.6,612.6h-0.8l-2.3,6.5h0.7h0.7l0.4-1.3h1.2h1.2l0.4,1.3h0.7h0.7l-2.3-6.5H356.6z M356.6,616.6h-0.9
			l0.9-2.6v0l0.9,2.6H356.6z"/>
	</g>
	<g id="XMLID_51_">
		<polygon points="353.7,600.7 352.8,600.7 351.8,600.7 350.6,605.9 349.4,600.7 348.4,600.7 347.4,600.7 347.4,607.2 348.1,607.2 
			348.7,607.2 348.7,601.6 349.9,607.2 350.6,607.2 351.2,607.2 352.5,601.8 352.5,607.2 353.1,607.2 353.7,607.2 		"/>
	</g>
	<g id="XMLID_52_">
		<polygon points="374.5,607.2 374.5,600.7 373.8,600.7 373.1,600.7 373.1,607.2 373.8,607.2 		"/>
	</g>
	<g id="XMLID_53_">
		<polygon points="340.4,612.6 340.4,617.2 337.8,612.6 337,612.6 336.3,612.6 336.3,619.1 337,619.1 337.6,619.1 337.6,614.4 
			340.3,619.1 341,619.1 341.6,619.1 341.6,612.6 341,612.6 		"/>
	</g>
	<g id="XMLID_54_">
		<polygon points="362.5,607.2 363.2,607.2 363.9,607.2 363.9,601.9 365.8,601.9 365.8,601.3 365.8,600.7 360.5,600.7 360.5,601.3 
			360.5,601.9 362.5,601.9 		"/>
	</g>
	<g id="XMLID_55_">
		<polygon points="342.9,619.1 343.6,619.1 344.3,619.1 344.3,616.3 347.2,616.3 347.2,615.8 347.2,615.2 344.3,615.2 344.3,613.7 
			347.6,613.7 347.6,613.2 347.6,612.6 342.9,612.6 		"/>
	</g>
	<g id="XMLID_56_">
		<polygon points="349.9,612.6 349.2,612.6 348.5,612.6 348.5,619.1 353.1,619.1 353.1,618.5 353.1,617.9 349.9,617.9 		"/>
	</g>
	<g id="XMLID_57_">
		<polygon points="356.4,606.1 356.4,604.4 356.6,604.4 359.6,604.4 359.6,603.8 359.6,603.2 356.6,603.2 356.4,603.2 356.4,601.9 
			356.6,601.9 359.8,601.9 359.8,601.3 359.8,600.7 356.6,600.7 355,600.7 355,607.2 356.6,607.2 360,607.2 360,606.6 360,606.1 
			356.6,606.1 		"/>
	</g>
	<g id="XMLID_58_">
		<path d="M378.4,603.3c-0.7-0.1-1.1-0.3-1.3-0.4c-0.2-0.1-0.3-0.3-0.3-0.5c0-0.3,0.1-0.5,0.3-0.6c0.2-0.2,0.5-0.2,0.8-0.2
			c0.4,0,0.7,0.1,1,0.3c0.2,0.2,0.4,0.4,0.4,0.7h1.3c0-0.7-0.3-1.2-0.8-1.6c-0.5-0.4-1.1-0.6-1.8-0.6c-0.8,0-1.4,0.2-1.9,0.6
			c-0.5,0.4-0.7,0.9-0.7,1.5c0,0.6,0.2,1,0.5,1.2c0.3,0.3,1,0.5,2.1,0.7c0.6,0.1,0.9,0.2,1.1,0.4c0.2,0.1,0.3,0.3,0.3,0.5
			c0,0.2-0.1,0.4-0.4,0.6c-0.2,0.1-0.6,0.2-1,0.2c-0.4,0-0.8-0.1-1-0.3c-0.2-0.2-0.4-0.5-0.4-0.8h-1.3c0,0.7,0.3,1.2,0.7,1.6
			c0.5,0.4,1.1,0.6,1.9,0.6c0.8,0,1.5-0.2,2-0.5c0.5-0.4,0.7-0.8,0.7-1.5c0-0.6-0.2-1.1-0.5-1.3
			C379.9,603.8,379.3,603.5,378.4,603.3z"/>
	</g>
	<g id="XMLID_59_">
		<polygon points="386.7,612.6 386.7,619.1 387.4,619.1 388.1,619.1 388.1,612.6 387.4,612.6 		"/>
	</g>
	<g id="XMLID_60_">
		<polygon points="382.1,616.2 385.3,616.2 385.3,615.7 385.3,615.1 382.1,615.1 382.1,613.7 385.6,613.7 385.6,613.2 385.6,612.6 
			380.8,612.6 380.8,619.1 385.7,619.1 385.7,618.5 385.7,617.9 382.1,617.9 		"/>
	</g>
	<g id="XMLID_61_">
		<polygon points="364.9,612.6 363.7,617.7 362.5,612.6 361.5,612.6 360.5,612.6 360.5,619.1 361.2,619.1 361.8,619.1 361.8,613.5 
			363,619.1 363.7,619.1 364.4,619.1 365.6,613.6 365.6,619.1 366.2,619.1 366.8,619.1 366.8,612.6 365.9,612.6 		"/>
	</g>
	<g id="XMLID_62_">
		<path d="M393.9,616c-0.3-0.3-1-0.5-1.9-0.7c-0.7-0.1-1.1-0.3-1.3-0.4c-0.2-0.1-0.3-0.3-0.3-0.5c0-0.3,0.1-0.5,0.3-0.6
			c0.2-0.2,0.5-0.2,0.8-0.2c0.4,0,0.7,0.1,1,0.3c0.2,0.2,0.4,0.4,0.4,0.7h1.3c-0.1-0.7-0.3-1.2-0.8-1.6c-0.5-0.4-1-0.6-1.8-0.6
			c-0.8,0-1.4,0.2-1.9,0.6c-0.5,0.4-0.7,0.9-0.7,1.5c0,0.6,0.2,1,0.5,1.2c0.4,0.3,1,0.5,2.1,0.7c0.6,0.1,0.9,0.2,1.1,0.4
			c0.2,0.1,0.3,0.3,0.3,0.5c0,0.2-0.1,0.4-0.4,0.6c-0.2,0.1-0.6,0.2-1,0.2c-0.4,0-0.8-0.1-1-0.3c-0.2-0.2-0.4-0.5-0.4-0.8H389
			c0,0.7,0.3,1.2,0.7,1.6c0.5,0.4,1.1,0.6,1.9,0.6c0.8,0,1.5-0.2,2-0.5c0.5-0.4,0.7-0.8,0.7-1.5C394.4,616.7,394.2,616.2,393.9,616z
			"/>
	</g>
	<g id="XMLID_65_">
		<path d="M369.2,605.9h1.2l0.3,0.8l0.2,0.5h0.7h0.7l-1.6-4.5l-0.7-2h-0.8h0h-0.8l-2.3,6.5h0.7h0.7l0.4-1.3H369.2z M369.2,602.1
			l0.9,2.6h-0.9h-0.9L369.2,602.1z"/>
	</g>
	<g id="XMLID_66_">
		<polygon points="370.7,611.1 370.2,611.9 370.7,611.9 371.1,611.9 372.4,610.6 371.1,610.6 		"/>
	</g>
	<g id="XMLID_67_">
		<polygon points="378.5,612.6 377.1,617.6 375.6,612.6 374.9,612.6 374.2,612.6 376.4,619.1 377,619.1 377.7,619.1 379.9,612.6 
			379.2,612.6 		"/>
	</g>
	<g id="XMLID_70_">
		<path d="M370.7,612.6L370.7,612.6H370l-0.7,2.1l-1.6,4.4h0.7h0.7l0.2-0.5l0.3-0.8h1.2h1.2l0.4,1.3h0.7h0.7l-2.3-6.5H370.7z
			 M370.7,616.6h-0.9l0.9-2.6v0l0.9,2.6H370.7z"/>
	</g>
</g>
<g id="XMLID_1_">
	<g id="XMLID_15_">
		<path d="M364.2,546.9c0.9,0.9,1.7,1.9,1.9,3.1c0.7-2.1,1.5-3.4,1.1-4.4c-0.6-1.7-2.3-2.8-2.4-6c0-1.7,0.8-3.5,2.5-4.6
			c-1.1,0.2-2.1,0.6-3,1.2c-2.4,1.6-3.9,4.5-2.7,7.3C362,544.9,363.2,545.9,364.2,546.9z"/>
	</g>
	<g id="XMLID_22_">
		<path d="M394.7,527.9L394.7,527.9c-1.1-1.1-2.6-1.8-4.3-1.8h-26.5h-26.5c-1.7,0-3.2,0.7-4.3,1.8v0c-1.1,1.1-1.8,2.6-1.8,4.3v53.1
			c0,1.7,0.7,3.2,1.8,4.3l0,0c1.1,1.1,2.6,1.8,4.3,1.8h26.5h26.5c1.7,0,3.2-0.7,4.3-1.8l0,0c1.1-1.1,1.8-2.6,1.8-4.3v-53.1
			C396.4,530.6,395.8,529,394.7,527.9z M390.3,527.8c1.2,0,2.4,0.5,3.2,1.3h0c0.8,0.8,1.3,1.9,1.3,3.2v46.5l-10.4-10.4
			c0-0.1,0.1-0.1,0.1-0.2c0.9-1.4,0.9-3.1,0.4-4.3c-0.4-1.1-1.5-2-2.4-2.5c0.3,1.5,0.1,2.7-0.3,3.5c-0.1,0.3-0.3,0.6-0.5,0.8
			l-26.3-26.3c0-0.1,0-0.1,0.1-0.2c0.8-2.3,1.5-4.1,1.3-5.5c-0.2-1.2-1.2-2.2-2.8-3.1c-0.6-0.4-1.4-0.7-2.2-1
			c1.6,2.1,1.7,4.4,1.2,5.8c-0.1,0.4-0.3,0.7-0.5,1.1l-8.7-8.7h19.9H390.3z M352.6,558.8l1.4,1.4c-0.5,1.5-0.9,3.1-0.9,4.7
			c0,1.7,0.3,3.3,0.9,4.8c1.7,4.4,5.5,7.7,10.2,8.5c0.8,0.1,1.6,0.2,2.5,0.2c1.7,0,3.3-0.3,4.7-0.9l1.4,1.4
			c-1.9,0.8-3.9,1.3-6.1,1.3c-0.8,0-1.7-0.1-2.5-0.2c-4.2-0.7-7.9-3.1-10.2-6.5c-1.7-2.5-2.7-5.4-2.7-8.6
			C351.4,562.7,351.8,560.6,352.6,558.8z M337.2,589.8c-1.2,0-2.4-0.5-3.2-1.3c0,0,0,0,0,0c-0.8-0.8-1.3-1.9-1.3-3.2v-46.5l9.5,9.5
			c-0.1,1,0.2,2,1,3c0.9,1.1,1.9,2.4,2.6,3.8c0.1,0.2,0.2,0.3,0.2,0.5c-0.1-0.2-0.2-0.5-0.2-0.7c-0.3-1.1-0.4-2.3-0.5-3.4l3.7,3.7
			c-0.6,1.1-1.2,2.3-1.6,3.6l-1.6-0.6l-1.2-0.4c-0.3,1.1-0.6,2.2-0.8,3.4c-0.2,1.2-0.3,2.3-0.3,3.5l2.3,0l0.7,0c0,0.1,0,0.2,0,0.2
			c0,2.2,0.4,4.4,1,6.4l-1.8,0.5l-1.2,0.4c0.3,1,0.7,1.9,1.2,2.9l0.2,0.4c0.5,1.1,1.1,2,1.8,3l2.4-1.8c1.1,1.5,2.3,2.8,3.7,4
			c0.3,0.3,0.7,0.5,1,0.8l-1,1.3l-0.8,1.1c0.3,0.2,0.6,0.4,0.8,0.6c0.7,0.4,1.4,0.9,2.1,1.2c1.1,0.5,2.1,1,3.2,1.3l0.9-2.9
			c1.3,0.4,2.6,0.7,4,0.9c0.8,0.1,1.6,0.2,2.5,0.2c0.1,0,0.1,0,0.2,0l-0.1,3c1.1,0,2.3-0.1,3.5-0.3c1.2-0.2,2.3-0.4,3.4-0.8l-1-2.9
			c1.3-0.4,2.5-0.9,3.7-1.6l7.3,7.3h-19.9H337.2z"/>
	</g>
</g>
<g id="XMLID_8843_">
	<g id="XMLID_8862_">
		<path class="st0" d="M344.5,540c0.8,0,1.6-0.3,2.3-1.1c0.7-0.7,1-1.5,1-2.2c0-0.8-0.5-1.6-1.2-2.4l-2.2-2.2l-0.6-0.6l-0.2-0.2
			l-6.9,6.9l0.7,0.7l0.7,0.7l2.5-2.5c0.4,0.4,0.9,0.9,1.5,1.4c0.6,0.6,1.1,0.9,1.7,1.1C344,539.9,344.3,539.9,344.5,540z M343,537.3
			l-1.2-1.2l2-2l0.1-0.1l1.2,1.2c0.4,0.4,0.6,0.8,0.7,1.2c0,0.4-0.1,0.7-0.4,1c-0.4,0.4-0.7,0.5-1.1,0.5c-0.1,0-0.3,0-0.4-0.1
			C343.6,537.7,343.3,537.6,343,537.3z"/>
	</g>
	<g id="XMLID_8859_">
		<path class="st0" d="M353.7,546.3c0.2-0.1,0.4-0.3,0.6-0.5c0.2-0.2,0.3-0.3,0.4-0.5c0.3-0.5,0.4-1,0.4-1.5c0-0.4-0.2-0.9-0.4-1.3
			c-0.2-0.3-0.4-0.6-0.7-0.9l-0.3-0.3l-2.5-2.5l-0.2-0.2l-0.5-0.5l-6.7,6.7l-0.2,0.2l0.2,0.2l0.5,0.5l0.7,0.7l2.7-2.7l1.4,1.4
			c0.4,0.4,0.6,0.8,0.7,1.1c0,0.3-0.1,0.6-0.4,0.9l-0.6,0.6c-0.3,0.3-0.5,0.5-0.7,0.8c-0.2,0.3-0.3,0.5-0.4,0.6l1.6,1.6l0.2-0.2
			c-0.1-0.2-0.1-0.3,0-0.5c0.1-0.1,0.2-0.3,0.4-0.6l1-1.1l0.1-0.1c0.5-0.6,0.7-1.2,0.6-1.8c0-0.1-0.1-0.2-0.1-0.3
			c0.2,0.1,0.4,0.2,0.6,0.2C352.7,546.8,353.2,546.6,353.7,546.3z M351,544.7c-0.1-0.1-0.3-0.2-0.4-0.3l-1.7-1.7l1.8-1.8l0.2,0.2
			l1.5,1.5c0.4,0.4,0.5,0.7,0.6,1c0,0.3-0.1,0.6-0.4,1c-0.3,0.3-0.6,0.4-1,0.4C351.5,545,351.2,544.9,351,544.7z"/>
	</g>
	<g id="XMLID_8855_">
		<path class="st0" d="M369.9,567.2c0.6-0.6,0.8-1.3,0.7-2c0-0.2-0.1-0.4-0.2-0.7c0.1,0,0.3,0.1,0.4,0.1c0.7,0.1,1.4-0.1,1.9-0.7
			c0.1-0.1,0.2-0.2,0.3-0.3c0.3-0.5,0.5-1,0.4-1.5c0-0.4-0.2-0.8-0.4-1.2c-0.2-0.3-0.4-0.5-0.7-0.8l-2.7-2.7l-0.1-0.1l-0.6-0.6
			l-0.7,0.7l-1.5,1.5l-4.4,4.4l-0.3,0.3l0.3,0.3l0.4,0.4l2.5,2.5c0.5,0.5,1.1,0.9,1.6,1.1c0.3,0.1,0.6,0.2,0.9,0.2
			c0.2,0,0.4,0,0.6,0c0.4-0.1,0.9-0.3,1.3-0.6C369.7,567.4,369.8,567.3,369.9,567.2z M368.5,565.7c-0.1,0.1-0.2,0.2-0.2,0.2
			c-0.3,0.2-0.5,0.3-0.8,0.2c-0.2,0-0.5-0.1-0.7-0.3c-0.1-0.1-0.2-0.2-0.4-0.3l-1.8-1.8l1.9-1.9l0.3,0.3l1.5,1.5l0,0.1
			c0.4,0.4,0.6,0.7,0.6,1C368.9,565.1,368.8,565.4,368.5,565.7z M369.3,562.4l-1-1l-0.6-0.6l0.6-0.6l0.9-0.9l0.4,0.4l1.2,1.2
			c0.4,0.4,0.6,0.7,0.7,1c0.1,0.3,0,0.6-0.2,0.8c-0.3,0.3-0.6,0.4-0.9,0.3c-0.2,0-0.5-0.2-0.8-0.4
			C369.5,562.6,369.4,562.5,369.3,562.4z"/>
	</g>
	<g id="XMLID_8852_">
		<path class="st0" d="M390.1,577.4c-1-1-2.2-1.5-3.4-1.4c-1.1,0.1-2.1,0.5-3.1,1.4c-0.2,0.1-0.3,0.3-0.4,0.4
			c-0.2,0.2-0.4,0.4-0.5,0.6c-0.5,0.6-0.8,1.1-1,1.7c-0.1,0.4-0.2,0.8-0.2,1.2c0,0.5,0.1,1,0.2,1.5c0.2,0.6,0.5,1.1,1,1.6l0.2,0.2
			c0.2,0.2,0.5,0.4,0.7,0.6c0.8,0.6,1.7,0.9,2.7,0.8c1.2-0.1,2.4-0.6,3.5-1.7c1.1-1.1,1.7-2.3,1.8-3.6
			C391.6,579.6,391.1,578.4,390.1,577.4z M388.3,583c-0.8,0.8-1.5,1.2-2.3,1.3c-0.8,0.1-1.4-0.2-2-0.8c-0.2-0.2-0.4-0.4-0.5-0.7
			c-0.2-0.4-0.3-0.9-0.3-1.4c0-0.3,0.1-0.6,0.3-0.9c0.2-0.5,0.5-0.9,1-1.4c0.8-0.8,1.5-1.2,2.3-1.3c0.8-0.1,1.4,0.1,2,0.7
			c0.6,0.6,0.8,1.3,0.7,2C389.5,581.4,389,582.2,388.3,583z"/>
	</g>
	<g id="XMLID_8849_">
		<path class="st0" d="M360.7,555.6L360.7,555.6c0.8-0.8,1.3-1.6,1.6-2.4c0.2-0.4,0.2-0.9,0.3-1.3c0-0.6-0.1-1.2-0.3-1.7
			c-0.2-0.6-0.6-1.2-1.2-1.7c-0.1-0.1-0.3-0.3-0.4-0.4c-0.3-0.3-0.6-0.5-1-0.6c-0.6-0.3-1.3-0.4-2-0.4c-1.1,0.1-2.1,0.5-3,1.3
			c-0.2,0.2-0.4,0.3-0.6,0.5c-0.1,0.1-0.3,0.3-0.4,0.4c-0.9,1-1.3,2-1.4,3.1c0,1.2,0.4,2.3,1.4,3.3l0.1,0.1c0.3,0.3,0.6,0.5,0.9,0.7
			c0.8,0.5,1.6,0.8,2.5,0.7c0.9,0,1.7-0.3,2.5-0.9C360.1,556.1,360.4,555.9,360.7,555.6z M359.3,554c-0.8,0.8-1.5,1.2-2.3,1.3
			c-0.8,0.1-1.4-0.2-2-0.8c-0.1-0.1-0.3-0.3-0.4-0.4c-0.3-0.5-0.5-1-0.4-1.6c0-0.4,0.2-0.8,0.4-1.1c0.2-0.4,0.5-0.7,0.9-1.1
			c0.8-0.8,1.5-1.2,2.3-1.3c0.7-0.1,1.3,0.1,1.9,0.6l0.2,0.2c0.6,0.6,0.8,1.3,0.7,2c-0.1,0.6-0.4,1.2-0.9,1.9
			C359.6,553.8,359.5,553.9,359.3,554z"/>
	</g>
	<g id="XMLID_8846_">
		<path class="st0" d="M382,576.4c0.2-0.2,0.3-0.4,0.5-0.5c0.4-0.5,0.8-1,1-1.5c0.2-0.4,0.2-0.8,0.3-1.1c0-0.5-0.1-1-0.3-1.5
			c-0.2-0.5-0.5-0.9-1-1.4l-0.1-0.1l-0.9-0.9l-1.4-1.4l-0.7-0.7l-3,3l-3.4,3.4l-0.5,0.5l0.5,0.5l0.3,0.3l2.1,2.1
			c0.3,0.3,0.7,0.6,1.1,0.8c0.7,0.4,1.4,0.6,2.1,0.5c1-0.1,2-0.6,3-1.5C381.7,576.7,381.9,576.5,382,576.4z M380.5,575
			c-0.8,0.8-1.5,1.2-2.2,1.3c-0.7,0.1-1.3-0.1-1.9-0.7l0,0l-1.2-1.2l1.3-1.3l3.3-3.3l1.3,1.3c0.2,0.2,0.4,0.4,0.5,0.6
			c0.2,0.4,0.3,0.7,0.2,1.2c0,0.2-0.1,0.5-0.2,0.7C381.3,574.1,381,574.5,380.5,575z"/>
	</g>
	<g id="XMLID_8845_">
		<polygon class="st0" points="376.4,566.7 377.7,565.4 377,564.7 376.4,564.1 376.2,564 373,567.2 369.5,570.6 369.3,570.9 
			369.5,571.1 370,571.6 370.7,572.3 373,570.1 		"/>
	</g>
	<g id="XMLID_8844_">
		<polygon class="st0" points="366.7,555.3 367.2,554.9 366.7,554.5 366.5,554.2 365.7,553.5 362.3,556.9 360.7,558.5 359.7,559.5 
			358.8,560.4 359.5,561.1 359.7,561.3 360.2,561.8 360.7,561.4 362.3,559.8 		"/>
	</g>
</g>
<g id="XMLID_990_">
	<path class="st0" d="M45.7,442.6h19.5v3.8H51.6v5.6h11.4v3.8H51.6v6.2h13.5v3.8H45.7V442.6z"/>
	<path class="st0" d="M79.6,450.8l6.1-8.1h6.7l-9.3,11.6l9.3,11.5h-6.7l-6.1-8.1l-6.2,8.1h-6.7l9.4-11.5l-9.4-11.6h6.7L79.6,450.8z"
		/>
	<path class="st0" d="M92.9,442.6h22.8v3.8h-8.4v19.3h-5.9v-19.3h-8.5V442.6z"/>
	<path class="st0" d="M118.6,442.6h5.9v23.1h-5.9V442.6z"/>
	<path class="st0" d="M129.3,442.6h6.9l9.2,15.1v-15.1h5.9v23.1h-6.9l-9.2-15v15h-5.9V442.6z"/>
	<path class="st0" d="M153.8,442.6h22.8v3.8h-8.4v19.3h-5.9v-19.3h-8.5V442.6z"/>
	<path class="st0" d="M202.4,453.8c0,7.9-2.3,12.2-11.7,12.2c-9.3,0-11.9-3.7-11.9-12.2c0-8.1,3.8-11.4,11.9-11.4
		C198.1,442.4,202.4,445.9,202.4,453.8z M196.5,453.8c0-5.8-2.2-7.7-5.8-7.7c-4.4,0-6,1.5-6,7.6c0,6.6,1,8.5,6,8.5
		C195.6,462.2,196.5,460,196.5,453.8z"/>
	<path class="st0" d="M217.1,457.3h-4.2v8.4H207v-23.1h11.4c6.2,0,9.9,2.5,9.9,7.2c0,3-1.2,5.5-4.6,6.6l6.2,9.3h-6.5l-5.7-8.4H217.1
		z M218.4,453.5c3.2,0,3.9-1,3.9-3.7c0-2.7-0.8-3.4-3.9-3.4h-5.5v7.2H218.4z"/>
	<path class="st0" d="M251.3,458.3v7.5h-5.9v-23.1h11.6c6.6,0,9.8,2.7,9.8,7.5c0,4.7-3.1,8.1-9.8,8.1H251.3z M256.9,454.5
		c2.8,0,3.8-1.4,3.8-4.4c0-2.9-0.8-3.7-3.8-3.7h-5.6v8.1L256.9,454.5z"/>
	<path class="st0" d="M294.2,453.8c0,7.9-2.3,12.2-11.7,12.2c-9.3,0-11.9-3.7-11.9-12.2c0-8.1,3.8-11.4,11.9-11.4
		C289.9,442.4,294.2,445.9,294.2,453.8z M288.3,453.8c0-5.8-2.2-7.7-5.8-7.7c-4.4,0-6,1.5-6,7.6c0,6.6,1,8.5,6,8.5
		C287.5,462.2,288.3,460,288.3,453.8z M282.5,435.8h5.1l-5.7,4.7h-4.5L282.5,435.8z"/>
	<path class="st0" d="M324.9,442.6l8.9,23.1h-6l-2.1-5.4h-9l-2.1,5.4h-6l8.9-23.1H324.9z M321.1,448.3l-3,8.2h6L321.1,448.3z"/>
	<path class="st0" d="M346.9,442.6c5.6,0,9,2.2,9,6.3c0,2.3-0.8,3.8-2.1,4.7c1.6,0.9,2.9,2.4,2.9,5c0,5.3-4.2,7.1-9.2,7.1h-10.9
		v-23.1H346.9z M342.4,446.4v5.7h4.8c2.1,0,2.8-0.7,2.8-3.1c0-2.1-0.6-2.6-3.1-2.6H342.4z M342.4,455.8v6.1h5.1
		c2.4,0,3.4-0.5,3.4-3.3c0-2.8-1.9-2.8-3.7-2.8H342.4z"/>
	<path class="st0" d="M380.5,465.1c-2.2,0.4-5.8,0.9-9.1,0.9c-9.4,0-11.3-5-11.3-11.7c0-6.5,1.6-11.9,11.3-11.9
		c3.9,0,6.8,0.5,9.1,0.9l-0.4,3.8c-2.8-0.5-5.9-0.9-8.7-0.9c-4.7,0-5.4,2.6-5.4,8.1c0,5.5,0.8,8,5.4,8c2.6,0,6.2-0.5,8.7-0.9
		L380.5,465.1z"/>
</g>
</svg>
