<?xml version="1.0" encoding="utf-8"?>
<!-- Generator: Adobe Illustrator 19.2.1, SVG Export Plug-In . SVG Version: 6.00 Build 0)  -->
<svg version="1.1" id="Layer_1" xmlns="http://www.w3.org/2000/svg" xmlns:xlink="http://www.w3.org/1999/xlink" x="0px" y="0px"
	 viewBox="0 0 425.2 652" style="enable-background:new 0 0 425.2 652;" xml:space="preserve">
<style type="text/css">
	.st0{fill:#EDEDED;}
	.st1{fill:#E31019;}
	.st2{fill:#007DA4;}
	.st3{fill:#3AABE2;}
	.st4{fill:#13110C;}
	.st5{font-family:'Kuro-ExtraBold';}
	.st6{font-size:33px;}
</style>
<rect id="XMLID_7599_" y="0" class="st0" width="425.2" height="652"/>
<path id="XMLID_6960_" class="st1" d="M196.6,32.9H29v367.2h167.7h199.6V32.9H196.6z M269,383h-72.4h-40.4V138.7
	c0-7,2.6-13.7,7.2-18.8c5.3-5.8,12.9-9.2,20.7-9.2h11.6V88.3c0-1.5-0.6-2.9-1.6-4c-1.1-1-2.5-1.6-4-1.6H178l-39,28.4
	c-1.3,1-2.2,2.4-2.3,4l-1,11.6h-11.4l2.6-29.8c0.1-1.6,0.6-3.1,1.4-4.5c0.8-1.4,1.9-2.6,3.2-3.5l43.2-31.5h22.1h2V50h28v6.2h14
	l14,9.1v8.4l-14,9.1H235c-1.7,0-3.3,0.8-4.4,2.1c-0.8,1-1.2,2.2-1.2,3.5v22.4H241c8.3,0,16.4,3.8,21.6,10.2c4.1,5,6.4,11.3,6.4,17.8
	V383z"/>
<rect id="XMLID_6959_" x="29.1" y="416.7" width="366.9" height="69.1"/>
<g id="XMLID_6936_">
	<path id="XMLID_6948_" class="st1" d="M88.9,526.2H34.5c-3,0-5.4,2.4-5.4,5.4V586c0,3,2.4,5.4,5.4,5.4h54.4c3,0,5.4-2.4,5.4-5.4
		v-54.4C94.4,528.6,92,526.2,88.9,526.2z M69.9,533.1c0.2-1.8,0.9-4.3,3-5.5c0,0-1,3.6,1.7,6.5c0.5,0.5,1,1,1.7,1.4
		c3.2,2,1.1,7.3,0.2,10s0,3.3,1.4,2.6c0,0,3-2.6,4.1-6.5c0,0,1.7,4.3-1,9.1c-1.3-0.5-2.8-0.9-4.2-1.2c-0.7-0.1-1.4-0.2-2.1-0.2
		c-1.1-0.1-2.3-0.1-3.4,0c-0.2-0.9-0.3-2.8,0.6-5.7c1.5-4.6-1.7-7.3-2-8.8v-0.1C69.9,534.1,69.9,533.6,69.9,533.1z M66.6,551.9
		c-0.9,0.2-1.8,0.4-2.6,0.7l-0.2,0.1l-0.3-1.5l-0.1-0.3h0.1l0.4-0.1c0.9-0.2,1.7-0.4,2.6-0.6c1.1-0.2,2.2-0.4,3.3-0.4
		c1.6-0.1,3.2-0.2,4.8,0c0.7,0,1.3,0.1,2,0.2c3.5,0.6,6.8,2,9.3,4.6l-1.1,1.2c-2.6-2.4-5.8-3.7-9.3-4.2c-0.3,0-0.6-0.1-0.8-0.1
		c-1.5-0.1-3.1-0.1-4.8,0C68.8,551.4,67.7,551.6,66.6,551.9z M66.9,552.3c-0.1,0.4-0.2,0.9-0.2,1.4l-0.1-0.2c-0.1-0.2-0.2-0.6-0.3-1
		l0.3-0.1L66.9,552.3z M65.7,534.1c0-0.1,0.3-0.1,0.8,0.1c1.1,0.5,3,2.2,3.3,6.8c0.1,0.8,0.1,1.7,0,2.8c-0.1,1-0.2,2.1-0.4,3.3
		c-0.2,1-0.5,1.7-0.8,2.3c-0.7,0.1-1.5,0.2-2.2,0.3l-0.7,0.1c0-1.2,0.1-2.6,0.7-3.9c0.2-0.5,0.5-1,0.8-1.5c0,0-0.4,0.2-0.8,0.5
		c-0.8,0.6-1.8,1.6-2.2,3.1c0,0-0.3-0.7-0.5-1.7c-0.1-0.7-0.2-1.4,0-2.2c0.1-0.6,0.3-1.1,0.6-1.7C65.8,540.2,67.4,539.1,65.7,534.1z
		 M63.1,534.4c0.1-0.2,0.3-0.4,0.4-0.5c0.1-0.2,0.2-0.3,0.2-0.2c0.1,0.2,0.2,0.4,0.2,0.6c0.1,0.5,0.1,1,0,1.4s-0.3,0.9-0.4,1.4
		c-0.2,0.6-0.3,1.4-0.2,2.3c0,0-0.1,0-0.2-0.1c-0.3-0.1-0.9-0.6-0.9-2.1C62.2,536.1,62.7,535.1,63.1,534.4z M56.3,539.6l2.4,1.1
		c0,0,2.9,1.5,1.9,4.8l-1.3-0.7c0.5-2.2-1.4-3.2-1.4-3.2l-1.6-0.7l-4.2-1.9l-0.3-1.5L56.3,539.6z M31.6,573.4
		c-1.1-0.5-1.5-1.8-1-2.9l15.8-33.7c0.5-1.1,1.8-1.5,2.9-1l1.7,0.8l1.1,5.7l4.3,2l1.7,0.8c0,0,2.1,1,2.8,1.6
		c1.4,1.2,1.4,2.4,1.4,2.4l0.9,5.3l0.3,1.6c0,0.1,0.1,0.2,0.1,0.3c0.1,0.5,0.1,0.9,0,1.4c-0.1,0.4-0.2,0.8-0.4,1.2
		c-0.1,0.1-0.1,0.3-0.2,0.4l-6.6,14.1l-3.6,7.6c-0.5,1.1-1.8,1.5-2.9,1L31.6,573.4z M89.3,578.5c0.2,1.4-4.5,2.9-9.5,2
		c0,0-2.4-0.3-5.1,0c-0.8,0.1-1.6,0.2-2.3,0.4c-2.5,0.6-0.5,1.2,2.3,1.2c1,0,2.1,0,3.1-0.2c2.8-0.3,6.8,1.5,4.5,4.1
		c-1.4,1.6-4.9,2.4-7.6,2.3c-0.6,0-1.1-0.1-1.6-0.2c-0.8-0.2-1.9-0.4-3.2-0.5c-1.1-0.1-2.2-0.2-3.3-0.3c-0.9-0.1-1.8-0.1-2.6,0h-0.4
		h-0.4c-0.8,0.1-1.5,0.2-2,0.4c0,0-0.2,2.4-2.3,2.6c0,0-1.2,0.1-2.6,0.1c-1.5,0-3.2,0-3.6-0.4c-0.9-0.8-2.3-1.5-3.5-1.7
		s-8-2.9,3.9-5.1c0,0,1.6-0.3,3.2-0.8c1.6-0.5,3.3-1.2,3.3-1.9c0-1.1-2.3-1.2-3.3-2c-0.4-0.3-0.6-0.7-0.5-1.2
		c0.1-0.3,0.2-0.5,0.5-0.7c1.1-1,3.9-1.5,6.8-1.7h0.4h0.4c0.9-0.1,1.8-0.1,2.6-0.1H67c1.2,0,2.2-0.2,2.9-0.5c1.9-0.9,2.4-2.6,2-4.2
		c-0.2-0.7-1-1.2-2-1.9c-1.1-0.8-2.5-1.8-3.3-3.4c-0.7-1.4-1.1-3.2-0.7-5.8c0,0,0.3,0.5,0.7,0.8c0.5,0.4,1.1,0.8,1.7,0.5
		c0.4-0.2,1-1,1.7-2.2c1-1.8,2-4.5,2-6.5c0.9,0,1.9,0,2.8,0.1c0.3,0,0.5,0.1,0.8,0.1c1.3,0.2,2.6,0.5,3.9,1c-1.2,1.3-4.4,5-4.5,8.3
		c0,0,0.9-2.1,4.1-3.9c0,0-2,6.8,3.2,9.5c0.1,0,2.6-0.3,1.5-7.4c-0.2-1.1,0.2-2.4,0.7-3.6c0.1,0.1,0.3,0.2,0.4,0.4l0.2,0.2l0.2-0.2
		l1.5-1.5l0.2-0.2l-0.2-0.2c-0.3-0.3-0.5-0.5-0.8-0.8c0.9-1.2,1.7-2,1.7-2c-0.6,2.7-0.9,5.9,1.1,9.4c2.6,4.6,0.9,9.1,0.2,10.7
		c-0.7,1.6-2.6,4.2-5.7,4.8C84.7,576.2,89,576.1,89.3,578.5z"/>
	<path id="XMLID_6946_" class="st1" d="M82.6,576.4c0.1,0,0.1,0,0.2-0.1C81.9,576.4,81.6,576.5,82.6,576.4z"/>
	<path id="XMLID_6945_" class="st1" d="M40,516.7c0-1.3-1.1-1.7-2.1-1.7c-0.2,0-0.3,0-0.5,0h-1.2v3.6h1.2c0.2,0,0.3,0,0.5,0
		C39.1,518.4,40,517.9,40,516.7z"/>
	<path id="XMLID_6944_" class="st1" d="M38,512.8c0.9-0.1,1.7-0.5,1.7-1.5c0-1.1-0.8-1.4-1.7-1.5c-0.2,0-0.3,0-0.5,0h-1.2v3.1h1.2
		C37.7,512.9,37.8,512.9,38,512.8z"/>
	<path id="XMLID_6937_" class="st1" d="M46.7,522.9v-17.6H38h-8.7v17.6H38H46.7z M33.7,520.6v-12.9H38l0,0c2.8,0,4.3,1.1,4.3,3.5
		c0,1.7-1.4,2.5-2.2,2.7c1,0.2,2.6,1,2.6,3.2c0,2.4-2.1,3.5-4.2,3.5H38H33.7z"/>
</g>
<path id="XMLID_6830_" class="st1" d="M46.4,618.9L46.4,618.9v-6.5h0.7h0.7v5.4H51v0.6v0.6L46.4,618.9L46.4,618.9z M40.9,618.9v-6.5
	h4.6v0.6v0.6h-3.3v1.5h2.9v0.6v0.6h-2.9v2.8h-0.7h-0.6V618.9z M35.5,618.9L35.5,618.9h-0.6h-0.6v-6.5H35h0.7l2.6,4.6v-4.6H39h0.6
	v6.5h-0.7h-0.7l-2.7-4.7C35.5,614.2,35.5,618.9,35.5,618.9z M31.7,618.9v-6.5h0.7h0.7v6.5h-0.7H31.7z M46.2,599.9l0.9-1.3h1.4
	l-1.3,1.3H46.2z M46.1,607.1v-6.5h0.7h0.7v6.5h-0.7H46.1z M51.6,618.7v0.2h-0.1L51.6,618.7z M51.6,600.4v1.2c-0.6,0-1,0.2-1.3,0.6
	c-0.3,0.4-0.5,1-0.5,1.7s0.2,1.3,0.5,1.7s0.7,0.6,1.3,0.6v1.2c-1,0-1.7-0.3-2.3-0.9c-0.6-0.6-0.8-1.4-0.8-2.5s0.3-1.9,0.8-2.5
	C49.8,600.7,50.6,600.4,51.6,600.4 M40.6,607.1L40.6,607.1v-6.5h0.7H42v5.4h3.2v0.6v0.6L40.6,607.1L40.6,607.1z M54.6,612.4v1.5l0,0
	l-0.9,2.6h0.9v1.1h-1.2l-0.4,1.3h-0.7h-0.6v-0.2l2.2-6.3L54.6,612.4L54.6,612.4z M54.6,602.7v2.3c-0.1,0.4-0.3,0.8-0.6,1.2l0.6,0.5
	v0.3l-0.5,0.6l-0.8-0.7c-0.5,0.3-1,0.4-1.7,0.4v-1.2c0.3,0,0.5,0,0.7-0.1l-0.7-0.6l0.7-0.7l0.7,0.6c0.2-0.4,0.3-0.8,0.3-1.4
	c0-0.7-0.2-1.3-0.5-1.7s-0.7-0.6-1.3-0.6v-1.2c1,0,1.7,0.3,2.3,0.9C54.2,601.7,54.4,602.2,54.6,602.7 M59.8,618.9L59.8,618.9h-0.6
	h-0.6v-6.5h1h1l1.2,5.2l1.2-5.2h1h1v6.5h-0.6h-0.6v-5.5l-1.2,5.5h-0.7H61l-1.2-5.6V618.9z M62.2,607.1v-6.5h0.7h0.7v6.5h-0.7H62.2z
	 M61,604.6c0,0.9-0.2,1.6-0.6,2c-0.4,0.4-1.1,0.6-2,0.6s-1.6-0.2-2-0.6c-0.4-0.4-0.6-1.1-0.6-2v-4.1h0.7h0.7v4.1
	c0,0.5,0.1,0.8,0.3,1.1c0.2,0.2,0.5,0.3,1,0.3s0.8-0.1,1-0.3s0.3-0.6,0.3-1.1v-4.1h0.7H61V604.6z M54.6,605v-2.3
	c0.1,0.3,0.1,0.7,0.1,1.1C54.7,604.3,54.6,604.6,54.6,605 M54.6,607v-0.3l0.2,0.1L54.6,607z M54.6,617.6v-1.1h0.9l-0.9-2.6v-1.5l0,0
	h0.8l2.3,6.5H57h-0.7l-0.4-1.3L54.6,617.6L54.6,617.6z M67.6,613.2v4.4h-0.2l-0.4,1.3h-0.7h-0.7L67.6,613.2z M67.6,600.6v1.1h-0.1
	h-1.3v4.3h1.1c0.1,0,0.2,0,0.3,0v1.1h-0.1h-2h-0.7v-6.5h0.7L67.6,600.6L67.6,600.6z M68.7,612.4v1.5l0,0l-0.9,2.6h0.9v1.1h-1.1v-4.4
	l0.3-0.8L68.7,612.4L68.7,612.4z M68.7,611v0.8h-0.5L68.7,611z M68.7,605.3v1.6c-0.3,0.1-0.7,0.2-1.1,0.2V606c0.4,0,0.8-0.2,1-0.5
	L68.7,605.3z M68.7,600.7v1.5v-0.1c-0.2-0.3-0.6-0.5-1-0.5v-1.1l0,0C68,600.6,68.4,600.6,68.7,600.7 M68.7,606.9v-1.6
	c0.2-0.4,0.3-0.9,0.3-1.6c0-0.6-0.1-1.1-0.3-1.5v-1.5c0.4,0.1,0.7,0.3,1,0.6c0.5,0.5,0.7,1.3,0.7,2.3c0,1.1-0.2,2-0.7,2.5
	C69.4,606.5,69.1,606.7,68.7,606.9 M68.7,611.8V611l0.3-0.5h1.4l-1.3,1.3H68.7z M68.7,617.6v-1.1h0.9l-0.9-2.6v-1.5l0,0h0.8l2.3,6.5
	h-0.7h-0.7l-0.4-1.3L68.7,617.6L68.7,617.6z M74.2,614.7v3.9l-2.1-6.2h0.7h0.7L74.2,614.7z M74.2,600.4v1.2c-0.6,0-1,0.2-1.3,0.6
	c-0.3,0.4-0.5,1-0.5,1.7s0.2,1.3,0.5,1.7s0.7,0.6,1.3,0.6v1.2c-1,0-1.7-0.3-2.3-0.9c-0.6-0.6-0.8-1.4-0.8-2.5s0.3-1.9,0.8-2.5
	C72.5,600.7,73.3,600.4,74.2,600.4z M90.8,614.4L90.8,614.4c0-0.3-0.2-0.6-0.4-0.7c-0.2-0.2-0.6-0.3-1-0.3c-0.3,0-0.6,0.1-0.8,0.2
	c-0.2,0.2-0.3,0.4-0.3,0.6c0,0.2,0.1,0.3,0.3,0.5c0.2,0.1,0.6,0.2,1.3,0.4c0.9,0.2,1.6,0.5,1.9,0.7c0.3,0.3,0.5,0.7,0.5,1.3
	s-0.2,1.1-0.7,1.5s-1.1,0.5-2,0.5c-0.8,0-1.5-0.2-1.9-0.6c-0.5-0.4-0.7-0.9-0.7-1.6h1.3c0,0.3,0.1,0.6,0.4,0.8
	c0.2,0.2,0.6,0.3,1,0.3s0.8-0.1,1-0.2c0.2-0.1,0.4-0.3,0.4-0.6c0-0.2-0.1-0.4-0.3-0.5c-0.2-0.1-0.5-0.2-1.1-0.4
	c-1-0.2-1.7-0.5-2.1-0.7c-0.3-0.3-0.5-0.7-0.5-1.2c0-0.6,0.2-1.1,0.7-1.5s1.1-0.6,1.9-0.6c0.7,0,1.3,0.2,1.8,0.6
	c0.5,0.4,0.7,0.9,0.8,1.6L90.8,614.4L90.8,614.4z M84.7,618.9v-6.5h0.7H86v6.5h-0.7H84.7z M78.7,618.9L78.7,618.9v-6.5h4.8v0.6v0.6
	h-3.4v1.4h3.2v0.6v0.6h-3.2v1.7h3.6v0.6v0.6h-5V618.9z M82,602.5L82,602.5c0-0.3-0.2-0.6-0.4-0.7c-0.2-0.2-0.6-0.3-1-0.3
	c-0.3,0-0.6,0.1-0.8,0.2c-0.2,0.2-0.3,0.4-0.3,0.6c0,0.2,0.1,0.3,0.3,0.5c0.2,0.1,0.6,0.2,1.3,0.4c0.9,0.2,1.6,0.5,1.9,0.7
	c0.3,0.3,0.5,0.7,0.5,1.3s-0.2,1.1-0.7,1.5s-1.1,0.5-2,0.5c-0.8,0-1.5-0.2-1.9-0.6c-0.5-0.4-0.7-0.9-0.7-1.6h1.3
	c0,0.3,0.1,0.6,0.4,0.8c0.2,0.2,0.6,0.3,1,0.3s0.8-0.1,1-0.2c0.2-0.1,0.4-0.3,0.4-0.6c0-0.2-0.1-0.4-0.3-0.5
	c-0.2-0.1-0.5-0.2-1.1-0.4c-1-0.2-1.7-0.5-2.1-0.7c-0.3-0.3-0.5-0.7-0.5-1.2c0-0.6,0.2-1.1,0.7-1.5s1.1-0.6,1.9-0.6
	c0.7,0,1.3,0.2,1.8,0.6c0.5,0.4,0.7,0.9,0.8,1.6L82,602.5L82,602.5z M74.2,607.2V606c0.6,0,1-0.2,1.3-0.6c0.3-0.4,0.5-0.9,0.5-1.7
	c0-0.7-0.2-1.3-0.5-1.7s-0.7-0.6-1.3-0.6v-1.2c1,0,1.7,0.3,2.3,0.9c0.6,0.6,0.8,1.5,0.8,2.5s-0.3,1.9-0.8,2.5
	C76,606.9,75.2,607.2,74.2,607.2 M74.2,618.6v-3.9l0.8,2.7l0,0l1.4-5h0.7h0.7l-2.2,6.5H75h-0.6L74.2,618.6z"/>
<g id="XMLID_6810_">
	<path id="XMLID_6824_" class="st2" d="M137.7,523.5c0.5,0.1,1.1,0.1,1.6,0.1c5.3,0,9.7-4.3,9.7-9.7c0-5.4-4.4-9.7-9.7-9.7
		c-0.5,0-1.1,0-1.6,0.1c-4.6,0.8-8.1,4.8-8.1,9.6C129.6,518.7,133.1,522.7,137.7,523.5z M137.7,507.4c0.5-0.1,1-0.2,1.4-0.2
		c2,0,2.4,0.2,3.5,0.5l-0.2,2.4c-0.9-0.3-1.5-0.6-2.8-0.6c-0.7,0-1.3,0.1-1.9,0.4c-1.3,0.6-2.2,1.8-2.2,3.6c0,2.1,0.9,3.5,2.2,4.2
		c0.6,0.3,1.3,0.5,2,0.5c1,0,1.9-0.2,2.8-0.6l0.2,2.4c-1,0.4-2.1,0.5-3.1,0.5c-0.6,0-1.3,0-1.9-0.2c-2.6-0.5-5-2.2-5-6.8
		C132.7,509.8,135.3,507.9,137.7,507.4z"/>
	<path id="XMLID_6813_" class="st2" d="M189.5,526h-54.4c-3,0-5.4,2.4-5.4,5.4v47.5l0,0c4.6,0,7.1-3.5,8.1-6.4
		c1.5-4.3,0.8-9.5,0.6-14c-0.2-4.9,0.2-11.8,5.2-13.9c2.4-1,5.5-0.3,7.5,1.9l-2.3,2.8c-2.9-2.2-4.5-1.3-5.3,0.1
		c-2.2,3.4-1.5,5.2-1.5,18.7c0,2.1,0,3.7-0.8,5.7c-1.2,3.3-4.3,8.7-11.6,8.7l0,0v3.5c0,3,2.4,5.4,5.4,5.4h54.4c3,0,5.4-2.4,5.4-5.4
		v-54.4C194.9,528.4,192.5,526,189.5,526z M169.1,533.1c0.4-1,0.8-2,0.7-2.9c0,0,1.9,1.9,2.6,4.7c0.1,0.3,0.1,0.7,0.2,1
		c0.1,0.8,0,1.6-0.2,2.3c-0.5,1.9-1.6,3-1.6,3c-0.8-1-1.3-1.9-1.6-2.7C168.2,536.2,168.6,534.6,169.1,533.1z M173.8,558.7l-1.1,1.3
		l-0.3-0.2l-3.3-2.7l-3.3-2.7l-1.3-1.1l1.1-1.3l0.2,0.2l3.3,2.7l3.3,2.7L173.8,558.7z M150.7,548.2c2.3-2.8,4.6-3.9,6.8-4.1
		c0.7-0.1,1.3,0,1.9,0c2.7,0.4,5,2,6.4,3.2c0.8,0.7,1.3,1.3,1.3,1.3l-1.3,1.6l-6.4,7.7l-1.9,2.3l-3.2,3.9
		C154.2,564.2,142.8,557.8,150.7,548.2z M157.2,562.1l0.3-0.4l0.8-0.9l1.2,1l6.4,5.2l0.7,0.5l-0.7,0.8l-0.4,0.5l-6-4.9l-1.9-1.6
		L157.2,562.1z M160.2,572c-1.2,2.1-0.2,6.6-0.3,6.5c-0.2-0.2-0.3-0.3-0.5-0.5c-1.4-1.8-0.7-3.9,0-5.1
		C159.9,572,160.4,571.5,160.2,572z M177.5,587.4c-1.2-0.2-3.2-0.5-5.1-0.4c-1.2,0.1-2.4,0.4-3.2,1.1l-0.1,0.1
		c-0.9,0.7-2.2,0.8-3.3,0.4c-2.2-0.7-4.3-3-4.1-5.5c0,0,1.4,0.7,3.2,1c0,0-6.2-4.6-1.3-11.8c0.1-0.2,0.7,3.5,2.3,5.9
		c0.7,1,1.5,1.7,2.5,1.9c0.3,0,0.5,0.1,0.8,0.2c1.9,0.4,2.8,1,3.3,1.7c0.4,0.6,0.5,1.2,0.6,1.9c0,0,2.5-0.6,4.5,1.9
		c0.4,0.5,0.8,1.1,1.1,1.9C178.6,587.7,178.2,587.6,177.5,587.4z M182.3,584.6c-0.3,0-0.7,0-1,0c-1.3,0-2.6-0.2-3.8-0.7
		c-2.1-0.8-3.8-2.1-5.1-3.9c-1.3-1.8-2.1-4.1-2.1-6.5s0.8-4.7,2.1-6.5c1.3-1.7,3-3.1,5.1-3.8c1.2-0.4,2.5-0.7,3.8-0.7
		c0.3,0,0.7,0,1,0c5.6,0.5,10,5.2,10,11C192.3,579.4,187.9,584.1,182.3,584.6z M192.1,569.1c-2.2-6.9-9.1-7.3-9.8-7.3h-0.1
		c0,0,0.2-1-2.4-3c-1.1-0.9-1.9-1.7-2.3-2.6c-1.3-2.4-0.7-4.8-0.4-6.4c0.5-2.3,0.8-6.4-0.9-6.8c-2.3-0.6-1,4.4-1,4.4
		c-4.2-2.4-1.4-6.2-1.4-6.2c2.4-4,0.2-8.5-1.4-11c-0.8-1.2-1.5-2-1.3-2c0.4,0.1,0.8,0.3,1.3,0.6c1.6,0.7,3.7,1.9,5.1,3.3
		c0.3,0.3,0.6,0.6,0.8,0.9c1.7,2.3,0.8,7.9,0.8,7.9c-0.3,6.8,3,11.2,3,11.2c0-0.4,0.1-0.8,0.2-1.1c0.6-1.5,2.1-2.3,2.1-2.3
		c-0.9,5.9,1.8,8.8,1.8,8.8s0.2-3-0.1-5s2.9-7.4,2.9-7.4c-0.7,4.4,0.6,11,2.1,13.6c1.3,2.2,0.9,7.7,0.9,7.7l1.5-1.8
		C194.1,566.5,192.1,569.1,192.1,569.1z"/>
	<polygon id="XMLID_6812_" class="st2" points="174.8,574.5 173.8,575.8 177.5,578.9 180.1,581 181.2,579.7 177.5,576.7 	"/>
	<polygon id="XMLID_6811_" class="st2" points="182.2,565.8 181.2,567 182.3,568 187.5,572.2 188.6,571 182.3,565.8 	"/>
</g>
<path id="XMLID_6771_" class="st3" d="M135.2,600.4v1.2l0,0c-0.6,0-1,0.2-1.3,0.6c-0.3,0.4-0.5,1-0.5,1.7s0.2,1.3,0.5,1.7
	s0.7,0.6,1.3,0.6l0,0v1.2l0,0c-1,0-1.7-0.3-2.3-0.9c-0.6-0.6-0.8-1.4-0.8-2.5s0.3-1.9,0.8-2.5C133.5,600.7,134.3,600.4,135.2,600.4
	L135.2,600.4z M126.3,607.1L126.3,607.1v-6.5h4.8v0.6v0.6h-3.4v1.4h3.2v0.6v0.6h-3.2v1.7h3.6v0.6v0.6h-5V607.1z M143.2,618.9
	L143.2,618.9v-6.5h0.7h0.7v5.4h3.2v0.6v0.6L143.2,618.9L143.2,618.9z M137.2,618.9L137.2,618.9v-6.5h4.8v0.6v0.6h-3.4v1.4h3.2v0.6
	v0.6h-3.2v1.7h3.6v0.6v0.6h-5V618.9z M145.9,607.1v-6.5h0.7h0.7v6.5h-0.7H145.9z M144.7,604.6c0,0.9-0.2,1.6-0.6,2
	c-0.4,0.4-1.1,0.6-2,0.6s-1.6-0.2-2-0.6c-0.4-0.4-0.6-1.1-0.7-2v-4.1h0.7h0.7v4.1c0,0.5,0.1,0.8,0.3,1.1c0.2,0.2,0.5,0.3,1,0.3
	s0.8-0.1,1-0.3s0.3-0.6,0.3-1.1v-4.1h0.7h0.7L144.7,604.6L144.7,604.6z M135.2,607.2V606c0.3,0,0.5,0,0.7-0.1l-0.7-0.6l0.7-0.7
	l0.7,0.6c0.2-0.4,0.3-0.8,0.3-1.4c0-0.7-0.2-1.3-0.5-1.7s-0.7-0.6-1.3-0.6v-1.2c1,0,1.7,0.3,2.3,0.9c0.6,0.6,0.8,1.5,0.8,2.5
	c0,0.9-0.2,1.7-0.7,2.3l0.7,0.7l-0.7,0.7l-0.8-0.7C136.4,607.1,135.9,607.2,135.2,607.2 M151,612.4v1.2h-0.9v1.4h0.9v1.1h-0.9v1.7
	h0.9v1.2h-2.2v-6.5h2.2V612.4z M151,611.2v0.6h-0.4L151,611.2z M151,600.6v1.1l0,0h-1.1v1.9h1.1l0,0v1.1c-0.4,0-0.8,0-1.1,0v2.3
	h-0.7h-0.7v-6.5h0.7h1.8V600.6z M151,604.7v-1.1c0.4,0,0.7-0.1,0.9-0.3s0.3-0.4,0.3-0.8c0-0.3-0.1-0.5-0.3-0.7s-0.5-0.2-0.9-0.2
	v-1.1h0.2c0.7,0,1.3,0.2,1.7,0.5c0.4,0.4,0.6,0.9,0.6,1.5c0,0.7-0.2,1.2-0.6,1.6c-0.4,0.4-1,0.5-1.7,0.5L151,604.7L151,604.7z
	 M151,611.8v-0.6l0.5-0.7h1.4l-1.3,1.3H151z M151,613.6v-1.2h2.5v0.6v0.6L151,613.6L151,613.6z M151,616.1V615h2.3v0.6v0.6
	L151,616.1L151,616.1z M151,618.9v-1.2h2.7v0.6v0.6L151,618.9L151,618.9z M157.1,612.4v6.5h-0.2h-0.7v-5.4h-2V613v-0.6H157.1z
	 M157.1,600.6v1.4l-0.9,2.6h0.9v1.1h-1.2l-0.4,1.3h-0.7h-0.7l2.3-6.5h0.7V600.6z M157.1,605.7v-1.1h0.9l-0.9-2.6v-1.4l0,0h0.8
	l2.3,6.5h-0.7h-0.7l-0.4-1.3h-1.3V605.7z M157.1,618.9v-6.5h2.4v0.6v0.6h-2v5.4L157.1,618.9L157.1,618.9z M163,612.4v1.1h-1.3v1.7
	h1.3v1.1h-1.3v2.6H161h-0.7v-6.5h0.7L163,612.4L163,612.4z M163,600.6v4.2l-0.7-3.3l0,0v5.6h-0.6h-0.6v-6.5h1H163z M175,616.7
	L175,616.7c-0.1,0.8-0.4,1.4-0.9,1.8c-0.5,0.4-1.2,0.7-1.9,0.7c-0.9,0-1.6-0.3-2.2-0.9c-0.5-0.6-0.8-1.4-0.8-2.5s0.3-1.9,0.8-2.5
	s1.3-0.9,2.2-0.9c0.8,0,1.4,0.2,1.9,0.6c0.5,0.4,0.8,1,0.9,1.7h-1.4c0-0.4-0.2-0.6-0.5-0.8s-0.6-0.3-1-0.3c-0.5,0-0.9,0.2-1.2,0.6
	c-0.3,0.4-0.4,1-0.4,1.7s0.1,1.2,0.4,1.6c0.3,0.4,0.7,0.6,1.2,0.6c0.4,0,0.7-0.1,1-0.3s0.4-0.5,0.5-0.9h1.4V616.7z M166.8,618.9
	v-6.5h0.7h0.7v6.5h-0.7H166.8z M168.7,607.1L168.7,607.1v-6.5h4.8v0.6v0.6H170v1.4h3.2v0.6v0.6H170v1.7h3.6v0.6v0.6h-4.9V607.1z
	 M163,604.7v-4.2l0,0l1.2,5.2l1.2-5.2h1h1v6.5h-0.6h-0.6v-5.5L165,607h-0.7h-0.7L163,604.7z M163,616.4v-1.1h0.3
	c0.4,0,0.6-0.1,0.8-0.2c0.2-0.1,0.3-0.4,0.3-0.6c0-0.3-0.1-0.5-0.3-0.6s-0.4-0.2-0.7-0.2H163v-1.1h0.6c0.6,0,1.1,0.2,1.5,0.5
	s0.6,0.8,0.6,1.3c0,0.6-0.2,1.1-0.6,1.4c-0.1,0.1-0.2,0.1-0.4,0.2c0.1,0,0.2,0.1,0.2,0.1c0.4,0.2,0.6,0.6,0.6,1.1v1.1
	c0,0.2,0,0.4,0.1,0.5c0,0.1,0.1,0.2,0.2,0.2v0.2h-1.5c0-0.1-0.1-0.2-0.1-0.4s0-0.5,0-0.7v-0.6c0-0.3-0.1-0.5-0.3-0.6
	C163.7,616.4,163.5,616.4,163,616.4L163,616.4z M178.8,612.3v1.2c-0.6,0-1,0.2-1.3,0.6c-0.3,0.4-0.5,1-0.5,1.7s0.2,1.3,0.5,1.7
	s0.7,0.6,1.3,0.6v1.2c-1,0-1.7-0.3-2.3-0.9c-0.6-0.6-0.8-1.4-0.8-2.5s0.3-1.9,0.8-2.5C177.1,612.6,177.9,612.3,178.8,612.3z
	 M178.8,600.6v6.5h-0.2l-2.7-4.7v4.7h-0.6h-0.6v-6.5h0.7h0.7l2.6,4.6v-4.6H178.8z M186.6,614.4L186.6,614.4c0-0.3-0.2-0.6-0.4-0.7
	c-0.2-0.2-0.6-0.3-1-0.3c-0.3,0-0.6,0.1-0.8,0.2c-0.2,0.2-0.3,0.4-0.3,0.6c0,0.2,0.1,0.3,0.3,0.5s0.6,0.2,1.3,0.4
	c0.9,0.2,1.6,0.5,1.9,0.7c0.3,0.3,0.5,0.7,0.5,1.3s-0.2,1.1-0.7,1.5s-1.1,0.5-2,0.5s-1.5-0.2-1.9-0.6c-0.5-0.4-0.7-0.9-0.7-1.6h1.3
	c0,0.3,0.1,0.6,0.4,0.8c0.2,0.2,0.6,0.3,1,0.3s0.8-0.1,1-0.2c0.2-0.1,0.4-0.3,0.4-0.6c0-0.2-0.1-0.4-0.3-0.5s-0.5-0.2-1.1-0.4
	c-1-0.2-1.7-0.5-2.1-0.7c-0.3-0.3-0.5-0.7-0.5-1.2c0-0.6,0.2-1.1,0.7-1.5s1.1-0.6,1.9-0.6c0.7,0,1.3,0.2,1.8,0.6
	c0.5,0.4,0.7,0.9,0.8,1.6L186.6,614.4L186.6,614.4z M182.7,607.1v-5.4h-2v-0.6v-0.6h5.3v0.6v0.6h-2v5.4h-0.7H182.7z M178.8,607.1
	v-6.5h0.5h0.6v6.5h-0.7H178.8z M178.8,619.1V618c0.6,0,1-0.2,1.3-0.6c0.3-0.4,0.5-0.9,0.5-1.7c0-0.7-0.2-1.3-0.5-1.7
	s-0.7-0.6-1.3-0.6v-1.2c1,0,1.7,0.3,2.3,0.9c0.6,0.6,0.8,1.5,0.8,2.5s-0.3,1.9-0.8,2.5C180.6,618.8,179.8,619.1,178.8,619.1
	 M189.7,600.4v1.2c-0.6,0-1,0.2-1.3,0.6c-0.3,0.4-0.5,1-0.5,1.7s0.2,1.3,0.5,1.7s0.7,0.6,1.3,0.6v1.2c-1,0-1.7-0.3-2.3-0.9
	c-0.6-0.6-0.8-1.4-0.8-2.5s0.3-1.9,0.8-2.5C188,600.7,188.7,600.4,189.7,600.4z M197.4,602.5L197.4,602.5c0-0.3-0.2-0.6-0.4-0.7
	c-0.2-0.2-0.6-0.3-1-0.3c-0.3,0-0.6,0.1-0.8,0.2c-0.2,0.2-0.3,0.4-0.3,0.6c0,0.2,0.1,0.3,0.3,0.5c0.2,0.1,0.6,0.2,1.3,0.4
	c0.9,0.2,1.6,0.5,1.9,0.7c0.3,0.3,0.5,0.7,0.5,1.3s-0.2,1.1-0.7,1.5s-1.1,0.5-2,0.5c-0.8,0-1.5-0.2-1.9-0.6s-0.7-0.9-0.7-1.6h1.3
	c0,0.3,0.1,0.6,0.4,0.8c0.2,0.2,0.6,0.3,1,0.3s0.8-0.1,1-0.2c0.2-0.1,0.4-0.3,0.4-0.6c0-0.2-0.1-0.4-0.3-0.5s-0.5-0.2-1.1-0.4
	c-1-0.2-1.7-0.5-2.1-0.7c-0.3-0.3-0.5-0.7-0.5-1.2c0-0.6,0.2-1.1,0.7-1.5s1.1-0.6,1.9-0.6c0.7,0,1.3,0.2,1.8,0.6
	c0.5,0.4,0.7,0.9,0.8,1.6L197.4,602.5L197.4,602.5z M189.7,607.2V606c0.6,0,1-0.2,1.3-0.6c0.3-0.4,0.5-0.9,0.5-1.7
	c0-0.7-0.2-1.3-0.5-1.7s-0.7-0.6-1.3-0.6v-1.2c1,0,1.7,0.3,2.3,0.9c0.6,0.6,0.8,1.5,0.8,2.5s-0.3,1.9-0.8,2.5
	C191.4,606.9,190.6,607.2,189.7,607.2"/>
<path id="XMLID_6665_" class="st4" d="M247.4,618.9L247.4,618.9v-6.5h0.7h0.7v5.4h3.2v0.6v0.6L247.4,618.9L247.4,618.9z
	 M241.8,618.9v-6.5h4.6v0.6v0.6h-3.3v1.5h2.9v0.6v0.6h-2.9v2.8h-0.7h-0.6V618.9z M236.5,618.9L236.5,618.9h-0.6h-0.6v-6.5h0.7h0.7
	l2.6,4.6v-4.6h0.6h0.6v6.5h-0.7h-0.7l-2.7-4.7L236.5,618.9L236.5,618.9z M232.6,618.9v-6.5h0.7h0.7v6.5h-0.7H232.6z M255.5,612.4
	v1.5l0,0l-0.9,2.6h0.9v1.1h-1.2l-0.4,1.3h-0.7h-0.7l2.3-6.5L255.5,612.4L255.5,612.4z M255.5,603.4v3.7h-0.6h-0.7L255.5,603.4z
	 M250.4,607.2c-0.9,0-1.7-0.3-2.3-0.9c-0.6-0.6-0.8-1.4-0.8-2.5s0.3-1.9,0.9-2.5c0.6-0.6,1.4-0.9,2.3-0.9c0.8,0,1.4,0.2,2,0.6
	c0.5,0.4,0.8,0.9,0.9,1.6H252c0-0.3-0.2-0.5-0.5-0.7s-0.6-0.3-0.9-0.3c-0.6,0-1.1,0.2-1.4,0.6c-0.3,0.4-0.5,1-0.5,1.7
	s0.2,1.3,0.5,1.7s0.8,0.6,1.4,0.6l0,0c0.5,0,0.9-0.2,1.2-0.6c0.2-0.2,0.3-0.5,0.4-0.8l0,0h-1.5v-1.1h2.7v3.5h-0.9l-0.1-0.8l-0.1,0.1
	C251.8,606.9,251.2,607.2,250.4,607.2L250.4,607.2z M257.2,615.1v3.8h-0.1l-0.4-1.3h-1.2v-1.1h0.9l-0.9-2.6v-1.5l0,0h0.8
	L257.2,615.1z M257.2,600.6v1.5l0,0l-0.9,2.6h0.9v1.1H256l-0.4,1.3h-0.1v-3.7l1-2.8L257.2,600.6L257.2,600.6z M260.7,618.9
	L260.7,618.9H260h-0.6v-6.5h1h1l1.2,5.2l1.2-5.2h1h1v6.5h-0.6h-0.6v-5.5l-1.2,5.5h-0.7H262l-1.2-5.6L260.7,618.9L260.7,618.9z
	 M264.8,602.5L264.8,602.5c0-0.3-0.2-0.6-0.4-0.7c-0.2-0.2-0.6-0.3-1-0.3c-0.3,0-0.6,0.1-0.8,0.2c-0.2,0.2-0.3,0.4-0.3,0.6
	c0,0.2,0.1,0.3,0.3,0.5c0.2,0.1,0.6,0.2,1.3,0.4c0.9,0.2,1.6,0.5,1.9,0.7c0.3,0.3,0.5,0.7,0.5,1.3s-0.2,1.1-0.7,1.5s-1.1,0.5-2,0.5
	c-0.8,0-1.5-0.2-1.9-0.6c-0.5-0.4-0.7-0.9-0.7-1.6h1.3c0,0.3,0.1,0.6,0.4,0.8c0.2,0.2,0.6,0.3,1,0.3s0.8-0.1,1-0.2
	c0.2-0.1,0.4-0.3,0.4-0.6c0-0.2-0.1-0.4-0.3-0.5c-0.2-0.1-0.5-0.2-1.1-0.4c-1-0.2-1.7-0.5-2.1-0.7c-0.3-0.3-0.5-0.7-0.5-1.2
	c0-0.6,0.2-1.1,0.7-1.5s1.1-0.6,1.9-0.6c0.7,0,1.3,0.2,1.8,0.6c0.5,0.4,0.7,0.9,0.8,1.6L264.8,602.5L264.8,602.5z M257.2,605.7v-1.1
	h0.9l-0.9-2.6v-1.5l0,0h0.8l2.3,6.5h-0.7h-0.7l-0.4-1.3L257.2,605.7L257.2,605.7z M257.2,618.9v-3.8l1.4,3.8h-0.7H257.2z
	 M269.6,612.4v1.5l0,0l-0.9,2.6h0.9v1.1h-1.2l-0.4,1.3h-0.7h-0.7l2.3-6.5L269.6,612.4L269.6,612.4z M269.6,611v0.8h-0.5L269.6,611z
	 M269.6,600.6v1.2h-0.9v1.4h0.9v1.1h-0.9v1.7h0.9v1.2h-2.3v-6.5h2.3V600.6z M291.7,614.4L291.7,614.4c0-0.3-0.2-0.6-0.4-0.7
	c-0.2-0.2-0.6-0.3-1-0.3c-0.3,0-0.6,0.1-0.8,0.2c-0.2,0.2-0.3,0.4-0.3,0.6c0,0.2,0.1,0.3,0.3,0.5c0.2,0.1,0.6,0.2,1.3,0.4
	c0.9,0.2,1.6,0.5,1.9,0.7c0.3,0.3,0.5,0.7,0.5,1.3s-0.2,1.1-0.7,1.5s-1.1,0.5-2,0.5c-0.8,0-1.5-0.2-1.9-0.6
	c-0.5-0.4-0.7-0.9-0.7-1.6h1.3c0,0.3,0.1,0.6,0.4,0.8c0.2,0.2,0.6,0.3,1,0.3s0.8-0.1,1-0.2c0.2-0.1,0.4-0.3,0.4-0.6
	c0-0.2-0.1-0.4-0.3-0.5c-0.2-0.1-0.5-0.2-1.1-0.4c-1-0.2-1.7-0.5-2.1-0.8c-0.3-0.3-0.5-0.7-0.5-1.2c0-0.6,0.2-1.1,0.7-1.5
	s1.1-0.6,1.9-0.6c0.7,0,1.3,0.2,1.8,0.6c0.5,0.4,0.7,0.9,0.8,1.6H291.7z M285.6,618.9v-6.5h0.7h0.7v6.5h-0.7H285.6z M279.6,618.9
	L279.6,618.9v-6.5h4.8v0.6v0.6H281v1.4h3.2v0.6v0.6H281v1.7h3.6v0.6v0.6h-5V618.9z M273.1,612.4L273.1,612.4h0.7h0.7l1.4,5l0,0
	l1.4-5h0.7h0.7l-2.2,6.5h-0.6h-0.6L273.1,612.4z M276.9,602.5L276.9,602.5c0-0.3-0.2-0.6-0.4-0.7c-0.2-0.2-0.6-0.3-1-0.3
	c-0.3,0-0.6,0.1-0.8,0.2c-0.2,0.2-0.3,0.4-0.3,0.6c0,0.2,0.1,0.3,0.3,0.5c0.2,0.1,0.6,0.2,1.3,0.4c0.9,0.2,1.6,0.5,1.9,0.7
	c0.3,0.3,0.5,0.7,0.5,1.3s-0.2,1.1-0.7,1.5s-1.1,0.5-2,0.5c-0.8,0-1.5-0.2-1.9-0.6c-0.5-0.4-0.7-0.9-0.7-1.6h1.3
	c0,0.3,0.1,0.6,0.4,0.8c0.2,0.2,0.6,0.3,1,0.3s0.8-0.1,1-0.2c0.2-0.1,0.4-0.3,0.4-0.6c0-0.2-0.1-0.4-0.3-0.5
	c-0.2-0.1-0.5-0.2-1.1-0.4c-1-0.2-1.7-0.5-2.1-0.7c-0.3-0.3-0.5-0.7-0.5-1.2c0-0.6,0.2-1.1,0.7-1.5s1.1-0.6,1.9-0.6
	c0.7,0,1.3,0.2,1.8,0.6c0.5,0.4,0.7,0.9,0.8,1.6L276.9,602.5L276.9,602.5z M269.6,601.7v-1.2h2.5v0.6v0.6L269.6,601.7L269.6,601.7z
	 M269.6,604.2v-1.1h2.2v0.6v0.6L269.6,604.2L269.6,604.2z M269.6,607.1v-1.2h2.6v0.6v0.6L269.6,607.1L269.6,607.1z M269.6,611.8V611
	l0.3-0.5h1.4l-1.3,1.3H269.6z M269.6,617.6v-1.1h0.9l-0.9-2.6v-1.5l0,0h0.8l2.3,6.5H272h-0.7l-0.4-1.3L269.6,617.6L269.6,617.6z"/>
<polygon id="XMLID_6664_" points="341.7,499.9 346.3,508.2 356.2,509.7 349.2,516.3 350.7,525.4 341.7,521.2 332.8,525.4 
	334.3,516.2 327.2,509.7 337.1,508.2 "/>
<path id="XMLID_6661_" class="st0" d="M346.6,509.8c-0.9-1-2.1-1.5-3.8-1.5l0,0h-3.9h-1.3v12.6h1.3h3.7h0.2c1.7,0,2.9-0.6,3.8-1.7
	c0.9-1.1,1.4-2.8,1.4-4.9C347.9,512.3,347.4,510.8,346.6,509.8z M344.6,517.6c-0.4,0.6-1.1,1-1.9,1.1c-0.2,0-0.3,0-0.5,0h-2.1v-8.3
	h2.4h0.3c0.8,0.1,1.5,0.4,1.9,1c0.5,0.7,0.7,1.6,0.7,2.9C345.3,515.8,345.1,516.8,344.6,517.6z"/>
<path id="XMLID_6593_" d="M348.5,618.9L348.5,618.9v-6.5h0.7h0.7v5.4h3.2v0.6v0.6L348.5,618.9L348.5,618.9z M343,618.9v-6.5h4.6v0.6
	v0.6h-3.3v1.5h2.9v0.6v0.6h-2.9v2.8h-0.7H343V618.9z M337.6,618.9L337.6,618.9H337h-0.6v-6.5h0.7h0.7l2.6,4.6v-4.6h0.6h0.6v6.5H341
	h-0.7l-2.7-4.7L337.6,618.9L337.6,618.9z M333.8,618.9v-6.5h0.7h0.7v6.5h-0.7H333.8z M356.6,612.4v1.5l0,0l-0.9,2.6h0.9v1.1h-1.2
	l-0.4,1.3h-0.7h-0.7l2.3-6.5L356.6,612.4L356.6,612.4z M356.6,600.6v1.2h-0.2v1.4h0.2v1.1h-0.2v1.7h0.2v1.2H355v-6.5h1.6V600.6z
	 M348.7,607.1L348.7,607.1h-0.6h-0.6v-6.5h1h1l1.2,5.2l1.2-5.2h1h1v6.5h-0.6h-0.6v-5.5l0,0l-1.2,5.5h-0.7h-0.7l-1.2-5.6v5.6H348.7z
	 M361.8,618.9L361.8,618.9h-0.6h-0.6v-6.5h1h1l1.2,5.2l1.2-5.2h1h1v6.5h-0.6h-0.6v-5.5l0,0l-1.2,5.5h-0.7H363l-1.2-5.6V618.9z
	 M362.5,607.1v-5.4h-2v-0.6v-0.6h5.3v0.6v0.6h-2v5.4h-0.7H362.5z M356.6,601.7v-1.2h3.2v0.6v0.6L356.6,601.7L356.6,601.7z
	 M356.6,604.2v-1.1h3v0.6v0.6L356.6,604.2L356.6,604.2z M356.6,607.1v-1.2h3.4v0.6v0.6L356.6,607.1L356.6,607.1z M356.6,617.6v-1.1
	h0.9l-0.9-2.6v-1.5l0,0h0.8l2.3,6.5H359h-0.7l-0.4-1.3L356.6,617.6L356.6,617.6z M369.2,614.5v3.9l-0.2,0.5h-0.7h-0.7L369.2,614.5z
	 M369.2,600.6v1.4l-0.9,2.6h0.9v1.1H368l-0.4,1.3h-0.7h-0.7l2.3-6.5h0.7V600.6z M370.7,612.4v1.5l0,0l-0.9,2.6h0.9v1.1h-1.2
	l-0.3,0.8v-3.9l0.7-2.1L370.7,612.4L370.7,612.4z M370.7,611v0.8h-0.5L370.7,611z M370.7,602.5v4l-0.3-0.8h-1.2v-1.1h0.9l-0.9-2.6
	v-1.4l0,0h0.8L370.7,602.5z M392.9,614.4L392.9,614.4c0-0.3-0.2-0.6-0.4-0.7c-0.2-0.2-0.6-0.3-1-0.3c-0.3,0-0.6,0.1-0.8,0.2
	c-0.2,0.2-0.3,0.4-0.3,0.6c0,0.2,0.1,0.3,0.3,0.5c0.2,0.1,0.6,0.2,1.3,0.4c0.9,0.2,1.6,0.5,1.9,0.7c0.3,0.3,0.5,0.7,0.5,1.3
	s-0.2,1.1-0.7,1.5s-1.1,0.5-2,0.5s-1.5-0.2-1.9-0.6c-0.5-0.4-0.7-0.9-0.7-1.6h1.3c0,0.3,0.1,0.6,0.4,0.8c0.2,0.2,0.6,0.3,1,0.3
	s0.8-0.1,1-0.2c0.2-0.1,0.4-0.3,0.4-0.6c0-0.2-0.1-0.4-0.3-0.5c-0.2-0.1-0.5-0.2-1.1-0.4c-1-0.2-1.7-0.5-2.1-0.8
	c-0.3-0.3-0.5-0.7-0.5-1.2c0-0.6,0.2-1.1,0.7-1.5s1.1-0.6,1.9-0.6c0.7,0,1.3,0.2,1.8,0.6c0.5,0.4,0.7,0.9,0.8,1.6H392.9z
	 M386.7,618.9v-6.5h0.7h0.7v6.5h-0.7H386.7z M380.8,618.9L380.8,618.9v-6.5h4.8v0.6v0.6h-3.4v1.4h3.2v0.6v0.6h-3.2v1.7h3.6v0.6v0.6
	h-5V618.9z M374.2,612.4L374.2,612.4h0.7h0.7l1.4,5l0,0l1.4-5h0.7h0.7l-2.2,6.5H377h-0.6L374.2,612.4z M379.3,602.5L379.3,602.5
	c0-0.3-0.2-0.6-0.4-0.7c-0.2-0.2-0.6-0.3-1-0.3c-0.3,0-0.6,0.1-0.8,0.2c-0.2,0.2-0.3,0.4-0.3,0.6c0,0.2,0.1,0.3,0.3,0.5
	c0.2,0.1,0.6,0.2,1.3,0.4c0.9,0.2,1.6,0.5,1.9,0.7c0.3,0.3,0.5,0.7,0.5,1.3s-0.2,1.1-0.7,1.5s-1.1,0.5-2,0.5c-0.8,0-1.5-0.2-1.9-0.6
	c-0.5-0.4-0.7-0.9-0.7-1.6h1.3c0,0.3,0.1,0.6,0.4,0.8c0.2,0.2,0.6,0.3,1,0.3s0.8-0.1,1-0.2c0.2-0.1,0.4-0.3,0.4-0.6
	c0-0.2-0.1-0.4-0.3-0.5c-0.2-0.1-0.5-0.2-1.1-0.4c-1-0.2-1.7-0.5-2.1-0.7c-0.3-0.3-0.5-0.7-0.5-1.2c0-0.6,0.2-1.1,0.7-1.5
	s1.1-0.6,1.9-0.6c0.7,0,1.3,0.2,1.8,0.6c0.5,0.4,0.7,0.9,0.8,1.6L379.3,602.5L379.3,602.5z M373.1,607.1v-6.5h0.7h0.7v6.5h-0.7
	H373.1z M370.7,606.6v-4l1.6,4.5h-0.7h-0.7L370.7,606.6z M370.7,611.8V611l0.3-0.5h1.4l-1.3,1.3H370.7z M370.7,617.6v-1.1h0.9
	l-0.9-2.6v-1.5l0,0h0.8l2.3,6.5h-0.7h-0.7l-0.4-1.3L370.7,617.6L370.7,617.6z"/>
<g id="XMLID_1_">
	<path id="XMLID_15_" d="M364.3,546.8c0.9,0.9,1.7,1.9,1.9,3.1c0.7-2.1,1.5-3.4,1.1-4.4c-0.6-1.7-2.3-2.8-2.4-6
		c0-1.7,0.8-3.5,2.5-4.6c-1.1,0.2-2.1,0.6-3,1.2c-2.4,1.6-3.9,4.5-2.7,7.3C362.1,544.7,363.2,545.7,364.3,546.8z"/>
	<path id="XMLID_28_" d="M394.7,527.8L394.7,527.8c-1.1-1.1-2.6-1.8-4.3-1.8h-26.5h-26.5c-1.7,0-3.2,0.7-4.3,1.8l0,0
		c-1.1,1.1-1.8,2.6-1.8,4.3v53.1c0,1.7,0.7,3.2,1.8,4.3l0,0c1.1,1.1,2.6,1.8,4.3,1.8h26.5h26.5c1.7,0,3.2-0.7,4.3-1.8l0,0
		c1.1-1.1,1.8-2.6,1.8-4.3v-53.1C396.5,530.4,395.8,528.9,394.7,527.8z M390.3,527.6c1.2,0,2.4,0.5,3.2,1.3c0.8,0.8,1.3,1.9,1.3,3.2
		v46.5l-10.4-10.4c0-0.1,0.1-0.1,0.1-0.2c0.9-1.4,0.9-3.1,0.4-4.3c-0.4-1.1-1.5-2-2.4-2.5c0.3,1.5,0.1,2.7-0.3,3.5
		c-0.2,0.3-0.3,0.6-0.5,0.8l-26.3-26.3c0-0.1,0-0.1,0.1-0.2c0.8-2.3,1.5-4.1,1.3-5.5c-0.2-1.2-1.2-2.2-2.8-3.1
		c-0.6-0.4-1.4-0.7-2.2-1c1.6,2.1,1.7,4.4,1.2,5.8c-0.1,0.4-0.3,0.7-0.5,1.1l-8.7-8.7h19.9L390.3,527.6L390.3,527.6z M352.6,558.6
		l1.4,1.4c-0.5,1.5-0.9,3.1-0.9,4.7c0,1.7,0.3,3.3,0.9,4.8c1.7,4.4,5.5,7.7,10.2,8.5c0.8,0.1,1.6,0.2,2.5,0.2c1.7,0,3.2-0.3,4.7-0.9
		l1.4,1.4c-1.9,0.8-3.9,1.3-6.1,1.3c-0.8,0-1.7-0.1-2.5-0.2c-4.2-0.7-7.9-3.1-10.2-6.5c-1.7-2.5-2.7-5.4-2.7-8.6
		C351.4,562.5,351.8,560.5,352.6,558.6z M337.2,589.7c-1.2,0-2.4-0.5-3.2-1.3l0,0c-0.8-0.8-1.3-1.9-1.3-3.2v-46.5l9.5,9.5
		c-0.1,1,0.2,2,1,3c0.9,1.1,1.9,2.4,2.6,3.8c0.1,0.2,0.2,0.3,0.2,0.5c-0.1-0.2-0.2-0.5-0.2-0.7c-0.3-1.1-0.4-2.3-0.5-3.5l3.7,3.7
		c-0.6,1.1-1.2,2.3-1.6,3.6l-1.6-0.6l-1.2-0.4c-0.3,1.1-0.6,2.2-0.8,3.4c-0.2,1.2-0.3,2.3-0.3,3.5h2.3h0.7c0,0.1,0,0.2,0,0.2
		c0,2.2,0.4,4.4,1,6.4l-1.8,0.5l-1.2,0.4c0.3,1,0.7,1.9,1.2,2.9l0.2,0.4c0.5,1.1,1.1,2,1.8,3l2.4-1.8c1.1,1.5,2.3,2.8,3.8,4
		c0.3,0.3,0.7,0.5,1,0.8l-1,1.3l-0.9,1.1c0.3,0.2,0.6,0.4,0.9,0.6c0.7,0.4,1.4,0.9,2.1,1.2c1.1,0.5,2.1,1,3.2,1.3l0.9-2.9
		c1.3,0.4,2.6,0.7,4,0.9c0.8,0.1,1.6,0.2,2.5,0.2c0.1,0,0.1,0,0.2,0l-0.1,3c1.1,0,2.3-0.1,3.5-0.3s2.3-0.5,3.4-0.8l-1-2.9
		c1.3-0.4,2.5-0.9,3.7-1.6l7.3,7.3h-19.9L337.2,589.7L337.2,589.7z"/>
</g>
<g id="XMLID_6410_">
	<path id="XMLID_6571_" class="st0" d="M353.7,546.2c0.2-0.1,0.4-0.3,0.6-0.5s0.3-0.3,0.4-0.5c0.3-0.5,0.4-1,0.4-1.5
		c0-0.4-0.2-0.9-0.4-1.3c-0.2-0.3-0.4-0.6-0.7-0.9l-0.3-0.3l-2.5-2.5l-0.2-0.2l-0.5-0.5l-6.7,6.7l-0.2,0.2l0.2,0.2l0.5,0.5l0.7,0.7
		l2.7-2.7l1.4,1.4c0.4,0.4,0.6,0.8,0.7,1.1c0,0.3-0.1,0.6-0.4,0.9l-0.6,0.7c-0.3,0.3-0.5,0.5-0.7,0.8s-0.3,0.5-0.4,0.6l1.6,1.6
		l0.2-0.2c-0.1-0.2-0.1-0.3,0-0.5c0.1-0.1,0.2-0.3,0.4-0.6l1-1.1l0.1-0.1c0.5-0.6,0.7-1.2,0.6-1.8c0-0.1-0.1-0.2-0.1-0.3
		c0.2,0.1,0.4,0.2,0.6,0.2C352.7,546.6,353.2,546.5,353.7,546.2z M351,544.6c-0.1-0.1-0.3-0.2-0.4-0.3l-1.7-1.7l1.8-1.8l0.2,0.2
		l1.5,1.5c0.4,0.4,0.5,0.7,0.6,1c0,0.3-0.1,0.6-0.4,1s-0.6,0.4-1,0.4C351.5,544.8,351.3,544.7,351,544.6z"/>
	<path id="XMLID_6567_" class="st0" d="M344.5,539.8c0.8,0,1.6-0.3,2.3-1.1c0.7-0.7,1-1.5,1-2.2c0-0.8-0.5-1.6-1.2-2.4l-2.2-2.2
		l-0.6-0.6l-0.2-0.2l-6.9,6.9l0.7,0.7l0.7,0.7l2.5-2.5c0.4,0.4,0.9,0.9,1.5,1.4c0.6,0.6,1.1,0.9,1.7,1.1
		C344.1,539.8,344.3,539.8,344.5,539.8z M343.1,537.1l-1.2-1.2l2-2l0.1-0.1l1.2,1.2c0.4,0.4,0.6,0.8,0.7,1.2c0,0.4-0.1,0.7-0.4,1
		c-0.4,0.4-0.7,0.5-1.1,0.5c-0.1,0-0.3,0-0.4-0.1C343.6,537.6,343.3,537.4,343.1,537.1z"/>
	<path id="XMLID_6561_" class="st0" d="M382.1,576.2c0.2-0.2,0.3-0.4,0.5-0.5c0.4-0.5,0.8-1,1-1.5c0.2-0.4,0.2-0.8,0.3-1.1
		c0-0.5-0.1-1-0.3-1.5c-0.2-0.5-0.5-0.9-1-1.4l-0.1-0.1l-0.9-0.9l-1.4-1.3l-0.7-0.7l-3,3l-3.4,3.4l-0.5,0.5l0.5,0.5l0.3,0.3l2.1,2.1
		c0.3,0.3,0.7,0.6,1.1,0.8c0.7,0.4,1.4,0.6,2.1,0.5c1-0.1,2-0.6,3-1.5C381.7,576.5,381.9,576.4,382.1,576.2z M380.5,574.8
		c-0.8,0.8-1.5,1.2-2.2,1.3s-1.3-0.1-1.9-0.7l0,0l-1.2-1.2l1.3-1.3l3.3-3.3l1.3,1.3c0.2,0.2,0.4,0.4,0.5,0.6
		c0.2,0.4,0.3,0.8,0.2,1.2c0,0.2-0.1,0.5-0.2,0.7C381.3,573.9,381,574.4,380.5,574.8z"/>
	<path id="XMLID_6474_" class="st0" d="M390.1,577.3c-1-1-2.2-1.5-3.4-1.4c-1.1,0.1-2.1,0.5-3.1,1.4c-0.2,0.1-0.3,0.3-0.4,0.4
		c-0.2,0.2-0.4,0.4-0.5,0.6c-0.5,0.6-0.8,1.1-1,1.7c-0.1,0.4-0.2,0.8-0.2,1.2c0,0.5,0.1,1,0.2,1.5c0.2,0.6,0.5,1.1,1,1.6
		c0.1,0.1,0.1,0.2,0.2,0.2c0.2,0.2,0.5,0.4,0.7,0.6c0.8,0.6,1.7,0.9,2.7,0.8c1.3-0.1,2.4-0.6,3.5-1.7c1.1-1.1,1.7-2.3,1.8-3.6
		C391.6,579.4,391.1,578.3,390.1,577.3z M388.3,582.8c-0.8,0.8-1.5,1.2-2.3,1.3s-1.4-0.2-2-0.8c-0.2-0.2-0.4-0.4-0.5-0.6
		c-0.2-0.4-0.3-0.9-0.3-1.4c0-0.3,0.1-0.6,0.3-0.9c0.2-0.5,0.5-0.9,1-1.4c0.8-0.8,1.5-1.2,2.3-1.3s1.4,0.1,2,0.7
		c0.6,0.6,0.8,1.3,0.7,2C389.5,581.3,389,582.1,388.3,582.8z"/>
	<polygon id="XMLID_6473_" class="st0" points="376.4,566.5 377.7,565.2 377,564.5 376.4,564 376.2,563.8 373,567.1 369.5,570.5 
		369.3,570.7 369.5,571 370,571.5 370.8,572.2 373,570 	"/>
	<path id="XMLID_6463_" class="st0" d="M369.9,567c0.6-0.6,0.8-1.3,0.7-2c0-0.2-0.1-0.4-0.2-0.7c0.1,0,0.2,0.1,0.4,0.1
		c0.7,0.1,1.4-0.1,1.9-0.7c0.1-0.1,0.2-0.2,0.3-0.3c0.3-0.5,0.5-1,0.4-1.5c0-0.4-0.2-0.8-0.4-1.2c-0.2-0.3-0.4-0.5-0.7-0.8l-2.7-2.7
		l-0.1-0.1l-0.6-0.6l-0.7,0.7l-1.5,1.5l-4.4,4.4l-0.3,0.3l0.3,0.3l0.4,0.4l2.5,2.5c0.5,0.5,1.1,0.9,1.6,1.1c0.3,0.1,0.6,0.2,0.9,0.2
		c0.2,0,0.4,0,0.6,0c0.4-0.1,0.9-0.3,1.3-0.6C369.7,567.3,369.8,567.1,369.9,567z M368.5,565.5c-0.1,0.1-0.2,0.2-0.2,0.2
		c-0.3,0.2-0.5,0.3-0.8,0.2c-0.2,0-0.5-0.1-0.7-0.3c-0.1-0.1-0.2-0.2-0.4-0.3l-1.8-1.8l1.8-1.8l0.3,0.3l1.5,1.5l0.1,0.1
		c0.4,0.4,0.6,0.7,0.6,1S368.8,565.3,368.5,565.5z M369.3,562.3l-1-1l-0.6-0.6l0.6-0.6l0.9-0.9l0.4,0.4l1.2,1.2
		c0.4,0.4,0.6,0.7,0.7,1s0,0.6-0.2,0.8c-0.3,0.3-0.6,0.4-0.9,0.3c-0.2,0-0.5-0.2-0.8-0.4C369.5,562.4,369.4,562.4,369.3,562.3z"/>
	<polygon id="XMLID_6462_" class="st0" points="366.7,555.2 367.2,554.7 366.7,554.3 366.5,554 365.7,553.3 362.3,556.7 
		360.7,558.3 359.7,559.3 358.8,560.2 359.5,561 359.7,561.2 360.3,561.7 360.7,561.2 362.3,559.6 	"/>
	<path id="XMLID_6413_" class="st0" d="M360.7,555.4L360.7,555.4c0.8-0.8,1.3-1.6,1.6-2.4c0.2-0.4,0.2-0.9,0.3-1.3
		c0-0.6-0.1-1.2-0.3-1.7c-0.2-0.6-0.6-1.2-1.2-1.7c-0.1-0.1-0.3-0.3-0.4-0.4c-0.3-0.3-0.6-0.5-1-0.6c-0.6-0.3-1.3-0.4-2-0.4
		c-1.1,0.1-2.1,0.5-3,1.3c-0.2,0.2-0.4,0.3-0.6,0.5c-0.1,0.1-0.3,0.3-0.4,0.4c-0.9,1-1.3,2-1.4,3.1c0,1.2,0.4,2.3,1.4,3.3l0.1,0.1
		c0.3,0.3,0.6,0.5,0.9,0.7c0.8,0.5,1.6,0.8,2.5,0.7c0.9,0,1.7-0.3,2.5-0.9C360.1,556,360.4,555.7,360.7,555.4z M359.3,553.9
		c-0.8,0.8-1.5,1.2-2.3,1.3s-1.4-0.2-2-0.8c-0.1-0.1-0.3-0.3-0.4-0.4c-0.3-0.5-0.5-1-0.4-1.6c0-0.4,0.2-0.8,0.4-1.1
		c0.2-0.4,0.5-0.8,0.9-1.1c0.8-0.8,1.5-1.2,2.3-1.3c0.7-0.1,1.3,0.1,1.9,0.6l0.2,0.2c0.6,0.6,0.8,1.3,0.7,2
		c-0.1,0.6-0.4,1.2-0.9,1.9C359.6,553.6,359.5,553.7,359.3,553.9z"/>
</g>
<text id="XMLID_989_" transform="matrix(1 0 0 1 44.6137 461.7484)" class="st0 st5 st6">EXTINTOR DE CO2</text>
<g id="XMLID_17_">
	<path id="XMLID_18_" class="st4" d="M255.1,574c0,1.1,0.7,1.5,1.3,1.3c0.4-0.1,0.7-0.6,0.7-1.3h-0.7H255.1z"/>
	<path id="XMLID_34_" class="st4" d="M257.9,574c0,0.9,0.5,1.3,1,1.3s1-0.4,1-1.3h-1H257.9z"/>
	<path id="XMLID_37_" class="st4" d="M243.2,587.1v-4.6h52.1v-50.9c0-3.1-2.5-5.6-5.6-5.6h-54.1c-3.1,0-5.6,2.5-5.6,5.6v54.1
		c0,3.1,2.5,5.6,5.6,5.6h54.1c2.6,0,4.8-1.8,5.4-4.2 M246.6,565c0.1,0,0.3,0.1,0.4,0.1c0.5,0.2,0.8,0.5,1.1,0.8
		c0.7,0.9,0.6,2.2-0.5,2.9h-0.5c-1.7-0.1-2.8-0.5-2.9-2.1l2.6-0.1L246.6,565z M269.3,575.1c0.3,0.2,0.7,0.2,1.1-0.1l-1.1,1.2
		l-2.3,2.5l-2,2.3l-0.6,0.6h-1h-1.9h-2.7l0,0h-1.1l0,0h-1.3l0,0H254l0,0h-0.6h-2.9l-0.1-0.1l-3.4-3.7l-2.4-2.7
		c0.6,0.5,1.5,0.1,1.5-1.1h-1.7l1-4h1.6h3.4h3.6h2.4h1.3h1.1h2.7h3.4h2h2.3h0.3l1,4h-1.2h-0.5C268.9,574.5,269.1,574.9,269.3,575.1z
		 M249.5,565l1,0.8l0.6,0.5l1.2-1.4l1.5,0.2c0.6,1.9-0.3,3.8-1.7,3.8c-0.6-0.3-1.2-0.7-1.6-1.2c-0.6-0.6-1-1.2-1.2-1.7
		C249.1,565.5,249.2,565.2,249.5,565z M257.7,563.3c-0.5-0.4-0.9-1-1-1.5c-0.1,0.1-0.2,0.2-0.3,0.2c-0.5,0.6-0.6,1.1-1.5,1
		c-0.1-1.6,0.3-2.7,0.4-4.2c0.3,0.2,0.7,1,1.1,1.3c0.2,0.2,0.3,0.3,0.5,0.2c0.4-0.1,0.6-0.6,0.8-0.8c0-0.1,0.1-0.1,0.2-0.1
		c0.5,0.9,0.7,1.6,1,1.8c0.2,0.2,0.5,0.1,1-0.1c1.4,3.2,0.7,3.8-0.4,5.4c-0.3-0.6,0-2.7-0.5-2.8c0,0,0,0-0.1,0
		C258.4,563.7,258,563.5,257.7,563.3z M257.7,568.7c-0.2,0.1-0.4,0.1-0.7,0.1c-0.2-0.1-0.4-0.3-0.6-0.5c-0.8-1-1.3-2.7-1.3-3.4
		c0-0.5,0.2-0.8,0.6-1l0.7,1.6l0.1,0.1l0.5-1.5l0.7,1.5h0.1l0.7,0.1C259.1,567.2,258.7,568.4,257.7,568.7z M261.6,566L261.6,566
		c0.1-0.5,0.4-0.8,0.8-1l0.8,1.2l1.9-1.3l0.1-0.1l1.4,0.2c-0.3,0.9-0.9,1.8-1.6,2.5c-0.8,0.8-1.6,1.3-2.4,1.3
		c-0.6-0.4-0.9-1-1.1-1.7C261.5,566.8,261.5,566.3,261.6,566z M269.3,568.8c-0.4,0-0.8,0.1-1.2,0.1c-1.1-0.7-1.2-2-0.5-2.9
		c0.3-0.5,0.8-0.8,1.5-1l-0.1,1.7l0.4-0.4l1.3-1.1l-0.1,1.5l1,0.1C271.5,568.1,270.7,568.6,269.3,568.8z M273,559
		c0.3,0.5,0.3,1.5,1,1.4c0.8-0.1,1.4-0.8,2-1c0,1.6-0.6,2.3,1.4,1.7c-0.3,2.9-2.2,4.5-4.5,6c-0.2,0.2-0.5,0.3-0.7,0.4
		c0-0.3,0.4-0.8,0.7-1.4c0.5-0.7,1-1.5,0.5-1.5c-0.2,0-0.4,0-0.5-0.1c-1.1-0.2-1.3-1.1-1.1-1.8c-1.2,0.5-1.8,1-2.6,1.2
		c-0.2,0-0.5,0.1-0.8,0c0.2-0.3,0.5-0.7,0.8-1.1c1.1-1.4,2.6-3,3.6-4.1C273,558.8,273,558.9,273,559z M265.1,556.5
		c1-1.8,2-3.8,1.1-7.2c-0.3-1.1-0.9-3.1,1-4.7c0.3-0.3,0.7-0.6,1.2-0.8c-0.8,1.7-0.1,3.2,0.6,4.3c0.1,0.2,0.3,0.5,0.4,0.7
		c0.5,1.2,0.6,2.7,0,4.1c-0.4,1-1.1,2.1-2.3,3c-0.6,0.5-1.3,0.9-2,1.3c-0.2,0.1-0.4,0.2-0.6,0.3
		C264.7,557.1,264.9,556.8,265.1,556.5z M265.1,560.9c0.6-0.6,1.3-1.4,1.8-1.4c-0.1,0.8,0.1,1.3,0.3,1.5c0.3,0.3,0.8,0.2,1.1,0
		c0.3,1,0.2,1.5-1.1,3l-0.1,0.1c-0.2-1-1.4-0.1-2-0.2c-0.2,0-0.4-0.2-0.4-0.6c-0.9,0.6-1.9,0.8-2.9,0.6c0.3-1.6,0.8-3.1,1.2-4.6
		c0.7,0.7,0.8,1.2,1.3,2C264.5,561.4,264.8,561.2,265.1,560.9z M256.4,533.2c0.3-0.6,0.7-1.2,1.3-2c0.3-0.3,0.6-0.7,0.9-1.1
		c-0.6,1.9-0.4,3.2,0.2,4.2s1.6,1.8,2.7,2.8l0,0c2.7,2.4,2.9,6.3,0,9.5c-0.7,0.8-1.6,1.6-2.7,2.3l-0.2,0.1l0.2-0.4
		c1.2-2.5,3.1-6.1,0-9.2l-0.1-0.1c-0.4-0.4-0.7-0.7-1-1c-0.6-0.6-1-1.2-1.3-1.7C255.9,535.5,255.9,534.5,256.4,533.2z M252.9,545
		c0.5-0.6,0.9-0.9,1.1-1.3c0.4-0.5,0.6-1,0.8-1.9c0.8,0.7,1.3,1.4,1.6,1.9c0.7,1.2,0.5,2,0,3.1c-0.1,0.2-0.2,0.5-0.4,0.8
		c-2.3,4.5-1.5,6.8-0.8,9c-0.5-0.3-0.9-0.7-1.2-1C250.4,552.2,250.4,547.7,252.9,545z M250.8,559.5c1.1,2.1,1.8,1.8,2.3,1.6
		c0.9,1,1.1,1.5,0.6,3.1c-1.1-1.4-1.8,0.8-2.8-0.7c-0.1,0.2-0.3,0.3-0.4,0.4c-0.5,0.3-1.3,0.4-2.1,0.3c-0.6-1.5-0.9-2.9-1.3-4.3
		l-0.1-0.3l0.1,0.1c1.1,0.7,1.4,1.1,2.4,1.9c0.3-0.1,0.6-1.3,1-1.7C250.5,559.6,250.6,559.5,250.8,559.5z M245.3,544.4
		c0.7-1.3,1.5-3.1,0.7-5.2c0.4,0.3,0.7,0.5,1,0.8c2.1,2,1.5,4.6,1.2,5.9c-1.2,4.9,0.5,7.4,1.7,9.9c-1.1-0.6-2.1-1.4-2.8-2.2
		C244.2,550.6,244,546.9,245.3,544.4z M242.5,567c-2.3-1.6-4.3-3.7-4.6-6.6c1.7,0.4,2.3,0.9,4,1.1c0.2-0.4,0.4-0.7,0.6-1.1
		c0.3-0.4,0.6-0.9,1-1.3c1.2,1.5,2.5,3.2,3.5,4.7l0.1,0.2H247c-1.4,0.1-2.8,0-4.4-0.6c0.5,1.5,0.6,2.8,0.7,4.1
		C243,567.4,242.8,567.2,242.5,567z"/>
	<path id="XMLID_68_" class="st4" d="M249.7,574c0,0.7,0.3,1.2,0.7,1.3c0.6,0.2,1.2-0.3,1.2-1.3h-1.2H249.7z"/>
	<path id="XMLID_69_" class="st4" d="M246.9,574c0,0.2,0,0.4,0.1,0.6c0.4,1.1,1.9,0.9,1.9-0.6H246.9L246.9,574z"/>
	<path id="XMLID_70_" class="st4" d="M252.4,574c0,1.3,1.1,1.6,1.6,1c0.2-0.2,0.4-0.6,0.4-1H254H252.4z"/>
	<path id="XMLID_71_" class="st4" d="M260.6,574c0,0.9,0.5,1.3,1,1.3s1-0.4,1-1.3h-1H260.6z"/>
	<path id="XMLID_72_" class="st4" d="M266.1,574c0,0.9,0.5,1.3,1,1.3s1-0.4,1-1.3h-1H266.1z"/>
	<path id="XMLID_73_" class="st4" d="M263.4,574c0,1.3,1.1,1.7,1.7,1c0.2-0.2,0.3-0.5,0.3-1h-0.3H263.4z"/>
</g>
</svg>
