<?xml version="1.0" encoding="utf-8"?>
<!-- Generator: Adobe Illustrator 19.2.1, SVG Export Plug-In . SVG Version: 6.00 Build 0)  -->
<svg version="1.1" id="Layer_1" xmlns="http://www.w3.org/2000/svg" xmlns:xlink="http://www.w3.org/1999/xlink" x="0px" y="0px"
	 viewBox="0 0 425.2 566.9" style="enable-background:new 0 0 425.2 566.9;" xml:space="preserve">
<style type="text/css">
	.st0{fill:#EDEDED;}
	.st1{fill:#E31019;}
	.st2{fill:#9D9D9C;}
	.st3{fill:#E30613;}
</style>
<g id="XMLID_9575_">
	<rect x="0" y="0" class="st0" width="425.2" height="566.9"/>
</g>
<g id="XMLID_9574_">
	<rect x="28.5" y="28.5" class="st1" width="368.1" height="509.9"/>
</g>
<g id="XMLID_458_">
	<g id="XMLID_480_">
		<rect x="290.9" y="538.4" class="st0" width="105.8" height="28.5"/>
	</g>
	<g id="XMLID_459_">
		<g id="XMLID_472_">
			<g id="XMLID_477_">
				<path class="st2" d="M325.7,554c-0.7,0-1.3,0.6-1.3,1.3c0,0.7,0.6,1.3,1.3,1.3s1.3-0.6,1.3-1.3C327,554.6,326.4,554,325.7,554z
					 M326,555.4c-0.1,0.1-0.3,0.1-0.6-0.1c-0.3-0.1-0.5-0.3-0.5-0.4l-0.4-0.2l0.4,0.1c0.1-0.1,0.3-0.1,0.6,0.1
					C325.8,555.1,326,555.3,326,555.4l0.8,0.3L326,555.4z"/>
			</g>
			<g id="XMLID_473_">
				<path class="st2" d="M325.9,555.2c-0.1-0.1-0.2-0.1-0.3-0.2c-0.2-0.1-0.5-0.2-0.6-0.1c0,0.1,0.2,0.3,0.4,0.4
					c0.1,0.1,0.3,0.1,0.4,0.1c0,0,0.1,0,0.1,0c0.1,0,0.1,0,0.1-0.1C326,555.3,325.9,555.3,325.9,555.2z M325.8,555.4
					c-0.1,0-0.2-0.1-0.4-0.1c-0.3-0.1-0.4-0.3-0.4-0.3l0.9,0.4C325.9,555.4,325.8,555.4,325.8,555.4z M325,554.9
					C325,554.9,325.1,554.9,325,554.9c0.2,0,0.3,0,0.5,0.1c0.1,0.1,0.2,0.1,0.3,0.2c0.1,0.1,0.1,0.1,0.1,0.1L325,554.9z"/>
			</g>
		</g>
		<g id="XMLID_470_">
			<path class="st2" d="M333.5,560.5h-3.2l-4.7-9.9l-4.7,9.9h-3.2l7.8-15.7L333.5,560.5z"/>
		</g>
		<g id="XMLID_468_">
			<path class="st2" d="M314.7,544.8v15.7l-2.6-2v-8.2l-5.3,4.1l-5.3-4.1v8.2l-2.6,2v-15.7l7.9,6.1L314.7,544.8z"/>
		</g>
		<g id="XMLID_466_">
			<path class="st2" d="M341.1,551.2c0.1,0,0.3,0,0.6,0.1c0.3,0,0.6,0.1,0.9,0.2c0.3,0.1,0.7,0.3,1.1,0.5c0.4,0.2,0.7,0.5,1,0.8
				c0.3,0.3,0.5,0.8,0.7,1.2c0.2,0.5,0.3,1.1,0.3,1.8c0,0,0,0.2,0,0.4c0,0.2-0.1,0.5-0.2,0.9c-0.1,0.3-0.3,0.7-0.5,1.1
				c-0.2,0.4-0.5,0.8-1,1.1c-0.4,0.3-0.9,0.6-1.6,0.8c-0.6,0.2-1.4,0.3-2.3,0.3c-0.8,0-1.7-0.2-2.4-0.5c-0.8-0.4-1.4-0.8-2-1.5
				l2.1-1.7c0,0,0.1,0.1,0.2,0.2c0.1,0.1,0.3,0.2,0.5,0.4c0.2,0.1,0.5,0.2,0.8,0.3c0.3,0.1,0.7,0.2,1.1,0.2c0.8,0,1.4-0.2,1.9-0.6
				c0.4-0.4,0.7-0.9,0.7-1.5c0-0.4-0.1-0.7-0.3-1c-0.2-0.3-0.4-0.5-0.7-0.6c-0.3-0.2-0.6-0.3-1-0.4c-0.4-0.1-0.8-0.2-1.2-0.3
				c-0.1,0-0.3,0-0.6-0.1c-0.3-0.1-0.5-0.1-0.9-0.3s-0.6-0.3-1-0.5c-0.3-0.2-0.6-0.5-0.9-0.8c-0.3-0.3-0.5-0.7-0.7-1.1
				c-0.2-0.4-0.3-1-0.3-1.6c0,0,0-0.2,0-0.4c0-0.2,0.1-0.5,0.2-0.8c0.1-0.3,0.3-0.7,0.5-1.1c0.2-0.4,0.6-0.7,1-1
				c0.4-0.3,0.9-0.6,1.6-0.8c0.6-0.2,1.4-0.3,2.3-0.3c0.8,0,1.7,0.2,2.4,0.5c0.8,0.4,1.4,0.9,2,1.5l-2.1,1.7
				c-0.2-0.3-0.4-0.5-0.6-0.6c-0.3-0.1-0.6-0.3-0.8-0.3c-0.3-0.1-0.7-0.1-1.1-0.1c-0.8,0-1.4,0.2-1.9,0.5c-0.4,0.3-0.7,0.8-0.7,1.3
				c0,0.4,0.1,0.7,0.2,1c0.1,0.2,0.3,0.4,0.6,0.5c0.2,0.1,0.5,0.2,0.9,0.3C340.3,551.1,340.7,551.2,341.1,551.2z"/>
		</g>
		<g id="XMLID_464_">
			<path class="st2" d="M361.1,544.8v9.9c0,0.1,0,0.4,0,0.7c0,0.3-0.1,0.7-0.2,1.2c-0.1,0.4-0.3,0.9-0.5,1.3c-0.2,0.5-0.6,0.9-1,1.3
				c-0.5,0.4-1,0.7-1.7,0.9c-0.7,0.2-1.5,0.4-2.6,0.4c-1,0-1.8-0.1-2.4-0.4c-0.7-0.2-1.2-0.6-1.6-0.9c-0.4-0.4-0.8-0.8-1-1.3
				c-0.2-0.5-0.4-0.9-0.5-1.3c-0.1-0.4-0.2-0.8-0.2-1.2c0-0.3,0-0.6,0-0.7v-9.9h2.6v9.9c0,0.2,0,0.4,0.1,0.8c0,0.4,0.1,0.8,0.3,1.2
				c0.2,0.4,0.5,0.7,1,1.1c0.4,0.3,1.1,0.5,1.8,0.5c0.9,0,1.5-0.2,2-0.5c0.5-0.3,0.8-0.7,1-1.1c0.2-0.4,0.3-0.8,0.4-1.2
				c0-0.4,0.1-0.6,0.1-0.8v-9.9H361.1z"/>
		</g>
		<g id="XMLID_462_">
			<path class="st2" d="M386,544.8h2.6v13.6l-2.6,2V544.8z"/>
		</g>
		<g id="XMLID_461_">
			<polygon class="st2" points="369.4,544.8 366.8,544.8 364.2,544.8 364.2,547.5 366.8,547.5 366.8,548.4 366.8,560.5 369.4,560.5 
				369.4,548.4 369.4,547.5 372,547.5 372,544.8 			"/>
		</g>
		<g id="XMLID_460_">
			<polygon class="st2" points="380.3,544.8 377.6,544.8 375,544.8 375,547.5 377.6,547.5 377.6,548.4 377.6,560.5 380.3,560.5 
				380.3,548.4 380.3,547.5 382.9,547.5 382.9,544.8 			"/>
		</g>
	</g>
</g>
<g id="XMLID_9573_">
	<rect x="49" y="367.9" class="st0" width="327.2" height="150"/>
</g>
<g id="XMLID_137_">
</g>
<g id="XMLID_9186_">
	<path class="st3" d="M135.9,400.5v21.7h-5.6v-12.2l-5.2,11.6h-4.9l-5.1-11.6v12.2h-5.6v-21.7h6.4l6.8,14.5l6.8-14.5H135.9z"/>
	<path class="st3" d="M154,400.5l8.4,21.7h-5.7l-2-5.1h-8.5l-2,5.1h-5.7l8.4-21.7H154z M150.5,405.9l-2.8,7.7h5.7L150.5,405.9z"/>
	<path class="st3" d="M164.6,400.5h6.5l8.7,14.1v-14.1h5.6v21.7h-6.5l-8.7-14.1v14.1h-5.6V400.5z"/>
	<path class="st3" d="M209.1,404.9c-3-0.5-6.3-1.1-9.3-1.1c-4.5,0-5.5,2.5-5.5,7.6c0,5.1,1,7.5,5.5,7.5c1.4,0,3.3-0.3,4.1-0.3v-4.9
		h-5.1v-3.5h10.7v11.3c-2,0.3-6.6,1-9.7,1c-8.7,0-11.1-4.7-11.1-11c0-6.2,2-11.2,11.1-11.2c4.1,0,7,0.5,9.8,1L209.1,404.9z"/>
	<path class="st3" d="M219.6,415.6c0,2.7,1.2,3.4,4.3,3.4c3.4,0,4.7-0.7,4.7-3.4v-15.1h5.6v15.1c0,4.9-4.2,6.9-10.2,6.9
		c-5.7,0-9.9-2-9.9-6.9v-15.1h5.6V415.6z"/>
	<path class="st3" d="M238.8,400.5H257v3.5h-12.7v5.3H255v3.5h-10.7v5.8H257v3.5h-18.3V400.5z"/>
	<path class="st3" d="M260.7,400.5h5.6v21.7h-5.6V400.5z"/>
	<path class="st3" d="M280.7,414.3h-4v7.9h-5.6v-21.7h10.7c5.8,0,9.3,2.3,9.3,6.8c0,2.8-1.1,5.1-4.3,6.2l5.9,8.7h-6.1l-5.3-7.9
		L280.7,414.3z M281.9,410.8c3,0,3.6-1,3.6-3.5c0-2.6-0.8-3.2-3.6-3.2h-5.2v6.7H281.9z"/>
	<path class="st3" d="M309.1,400.5l8.4,21.7h-5.7l-2-5.1h-8.5l-2,5.1h-5.7l8.4-21.7H309.1z M305.6,405.9l-2.8,7.7h5.7L305.6,405.9z"
		/>
	<path class="st3" d="M68.8,482.2v-21.7h11c7.8,0,10.1,5.5,10.1,10.6c0,5-2.3,11.1-10.1,11.1L68.8,482.2z M79.8,478.7
		c3.2,0,4.5-3.8,4.5-7.6c0-3.8-1.3-7-4.5-7h-5.5v14.6H79.8z"/>
	<path class="st3" d="M115.8,471.1c0,7.4-2.2,11.4-11,11.4c-8.8,0-11.2-3.5-11.2-11.5c0-7.6,3.6-10.7,11.2-10.7
		C111.8,460.3,115.8,463.6,115.8,471.1z M110.3,471.1c0-5.4-2.1-7.2-5.5-7.2c-4.1,0-5.7,1.4-5.7,7.2c0,6.2,0.9,8,5.7,8
		C109.5,478.9,110.3,476.8,110.3,471.1z"/>
	<path class="st3" d="M153.1,471.1c0,7.4-2.2,11.4-11,11.4c-8.8,0-11.2-3.5-11.2-11.5c0-7.6,3.6-10.7,11.2-10.7
		C149,460.3,153.1,463.6,153.1,471.1z M147.5,471.1c0-5.4-2.1-7.2-5.5-7.2c-4.1,0-5.7,1.4-5.7,7.2c0,6.2,0.9,8,5.7,8
		C146.7,478.9,147.5,476.8,147.5,471.1z"/>
	<path class="st3" d="M162.9,475.6c0,2.7,1.2,3.4,4.3,3.4c3.4,0,4.7-0.7,4.7-3.4v-15.1h5.6v15.1c0,4.9-4.2,6.9-10.2,6.9
		c-5.7,0-9.9-2-9.9-6.9v-15.1h5.6L162.9,475.6z"/>
	<path class="st3" d="M179.9,460.5h21.4v3.5h-7.9v18.2h-5.6v-18.2h-7.9V460.5z"/>
	<path class="st3" d="M213.5,474.3h-4v7.9H204v-21.7h10.7c5.8,0,9.3,2.3,9.3,6.8c0,2.8-1.1,5.1-4.3,6.2l5.9,8.7h-6.1l-5.3-7.9
		L213.5,474.3z M214.7,470.8c3,0,3.6-1,3.6-3.5c0-2.6-0.8-3.2-3.6-3.2h-5.2v6.7H214.7z"/>
	<path class="st3" d="M250.3,471.1c0,7.4-2.2,11.4-11,11.4c-8.8,0-11.2-3.5-11.2-11.5c0-7.6,3.6-10.7,11.2-10.7
		C246.3,460.3,250.3,463.6,250.3,471.1z M244.7,471.1c0-5.4-2.1-7.2-5.5-7.2c-4.1,0-5.7,1.4-5.7,7.2c0,6.2,0.9,8,5.7,8
		C243.9,478.9,244.7,476.8,244.7,471.1z"/>
	<path class="st3" d="M265.9,482.2v-21.7h5.6v18.2h11.6v3.5H265.9z"/>
	<path class="st3" d="M298.9,460.5l8.4,21.7h-5.7l-2-5.1h-8.5l-2,5.1h-5.7l8.4-21.7H298.9z M295.4,465.9l-2.8,7.7h5.7L295.4,465.9z"
		/>
	<path class="st3" d="M310,482.2v-21.7h11c7.8,0,10.1,5.5,10.1,10.6c0,5-2.3,11.1-10.1,11.1L310,482.2z M321,478.7
		c3.2,0,4.5-3.8,4.5-7.6c0-3.8-1.3-7-4.5-7h-5.5v14.6H321z"/>
	<path class="st3" d="M357.1,471.1c0,7.4-2.2,11.4-11,11.4c-8.8,0-11.2-3.5-11.2-11.5c0-7.6,3.6-10.7,11.2-10.7
		C353,460.3,357.1,463.6,357.1,471.1z M351.5,471.1c0-5.4-2.1-7.2-5.5-7.2c-4.1,0-5.7,1.4-5.7,7.2c0,6.2,0.9,8,5.7,8
		C350.7,478.9,351.5,476.8,351.5,471.1z"/>
</g>
<g id="XMLID_9424_">
	<g id="XMLID_9429_">
		<path class="st0" d="M304.4,146.8v-15.9L274.7,158l29.8,27.1v-15.9c30.5,0,51.1,11.2,64.1,25.7c-11.7,10-35.5,18.4-64.1,21.6v49.1
			c40.6-6.3,71.8-27,71.8-48.2v-35.8C376.2,166.4,341.6,146.8,304.4,146.8z"/>
	</g>
	<g id="XMLID_9428_">
		<path class="st0" d="M237.7,138.1c-8-5.9-16.9-10.8-26.3-14.2c-8.3-3-16.9-4.8-25.4-5.5c-43.6-3.5-87.1,22.6-99.6,67.2
			c-13.8,49.2,22.5,99.9,74.8,102.6c8.7,0.5,17-0.5,24.7-2.7c24-6.7,42.8-24.7,51.7-45.7c6.9-16.4,7.7-34.7,0-50.9
			c-4.9-10.2-13.2-19.6-25.6-27.2c-8.8-5.4-17.6-8.3-26.2-9.3c-53.7-6.4-96.3,64-43.4,95.9c13.2,8,30.1,7,43.4,0
			c11.8-6.3,20.8-17.3,21.9-31.3c1.3-16.8-9.6-26.6-21.9-28.9c-15-2.9-32.1,5.1-32.1,24.2l19.4-0.3c1.8-5.9,9.2-5.7,12.7-2
			c1.4,1.6,2.2,3.7,1.5,6.3c-0.4,1.6-0.9,3.2-1.5,4.5c-11.6,26.1-60.4,8.2-44.1-25.1c8.7-18,27.1-25.3,44.1-22.5
			c13.2,2.1,25.6,10.2,32.3,23.9c14,28.6-5.6,56.6-32.3,66.8c-9.4,3.6-19.7,5-29.6,3.4c-37.3-5.9-62-43.1-49.2-79.8
			c11.8-33.8,45.2-52.3,78.8-48.9c6.4,0.6,12.9,2.1,19.2,4.4c12.8,4.6,23.9,12.4,32.5,22.1c16.2,18.2,24,43.5,18,68.5
			c-3.2,13.6-9.5,25.7-18,35.9c-13.1,15.7-31.4,26.6-51.7,31c-6.4,1.4-13.1,2.1-19.9,2.1C97.6,302.4,59,239,72.6,181.9
			c11.1-46.3,59.1-79.2,102.4-79.2V82.4c-53.3,0-108.8,35.9-122.8,94.6c-8.3,35.1-1.1,73.5,23.9,103.5c28.5,34.1,71,46.8,109.8,40.4
			c18.8-3.1,36.7-10.7,51.7-22.5c17.9-14.1,31.7-34.3,37.8-59.9C285.1,197.6,267.3,160.1,237.7,138.1z"/>
	</g>
	<g id="XMLID_9427_">
		<polygon class="st0" points="186,111.1 193.7,111.1 193.7,74.1 186,74.1 186,74 178.2,74 178.2,111.1 186,111.1 		"/>
	</g>
	<g id="XMLID_9426_">
		<rect x="284.8" y="82.4" class="st0" width="13.6" height="20.3"/>
	</g>
	<g id="XMLID_9425_">
		<polygon class="st0" points="281.4,98.5 281.4,86.6 237.7,84.4 197.3,82.4 197.3,102.7 237.7,100.7 		"/>
	</g>
</g>
</svg>
