<svg id="Layer_1" data-name="Layer 1" xmlns="http://www.w3.org/2000/svg" viewBox="0 0 595.78 842.39"><defs><style>.cls-1{fill:#fff;}.cls-2{fill:#58595b;}.cls-3,.cls-4{fill:#003d43;}.cls-3{fill-rule:evenodd;}.cls-5{fill:#004750;}.cls-6{fill:#ffb819;}.cls-7{opacity:0.3;}.cls-8{fill:#86754d;}.cls-9{fill:#65513c;}.cls-10{fill:#ed1c24;}</style></defs><title>Controle de Talhao</title><rect class="cls-1" x="0.25" y="0.25" width="595.28" height="841.89"/><path class="cls-1" d="M595.53,842.14H-0.25V-0.25H595.53V842.14Zm-595.28-.5H595V0.25H0.25V841.64Z" transform="translate(0.25 0.25)"/><path class="cls-2" d="M133.05,82.76H17.76V43.62a4.5,4.5,0,0,1,4.49-4.49h110.8V82.76ZM18.24,82.28H132.57V39.61H22.25a4,4,0,0,0-4,4V82.28Z" transform="translate(0.25 0.25)"/><path class="cls-2" d="M571.92,181.76H22.25a4.5,4.5,0,0,1-4.49-4.49v-95H576.41v95A4.5,4.5,0,0,1,571.92,181.76Zm-553.68-99v94.51a4,4,0,0,0,4,4H571.92a4,4,0,0,0,4-4V82.76H18.24Z" transform="translate(0.25 0.25)"/><path class="cls-3" d="M571.75,190.52a4.26,4.26,0,0,1,4.25,4.25v13.75H468v-18H571.75Z" transform="translate(0.25 0.25)"/><path class="cls-4" d="M576.24,208.76H467.76V190.28h104a4.5,4.5,0,0,1,4.49,4.49v14Zm-108-.48H575.76V194.78a4,4,0,0,0-4-4H468.24v17.52Z" transform="translate(0.25 0.25)"/><path class="cls-2" d="M571.75,406.76h-104V388.28H576.24v14A4.5,4.5,0,0,1,571.75,406.76Zm-103.51-.48H571.75a4,4,0,0,0,4-4V388.76H468.24v17.52Z" transform="translate(0.25 0.25)"/><rect class="cls-4" x="126.12" y="190.77" width="72.37" height="18"/><path class="cls-4" d="M198.48,208.76H125.63V190.28h72.85v18.48Zm-72.37-.48H198V190.76H126.11v17.52Z" transform="translate(0.25 0.25)"/><rect class="cls-4" x="198.49" y="190.77" width="60.2" height="18"/><path class="cls-4" d="M258.68,208.76H198V190.28h60.68v18.48Zm-60.2-.48H258.2V190.76H198.48v17.52Z" transform="translate(0.25 0.25)"/><rect class="cls-4" x="258.69" y="190.77" width="96.35" height="18"/><path class="cls-4" d="M355,208.76H258.2V190.28H355v18.48Zm-96.35-.48h95.87V190.76H258.68v17.52Z" transform="translate(0.25 0.25)"/><rect class="cls-4" x="355.03" y="190.77" width="113.22" height="18"/><path class="cls-4" d="M468.24,208.76H354.54V190.28h113.7v18.48ZM355,208.28H467.76V190.76H355v17.52Z" transform="translate(0.25 0.25)"/><path class="cls-3" d="M22.25,190.52A4.26,4.26,0,0,0,18,194.78v13.75H125.87v-18H22.25Z" transform="translate(0.25 0.25)"/><path class="cls-4" d="M126.11,208.76H17.76v-14a4.5,4.5,0,0,1,4.49-4.49H126.11v18.48Zm-107.87-.48H125.63V190.76H22.25a4,4,0,0,0-4,4v13.51Z" transform="translate(0.25 0.25)"/><path class="cls-2" d="M126.11,406.76H22.25a4.5,4.5,0,0,1-4.49-4.49v-14H126.11v18.48Zm-107.87-18v13.51a4,4,0,0,0,4,4H125.63V388.76H18.24Z" transform="translate(0.25 0.25)"/><path class="cls-2" d="M126.11,226.76H17.76V208.28H126.11v18.48Zm-107.87-.48H125.63V208.76H18.24v17.52Z" transform="translate(0.25 0.25)"/><path class="cls-2" d="M126.11,244.76H17.76V226.28H126.11v18.48Zm-107.87-.48H125.63V226.76H18.24v17.52Z" transform="translate(0.25 0.25)"/><path class="cls-2" d="M126.11,262.76H17.76V244.28H126.11v18.48Zm-107.87-.48H125.63V244.76H18.24v17.52Z" transform="translate(0.25 0.25)"/><path class="cls-2" d="M126.11,280.76H17.76V262.28H126.11v18.48Zm-107.87-.48H125.63V262.76H18.24v17.52Z" transform="translate(0.25 0.25)"/><path class="cls-2" d="M126.11,298.76H17.76V280.28H126.11v18.48Zm-107.87-.48H125.63V280.76H18.24v17.52Z" transform="translate(0.25 0.25)"/><path class="cls-2" d="M126.11,316.76H17.76V298.28H126.11v18.48Zm-107.87-.48H125.63V298.76H18.24v17.52Z" transform="translate(0.25 0.25)"/><path class="cls-2" d="M126.11,334.76H17.76V316.28H126.11v18.48Zm-107.87-.48H125.63V316.76H18.24v17.52Z" transform="translate(0.25 0.25)"/><path class="cls-2" d="M126.11,352.76H17.76V334.28H126.11v18.48Zm-107.87-.48H125.63V334.76H18.24v17.52Z" transform="translate(0.25 0.25)"/><path class="cls-2" d="M126.11,370.76H17.76V352.28H126.11v18.48Zm-107.87-.48H125.63V352.76H18.24v17.52Z" transform="translate(0.25 0.25)"/><path class="cls-2" d="M126.11,388.76H17.76V370.28H126.11v18.48Zm-107.87-.48H125.63V370.76H18.24v17.52Z" transform="translate(0.25 0.25)"/><path class="cls-3" d="M22.38,415.52a4.26,4.26,0,0,0-4.25,4.25v13.75H126v-18H22.38Z" transform="translate(0.25 0.25)"/><path class="cls-4" d="M126.24,433.76H17.89v-14a4.5,4.5,0,0,1,4.49-4.49H126.24v18.48Zm-107.87-.48H125.76V415.76H22.38a4,4,0,0,0-4,4v13.51Z" transform="translate(0.25 0.25)"/><path class="cls-2" d="M126.24,631.76H22.38a4.5,4.5,0,0,1-4.49-4.49v-14H126.24v18.48Zm-107.87-18v13.51a4,4,0,0,0,4,4H125.76V613.76H18.37Z" transform="translate(0.25 0.25)"/><path class="cls-2" d="M126.24,451.76H17.89V433.28H126.24v18.48Zm-107.87-.48H125.76V433.76H18.37v17.52Z" transform="translate(0.25 0.25)"/><path class="cls-2" d="M126.24,469.76H17.89V451.28H126.24v18.48Zm-107.87-.48H125.76V451.76H18.37v17.52Z" transform="translate(0.25 0.25)"/><path class="cls-2" d="M126.24,487.76H17.89V469.28H126.24v18.48Zm-107.87-.48H125.76V469.76H18.37v17.52Z" transform="translate(0.25 0.25)"/><path class="cls-2" d="M126.24,505.76H17.89V487.28H126.24v18.48Zm-107.87-.48H125.76V487.76H18.37v17.52Z" transform="translate(0.25 0.25)"/><path class="cls-2" d="M126.24,523.76H17.89V505.28H126.24v18.48Zm-107.87-.48H125.76V505.76H18.37v17.52Z" transform="translate(0.25 0.25)"/><path class="cls-2" d="M126.24,541.76H17.89V523.28H126.24v18.48Zm-107.87-.48H125.76V523.76H18.37v17.52Z" transform="translate(0.25 0.25)"/><path class="cls-2" d="M126.24,559.76H17.89V541.28H126.24v18.48Zm-107.87-.48H125.76V541.76H18.37v17.52Z" transform="translate(0.25 0.25)"/><path class="cls-2" d="M126.24,577.76H17.89V559.28H126.24v18.48Zm-107.87-.48H125.76V559.76H18.37v17.52Z" transform="translate(0.25 0.25)"/><path class="cls-2" d="M126.24,595.76H17.89V577.28H126.24v18.48Zm-107.87-.48H125.76V577.76H18.37v17.52Z" transform="translate(0.25 0.25)"/><path class="cls-2" d="M126.24,613.76H17.89V595.28H126.24v18.48Zm-107.87-.48H125.76V595.76H18.37v17.52Z" transform="translate(0.25 0.25)"/><path class="cls-2" d="M198.48,226.76H125.63V208.28h72.85v18.48Zm-72.37-.48H198V208.76H126.11v17.52Z" transform="translate(0.25 0.25)"/><path class="cls-2" d="M198.48,244.76H125.63V226.28h72.85v18.48Zm-72.37-.48H198V226.76H126.11v17.52Z" transform="translate(0.25 0.25)"/><path class="cls-2" d="M198.48,262.76H125.63V244.28h72.85v18.48Zm-72.37-.48H198V244.76H126.11v17.52Z" transform="translate(0.25 0.25)"/><path class="cls-2" d="M198.48,280.76H125.63V262.28h72.85v18.48Zm-72.37-.48H198V262.76H126.11v17.52Z" transform="translate(0.25 0.25)"/><path class="cls-2" d="M198.48,298.76H125.63V280.28h72.85v18.48Zm-72.37-.48H198V280.76H126.11v17.52Z" transform="translate(0.25 0.25)"/><path class="cls-2" d="M198.48,316.76H125.63V298.28h72.85v18.48Zm-72.37-.48H198V298.76H126.11v17.52Z" transform="translate(0.25 0.25)"/><path class="cls-2" d="M198.48,334.76H125.63V316.28h72.85v18.48Zm-72.37-.48H198V316.76H126.11v17.52Z" transform="translate(0.25 0.25)"/><path class="cls-2" d="M198.48,352.76H125.63V334.28h72.85v18.48Zm-72.37-.48H198V334.76H126.11v17.52Z" transform="translate(0.25 0.25)"/><path class="cls-2" d="M198.48,370.76H125.63V352.28h72.85v18.48Zm-72.37-.48H198V352.76H126.11v17.52Z" transform="translate(0.25 0.25)"/><path class="cls-2" d="M198.48,388.76H125.63V370.28h72.85v18.48Zm-72.37-.48H198V370.76H126.11v17.52Z" transform="translate(0.25 0.25)"/><path class="cls-2" d="M198.48,406.76H125.63V388.28h72.85v18.48Zm-72.37-.48H198V388.76H126.11v17.52Z" transform="translate(0.25 0.25)"/><path class="cls-2" d="M258.68,226.76H198V208.28h60.68v18.48Zm-60.2-.48H258.2V208.76H198.48v17.52Z" transform="translate(0.25 0.25)"/><path class="cls-2" d="M258.68,244.76H198V226.28h60.68v18.48Zm-60.2-.48H258.2V226.76H198.48v17.52Z" transform="translate(0.25 0.25)"/><path class="cls-2" d="M258.68,262.76H198V244.28h60.68v18.48Zm-60.2-.48H258.2V244.76H198.48v17.52Z" transform="translate(0.25 0.25)"/><path class="cls-2" d="M258.68,280.76H198V262.28h60.68v18.48Zm-60.2-.48H258.2V262.76H198.48v17.52Z" transform="translate(0.25 0.25)"/><path class="cls-2" d="M258.68,298.76H198V280.28h60.68v18.48Zm-60.2-.48H258.2V280.76H198.48v17.52Z" transform="translate(0.25 0.25)"/><path class="cls-2" d="M258.68,316.76H198V298.28h60.68v18.48Zm-60.2-.48H258.2V298.76H198.48v17.52Z" transform="translate(0.25 0.25)"/><path class="cls-2" d="M258.68,334.76H198V316.28h60.68v18.48Zm-60.2-.48H258.2V316.76H198.48v17.52Z" transform="translate(0.25 0.25)"/><path class="cls-2" d="M258.68,352.76H198V334.28h60.68v18.48Zm-60.2-.48H258.2V334.76H198.48v17.52Z" transform="translate(0.25 0.25)"/><path class="cls-2" d="M258.68,370.76H198V352.28h60.68v18.48Zm-60.2-.48H258.2V352.76H198.48v17.52Z" transform="translate(0.25 0.25)"/><path class="cls-2" d="M258.68,388.76H198V370.28h60.68v18.48Zm-60.2-.48H258.2V370.76H198.48v17.52Z" transform="translate(0.25 0.25)"/><path class="cls-2" d="M258.68,406.76H198V388.28h60.68v18.48Zm-60.2-.48H258.2V388.76H198.48v17.52Z" transform="translate(0.25 0.25)"/><path class="cls-2" d="M355,226.76H258.2V208.28H355v18.48Zm-96.35-.48h95.87V208.76H258.68v17.52Z" transform="translate(0.25 0.25)"/><path class="cls-2" d="M355,244.76H258.2V226.28H355v18.48Zm-96.35-.48h95.87V226.76H258.68v17.52Z" transform="translate(0.25 0.25)"/><path class="cls-2" d="M355,262.76H258.2V244.28H355v18.48Zm-96.35-.48h95.87V244.76H258.68v17.52Z" transform="translate(0.25 0.25)"/><path class="cls-2" d="M355,280.76H258.2V262.28H355v18.48Zm-96.35-.48h95.87V262.76H258.68v17.52Z" transform="translate(0.25 0.25)"/><path class="cls-2" d="M355,298.76H258.2V280.28H355v18.48Zm-96.35-.48h95.87V280.76H258.68v17.52Z" transform="translate(0.25 0.25)"/><path class="cls-2" d="M355,316.76H258.2V298.28H355v18.48Zm-96.35-.48h95.87V298.76H258.68v17.52Z" transform="translate(0.25 0.25)"/><path class="cls-2" d="M355,334.76H258.2V316.28H355v18.48Zm-96.35-.48h95.87V316.76H258.68v17.52Z" transform="translate(0.25 0.25)"/><path class="cls-2" d="M355,352.76H258.2V334.28H355v18.48Zm-96.35-.48h95.87V334.76H258.68v17.52Z" transform="translate(0.25 0.25)"/><path class="cls-2" d="M355,370.76H258.2V352.28H355v18.48Zm-96.35-.48h95.87V352.76H258.68v17.52Z" transform="translate(0.25 0.25)"/><path class="cls-2" d="M355,388.76H258.2V370.28H355v18.48Zm-96.35-.48h95.87V370.76H258.68v17.52Z" transform="translate(0.25 0.25)"/><path class="cls-2" d="M355,406.76H258.2V388.28H355v18.48Zm-96.35-.48h95.87V388.76H258.68v17.52Z" transform="translate(0.25 0.25)"/><path class="cls-2" d="M468.24,226.76H354.54V208.28h113.7v18.48ZM355,226.28H467.76V208.76H355v17.52Z" transform="translate(0.25 0.25)"/><path class="cls-2" d="M468.24,244.76H354.54V226.28h113.7v18.48ZM355,244.28H467.76V226.76H355v17.52Z" transform="translate(0.25 0.25)"/><path class="cls-2" d="M468.24,262.76H354.54V244.28h113.7v18.48ZM355,262.28H467.76V244.76H355v17.52Z" transform="translate(0.25 0.25)"/><path class="cls-2" d="M468.24,280.76H354.54V262.28h113.7v18.48ZM355,280.28H467.76V262.76H355v17.52Z" transform="translate(0.25 0.25)"/><path class="cls-2" d="M468.24,298.76H354.54V280.28h113.7v18.48ZM355,298.28H467.76V280.76H355v17.52Z" transform="translate(0.25 0.25)"/><path class="cls-2" d="M468.24,316.76H354.54V298.28h113.7v18.48ZM355,316.28H467.76V298.76H355v17.52Z" transform="translate(0.25 0.25)"/><path class="cls-2" d="M468.24,334.76H354.54V316.28h113.7v18.48ZM355,334.28H467.76V316.76H355v17.52Z" transform="translate(0.25 0.25)"/><path class="cls-2" d="M468.24,352.76H354.54V334.28h113.7v18.48ZM355,352.28H467.76V334.76H355v17.52Z" transform="translate(0.25 0.25)"/><path class="cls-2" d="M468.24,370.76H354.54V352.28h113.7v18.48ZM355,370.28H467.76V352.76H355v17.52Z" transform="translate(0.25 0.25)"/><path class="cls-2" d="M468.24,388.76H354.54V370.28h113.7v18.48ZM355,388.28H467.76V370.76H355v17.52Z" transform="translate(0.25 0.25)"/><path class="cls-2" d="M468.24,406.76H354.54V388.28h113.7v18.48ZM355,406.28H467.76V388.76H355v17.52Z" transform="translate(0.25 0.25)"/><path class="cls-2" d="M576.24,226.76H467.76V208.28H576.24v18.48Zm-108-.48H575.76V208.76H468.24v17.52Z" transform="translate(0.25 0.25)"/><path class="cls-2" d="M576.24,244.76H467.76V226.28H576.24v18.48Zm-108-.48H575.76V226.76H468.24v17.52Z" transform="translate(0.25 0.25)"/><path class="cls-2" d="M576.24,262.76H467.76V244.28H576.24v18.48Zm-108-.48H575.76V244.76H468.24v17.52Z" transform="translate(0.25 0.25)"/><path class="cls-2" d="M576.24,280.76H467.76V262.28H576.24v18.48Zm-108-.48H575.76V262.76H468.24v17.52Z" transform="translate(0.25 0.25)"/><path class="cls-2" d="M576.24,298.76H467.76V280.28H576.24v18.48Zm-108-.48H575.76V280.76H468.24v17.52Z" transform="translate(0.25 0.25)"/><path class="cls-2" d="M576.24,316.76H467.76V298.28H576.24v18.48Zm-108-.48H575.76V298.76H468.24v17.52Z" transform="translate(0.25 0.25)"/><path class="cls-2" d="M576.24,334.76H467.76V316.28H576.24v18.48Zm-108-.48H575.76V316.76H468.24v17.52Z" transform="translate(0.25 0.25)"/><path class="cls-2" d="M576.24,352.76H467.76V334.28H576.24v18.48Zm-108-.48H575.76V334.76H468.24v17.52Z" transform="translate(0.25 0.25)"/><path class="cls-2" d="M576.24,370.76H467.76V352.28H576.24v18.48Zm-108-.48H575.76V352.76H468.24v17.52Z" transform="translate(0.25 0.25)"/><path class="cls-2" d="M576.24,388.76H467.76V370.28H576.24v18.48Zm-108-.48H575.76V370.76H468.24v17.52Z" transform="translate(0.25 0.25)"/><rect class="cls-4" x="126.25" y="415.77" width="36.05" height="18"/><path class="cls-4" d="M162.29,433.76H125.76V415.28h36.53v18.48Zm-36.05-.48h35.58V415.76H126.24v17.52Z" transform="translate(0.25 0.25)"/><path class="cls-2" d="M162.29,451.76H125.76V433.28h36.53v18.48Zm-36.05-.48h35.58V433.76H126.24v17.52Z" transform="translate(0.25 0.25)"/><path class="cls-2" d="M162.29,469.76H125.76V451.28h36.53v18.48Zm-36.05-.48h35.58V451.76H126.24v17.52Z" transform="translate(0.25 0.25)"/><path class="cls-2" d="M162.29,487.76H125.76V469.28h36.53v18.48Zm-36.05-.48h35.58V469.76H126.24v17.52Z" transform="translate(0.25 0.25)"/><path class="cls-2" d="M162.29,505.76H125.76V487.28h36.53v18.48Zm-36.05-.48h35.58V487.76H126.24v17.52Z" transform="translate(0.25 0.25)"/><path class="cls-2" d="M162.29,523.76H125.76V505.28h36.53v18.48Zm-36.05-.48h35.58V505.76H126.24v17.52Z" transform="translate(0.25 0.25)"/><path class="cls-2" d="M162.29,541.76H125.76V523.28h36.53v18.48Zm-36.05-.48h35.58V523.76H126.24v17.52Z" transform="translate(0.25 0.25)"/><path class="cls-2" d="M162.29,559.76H125.76V541.28h36.53v18.48Zm-36.05-.48h35.58V541.76H126.24v17.52Z" transform="translate(0.25 0.25)"/><path class="cls-2" d="M162.29,577.76H125.76V559.28h36.53v18.48Zm-36.05-.48h35.58V559.76H126.24v17.52Z" transform="translate(0.25 0.25)"/><path class="cls-2" d="M162.29,595.76H125.76V577.28h36.53v18.48Zm-36.05-.48h35.58V577.76H126.24v17.52Z" transform="translate(0.25 0.25)"/><path class="cls-2" d="M162.29,613.76H125.76V595.28h36.53v18.48Zm-36.05-.48h35.58V595.76H126.24v17.52Z" transform="translate(0.25 0.25)"/><path class="cls-2" d="M162.29,631.76H125.76V613.28h36.53v18.48Zm-36.05-.48h35.58V613.76H126.24v17.52Z" transform="translate(0.25 0.25)"/><rect class="cls-4" x="252.25" y="415.77" width="36.05" height="18"/><path class="cls-4" d="M288.29,433.76H251.76V415.28h36.53v18.48Zm-36.05-.48h35.58V415.76H252.24v17.52Z" transform="translate(0.25 0.25)"/><path class="cls-2" d="M288.29,451.76H251.76V433.28h36.53v18.48Zm-36.05-.48h35.58V433.76H252.24v17.52Z" transform="translate(0.25 0.25)"/><path class="cls-2" d="M288.29,469.76H251.76V451.28h36.53v18.48Zm-36.05-.48h35.58V451.76H252.24v17.52Z" transform="translate(0.25 0.25)"/><path class="cls-2" d="M288.29,487.76H251.76V469.28h36.53v18.48Zm-36.05-.48h35.58V469.76H252.24v17.52Z" transform="translate(0.25 0.25)"/><path class="cls-2" d="M288.29,505.76H251.76V487.28h36.53v18.48Zm-36.05-.48h35.58V487.76H252.24v17.52Z" transform="translate(0.25 0.25)"/><path class="cls-2" d="M288.29,523.76H251.76V505.28h36.53v18.48Zm-36.05-.48h35.58V505.76H252.24v17.52Z" transform="translate(0.25 0.25)"/><path class="cls-2" d="M288.29,541.76H251.76V523.28h36.53v18.48Zm-36.05-.48h35.58V523.76H252.24v17.52Z" transform="translate(0.25 0.25)"/><path class="cls-2" d="M288.29,559.76H251.76V541.28h36.53v18.48Zm-36.05-.48h35.58V541.76H252.24v17.52Z" transform="translate(0.25 0.25)"/><path class="cls-2" d="M288.29,577.76H251.76V559.28h36.53v18.48Zm-36.05-.48h35.58V559.76H252.24v17.52Z" transform="translate(0.25 0.25)"/><path class="cls-2" d="M288.29,595.76H251.76V577.28h36.53v18.48Zm-36.05-.48h35.58V577.76H252.24v17.52Z" transform="translate(0.25 0.25)"/><path class="cls-2" d="M288.29,613.76H251.76V595.28h36.53v18.48Zm-36.05-.48h35.58V595.76H252.24v17.52Z" transform="translate(0.25 0.25)"/><path class="cls-2" d="M288.29,631.76H251.76V613.28h36.53v18.48Zm-36.05-.48h35.58V613.76H252.24v17.52Z" transform="translate(0.25 0.25)"/><rect class="cls-4" x="288.25" y="415.77" width="95.98" height="18"/><path class="cls-4" d="M384.22,433.76H287.76V415.28h96.46v18.48Zm-96-.48h95.5V415.76h-95.5v17.52Z" transform="translate(0.25 0.25)"/><path class="cls-2" d="M384.28,451.76H287.81V433.28h96.46v18.48Zm-96-.48h95.5V433.76h-95.5v17.52Z" transform="translate(0.25 0.25)"/><path class="cls-2" d="M384.28,469.76H287.81V451.28h96.46v18.48Zm-96-.48h95.5V451.76h-95.5v17.52Z" transform="translate(0.25 0.25)"/><path class="cls-2" d="M384.28,487.76H287.81V469.28h96.46v18.48Zm-96-.48h95.5V469.76h-95.5v17.52Z" transform="translate(0.25 0.25)"/><path class="cls-2" d="M384.28,505.76H287.81V487.28h96.46v18.48Zm-96-.48h95.5V487.76h-95.5v17.52Z" transform="translate(0.25 0.25)"/><path class="cls-2" d="M384.28,523.76H287.81V505.28h96.46v18.48Zm-96-.48h95.5V505.76h-95.5v17.52Z" transform="translate(0.25 0.25)"/><path class="cls-2" d="M384.28,541.76H287.81V523.28h96.46v18.48Zm-96-.48h95.5V523.76h-95.5v17.52Z" transform="translate(0.25 0.25)"/><path class="cls-2" d="M384.28,559.76H287.81V541.28h96.46v18.48Zm-96-.48h95.5V541.76h-95.5v17.52Z" transform="translate(0.25 0.25)"/><path class="cls-2" d="M384.28,577.76H287.81V559.28h96.46v18.48Zm-96-.48h95.5V559.76h-95.5v17.52Z" transform="translate(0.25 0.25)"/><path class="cls-2" d="M384.28,595.76H287.81V577.28h96.46v18.48Zm-96-.48h95.5V577.76h-95.5v17.52Z" transform="translate(0.25 0.25)"/><path class="cls-2" d="M384.28,613.76H287.81V595.28h96.46v18.48Zm-96-.48h95.5V595.76h-95.5v17.52Z" transform="translate(0.25 0.25)"/><path class="cls-2" d="M384.28,631.76H287.81V613.28h96.46v18.48Zm-96-.48h95.5V613.76h-95.5v17.52Z" transform="translate(0.25 0.25)"/><rect class="cls-4" x="384.29" y="415.77" width="95.98" height="18"/><path class="cls-4" d="M480.26,433.76H383.8V415.28h96.46v18.48Zm-96-.48h95.5V415.76h-95.5v17.52Z" transform="translate(0.25 0.25)"/><path class="cls-2" d="M480.26,451.76H383.8V433.28h96.46v18.48Zm-96-.48h95.5V433.76h-95.5v17.52Z" transform="translate(0.25 0.25)"/><path class="cls-2" d="M480.26,469.76H383.8V451.28h96.46v18.48Zm-96-.48h95.5V451.76h-95.5v17.52Z" transform="translate(0.25 0.25)"/><path class="cls-2" d="M480.26,487.76H383.8V469.28h96.46v18.48Zm-96-.48h95.5V469.76h-95.5v17.52Z" transform="translate(0.25 0.25)"/><path class="cls-2" d="M480.26,505.76H383.8V487.28h96.46v18.48Zm-96-.48h95.5V487.76h-95.5v17.52Z" transform="translate(0.25 0.25)"/><path class="cls-2" d="M480.26,523.76H383.8V505.28h96.46v18.48Zm-96-.48h95.5V505.76h-95.5v17.52Z" transform="translate(0.25 0.25)"/><path class="cls-2" d="M480.26,541.76H383.8V523.28h96.46v18.48Zm-96-.48h95.5V523.76h-95.5v17.52Z" transform="translate(0.25 0.25)"/><path class="cls-2" d="M480.26,559.76H383.8V541.28h96.46v18.48Zm-96-.48h95.5V541.76h-95.5v17.52Z" transform="translate(0.25 0.25)"/><path class="cls-2" d="M480.26,577.76H383.8V559.28h96.46v18.48Zm-96-.48h95.5V559.76h-95.5v17.52Z" transform="translate(0.25 0.25)"/><path class="cls-2" d="M480.26,595.76H383.8V577.28h96.46v18.48Zm-96-.48h95.5V577.76h-95.5v17.52Z" transform="translate(0.25 0.25)"/><path class="cls-2" d="M480.26,613.76H383.8V595.28h96.46v18.48Zm-96-.48h95.5V595.76h-95.5v17.52Z" transform="translate(0.25 0.25)"/><path class="cls-2" d="M480.26,631.76H383.8V613.28h96.46v18.48Zm-96-.48h95.5V613.76h-95.5v17.52Z" transform="translate(0.25 0.25)"/><path class="cls-2" d="M576.24,451.76H479.78V433.28h96.46v18.48Zm-96-.48h95.5V433.76h-95.5v17.52Z" transform="translate(0.25 0.25)"/><path class="cls-2" d="M576.24,469.76H479.78V451.28h96.46v18.48Zm-96-.48h95.5V451.76h-95.5v17.52Z" transform="translate(0.25 0.25)"/><path class="cls-2" d="M576.24,487.76H479.78V469.28h96.46v18.48Zm-96-.48h95.5V469.76h-95.5v17.52Z" transform="translate(0.25 0.25)"/><path class="cls-2" d="M576.24,505.76H479.78V487.28h96.46v18.48Zm-96-.48h95.5V487.76h-95.5v17.52Z" transform="translate(0.25 0.25)"/><path class="cls-2" d="M576.24,523.76H479.78V505.28h96.46v18.48Zm-96-.48h95.5V505.76h-95.5v17.52Z" transform="translate(0.25 0.25)"/><path class="cls-2" d="M576.24,541.76H479.78V523.28h96.46v18.48Zm-96-.48h95.5V523.76h-95.5v17.52Z" transform="translate(0.25 0.25)"/><path class="cls-2" d="M576.24,559.76H479.78V541.28h96.46v18.48Zm-96-.48h95.5V541.76h-95.5v17.52Z" transform="translate(0.25 0.25)"/><path class="cls-2" d="M576.24,577.76H479.78V559.28h96.46v18.48Zm-96-.48h95.5V559.76h-95.5v17.52Z" transform="translate(0.25 0.25)"/><path class="cls-2" d="M576.24,595.76H479.78V577.28h96.46v18.48Zm-96-.48h95.5V577.76h-95.5v17.52Z" transform="translate(0.25 0.25)"/><path class="cls-2" d="M576.24,613.76H479.78V595.28h96.46v18.48Zm-96-.48h95.5V595.76h-95.5v17.52Z" transform="translate(0.25 0.25)"/><rect class="cls-4" x="162.3" y="415.77" width="89.95" height="18"/><path class="cls-4" d="M252.24,433.76H161.81V415.28h90.42v18.48Zm-89.95-.48h89.47V415.76H162.29v17.52Z" transform="translate(0.25 0.25)"/><path class="cls-2" d="M252.24,451.76H161.81V433.28h90.42v18.48Zm-89.95-.48h89.47V433.76H162.29v17.52Z" transform="translate(0.25 0.25)"/><path class="cls-2" d="M252.24,469.76H161.81V451.28h90.42v18.48Zm-89.95-.48h89.47V451.76H162.29v17.52Z" transform="translate(0.25 0.25)"/><path class="cls-2" d="M252.24,487.76H161.81V469.28h90.42v18.48Zm-89.95-.48h89.47V469.76H162.29v17.52Z" transform="translate(0.25 0.25)"/><path class="cls-2" d="M252.24,505.76H161.81V487.28h90.42v18.48Zm-89.95-.48h89.47V487.76H162.29v17.52Z" transform="translate(0.25 0.25)"/><path class="cls-2" d="M252.24,523.76H161.81V505.28h90.42v18.48Zm-89.95-.48h89.47V505.76H162.29v17.52Z" transform="translate(0.25 0.25)"/><path class="cls-2" d="M252.24,541.76H161.81V523.28h90.42v18.48Zm-89.95-.48h89.47V523.76H162.29v17.52Z" transform="translate(0.25 0.25)"/><path class="cls-2" d="M252.24,559.76H161.81V541.28h90.42v18.48Zm-89.95-.48h89.47V541.76H162.29v17.52Z" transform="translate(0.25 0.25)"/><path class="cls-2" d="M252.24,577.76H161.81V559.28h90.42v18.48Zm-89.95-.48h89.47V559.76H162.29v17.52Z" transform="translate(0.25 0.25)"/><path class="cls-2" d="M252.24,595.76H161.81V577.28h90.42v18.48Zm-89.95-.48h89.47V577.76H162.29v17.52Z" transform="translate(0.25 0.25)"/><path class="cls-2" d="M252.24,613.76H161.81V595.28h90.42v18.48Zm-89.95-.48h89.47V595.76H162.29v17.52Z" transform="translate(0.25 0.25)"/><path class="cls-2" d="M252.24,631.76H161.81V613.28h90.42v18.48Zm-89.95-.48h89.47V613.76H162.29v17.52Z" transform="translate(0.25 0.25)"/><path class="cls-3" d="M576,419.78a4.26,4.26,0,0,0-4.25-4.25H480v18h96V419.78Z" transform="translate(0.25 0.25)"/><path class="cls-4" d="M576.24,433.76H479.78V415.28h92a4.5,4.5,0,0,1,4.49,4.49v14Zm-96-.48h95.5V419.78a4,4,0,0,0-4-4H480.26v17.52Z" transform="translate(0.25 0.25)"/><path class="cls-2" d="M571.75,631.76h-92V613.28h96.46v14A4.5,4.5,0,0,1,571.75,631.76Zm-91.49-.48h91.49a4,4,0,0,0,4-4V613.76h-95.5v17.52Z" transform="translate(0.25 0.25)"/><path class="cls-2" d="M81.24,775.76H26.76V757.28H81.24v18.48Zm-54-.48H80.76V757.76H27.24v17.52Z" transform="translate(0.25 0.25)"/><path class="cls-2" d="M81.24,793.76h-50a4.5,4.5,0,0,1-4.49-4.49v-14H81.24v18.48Zm-54-18v13.51a4,4,0,0,0,4,4H80.76V775.76H27.24Z" transform="translate(0.25 0.25)"/><path class="cls-3" d="M157.75,739.52H31.25A4.26,4.26,0,0,0,27,743.78v13.75H162V743.78A4.26,4.26,0,0,0,157.75,739.52Z" transform="translate(0.25 0.25)"/><path class="cls-4" d="M162.24,757.76H26.76v-14a4.5,4.5,0,0,1,4.49-4.49h126.5a4.5,4.5,0,0,1,4.49,4.49v14Zm-135-.48H161.76V743.78a4,4,0,0,0-4-4H31.25a4,4,0,0,0-4,4v13.51Z" transform="translate(0.25 0.25)"/><path class="cls-2" d="M162.24,775.76H80.76V757.28h81.48v18.48Zm-81-.48h80.52V757.76H81.24v17.52Z" transform="translate(0.25 0.25)"/><path class="cls-2" d="M157.75,793.76h-77V775.28h81.48v14A4.5,4.5,0,0,1,157.75,793.76Zm-76.51-.48h76.51a4,4,0,0,0,4-4V775.76H81.24v17.52Z" transform="translate(0.25 0.25)"/><rect class="cls-1" x="126.01" y="415.77" width="0.48" height="18"/><rect class="cls-1" x="162.01" y="415.77" width="0.48" height="18"/><rect class="cls-1" x="252.01" y="415.77" width="0.48" height="18"/><rect class="cls-1" x="288.01" y="415.77" width="0.48" height="18"/><rect class="cls-1" x="384.05" y="415.77" width="0.48" height="18"/><rect class="cls-1" x="480.03" y="415.77" width="0.48" height="18"/><rect class="cls-1" x="125.88" y="190.77" width="0.48" height="18"/><rect class="cls-1" x="198.25" y="190.77" width="0.48" height="18"/><rect class="cls-1" x="258.45" y="190.77" width="0.48" height="18"/><rect class="cls-1" x="354.79" y="190.77" width="0.48" height="18"/><rect class="cls-1" x="468.01" y="190.77" width="0.48" height="18"/><path class="cls-1" d="M47,200.2v2.32H45.49v-7h3.36c1.91,0,2.83.79,2.83,2.24s-0.88,2.43-2.83,2.43H47Zm1.85-1a1.19,1.19,0,0,0,1.3-1.45,1.06,1.06,0,0,0-1.3-1.26H47v2.71h1.85Z" transform="translate(0.25 0.25)"/><path class="cls-1" d="M54.69,199.9v2.62H53.18v-7H56.5c1.81,0,2.84.71,2.84,2.14a1.9,1.9,0,0,1-1.43,2l1.86,2.83H58.12L56.4,199.9H54.69Zm1.81-1a1.06,1.06,0,0,0,1.31-1.25c0-.89-0.32-1.16-1.31-1.16H54.69v2.42H56.5Z" transform="translate(0.25 0.25)"/><path class="cls-1" d="M67.65,198.92c0,2.43-.67,3.69-3.41,3.69s-3.47-1.09-3.47-3.71c0-2.46,1.09-3.44,3.47-3.44C66.41,195.45,67.65,196.48,67.65,198.92Zm-1.51,0c0-1.86-.73-2.49-1.9-2.49-1.42,0-2,.5-2,2.47s0.32,2.73,2,2.73S66.15,200.85,66.15,198.92Z" transform="translate(0.25 0.25)"/><path class="cls-1" d="M69.19,202.52v-7h3.42c2.39,0,3.13,1.75,3.13,3.41s-0.73,3.59-3.13,3.59H69.19Zm3.42-1c1.15,0,1.6-1.33,1.6-2.61s-0.44-2.43-1.6-2.43H70.7v5h1.91Z" transform="translate(0.25 0.25)"/><path class="cls-1" d="M78.78,200.42c0,0.94.47,1.21,1.53,1.21s1.64-.26,1.64-1.21v-4.89h1.51v4.89c0,1.55-1.27,2.18-3.15,2.18s-3-.62-3-2.18v-4.89h1.51v4.89Z" transform="translate(0.25 0.25)"/><path class="cls-1" d="M84.33,195.53h6.61v1H88.4v6H86.89v-6H84.33v-1Z" transform="translate(0.25 0.25)"/><path class="cls-1" d="M98.58,198.92c0,2.43-.67,3.69-3.41,3.69s-3.47-1.09-3.47-3.71c0-2.46,1.09-3.44,3.47-3.44C97.34,195.45,98.58,196.48,98.58,198.92Zm-1.51,0c0-1.86-.73-2.49-1.9-2.49-1.42,0-2,.5-2,2.47s0.32,2.73,2,2.73S97.08,200.85,97.08,198.92Z" transform="translate(0.25 0.25)"/><path class="cls-1" d="M47.13,425.2v2.32H45.62v-7H49c1.91,0,2.83.79,2.83,2.24S50.94,425.2,49,425.2H47.13Zm1.85-1a1.19,1.19,0,0,0,1.3-1.45,1.06,1.06,0,0,0-1.3-1.26H47.13v2.71H49Z" transform="translate(0.25 0.25)"/><path class="cls-1" d="M54.82,424.9v2.62H53.31v-7h3.32c1.81,0,2.84.71,2.84,2.14a1.9,1.9,0,0,1-1.43,2l1.86,2.83H58.24l-1.72-2.62H54.82Zm1.81-1a1.06,1.06,0,0,0,1.31-1.25c0-.89-0.32-1.16-1.31-1.16H54.82v2.42h1.81Z" transform="translate(0.25 0.25)"/><path class="cls-1" d="M67.78,423.92c0,2.43-.67,3.69-3.41,3.69s-3.47-1.09-3.47-3.71c0-2.46,1.09-3.44,3.47-3.44C66.54,420.45,67.78,421.48,67.78,423.92Zm-1.51,0c0-1.86-.73-2.49-1.9-2.49-1.42,0-2,.5-2,2.47s0.32,2.73,2,2.73S66.27,425.85,66.27,423.92Z" transform="translate(0.25 0.25)"/><path class="cls-1" d="M69.32,427.52v-7h3.42c2.39,0,3.13,1.75,3.13,3.41s-0.73,3.59-3.13,3.59H69.32Zm3.42-1c1.15,0,1.6-1.33,1.6-2.61s-0.44-2.43-1.6-2.43H70.83v5h1.91Z" transform="translate(0.25 0.25)"/><path class="cls-1" d="M78.91,425.42c0,0.94.47,1.21,1.53,1.21s1.64-.26,1.64-1.21v-4.89h1.51v4.89c0,1.55-1.27,2.18-3.15,2.18s-3-.62-3-2.18v-4.89h1.51v4.89Z" transform="translate(0.25 0.25)"/><path class="cls-1" d="M84.45,420.53h6.61v1H88.53v6H87v-6H84.45v-1Z" transform="translate(0.25 0.25)"/><path class="cls-1" d="M98.71,423.92c0,2.43-.67,3.69-3.41,3.69s-3.47-1.09-3.47-3.71c0-2.46,1.09-3.44,3.47-3.44C97.47,420.45,98.71,421.48,98.71,423.92Zm-1.51,0c0-1.86-.73-2.49-1.9-2.49-1.42,0-2,.5-2,2.47s0.32,2.73,2,2.73S97.2,425.85,97.2,423.92Z" transform="translate(0.25 0.25)"/><path class="cls-2" d="M31.55,764.3H36v0.78H32.76v1.55h2.75v0.78H32.76v1.7H36v0.78H31.55V764.3Z" transform="translate(0.25 0.25)"/><path class="cls-2" d="M36.91,769a13.78,13.78,0,0,0,1.71.15H38.8c0.65,0,.95-0.13,1-0.54a0.67,0.67,0,0,0-.25-0.53,11.32,11.32,0,0,0-1.4-.84,1.81,1.81,0,0,1-1.22-1.61c0-.05,0-0.1,0-0.16,0-.6.71-1.25,2.24-1.25a11.19,11.19,0,0,1,1.86.13l-0.16.78a11,11,0,0,0-1.7-.12c-0.77,0-1,.22-1,0.46,0,0,0,0,0,.07a1,1,0,0,0,.72.75c0.64,0.36,1.31.76,1.53,0.91a1.38,1.38,0,0,1,.62,1.21s0,0.1,0,.14c-0.08,1.21-1.29,1.34-2.1,1.37H38.6a12.38,12.38,0,0,1-1.85-.17Z" transform="translate(0.25 0.25)"/><path class="cls-2" d="M43.26,768v1.86H42v-5.6h2.69c1.53,0,2.27.63,2.27,1.79S46.3,768,44.74,768H43.26Zm1.48-.78a1,1,0,0,0,1-1.16,0.84,0.84,0,0,0-1-1H43.26v2.17h1.48Z" transform="translate(0.25 0.25)"/><path class="cls-2" d="M48,764.3h4.49v0.78H49.25v1.55H52v0.78H49.25v1.7h3.28v0.78H48V764.3Z" transform="translate(0.25 0.25)"/><path class="cls-2" d="M54.79,767.8v2.1H53.58V764.3h2.65c1.45,0,2.28.57,2.28,1.71a1.52,1.52,0,0,1-1.15,1.61l1.49,2.27H57.52l-1.37-2.1H54.79Zm1.44-.78a0.85,0.85,0,0,0,1-1c0-.71-0.26-0.93-1-0.93H54.79V767h1.44Z" transform="translate(0.25 0.25)"/><path class="cls-2" d="M62.93,764.3l2.1,5.59H63.8l-0.53-1.39H60.94l-0.52,1.39H59.19l2.11-5.59h1.63Zm-0.82,1-0.85,2.41H63Z" transform="translate(0.25 0.25)"/><path class="cls-2" d="M65.79,769.89v-5.6h2.73c1.91,0,2.5,1.4,2.5,2.73s-0.58,2.87-2.5,2.87H65.79Zm2.73-.78c0.92,0,1.28-1.07,1.28-2.09s-0.35-1.94-1.28-1.94H67v4h1.52Z" transform="translate(0.25 0.25)"/><path class="cls-2" d="M75,764.3l2.1,5.59H75.84l-0.53-1.39H73l-0.52,1.39H71.24l2.11-5.59H75Zm-0.82,1-0.85,2.41H75Z" transform="translate(0.25 0.25)"/><path class="cls-1" d="M53.09,749.2v2.32H51.58v-7h3.36c1.91,0,2.83.79,2.83,2.24s-0.88,2.43-2.83,2.43H53.09Zm1.85-1a1.19,1.19,0,0,0,1.3-1.45,1.06,1.06,0,0,0-1.3-1.26H53.09v2.71h1.85Z" transform="translate(0.25 0.25)"/><path class="cls-1" d="M60.78,748.9v2.62H59.27v-7h3.32c1.81,0,2.84.71,2.84,2.14a1.9,1.9,0,0,1-1.43,2l1.86,2.83H64.21l-1.72-2.62H60.78Zm1.81-1a1.06,1.06,0,0,0,1.31-1.25c0-.89-0.32-1.16-1.31-1.16H60.78v2.42h1.81Z" transform="translate(0.25 0.25)"/><path class="cls-1" d="M73.74,747.92c0,2.43-.67,3.69-3.41,3.69s-3.47-1.09-3.47-3.71c0-2.46,1.09-3.44,3.47-3.44C72.5,744.45,73.74,745.48,73.74,747.92Zm-1.51,0c0-1.86-.73-2.49-1.9-2.49-1.42,0-2,.5-2,2.47s0.32,2.73,2,2.73S72.24,749.85,72.24,747.92Z" transform="translate(0.25 0.25)"/><path class="cls-1" d="M75.28,744.53h5.46v1h-4v2.18h3.29v1H76.79v2.85H75.28v-7Z" transform="translate(0.25 0.25)"/><path class="cls-1" d="M83.57,749.42c0,0.94.47,1.21,1.53,1.21s1.64-.26,1.64-1.21v-4.89h1.51v4.89c0,1.55-1.27,2.18-3.15,2.18s-3-.62-3-2.18v-4.89h1.51v4.89Z" transform="translate(0.25 0.25)"/><path class="cls-1" d="M96.17,744.53v7H94.3l-3-5.08v5.08H89.76v-7h1.87l3,5.09v-5.09h1.51Z" transform="translate(0.25 0.25)"/><path class="cls-1" d="M97.78,751.52v-7h3.42c2.39,0,3.13,1.75,3.13,3.41s-0.73,3.59-3.13,3.59H97.78Zm3.42-1c1.15,0,1.6-1.33,1.6-2.61s-0.44-2.43-1.6-2.43H99.29v5h1.91Z" transform="translate(0.25 0.25)"/><path class="cls-1" d="M105.86,744.53h1.51v7h-1.51v-7Z" transform="translate(0.25 0.25)"/><path class="cls-1" d="M109.1,751.52v-7h3.42c2.39,0,3.13,1.75,3.13,3.41s-0.73,3.59-3.13,3.59H109.1Zm3.42-1c1.15,0,1.6-1.33,1.6-2.61s-0.44-2.43-1.6-2.43h-1.91v5h1.91Z" transform="translate(0.25 0.25)"/><path class="cls-1" d="M120.58,744.53l2.62,7h-1.54L121,749.78H118.1l-0.65,1.74H115.9l2.64-7h2Zm-1,1.27-1.07,3h2.13Z" transform="translate(0.25 0.25)"/><path class="cls-1" d="M124.16,751.52v-7h3.42c2.39,0,3.13,1.75,3.13,3.41s-0.73,3.59-3.13,3.59h-3.42Zm3.42-1c1.15,0,1.6-1.33,1.6-2.61s-0.44-2.43-1.6-2.43h-1.91v5h1.91Z" transform="translate(0.25 0.25)"/><path class="cls-1" d="M132.24,744.53h5.61v1h-4.1v1.94h3.44v1h-3.44v2.12h4.1v1h-5.61v-7Z" transform="translate(0.25 0.25)"/><path class="cls-2" d="M37.63,782.39l2.1,5.59H38.5L38,786.6H35.65L35.12,788H33.89L36,782.39h1.63Zm-0.82,1L36,785.81h1.71Z" transform="translate(0.25 0.25)"/><path class="cls-2" d="M39.16,782.39h5.29v0.78h-2V788H41.2v-4.81h-2v-0.78Z" transform="translate(0.25 0.25)"/><path class="cls-2" d="M45.22,782.39h1.21V788H45.22v-5.6Z" transform="translate(0.25 0.25)"/><path class="cls-2" d="M52.83,782.39V788H51.34l-2.42-4.07V788H47.71v-5.59H49.2l2.42,4.08v-4.08h1.21Z" transform="translate(0.25 0.25)"/><path class="cls-2" d="M58.86,783.38a15.31,15.31,0,0,0-2.31-.27c-1.27,0-1.52.72-1.52,2.1s0.28,2.06,1.52,2.06c0.41,0,1-.08,1.17-0.1v-1.44H56.4v-0.78h2.53v2.87a19.18,19.18,0,0,1-2.38.24c-2.16,0-2.75-1.18-2.75-2.84s0.51-2.88,2.75-2.88a12.29,12.29,0,0,1,2.4.25Z" transform="translate(0.25 0.25)"/><path class="cls-2" d="M60.24,782.39h1.21V788H60.24v-5.6Z" transform="translate(0.25 0.25)"/><path class="cls-2" d="M62.83,788v-5.6h2.73c1.91,0,2.5,1.4,2.5,2.73S67.49,788,65.56,788H62.83Zm2.73-.78c0.92,0,1.28-1.07,1.28-2.09s-0.35-1.94-1.28-1.94H64v4h1.52Z" transform="translate(0.25 0.25)"/><path class="cls-2" d="M72,782.39l2.1,5.59H72.88l-0.53-1.39H70L69.51,788H68.27l2.11-5.59H72Zm-0.82,1-0.85,2.41H72Z" transform="translate(0.25 0.25)"/><path class="cls-1" d="M171.2,420.53h1.51v7H171.2v-7Z" transform="translate(0.25 0.25)"/><path class="cls-1" d="M182.52,420.53v7H181V423l-1.92,4.34h-1.37L175.82,423v4.53h-1.51v-7h1.81l2.29,5,2.3-5h1.8Z" transform="translate(0.25 0.25)"/><path class="cls-1" d="M185.77,425.2v2.32h-1.51v-7h3.36c1.91,0,2.83.79,2.83,2.24s-0.88,2.43-2.83,2.43h-1.85Zm1.85-1a1.19,1.19,0,0,0,1.3-1.45,1.06,1.06,0,0,0-1.3-1.26h-1.85v2.71h1.85Z" transform="translate(0.25 0.25)"/><path class="cls-1" d="M191.75,427.52v-7h1.51v6H197v1h-5.26Z" transform="translate(0.25 0.25)"/><path class="cls-1" d="M198,420.53h5.61v1h-4.1v1.94h3.44v1h-3.44v2.12h4.1v1H198v-7Z" transform="translate(0.25 0.25)"/><path class="cls-1" d="M213,420.53v7h-1.51V423l-1.92,4.34h-1.37L206.27,423v4.53h-1.51v-7h1.81l2.29,5,2.3-5H213Z" transform="translate(0.25 0.25)"/><path class="cls-1" d="M214.71,420.53h5.61v1h-4.1v1.94h3.44v1h-3.44v2.12h4.1v1h-5.61v-7Z" transform="translate(0.25 0.25)"/><path class="cls-1" d="M227.91,420.53v7H226l-3-5.08v5.08H221.5v-7h1.87l3,5.09v-5.09h1.51Z" transform="translate(0.25 0.25)"/><path class="cls-1" d="M228.74,420.53h6.61v1h-2.54v6h-1.51v-6h-2.56v-1Z" transform="translate(0.25 0.25)"/><path class="cls-1" d="M243,423.92c0,2.43-.67,3.69-3.41,3.69s-3.47-1.09-3.47-3.71c0-2.46,1.09-3.44,3.47-3.44C241.76,420.45,243,421.48,243,423.92Zm-1.51,0c0-1.86-.73-2.49-1.9-2.49-1.42,0-2,.5-2,2.47s0.32,2.73,2,2.73S241.49,425.85,241.49,423.92Z" transform="translate(0.25 0.25)"/><path class="cls-1" d="M307.83,424.51h-3.48v3h-1.51v-7h1.51v3h3.48v-3h1.51v7h-1.51v-3Z" transform="translate(0.25 0.25)"/><path class="cls-1" d="M317.77,423.92c0,2.43-.67,3.69-3.41,3.69s-3.47-1.09-3.47-3.71c0-2.46,1.09-3.44,3.47-3.44C316.52,420.45,317.77,421.48,317.77,423.92Zm-1.51,0c0-1.86-.73-2.49-1.9-2.49-1.42,0-2,.5-2,2.47s0.32,2.73,2,2.73S316.26,425.85,316.26,423.92Z" transform="translate(0.25 0.25)"/><path class="cls-1" d="M320.81,424.9v2.62H319.3v-7h3.32c1.81,0,2.85.71,2.85,2.14a1.9,1.9,0,0,1-1.43,2l1.86,2.83h-1.65l-1.71-2.62h-1.71Zm1.81-1a1.06,1.06,0,0,0,1.31-1.25c0-.89-0.32-1.16-1.31-1.16h-1.81v2.42h1.81Z" transform="translate(0.25 0.25)"/><path class="cls-1" d="M331,420.53l2.63,7h-1.54l-0.66-1.74h-2.91l-0.65,1.74h-1.54l2.64-7h2Zm-1,1.27-1.07,3H331Z" transform="translate(0.25 0.25)"/><path class="cls-1" d="M338.22,420.53h1.51v7h-1.51v-7Z" transform="translate(0.25 0.25)"/><path class="cls-1" d="M347.74,420.53v7h-1.87l-3-5.08v5.08h-1.51v-7h1.87l3,5.09v-5.09h1.51Z" transform="translate(0.25 0.25)"/><path class="cls-1" d="M350.18,418.41h1.35l-1.63,1.36h-1.19Zm-0.83,2.12h1.51v7h-1.51v-7Z" transform="translate(0.25 0.25)"/><path class="cls-1" d="M358.11,427.34a17.14,17.14,0,0,1-2.62.26c-2.73,0-3.29-1.48-3.29-3.55s0.47-3.6,3.29-3.6a14.12,14.12,0,0,1,2.62.25l-0.11,1a16,16,0,0,0-2.51-.27c-1.55,0-1.76.88-1.76,2.63s0.25,2.57,1.76,2.57a18.54,18.54,0,0,0,2.51-.27Z" transform="translate(0.25 0.25)"/><path class="cls-1" d="M359.42,420.53h1.51v7h-1.51v-7Z" transform="translate(0.25 0.25)"/><path class="cls-1" d="M369.34,423.92c0,2.43-.67,3.69-3.41,3.69s-3.47-1.09-3.47-3.71c0-2.46,1.09-3.44,3.47-3.44C368.1,420.45,369.34,421.48,369.34,423.92Zm-1.51,0c0-1.86-.73-2.49-1.9-2.49-1.42,0-2,.5-2,2.47s0.32,2.73,2,2.73S367.84,425.85,367.84,423.92Z" transform="translate(0.25 0.25)"/><path class="cls-1" d="M410.25,424.51h-3.48v3h-1.51v-7h1.51v3h3.48v-3h1.51v7h-1.51v-3Z" transform="translate(0.25 0.25)"/><path class="cls-1" d="M420.18,423.92c0,2.43-.67,3.69-3.41,3.69s-3.47-1.09-3.47-3.71c0-2.46,1.09-3.44,3.47-3.44C418.94,420.45,420.18,421.48,420.18,423.92Zm-1.51,0c0-1.86-.73-2.49-1.9-2.49-1.42,0-2,.5-2,2.47s0.32,2.73,2,2.73S418.67,425.85,418.67,423.92Z" transform="translate(0.25 0.25)"/><path class="cls-1" d="M423.23,424.9v2.62h-1.51v-7H425c1.81,0,2.84.71,2.84,2.14a1.9,1.9,0,0,1-1.43,2l1.86,2.83h-1.65l-1.71-2.62h-1.71Zm1.81-1a1.06,1.06,0,0,0,1.31-1.25c0-.89-0.32-1.16-1.31-1.16h-1.81v2.42H425Z" transform="translate(0.25 0.25)"/><path class="cls-1" d="M433.41,420.53l2.62,7H434.5l-0.66-1.74h-2.91l-0.65,1.74h-1.54l2.64-7h2Zm-1,1.27-1.07,3h2.13Z" transform="translate(0.25 0.25)"/><path class="cls-1" d="M440.64,420.53h5.46v1h-4v2.18h3.29v1h-3.29v2.85h-1.51v-7Z" transform="translate(0.25 0.25)"/><path class="cls-1" d="M447.42,420.53h1.51v7h-1.51v-7Z" transform="translate(0.25 0.25)"/><path class="cls-1" d="M458.74,420.53v7h-1.51V423l-1.92,4.34h-1.37L452,423v4.53h-1.51v-7h1.81l2.29,5,2.3-5h1.8Z" transform="translate(0.25 0.25)"/><path class="cls-1" d="M504.57,423.92c0,2.43-.67,3.69-3.41,3.69s-3.47-1.09-3.47-3.71c0-2.46,1.09-3.44,3.47-3.44C503.33,420.45,504.57,421.48,504.57,423.92Zm-1.51,0c0-1.86-.73-2.49-1.9-2.49-1.42,0-2,.5-2,2.47s0.32,2.73,2,2.73S503.06,425.85,503.06,423.92Z" transform="translate(0.25 0.25)"/><path class="cls-1" d="M507.62,425.2v2.32H506.1v-7h3.36c1.91,0,2.83.79,2.83,2.24s-0.88,2.43-2.83,2.43h-1.85Zm1.85-1a1.19,1.19,0,0,0,1.3-1.45,1.06,1.06,0,0,0-1.3-1.26h-1.85v2.71h1.85Z" transform="translate(0.25 0.25)"/><path class="cls-1" d="M513.59,420.53h5.61v1h-4.1v1.94h3.44v1h-3.44v2.12h4.1v1h-5.61v-7Z" transform="translate(0.25 0.25)"/><path class="cls-1" d="M522,424.9v2.62h-1.51v-7h3.32c1.81,0,2.84.71,2.84,2.14a1.9,1.9,0,0,1-1.43,2l1.86,2.83h-1.65l-1.72-2.62H522Zm1.81-1a1.06,1.06,0,0,0,1.31-1.25c0-.89-0.32-1.16-1.31-1.16H522v2.42h1.81Z" transform="translate(0.25 0.25)"/><path class="cls-1" d="M532.2,420.53l2.62,7h-1.54l-0.66-1.74h-2.91l-0.65,1.74h-1.54l2.64-7h2Zm-1,1.27-1.07,3h2.13Z" transform="translate(0.25 0.25)"/><path class="cls-1" d="M535.79,427.52v-7h3.42c2.39,0,3.13,1.75,3.13,3.41s-0.73,3.59-3.13,3.59h-3.42Zm3.42-1c1.15,0,1.6-1.33,1.6-2.61s-0.44-2.43-1.6-2.43h-1.91v5h1.91Z" transform="translate(0.25 0.25)"/><path class="cls-1" d="M550.55,423.92c0,2.43-.67,3.69-3.41,3.69s-3.47-1.09-3.47-3.71c0-2.46,1.09-3.44,3.47-3.44C549.31,420.45,550.55,421.48,550.55,423.92Zm-1.51,0c0-1.86-.73-2.49-1.9-2.49-1.42,0-2,.5-2,2.47s0.32,2.73,2,2.73S549,425.85,549,423.92Z" transform="translate(0.25 0.25)"/><path class="cls-1" d="M553.6,424.9v2.62h-1.51v-7h3.32c1.81,0,2.84.71,2.84,2.14a1.9,1.9,0,0,1-1.43,2l1.86,2.83H557l-1.72-2.62H553.6Zm1.81-1a1.06,1.06,0,0,0,1.31-1.25c0-.89-0.32-1.16-1.31-1.16H553.6v2.42h1.81Z" transform="translate(0.25 0.25)"/><path class="cls-1" d="M145.57,420.53v7h-1.86l-3-5.08v5.08h-1.51v-7H141l3,5.09v-5.09h1.51Z" transform="translate(0.25 0.25)"/><path class="cls-1" d="M149.36,422.26a1.24,1.24,0,0,1-1.4,1.52c-1.1,0-1.43-.47-1.43-1.53a1.23,1.23,0,0,1,1.43-1.42A1.26,1.26,0,0,1,149.36,422.26Zm-1.4,1c0.46,0,.55-0.21.55-1s-0.2-.87-0.55-0.87-0.57.13-.57,0.86,0.08,1,.57,1h0Z" transform="translate(0.25 0.25)"/><path class="cls-1" d="M271.57,420.53v7h-1.86l-3-5.08v5.08h-1.51v-7H267l3,5.09v-5.09h1.51Z" transform="translate(0.25 0.25)"/><path class="cls-1" d="M275.36,422.26a1.24,1.24,0,0,1-1.4,1.52c-1.1,0-1.43-.47-1.43-1.53a1.23,1.23,0,0,1,1.43-1.42A1.26,1.26,0,0,1,275.36,422.26Zm-1.4,1c0.46,0,.55-0.21.55-1s-0.2-.87-0.55-0.87-0.57.13-.57,0.86,0.08,1,.57,1h0Z" transform="translate(0.25 0.25)"/><path class="cls-1" d="M148.21,202.52v-7h3.42c2.39,0,3.13,1.75,3.13,3.41s-0.73,3.59-3.13,3.59h-3.42Zm3.42-1c1.15,0,1.6-1.33,1.6-2.61s-0.44-2.43-1.6-2.43h-1.91v5h1.91Z" transform="translate(0.25 0.25)"/><path class="cls-1" d="M163,198.92c0,2.43-.67,3.69-3.41,3.69s-3.47-1.09-3.47-3.71c0-2.46,1.09-3.44,3.47-3.44C161.74,195.45,163,196.48,163,198.92Zm-1.51,0c0-1.86-.73-2.49-1.9-2.49-1.42,0-2,.5-2,2.47s0.32,2.73,2,2.73S161.47,200.85,161.47,198.92Z" transform="translate(0.25 0.25)"/><path class="cls-1" d="M164.29,201.41a17,17,0,0,0,2.14.19h0.22c0.81,0,1.19-.16,1.19-0.67a0.83,0.83,0,0,0-.32-0.67,14,14,0,0,0-1.74-1.06c-1-.54-1.52-1.07-1.52-2,0-.06,0-0.13,0-0.2,0.06-.75.88-1.56,2.8-1.56a14,14,0,0,1,2.33.17l-0.2,1a13.67,13.67,0,0,0-2.12-.15c-1,0-1.28.28-1.31,0.58,0,0,0,.06,0,0.09,0,0.37.21,0.55,0.9,0.94s1.63,0.95,1.91,1.14a1.73,1.73,0,0,1,.78,1.52c0,0.06,0,.12,0,0.18-0.1,1.51-1.62,1.68-2.62,1.72h-0.31a15.6,15.6,0,0,1-2.31-.21Z" transform="translate(0.25 0.25)"/><path class="cls-1" d="M170.71,195.53h5.61v1h-4.1v1.94h3.44v1h-3.44v2.12h4.1v1h-5.61v-7Z" transform="translate(0.25 0.25)"/><path class="cls-1" d="M216,200.42c0,0.94.47,1.21,1.53,1.21s1.64-.26,1.64-1.21v-4.89h1.51v4.89c0,1.55-1.27,2.18-3.15,2.18s-3-.62-3-2.18v-4.89H216v4.89Z" transform="translate(0.25 0.25)"/><path class="cls-1" d="M228.58,195.53v7h-1.86l-3-5.08v5.08h-1.51v-7H224l3,5.09v-5.09h1.51Z" transform="translate(0.25 0.25)"/><path class="cls-1" d="M230.2,195.53h1.51v7H230.2v-7Z" transform="translate(0.25 0.25)"/><path class="cls-1" d="M233.44,202.52v-7h3.42c2.39,0,3.13,1.75,3.13,3.41s-0.73,3.59-3.13,3.59h-3.42Zm3.42-1c1.15,0,1.6-1.33,1.6-2.61s-0.44-2.43-1.6-2.43h-1.91v5h1.91Z" transform="translate(0.25 0.25)"/><path class="cls-1" d="M241.08,201.22h1.56v1.3h-1.56v-1.3Z" transform="translate(0.25 0.25)"/><path class="cls-1" d="M285.59,202.34a17.15,17.15,0,0,1-2.62.26c-2.73,0-3.29-1.48-3.29-3.55s0.47-3.6,3.29-3.6a14.11,14.11,0,0,1,2.62.25l-0.11,1a16,16,0,0,0-2.51-.27c-1.55,0-1.76.88-1.76,2.63s0.25,2.57,1.76,2.57a18.62,18.62,0,0,0,2.51-.27Z" transform="translate(0.25 0.25)"/><path class="cls-1" d="M293.59,198.92c0,2.43-.67,3.69-3.41,3.69s-3.47-1.09-3.47-3.71c0-2.46,1.09-3.44,3.47-3.44C292.35,195.45,293.59,196.48,293.59,198.92Zm-1.51,0c0-1.86-.73-2.49-1.9-2.49-1.42,0-2,.5-2,2.47s0.32,2.73,2,2.73S292.08,200.85,292.08,198.92Z" transform="translate(0.25 0.25)"/><path class="cls-1" d="M301.4,195.53v7h-1.86l-3-5.08v5.08H295v-7h1.87l3,5.09v-5.09h1.51Z" transform="translate(0.25 0.25)"/><path class="cls-1" d="M302.79,201.41a17,17,0,0,0,2.14.19h0.22c0.81,0,1.18-.16,1.19-0.67a0.84,0.84,0,0,0-.32-0.67,14,14,0,0,0-1.74-1.06c-1-.54-1.52-1.07-1.52-2,0-.06,0-0.13,0-0.2,0.05-.75.88-1.56,2.8-1.56a14,14,0,0,1,2.33.17l-0.2,1a13.69,13.69,0,0,0-2.12-.15c-1,0-1.28.28-1.31,0.58,0,0,0,.06,0,0.09,0,0.37.21,0.55,0.9,0.94s1.63,0.95,1.91,1.14a1.73,1.73,0,0,1,.78,1.52c0,0.06,0,.12,0,0.18-0.1,1.51-1.62,1.68-2.62,1.72h-0.31a15.6,15.6,0,0,1-2.31-.21Z" transform="translate(0.25 0.25)"/><path class="cls-1" d="M310.72,200.42c0,0.94.47,1.21,1.53,1.21s1.64-.26,1.64-1.21v-4.89h1.51v4.89c0,1.55-1.27,2.18-3.15,2.18s-3-.62-3-2.18v-4.89h1.51v4.89Z" transform="translate(0.25 0.25)"/><path class="cls-1" d="M325.12,195.53v7h-1.51V198l-1.92,4.34h-1.37L318.43,198v4.53h-1.51v-7h1.81l2.29,5,2.3-5h1.8Z" transform="translate(0.25 0.25)"/><path class="cls-1" d="M333.55,198.92c0,2.43-.67,3.69-3.41,3.69s-3.47-1.09-3.47-3.71c0-2.46,1.09-3.44,3.47-3.44C332.3,195.45,333.55,196.48,333.55,198.92Zm-1.51,0c0-1.86-.73-2.49-1.9-2.49-1.42,0-2,.5-2,2.47s0.32,2.73,2,2.73S332,200.85,332,198.92Z" transform="translate(0.25 0.25)"/><path class="cls-1" d="M379.81,195.53h5.46v1h-4v2.18h3.29v1h-3.29v2.85h-1.51v-7Z" transform="translate(0.25 0.25)"/><path class="cls-1" d="M386.59,195.53h1.51v7h-1.51v-7Z" transform="translate(0.25 0.25)"/><path class="cls-1" d="M396.1,195.53v7h-1.87l-3-5.08v5.08H389.7v-7h1.87l3,5.09v-5.09h1.51Z" transform="translate(0.25 0.25)"/><path class="cls-1" d="M401.61,195.53l2.63,7H402.7L402,200.78h-2.91l-0.65,1.74h-1.54l2.64-7h2Zm-1,1.27-1.07,3h2.13Z" transform="translate(0.25 0.25)"/><path class="cls-1" d="M405.2,202.52v-7h1.51v6h3.75v1H405.2Z" transform="translate(0.25 0.25)"/><path class="cls-1" d="M411.42,195.53h1.51v7h-1.51v-7Z" transform="translate(0.25 0.25)"/><path class="cls-1" d="M414.66,202.52v-7h3.42c2.39,0,3.13,1.75,3.13,3.41s-0.73,3.59-3.13,3.59h-3.42Zm3.42-1c1.15,0,1.6-1.33,1.6-2.61s-0.44-2.43-1.6-2.43h-1.91v5h1.91Z" transform="translate(0.25 0.25)"/><path class="cls-1" d="M426.13,195.53l2.63,7h-1.54l-0.66-1.74h-2.91L423,202.52h-1.54l2.64-7h2Zm-1,1.27-1.07,3h2.13Z" transform="translate(0.25 0.25)"/><path class="cls-1" d="M429.71,202.52v-7h3.42c2.39,0,3.13,1.75,3.13,3.41s-0.73,3.59-3.13,3.59h-3.42Zm3.42-1c1.15,0,1.6-1.33,1.6-2.61s-0.44-2.43-1.6-2.43h-1.9v5h1.9Z" transform="translate(0.25 0.25)"/><path class="cls-1" d="M437.79,195.53h5.61v1h-4.1v1.94h3.44v1h-3.44v2.12h4.1v1h-5.61v-7Z" transform="translate(0.25 0.25)"/><path class="cls-1" d="M493.14,198.92c0,2.43-.67,3.69-3.41,3.69s-3.47-1.09-3.47-3.71c0-2.46,1.09-3.44,3.47-3.44C491.9,195.45,493.14,196.48,493.14,198.92Zm-1.51,0c0-1.86-.73-2.49-1.9-2.49-1.42,0-2,.5-2,2.47s0.32,2.73,2,2.73S491.63,200.85,491.63,198.92Z" transform="translate(0.25 0.25)"/><path class="cls-1" d="M497.64,195.53c1.61,0,2.58.64,2.58,1.87a1.63,1.63,0,0,1-.69,1.48,1.58,1.58,0,0,1,1,1.53c0,1.6-1.17,2.11-2.66,2.11h-3.15v-7h3Zm-1.48,1v2h1.59a0.86,0.86,0,0,0,1-1.07c0-.71-0.24-0.89-1.09-0.89h-1.48Zm0,2.94v2.1h1.67a1,1,0,0,0,1.17-1.13c0-1-.72-1-1.25-1h-1.59Z" transform="translate(0.25 0.25)"/><path class="cls-1" d="M501.57,201.41a17,17,0,0,0,2.14.19h0.22c0.81,0,1.18-.16,1.19-0.67a0.84,0.84,0,0,0-.32-0.67,14,14,0,0,0-1.74-1.06c-1-.54-1.52-1.07-1.52-2,0-.06,0-0.13,0-0.2,0.05-.75.88-1.56,2.8-1.56a14,14,0,0,1,2.33.17l-0.2,1a13.69,13.69,0,0,0-2.12-.15c-1,0-1.28.28-1.31,0.58,0,0,0,.06,0,0.09,0,0.37.21,0.55,0.9,0.94s1.63,0.95,1.91,1.14a1.73,1.73,0,0,1,.78,1.52c0,0.06,0,.12,0,0.18-0.1,1.51-1.62,1.68-2.62,1.72h-0.31a15.6,15.6,0,0,1-2.31-.21Z" transform="translate(0.25 0.25)"/><path class="cls-1" d="M508,195.53h5.61v1h-4.1v1.94H513v1h-3.44v2.12h4.1v1H508v-7Z" transform="translate(0.25 0.25)"/><path class="cls-1" d="M516.43,199.9v2.62h-1.51v-7h3.32c1.81,0,2.84.71,2.84,2.14a1.9,1.9,0,0,1-1.43,2l1.86,2.83h-1.65l-1.72-2.62h-1.71Zm1.81-1a1.06,1.06,0,0,0,1.31-1.25c0-.89-0.32-1.16-1.31-1.16h-1.81v2.42h1.81Z" transform="translate(0.25 0.25)"/><path class="cls-1" d="M528.92,195.53l-2.38,7h-2.16l-2.44-7h1.54l2,5.83,1.94-5.83h1.53Z" transform="translate(0.25 0.25)"/><path class="cls-1" d="M533.18,195.53l2.63,7h-1.54l-0.66-1.74H530.7L530,202.52H528.5l2.64-7h2Zm-1,1.27-1.07,3h2.13Z" transform="translate(0.25 0.25)"/><path class="cls-1" d="M542.17,196.69a16,16,0,0,0-2.51-.27c-1.55,0-1.76.88-1.76,2.63s0.25,2.57,1.76,2.57a18.64,18.64,0,0,0,2.51-.27l0.11,1a18.93,18.93,0,0,1-2.23.25h-0.29l-0.16.27a0.56,0.56,0,0,1,.49.64c0,0.49-.25.74-1,0.74a3.62,3.62,0,0,1-.75-0.08l0.07-.38h0.76c0.24,0,.26-0.06.26-0.29s-0.09-.24-0.26-0.24h-0.43l0.38-.68c-2.28-.19-2.77-1.6-2.77-3.53s0.47-3.6,3.3-3.6a14.14,14.14,0,0,1,2.62.25Z" transform="translate(0.25 0.25)"/><path class="cls-1" d="M547.48,195.53l2.62,7h-1.54l-0.66-1.74H545l-0.65,1.74H542.8l2.64-7h2Zm1-1.65a1.91,1.91,0,0,1-1.29.69c-0.74,0-.94-0.48-1.39-0.48a1.39,1.39,0,0,0-.71.45l-0.65-.46a2.13,2.13,0,0,1,1.37-.62,6.93,6.93,0,0,1,1.34.46,1.45,1.45,0,0,0,.66-0.44Zm-2,2.92-1.07,3h2.13Z" transform="translate(0.25 0.25)"/><path class="cls-1" d="M557.74,198.92c0,2.43-.67,3.69-3.41,3.69s-3.47-1.09-3.47-3.71c0-2.46,1.09-3.44,3.47-3.44C556.5,195.45,557.74,196.48,557.74,198.92Zm-1.51,0c0-1.86-.73-2.49-1.9-2.49-1.42,0-2,.5-2,2.47s0.32,2.73,2,2.73S556.23,200.85,556.23,198.92Z" transform="translate(0.25 0.25)"/><path class="cls-2" d="M181.67,67.46a36.05,36.05,0,0,1-5.51.56c-5.74,0-6.92-3.11-6.92-7.46s1-7.57,6.92-7.57a29.69,29.69,0,0,1,5.51.53l-0.23,2.08a33.49,33.49,0,0,0-5.28-.56c-3.26,0-3.7,1.85-3.7,5.52S173,66,176.16,66a39.2,39.2,0,0,0,5.27-.57Z" transform="translate(0.25 0.25)"/><path class="cls-2" d="M198.46,60.27c0,5.1-1.41,7.74-7.17,7.74s-7.29-2.3-7.29-7.8C184,55,186.3,53,191.3,53,195.85,53,198.46,55.16,198.46,60.27Zm-3.17,0c0-3.9-1.53-5.23-4-5.23-3,0-4.12,1.06-4.12,5.18,0,4.36.68,5.74,4.12,5.74S195.29,64.32,195.29,60.27Z" transform="translate(0.25 0.25)"/><path class="cls-2" d="M214.87,53.15V67.84H211l-6.36-10.68V67.84h-3.17V53.15h3.92l6.36,10.7V53.15h3.17Z" transform="translate(0.25 0.25)"/><path class="cls-2" d="M216.62,53.15h13.89v2.06h-5.34V67.85H222V55.21h-5.38V53.15Z" transform="translate(0.25 0.25)"/><path class="cls-2" d="M235.71,62.34v5.5h-3.17V53.15h7c3.8,0,6,1.5,6,4.5a4,4,0,0,1-3,4.24l3.9,6H242.9l-3.6-5.5h-3.59Zm3.79-2.06c2.21,0,2.75-.81,2.75-2.63s-0.67-2.44-2.76-2.44h-3.79v5.08h3.79Z" transform="translate(0.25 0.25)"/><path class="cls-2" d="M262.93,60.27c0,5.1-1.4,7.74-7.17,7.74s-7.29-2.3-7.29-7.8c0-5.18,2.29-7.22,7.29-7.22C260.32,53,262.93,55.16,262.93,60.27Zm-3.17,0c0-3.9-1.53-5.23-4-5.23-3,0-4.12,1.06-4.12,5.18,0,4.36.68,5.74,4.12,5.74S259.76,64.32,259.76,60.27Z" transform="translate(0.25 0.25)"/><path class="cls-2" d="M266.15,67.84V53.15h3.17V65.79h7.88v2.06h-11Z" transform="translate(0.25 0.25)"/><path class="cls-2" d="M279.22,53.15H291v2.06h-8.61v4.07h7.23v2.06h-7.23v4.45H291v2.06H279.22V53.15Z" transform="translate(0.25 0.25)"/><path class="cls-2" d="M301.41,67.84V53.15h7.18c5,0,6.58,3.67,6.58,7.16s-1.53,7.54-6.58,7.54h-7.18Zm7.18-2.06c2.41,0,3.36-2.8,3.36-5.48s-0.92-5.1-3.36-5.1h-4V65.79h4Z" transform="translate(0.25 0.25)"/><path class="cls-2" d="M318.38,53.15h11.79v2.06h-8.61v4.07h7.23v2.06h-7.23v4.45h8.61v2.06H318.38V53.15Z" transform="translate(0.25 0.25)"/><path class="cls-2" d="M338.95,53.15h13.89v2.06H347.5V67.85h-3.17V55.21h-5.38V53.15Z" transform="translate(0.25 0.25)"/><path class="cls-2" d="M360.95,53.15l5.51,14.69h-3.23l-1.39-3.65h-6.1l-1.37,3.65h-3.23l5.54-14.69h4.28Zm-2.16,2.66-2.24,6.32H361Z" transform="translate(0.25 0.25)"/><path class="cls-2" d="M368.46,67.84V53.15h3.17V65.79h7.88v2.06h-11Z" transform="translate(0.25 0.25)"/><path class="cls-2" d="M392,61.51H384.7v6.34h-3.17V53.15h3.17v6.3H392v-6.3h3.17V67.84H392V61.51Z" transform="translate(0.25 0.25)"/><path class="cls-2" d="M412.87,60.27c0,5.1-1.41,7.74-7.17,7.74s-7.29-2.3-7.29-7.8c0-5.18,2.29-7.22,7.29-7.22C410.26,53,412.87,55.16,412.87,60.27Zm-2.93-10.59a4,4,0,0,1-2.7,1.45c-1.55,0-2-1-2.91-1a2.91,2.91,0,0,0-1.49.94l-1.37-1a4.49,4.49,0,0,1,2.88-1.31c1.45,0,2,1,2.82,1a3,3,0,0,0,1.4-.92ZM405.7,66c3.4,0,4-1.63,4-5.69,0-3.9-1.53-5.23-4-5.23-3,0-4.12,1.06-4.12,5.18,0,4.36.68,5.74,4.12,5.74h0Z" transform="translate(0.25 0.25)"/><path class="cls-2" d="M416.09,53.15h11.79v2.06h-8.61v4.07h7.23v2.06h-7.23v4.45h8.61v2.06H416.09V53.15Z" transform="translate(0.25 0.25)"/><path class="cls-2" d="M430.14,65.51a35.91,35.91,0,0,0,4.49.41h0.47c1.69-.07,2.49-0.34,2.5-1.41a1.75,1.75,0,0,0-.67-1.4,29.48,29.48,0,0,0-3.66-2.22c-2-1.14-3.19-2.24-3.19-4.23,0-.13,0-0.27,0-0.41C430.22,54.66,432,53,436,53a29.29,29.29,0,0,1,4.89.35l-0.43,2A28.75,28.75,0,0,0,436,55c-2,0-2.69.59-2.75,1.22,0,0.06,0,.13,0,0.19,0,0.77.44,1.15,1.88,2,1.68,0.95,3.43,2,4,2.39A3.62,3.62,0,0,1,440.77,64c0,0.13,0,.26,0,0.37-0.21,3.17-3.4,3.52-5.51,3.61H434.6a32.61,32.61,0,0,1-4.86-.44Z" transform="translate(0.25 0.25)"/><path class="cls-2" d="M27.94,98.52v-7h3.28c2.28,0,3,1.72,3,3.4s-0.71,3.59-3,3.59H27.94Zm3.28-.82c1.27,0,1.74-1.44,1.74-2.77s-0.46-2.58-1.74-2.58h-2V97.7h2Z" transform="translate(0.25 0.25)"/><path class="cls-2" d="M38.94,91.52l2.56,7H40.24l-0.68-1.84H36.48L35.8,98.52H34.55l2.57-7h1.82ZM38.1,92.58H37.93l-1.14,3.28h2.45Z" transform="translate(0.25 0.25)"/><path class="cls-2" d="M40.8,91.52h6.33v0.82H44.59v6.18H43.36V92.34H40.8V91.52Z" transform="translate(0.25 0.25)"/><path class="cls-2" d="M50.74,91.52l2.56,7H52l-0.68-1.84H48.28L47.6,98.52H46.35l2.57-7h1.82ZM49.9,92.58H49.73l-1.14,3.28H51Z" transform="translate(0.25 0.25)"/><path class="cls-2" d="M61.63,91.52h1.23v7H61.63v-7Z" transform="translate(0.25 0.25)"/><path class="cls-2" d="M70.73,91.52v7H69.1l-3.18-5.45H65.84v5.45H64.61v-7h1.63L69.42,97H69.5V91.52h1.23Z" transform="translate(0.25 0.25)"/><path class="cls-2" d="M73.22,89.35h1.16l-1.52,1.3h-1Zm-0.73,2.17h1.23v7H72.49v-7Z" transform="translate(0.25 0.25)"/><path class="cls-2" d="M80.82,98.35a16.67,16.67,0,0,1-2.48.25c-2.61,0-3.16-1.44-3.16-3.55s0.45-3.61,3.16-3.61a13.67,13.67,0,0,1,2.47.24l-0.09.83a15.39,15.39,0,0,0-2.39-.25c-1.68,0-1.9,1-1.9,2.79s0.26,2.73,1.9,2.73a18,18,0,0,0,2.38-.25Z" transform="translate(0.25 0.25)"/><path class="cls-2" d="M82.24,91.52h1.23v7H82.24v-7Z" transform="translate(0.25 0.25)"/><path class="cls-2" d="M91.74,94.91c0,2.47-.64,3.69-3.27,3.69s-3.33-1.06-3.33-3.72c0-2.49,1-3.44,3.33-3.44C90.56,91.45,91.74,92.46,91.74,94.91Zm-1.23,0c0-2-.78-2.65-2-2.65-1.51,0-2.1.56-2.1,2.62s0.35,2.9,2.1,2.9S90.51,96.91,90.51,94.91Z" transform="translate(0.25 0.25)"/><path class="cls-2" d="M93,94.12h1.28V95.3H93V94.12Zm0,3.22h1.28v1.18H93V97.34Z" transform="translate(0.25 0.25)"/><path class="cls-2" d="M234.34,98.52v-7h3.28c2.28,0,3,1.72,3,3.4s-0.71,3.59-3,3.59h-3.28Zm3.28-.82c1.27,0,1.74-1.44,1.74-2.77s-0.46-2.58-1.74-2.58h-2V97.7h2Z" transform="translate(0.25 0.25)"/><path class="cls-2" d="M245.33,91.52l2.56,7h-1.25L246,96.68h-3.08l-0.67,1.84h-1.25l2.57-7h1.82Zm-0.83,1.06h-0.17l-1.14,3.28h2.45Z" transform="translate(0.25 0.25)"/><path class="cls-2" d="M247.19,91.52h6.33v0.82H251v6.18h-1.23V92.34h-2.56V91.52Z" transform="translate(0.25 0.25)"/><path class="cls-2" d="M257.13,91.52l2.56,7h-1.25l-0.68-1.84h-3.08L254,98.52h-1.25l2.57-7h1.82Zm-0.83,1.06h-0.17L255,95.86h2.45Z" transform="translate(0.25 0.25)"/><path class="cls-2" d="M264.38,91.52h5.18v0.82h-4v2.43h3.29v0.82h-3.29v2.93h-1.23v-7Z" transform="translate(0.25 0.25)"/><path class="cls-2" d="M271,91.52h1.23v7H271v-7Z" transform="translate(0.25 0.25)"/><path class="cls-2" d="M281.89,91.52v7h-1.23v-5h-0.09l-2.08,4.76h-1.17l-2-4.76H275.2v5H274v-7h1.57l2.39,5.37,2.41-5.37h1.56Z" transform="translate(0.25 0.25)"/><path class="cls-2" d="M283.3,94.12h1.28V95.3H283.3V94.12Zm0,3.22h1.28v1.18H283.3V97.34Z" transform="translate(0.25 0.25)"/><path class="cls-2" d="M27.94,116h5.18v0.82h-4v2.43h3.29v0.82H29.17V123H27.94v-7Z" transform="translate(0.25 0.25)"/><path class="cls-2" d="M37.31,116l2.56,7H38.61l-0.68-1.84H34.85L34.17,123H32.92l2.57-7h1.82Zm-0.83,1.06H36.3l-1.14,3.28h2.45Z" transform="translate(0.25 0.25)"/><path class="cls-2" d="M46.23,116v0.74L42,122.21h4.27V123H40.45v-0.75l4.27-5.44H40.45V116h5.78Z" transform="translate(0.25 0.25)"/><path class="cls-2" d="M47.66,116H53v0.82h-4.1V119h3.44v0.82H48.89v2.36H53V123H47.66v-7Z" transform="translate(0.25 0.25)"/><path class="cls-2" d="M60.41,116v7H58.78l-3.18-5.45H55.52V123H54.29v-7h1.63l3.18,5.46h0.08V116h1.23Z" transform="translate(0.25 0.25)"/><path class="cls-2" d="M62.17,123v-7h3.28c2.28,0,3,1.72,3,3.4s-0.71,3.59-3,3.59H62.17Zm3.28-.82c1.27,0,1.74-1.44,1.74-2.77s-0.46-2.58-1.74-2.58h-2v5.35h2Z" transform="translate(0.25 0.25)"/><path class="cls-2" d="M73.17,116l2.56,7H74.47l-0.68-1.84H70.71L70,123H68.78l2.57-7h1.82Zm-0.83,1.06H72.16L71,120.36h2.45Z" transform="translate(0.25 0.25)"/><path class="cls-2" d="M76.29,118.62h1.28v1.18H76.29v-1.18Zm0,3.22h1.28V123H76.29v-1.18Z" transform="translate(0.25 0.25)"/><path class="cls-2" d="M27.11,140.52h6.33v0.82H30.9v6.18H29.67v-6.18H27.11v-0.82Z" transform="translate(0.25 0.25)"/><path class="cls-2" d="M37,140.52l2.56,7H38.35l-0.68-1.84H34.59l-0.67,1.84H32.66l2.57-7H37Zm-0.83,1.06H36l-1.14,3.28h2.45Z" transform="translate(0.25 0.25)"/><path class="cls-2" d="M40.64,147.52v-7h1.23v6.17h3.75v0.82h-5Z" transform="translate(0.25 0.25)"/><path class="cls-2" d="M51.65,144.42H47.89v3.1H46.66v-7h1.23v3.08h3.76v-3.08h1.23v7H51.65v-3.1Z" transform="translate(0.25 0.25)"/><path class="cls-2" d="M61.16,143.91c0,2.47-.64,3.69-3.27,3.69s-3.33-1.06-3.33-3.71c0-2.49,1-3.44,3.33-3.44C60,140.45,61.16,141.46,61.16,143.91Zm-1.23,0c0-2-.78-2.65-2-2.65-1.51,0-2.1.56-2.1,2.62s0.35,2.9,2.1,2.9S59.93,145.91,59.93,143.91Zm-0.12-5.08a1.8,1.8,0,0,1-1.19.66c-0.72,0-.93-0.49-1.39-0.49a1.41,1.41,0,0,0-.72.44L56,139a2,2,0,0,1,1.29-.6c0.69,0,.94.48,1.36,0.48a1.45,1.45,0,0,0,.67-0.43Z" transform="translate(0.25 0.25)"/><path class="cls-2" d="M62.84,140.52h5.33v0.82h-4.1v2.18h3.44v0.82H64.07v2.36h4.1v0.82H62.84v-7Z" transform="translate(0.25 0.25)"/><path class="cls-2" d="M69.3,146.58a15.85,15.85,0,0,0,2,.18h0.23c0.84,0,1.32-.15,1.32-0.8a1,1,0,0,0-.36-0.77,14.44,14.44,0,0,0-1.77-1.1c-0.94-.54-1.45-1-1.45-1.94,0-.06,0-0.13,0-0.2,0.05-.73.83-1.51,2.66-1.51a13.47,13.47,0,0,1,2.17.15L74,141.4a13.16,13.16,0,0,0-2-.14c-1.05,0-1.42.34-1.45,0.7,0,0,0,.08,0,0.11,0,0.45.23,0.65,0.94,1.06s1.61,1,1.9,1.16a1.76,1.76,0,0,1,.73,1.61c-0.07,1.48-1.49,1.64-2.49,1.67H71.28a14.66,14.66,0,0,1-2.14-.19Z" transform="translate(0.25 0.25)"/><path class="cls-2" d="M75.08,143.12h1.28v1.18H75.08v-1.18Zm0,3.22h1.28v1.18H75.08v-1.18Z" transform="translate(0.25 0.25)"/><path class="cls-2" d="M27.65,171.08a15.85,15.85,0,0,0,2,.18H29.9c0.84,0,1.32-.15,1.32-0.8a1,1,0,0,0-.36-0.77,14.44,14.44,0,0,0-1.77-1.1c-0.94-.54-1.45-1-1.45-1.94,0-.06,0-0.13,0-0.2,0.05-.73.83-1.51,2.66-1.51a13.47,13.47,0,0,1,2.17.15l-0.17.81a13.16,13.16,0,0,0-2-.14c-1.05,0-1.42.34-1.45,0.7,0,0,0,.08,0,0.11,0,0.45.23,0.65,0.94,1.06s1.61,1,1.9,1.16a1.76,1.76,0,0,1,.73,1.61c-0.07,1.48-1.49,1.64-2.49,1.67H29.63a14.66,14.66,0,0,1-2.14-.19Z" transform="translate(0.25 0.25)"/><path class="cls-2" d="M33.9,165h5.33v0.82h-4.1V168h3.44v0.82H35.13v2.36h4.1V172H33.9v-7Z" transform="translate(0.25 0.25)"/><path class="cls-2" d="M41.88,169.33V172H40.65v-7h3.18c1.74,0,2.71.69,2.71,2.11a1.87,1.87,0,0,1-1.47,2L46.89,172H45.54l-1.71-2.69H41.88Zm1.95-.82a1.19,1.19,0,0,0,1.45-1.38c0-1-.39-1.29-1.45-1.29H41.88v2.67h1.95Z" transform="translate(0.25 0.25)"/><path class="cls-2" d="M54.06,165l-2.32,7H49.8l-2.38-7h1.25l2,6h0.23l1.93-6h1.25Z" transform="translate(0.25 0.25)"/><path class="cls-2" d="M55.1,165h1.23v7H55.1v-7Z" transform="translate(0.25 0.25)"/><path class="cls-2" d="M63.34,166a15.45,15.45,0,0,0-2.39-.25c-1.68,0-1.9,1-1.9,2.79s0.26,2.73,1.9,2.73a18,18,0,0,0,2.38-.25l0.09,0.82a17.35,17.35,0,0,1-2.18.24H61l-0.17.3a0.53,0.53,0,0,1,.5.63c0,0.49-.23.72-0.9,0.72a4.17,4.17,0,0,1-.67-0.07l0.06-.35h0.67c0.25,0,.27-0.07.27-0.31s-0.07-.25-0.27-0.25h-0.4l0.37-.69c-2.17-.18-2.64-1.57-2.64-3.53s0.45-3.61,3.16-3.61a13.67,13.67,0,0,1,2.47.24Z" transform="translate(0.25 0.25)"/><path class="cls-2" d="M71.24,168.41c0,2.47-.64,3.69-3.27,3.69s-3.33-1.06-3.33-3.72c0-2.49,1-3.44,3.33-3.44C70.06,164.95,71.24,166,71.24,168.41Zm-1.23,0c0-2-.78-2.65-2-2.65-1.51,0-2.1.56-2.1,2.62s0.35,2.9,2.1,2.9S70,170.41,70,168.41Z" transform="translate(0.25 0.25)"/><path class="cls-2" d="M72.45,167.62h1.28v1.18H72.45v-1.18Zm0,3.22h1.28V172H72.45v-1.18Z" transform="translate(0.25 0.25)"/><path class="cls-2" d="M187.55,661.91c0,2.43-.67,3.69-3.41,3.69s-3.47-1.09-3.47-3.71c0-2.46,1.09-3.44,3.47-3.44C186.31,658.45,187.55,659.48,187.55,661.91Zm-1.51,0c0-1.86-.73-2.49-1.9-2.49-1.42,0-2,.5-2,2.47s0.32,2.73,2,2.73S186,663.84,186,661.91Z" transform="translate(0.25 0.25)"/><path class="cls-2" d="M192,658.52c1.61,0,2.58.64,2.58,1.88a1.63,1.63,0,0,1-.69,1.48,1.58,1.58,0,0,1,1,1.53c0,1.6-1.17,2.11-2.66,2.11h-3.15v-7h3Zm-1.48,1v2h1.59a0.86,0.86,0,0,0,1-1.07c0-.71-0.24-0.89-1.09-0.89h-1.48Zm0,2.94v2.1h1.67a1,1,0,0,0,1.17-1.13c0-1-.72-1-1.25-1h-1.59Z" transform="translate(0.25 0.25)"/><path class="cls-2" d="M196,664.41a17,17,0,0,0,2.14.19h0.22c0.81,0,1.19-.16,1.19-0.67a0.83,0.83,0,0,0-.32-0.67,14,14,0,0,0-1.74-1.06c-1-.54-1.52-1.07-1.52-2,0-.06,0-0.13,0-0.2,0.06-.75.88-1.56,2.8-1.56a14,14,0,0,1,2.33.17l-0.2,1a13.62,13.62,0,0,0-2.12-.15c-1,0-1.28.28-1.31,0.58,0,0,0,.06,0,0.09,0,0.37.21,0.55,0.9,0.94s1.63,0.95,1.91,1.14a1.73,1.73,0,0,1,.78,1.52c0,0.06,0,.12,0,0.18-0.1,1.51-1.62,1.68-2.62,1.72H198.1a15.47,15.47,0,0,1-2.31-.21Z" transform="translate(0.25 0.25)"/><path class="cls-2" d="M202.41,658.53H208v1h-4.1v1.94h3.44v1h-3.44v2.12H208v1h-5.61v-7Z" transform="translate(0.25 0.25)"/><path class="cls-2" d="M210.84,662.9v2.62h-1.51v-7h3.32c1.81,0,2.84.71,2.84,2.14a1.9,1.9,0,0,1-1.43,2l1.86,2.83h-1.65l-1.72-2.62h-1.71Zm1.81-1a1.06,1.06,0,0,0,1.31-1.25c0-.89-0.32-1.16-1.31-1.16h-1.81v2.42h1.81Z" transform="translate(0.25 0.25)"/><path class="cls-2" d="M223.33,658.53l-2.38,7h-2.16l-2.44-7h1.54l2,5.83,1.94-5.83h1.53Z" transform="translate(0.25 0.25)"/><path class="cls-2" d="M227.59,658.53l2.62,7h-1.54L228,663.78h-2.91l-0.65,1.74h-1.54l2.64-7h2Zm-1,1.27-1.07,3h2.13Z" transform="translate(0.25 0.25)"/><path class="cls-2" d="M236.58,659.69a16,16,0,0,0-2.51-.26c-1.55,0-1.76.88-1.76,2.63s0.25,2.57,1.76,2.57a18.7,18.7,0,0,0,2.51-.27l0.11,1a19,19,0,0,1-2.23.25h-0.29l-0.16.27a0.56,0.56,0,0,1,.49.64c0,0.49-.25.74-1,0.74a3.62,3.62,0,0,1-.75-0.08l0.07-.38h0.76c0.23,0,.26-0.06.26-0.29s-0.09-.24-0.26-0.24h-0.43l0.38-.68c-2.28-.19-2.77-1.6-2.77-3.53s0.47-3.61,3.3-3.61a14.13,14.13,0,0,1,2.62.25Z" transform="translate(0.25 0.25)"/><path class="cls-2" d="M241.89,658.53l2.62,7H243l-0.66-1.74h-2.91l-0.65,1.74h-1.54l2.64-7h2Zm1-1.65a1.91,1.91,0,0,1-1.29.69c-0.74,0-.94-0.48-1.39-0.48a1.38,1.38,0,0,0-.71.45l-0.65-.46a2.13,2.13,0,0,1,1.37-.62,6.91,6.91,0,0,1,1.34.46,1.44,1.44,0,0,0,.66-0.44Zm-2,2.92-1.07,3h2.13Z" transform="translate(0.25 0.25)"/><path class="cls-2" d="M252.15,661.91c0,2.43-.67,3.69-3.41,3.69s-3.47-1.09-3.47-3.71c0-2.46,1.09-3.44,3.47-3.44C250.91,658.45,252.15,659.48,252.15,661.91Zm-1.51,0c0-1.86-.73-2.49-1.9-2.49-1.42,0-2,.5-2,2.47s0.32,2.73,2,2.73S250.64,663.84,250.64,661.91Z" transform="translate(0.25 0.25)"/><path class="cls-2" d="M253.25,661.06h1.56v1.3h-1.56v-1.3Zm0,3.15h1.56v1.3h-1.56v-1.3Z" transform="translate(0.25 0.25)"/><path class="cls-2" d="M57.83,718.9v2.62H56.32v-7h3.32c1.81,0,2.84.71,2.84,2.14a1.9,1.9,0,0,1-1.43,2l1.86,2.83H61.26l-1.72-2.62H57.83Zm1.81-1a1.06,1.06,0,0,0,1.31-1.25c0-.89-0.32-1.16-1.31-1.16H57.83v2.42h1.81Z" transform="translate(0.25 0.25)"/><path class="cls-2" d="M64.11,714.53h5.61v1h-4.1v1.94h3.44v1H65.62v2.12h4.1v1H64.11v-7Z" transform="translate(0.25 0.25)"/><path class="cls-2" d="M70.8,720.41a17.2,17.2,0,0,0,2.14.19h0.22c0.81,0,1.19-.16,1.19-0.67a0.83,0.83,0,0,0-.32-0.67,14.15,14.15,0,0,0-1.74-1.05c-1-.54-1.52-1.07-1.52-2,0-.06,0-0.13,0-0.2,0.06-.75.88-1.56,2.8-1.56a14,14,0,0,1,2.33.17l-0.2,1a13.74,13.74,0,0,0-2.12-.15c-1,0-1.28.28-1.31,0.58,0,0,0,.06,0,0.09,0,0.37.21,0.55,0.9,0.94s1.63,0.95,1.91,1.13a1.73,1.73,0,0,1,.78,1.52c0,0.06,0,.12,0,0.18-0.1,1.51-1.62,1.68-2.62,1.72H72.92a15.6,15.6,0,0,1-2.31-.21Z" transform="translate(0.25 0.25)"/><path class="cls-2" d="M78.74,719.2v2.32H77.23v-7h3.36c1.91,0,2.83.79,2.83,2.24s-0.88,2.43-2.83,2.43H78.74Zm1.85-1a1.19,1.19,0,0,0,1.3-1.45,1.06,1.06,0,0,0-1.3-1.26H78.74v2.71h1.85Z" transform="translate(0.25 0.25)"/><path class="cls-2" d="M91.6,717.92c0,2.43-.67,3.69-3.41,3.69s-3.47-1.09-3.47-3.71c0-2.46,1.09-3.44,3.47-3.44C90.36,714.45,91.6,715.48,91.6,717.92Zm-1.51,0c0-1.86-.73-2.49-1.9-2.49-1.42,0-2,.5-2,2.46s0.32,2.73,2,2.73S90.09,719.85,90.09,717.92Z" transform="translate(0.25 0.25)"/><path class="cls-2" d="M99.42,714.53v7H97.55l-3-5.08v5.08H93v-7h1.87l3,5.09v-5.09h1.51Z" transform="translate(0.25 0.25)"/><path class="cls-2" d="M100.8,720.41a17.2,17.2,0,0,0,2.14.19h0.22c0.81,0,1.19-.16,1.19-0.67a0.83,0.83,0,0,0-.32-0.67,14.15,14.15,0,0,0-1.74-1.05c-1-.54-1.52-1.07-1.52-2,0-.06,0-0.13,0-0.2,0.06-.75.88-1.56,2.8-1.56a14,14,0,0,1,2.33.17l-0.2,1a13.74,13.74,0,0,0-2.12-.15c-1,0-1.28.28-1.31,0.58,0,0,0,.06,0,0.09,0,0.37.21,0.55,0.9,0.94s1.63,0.95,1.91,1.13a1.73,1.73,0,0,1,.78,1.52c0,0.06,0,.12,0,0.18-0.1,1.51-1.62,1.68-2.62,1.72h-0.31a15.6,15.6,0,0,1-2.31-.21Z" transform="translate(0.25 0.25)"/><path class="cls-2" d="M111.13,714.53l2.62,7h-1.54l-0.66-1.74h-2.91L108,721.52h-1.54l2.64-7h2Zm-1-2.12h1.35l-1.63,1.36h-1.19Zm-0.07,3.39-1.07,3h2.13Z" transform="translate(0.25 0.25)"/><path class="cls-2" d="M120.32,714.53l-2.38,7h-2.16l-2.44-7h1.54l2,5.83,1.94-5.83h1.53Z" transform="translate(0.25 0.25)"/><path class="cls-2" d="M121.28,714.53h5.61v1h-4.1v1.94h3.44v1h-3.44v2.12h4.1v1h-5.61v-7Z" transform="translate(0.25 0.25)"/><path class="cls-2" d="M128.2,721.52v-7h1.51v6h3.75v1H128.2Z" transform="translate(0.25 0.25)"/><rect class="cls-2" x="27.25" y="710.87" width="135" height="0.48"/><path class="cls-2" d="M171.24,802.76h-149a4.5,4.5,0,0,1-4.49-4.49V644.78a4.5,4.5,0,0,1,4.49-4.49h149V802.76Zm-149-162a4,4,0,0,0-4,4v153.5a4,4,0,0,0,4,4H170.76V640.76H22.25Z" transform="translate(0.25 0.25)"/><path class="cls-2" d="M571.92,802.76H170.76V640.28H571.92a4.5,4.5,0,0,1,4.49,4.49v153.5A4.5,4.5,0,0,1,571.92,802.76Zm-400.68-.48H571.92a4,4,0,0,0,4-4V644.78a4,4,0,0,0-4-4H171.24V802.28Z" transform="translate(0.25 0.25)"/><line class="cls-5" x1="79.08" y1="124" x2="567.25" y2="124"/><rect class="cls-2" x="79.08" y="123.76" width="488.17" height="0.48"/><line class="cls-5" x1="77.58" y1="148.44" x2="567.25" y2="148.44"/><rect class="cls-2" x="77.58" y="148.2" width="489.67" height="0.48"/><line class="cls-5" x1="75" y1="173" x2="567.25" y2="173"/><rect class="cls-2" x="75" y="172.76" width="492.25" height="0.48"/><line class="cls-5" x1="287" y1="99.5" x2="318" y2="99.5"/><rect class="cls-2" x="287" y="99.26" width="31" height="0.48"/><line class="cls-5" x1="324.92" y1="99.5" x2="355.92" y2="99.5"/><rect class="cls-2" x="324.92" y="99.26" width="31" height="0.48"/><line class="cls-5" x1="362.44" y1="99.5" x2="400.33" y2="99.5"/><rect class="cls-2" x="362.44" y="99.26" width="37.89" height="0.48"/><line class="cls-5" x1="485.78" y1="99.5" x2="567.25" y2="99.5"/><rect class="cls-2" x="485.78" y="99.26" width="81.47" height="0.48"/><line class="cls-5" x1="95.5" y1="99.5" x2="126.67" y2="99.5"/><rect class="cls-2" x="95.5" y="99.26" width="31.17" height="0.48"/><line class="cls-5" x1="133.06" y1="99.5" x2="164.47" y2="99.5"/><rect class="cls-2" x="133.06" y="99.26" width="31.41" height="0.48"/><line class="cls-5" x1="170.69" y1="99.5" x2="208.69" y2="99.5"/><rect class="cls-2" x="170.69" y="99.26" width="38" height="0.48"/><path class="cls-2" d="M129.11,98.25h-1.31l3-7h1.29Z" transform="translate(0.25 0.25)"/><path class="cls-2" d="M166.95,98.25h-1.31l3-7H170Z" transform="translate(0.25 0.25)"/><path class="cls-2" d="M320.45,98.25h-1.31l3-7h1.29Z" transform="translate(0.25 0.25)"/><path class="cls-2" d="M358.28,98.25H357l3-7h1.29Z" transform="translate(0.25 0.25)"/><rect class="cls-2" x="258.25" y="666.63" width="309" height="0.48"/><rect class="cls-2" x="180.25" y="691.09" width="387" height="0.48"/><rect class="cls-2" x="180.25" y="715.59" width="387" height="0.48"/><rect class="cls-2" x="180.25" y="740.09" width="387" height="0.48"/><rect class="cls-2" x="180.25" y="764.68" width="387" height="0.48"/><rect class="cls-2" x="180.25" y="789.09" width="387" height="0.48"/><g id="_Group_" data-name="&lt;Group&gt;"><g id="_Group_2" data-name="&lt;Group&gt;"><g id="_Group_3" data-name="&lt;Group&gt;"><path class="cls-5" d="M64.08,63.25H60.57l-5.17-10.9-5.15,10.9H46.73L55.39,45.9Z" transform="translate(0.25 0.25)"/></g><g id="_Group_4" data-name="&lt;Group&gt;"><g id="_Group_5" data-name="&lt;Group&gt;"><circle class="cls-6" cx="55.66" cy="57.74" r="1.43"/></g><g id="_Group_6" data-name="&lt;Group&gt;" class="cls-7"><polygon class="cls-8" points="56.91 58.23 55.91 57.83 55.93 57.79 56.91 58.23"/></g><g id="_Group_7" data-name="&lt;Group&gt;" class="cls-7"><polygon class="cls-8" points="54.43 57.15 54.89 57.36 54.9 57.33 54.43 57.15"/></g><g id="_Group_8" data-name="&lt;Group&gt;"><ellipse class="cls-9" cx="55.16" cy="57.33" rx="0.22" ry="0.64" transform="translate(-19.58 84.14) rotate(-65.61)"/></g><g id="_Group_9" data-name="&lt;Group&gt;"><ellipse class="cls-9" cx="55.16" cy="57.33" rx="0.18" ry="0.58" transform="translate(-19.58 84.14) rotate(-65.61)"/></g><g id="_Group_10" data-name="&lt;Group&gt;"><path class="cls-8" d="M55.56,57.63H55.48a1.51,1.51,0,0,1-.4-0.12,0.64,0.64,0,0,1-.47-0.42,0.63,0.63,0,0,1,.62.07,1.5,1.5,0,0,1,.36.22,0.2,0.2,0,0,1,.11.2A0.14,0.14,0,0,1,55.56,57.63Zm-0.81-.58a0.12,0.12,0,0,0-.11,0,0.64,0.64,0,0,0,.45.38,1.48,1.48,0,0,0,.39.12,0.19,0.19,0,0,0,.19,0h0a0.19,0.19,0,0,0-.1-0.17,1.48,1.48,0,0,0-.35-0.22A1.25,1.25,0,0,0,54.76,57.05Z" transform="translate(0.25 0.25)"/></g><g id="_Group_11" data-name="&lt;Group&gt;"><g id="_Group_12" data-name="&lt;Group&gt;"><rect class="cls-8" x="55.14" y="56.74" width="0.04" height="1.17" transform="translate(-19.58 84.14) rotate(-65.61)"/></g></g></g><g id="_Group_13" data-name="&lt;Group&gt;"><path class="cls-5" d="M43.22,45.84V63.26L40.33,61V52L34.5,56.49,28.69,52v9L25.8,63.26V45.84l8.71,6.79Z" transform="translate(0.25 0.25)"/></g><g id="_Group_14" data-name="&lt;Group&gt;"><path class="cls-5" d="M72.48,53l0.64,0.09a5.9,5.9,0,0,1,1,.27,8.06,8.06,0,0,1,1.17.52,3.81,3.81,0,0,1,1.09.89,4.88,4.88,0,0,1,.81,1.37,5.23,5.23,0,0,1,.32,1.94s0,0.18,0,.45a4.62,4.62,0,0,1-.22,1,6.49,6.49,0,0,1-.55,1.22,4.41,4.41,0,0,1-1.06,1.21,5.73,5.73,0,0,1-1.74.94,7.82,7.82,0,0,1-2.58.37,6.22,6.22,0,0,1-2.67-.59A6.43,6.43,0,0,1,66.5,61l2.36-1.82a1,1,0,0,0,.17.21,2.53,2.53,0,0,0,.51.39,4.08,4.08,0,0,0,.85.38,3.92,3.92,0,0,0,1.24.17,2.92,2.92,0,0,0,2.06-.68,2.12,2.12,0,0,0,.74-1.61,2,2,0,0,0-.28-1.1,2.11,2.11,0,0,0-.75-0.69,4.33,4.33,0,0,0-1.09-.42L71,55.57l-0.61-.12a6,6,0,0,1-.95-0.3,7.88,7.88,0,0,1-1.09-.54,4.1,4.1,0,0,1-1-.85,4.37,4.37,0,0,1-1.05-3s0-.17,0-0.43a4.47,4.47,0,0,1,.21-0.92,5.45,5.45,0,0,1,.55-1.17,4.15,4.15,0,0,1,1.07-1.14,6,6,0,0,1,1.74-.87,8.31,8.31,0,0,1,2.58-.35,6.2,6.2,0,0,1,2.68.6,6.54,6.54,0,0,1,2.17,1.64L75,50a1.75,1.75,0,0,0-.72-0.68,4.17,4.17,0,0,0-.92-0.36,7.09,7.09,0,0,0-1.18-.14,3.53,3.53,0,0,0-2.06.52,1.69,1.69,0,0,0-.74,1.47,2,2,0,0,0,.23,1.05,1.56,1.56,0,0,0,.64.59,3.5,3.5,0,0,0,1,.31Z" transform="translate(0.25 0.25)"/></g><g id="_Group_15" data-name="&lt;Group&gt;"><path class="cls-5" d="M94.57,45.91v10.9q0,0.23,0,.8a6.92,6.92,0,0,1-.22,1.28,7,7,0,0,1-.59,1.49,4.7,4.7,0,0,1-1.15,1.41,6,6,0,0,1-1.89,1,8.54,8.54,0,0,1-2.82.4,7.9,7.9,0,0,1-2.7-.4,5.6,5.6,0,0,1-1.82-1,4.6,4.6,0,0,1-1.1-1.41,7.23,7.23,0,0,1-.55-1.49,7.45,7.45,0,0,1-.21-1.28q0-.57,0-0.8V45.91h2.89v10.9q0,0.25.06,0.88A3.67,3.67,0,0,0,84.77,59a3.11,3.11,0,0,0,1.05,1.17,3.53,3.53,0,0,0,2,.51,4,4,0,0,0,2.21-.51,3.28,3.28,0,0,0,1.55-2.45q0.06-.62.06-0.88V45.91h2.89Z" transform="translate(0.25 0.25)"/></g><g id="_Group_16" data-name="&lt;Group&gt;"><path class="cls-5" d="M122.12,45.91H125V61l-2.89,2.24V45.91Z" transform="translate(0.25 0.25)"/></g><g id="_Group_17" data-name="&lt;Group&gt;"><polygon class="cls-5" points="104.01 46.16 101.12 46.16 98.24 46.16 98.24 49.05 101.12 49.05 101.12 50.1 101.12 63.49 104.01 63.49 104.01 50.1 104.01 49.05 106.9 49.05 106.9 46.16 104.01 46.16"/></g><g id="_Group_18" data-name="&lt;Group&gt;"><polygon class="cls-5" points="116 46.16 113.11 46.16 110.22 46.16 110.22 49.05 113.11 49.05 113.11 50.1 113.11 63.49 116 63.49 116 50.1 116 49.05 118.89 49.05 118.89 46.16 116 46.16"/></g></g><g id="_Group_19" data-name="&lt;Group&gt;"><path class="cls-2" d="M92,67l2.49,6.63H93L92.42,72H89.67L89,73.67H87.59L90.09,67H92Zm-1,1.2L90,71.1h2Z" transform="translate(0.25 0.25)"/><path class="cls-2" d="M95.23,74.19a9.5,9.5,0,0,0,2,.33c0.68,0,.9-0.28.91-1a4.35,4.35,0,0,1-1,.13c-1.85,0-2.3-.85-2.3-2.23,0-1.64.56-2.55,2.9-2.55,0.56,0,1.14,0,1.78.09v4c0,1.41-.3,2.33-2.31,2.34A9,9,0,0,1,95,75Zm2.94-4.52H97.63c-1.14,0-1.28.5-1.28,1.73,0,1.06.18,1.44,0.86,1.44a3.89,3.89,0,0,0,1-.14v-3Z" transform="translate(0.25 0.25)"/><path class="cls-2" d="M100.6,69.32a6.45,6.45,0,0,1,2.38-.48H103a5.48,5.48,0,0,1,.87.08l-0.15.8a4.93,4.93,0,0,0-.79-0.08,3.81,3.81,0,0,0-1,.14v3.9H100.6V69.32Z" transform="translate(0.25 0.25)"/><path class="cls-2" d="M105.48,66.92h1.28l-1.54,1.29H104.1Zm-0.82,2h1.41v4.74h-1.41V68.94Z" transform="translate(0.25 0.25)"/><path class="cls-2" d="M111.44,73.52a13.61,13.61,0,0,1-1.72.25c-2.1.08-2.61-.76-2.61-2.46s0.51-2.55,2.61-2.46a16,16,0,0,1,1.72.24l0,0.71c-0.35,0-1.36-.14-1.75-0.16-0.94,0-1.12.34-1.12,1.67s0.18,1.7,1.12,1.66a16.76,16.76,0,0,0,1.72-.29Z" transform="translate(0.25 0.25)"/><path class="cls-2" d="M117,71.23c0,1.64-.51,2.53-2.51,2.53S112,73,112,71.21s0.83-2.36,2.55-2.36S117,69.58,117,71.23Zm-1.42,0c0-1.21-.42-1.58-1.09-1.58-0.84,0-1.13.27-1.13,1.56S113.6,73,114.53,73,115.62,72.53,115.62,71.23Z" transform="translate(0.25 0.25)"/><path class="cls-2" d="M117.91,67h1.42v6.63h-1.42V67Z" transform="translate(0.25 0.25)"/><path class="cls-2" d="M120.43,69a19.9,19.9,0,0,1,2.12-.16c1.39,0,2.05.62,2.05,1.59v2.87a8.52,8.52,0,0,1-2.67.46,1.58,1.58,0,0,1-1.85-1.51c0-.81.57-1.38,1.92-1.48l1.18-.1V70.38a0.58,0.58,0,0,0-.63-0.72c-0.48,0-1,0-2,.14Zm2.75,2.48-1,.09a0.56,0.56,0,0,0-.62.69,0.62,0.62,0,0,0,.46.7,5.54,5.54,0,0,0,1.2-.16V71.48Z" transform="translate(0.25 0.25)"/></g></g><path class="cls-2" d="M576.41,82.76H476.59V39.13h95.55a4.39,4.39,0,0,1,4.27,4.49V82.76Zm-99.33-.48h98.85V43.62a3.91,3.91,0,0,0-3.79-4H477.07V82.28Z" transform="translate(0.25 0.25)"/><path class="cls-2" d="M477.07,82.76H132.57V39.13h344.5V82.76Zm-344-.48H476.59V39.61H133.05V82.28Z" transform="translate(0.25 0.25)"/><path class="cls-10" d="M520.89,61.22c0,5.26-2.41,6.83-6.39,6.83s-6.41-1.57-6.41-6.87c0-5.85,2.35-7.41,6.39-7.41C518.68,53.77,520.89,55.39,520.89,61.22Zm-9.58,0c0,4.14,1.14,5,3.19,5s3.17-.82,3.17-5c0-4.58-1-5.56-3.19-5.56S511.3,56.57,511.3,61.22Z" transform="translate(0.25 0.25)"/><path class="cls-10" d="M535.77,61.22c0,5.26-2.41,6.83-6.39,6.83S523,66.48,523,61.19c0-5.85,2.35-7.41,6.39-7.41C533.57,53.77,535.77,55.39,535.77,61.22Zm-9.58,0c0,4.14,1.14,5,3.19,5s3.17-.82,3.17-5c0-4.58-1-5.56-3.19-5.56S526.19,56.57,526.19,61.22Z" transform="translate(0.25 0.25)"/><path class="cls-10" d="M542.3,54h2.44v13.9h-3.17V56.75l-3.43,1.95-0.83-2Z" transform="translate(0.25 0.25)"/><path class="cls-2" d="M421.28,91.25v7h-1.63l-3.18-5.45h-0.08v5.45h-1.23v-7h1.63L420,96.72H420V91.25h1.23Z" transform="translate(0.25 0.25)"/><path class="cls-2" d="M423.69,91.58A1.22,1.22,0,0,1,425,93c0,1-.28,1.49-1.33,1.49s-1.36-.45-1.36-1.5a1.19,1.19,0,0,1,1.36-1.39h0ZM424.3,93c0-.72-0.22-0.92-0.62-0.92S423,92.21,423,93s0.09,1,.64,1S424.3,93.74,424.3,93Z" transform="translate(0.25 0.25)"/><path class="cls-2" d="M431.08,95.56v2.69h-1.23v-7H433c1.74,0,2.71.69,2.71,2.11a1.87,1.87,0,0,1-1.47,2l1.83,2.86h-1.35L433,95.56h-1.94Zm1.95-.82a1.19,1.19,0,0,0,1.45-1.38c0-1-.39-1.29-1.45-1.29h-1.95v2.67H433Z" transform="translate(0.25 0.25)"/><path class="cls-2" d="M437.44,91.25h5.33v0.82h-4.1v2.18h3.44v0.82h-3.44v2.36h4.1v0.82h-5.33v-7Z" transform="translate(0.25 0.25)"/><path class="cls-2" d="M443.36,91.25h6.33v0.82h-2.54v6.18h-1.23V92.07h-2.56V91.25Z" transform="translate(0.25 0.25)"/><path class="cls-2" d="M450.74,91.25H452v7h-1.23v-7Z" transform="translate(0.25 0.25)"/><path class="cls-2" d="M455.08,95.56v2.69h-1.23v-7H457c1.74,0,2.71.69,2.71,2.11a1.87,1.87,0,0,1-1.47,2l1.83,2.86h-1.35L457,95.56h-1.94Zm1.95-.82a1.19,1.19,0,0,0,1.45-1.38c0-1-.39-1.29-1.45-1.29h-1.95v2.67H457Z" transform="translate(0.25 0.25)"/><path class="cls-2" d="M465,91.25l2.56,7H466.3l-0.68-1.84h-3.08l-0.67,1.84h-1.25l2.57-7H465Zm-0.83,1.06H464l-1.14,3.28h2.45Z" transform="translate(0.25 0.25)"/><path class="cls-2" d="M468.59,98.25v-7h3.28c2.28,0,3,1.72,3,3.4s-0.71,3.59-3,3.59h-3.28Zm3.28-.82c1.27,0,1.74-1.44,1.74-2.77s-0.46-2.58-1.74-2.58h-2v5.35h2Z" transform="translate(0.25 0.25)"/><path class="cls-2" d="M479.59,91.25l2.56,7h-1.25l-0.68-1.84h-3.08l-0.67,1.84H475.2l2.57-7h1.82Zm-0.83,1.06h-0.17l-1.14,3.28h2.45Z" transform="translate(0.25 0.25)"/><path class="cls-2" d="M482.72,93.85H484V95h-1.28V93.85Zm0,3.22H484v1.18h-1.28V97.07Z" transform="translate(0.25 0.25)"/></svg>