<svg id="Layer_1_copy" data-name="Layer 1 copy" xmlns="http://www.w3.org/2000/svg" viewBox="0 0 578.27 430.87"><defs><style>.cls-1{fill:#fff;}.cls-2,.cls-3{fill:#003d43;}.cls-3{fill-rule:evenodd;}.cls-4{fill:#58595b;}.cls-5{fill:#ffb819;}.cls-6{opacity:0.3;}.cls-7{fill:#86754d;}.cls-8{fill:#65513c;}</style></defs><title>Controle defensivos operador</title><rect class="cls-1" width="578.27" height="430.87"/><rect class="cls-2" x="42.52" y="100.28" width="212.6" height="28.35"/><path class="cls-2" d="M255.36,128.86H42.28V100H255.36v28.83Zm-212.6-.48H254.88V100.52H42.76v27.87Z" transform="translate(0 0)"/><path class="cls-3" d="M160.47,53.9V14.24H49.3a6.72,6.72,0,0,0-6.7,6.7V82.28H160.47V53.9Z" transform="translate(0 0)"/><path class="cls-2" d="M160.71,82.52H42.36V20.95A7,7,0,0,1,49.3,14H160.71V82.52ZM42.84,82H160.23V14.48H49.3a6.47,6.47,0,0,0-6.46,6.46V82Z" transform="translate(0 0)"/><path class="cls-4" d="M255.36,100.52H42.28V82H255.36v18.48ZM42.76,100H254.88V82.52H42.76V100Z" transform="translate(0 0)"/><path class="cls-4" d="M255.36,146.86H42.28V128.38H255.36v18.48Zm-212.6-.48H254.88V128.86H42.76v17.52Z" transform="translate(0 0)"/><path class="cls-4" d="M255.36,164.86H42.28V146.38H255.36v18.48Zm-212.6-.48H254.88V146.86H42.76v17.52Z" transform="translate(0 0)"/><path class="cls-4" d="M255.36,182.86H42.28V164.38H255.36v18.48Zm-212.6-.48H254.88V164.86H42.76v17.52Z" transform="translate(0 0)"/><path class="cls-4" d="M255.36,200.86H42.28V182.38H255.36v18.48Zm-212.6-.48H254.88V182.86H42.76v17.52Z" transform="translate(0 0)"/><path class="cls-4" d="M255.36,218.86H42.28V200.38H255.36v18.48Zm-212.6-.48H254.88V200.86H42.76v17.52Z" transform="translate(0 0)"/><path class="cls-4" d="M255.36,236.86H42.28V218.38H255.36v18.48Zm-212.6-.48H254.88V218.86H42.76v17.52Z" transform="translate(0 0)"/><path class="cls-4" d="M255.36,254.86H42.28V236.38H255.36v18.48Zm-212.6-.48H254.88V236.86H42.76v17.52Z" transform="translate(0 0)"/><path class="cls-4" d="M255.36,272.86H42.28V254.38H255.36v18.48Zm-212.6-.48H254.88V254.86H42.76v17.52Z" transform="translate(0 0)"/><path class="cls-4" d="M255.36,290.86H42.28V272.38H255.36v18.48Zm-212.6-.48H254.88V272.86H42.76v17.52Z" transform="translate(0 0)"/><path class="cls-4" d="M255.36,308.86H42.28V290.38H255.36v18.48Zm-212.6-.48H254.88V290.86H42.76v17.52Z" transform="translate(0 0)"/><path class="cls-4" d="M255.36,326.86H42.28V308.38H255.36v18.48Zm-212.6-.48H254.88V308.86H42.76v17.52Z" transform="translate(0 0)"/><path class="cls-4" d="M255.36,344.86H42.28V326.38H255.36v18.48Zm-212.6-.48H254.88V326.86H42.76v17.52Z" transform="translate(0 0)"/><path class="cls-4" d="M255.36,362.86H42.28V344.38H255.36v18.48Zm-212.6-.48H254.88V344.86H42.76v17.52Z" transform="translate(0 0)"/><path class="cls-4" d="M255.36,380.86H42.28V362.38H255.36v18.48Zm-212.6-.48H254.88V362.86H42.76v17.52Z" transform="translate(0 0)"/><path class="cls-4" d="M255.36,416.86H42.28V398.38H255.36v18.48Zm-212.6-.48H254.88V398.86H42.76v17.52Z" transform="translate(0 0)"/><path class="cls-4" d="M568.08,146.86H254.88V128.38h313.2v18.48Zm-312.72-.48H567.6V128.86H255.36v17.52Z" transform="translate(0 0)"/><path class="cls-4" d="M568.08,164.86H254.88V146.38h313.2v18.48Zm-312.72-.48H567.6V146.86H255.36v17.52Z" transform="translate(0 0)"/><path class="cls-4" d="M568.08,182.86H254.88V164.38h313.2v18.48Zm-312.72-.48H567.6V164.86H255.36v17.52Z" transform="translate(0 0)"/><path class="cls-4" d="M568.08,200.86H254.88V182.38h313.2v18.48Zm-312.72-.48H567.6V182.86H255.36v17.52Z" transform="translate(0 0)"/><path class="cls-4" d="M568.08,218.86H254.88V200.38h313.2v18.48Zm-312.72-.48H567.6V200.86H255.36v17.52Z" transform="translate(0 0)"/><path class="cls-4" d="M568.08,236.86H254.88V218.38h313.2v18.48Zm-312.72-.48H567.6V218.86H255.36v17.52Z" transform="translate(0 0)"/><path class="cls-4" d="M568.08,254.86H254.88V236.38h313.2v18.48Zm-312.72-.48H567.6V236.86H255.36v17.52Z" transform="translate(0 0)"/><path class="cls-4" d="M568.08,272.86H254.88V254.38h313.2v18.48Zm-312.72-.48H567.6V254.86H255.36v17.52Z" transform="translate(0 0)"/><path class="cls-4" d="M568.08,290.86H254.88V272.38h313.2v18.48Zm-312.72-.48H567.6V272.86H255.36v17.52Z" transform="translate(0 0)"/><path class="cls-4" d="M568.08,308.86H254.88V290.38h313.2v18.48Zm-312.72-.48H567.6V290.86H255.36v17.52Z" transform="translate(0 0)"/><path class="cls-4" d="M568.08,326.86H254.88V308.38h313.2v18.48Zm-312.72-.48H567.6V308.86H255.36v17.52Z" transform="translate(0 0)"/><path class="cls-4" d="M568.08,344.86H254.88V326.38h313.2v18.48Zm-312.72-.48H567.6V326.86H255.36v17.52Z" transform="translate(0 0)"/><path class="cls-4" d="M568.08,362.86H254.88V344.38h313.2v18.48Zm-312.72-.48H567.6V344.86H255.36v17.52Z" transform="translate(0 0)"/><path class="cls-4" d="M568.08,380.86H254.88V362.38h313.2v18.48Zm-312.72-.48H567.6V362.86H255.36v17.52Z" transform="translate(0 0)"/><path class="cls-4" d="M255.36,398.86H42.28V380.38H255.36v18.48Zm-212.6-.48H254.88V380.86H42.76v17.52Z" transform="translate(0 0)"/><path class="cls-4" d="M568.08,398.86H254.88V380.38h313.2v18.48Zm-312.72-.48H567.6V380.86H255.36v17.52Z" transform="translate(0 0)"/><rect class="cls-2" x="255.12" y="398.62" width="50.26" height="18"/><path class="cls-2" d="M305.62,416.86H254.88V398.38h50.74v18.48Zm-50.26-.48h49.78V398.86H255.36v17.52Z" transform="translate(0 0)"/><path class="cls-4" d="M568.08,416.86H305.14V398.38H568.08v18.48Zm-262.46-.48h262V398.86h-262v17.52Z" transform="translate(0 0)"/><path class="cls-4" d="M568.08,100.52H445.71V82H568.08v18.48ZM446.19,100H567.6V82.52H446.19V100Z" transform="translate(0 0)"/><path class="cls-4" d="M446.19,100.52H254.88V82H446.19v18.48ZM255.36,100H445.71V82.52H255.36V100Z" transform="translate(0 0)"/><path class="cls-4" d="M45.6,85.68h5.07v0.66h-2v4.94h-1V86.34h-2V85.68Z" transform="translate(0 0)"/><path class="cls-4" d="M53.55,85.68l2,5.6h-1L54,89.8H51.58L51,91.28H50l2.06-5.6h1.46Zm-0.67.84H52.74l-0.91,2.62h2Z" transform="translate(0 0)"/><path class="cls-4" d="M56.42,91.28v-5.6h1v4.94h3v0.66h-4Z" transform="translate(0 0)"/><path class="cls-4" d="M65.23,88.8h-3v2.48h-1v-5.6h1v2.46h3V85.68h1v5.6h-1V88.8Z" transform="translate(0 0)"/><path class="cls-4" d="M70.57,85.68l2,5.6h-1L71.06,89.8H68.6l-0.54,1.47h-1l2.06-5.6h1.45Zm0.83-1.36a1.44,1.44,0,0,1-1,.52,6.77,6.77,0,0,1-1.12-.4,1.14,1.14,0,0,0-.58.35l-0.45-.31a1.62,1.62,0,0,1,1-.48,6,6,0,0,1,1.09.38A1.16,1.16,0,0,0,71,84.05Zm-1.49,2.2H69.76l-0.91,2.62h2Z" transform="translate(0 0)"/><path class="cls-4" d="M78.56,88.39c0,2-.51,3-2.62,3s-2.67-.85-2.67-3,0.83-2.75,2.67-2.75C77.62,85.62,78.56,86.42,78.56,88.39Zm-1,0c0-1.57-.62-2.12-1.63-2.12-1.21,0-1.68.45-1.68,2.1s0.28,2.32,1.68,2.32S77.58,90,77.58,88.39Z" transform="translate(0 0)"/><path class="cls-4" d="M79.53,87.76h1V88.7h-1V87.76Zm0,2.58h1v0.94h-1V90.33Z" transform="translate(0 0)"/><path class="cls-1" d="M125.5,110.46a11.88,11.88,0,0,1,2.07-.15,3.32,3.32,0,0,1,2.18.6,2.09,2.09,0,0,1,.73,1.64,2.26,2.26,0,0,1-.63,1.67,3.3,3.3,0,0,1-2.34.8,3,3,0,0,1-.66-0.05v2.81H125.5v-7.32Zm1.34,3.44a2.25,2.25,0,0,0,.66.07,1.39,1.39,0,0,0,1.63-1.36,1.27,1.27,0,0,0-1.51-1.25,3.73,3.73,0,0,0-.78.07v2.49Z" transform="translate(0 0)"/><path class="cls-1" d="M131.65,110.47a11.64,11.64,0,0,1,2-.17,3.46,3.46,0,0,1,2.29.59,1.88,1.88,0,0,1,.64,1.5,2,2,0,0,1-1.35,1.85v0a1.84,1.84,0,0,1,1,1.43,18.65,18.65,0,0,0,.58,2.07H135.5A9.45,9.45,0,0,1,135,116c-0.22-1-.56-1.28-1.33-1.3H133v3h-1.34v-7.31Zm1.34,3.27h0.8a1.27,1.27,0,0,0,1.47-1.22,1.2,1.2,0,0,0-1.44-1.19,3.87,3.87,0,0,0-.84.07v2.34Z" transform="translate(0 0)"/><path class="cls-1" d="M144.49,114c0,2.49-1.51,3.91-3.54,3.91s-3.42-1.61-3.42-3.77,1.44-3.89,3.53-3.89S144.49,111.87,144.49,114Zm-5.53.1c0,1.52.76,2.72,2.06,2.72s2-1.22,2-2.77c0-1.4-.69-2.72-2-2.72S139,112.56,139,114.09Z" transform="translate(0 0)"/><path class="cls-1" d="M145.65,110.46a15.19,15.19,0,0,1,2.16-.15,4.48,4.48,0,0,1,3,.86,3.31,3.31,0,0,1,1.17,2.73,3.82,3.82,0,0,1-1.16,2.95,5,5,0,0,1-3.36,1,15,15,0,0,1-1.83-.1v-7.29Zm1.35,6.29a5.08,5.08,0,0,0,.75,0,2.55,2.55,0,0,0,2.81-2.85,2.36,2.36,0,0,0-2.63-2.57,4.41,4.41,0,0,0-.92.08v5.31Z" transform="translate(0 0)"/><path class="cls-1" d="M154.51,110.36v4.32c0,1.45.61,2.12,1.52,2.12s1.56-.67,1.56-2.12v-4.32h1.35v4.24c0,2.29-1.18,3.3-3,3.3s-2.83-1-2.83-3.29v-4.25h1.35Z" transform="translate(0 0)"/><path class="cls-1" d="M161.91,111.49H159.8v-1.13h5.6v1.13h-2.13v6.28h-1.35v-6.28Z" transform="translate(0 0)"/><path class="cls-1" d="M172.54,114c0,2.49-1.51,3.91-3.54,3.91s-3.42-1.61-3.42-3.77,1.44-3.89,3.53-3.89S172.54,111.87,172.54,114Zm-5.53.1c0,1.52.76,2.72,2.06,2.72s2-1.22,2-2.77c0-1.4-.69-2.72-2-2.72S167,112.56,167,114.09Z" transform="translate(0 0)"/><rect class="cls-2" x="255.12" y="100.28" width="312.72" height="28.35"/><path class="cls-2" d="M568.08,128.86H254.88V100h313.2v28.83Zm-312.72-.48H567.6V100.52H255.36v27.87Z" transform="translate(0 0)"/><path class="cls-1" d="M385.82,119a29.5,29.5,0,0,1-2.89-1,1.47,1.47,0,0,0-.48-0.11,3.43,3.43,0,0,1-3.25-3.76c0-2.3,1.42-3.91,3.54-3.91s3.42,1.65,3.42,3.75a3.45,3.45,0,0,1-1.91,3.42v0c0.64,0.18,1.35.33,2,.44ZM384.73,114c0-1.41-.69-2.72-2-2.72s-2.07,1.29-2.07,2.77,0.76,2.72,2.06,2.72S384.73,115.6,384.73,114Z" transform="translate(0 0)"/><path class="cls-1" d="M388.67,110.36v4.32c0,1.45.6,2.12,1.52,2.12s1.56-.67,1.56-2.12v-4.32h1.35v4.24c0,2.29-1.18,3.3-3,3.3s-2.83-1-2.83-3.29v-4.25h1.35Z" transform="translate(0 0)"/><path class="cls-1" d="M395.79,115.68l-0.64,2.1h-1.4l2.38-7.42h1.73l2.41,7.42H398.8l-0.67-2.1h-2.34Zm2.12-1-0.58-1.83c-0.14-.45-0.26-1-0.37-1.39h0c-0.11.43-.23,0.95-0.35,1.39L396,114.65h1.9Z" transform="translate(0 0)"/><path class="cls-1" d="M401.29,117.78v-7.42h1.55l1.92,3.18A22.16,22.16,0,0,1,406,116h0a30.4,30.4,0,0,1-.12-3.08v-2.59h1.25v7.42h-1.41l-1.94-3.27a25.68,25.68,0,0,1-1.32-2.55h0c0.05,1,.08,1.94.08,3.16v2.65h-1.25Z" transform="translate(0 0)"/><path class="cls-1" d="M410.15,111.49H408v-1.13h5.6v1.13h-2.13v6.28h-1.35v-6.28Z" transform="translate(0 0)"/><path class="cls-1" d="M415.86,110.36v7.42h-1.35v-7.42h1.35Z" transform="translate(0 0)"/><path class="cls-1" d="M417.41,110.46a15.17,15.17,0,0,1,2.16-.15,4.48,4.48,0,0,1,3,.86,3.31,3.31,0,0,1,1.17,2.73,3.82,3.82,0,0,1-1.16,2.95,5,5,0,0,1-3.36,1,15,15,0,0,1-1.83-.1v-7.29Zm1.35,6.29a5.09,5.09,0,0,0,.75,0,2.55,2.55,0,0,0,2.81-2.85,2.36,2.36,0,0,0-2.63-2.57,4.43,4.43,0,0,0-.92.08v5.31Z" transform="translate(0 0)"/><path class="cls-1" d="M426.25,115.68l-0.64,2.1h-1.4l2.38-7.42h1.73l2.41,7.42h-1.46l-0.67-2.1h-2.34Zm2.12-1-0.58-1.83c-0.14-.45-0.26-1-0.37-1.39h0c-0.11.43-.23,0.95-0.35,1.39l-0.57,1.83h1.9Z" transform="translate(0 0)"/><path class="cls-1" d="M431.76,110.46a15.17,15.17,0,0,1,2.16-.15,4.48,4.48,0,0,1,3,.86,3.3,3.3,0,0,1,1.17,2.73,3.82,3.82,0,0,1-1.15,2.95,5,5,0,0,1-3.36,1,15,15,0,0,1-1.83-.1v-7.29Zm1.35,6.29a5.09,5.09,0,0,0,.75,0,2.55,2.55,0,0,0,2.81-2.85,2.36,2.36,0,0,0-2.63-2.57,4.41,4.41,0,0,0-.92.08v5.31Z" transform="translate(0 0)"/><path class="cls-1" d="M443.42,114.49h-2.79v2.18h3.13v1.11h-4.48v-7.42h4.31v1.11h-3v1.91h2.79v1.1Z" transform="translate(0 0)"/><path class="cls-4" d="M259.26,85.68h1v5.6h-1v-5.6Z" transform="translate(0 0)"/><path class="cls-4" d="M266.55,85.68v5.6h-1.31l-2.54-4.36h-0.07v4.36h-1v-5.6H263L265.49,90h0.07V85.68h1Z" transform="translate(0 0)"/><path class="cls-4" d="M268.54,83.94h0.93l-1.22,1h-0.81ZM268,85.68h1v5.6h-1v-5.6Z" transform="translate(0 0)"/><path class="cls-4" d="M274.62,91.14a13.32,13.32,0,0,1-2,.2c-2.09,0-2.52-1.15-2.52-2.84s0.36-2.89,2.52-2.89a10.94,10.94,0,0,1,2,.19l-0.07.66a12.31,12.31,0,0,0-1.91-.2c-1.35,0-1.52.79-1.52,2.23s0.21,2.19,1.52,2.19a14.36,14.36,0,0,0,1.91-.2Z" transform="translate(0 0)"/><path class="cls-4" d="M275.75,85.68h1v5.6h-1v-5.6Z" transform="translate(0 0)"/><path class="cls-4" d="M283.36,88.39c0,2-.51,3-2.62,3s-2.67-.85-2.67-3,0.83-2.75,2.67-2.75C282.41,85.62,283.36,86.42,283.36,88.39Zm-1,0c0-1.57-.62-2.12-1.63-2.12-1.21,0-1.68.45-1.68,2.1s0.28,2.32,1.68,2.32S282.37,90,282.37,88.39Z" transform="translate(0 0)"/><path class="cls-4" d="M284.32,87.76h1V88.7h-1V87.76Zm0,2.58h1v0.94h-1V90.33Z" transform="translate(0 0)"/><path class="cls-4" d="M450.6,91.68h4.15v0.66h-3.16v1.94h2.63v0.66h-2.63v2.34h-1v-5.6Z" transform="translate(0 0)"/><path class="cls-4" d="M455.89,91.68h1v5.6h-1v-5.6Z" transform="translate(0 0)"/><path class="cls-4" d="M464.61,91.68v5.6h-1v-4h-0.07l-1.66,3.81H461l-1.64-3.81h-0.07v4h-1v-5.6h1.26l1.91,4.3,1.93-4.3h1.25Z" transform="translate(0 0)"/><path class="cls-4" d="M465.74,93.76h1V94.7h-1V93.76Zm0,2.58h1v0.94h-1V96.33Z" transform="translate(0 0)"/><path class="cls-4" d="M488.8,97.27h-1l2.43-5.59h1Z" transform="translate(0 0)"/><path class="cls-4" d="M514.14,97.27h-1l2.43-5.59h1Z" transform="translate(0 0)"/><path class="cls-4" d="M568.08,82.52H160.15V14h401a7,7,0,0,1,6.94,6.94V82.52ZM160.63,82h407V20.95a6.47,6.47,0,0,0-6.46-6.46H160.63V82Z" transform="translate(0 0)"/><path class="cls-2" d="M180,45.15a34.34,34.34,0,0,1-5.25.53c-5.46,0-6.59-3-6.59-7.11s0.95-7.22,6.59-7.22a28.29,28.29,0,0,1,5.25.51l-0.22,2a31.93,31.93,0,0,0-5-.53c-3.11,0-3.53,1.76-3.53,5.26s0.49,5.15,3.53,5.15a37.39,37.39,0,0,0,5-.54Z" transform="translate(0 0)"/><path class="cls-2" d="M196,38.3c0,4.86-1.34,7.38-6.83,7.38s-6.95-2.19-6.95-7.43c0-4.93,2.18-6.88,6.95-6.88C193.5,31.36,196,33.43,196,38.3Zm-3,0c0-3.72-1.46-5-3.81-5-2.84,0-3.93,1-3.93,4.93,0,4.15.65,5.47,3.93,5.47S193,42.16,193,38.3Z" transform="translate(0 0)"/><path class="cls-2" d="M211.61,31.52v14h-3.73l-6.06-10.17V45.51h-3v-14h3.73l6.06,10.2V31.52h3Z" transform="translate(0 0)"/><path class="cls-2" d="M213.27,31.52h13.23v2h-5.08v12h-3v-12h-5.13v-2Z" transform="translate(0 0)"/><path class="cls-2" d="M231.45,40.27v5.24h-3v-14h6.64c3.62,0,5.69,1.43,5.69,4.29a3.8,3.8,0,0,1-2.87,4l3.72,5.67H238.3l-3.43-5.24h-3.42Zm3.62-2c2.11,0,2.63-.77,2.63-2.51s-0.64-2.33-2.62-2.33h-3.62v4.84h3.62Z" transform="translate(0 0)"/><path class="cls-2" d="M257.38,38.3c0,4.86-1.34,7.38-6.83,7.38s-6.95-2.19-6.95-7.43c0-4.93,2.18-6.88,6.95-6.88C254.9,31.36,257.38,33.43,257.38,38.3Zm-3,0c0-3.72-1.46-5-3.81-5-2.84,0-3.93,1-3.93,4.93,0,4.15.65,5.47,3.93,5.47S254.36,42.16,254.36,38.3Z" transform="translate(0 0)"/><path class="cls-2" d="M260.44,45.51v-14h3v12H271v2H260.44Z" transform="translate(0 0)"/><path class="cls-2" d="M272.88,31.52h11.23v2h-8.21v3.88h6.89v2h-6.89v4.24h8.21v2H272.88v-14Z" transform="translate(0 0)"/><path class="cls-2" d="M294,45.51v-14h6.84c4.78,0,6.26,3.5,6.26,6.82s-1.46,7.18-6.26,7.18H294Zm6.84-2c2.29,0,3.2-2.67,3.2-5.22s-0.88-4.86-3.2-4.86H297V43.55h3.81Z" transform="translate(0 0)"/><path class="cls-2" d="M310.18,31.52h11.23v2h-8.21v3.88h6.89v2h-6.89v4.24h8.21v2H310.18v-14Z" transform="translate(0 0)"/><path class="cls-2" d="M324,31.52H335v2H327v4.37h6.59v2H327v5.71h-3v-14Z" transform="translate(0 0)"/><path class="cls-2" d="M337.58,31.52h11.23v2h-8.21v3.88h6.89v2h-6.89v4.24h8.21v2H337.58v-14Z" transform="translate(0 0)"/><path class="cls-2" d="M364,31.52v14h-3.73l-6.06-10.17V45.51h-3v-14h3.73L361,41.71V31.52h3Z" transform="translate(0 0)"/><path class="cls-2" d="M366.75,43.29a34.2,34.2,0,0,0,4.28.39h0.45c1.61-.06,2.37-0.33,2.38-1.35a1.67,1.67,0,0,0-.63-1.33,28.18,28.18,0,0,0-3.49-2.11c-1.94-1.09-3-2.13-3-4,0-.13,0-0.26,0-0.39,0.11-1.5,1.77-3.12,5.61-3.12a27.9,27.9,0,0,1,4.66.34l-0.41,1.94a27.39,27.39,0,0,0-4.25-.3c-1.93,0-2.56.56-2.62,1.16,0,0.06,0,.12,0,0.18,0,0.73.42,1.1,1.79,1.88,1.6,0.9,3.27,1.9,3.83,2.27a3.45,3.45,0,0,1,1.56,3c0,0.13,0,.25,0,0.36-0.2,3-3.24,3.36-5.25,3.44H371a31.09,31.09,0,0,1-4.63-.42Z" transform="translate(0 0)"/><path class="cls-2" d="M379.6,31.51h3v14h-3v-14Z" transform="translate(0 0)"/><path class="cls-2" d="M398.51,31.52l-4.76,14h-4.33l-4.89-14h3.07l4,11.67,3.88-11.67h3.07Z" transform="translate(0 0)"/><path class="cls-2" d="M413.8,38.3c0,4.86-1.34,7.38-6.83,7.38S400,43.49,400,38.25c0-4.93,2.18-6.88,6.95-6.88C411.31,31.36,413.8,33.43,413.8,38.3Zm-3,0c0-3.72-1.46-5-3.81-5-2.84,0-3.93,1-3.93,4.93,0,4.15.65,5.47,3.93,5.47S410.78,42.16,410.78,38.3Z" transform="translate(0 0)"/><path class="cls-2" d="M416.41,43.29a34.2,34.2,0,0,0,4.28.39h0.45c1.61-.06,2.37-0.33,2.38-1.35a1.67,1.67,0,0,0-.63-1.33,28.18,28.18,0,0,0-3.49-2.11c-1.94-1.09-3-2.13-3-4,0-.13,0-0.26,0-0.39,0.11-1.5,1.77-3.12,5.61-3.12a27.9,27.9,0,0,1,4.66.34l-0.41,1.94a27.39,27.39,0,0,0-4.25-.3c-1.93,0-2.56.56-2.62,1.16,0,0.06,0,.12,0,0.18,0,0.73.42,1.1,1.79,1.88,1.6,0.9,3.27,1.9,3.83,2.27a3.45,3.45,0,0,1,1.56,3c0,0.13,0,.25,0,0.36-0.2,3-3.24,3.36-5.25,3.44h-0.62a31.09,31.09,0,0,1-4.63-.42Z" transform="translate(0 0)"/><path class="cls-2" d="M449.94,38.3c0,4.86-1.34,7.38-6.83,7.38s-6.95-2.19-6.95-7.43c0-4.93,2.18-6.88,6.95-6.88C447.45,31.36,449.94,33.43,449.94,38.3Zm-3,0c0-3.72-1.46-5-3.81-5-2.84,0-3.93,1-3.93,4.93,0,4.15.65,5.47,3.93,5.47S446.92,42.16,446.92,38.3Z" transform="translate(0 0)"/><path class="cls-2" d="M456,40.87v4.65h-3v-14h6.73c3.82,0,5.67,1.58,5.67,4.49s-1.75,4.87-5.67,4.87H456Zm3.7-2c1.88,0,2.6-1,2.6-2.91s-0.62-2.53-2.6-2.53H456v5.43h3.7Z" transform="translate(0 0)"/><path class="cls-2" d="M468,31.52h11.23v2H471v3.88h6.89v2H471v4.24h8.21v2H468v-14Z" transform="translate(0 0)"/><path class="cls-2" d="M484.84,40.27v5.24h-3v-14h6.64c3.62,0,5.69,1.43,5.69,4.29a3.8,3.8,0,0,1-2.87,4L495,45.51H491.7l-3.43-5.24h-3.42Zm3.62-2c2.11,0,2.63-.77,2.63-2.51s-0.64-2.33-2.62-2.33h-3.62v4.84h3.62Z" transform="translate(0 0)"/><path class="cls-2" d="M505.2,31.52l5.25,14h-3.08L506,42h-5.81l-1.31,3.48h-3.08l5.28-14h4.08Zm-2.06,2.54-2.13,6h4.27Z" transform="translate(0 0)"/><path class="cls-2" d="M512.36,45.51v-14h6.84c4.78,0,6.26,3.5,6.26,6.82s-1.46,7.18-6.26,7.18h-6.84Zm6.84-2c2.29,0,3.2-2.67,3.2-5.22s-0.88-4.86-3.2-4.86h-3.81V43.55h3.81Z" transform="translate(0 0)"/><path class="cls-2" d="M541.9,38.3c0,4.86-1.34,7.38-6.83,7.38s-6.95-2.19-6.95-7.43c0-4.93,2.18-6.88,6.95-6.88C539.41,31.36,541.9,33.43,541.9,38.3Zm-3,0c0-3.72-1.46-5-3.81-5-2.84,0-3.93,1-3.93,4.93,0,4.15.65,5.47,3.93,5.47S538.88,42.16,538.88,38.3Z" transform="translate(0 0)"/><path class="cls-2" d="M548,40.27v5.24h-3v-14h6.64c3.62,0,5.69,1.43,5.69,4.29a3.8,3.8,0,0,1-2.87,4l3.72,5.67h-3.31l-3.43-5.24H548Zm3.62-2c2.11,0,2.63-.77,2.63-2.51s-0.64-2.33-2.62-2.33H548v4.84h3.62Z" transform="translate(0 0)"/><line class="cls-1" x1="255.12" y1="128.62" x2="255.12" y2="100.28"/><rect class="cls-1" x="254.88" y="100.28" width="0.48" height="28.35"/><path class="cls-4" d="M165.3,56.47H169V57h-2.87v1.52h2.41v0.57h-2.41V60.8H169v0.57H165.3v-4.9Z" transform="translate(0 0)"/><path class="cls-4" d="M169.74,60.81a7.67,7.67,0,0,0,1,.11h0.13c0.29,0,.51-0.07.51-0.41a0.42,0.42,0,0,0-.16-0.36c-0.12-.1-0.49-0.34-0.78-0.53a1.07,1.07,0,0,1-.71-1s0-.06,0-0.1a1.12,1.12,0,0,1,1.32-.78,7,7,0,0,1,1.17.09l-0.09.5a6.57,6.57,0,0,0-.91-0.11h-0.16a0.39,0.39,0,0,0-.47.33s0,0,0,.07a0.55,0.55,0,0,0,.34.51c0.4,0.25.79,0.52,0.88,0.6a0.87,0.87,0,0,1,.42.72c0,0.78-.85.87-1.33,0.89h-0.15a7.94,7.94,0,0,1-1.1-.1Z" transform="translate(0 0)"/><path class="cls-4" d="M175.8,61.27a9.76,9.76,0,0,1-1.18.17c-1.47.06-1.83-.53-1.83-1.81s0.36-1.88,1.83-1.82a11,11,0,0,1,1.18.17l0,0.45c-0.19,0-.9-0.11-1.19-0.12-0.78,0-.93.3-0.93,1.33s0.15,1.36.93,1.32a11.13,11.13,0,0,0,1.17-.2Z" transform="translate(0 0)"/><path class="cls-4" d="M176.4,58.14a4.46,4.46,0,0,1,1.66-.34,3.45,3.45,0,0,1,.59,0l-0.09.5a3.08,3.08,0,0,0-.5,0,3,3,0,0,0-.81.13v2.95H176.4V58.14Z" transform="translate(0 0)"/><path class="cls-4" d="M179.19,56.57H180v0.65h-0.86V56.57Zm0,1.3H180v3.5h-0.86v-3.5Z" transform="translate(0 0)"/><path class="cls-4" d="M182,57v0.85h0.81v0.5H182v1.85c0,0.5,0,.69.26,0.71h0.07a1.72,1.72,0,0,0,.5-0.11l-0.09.52a3.08,3.08,0,0,1-.63.09c-0.82,0-1-.37-1-1.21V58.38h-0.73v-0.5h0.73V57H182Z" transform="translate(0 0)"/><path class="cls-4" d="M186.82,59.56c0,1.24-.36,1.87-1.76,1.87s-1.79-.55-1.79-1.88a1.52,1.52,0,0,1,1.79-1.75A1.55,1.55,0,0,1,186.82,59.56Zm-0.86,0c0-1-.34-1.26-0.9-1.26s-0.93.23-.93,1.25,0.16,1.39.93,1.39S186,60.56,186,59.56Zm-0.83-3.22h0.81l-1.07.91h-0.71Z" transform="translate(0 0)"/><path class="cls-4" d="M187.5,58.14a4.46,4.46,0,0,1,1.66-.34,3.45,3.45,0,0,1,.59,0l-0.09.5a3.08,3.08,0,0,0-.5,0,3,3,0,0,0-.81.13v2.95h-0.85V58.14Z" transform="translate(0 0)"/><path class="cls-4" d="M190.29,56.57h0.86v0.65h-0.86V56.57Zm0,1.3h0.86v3.5h-0.86v-3.5Z" transform="translate(0 0)"/><path class="cls-4" d="M195.35,59.56c0,1.24-.36,1.87-1.76,1.87s-1.79-.55-1.79-1.88a1.52,1.52,0,0,1,1.79-1.75A1.55,1.55,0,0,1,195.35,59.56Zm-0.86,0c0-1-.34-1.26-0.9-1.26s-0.93.23-.93,1.25,0.16,1.39.93,1.39S194.49,60.56,194.49,59.56Z" transform="translate(0 0)"/><path class="cls-4" d="M202.65,61.26a11.69,11.69,0,0,1-1.73.17c-1.83,0-2.21-1-2.21-2.49s0.32-2.53,2.21-2.53a9.56,9.56,0,0,1,1.73.17l-0.06.58a10.82,10.82,0,0,0-1.67-.17c-1.18,0-1.33.69-1.33,2s0.18,1.92,1.33,1.92a12.63,12.63,0,0,0,1.67-.18Z" transform="translate(0 0)"/><path class="cls-4" d="M206.58,61.21a8.48,8.48,0,0,1-1.57.22,1.82,1.82,0,0,1,0-3.63,1.5,1.5,0,0,1,1.73,1.69v0.36h-2.55c0,0.73.24,1.08,0.87,1.08a9.76,9.76,0,0,0,1.47-.22Zm-0.76-1.86c0-.79-0.27-1.05-0.85-1.05s-0.8.26-.82,1.05h1.67Z" transform="translate(0 0)"/><path class="cls-4" d="M207.34,58.14A4.47,4.47,0,0,1,209,57.8a1.49,1.49,0,0,1,1.71,1.75v1.82h-0.87V59.55c0-.91-0.22-1.25-0.84-1.25a3,3,0,0,0-.81.13v2.94h-0.86V58.14Z" transform="translate(0 0)"/><path class="cls-4" d="M212.72,57v0.85h0.81v0.5h-0.81v1.85c0,0.5,0,.69.26,0.71H213a1.72,1.72,0,0,0,.5-0.11l-0.09.52a3.07,3.07,0,0,1-.63.09c-0.82,0-1-.37-1-1.21V58.38h-0.73v-0.5h0.73V57h0.85Z" transform="translate(0 0)"/><path class="cls-4" d="M214.1,58.14a4.46,4.46,0,0,1,1.66-.34,3.45,3.45,0,0,1,.59,0l-0.09.5a3.08,3.08,0,0,0-.5,0,3,3,0,0,0-.81.13v2.95H214.1V58.14Z" transform="translate(0 0)"/><path class="cls-4" d="M217,57.91a13.85,13.85,0,0,1,1.46-.11A1.17,1.17,0,0,1,219.87,59v2.16a6,6,0,0,1-1.87.32,1.1,1.1,0,0,1-1.27-1.09c0-.6.39-1,1.33-1.07l1-.09V58.93a0.51,0.51,0,0,0-.56-0.61c-0.35,0-.74,0-1.37.1Zm2,1.78-0.87.07a0.5,0.5,0,0,0-.54.58,0.51,0.51,0,0,0,.43.59,4.31,4.31,0,0,0,1-.14v-1.1Z" transform="translate(0 0)"/><path class="cls-4" d="M220.67,56.47h0.86v4.9h-0.86v-4.9Z" transform="translate(0 0)"/><path class="cls-4" d="M222.21,58.29h0.89v0.82h-0.89V58.29Zm0,2.26h0.89v0.82h-0.89V60.55Z" transform="translate(0 0)"/><path class="cls-4" d="M229.66,57.15a6.54,6.54,0,0,0-1.29-.14c-0.92,0-1.47.48-1.5,1.78a4.5,4.5,0,0,1,1.37-.3c1.16,0,1.7.48,1.7,1.41a1.48,1.48,0,0,1-1.75,1.54c-1.28,0-1.82-.79-1.82-2.42s0.79-2.33,2-2.33a6.69,6.69,0,0,1,1.33.15Zm-2.79,2.16c0,1.16.39,1.79,1.33,1.79a1.08,1.08,0,0,0,1.26-1.21,1,1,0,0,0-1.22-1.07,4.8,4.8,0,0,0-1.37.31v0.18Z" transform="translate(0 0)"/><path class="cls-4" d="M230.89,61a6.54,6.54,0,0,0,1.29.14c0.92,0,1.47-.48,1.5-1.78a4.48,4.48,0,0,1-1.37.3c-1.16,0-1.7-.48-1.7-1.41a1.48,1.48,0,0,1,1.75-1.54c1.28,0,1.82.79,1.82,2.42s-0.79,2.33-2,2.33a6.72,6.72,0,0,1-1.33-.15Zm2.79-2.16c0-1.16-.39-1.79-1.33-1.79a1.08,1.08,0,0,0-1.26,1.21,1,1,0,0,0,1.22,1.07,4.8,4.8,0,0,0,1.37-.31V58.81Z" transform="translate(0 0)"/><path class="cls-4" d="M237.52,56.86a8.52,8.52,0,0,1,1.64-.18c1.17,0,1.62.39,1.62,1.18a1.12,1.12,0,0,1-.81,1,1.08,1.08,0,0,1,1,1.18c0,0.91-.56,1.36-1.7,1.36a9.94,9.94,0,0,1-1.78-.17l0.07-.33a9.24,9.24,0,0,0,1.71.18,1,1,0,1,0,.06-2h-1.13V58.76h1.12a1,1,0,0,0,1-.91c0-.6-0.29-0.84-1.13-0.84a8.15,8.15,0,0,0-1.58.18Z" transform="translate(0 0)"/><path class="cls-4" d="M241.73,56.86a8.52,8.52,0,0,1,1.64-.18c1.17,0,1.62.39,1.62,1.18a1.12,1.12,0,0,1-.81,1,1.08,1.08,0,0,1,1,1.18c0,0.91-.56,1.36-1.7,1.36a9.94,9.94,0,0,1-1.78-.17l0.07-.33a9.24,9.24,0,0,0,1.71.18,1,1,0,1,0,.06-2h-1.13V58.76h1.12a1,1,0,0,0,1-.91c0-.6-0.29-0.84-1.13-0.84a8.15,8.15,0,0,0-1.58.18Z" transform="translate(0 0)"/><path class="cls-4" d="M247.18,56.75h0.41v4.62h-0.47V57.19l-1.27.76-0.13-.34Z" transform="translate(0 0)"/><path class="cls-4" d="M251.86,57.15a6.54,6.54,0,0,0-1.29-.14c-0.92,0-1.47.48-1.5,1.78a4.5,4.5,0,0,1,1.37-.3c1.16,0,1.7.48,1.7,1.41a1.48,1.48,0,0,1-1.75,1.54c-1.28,0-1.82-.79-1.82-2.42s0.79-2.33,2-2.33a6.69,6.69,0,0,1,1.33.15Zm-2.79,2.16c0,1.16.39,1.79,1.33,1.79a1.08,1.08,0,0,0,1.26-1.21,1,1,0,0,0-1.22-1.07,4.8,4.8,0,0,0-1.37.31v0.18Z" transform="translate(0 0)"/><path class="cls-4" d="M252.86,60.72h0.5v0.65h-0.5V60.72Z" transform="translate(0 0)"/><path class="cls-4" d="M254.37,56.77a10.48,10.48,0,0,1,1.34-.07c1.2,0,1.69.48,1.73,0.94a1.3,1.3,0,0,1-1,1.32,15.6,15.6,0,0,0-1.55.93,0.89,0.89,0,0,0-.32.67V61h2.9v0.34h-3.38V60.52a1.12,1.12,0,0,1,.49-0.92c0.22-.15.83-0.5,1.58-0.94,0.59-.33.79-0.48,0.75-1,0-.32-0.37-0.63-1.25-0.63a9.62,9.62,0,0,0-1.28.07Z" transform="translate(0 0)"/><path class="cls-4" d="M258.61,56.77a10.49,10.49,0,0,1,1.34-.07c1.2,0,1.69.48,1.73,0.94a1.3,1.3,0,0,1-1,1.32,15.36,15.36,0,0,0-1.55.93,0.89,0.89,0,0,0-.32.67V61h2.9v0.34h-3.38V60.52a1.12,1.12,0,0,1,.49-0.92c0.22-.15.83-0.5,1.58-0.94,0.59-.33.79-0.48,0.75-1,0-.32-0.37-0.63-1.25-0.63a9.63,9.63,0,0,0-1.28.07Z" transform="translate(0 0)"/><path class="cls-4" d="M266.4,59.17c0,1.78-.69,2.26-1.84,2.26s-1.85-.49-1.85-2.28c0-2,.67-2.48,1.84-2.48S266.4,57.18,266.4,59.17Zm-3.2,0c0,1.58.49,1.93,1.36,1.93s1.35-.35,1.35-1.95S265.48,57,264.55,57,263.2,57.41,263.2,59.17Z" transform="translate(0 0)"/><path class="cls-4" d="M269.19,56.68c1.22,0,1.85.5,1.85,2.49,0,1.78-.69,2.26-1.84,2.26s-1.85-.49-1.85-2.28c0-2,.67-2.48,1.84-2.48h0Zm0,0.33c-0.91,0-1.35.4-1.35,2.16,0,1.58.49,1.93,1.36,1.93s1.35-.35,1.35-1.95S270.12,57,269.19,57h0Z" transform="translate(0 0)"/><path class="cls-4" d="M274.46,56.42h0.44v5.45h-0.44V56.42Z" transform="translate(0 0)"/><path class="cls-4" d="M278.5,56.47h3.63V57h-2.77v1.7h2.31v0.57h-2.31v2.05H278.5v-4.9Z" transform="translate(0 0)"/><path class="cls-4" d="M282.53,57.91a13.85,13.85,0,0,1,1.46-.11A1.17,1.17,0,0,1,285.41,59v2.16a6,6,0,0,1-1.87.32,1.1,1.1,0,0,1-1.27-1.09c0-.6.39-1,1.33-1.07l1-.09V58.93a0.51,0.51,0,0,0-.56-0.61c-0.35,0-.74,0-1.37.1Zm2,1.78-0.87.07a0.5,0.5,0,0,0-.54.58,0.51,0.51,0,0,0,.43.59,4.31,4.31,0,0,0,1-.14v-1.1Z" transform="translate(0 0)"/><path class="cls-4" d="M286,57.87h3.44v0.38l-2.35,2.62h2.35v0.5H286V61l2.35-2.62H286v-0.5Z" transform="translate(0 0)"/><path class="cls-4" d="M290,60.55h0.89v0.82H290V60.55Z" transform="translate(0 0)"/><path class="cls-4" d="M295.71,56.47v0.22c0,1.34,0,2.29,0,3.67s-0.68,1.34-1.46,1.34H293.8V61.1c1,0,1.06,0,1.06-.82V56.47h0.86Z" transform="translate(0 0)"/><path class="cls-4" d="M301.1,56.47l-1.93,2.46,2.07,2.44h-1l-1.73-2.1h-0.6v2.1H297v-4.9h0.86V58.6h0.59l1.63-2.13h1Z" transform="translate(0 0)"/><path class="cls-4" d="M301.65,58.29h0.89v0.82h-0.89V58.29Zm0,2.26h0.89v0.82h-0.89V60.55Z" transform="translate(0 0)"/><path class="cls-4" d="M309.09,57.15a6.54,6.54,0,0,0-1.29-.14c-0.92,0-1.47.48-1.5,1.78a4.5,4.5,0,0,1,1.37-.3c1.16,0,1.7.48,1.7,1.41a1.48,1.48,0,0,1-1.75,1.54c-1.28,0-1.82-.79-1.82-2.42s0.79-2.33,2-2.33a6.69,6.69,0,0,1,1.33.15Zm-2.79,2.16c0,1.16.39,1.79,1.33,1.79a1.08,1.08,0,0,0,1.26-1.21,1,1,0,0,0-1.22-1.07,4.8,4.8,0,0,0-1.37.31v0.18Z" transform="translate(0 0)"/><path class="cls-4" d="M310.32,61a6.54,6.54,0,0,0,1.29.14c0.92,0,1.47-.48,1.5-1.78a4.48,4.48,0,0,1-1.37.3c-1.16,0-1.7-.48-1.7-1.41a1.48,1.48,0,0,1,1.75-1.54c1.28,0,1.82.79,1.82,2.42s-0.79,2.33-2,2.33a6.72,6.72,0,0,1-1.33-.15Zm2.79-2.16c0-1.16-.39-1.79-1.33-1.79a1.08,1.08,0,0,0-1.26,1.21,1,1,0,0,0,1.22,1.07,4.8,4.8,0,0,0,1.37-.31V58.81Z" transform="translate(0 0)"/><path class="cls-4" d="M317,56.86a8.52,8.52,0,0,1,1.64-.18c1.17,0,1.62.39,1.62,1.18a1.12,1.12,0,0,1-.81,1,1.08,1.08,0,0,1,1,1.18c0,0.91-.56,1.36-1.7,1.36a9.94,9.94,0,0,1-1.78-.17l0.07-.33a9.24,9.24,0,0,0,1.71.18,1,1,0,1,0,.06-2h-1.13V58.76h1.12a1,1,0,0,0,1-.91c0-.6-0.29-0.84-1.13-0.84a8.15,8.15,0,0,0-1.58.18Z" transform="translate(0 0)"/><path class="cls-4" d="M321.16,56.86a8.52,8.52,0,0,1,1.64-.18c1.17,0,1.62.39,1.62,1.18a1.12,1.12,0,0,1-.81,1,1.08,1.08,0,0,1,1,1.18c0,0.91-.56,1.36-1.7,1.36a9.94,9.94,0,0,1-1.78-.17l0.07-.33a9.24,9.24,0,0,0,1.71.18,1,1,0,1,0,.06-2H321.8V58.76h1.12a1,1,0,0,0,1-.91c0-.6-0.29-0.84-1.13-0.84a8.15,8.15,0,0,0-1.58.18Z" transform="translate(0 0)"/><path class="cls-4" d="M326.62,56.75H327v4.62h-0.47V57.19l-1.27.76-0.13-.34Z" transform="translate(0 0)"/><path class="cls-4" d="M331.3,57.15A6.54,6.54,0,0,0,330,57c-0.92,0-1.47.48-1.5,1.78a4.5,4.5,0,0,1,1.37-.3c1.16,0,1.7.48,1.7,1.41a1.48,1.48,0,0,1-1.75,1.54c-1.28,0-1.82-.79-1.82-2.42s0.79-2.33,2-2.33a6.69,6.69,0,0,1,1.33.15Zm-2.79,2.16c0,1.16.39,1.79,1.33,1.79a1.08,1.08,0,0,0,1.26-1.21,1,1,0,0,0-1.22-1.07,4.8,4.8,0,0,0-1.37.31v0.18Z" transform="translate(0 0)"/><path class="cls-4" d="M335.08,56.77a10.48,10.48,0,0,1,1.34-.07c1.2,0,1.69.48,1.73,0.94a1.3,1.3,0,0,1-1,1.32,15.6,15.6,0,0,0-1.55.93,0.89,0.89,0,0,0-.32.67V61h2.9v0.34h-3.38V60.52a1.12,1.12,0,0,1,.49-0.92c0.22-.15.83-0.5,1.58-0.94,0.59-.33.79-0.48,0.75-1,0-.32-0.37-0.63-1.25-0.63a9.62,9.62,0,0,0-1.28.07Z" transform="translate(0 0)"/><path class="cls-4" d="M339.32,56.77a10.49,10.49,0,0,1,1.34-.07c1.2,0,1.69.48,1.73,0.94a1.3,1.3,0,0,1-1,1.32,15.36,15.36,0,0,0-1.55.93,0.89,0.89,0,0,0-.32.67V61h2.9v0.34h-3.38V60.52a1.12,1.12,0,0,1,.49-0.92c0.22-.15.83-0.5,1.58-0.94,0.59-.33.79-0.48,0.75-1,0-.32-0.37-0.63-1.25-0.63a9.63,9.63,0,0,0-1.28.07Z" transform="translate(0 0)"/><path class="cls-4" d="M343.56,56.77a10.48,10.48,0,0,1,1.34-.07c1.2,0,1.69.48,1.73,0.94a1.3,1.3,0,0,1-1,1.32,15.6,15.6,0,0,0-1.55.93,0.89,0.89,0,0,0-.32.67V61h2.9v0.34h-3.38V60.52a1.12,1.12,0,0,1,.49-0.92c0.22-.15.83-0.5,1.58-0.94,0.59-.33.79-0.48,0.75-1,0-.32-0.37-0.63-1.25-0.63a9.62,9.62,0,0,0-1.28.07Z" transform="translate(0 0)"/><path class="cls-4" d="M348.76,56.75h0.41v4.62H348.7V57.19l-1.27.76-0.13-.34Z" transform="translate(0 0)"/><path class="cls-4" d="M352.72,56.42h0.44v5.45h-0.44V56.42Z" transform="translate(0 0)"/><path class="cls-4" d="M356.76,56.47h3.63V57h-2.77v1.7h2.31v0.57h-2.31v2.05h-0.86v-4.9Z" transform="translate(0 0)"/><path class="cls-4" d="M360.79,57.91a13.85,13.85,0,0,1,1.46-.11A1.17,1.17,0,0,1,363.67,59v2.16a6,6,0,0,1-1.87.32,1.1,1.1,0,0,1-1.27-1.09c0-.6.39-1,1.33-1.07l1-.09V58.93a0.51,0.51,0,0,0-.56-0.61c-0.35,0-.74,0-1.37.1Zm2,1.78-0.87.07a0.5,0.5,0,0,0-.54.58,0.51,0.51,0,0,0,.43.59,4.31,4.31,0,0,0,1-.14v-1.1Z" transform="translate(0 0)"/><path class="cls-4" d="M364.26,57.87h3.44v0.38l-2.35,2.62h2.35v0.5h-3.44V61l2.35-2.62h-2.35v-0.5Z" transform="translate(0 0)"/><path class="cls-4" d="M368.26,60.55h0.89v0.82h-0.89V60.55Z" transform="translate(0 0)"/><path class="cls-4" d="M372.49,60.72a11.09,11.09,0,0,0,1.42.13h0.16c0.59,0,.92-0.11.93-0.56a0.71,0.71,0,0,0-.25-0.54,10.19,10.19,0,0,0-1.24-.77,1.52,1.52,0,0,1-1-1.36s0-.09,0-0.14c0-.51.58-1.06,1.87-1.06a9.46,9.46,0,0,1,1.52.11l-0.12.57a9.2,9.2,0,0,0-1.41-.09c-0.74,0-1,.24-1,0.49,0,0,0,.05,0,0.08a0.89,0.89,0,0,0,.66.75c0.55,0.32,1.13.67,1.33,0.81a1.23,1.23,0,0,1,.51,1.13c-0.05,1-1,1.15-1.74,1.17h-0.22a10.3,10.3,0,0,1-1.5-.13Z" transform="translate(0 0)"/><path class="cls-4" d="M376.76,57.91a13.85,13.85,0,0,1,1.46-.11A1.17,1.17,0,0,1,379.65,59v2.16a6,6,0,0,1-1.87.32,1.1,1.1,0,0,1-1.27-1.09c0-.6.39-1,1.33-1.07l1-.09V58.93a0.51,0.51,0,0,0-.56-0.61c-0.35,0-.74,0-1.37.1Zm2,1.78-0.87.07a0.5,0.5,0,0,0-.54.58,0.51,0.51,0,0,0,.43.59,4.31,4.31,0,0,0,1-.14v-1.1Z" transform="translate(0 0)"/><path class="cls-4" d="M383.63,61.11a4.41,4.41,0,0,1-1.55.33,1.49,1.49,0,0,1-1.71-1.74V57.87h0.87V59.7c0,0.91.22,1.25,0.84,1.25a2.76,2.76,0,0,0,.7-0.13V57.87h0.86v3.23Z" transform="translate(0 0)"/><path class="cls-4" d="M386.69,56.47h0.87v4.89c-0.52,0-.84.06-1.23,0.06-1.66,0-2.05-.65-2.05-1.89s0.31-1.75,1.6-1.75a3.19,3.19,0,0,1,.81.12V56.47Zm0,2a3,3,0,0,0-.81-0.13c-0.59,0-.73.33-0.73,1.26s0.14,1.34,1,1.36h0.5V58.42Z" transform="translate(0 0)"/><path class="cls-4" d="M388.5,57.91a13.85,13.85,0,0,1,1.46-.11A1.17,1.17,0,0,1,391.39,59v2.16a6,6,0,0,1-1.87.32,1.1,1.1,0,0,1-1.27-1.09c0-.6.39-1,1.33-1.07l1-.09V58.93a0.51,0.51,0,0,0-.56-0.61c-0.35,0-.74,0-1.37.1Zm2,1.78-0.87.07a0.5,0.5,0,0,0-.54.58,0.51,0.51,0,0,0,.43.59,4.32,4.32,0,0,0,1-.14v-1.1Z" transform="translate(0 0)"/><path class="cls-4" d="M394.44,56.47h0.87v4.89c-0.52,0-.84.06-1.23,0.06-1.66,0-2.05-.65-2.05-1.89s0.31-1.75,1.6-1.75a3.19,3.19,0,0,1,.81.12V56.47Zm0,2a3,3,0,0,0-.81-0.13c-0.59,0-.73.33-0.73,1.26s0.14,1.34,1,1.36h0.5V58.42Z" transform="translate(0 0)"/><path class="cls-4" d="M399.3,61.21a8.48,8.48,0,0,1-1.57.22,1.82,1.82,0,0,1,0-3.63,1.5,1.5,0,0,1,1.73,1.69v0.36h-2.55c0,0.73.24,1.08,0.87,1.08a9.76,9.76,0,0,0,1.47-.22Zm-0.76-1.86c0-.79-0.27-1.05-0.85-1.05s-0.8.26-.82,1.05h1.67Z" transform="translate(0 0)"/><path class="cls-4" d="M400,60.81a7.67,7.67,0,0,0,1,.11h0.13c0.29,0,.51-0.07.51-0.41a0.42,0.42,0,0,0-.16-0.36c-0.12-.1-0.49-0.34-0.78-0.53a1.07,1.07,0,0,1-.71-1s0-.06,0-0.1a1.12,1.12,0,0,1,1.32-.78,7,7,0,0,1,1.17.09l-0.09.5a6.57,6.57,0,0,0-.91-0.11h-0.16a0.39,0.39,0,0,0-.47.33s0,0,0,.07a0.55,0.55,0,0,0,.34.51c0.4,0.25.79,0.52,0.88,0.6a0.87,0.87,0,0,1,.42.72c0,0.78-.85.87-1.33,0.89H401a7.94,7.94,0,0,1-1.1-.1Z" transform="translate(0 0)"/><path class="cls-4" d="M403.1,58.29H404v0.82H403.1V58.29Zm0,2.26H404v0.82H403.1V60.55Z" transform="translate(0 0)"/><path class="cls-4" d="M410.55,57.15a6.54,6.54,0,0,0-1.29-.14c-0.92,0-1.48.48-1.5,1.78a4.5,4.5,0,0,1,1.37-.3c1.16,0,1.7.48,1.7,1.41a1.48,1.48,0,0,1-1.75,1.54c-1.28,0-1.82-.79-1.82-2.42s0.79-2.33,2-2.33a6.69,6.69,0,0,1,1.33.15Zm-2.79,2.16c0,1.16.39,1.79,1.33,1.79a1.08,1.08,0,0,0,1.26-1.21,1,1,0,0,0-1.22-1.07,4.8,4.8,0,0,0-1.37.31v0.18Z" transform="translate(0 0)"/><path class="cls-4" d="M414.68,56.75l-0.12.34h-2.5l-0.12,1.57a5.25,5.25,0,0,1,1.27-.21c1,0,1.7.36,1.7,1.37a1.53,1.53,0,0,1-1.78,1.61,10.21,10.21,0,0,1-1.72-.18l0.07-.33a9.64,9.64,0,0,0,1.64.18,1.18,1.18,0,0,0,1.3-1.27,1,1,0,0,0-1.22-1A4.87,4.87,0,0,0,412,59l-0.55.08,0.15-2.33h3.07Z" transform="translate(0 0)"/><path class="cls-4" d="M418.18,56.86a8.55,8.55,0,0,1,1.64-.18c1.17,0,1.62.39,1.62,1.18a1.13,1.13,0,0,1-.81,1,1.08,1.08,0,0,1,1,1.18c0,0.91-.56,1.36-1.7,1.36a9.93,9.93,0,0,1-1.78-.17l0.07-.33a9.22,9.22,0,0,0,1.71.18,1,1,0,1,0,.06-2h-1.13V58.76h1.12a1,1,0,0,0,1-.91c0-.6-0.29-0.84-1.13-0.84a8.18,8.18,0,0,0-1.58.18Z" transform="translate(0 0)"/><path class="cls-4" d="M422.67,56.77a10.49,10.49,0,0,1,1.34-.07c1.2,0,1.69.48,1.73,0.94a1.3,1.3,0,0,1-1,1.32,15.48,15.48,0,0,0-1.55.93,0.89,0.89,0,0,0-.32.67V61h2.9v0.34h-3.38V60.52a1.12,1.12,0,0,1,.49-0.92c0.22-.15.82-0.5,1.58-0.94a1,1,0,0,0,.75-1c0-.32-0.37-0.63-1.25-0.63a9.61,9.61,0,0,0-1.28.07Z" transform="translate(0 0)"/><path class="cls-4" d="M430.48,57.85a1,1,0,0,1-.74,1,1.14,1.14,0,0,1,.93,1.2c0,1.06-.79,1.34-1.95,1.34s-1.95-.28-1.95-1.34a1.13,1.13,0,0,1,.89-1.19,1,1,0,0,1-.76-1.05c0-.81.53-1.17,1.77-1.17S430.48,57,430.48,57.85Zm-3.21,2.25c0,0.8.5,1,1.46,1s1.46-.2,1.46-1-0.5-1-1.46-1S427.26,59.3,427.26,60.1ZM428.68,57c-1,0-1.28.2-1.28,0.85s0.3,0.9,1.32.9,1.26-.25,1.26-0.9-0.33-.85-1.3-0.85h0Z" transform="translate(0 0)"/><path class="cls-4" d="M431.47,56.86a8.55,8.55,0,0,1,1.64-.18c1.17,0,1.62.39,1.62,1.18a1.13,1.13,0,0,1-.81,1,1.08,1.08,0,0,1,1,1.18c0,0.91-.56,1.36-1.7,1.36a9.93,9.93,0,0,1-1.78-.17l0.07-.33a9.22,9.22,0,0,0,1.71.18,1,1,0,1,0,.06-2h-1.13V58.76h1.12a1,1,0,0,0,1-.91c0-.6-0.29-0.84-1.13-0.84a8.18,8.18,0,0,0-1.58.18Z" transform="translate(0 0)"/><path class="cls-4" d="M438.23,56.86a8.55,8.55,0,0,1,1.64-.18c1.17,0,1.62.39,1.62,1.18a1.13,1.13,0,0,1-.81,1,1.08,1.08,0,0,1,1,1.18c0,0.91-.56,1.36-1.7,1.36a9.93,9.93,0,0,1-1.78-.17l0.07-.33a9.22,9.22,0,0,0,1.71.18,1,1,0,1,0,.06-2h-1.13V58.76H440a1,1,0,0,0,1-.91c0-.6-0.29-0.84-1.13-0.84a8.18,8.18,0,0,0-1.58.18Z" transform="translate(0 0)"/><path class="cls-4" d="M442.73,56.77a10.49,10.49,0,0,1,1.34-.07c1.2,0,1.69.48,1.73,0.94a1.3,1.3,0,0,1-1,1.32,15.48,15.48,0,0,0-1.55.93,0.89,0.89,0,0,0-.32.67V61h2.9v0.34H442.5V60.52A1.12,1.12,0,0,1,443,59.6c0.22-.15.82-0.5,1.58-0.94a1,1,0,0,0,.75-1c0-.32-0.37-0.63-1.25-0.63a9.61,9.61,0,0,0-1.28.07Z" transform="translate(0 0)"/><path class="cls-4" d="M449.36,60.47h-2.62V60.21l1.69-3.46h0.5l-1.63,3.39h2.06V58.91h0.46v1.23h0.71v0.33h-0.71v0.9h-0.46v-0.9Z" transform="translate(0 0)"/><path class="cls-4" d="M455,59.17c0,1.78-.69,2.26-1.84,2.26s-1.85-.49-1.85-2.28c0-2,.67-2.48,1.84-2.48S455,57.18,455,59.17Zm-3.2,0c0,1.58.49,1.93,1.36,1.93s1.35-.35,1.35-1.95S454.07,57,453.14,57,451.79,57.41,451.79,59.17Z" transform="translate(0 0)"/><path class="cls-4" d="M461,56.42h0.44v5.45H461V56.42Z" transform="translate(0 0)"/><path class="cls-4" d="M465,56.47h3.63V57h-2.77v1.7h2.31v0.57h-2.31v2.05H465v-4.9Z" transform="translate(0 0)"/><path class="cls-4" d="M469,57.91a13.81,13.81,0,0,1,1.46-.11A1.17,1.17,0,0,1,471.91,59v2.16a6,6,0,0,1-1.87.32,1.1,1.1,0,0,1-1.27-1.09c0-.6.39-1,1.33-1.07l1-.09V58.93a0.51,0.51,0,0,0-.56-0.61c-0.35,0-.74,0-1.37.1Zm2,1.78-0.87.07a0.5,0.5,0,0,0-.54.58,0.51,0.51,0,0,0,.43.59,4.32,4.32,0,0,0,1-.14v-1.1Z" transform="translate(0 0)"/><path class="cls-4" d="M472.5,57.87h3.44v0.38l-2.35,2.62h2.35v0.5H472.5V61l2.35-2.62H472.5v-0.5Z" transform="translate(0 0)"/><path class="cls-4" d="M476.5,60.55h0.89v0.82H476.5V60.55Z" transform="translate(0 0)"/><path class="cls-4" d="M482.21,56.47v0.22c0,1.34,0,2.29,0,3.67s-0.68,1.34-1.46,1.34h-0.47V61.1c1,0,1.06,0,1.06-.82V56.47h0.86Z" transform="translate(0 0)"/><path class="cls-4" d="M483.14,57.91a13.81,13.81,0,0,1,1.46-.11A1.17,1.17,0,0,1,486,59v2.16a6,6,0,0,1-1.87.32,1.1,1.1,0,0,1-1.27-1.09c0-.6.39-1,1.33-1.07l1-.09V58.93a0.51,0.51,0,0,0-.56-0.61c-0.35,0-.74,0-1.37.1Zm2,1.78-0.87.07a0.5,0.5,0,0,0-.54.58,0.51,0.51,0,0,0,.43.59,4.32,4.32,0,0,0,1-.14v-1.1Z" transform="translate(0 0)"/><path class="cls-4" d="M489.08,62.66V61.31a3.15,3.15,0,0,1-.81.12c-1.29,0-1.6-.6-1.6-1.74s0.39-1.89,2.05-1.89c0.39,0,.71,0,1.21.06v4.79h-0.85Zm0-4.34h-0.5c-0.89,0-1,.44-1,1.36s0.14,1.26.73,1.26a3,3,0,0,0,.81-0.13V58.32Z" transform="translate(0 0)"/><path class="cls-4" d="M494,61.11a4.41,4.41,0,0,1-1.55.33,1.49,1.49,0,0,1-1.72-1.74V57.87h0.87V59.7c0,0.91.22,1.25,0.84,1.25a2.76,2.76,0,0,0,.7-0.13V57.87H494v3.23Z" transform="translate(0 0)"/><path class="cls-4" d="M497.93,61.21a8.49,8.49,0,0,1-1.57.22,1.82,1.82,0,0,1,0-3.63A1.5,1.5,0,0,1,498,59.5v0.36H495.5c0,0.73.24,1.08,0.87,1.08a9.72,9.72,0,0,0,1.47-.22Zm-0.76-1.86c0-.79-0.27-1.05-0.85-1.05s-0.8.26-.82,1.05h1.67Z" transform="translate(0 0)"/><path class="cls-4" d="M498.72,56.47h0.86v4.9h-0.86v-4.9Z" transform="translate(0 0)"/><path class="cls-4" d="M500.37,56.57h0.86v0.65h-0.86V56.57Zm0,1.3h0.86v3.5h-0.86v-3.5Z" transform="translate(0 0)"/><path class="cls-4" d="M502,58.14a4.47,4.47,0,0,1,1.66-.34,1.49,1.49,0,0,1,1.72,1.75v1.82h-0.87V59.55c0-.91-0.22-1.25-0.84-1.25a3,3,0,0,0-.81.13v2.94H502V58.14Z" transform="translate(0 0)"/><path class="cls-4" d="M509.37,61.21a8.49,8.49,0,0,1-1.57.22,1.82,1.82,0,0,1,0-3.63,1.5,1.5,0,0,1,1.73,1.69v0.36h-2.55c0,0.73.24,1.08,0.87,1.08a9.72,9.72,0,0,0,1.47-.22Zm-0.76-1.86c0-.79-0.27-1.05-0.85-1.05s-0.8.26-.82,1.05h1.67Z" transform="translate(0 0)"/><path class="cls-4" d="M510,58.29h0.89v0.82H510V58.29Zm0,2.26h0.89v0.82H510V60.55Z" transform="translate(0 0)"/><path class="cls-4" d="M517.49,57.15A6.54,6.54,0,0,0,516.2,57c-0.92,0-1.48.48-1.5,1.78a4.5,4.5,0,0,1,1.37-.3c1.16,0,1.7.48,1.7,1.41A1.48,1.48,0,0,1,516,61.44c-1.28,0-1.82-.79-1.82-2.42s0.79-2.33,2-2.33a6.69,6.69,0,0,1,1.33.15Zm-2.79,2.16c0,1.16.39,1.79,1.33,1.79a1.08,1.08,0,0,0,1.26-1.21,1,1,0,0,0-1.22-1.07,4.8,4.8,0,0,0-1.37.31v0.18Z" transform="translate(0 0)"/><path class="cls-4" d="M518.72,61a6.56,6.56,0,0,0,1.29.14c0.92,0,1.48-.48,1.5-1.78a4.49,4.49,0,0,1-1.37.3c-1.16,0-1.7-.48-1.7-1.41a1.48,1.48,0,0,1,1.75-1.54c1.28,0,1.82.79,1.82,2.42s-0.79,2.33-2,2.33a6.72,6.72,0,0,1-1.33-.15Zm2.79-2.16c0-1.16-.39-1.79-1.33-1.79a1.08,1.08,0,0,0-1.26,1.21,1,1,0,0,0,1.22,1.07,4.82,4.82,0,0,0,1.37-.31V58.81Z" transform="translate(0 0)"/><path class="cls-4" d="M525.35,56.86a8.55,8.55,0,0,1,1.64-.18c1.17,0,1.62.39,1.62,1.18a1.13,1.13,0,0,1-.81,1,1.08,1.08,0,0,1,1,1.18c0,0.91-.56,1.36-1.7,1.36a9.93,9.93,0,0,1-1.78-.17l0.07-.33a9.22,9.22,0,0,0,1.71.18,1,1,0,1,0,.06-2H526V58.76h1.12a1,1,0,0,0,1-.91c0-.6-0.29-0.84-1.13-0.84a8.18,8.18,0,0,0-1.58.18Z" transform="translate(0 0)"/><path class="cls-4" d="M529.55,56.86a8.55,8.55,0,0,1,1.64-.18c1.17,0,1.62.39,1.62,1.18a1.13,1.13,0,0,1-.81,1,1.08,1.08,0,0,1,1,1.18c0,0.91-.56,1.36-1.7,1.36a9.93,9.93,0,0,1-1.78-.17l0.07-.33a9.22,9.22,0,0,0,1.71.18,1,1,0,1,0,.06-2h-1.13V58.76h1.12a1,1,0,0,0,1-.91c0-.6-0.29-0.84-1.13-0.84a8.18,8.18,0,0,0-1.58.18Z" transform="translate(0 0)"/><path class="cls-4" d="M535,56.75h0.41v4.62h-0.47V57.19l-1.27.76-0.13-.34Z" transform="translate(0 0)"/><path class="cls-4" d="M539.69,57.15A6.54,6.54,0,0,0,538.4,57c-0.92,0-1.48.48-1.5,1.78a4.5,4.5,0,0,1,1.37-.3c1.16,0,1.7.48,1.7,1.41a1.48,1.48,0,0,1-1.75,1.54c-1.28,0-1.82-.79-1.82-2.42s0.79-2.33,2-2.33a6.69,6.69,0,0,1,1.33.15Zm-2.79,2.16c0,1.16.39,1.79,1.33,1.79a1.08,1.08,0,0,0,1.26-1.21,1,1,0,0,0-1.22-1.07,4.8,4.8,0,0,0-1.37.31v0.18Z" transform="translate(0 0)"/><path class="cls-4" d="M540.69,60.72h0.5v0.65h-0.5V60.72Z" transform="translate(0 0)"/><path class="cls-4" d="M544.75,56.77a10.49,10.49,0,0,1,1.34-.07c1.2,0,1.69.48,1.73,0.94a1.3,1.3,0,0,1-1,1.32,15.48,15.48,0,0,0-1.55.93,0.89,0.89,0,0,0-.32.67V61h2.9v0.34h-3.38V60.52A1.12,1.12,0,0,1,545,59.6c0.22-.15.82-0.5,1.58-0.94a1,1,0,0,0,.75-1c0-.32-0.37-0.63-1.25-0.63a9.61,9.61,0,0,0-1.28.07Z" transform="translate(0 0)"/><path class="cls-4" d="M549,56.77a10.49,10.49,0,0,1,1.34-.07c1.2,0,1.69.48,1.73,0.94a1.3,1.3,0,0,1-1,1.32,15.48,15.48,0,0,0-1.55.93,0.89,0.89,0,0,0-.32.67V61h2.9v0.34h-3.38V60.52a1.12,1.12,0,0,1,.49-0.92c0.22-.15.82-0.5,1.58-0.94a1,1,0,0,0,.75-1c0-.32-0.37-0.63-1.25-0.63a9.61,9.61,0,0,0-1.28.07Z" transform="translate(0 0)"/><path class="cls-4" d="M552.95,56.86a8.55,8.55,0,0,1,1.64-.18c1.17,0,1.62.39,1.62,1.18a1.13,1.13,0,0,1-.81,1,1.08,1.08,0,0,1,1,1.18c0,0.91-.56,1.36-1.7,1.36a9.93,9.93,0,0,1-1.78-.17l0.07-.33a9.22,9.22,0,0,0,1.71.18,1,1,0,1,0,.06-2h-1.13V58.76h1.12a1,1,0,0,0,1-.91c0-.6-0.29-0.84-1.13-0.84a8.18,8.18,0,0,0-1.58.18Z" transform="translate(0 0)"/><path class="cls-4" d="M560.35,56.75l-0.12.34h-2.5l-0.12,1.57a5.25,5.25,0,0,1,1.27-.21c1,0,1.7.36,1.7,1.37a1.53,1.53,0,0,1-1.78,1.61,10.21,10.21,0,0,1-1.72-.18l0.07-.33a9.64,9.64,0,0,0,1.64.18,1.18,1.18,0,0,0,1.3-1.27,1,1,0,0,0-1.22-1,4.87,4.87,0,0,0-1.19.21l-0.55.08,0.15-2.33h3.07Z" transform="translate(0 0)"/><path class="cls-4" d="M182,64.87l1.7,4.9h-0.48l-0.51-1.43h-2.4l-0.5,1.43h-0.48l1.7-4.9h1Zm-0.35.35h-0.28L180.43,68h2.15Z" transform="translate(0 0)"/><path class="cls-4" d="M184,66.27l1.05,3.06h0.1l1.06-3.06h0.48l-1.25,3.5h-0.7l-1.24-3.5H184Z" transform="translate(0 0)"/><path class="cls-4" d="M187.19,69.12h0.5v0.65h-0.5V69.12Z" transform="translate(0 0)"/><path class="cls-4" d="M196.48,64.87v4.9H196V65.45h-0.07l-1.79,4.18h-0.53l-1.76-4.18h-0.07v4.32h-0.47v-4.9h0.76l1.82,4.27,1.83-4.27h0.75Z" transform="translate(0 0)"/><path class="cls-4" d="M197.6,66.3a12.05,12.05,0,0,1,1.26-.09,1,1,0,0,1,1.22,1.11v2.22a5.24,5.24,0,0,1-1.68.29,1,1,0,0,1-1.08-1,1,1,0,0,1,1.15-1l1.14-.11V67.31a0.66,0.66,0,0,0-.76-0.77c-0.34,0-.78,0-1.2.08Zm2,1.68-1.09.09a0.66,0.66,0,0,0-.72.72,0.63,0.63,0,0,0,.61.73,4.74,4.74,0,0,0,1.2-.18V68Z" transform="translate(0 0)"/><path class="cls-4" d="M201.57,66.27v3.54c0,1-.37,1.17-0.9,1.17a2.07,2.07,0,0,1-.63-0.11l0.07-.29,0.27,0.06,0.23,0h0c0.34,0,.47-0.11.47-0.86V66.27h0.47Zm0-1.37v0.47h-0.47V64.9h0.47Z" transform="translate(0 0)"/><path class="cls-4" d="M205.61,68c0,1.29-.32,1.88-1.56,1.88s-1.59-.51-1.59-1.89,0.5-1.74,1.59-1.74S205.61,66.7,205.61,68Zm-0.47,0c0-1.06-.41-1.44-1.1-1.44s-1.13.3-1.13,1.42,0.18,1.57,1.13,1.57S205.14,69,205.14,68Z" transform="translate(0 0)"/><path class="cls-4" d="M206.49,66.51a3.85,3.85,0,0,1,1.47-.3,2.66,2.66,0,0,1,.38,0l-0.06.32-0.32,0a3.4,3.4,0,0,0-1,.17v3.08h-0.46V66.51Z" transform="translate(0 0)"/><path class="cls-4" d="M213.78,64.87l1.7,4.9H215l-0.51-1.43h-2.4l-0.5,1.43H211.1l1.7-4.9h1Zm-0.35.35h-0.28L212.21,68h2.15Z" transform="translate(0 0)"/><path class="cls-4" d="M216.07,66.51a3.76,3.76,0,0,1,1.47-.3,1.39,1.39,0,0,1,1,.29,3.58,3.58,0,0,1,1.42-.29c1.13,0,1.41.55,1.41,1.74v1.83h-0.48V67.94c0-1-.16-1.42-0.93-1.42a3.21,3.21,0,0,0-1.19.24,2.55,2.55,0,0,1,.2,1.19v1.83h-0.48V67.94c0-1-.16-1.42-0.93-1.42a3.42,3.42,0,0,0-1,.17v3.08h-0.46V66.51Z" transform="translate(0 0)"/><path class="cls-4" d="M222.43,66.3a12,12,0,0,1,1.26-.09,1,1,0,0,1,1.22,1.11v2.22a5.23,5.23,0,0,1-1.68.29,1,1,0,0,1-1.08-1,1,1,0,0,1,1.15-1l1.14-.11V67.31a0.66,0.66,0,0,0-.76-0.77c-0.34,0-.78,0-1.2.08Zm2,1.68-1.09.09a0.66,0.66,0,0,0-.72.72,0.63,0.63,0,0,0,.61.73,4.76,4.76,0,0,0,1.2-.18V68Z" transform="translate(0 0)"/><path class="cls-4" d="M225.87,66.51a3.85,3.85,0,0,1,1.47-.3,2.66,2.66,0,0,1,.38,0l-0.06.32-0.32,0a3.4,3.4,0,0,0-1,.17v3.08h-0.46V66.51Z" transform="translate(0 0)"/><path class="cls-4" d="M228.48,66.3a12,12,0,0,1,1.26-.09A1,1,0,0,1,231,67.32v2.22a5.23,5.23,0,0,1-1.68.29,1,1,0,0,1-1.08-1,1,1,0,0,1,1.15-1l1.14-.11V67.31a0.66,0.66,0,0,0-.76-0.77c-0.34,0-.78,0-1.2.08Zm2,1.68-1.09.09a0.66,0.66,0,0,0-.72.72,0.63,0.63,0,0,0,.61.73,4.76,4.76,0,0,0,1.2-.18V68Z" transform="translate(0 0)"/><path class="cls-4" d="M231.92,66.51a3.85,3.85,0,0,1,1.47-.3c1.12,0,1.52.55,1.52,1.74v1.83h-0.48V67.95c0-1-.26-1.42-1-1.42a3.41,3.41,0,0,0-1,.17v3.08h-0.46V66.51Z" transform="translate(0 0)"/><path class="cls-4" d="M236.58,65.37v0.9h0.81v0.32h-0.81v2.07c0,0.69.06,0.86,0.35,0.86h0a1.64,1.64,0,0,0,.42-0.07l-0.06.32a2.32,2.32,0,0,1-.45.06c-0.65,0-.77-0.31-0.77-1.17V66.59h-0.73V66.28h0.73v-0.9h0.46Z" transform="translate(0 0)"/><path class="cls-4" d="M240.83,69.63a7,7,0,0,1-1.37.2c-1.23,0-1.55-.69-1.55-1.81,0-1.37.57-1.81,1.51-1.81A1.4,1.4,0,0,1,241,67.89v0.27H238.4c0,0.89.26,1.35,1.07,1.35a7.18,7.18,0,0,0,1.3-.2Zm-0.36-1.79c0-1-.32-1.33-1-1.33s-1,.35-1,1.33h2.07Z" transform="translate(0 0)"/><path class="cls-4" d="M242,69.13h0.51l-0.42,1.54h-0.43Z" transform="translate(0 0)"/><path class="cls-4" d="M248.45,68.87h-2.62V68.61l1.69-3.46H248l-1.63,3.39h2.06V67.31h0.46v1.23h0.71v0.33h-0.71v0.9h-0.46v-0.9Z" transform="translate(0 0)"/><path class="cls-4" d="M254.07,67.57c0,1.78-.69,2.26-1.84,2.26s-1.85-.49-1.85-2.28c0-2,.67-2.48,1.84-2.48S254.07,65.58,254.07,67.57Zm-3.2,0c0,1.58.49,1.93,1.36,1.93s1.35-.35,1.35-1.95-0.43-2.14-1.36-2.14S250.87,65.81,250.87,67.57Z" transform="translate(0 0)"/><path class="cls-4" d="M257.56,68.87h-2.62V68.61l1.69-3.46h0.5l-1.63,3.39h2.06V67.31H258v1.23h0.71v0.33H258v0.9h-0.46v-0.9Z" transform="translate(0 0)"/><path class="cls-4" d="M261.33,65.08c1.22,0,1.85.5,1.85,2.49,0,1.78-.69,2.26-1.84,2.26s-1.85-.49-1.85-2.28c0-2,.67-2.48,1.84-2.48h0Zm0,0.33c-0.91,0-1.35.4-1.35,2.16,0,1.58.49,1.93,1.36,1.93s1.35-.35,1.35-1.95-0.43-2.14-1.36-2.14h0Z" transform="translate(0 0)"/><path class="cls-4" d="M266.6,69.12h0.5v0.65h-0.5V69.12Z" transform="translate(0 0)"/><path class="cls-4" d="M273.57,65.15l-0.12.34H271l-0.12,1.57a5.25,5.25,0,0,1,1.27-.21c1,0,1.7.36,1.7,1.37A1.54,1.54,0,0,1,272,69.82a10.21,10.21,0,0,1-1.72-.18l0.07-.33a9.67,9.67,0,0,0,1.64.18,1.18,1.18,0,0,0,1.3-1.27,1,1,0,0,0-1.22-1,4.87,4.87,0,0,0-1.19.21l-0.55.08,0.15-2.33h3.07Z" transform="translate(0 0)"/><path class="cls-4" d="M276.07,66.08c0,0.68-.18,1-0.84,1s-0.85-.29-0.85-1a0.77,0.77,0,0,1,.85-0.94A0.79,0.79,0,0,1,276.07,66.08Zm-0.31,0c0-.54-0.19-0.71-0.53-0.71s-0.55.14-.55,0.71,0.08,0.79.55,0.79S275.76,66.64,275.76,66.08Z" transform="translate(0 0)"/><path class="cls-4" d="M281.58,64.87l1.7,4.9h-0.48l-0.51-1.43h-2.4l-0.5,1.43H278.9l1.7-4.9h1Zm-0.35.35h-0.28L280,68h2.15Z" transform="translate(0 0)"/><path class="cls-4" d="M283.88,66.51a3.85,3.85,0,0,1,1.47-.3c1.12,0,1.52.55,1.52,1.74v1.83h-0.48V67.95c0-1-.26-1.42-1-1.42a3.41,3.41,0,0,0-1,.17v3.08h-0.46V66.51Z" transform="translate(0 0)"/><path class="cls-4" d="M290.1,64.87h0.47v4.92c-0.33,0-.68,0-1,0-1.51,0-1.85-.61-1.85-1.89S288,66.2,289.1,66.2a3.44,3.44,0,0,1,1,.17v-1.5Zm0,1.82a3.41,3.41,0,0,0-1-.17c-0.77,0-.93.43-0.93,1.44s0.18,1.55,1.33,1.56l0.6,0v-2.8Z" transform="translate(0 0)"/><path class="cls-4" d="M291.72,66.3a12.05,12.05,0,0,1,1.26-.09,1,1,0,0,1,1.22,1.11v2.22a5.24,5.24,0,0,1-1.68.29,1,1,0,0,1-1.08-1,1,1,0,0,1,1.15-1l1.14-.11V67.31a0.66,0.66,0,0,0-.76-0.77c-0.34,0-.78,0-1.2.08Zm2,1.68-1.09.09a0.66,0.66,0,0,0-.72.72,0.63,0.63,0,0,0,.61.73,4.74,4.74,0,0,0,1.2-.18V68Z" transform="translate(0 0)"/><path class="cls-4" d="M295.16,66.51a3.85,3.85,0,0,1,1.47-.3,2.64,2.64,0,0,1,.38,0l-0.06.32-0.32,0a3.4,3.4,0,0,0-1,.17v3.08h-0.46V66.51Z" transform="translate(0 0)"/><path class="cls-4" d="M300.06,69.12h0.5v0.65h-0.5V69.12Z" transform="translate(0 0)"/><path class="cls-4" d="M304.27,64.87h3.35v0.35h-2.87v1.86h2.41v0.35h-2.41v2h2.87v0.35h-3.35v-4.9Z" transform="translate(0 0)"/><path class="cls-4" d="M310.78,64.87h0.47v4.92c-0.33,0-.68,0-1,0-1.51,0-1.85-.61-1.85-1.89s0.28-1.74,1.41-1.74a3.43,3.43,0,0,1,1,.17v-1.5Zm0,1.82a3.41,3.41,0,0,0-1-.17c-0.77,0-.93.43-0.93,1.44s0.18,1.55,1.33,1.56l0.6,0v-2.8Z" transform="translate(0 0)"/><path class="cls-4" d="M312.3,64.9h0.46v0.47H312.3V64.9Zm0,1.37h0.46v3.5H312.3v-3.5Z" transform="translate(0 0)"/><path class="cls-4" d="M314,66c0-1,.36-1.15.9-1.15a2.28,2.28,0,0,1,.63.11l-0.06.29a2.05,2.05,0,0,0-.53-0.09c-0.33,0-.47.08-0.47,0.83v0.25h0.81v0.32h-0.81v3.19H314V66.58h-0.73V66.26H314V66Z" transform="translate(0 0)"/><path class="cls-4" d="M316.41,64.68H317l-0.92.83h-0.45ZM316,66.27h0.44v3.5H316v-3.5Z" transform="translate(0 0)"/><path class="cls-4" d="M320,69.69a8.68,8.68,0,0,1-1,.15c-1.31.06-1.62-.49-1.62-1.81s0.31-1.88,1.62-1.82a9.18,9.18,0,0,1,1,.15l0,0.29c-0.07,0-.69-0.12-1-0.13-1,0-1.14.4-1.14,1.51s0.18,1.55,1.14,1.5a8.5,8.5,0,0,0,1-.17Z" transform="translate(0 0)"/><path class="cls-4" d="M323.74,68c0,1.29-.32,1.88-1.56,1.88s-1.59-.51-1.59-1.89,0.5-1.74,1.59-1.74S323.74,66.7,323.74,68Zm-0.47,0c0-1.06-.41-1.44-1.1-1.44s-1.13.3-1.13,1.42,0.18,1.57,1.13,1.57S323.28,69,323.28,68Z" transform="translate(0 0)"/><path class="cls-4" d="M326.76,64.87h4v0.35H329v4.55h-0.47V65.22h-1.79V64.87Z" transform="translate(0 0)"/><path class="cls-4" d="M335.16,64.87l-1.54,4.9h-1L331,64.87h0.48l1.47,4.55h0.32l1.43-4.55h0.48Z" transform="translate(0 0)"/><path class="cls-4" d="M342,69.68a10.69,10.69,0,0,1-1.53.15c-1.67,0-2-1-2-2.49s0.29-2.53,2-2.53A8.92,8.92,0,0,1,342,65l0,0.36a10.07,10.07,0,0,0-1.49-.15c-1.36,0-1.53.83-1.53,2.18s0.2,2.14,1.53,2.14a11.6,11.6,0,0,0,1.49-.15Z" transform="translate(0 0)"/><path class="cls-4" d="M345.88,68c0,1.29-.32,1.88-1.56,1.88s-1.59-.51-1.59-1.89,0.5-1.74,1.59-1.74S345.88,66.7,345.88,68Zm-0.47,0c0-1.06-.41-1.44-1.1-1.44s-1.13.3-1.13,1.42,0.18,1.57,1.13,1.57S345.41,69,345.41,68Z" transform="translate(0 0)"/><path class="cls-4" d="M346.79,64.87h0.46v4.9h-0.46v-4.9Z" transform="translate(0 0)"/><path class="cls-4" d="M351.22,68c0,1.29-.32,1.88-1.56,1.88s-1.59-.51-1.59-1.89,0.5-1.74,1.59-1.74S351.22,66.7,351.22,68Zm-0.47,0c0-1.06-.41-1.44-1.1-1.44s-1.13.3-1.13,1.42,0.18,1.57,1.13,1.57S350.76,69,350.76,68Z" transform="translate(0 0)"/><path class="cls-4" d="M352.11,66.51a3.85,3.85,0,0,1,1.47-.3,2.64,2.64,0,0,1,.38,0l-0.06.32-0.32,0a3.4,3.4,0,0,0-1,.17v3.08h-0.46V66.51Z" transform="translate(0 0)"/><path class="cls-4" d="M357,69.12h0.5v0.65H357V69.12Z" transform="translate(0 0)"/><path class="cls-4" d="M364.62,69.68a10.69,10.69,0,0,1-1.53.15c-1.67,0-2-1-2-2.49s0.29-2.53,2-2.53a8.92,8.92,0,0,1,1.53.14l0,0.36a10.07,10.07,0,0,0-1.49-.15c-1.36,0-1.53.83-1.53,2.18s0.2,2.14,1.53,2.14a11.6,11.6,0,0,0,1.49-.15Z" transform="translate(0 0)"/><path class="cls-4" d="M368.29,69.63a7,7,0,0,1-1.37.2c-1.23,0-1.54-.69-1.54-1.81,0-1.37.57-1.81,1.51-1.81a1.4,1.4,0,0,1,1.53,1.69v0.27h-2.56c0,0.89.26,1.35,1.07,1.35a7.21,7.21,0,0,0,1.3-.2Zm-0.36-1.79c0-1-.32-1.33-1-1.33s-1,.35-1,1.33h2.07Z" transform="translate(0 0)"/><path class="cls-4" d="M369.24,66.51a3.85,3.85,0,0,1,1.47-.3c1.12,0,1.52.55,1.52,1.74v1.83h-0.48V67.95c0-1-.26-1.42-1-1.42a3.41,3.41,0,0,0-1,.17v3.08h-0.46V66.51Z" transform="translate(0 0)"/><path class="cls-4" d="M373.91,65.37v0.9h0.81v0.32h-0.81v2.07c0,0.69.06,0.86,0.35,0.86h0a1.64,1.64,0,0,0,.42-0.07l-0.06.32a2.32,2.32,0,0,1-.45.06c-0.65,0-.77-0.31-0.77-1.17V66.59h-0.73V66.28h0.73v-0.9h0.46Z" transform="translate(0 0)"/><path class="cls-4" d="M375.38,66.51a3.85,3.85,0,0,1,1.47-.3,2.64,2.64,0,0,1,.38,0l-0.06.32-0.32,0a3.4,3.4,0,0,0-1,.17v3.08h-0.46V66.51Z" transform="translate(0 0)"/><path class="cls-4" d="M380.87,68c0,1.29-.32,1.88-1.56,1.88s-1.59-.51-1.59-1.89,0.5-1.74,1.59-1.74S380.87,66.7,380.87,68Zm-0.47,0c0-1.06-.41-1.44-1.1-1.44s-1.13.3-1.13,1.42,0.18,1.57,1.13,1.57S380.4,69,380.4,68Z" transform="translate(0 0)"/><path class="cls-4" d="M384.18,69.12h0.5v0.65h-0.5V69.12Z" transform="translate(0 0)"/><path class="cls-4" d="M392.09,69.66a11.71,11.71,0,0,1-1.74.17c-1.83,0-2.21-1-2.21-2.49s0.32-2.53,2.21-2.53a9.56,9.56,0,0,1,1.73.17l-0.06.58a10.8,10.8,0,0,0-1.67-.17c-1.18,0-1.33.69-1.33,2s0.18,1.92,1.33,1.92a12.61,12.61,0,0,0,1.67-.18Z" transform="translate(0 0)"/><path class="cls-4" d="M393.08,64.87h3.74v0.57h-2.87V67h2.41v0.57h-2.41V69.2h2.87v0.57h-3.74v-4.9Z" transform="translate(0 0)"/><path class="cls-4" d="M398.67,68.1v1.67h-0.86v-4.9h2.26c1.28,0,1.89.53,1.89,1.55a1.61,1.61,0,0,1-1.89,1.68h-1.39Zm1.39-.57a0.92,0.92,0,0,0,1-1.11,0.83,0.83,0,0,0-1-1h-1.39v2.08h1.39Z" transform="translate(0 0)"/><path class="cls-4" d="M402.76,66.69h0.89v0.82h-0.89V66.69Zm0,2.26h0.89v0.82h-0.89V68.95Z" transform="translate(0 0)"/><path class="cls-4" d="M410,65.44A10.58,10.58,0,0,0,408,69.77h-0.5a11.74,11.74,0,0,1,2-4.29H406.8l-0.06-.33H410v0.29Z" transform="translate(0 0)"/><path class="cls-4" d="M413.83,65.55a6.54,6.54,0,0,0-1.29-.14c-0.92,0-1.48.48-1.5,1.78a4.5,4.5,0,0,1,1.37-.3c1.16,0,1.7.48,1.7,1.41a1.48,1.48,0,0,1-1.75,1.54c-1.28,0-1.82-.79-1.82-2.42s0.79-2.33,2-2.33a6.69,6.69,0,0,1,1.33.15ZM411,67.71c0,1.16.39,1.79,1.33,1.79a1.08,1.08,0,0,0,1.26-1.21,1,1,0,0,0-1.22-1.07,4.8,4.8,0,0,0-1.37.31v0.18Z" transform="translate(0 0)"/><path class="cls-4" d="M415.06,69.36a6.56,6.56,0,0,0,1.29.14c0.92,0,1.48-.48,1.5-1.78a4.52,4.52,0,0,1-1.37.3c-1.16,0-1.7-.48-1.7-1.41a1.48,1.48,0,0,1,1.75-1.54c1.28,0,1.82.79,1.82,2.42s-0.79,2.33-2,2.33a6.72,6.72,0,0,1-1.33-.15Zm2.79-2.16c0-1.16-.39-1.79-1.33-1.79a1.08,1.08,0,0,0-1.26,1.21,1,1,0,0,0,1.22,1.07,4.82,4.82,0,0,0,1.37-.31V67.21Z" transform="translate(0 0)"/><path class="cls-4" d="M423,66.25a1,1,0,0,1-.74,1,1.14,1.14,0,0,1,.93,1.2c0,1.06-.79,1.34-1.95,1.34s-1.95-.28-1.95-1.34a1.13,1.13,0,0,1,.89-1.19,1,1,0,0,1-.76-1.05c0-.81.53-1.17,1.77-1.17S423,65.43,423,66.25Zm-3.21,2.25c0,0.8.5,1,1.46,1s1.46-.2,1.46-1-0.5-1-1.46-1S419.78,67.7,419.78,68.5Zm1.42-3.09c-1,0-1.28.2-1.28,0.85s0.3,0.9,1.32.9,1.26-.25,1.26-0.9-0.33-.85-1.3-0.85h0Z" transform="translate(0 0)"/><path class="cls-4" d="M427.82,67.57c0,1.78-.69,2.26-1.84,2.26s-1.85-.49-1.85-2.28c0-2,.67-2.48,1.84-2.48S427.82,65.58,427.82,67.57Zm-3.2,0c0,1.58.49,1.93,1.36,1.93s1.35-.35,1.35-1.95-0.43-2.14-1.36-2.14S424.62,65.81,424.62,67.57Z" transform="translate(0 0)"/><path class="cls-4" d="M428.68,67.64h2.66V68h-2.66V67.64Z" transform="translate(0 0)"/><path class="cls-4" d="M435.89,67.57c0,1.78-.69,2.26-1.84,2.26s-1.85-.49-1.85-2.28c0-2,.67-2.48,1.84-2.48S435.89,65.58,435.89,67.57Zm-3.2,0c0,1.58.49,1.93,1.36,1.93s1.35-.35,1.35-1.95S435,65.41,434,65.41,432.7,65.81,432.7,67.57Z" transform="translate(0 0)"/><path class="cls-4" d="M440.53,67.57c0,1.78-.69,2.26-1.84,2.26s-1.85-.49-1.85-2.28c0-2,.67-2.48,1.84-2.48S440.53,65.58,440.53,67.57Zm-3.2,0c0,1.58.49,1.93,1.36,1.93s1.35-.35,1.35-1.95-0.43-2.14-1.36-2.14S437.34,65.81,437.34,67.57Z" transform="translate(0 0)"/><path class="cls-4" d="M445.17,67.57c0,1.78-.69,2.26-1.84,2.26s-1.85-.49-1.85-2.28c0-2,.67-2.48,1.84-2.48S445.17,65.58,445.17,67.57Zm-3.2,0c0,1.58.49,1.93,1.36,1.93s1.35-.35,1.35-1.95-0.43-2.14-1.36-2.14S442,65.81,442,67.57Z" transform="translate(0 0)"/><path class="cls-4" d="M448.59,69.12h0.5v0.65h-0.5V69.12Z" transform="translate(0 0)"/><path class="cls-4" d="M456.51,69.66a11.71,11.71,0,0,1-1.73.17c-1.83,0-2.21-1-2.21-2.49s0.32-2.53,2.21-2.53a9.54,9.54,0,0,1,1.73.17l-0.06.58a10.8,10.8,0,0,0-1.67-.17c-1.18,0-1.33.69-1.33,2s0.18,1.92,1.33,1.92a12.59,12.59,0,0,0,1.67-.18Z" transform="translate(0 0)"/><path class="cls-4" d="M457.86,66.27l1,1.3,1-1.3h0.94L459.3,68l1.43,1.75h-0.95l-1-1.29-1,1.29h-0.95L458.34,68l-1.42-1.75h0.94Z" transform="translate(0 0)"/><path class="cls-4" d="M461.13,68.95H462v0.82h-0.89V68.95Z" transform="translate(0 0)"/><path class="cls-4" d="M465.92,71.13h-0.47V66.25c0.33,0,.68,0,1,0,1.51,0,1.85.6,1.85,1.89s-0.28,1.74-1.41,1.74a3.43,3.43,0,0,1-1-.17v1.47Zm0-1.79a3.41,3.41,0,0,0,1,.17c0.77,0,.93-0.43.93-1.44s-0.18-1.55-1.33-1.56l-0.6,0v2.8Z" transform="translate(0 0)"/><path class="cls-4" d="M472.22,68c0,1.29-.32,1.88-1.56,1.88s-1.59-.51-1.59-1.89,0.5-1.74,1.59-1.74S472.22,66.7,472.22,68Zm-1.56,1.56c0.94,0,1.1-.49,1.1-1.56s-0.41-1.44-1.1-1.44-1.13.3-1.13,1.42,0.18,1.57,1.13,1.57h0Z" transform="translate(0 0)"/><path class="cls-4" d="M473,69.42a5.77,5.77,0,0,0,.83.09H474c0.39,0,.7-0.07.7-0.54a0.54,0.54,0,0,0-.2-0.44c-0.14-.11-0.5-0.37-0.82-0.59A1,1,0,0,1,473,67s0-.07,0-0.1a0.94,0.94,0,0,1,1.13-.72,5.79,5.79,0,0,1,1,.07l-0.06.3a4.72,4.72,0,0,0-.77-0.07h-0.12a0.54,0.54,0,0,0-.67.44s0,0.06,0,.09a0.68,0.68,0,0,0,.43.63c0.37,0.24.75,0.51,0.87,0.62a0.86,0.86,0,0,1,.34.68,1,1,0,0,1-1.14.84h-0.12a7,7,0,0,1-.92-0.08Z" transform="translate(0 0)"/><path class="cls-4" d="M476.74,65.37v0.9h0.81v0.32h-0.81v2.07c0,0.69.06,0.86,0.35,0.86h0a1.64,1.64,0,0,0,.42-0.07l-0.06.32a2.33,2.33,0,0,1-.45.06c-0.65,0-.77-0.31-0.77-1.17V66.59h-0.73V66.28h0.73v-0.9h0.46Z" transform="translate(0 0)"/><path class="cls-4" d="M478.34,66.3a12.06,12.06,0,0,1,1.26-.09,1,1,0,0,1,1.22,1.11v2.22a5.24,5.24,0,0,1-1.68.29,1,1,0,0,1-1.08-1,1,1,0,0,1,1.15-1l1.14-.11V67.31a0.66,0.66,0,0,0-.76-0.77c-0.34,0-.78,0-1.2.08Zm2,1.68-1.09.09a0.66,0.66,0,0,0-.72.72,0.63,0.63,0,0,0,.61.73,4.75,4.75,0,0,0,1.2-.18V68Z" transform="translate(0 0)"/><path class="cls-4" d="M481.81,64.87h0.47v4.9h-0.47v-4.9Z" transform="translate(0 0)"/><path class="cls-4" d="M485.89,65.17a10.49,10.49,0,0,1,1.34-.07c1.2,0,1.69.48,1.73,0.94a1.3,1.3,0,0,1-1,1.32,15.48,15.48,0,0,0-1.55.93,0.89,0.89,0,0,0-.32.67v0.48H489v0.34h-3.38V68.92a1.12,1.12,0,0,1,.49-0.92c0.22-.15.82-0.5,1.58-0.94a1,1,0,0,0,.75-1c0-.32-0.37-0.63-1.25-0.63a9.61,9.61,0,0,0-1.28.07Z" transform="translate(0 0)"/><path class="cls-4" d="M489.84,65.26a8.55,8.55,0,0,1,1.64-.18c1.17,0,1.62.39,1.62,1.18a1.13,1.13,0,0,1-.81,1,1.08,1.08,0,0,1,1,1.18c0,0.91-.56,1.36-1.7,1.36a9.93,9.93,0,0,1-1.78-.17l0.07-.33a9.22,9.22,0,0,0,1.71.18,1,1,0,1,0,.06-2h-1.13V67.16h1.12a1,1,0,0,0,1-.91c0-.6-0.29-0.84-1.13-0.84a8.18,8.18,0,0,0-1.58.18Z" transform="translate(0 0)"/><path class="cls-4" d="M497.9,66.25a1,1,0,0,1-.74,1,1.14,1.14,0,0,1,.93,1.2c0,1.06-.79,1.34-1.95,1.34s-1.95-.28-1.95-1.34a1.13,1.13,0,0,1,.89-1.19,1,1,0,0,1-.76-1.05c0-.81.53-1.17,1.77-1.17S497.9,65.43,497.9,66.25Zm-3.21,2.25c0,0.8.5,1,1.46,1s1.46-.2,1.46-1-0.5-1-1.46-1S494.69,67.7,494.69,68.5Zm1.42-3.09c-1,0-1.28.2-1.28,0.85s0.3,0.9,1.32.9,1.26-.25,1.26-0.9-0.33-.85-1.3-0.85h0Z" transform="translate(0 0)"/><path class="cls-4" d="M501.51,69.12H502v0.65h-0.5V69.12Z" transform="translate(0 0)"/><path class="cls-4" d="M509.21,64.87l-1.54,4.9h-1L505,64.87h0.48L507,69.42h0.32l1.43-4.55h0.48Z" transform="translate(0 0)"/><path class="cls-4" d="M509.85,64.9h0.47v0.47h-0.47V64.9Zm0,1.37h0.47v3.5h-0.47v-3.5Z" transform="translate(0 0)"/><path class="cls-4" d="M511.3,64.87h0.47v4.9H511.3v-4.9Z" transform="translate(0 0)"/><path class="cls-4" d="M513.23,66.37a3.44,3.44,0,0,1,1-.17c1.13,0,1.41.55,1.41,1.74v1.83h-0.48V67.94c0-1-.16-1.42-0.93-1.42a3.4,3.4,0,0,0-1,.17v3.08h-0.46v-4.9h0.46v1.5Z" transform="translate(0 0)"/><path class="cls-4" d="M519.36,69.63a7,7,0,0,1-1.37.2c-1.23,0-1.55-.69-1.55-1.81,0-1.37.57-1.81,1.51-1.81a1.4,1.4,0,0,1,1.53,1.69v0.27h-2.55c0,0.89.26,1.35,1.07,1.35a7.2,7.2,0,0,0,1.3-.2ZM519,67.85c0-1-.32-1.33-1-1.33s-1,.35-1,1.33H519Z" transform="translate(0 0)"/><path class="cls-4" d="M520.31,66.51a3.85,3.85,0,0,1,1.47-.3c1.12,0,1.52.55,1.52,1.74v1.83h-0.48V67.95c0-1-.26-1.42-1-1.42a3.4,3.4,0,0,0-1,.17v3.08h-0.46V66.51Z" transform="translate(0 0)"/><path class="cls-4" d="M524.39,66.3a12.06,12.06,0,0,1,1.26-.09,1,1,0,0,1,1.22,1.11v2.22a5.24,5.24,0,0,1-1.68.29,1,1,0,0,1-1.08-1,1,1,0,0,1,1.15-1l1.14-.11V67.31a0.66,0.66,0,0,0-.76-0.77c-0.34,0-.78,0-1.2.08Zm2,1.68-1.09.09a0.66,0.66,0,0,0-.72.72,0.63,0.63,0,0,0,.61.73,4.75,4.75,0,0,0,1.2-.18V68Z" transform="translate(0 0)"/><path class="cls-4" d="M530.26,67.64h2.66V68h-2.66V67.64Z" transform="translate(0 0)"/><path class="cls-4" d="M537.09,67.79v2h-0.47v-4.9h2c1.12,0,1.7.44,1.7,1.43a1.27,1.27,0,0,1-1.09,1.43l1.24,2H540l-1.2-2h-1.68Zm1.56-.35a1,1,0,0,0,1.21-1.14,1,1,0,0,0-1.21-1.08h-1.56v2.22h1.56Z" transform="translate(0 0)"/><path class="cls-4" d="M545.76,67.24c0,1.79-.41,2.6-2.1,2.6s-2.14-.69-2.14-2.62,0.65-2.41,2.14-2.41S545.76,65.49,545.76,67.24Zm-0.47,0c0-1.51-.62-2.08-1.63-2.08-1.19,0-1.67.47-1.67,2.06s0.28,2.26,1.67,2.26S545.29,68.74,545.29,67.24Z" transform="translate(0 0)"/><path class="cls-1" d="M257,405h5.71v0.74h-2.29v5.56H259.3V405.7H257V405Z" transform="translate(0 0)"/><path class="cls-1" d="M269.41,408c0,2.22-.58,3.32-2.95,3.32s-3-1-3-3.35c0-2.24.93-3.1,3-3.1C268.34,404.89,269.41,405.8,269.41,408Zm-1.11,0c0-1.76-.7-2.39-1.84-2.39-1.36,0-1.89.51-1.89,2.36s0.31,2.61,1.89,2.61S268.3,409.81,268.3,408Z" transform="translate(0 0)"/><path class="cls-1" d="M269.62,405h5.71v0.74H273v5.56h-1.11V405.7h-2.31V405Z" transform="translate(0 0)"/><path class="cls-1" d="M278.57,405l2.3,6.3h-1.13l-0.62-1.66h-2.77l-0.61,1.66h-1.13l2.31-6.3h1.64Zm-0.75,1h-0.16l-1,3h2.2Z" transform="translate(0 0)"/><path class="cls-1" d="M281.8,411.26V405h1.11v5.56h3.38v0.74H281.8Z" transform="translate(0 0)"/><path class="cls-1" d="M295,408.47h-3.39v2.79H290.5V405h1.11v2.77H295V405h1.11v6.3H295v-2.79Z" transform="translate(0 0)"/><path class="cls-1" d="M301,405l2.3,6.3h-1.13l-0.62-1.66h-2.78l-0.61,1.66H297l2.32-6.3H301Zm-0.72-2h1l-1.37,1.17H299Zm0,2.91h-0.16l-1,3h2.2Z" transform="translate(0 0)"/><g id="_Group_" data-name="&lt;Group&gt;"><g id="_Group_2" data-name="&lt;Group&gt;"><path class="cls-1" d="M90.21,50.57H86.7l-5.17-10.9-5.15,10.9H72.86l8.66-17.35Z" transform="translate(0 0)"/></g><g id="_Group_3" data-name="&lt;Group&gt;"><g id="_Group_4" data-name="&lt;Group&gt;"><circle class="cls-5" cx="81.53" cy="44.81" r="1.43"/></g><g id="_Group_5" data-name="&lt;Group&gt;" class="cls-6"><polygon class="cls-7" points="82.79 45.3 81.79 44.89 81.81 44.86 82.79 45.3"/></g><g id="_Group_6" data-name="&lt;Group&gt;" class="cls-6"><polygon class="cls-7" points="80.31 44.22 80.77 44.43 80.78 44.39 80.31 44.22"/></g><g id="_Group_7" data-name="&lt;Group&gt;"><ellipse class="cls-8" cx="81.29" cy="44.64" rx="0.22" ry="0.64" transform="translate(7.06 100.24) rotate(-65.61)"/></g><g id="_Group_8" data-name="&lt;Group&gt;"><ellipse class="cls-8" cx="81.29" cy="44.64" rx="0.18" ry="0.58" transform="translate(7.06 100.24) rotate(-65.61)"/></g><g id="_Group_9" data-name="&lt;Group&gt;"><path class="cls-7" d="M81.69,44.95H81.61a1.51,1.51,0,0,1-.4-0.12,0.64,0.64,0,0,1-.47-0.42,0.63,0.63,0,0,1,.62.07,1.5,1.5,0,0,1,.36.22,0.2,0.2,0,0,1,.11.2A0.14,0.14,0,0,1,81.69,44.95Zm-0.81-.58a0.12,0.12,0,0,0-.11,0,0.64,0.64,0,0,0,.45.38,1.48,1.48,0,0,0,.39.12,0.19,0.19,0,0,0,.19,0h0a0.19,0.19,0,0,0-.1-0.17,1.48,1.48,0,0,0-.35-0.22A1.25,1.25,0,0,0,80.88,44.37Z" transform="translate(0 0)"/></g><g id="_Group_10" data-name="&lt;Group&gt;"><g id="_Group_11" data-name="&lt;Group&gt;"><rect class="cls-7" x="81.27" y="44.06" width="0.04" height="1.17" transform="translate(7.06 100.24) rotate(-65.61)"/></g></g></g><g id="_Group_12" data-name="&lt;Group&gt;"><path class="cls-1" d="M69.35,33.16V50.58l-2.89-2.26v-9l-5.83,4.53-5.81-4.53v9l-2.89,2.26V33.16L60.64,40Z" transform="translate(0 0)"/></g><g id="_Group_13" data-name="&lt;Group&gt;"><path class="cls-1" d="M98.61,40.3l0.64,0.09a5.9,5.9,0,0,1,1,.27,8.06,8.06,0,0,1,1.17.52,3.81,3.81,0,0,1,1.09.89,4.88,4.88,0,0,1,.81,1.37,5.23,5.23,0,0,1,.32,1.94s0,0.18,0,.45a4.62,4.62,0,0,1-.22,1,6.49,6.49,0,0,1-.55,1.22,4.41,4.41,0,0,1-1.06,1.21,5.73,5.73,0,0,1-1.74.94,7.82,7.82,0,0,1-2.58.37A6.22,6.22,0,0,1,94.79,50a6.43,6.43,0,0,1-2.16-1.63L95,46.51a1,1,0,0,0,.17.21,2.53,2.53,0,0,0,.51.39,4.08,4.08,0,0,0,.85.38,3.92,3.92,0,0,0,1.24.17A2.92,2.92,0,0,0,99.81,47a2.12,2.12,0,0,0,.74-1.61,2,2,0,0,0-.28-1.1,2.11,2.11,0,0,0-.75-0.69,4.33,4.33,0,0,0-1.09-.42l-1.31-.29-0.61-.12a6,6,0,0,1-.95-0.3,7.88,7.88,0,0,1-1.09-.54,4.1,4.1,0,0,1-1-.85,4.37,4.37,0,0,1-1.05-3s0-.17,0-0.43a4.47,4.47,0,0,1,.21-0.92,5.45,5.45,0,0,1,.55-1.17,4.15,4.15,0,0,1,1.07-1.14A6,6,0,0,1,96,33.58a8.31,8.31,0,0,1,2.58-.35,6.2,6.2,0,0,1,2.68.6,6.54,6.54,0,0,1,2.17,1.64l-2.36,1.82a1.75,1.75,0,0,0-.72-0.68,4.17,4.17,0,0,0-.92-0.36,7.09,7.09,0,0,0-1.18-.14,3.53,3.53,0,0,0-2.06.52,1.69,1.69,0,0,0-.74,1.47,2,2,0,0,0,.23,1.05,1.56,1.56,0,0,0,.64.59,3.5,3.5,0,0,0,1,.31Z" transform="translate(0 0)"/></g><g id="_Group_14" data-name="&lt;Group&gt;"><path class="cls-1" d="M120.7,33.23v10.9q0,0.23,0,.8a6.92,6.92,0,0,1-.22,1.28,7,7,0,0,1-.59,1.49,4.7,4.7,0,0,1-1.15,1.41,6,6,0,0,1-1.89,1,8.54,8.54,0,0,1-2.82.4,7.9,7.9,0,0,1-2.7-.4,5.6,5.6,0,0,1-1.82-1,4.6,4.6,0,0,1-1.1-1.41,7.23,7.23,0,0,1-.55-1.49,7.45,7.45,0,0,1-.21-1.28q0-.57,0-0.8V33.23h2.89v10.9q0,0.25.06,0.88a3.67,3.67,0,0,0,.38,1.28A3.11,3.11,0,0,0,112,47.46a3.53,3.53,0,0,0,2,.51,4,4,0,0,0,2.21-.51A3.28,3.28,0,0,0,117.75,45q0.06-.62.06-0.88V33.23h2.89Z" transform="translate(0 0)"/></g><g id="_Group_15" data-name="&lt;Group&gt;"><path class="cls-1" d="M148.25,33.23h2.89V48.31l-2.89,2.24V33.23Z" transform="translate(0 0)"/></g><g id="_Group_16" data-name="&lt;Group&gt;"><polygon class="cls-1" points="129.89 33.23 127 33.23 124.12 33.23 124.12 36.12 127 36.12 127 37.16 127 50.55 129.89 50.55 129.89 37.16 129.89 36.12 132.78 36.12 132.78 33.23 129.89 33.23"/></g><g id="_Group_17" data-name="&lt;Group&gt;"><polygon class="cls-1" points="141.88 33.23 138.99 33.23 136.1 33.23 136.1 36.12 138.99 36.12 138.99 37.16 138.99 50.55 141.88 50.55 141.88 37.16 141.88 36.12 144.77 36.12 144.77 33.23 141.88 33.23"/></g><g id="_Group_18" data-name="&lt;Group&gt;"><path class="cls-1" d="M118.15,54.36L120.63,61h-1.46l-0.63-1.65h-2.75L115.17,61h-1.46l2.5-6.63h1.93Zm-1,1.2-1,2.85h2Z" transform="translate(0 0)"/><path class="cls-1" d="M121.36,61.5a9.49,9.49,0,0,0,2,.33c0.68,0,.9-0.28.91-1a4.35,4.35,0,0,1-1,.13c-1.85,0-2.3-.85-2.3-2.23,0-1.64.56-2.55,2.9-2.55,0.56,0,1.14,0,1.78.09v4c0,1.41-.3,2.33-2.31,2.34a9,9,0,0,1-2.3-.36ZM124.3,57h-0.54c-1.14,0-1.28.5-1.28,1.73,0,1.06.18,1.44,0.86,1.44a3.89,3.89,0,0,0,1-.14V57Z" transform="translate(0 0)"/><path class="cls-1" d="M126.73,56.64a6.45,6.45,0,0,1,2.38-.48h0.07a5.47,5.47,0,0,1,.87.08l-0.14.8a4.94,4.94,0,0,0-.79-0.08,3.81,3.81,0,0,0-1,.14V61h-1.42V56.64Z" transform="translate(0 0)"/><path class="cls-1" d="M131.61,54.23h1.28l-1.54,1.29h-1.13Zm-0.82,2h1.41V61H130.8V56.25Z" transform="translate(0 0)"/><path class="cls-1" d="M137.57,60.83a13.59,13.59,0,0,1-1.72.25c-2.1.08-2.61-.76-2.61-2.46s0.51-2.55,2.61-2.46a16,16,0,0,1,1.72.24l0,0.71c-0.35,0-1.36-.14-1.75-0.16-0.94,0-1.12.34-1.12,1.67s0.18,1.7,1.12,1.66a16.74,16.74,0,0,0,1.72-.29Z" transform="translate(0 0)"/><path class="cls-1" d="M143.17,58.55c0,1.64-.51,2.53-2.51,2.53s-2.55-.77-2.55-2.55,0.83-2.36,2.55-2.36S143.17,56.89,143.17,58.55Zm-1.42,0c0-1.21-.42-1.58-1.09-1.58-0.84,0-1.13.27-1.13,1.56s0.19,1.75,1.13,1.75S141.75,59.84,141.75,58.55Z" transform="translate(0 0)"/><path class="cls-1" d="M144,54.36h1.42V61H144V54.36Z" transform="translate(0 0)"/><path class="cls-1" d="M146.55,56.32a19.91,19.91,0,0,1,2.12-.16c1.38,0,2.05.62,2.05,1.59v2.87a8.52,8.52,0,0,1-2.67.46,1.58,1.58,0,0,1-1.85-1.51c0-.81.57-1.38,1.92-1.48l1.18-.1V57.7a0.58,0.58,0,0,0-.63-0.72c-0.48,0-1,0-2,.14Zm2.75,2.48-1,.09a0.56,0.56,0,0,0-.62.69,0.62,0.62,0,0,0,.46.7,5.54,5.54,0,0,0,1.2-.16V58.8Z" transform="translate(0 0)"/></g></g><rect class="cls-4" x="467.46" y="97.76" width="19.92" height="0.48"/><rect class="cls-4" x="492.8" y="97.76" width="19.92" height="0.48"/><rect class="cls-4" x="517.63" y="97.76" width="24.92" height="0.48"/></svg>